<svg width="100" height="100" viewBox="0 0 100 100" fill="none" xmlns="http://www.w3.org/2000/svg">
<rect width="100" height="100" fill="white"/>
<path d="M49.5728 99.9694C47.2436 98.2838 45.4048 96.0772 43.3822 94.0852C33.1768 83.9412 23.0328 73.7358 12.8275 63.5918C12.2452 63.0095 12 62.3966 12 61.5691C12.0306 41.4956 12.0306 21.422 12 1.34845C12 0.214527 12.3984 0 13.4097 0C37.5593 0.0306466 61.7395 0.0306466 85.8891 0C86.7165 0 87.2069 0.0919413 87.2069 1.13393C87.1762 21.3607 87.1762 41.5875 87.1762 61.8143C87.1762 62.0595 87.1149 62.3046 87.0843 62.5804C86.6552 62.1514 86.2262 61.753 85.7971 61.3239C74.2127 49.7395 62.6283 38.1551 51.0438 26.5706C50.7067 26.2335 50.4309 25.5899 49.8486 25.8351C49.2357 26.0803 49.5728 26.7545 49.5728 27.2142C49.5421 49.1879 49.5421 71.1309 49.5421 93.1045C49.5421 95.3724 49.5728 97.6709 49.5728 99.9694Z" fill="#2A9C8B"/>
<path d="M49.4808 100C49.4502 97.7015 49.4195 95.403 49.4195 93.1045C49.4195 71.1309 49.4195 49.1879 49.4502 27.2142C49.4502 26.7545 49.1131 26.111 49.726 25.8351C50.3083 25.59 50.5841 26.2335 50.9212 26.5707C62.5057 38.1551 74.0901 49.7395 85.6745 61.3239C86.1036 61.753 86.5326 62.1821 86.9617 62.5805C86.0423 64.266 84.4487 65.3693 83.1615 66.6871C76.9709 72.939 70.6577 79.099 64.4364 85.3509C60.2072 89.5802 56.0392 93.84 51.8406 98.0999C51.1358 98.8048 50.4309 99.571 49.4808 100Z" fill="#F1CF13"/>
</svg>
