<?xml version="1.0" encoding="utf-8"?>
<!-- Generator: Adobe Illustrator 25.3.1, SVG Export Plug-In . SVG Version: 6.00 Build 0)  -->
<!DOCTYPE svg PUBLIC "-//W3C//DTD SVG 1.1//EN" "http://www.w3.org/Graphics/SVG/1.1/DTD/svg11.dtd" [
	<!ENTITY ns_extend "http://ns.adobe.com/Extensibility/1.0/">
	<!ENTITY ns_ai "http://ns.adobe.com/AdobeIllustrator/10.0/">
	<!ENTITY ns_graphs "http://ns.adobe.com/Graphs/1.0/">
	<!ENTITY ns_vars "http://ns.adobe.com/Variables/1.0/">
	<!ENTITY ns_imrep "http://ns.adobe.com/ImageReplacement/1.0/">
	<!ENTITY ns_sfw "http://ns.adobe.com/SaveForWeb/1.0/">
	<!ENTITY ns_custom "http://ns.adobe.com/GenericCustomNamespace/1.0/">
	<!ENTITY ns_adobe_xpath "http://ns.adobe.com/XPath/1.0/">
]>
<svg version="1.1" id="Слой_1" xmlns:x="&ns_extend;" xmlns:i="&ns_ai;" xmlns:graph="&ns_graphs;"
	 xmlns="http://www.w3.org/2000/svg" xmlns:xlink="http://www.w3.org/1999/xlink" x="0px" y="0px" viewBox="0 0 256 256"
	 style="enable-background:new 0 0 256 256;" xml:space="preserve">
<style type="text/css">
	.st0{fill:#3A6CB3;}
	.st1{fill:#FFFFFF;}
</style>
<metadata>
	<sfw  xmlns="&ns_sfw;">
		<slices></slices>
		<sliceSourceBounds  bottomLeftOrigin="true" height="233" width="231" x="12.5" y="11.5"></sliceSourceBounds>
	</sfw>
</metadata>
<g id="layer1_1_" transform="translate(13.452402,-84.644208)">
	<g id="g3989" transform="matrix(0.35277777,0,0,-0.35277777,17.912364,84.644208)">
		<path id="path3991" class="st0" d="M496.5-32.6H51.4c-58,0-104.9-47.4-104.9-105.8v-448.9c0-58.4,46.9-105.8,104.9-105.8h445.1
			c58,0,104.9,47.4,104.9,105.8v448.9C601.4-80,554.4-32.6,496.5-32.6"/>
	</g>
	<g id="g3993" transform="matrix(0.35277777,0,0,-0.35277777,-3.3614425,113.60801)">
		<path id="path3995" class="st1" d="M183.7-458.4c-101.9,0-132,80.9-81.7,125.2c16.8,15,47.5,22.3,63.9,23.9
			c60.5,6,116.5-17.3,182.7-49.8C302.1-420.2,243-458.4,183.7-458.4 M546-365.2c-26.2,8.9-61.4,22.4-100.5,36.7
			c23.5,41.2,42.3,88.2,54.7,139.2H371v46.9h158.1v26.2H371v78.2h-64.5c-11.3,0-11.3-11.3-11.3-11.3v-66.9H135.2v-26.2h159.9v-46.9
			h-132v-26.2h256.1c-9.4-32.6-22-63.1-36.9-90.9c-83.1,27.7-171.8,50.1-227.5,36.3c-35.6-8.9-58.6-24.7-72.1-41.2
			c-61.9-75.9-17.5-191.2,113.2-191.2c77.3,0,151.7,43.4,209.4,115c86-41.7,256.4-113.3,256.4-113.3v102.1
			C661.7-398.8,640.3-397.1,546-365.2"/>
	</g>
</g>
</svg>
