<?xml version="1.0" encoding="utf-8"?>
<!-- Generator: Adobe Illustrator 25.3.1, SVG Export Plug-In . SVG Version: 6.00 Build 0)  -->
<!DOCTYPE svg PUBLIC "-//W3C//DTD SVG 1.1//EN" "http://www.w3.org/Graphics/SVG/1.1/DTD/svg11.dtd" [
	<!ENTITY ns_extend "http://ns.adobe.com/Extensibility/1.0/">
	<!ENTITY ns_ai "http://ns.adobe.com/AdobeIllustrator/10.0/">
	<!ENTITY ns_graphs "http://ns.adobe.com/Graphs/1.0/">
	<!ENTITY ns_vars "http://ns.adobe.com/Variables/1.0/">
	<!ENTITY ns_imrep "http://ns.adobe.com/ImageReplacement/1.0/">
	<!ENTITY ns_sfw "http://ns.adobe.com/SaveForWeb/1.0/">
	<!ENTITY ns_custom "http://ns.adobe.com/GenericCustomNamespace/1.0/">
	<!ENTITY ns_adobe_xpath "http://ns.adobe.com/XPath/1.0/">
]>
<svg version="1.1" id="Layer_1" xmlns:x="&ns_extend;" xmlns:i="&ns_ai;" xmlns:graph="&ns_graphs;"
	 xmlns="http://www.w3.org/2000/svg" xmlns:xlink="http://www.w3.org/1999/xlink" x="0px" y="0px" viewBox="0 0 512 512"
	 style="enable-background:new 0 0 512 512;" xml:space="preserve">
<style type="text/css">
	.st0{fill:#0096D6;}
	.st1{fill:#FFFFFF;}
</style>
<metadata>
	<sfw  xmlns="&ns_sfw;">
		<slices></slices>
		<sliceSourceBounds  bottomLeftOrigin="true" height="512" width="512" x="0" y="0"></sliceSourceBounds>
	</sfw>
</metadata>
<g>
	<rect y="0" class="st0" width="512" height="512"/>
	<path class="st1" d="M248.4,379.2c-13.8,0.3-19,4.6-18.7,13.8c0,5.5,3.5,10.7,9.8,10.4c4,0,8.6-2.3,11.2-6.6v-17.6H248.4z
		 M244.3,340c17.6-0.3,25.4,7.5,25.4,21.3c0,11.2-0.3,21.6-0.3,34c0,9.2,4.6,8.6,12.4,5.8l1.4,3.5c-5.8,4.6-12.1,6.6-19,6.6
		c-6.9,0-12.4-2.9-12.7-9.8c-2.6,4.6-12.1,10.4-20.7,10.4c-12.1,0-21.6-6.1-21.6-16.4c0-12.7,14.1-20.2,38.6-20.5h2.6v-12.7
		c-0.3-15.3-10.7-19-21.9-15.8c0,0,3.5,11.2-2,20.7c0,0-13.3,1.4-13.3-10.7C213.2,346.9,230.2,340,244.3,340z"/>
	<path class="st1" d="M112.9,241.7H84.4l28.5-39.8C112.9,202,112.9,241.7,112.9,241.7z M134,272.6v-85h-17l-64.3,85l-8.9,3.2
		l-1.7,4.9h31.7l1.4-4.9l-13-3.2l16.4-23.3h33.7v23.3l-8.9,3.2l-1.4,4.9h42.6l1.7-4.9L134,272.6z"/>
	<path class="st1" d="M441.1,396.2c-3.7,4.3-10.4,8.9-16.7,8.9c-13.8,0-18.7-12.1-18.7-27.1c0-21,9.5-32.6,23.6-32.6
		c4.3,0,8.6,1.4,12.1,4v46.7H441.1z M472.5,403.1l-12.1-2.6V304l-30.8,4.3v4l11.5,3.5v26.8c-3.5-1.7-9.8-3.2-14.1-3.2
		c-24.2,0.3-42.1,15-42.1,38.9c0,22.2,15.6,32.8,34.9,32.8c10.4,0,17.3-5.2,21.6-9.2l2,9.2l29.4-3.7v-4.3H472.5z"/>
	<path class="st1" d="M188.1,405.4v4.9h-47.3v-4.9l12.1-3.2v-50.7l-11.5-3.5v-4l30.5-4.3v11.5c1.2-2.9,9.5-11.5,19.6-11.5
		c9.5,0,13.5,5.5,13.5,13.5c0,6.3-6.6,11.8-13,11.8c0,0-6.6-5.5-4.6-18.4c-3.5,0.3-12.7,5.2-15,10.7v44.7L188.1,405.4z"/>
	<path class="st1" d="M338,410.3h40v-4.9l-12.1-3.2c0.3-17.6,0-29.1,0-38c0-13.8-5.8-24.5-23.3-24.5c-11.5,0-21.3,6.6-25.4,13v-13.3
		c0,0-21.9,3.2-30.8,4.3v4l11.5,3.5v50.7l-11.5,3.2v4.9h42.9v-4.9l-12.1-3.2V359c3.5-5.2,10.4-11.2,19-11.2
		c8.1,0,10.4,5.2,10.4,16.4v37.7l-8.9,3.2v5.2H338z"/>
	<path class="st1" d="M181.2,184.7l-13-0.6v-4l35.4-5.5c0,0-22.5,68-30.5,92.8c-0.6,1.4-0.3,4.3,2.9,4.3c1.2,0,2.9,0,9.2-3.7
		l2.3,3.2c-8.1,8.4-15,11.2-21,11.2c-10.1,0-10.9-10.1-10.9-12.7c0-2.9,0.9-6.6,1.4-8.6C166,232.2,181.2,184.7,181.2,184.7"/>
	<path class="st1" d="M220.1,225.3c0.6-1.4,1.2-4.6-2-4.6c-1.2,0-3.7,0.3-9.8,4l-2.3-3.2c8.1-8.6,15-11.2,21-11.2
		c10.1,0,10.4,8.6,10.4,11.5c0,6.9-5.8,21-5.8,21c11.2-18.2,28.8-32.6,39.8-32.6c6.1,0,10.7,4.3,10.1,10.4c-0.6,4.9-5.2,15-8.1,22.2
		c9.5-15.8,27.9-32.6,40-32.6c6.3,0,11.2,4.6,10.4,10.9c0,1.7-6.9,21.3-14.7,45.8c-0.6,1.4-0.3,4.3,2.9,4.3c1.2,0,2.9,0.3,9.2-3.7
		l2.3,3.2c-8.1,8.4-14.7,11.2-21,11.2c-10.1,0-10.9-10.1-10.9-12.7c0-2.9,0.9-6.6,1.4-8.6c9.2-30.5,15-40.6,10.9-40.6
		c-7.5,0-29.7,24.2-33.7,37.7l-6.6,22.8h-18.7c0,0,5.5-16.1,9.5-29.1c7.8-25.4,11.2-31.1,7.8-31.1c-7.5,0-29.7,24.2-33.4,37.7
		l-6.6,22.8h-18.7C203.1,280.6,212.3,249.8,220.1,225.3"/>
	<path class="st1" d="M111.2,385.2c0-13-6.1-20.7-24.5-20.7c-4,0-7.8,0.3-8.1,0.3v38.6c0,0,5.5,1.7,13.5,1.7
		C103.7,405.1,111.2,399.1,111.2,385.2 M78.7,359c1.2,0,4,0.3,7.5,0.3c9.8,0,20.2-2.9,20.2-19c0-15.3-9.2-17.6-21-17.6
		c-0.9,0-3.5,0-6.9,0.6V359H78.7z M43.8,410.3v-5.2l13.8-3.2v-76.4l-13.8-3.2v-5.2h46.4c31.4,0,37.7,12.7,37.7,21.9
		c0,13.8-18.4,21.9-27.7,21.9c10.1,0.9,33.4,4.3,33.4,23.1c0,15.8-15.6,26.2-41.8,26.2H43.8z"/>
</g>
</svg>
