<?xml version="1.0" encoding="utf-8"?>
<!-- Generator: Adobe Illustrator 25.3.1, SVG Export Plug-In . SVG Version: 6.00 Build 0)  -->
<!DOCTYPE svg PUBLIC "-//W3C//DTD SVG 1.1//EN" "http://www.w3.org/Graphics/SVG/1.1/DTD/svg11.dtd" [
	<!ENTITY ns_extend "http://ns.adobe.com/Extensibility/1.0/">
	<!ENTITY ns_ai "http://ns.adobe.com/AdobeIllustrator/10.0/">
	<!ENTITY ns_graphs "http://ns.adobe.com/Graphs/1.0/">
	<!ENTITY ns_vars "http://ns.adobe.com/Variables/1.0/">
	<!ENTITY ns_imrep "http://ns.adobe.com/ImageReplacement/1.0/">
	<!ENTITY ns_sfw "http://ns.adobe.com/SaveForWeb/1.0/">
	<!ENTITY ns_custom "http://ns.adobe.com/GenericCustomNamespace/1.0/">
	<!ENTITY ns_adobe_xpath "http://ns.adobe.com/XPath/1.0/">
]>
<svg version="1.1" id="Layer_1" xmlns:x="&ns_extend;" xmlns:i="&ns_ai;" xmlns:graph="&ns_graphs;"
	 xmlns="http://www.w3.org/2000/svg" xmlns:xlink="http://www.w3.org/1999/xlink" x="0px" y="0px" viewBox="0 0 512 512"
	 style="enable-background:new 0 0 512 512;" xml:space="preserve">
<style type="text/css">
	.st0{fill:#F7F6F6;}
	.st1{fill:#AA946F;}
</style>
<metadata>
	<sfw  xmlns="&ns_sfw;">
		<slices></slices>
		<sliceSourceBounds  bottomLeftOrigin="true" height="512" width="512" x="0" y="0"></sliceSourceBounds>
	</sfw>
</metadata>
<rect y="0" class="st0" width="512" height="512"/>
<g>
	<path class="st1" d="M384.8,379.8c3.2,8.1,14.4,12.1,33.5,12.1V406H285.1v-14.1h40c7.5,0,11.3-2.7,11.3-8.1c-0.3,0-0.4-0.3-0.4-0.8
		c0-0.5-0.1-1-0.2-1.4c-0.1-0.4-0.2-1-0.2-1.8l-21.4-54.5H175.7l-19.8,51.3c-0.3,1.4-0.5,2.4-0.6,3.2c-0.1,0.8-0.2,1.4-0.2,1.6
		c0,7,5.9,10.5,17.8,10.5h27V406H93.7v-14.5c20.4,0,32.3-3.8,35.5-11.3l111.4-274.1h35.5L384.8,379.8z M185,301h119.5l-60.2-153
		L185,301z"/>
</g>
</svg>
