<?xml version="1.0" encoding="utf-8"?>
<!-- Generator: Adobe Illustrator 25.3.1, SVG Export Plug-In . SVG Version: 6.00 Build 0)  -->
<!DOCTYPE svg PUBLIC "-//W3C//DTD SVG 1.1//EN" "http://www.w3.org/Graphics/SVG/1.1/DTD/svg11.dtd" [
	<!ENTITY ns_extend "http://ns.adobe.com/Extensibility/1.0/">
	<!ENTITY ns_ai "http://ns.adobe.com/AdobeIllustrator/10.0/">
	<!ENTITY ns_graphs "http://ns.adobe.com/Graphs/1.0/">
	<!ENTITY ns_vars "http://ns.adobe.com/Variables/1.0/">
	<!ENTITY ns_imrep "http://ns.adobe.com/ImageReplacement/1.0/">
	<!ENTITY ns_sfw "http://ns.adobe.com/SaveForWeb/1.0/">
	<!ENTITY ns_custom "http://ns.adobe.com/GenericCustomNamespace/1.0/">
	<!ENTITY ns_adobe_xpath "http://ns.adobe.com/XPath/1.0/">
]>
<svg version="1.1" id="Layer_1" xmlns:x="&ns_extend;" xmlns:i="&ns_ai;" xmlns:graph="&ns_graphs;"
	 xmlns="http://www.w3.org/2000/svg" xmlns:xlink="http://www.w3.org/1999/xlink" x="0px" y="0px" viewBox="0 0 512 512"
	 style="enable-background:new 0 0 512 512;" xml:space="preserve">
<style type="text/css">
	.st0{fill:#0F66B0;enable-background:new    ;}
	.st1{fill:#FFFFFF;}
	.st2{fill:#6BB42D;enable-background:new    ;}
</style>
<metadata>
	<sfw  xmlns="&ns_sfw;">
		<slices></slices>
		<sliceSourceBounds  bottomLeftOrigin="true" height="512" width="511.8" x="0" y="0"></sliceSourceBounds>
	</sfw>
</metadata>
<rect class="st0" width="511.8" height="467.7"/>
<path class="st1" d="M443.1,233.3C442.8,130,358.8,46.4,255.5,46.7C152.2,47,68.7,130.9,68.9,234.3
	c0.3,103.3,84.2,186.9,187.6,186.6v0.2c103.1-0.3,186.5-83.8,186.6-186.9C443.1,233.8,443.1,233.6,443.1,233.3z M256.2,406
	c-35.6,0-68.7-10.9-96.1-29.4c4.7,0.1,9.3-0.9,13.5-2.9l83.8-87.1l83.9,87.1c3.6,1.7,7.6,2.7,11.5,2.9
	C325.2,395.2,291.9,406.1,256.2,406z M386.9,346c-1.3-3.1-2.9-6-4.8-8.7l-80.3-97l16.7-17.3v-31.4c-2.8-3.1-3.7-7.4-2.6-11.3
	l10.8-14c0,0,8.3-2.6,8.3,2.9c-1,6.3-3.9,12.1-8.3,16.7c0,0-3.2,14,14.2,14l8.3-5.6l14-15.9h13.1l22.5-28.5v0.5c0,0,3.8-7.8-6.1-8.6
	h-13.6c2.2-10.9-1-22.3-8.6-30.5c-9.3-10.1-23.4-14.3-36.7-11c-6.5,1.6-12.2,5.5-15.9,11l-61.4,74.5l-61.9-74.8
	c-3.9-5.4-9.5-9.3-15.9-11c-13.3-3.6-27.5,0.7-36.7,11c-7.6,8.3-10.7,19.8-8.3,30.8h-14c-1.5-0.3-3,0.1-4.2,1
	c-2.4,1.8-2.9,5.2-1.1,7.6l21.8,28.9h15l14,15.9l8.5,5.6c17.2-0.6,14-14,14-14c-4.4-4.6-7.3-10.5-8.3-16.7c-0.6-5.4,8.3-2.9,8.3-2.9
	l10.7,14c1.2,4,0.2,8.3-2.6,11.3v30.6l16.1,16.7l-80.8,98.1c-2,2.8-3.6,5.8-4.9,9c-26.3-30.2-42.2-69.8-42.1-113
	c0.1-95,77.2-172,172.2-171.9c94.9,0.4,171.7,77.3,171.9,172.2C428.4,276.8,412.7,315.9,386.9,346z"/>
<rect y="483.7" class="st2" width="511.7" height="28.3"/>
</svg>
