<svg width="200" height="200" viewBox="0 0 200 200" fill="none" xmlns="http://www.w3.org/2000/svg">
<rect width="200" height="200" fill="white"/>
<path d="M17.6659 93.5332C14.1419 93.4874 8.97025 93.4416 4.94279 93.5332C3.84439 95.3638 2.83753 97.0114 1.87643 98.5675H0.0457659L0 98.476C3.47826 93.6705 7.23112 87.7208 10.5263 82.2746H13.0435C16.2014 87.6293 19.222 92.4805 23.3867 98.476L23.2952 98.5675H20.6407C19.8627 97.1487 18.8558 95.4554 17.6659 93.5332ZM5.67506 92.389C8.74142 92.4348 13.2723 92.389 17.0252 92.389C15.3318 89.643 13.4096 86.5766 11.3501 83.4187C9.15332 86.7597 7.32265 89.7345 5.67506 92.389Z" fill="black"/>
<path d="M28.0091 82.2288H30.0686C34.8284 86.714 40.6865 91.9314 45.4462 96.1419C45.492 92.4806 45.492 85.6613 45.4462 82.3204L45.5377 82.2288H46.865L46.9565 82.3204C46.865 86.9886 46.865 93.5332 46.9565 98.4302L46.8192 98.5217H44.897C40.778 94.5401 34.0503 88.4989 29.4279 84.4714C29.3821 87.7208 29.3364 94.357 29.4279 98.476L29.3364 98.5675H28.0091L27.9176 98.476C28.0091 94.4485 28.0091 86.119 27.9176 82.3204L28.0091 82.2288Z" fill="black"/>
<path d="M53.2723 98.5217C53.3639 93.4874 53.3639 86.3021 53.2723 82.5034L53.3639 82.4119C55.3776 82.3204 57.1167 82.0458 61.6934 82.0458C68.3753 82.0458 74.2334 84.7918 74.2334 90.6041C74.2334 95.7758 68.5126 98.7963 61.6934 98.7963C57.6202 98.7963 55.1945 98.5675 53.3639 98.5675L53.2723 98.5217ZM55.4691 97.2403C56.8879 97.3776 57.7117 97.6064 61.3273 97.6064C68.4211 97.6064 71.762 94.9977 71.762 90.6499C71.762 85.8902 68.238 83.2815 61.19 83.2815C58.3982 83.2815 57.071 83.5103 55.4691 83.7391C55.3776 86.3936 55.4234 92.8009 55.4691 97.2403Z" fill="black"/>
<path d="M79.4966 82.3661C81.5103 82.2746 83.8901 82 88.1007 82C93.8215 82 97.4371 82.9153 97.4371 86.3936C97.4371 88.4531 95.286 89.643 92.54 90.0092V90.1007C95.6979 90.3753 98.4439 91.4279 98.4439 93.9451C98.4439 97.6064 94.4622 98.7963 87.8718 98.7963C85.4462 98.7963 81.0069 98.659 79.4508 98.5675L79.3593 98.476C79.4508 94.357 79.4508 86.5309 79.3593 82.4577L79.4966 82.3661ZM86.7277 89.6888C93.2265 89.5973 95.1487 88.7277 95.1487 86.3936C95.1487 84.1053 93.3181 83.2815 87.5515 83.2815C84.6682 83.2815 83.2036 83.5103 81.5561 83.7391C81.5561 84.9291 81.5103 87.2632 81.5103 89.7346C83.3867 89.6888 84.2563 89.6888 86.7277 89.6888ZM87.5057 97.6064C94.3249 97.6064 96.1556 96.5995 96.1556 94.1739C96.1556 91.2906 93.3638 90.9245 87.2311 90.9245C84.8513 90.9245 83.1121 90.9703 81.6018 91.0618C81.6018 93.2128 81.6018 95.4554 81.6018 97.2403C83.1121 97.4233 85.4462 97.6064 87.5057 97.6064Z" fill="black"/>
<path d="M120.229 93.5332C116.705 93.4874 111.533 93.4416 107.506 93.5332C106.407 95.3638 105.401 97.0114 104.439 98.5675H102.609L102.517 98.476C106.041 93.7162 109.794 87.7208 113.089 82.2746H115.606C118.764 87.6293 121.785 92.4805 125.95 98.476L125.858 98.5675H123.249C122.426 97.1487 121.419 95.4554 120.229 93.5332ZM108.238 92.389C111.304 92.4348 115.835 92.389 119.588 92.389C117.895 89.643 115.973 86.5766 113.913 83.4187C111.762 86.7597 109.886 89.7345 108.238 92.389Z" fill="black"/>
<path d="M129.977 82.2288H132.037C136.796 86.714 142.654 91.9314 147.414 96.1419C147.46 92.4806 147.46 85.6613 147.414 82.3204L147.506 82.2288H148.833L148.924 82.3204C148.833 86.9886 148.833 93.5332 148.924 98.4302L148.787 98.5217H146.865C142.746 94.5401 136.018 88.4989 131.396 84.4714C131.35 87.7208 131.35 94.357 131.396 98.476L131.304 98.5675H129.977L129.885 98.476C129.977 94.4485 129.977 86.119 129.885 82.3204L129.977 82.2288Z" fill="black"/>
<path d="M158.352 98.5217H156.293L156.201 98.476C156.293 93.4416 156.293 86.0732 156.201 82.2746L156.293 82.1831H158.352L158.444 82.2746C158.352 84.7918 158.352 88.1327 158.352 91.5652C163.707 88.0412 167.597 85.0664 171.487 82.1831H174.417L174.462 82.2746C171.625 83.968 168.147 86.3021 164.531 88.8192C167.552 91.611 171.671 95.2723 175.515 98.3844L175.423 98.476H172.311C168.741 95.0892 166.087 92.7094 162.746 90.0549L158.352 93.1213C158.352 94.9519 158.398 96.7826 158.444 98.3844L158.352 98.5217Z" fill="black"/>
<path d="M197.803 82.2288L187.277 116.279H189.611L200 82.2288H197.803Z" fill="#C53C2C"/>
<path d="M83.6614 108.087H85.904C86.6362 108.087 87.1854 108.133 87.5058 108.316C87.8262 108.453 88.1007 108.682 88.2838 109.002C88.4669 109.323 88.5584 109.689 88.5584 110.101C88.5584 110.65 88.4211 111.108 88.1008 111.519C87.7804 111.931 87.4143 112.206 86.9566 112.343C86.5905 112.435 86.0413 112.481 85.1717 112.481H83.936L83.3868 116.371H82.6088L83.6614 108.087ZM84.3937 108.911L84.0275 111.611H85.1717C85.9497 111.611 86.4532 111.565 86.7735 111.474C87.0939 111.382 87.3227 111.199 87.5058 110.924C87.6889 110.65 87.7804 110.375 87.7804 110.055C87.7804 109.78 87.7346 109.597 87.5973 109.368C87.46 109.185 87.277 109.048 87.0939 109.002C86.8651 108.957 86.4989 108.911 85.904 108.911C85.8582 108.911 84.3937 108.911 84.3937 108.911Z" fill="#C53C2C"/>
<path d="M90.1144 110.238H90.8925L90.8009 110.97C91.0298 110.696 91.2586 110.467 91.5332 110.284C91.8078 110.101 92.1282 110.055 92.4485 110.055C92.6774 110.055 92.9062 110.101 93.135 110.192L92.7689 110.924C92.5858 110.833 92.4028 110.787 92.2655 110.787C91.9909 110.787 91.7163 110.879 91.4874 111.062C91.2128 111.245 91.0298 111.519 90.8467 111.886C90.7094 112.252 90.5263 112.847 90.4348 113.67L90.0687 116.233H89.2906L90.1144 110.238Z" fill="#C53C2C"/>
<path d="M94.0961 110.238H94.8284L94.0504 116.279H93.2723L94.0961 110.238ZM94.6911 107.721C94.8742 107.721 95.0115 107.767 95.1488 107.904C95.2861 108.041 95.3318 108.178 95.3318 108.362C95.3318 108.545 95.2861 108.682 95.1488 108.819C95.0115 108.957 94.8742 109.002 94.6911 109.002C94.508 109.002 94.3707 108.957 94.2334 108.819C94.0961 108.682 94.0504 108.545 94.0504 108.362C94.0504 108.178 94.0961 108.041 94.2334 107.904C94.4165 107.812 94.5538 107.721 94.6911 107.721Z" fill="#C53C2C"/>
<path d="M96.2014 110.238H97.0252L98.5355 114.677L101.098 110.238H101.922L98.444 116.279H98.2609L96.2014 110.238Z" fill="#C53C2C"/>
<path d="M108.833 116.279H108.055L108.192 115.364C107.46 116.096 106.682 116.462 105.767 116.462C104.943 116.462 104.256 116.188 103.753 115.684C103.204 115.135 102.975 114.494 102.975 113.625C102.975 112.664 103.341 111.84 104.027 111.108C104.714 110.421 105.538 110.055 106.453 110.055C106.957 110.055 107.414 110.146 107.78 110.375C108.146 110.604 108.513 110.924 108.741 111.382L108.879 110.238H109.703L108.833 116.279ZM105.858 115.73C106.362 115.73 106.819 115.593 107.231 115.364C107.643 115.135 107.963 114.769 108.192 114.357C108.421 113.899 108.558 113.442 108.558 112.892C108.558 112.252 108.375 111.748 107.963 111.382C107.597 111.016 107.048 110.787 106.407 110.787C105.675 110.787 105.034 111.062 104.485 111.565C103.936 112.114 103.707 112.755 103.707 113.533C103.707 114.174 103.89 114.677 104.302 115.089C104.714 115.547 105.217 115.73 105.858 115.73Z" fill="#C53C2C"/>
<path d="M112.815 107.95H113.547L113.272 110.238H114.508L114.416 110.925H113.181L112.449 116.279H111.67L112.403 110.925H111.35L111.487 110.238H112.494L112.815 107.95Z" fill="#C53C2C"/>
<path d="M121.556 113.396H116.156C116.156 114.128 116.339 114.677 116.705 115.089C117.071 115.501 117.62 115.73 118.261 115.73C118.673 115.73 119.085 115.638 119.451 115.455C119.817 115.272 120.137 115.043 120.366 114.723L120.961 115.181C120.641 115.547 120.275 115.867 119.817 116.096C119.359 116.325 118.81 116.462 118.261 116.462C117.3 116.462 116.613 116.142 116.11 115.593C115.652 114.998 115.378 114.357 115.378 113.625C115.378 113.03 115.515 112.435 115.835 111.886C116.156 111.336 116.567 110.879 117.117 110.604C117.666 110.284 118.215 110.146 118.856 110.146C119.634 110.146 120.275 110.421 120.778 110.924C121.281 111.474 121.51 112.114 121.51 112.938C121.556 113.03 121.556 113.213 121.556 113.396ZM120.824 112.755C120.824 112.206 120.595 111.703 120.229 111.382C119.863 111.016 119.405 110.833 118.856 110.833C118.261 110.833 117.712 111.016 117.254 111.336C116.796 111.703 116.476 112.16 116.247 112.755H120.824V112.755Z" fill="#C53C2C"/>
<path d="M127.826 108.087H128.879C129.931 108.087 130.618 108.133 130.984 108.27C131.35 108.407 131.67 108.636 131.854 108.911C132.082 109.231 132.22 109.597 132.22 110.009C132.22 110.467 132.082 110.833 131.854 111.199C131.625 111.565 131.304 111.794 130.892 111.931C131.396 112.069 131.762 112.343 132.037 112.664C132.311 113.03 132.448 113.442 132.448 113.945C132.448 114.449 132.357 114.86 132.082 115.227C131.854 115.593 131.533 115.867 131.121 116.005C130.709 116.142 130.023 116.233 129.062 116.233H126.682L127.826 108.087ZM128.009 112.389L127.597 115.501H128.696C129.474 115.501 130.023 115.501 130.297 115.41C130.709 115.318 131.03 115.135 131.213 114.906C131.442 114.677 131.533 114.357 131.533 113.945C131.533 113.579 131.442 113.304 131.259 113.076C131.075 112.847 130.801 112.664 130.435 112.526C130.069 112.389 129.474 112.343 128.696 112.343H128.009V112.389ZM128.513 108.865L128.146 111.611C128.284 111.611 128.513 111.611 128.696 111.611C129.428 111.611 129.977 111.565 130.297 111.428C130.618 111.291 130.892 111.108 131.03 110.879C131.167 110.65 131.304 110.33 131.304 110.055C131.304 109.643 131.167 109.368 130.892 109.185C130.618 109.002 130.023 108.911 129.108 108.911C128.97 108.865 128.741 108.865 128.513 108.865Z" fill="#C53C2C"/>
<path d="M139.588 116.279H138.81L138.947 115.364C138.215 116.096 137.437 116.462 136.522 116.462C135.698 116.462 135.011 116.188 134.508 115.684C133.959 115.135 133.73 114.494 133.73 113.625C133.73 112.664 134.096 111.84 134.783 111.108C135.469 110.421 136.293 110.055 137.208 110.055C137.712 110.055 138.169 110.146 138.535 110.375C138.902 110.604 139.268 110.924 139.497 111.382L139.634 110.238H140.458L139.588 116.279ZM136.613 115.73C137.117 115.73 137.574 115.593 137.986 115.364C138.398 115.135 138.719 114.769 138.947 114.357C139.176 113.899 139.313 113.442 139.313 112.892C139.313 112.252 139.13 111.748 138.719 111.382C138.352 111.016 137.803 110.787 137.162 110.787C136.43 110.787 135.789 111.062 135.24 111.565C134.691 112.114 134.462 112.755 134.462 113.533C134.462 114.174 134.645 114.677 135.057 115.089C135.469 115.547 135.973 115.73 136.613 115.73Z" fill="#C53C2C"/>
<path d="M142.609 110.238H143.341L143.204 111.199C143.844 110.467 144.531 110.101 145.355 110.101C145.995 110.101 146.499 110.284 146.865 110.696C147.231 111.062 147.46 111.611 147.46 112.252C147.46 112.526 147.414 112.938 147.323 113.579L146.957 116.371H146.224L146.59 113.579C146.682 112.984 146.728 112.526 146.728 112.252C146.728 111.84 146.59 111.474 146.362 111.199C146.087 110.924 145.767 110.833 145.355 110.833C144.943 110.833 144.577 110.924 144.211 111.153C143.844 111.382 143.57 111.657 143.387 112.023C143.204 112.389 143.021 112.938 142.929 113.762L142.563 116.371H141.831L142.609 110.238Z" fill="#C53C2C"/>
<path d="M150.252 107.904H151.03L150.389 112.481L153.318 110.238H154.554L151.03 112.938L154.096 116.279H153.089L150.297 113.259L149.931 116.279H149.108L150.252 107.904Z" fill="#C53C2C"/>
<path d="M161.51 113.396H156.11C156.11 114.128 156.293 114.677 156.659 115.089C157.025 115.501 157.574 115.73 158.215 115.73C158.627 115.73 159.039 115.638 159.405 115.455C159.771 115.272 160.092 115.043 160.32 114.723L160.915 115.181C160.595 115.547 160.229 115.867 159.771 116.096C159.313 116.325 158.764 116.462 158.261 116.462C157.3 116.462 156.613 116.142 156.11 115.593C155.652 114.998 155.378 114.357 155.378 113.625C155.378 113.03 155.515 112.435 155.835 111.886C156.156 111.336 156.567 110.879 157.117 110.604C157.666 110.33 158.215 110.146 158.856 110.146C159.634 110.146 160.275 110.421 160.778 110.924C161.281 111.474 161.51 112.114 161.51 112.938C161.556 113.03 161.556 113.213 161.51 113.396ZM160.778 112.755C160.778 112.206 160.549 111.703 160.183 111.382C159.817 111.016 159.359 110.833 158.81 110.833C158.215 110.833 157.666 111.016 157.208 111.336C156.751 111.703 156.43 112.16 156.247 112.755H160.778V112.755Z" fill="#C53C2C"/>
<path d="M163.57 110.238H164.348L164.256 110.97C164.485 110.696 164.714 110.467 164.989 110.284C165.309 110.146 165.583 110.055 165.904 110.055C166.133 110.055 166.362 110.101 166.59 110.192L166.224 110.924C166.041 110.833 165.858 110.787 165.767 110.787C165.492 110.787 165.217 110.879 164.989 111.062C164.714 111.245 164.531 111.519 164.348 111.886C164.165 112.252 164.027 112.847 163.936 113.67L163.57 116.233H162.792L163.57 110.238Z" fill="#C53C2C"/>
<path d="M170.526 110.924L170.114 111.565C169.748 111.062 169.382 110.833 168.925 110.833C168.65 110.833 168.421 110.924 168.238 111.108C168.055 111.291 167.963 111.474 167.963 111.703C167.963 111.84 168.009 112.023 168.147 112.16C168.284 112.297 168.513 112.526 168.879 112.755C169.474 113.121 169.84 113.442 170.023 113.716C170.206 113.991 170.298 114.311 170.298 114.677C170.298 115.181 170.114 115.593 169.748 115.959C169.382 116.325 168.925 116.462 168.375 116.462C167.643 116.462 167.002 116.142 166.499 115.455L166.957 114.906C167.414 115.455 167.918 115.73 168.421 115.73C168.741 115.73 168.97 115.638 169.199 115.41C169.428 115.181 169.565 114.952 169.565 114.677C169.565 114.449 169.474 114.22 169.291 114.037C169.199 113.899 168.925 113.67 168.421 113.35C167.918 112.984 167.597 112.709 167.414 112.481C167.277 112.252 167.185 112.023 167.185 111.703C167.185 111.245 167.368 110.879 167.689 110.558C168.055 110.238 168.467 110.101 168.97 110.101C169.291 110.101 169.565 110.146 169.794 110.284C169.977 110.375 170.298 110.604 170.526 110.924Z" fill="#C53C2C"/>
</svg>
