<svg width="100" height="100" viewBox="0 0 100 100" fill="none" xmlns="http://www.w3.org/2000/svg">
<rect width="100" height="100" fill="white"/>
<g clip-path="url(#clip0_1846_111780)">
<path d="M18.2814 34.3353C17.1095 35.7331 15.2345 36.8356 13.3595 36.6781C13.1251 34.7881 14.0431 32.78 15.1173 31.5397C16.2892 30.1025 18.34 29.0788 20.0001 29C20.1955 30.9688 19.4337 32.8981 18.2814 34.3353ZM19.9806 37.0522C17.2658 36.8947 14.9415 38.6075 13.6525 38.6075C12.3439 38.6075 10.3712 37.1309 8.2228 37.1703C5.42983 37.2097 2.83217 38.8044 1.40639 41.3441C-1.5233 46.4234 0.644672 53.9441 3.4767 58.0784C4.86342 60.1259 6.52358 62.3703 8.71108 62.2916C10.7814 62.2128 11.6017 60.9331 14.1017 60.9331C16.6212 60.9331 17.3439 62.2916 19.5314 62.2522C21.797 62.2128 23.2228 60.2047 24.6095 58.1572C26.1915 55.8341 26.8361 53.57 26.8751 53.4519C26.8361 53.4125 22.5001 51.7391 22.4611 46.6991C22.422 42.4859 25.879 40.4778 26.0353 40.3597C24.0822 37.4459 21.0353 37.1309 19.9806 37.0522ZM35.6642 31.3428V62.0356H40.3908V51.5422H46.9337C52.9103 51.5422 57.1095 47.4078 57.1095 41.4228C57.1095 35.4378 52.9884 31.3428 47.09 31.3428H35.6642V31.3428ZM40.3908 35.3591H45.84C49.9416 35.3591 52.2853 37.5641 52.2853 41.4425C52.2853 45.3209 49.9416 47.5456 45.8205 47.5456H40.3908V35.3591V35.3591ZM65.7423 62.2719C68.7111 62.2719 71.465 60.7559 72.715 58.3541H72.8126V62.0356H77.1876V46.7581C77.1876 42.3284 73.672 39.4738 68.2619 39.4738C63.2423 39.4738 59.5314 42.3678 59.3947 46.3447H63.6525C64.0041 44.4547 65.7423 43.2144 68.1251 43.2144C71.0158 43.2144 72.6369 44.5728 72.6369 47.0731V48.7663L66.7384 49.1206C61.2501 49.4553 58.2814 51.7194 58.2814 55.6569C58.2814 59.6337 61.3478 62.2719 65.7423 62.2719ZM67.0119 58.6297C64.4923 58.6297 62.8908 57.4091 62.8908 55.5388C62.8908 53.6094 64.4337 52.4872 67.383 52.31L72.6369 51.9753V53.7078C72.6369 56.5822 70.215 58.6297 67.0119 58.6297ZM83.0275 70.3831C87.6369 70.3831 89.8048 68.6112 91.6994 63.2366L100 39.7691H95.1955L89.6291 57.9013H89.5314L83.965 39.7691H79.0236L87.0314 62.1144L86.6017 63.4728C85.8791 65.7763 84.7072 66.6622 82.6173 66.6622C82.2462 66.6622 81.5236 66.6228 81.2306 66.5834V70.265C81.5041 70.3438 82.6759 70.3831 83.0275 70.3831Z" fill="black"/>
</g>
<defs>
<clipPath id="clip0_1846_111780">
<rect width="100" height="42" fill="white" transform="translate(0 29)"/>
</clipPath>
</defs>
</svg>
