<svg width="200" height="200" viewBox="0 0 200 200" fill="none" xmlns="http://www.w3.org/2000/svg">
<g clip-path="url(#clip0_1846_111903)">
<rect width="200" height="200" fill="white"/>
<path fill-rule="evenodd" clip-rule="evenodd" d="M-12 119.478V94.2484L29.4693 56.8874H64.4621L-12 119.478Z" fill="#008D5A"/>
<path fill-rule="evenodd" clip-rule="evenodd" d="M77.1734 200H30.8226L14.9695 187.482L143.437 78.782L160.644 93.2335V129.241L77.1734 200Z" fill="#008D5A"/>
<path fill-rule="evenodd" clip-rule="evenodd" d="M160.644 136.443V166.989L119.996 200H86.5499L160.644 136.443Z" fill="#008D5A"/>
<path fill-rule="evenodd" clip-rule="evenodd" d="M83.4085 0V42.2426L77.1736 47.1242V5.26825L83.4085 0Z" fill="#008D5A"/>
<path fill-rule="evenodd" clip-rule="evenodd" d="M87.71 46.5442H172.002L212.263 12.3248H130.146L87.71 46.5442Z" fill="#008D5A"/>
<path fill-rule="evenodd" clip-rule="evenodd" d="M-12 130.594L73.6452 56.8874H117.435L137.589 73.9004L9.50797 183.18L-12 166.554V129.241V130.594Z" fill="#008D5A"/>
</g>
<defs>
<clipPath id="clip0_1846_111903">
<rect width="200" height="200" fill="white"/>
</clipPath>
</defs>
</svg>
