<svg width="200" height="200" viewBox="0 0 200 200" fill="none" xmlns="http://www.w3.org/2000/svg">
<rect width="200" height="200" fill="white"/>
<path d="M8.20553 72.4529C8.20553 65.6952 7.67204 58.8783 8.32409 52.18C10.9916 22.8376 37.785 -0.695619 67.3052 0.0157114C99.0187 0.78632 122.196 21 126.701 52.3578C128.42 64.5097 125.871 76.1874 119.825 86.798C113.66 97.5273 106.488 107.723 100.797 118.689C90.6606 138.37 95.0471 164.155 110.578 180.16C114.016 183.658 117.691 187.036 121.603 189.882C125.397 192.668 129.665 194.742 134.467 197.588C131.681 198.299 129.487 199.129 127.294 199.425C89.1194 204.108 55.9832 179.745 49.6405 141.808C47.1509 127.048 49.522 112.643 56.5167 99.187C59.6584 93.1407 61.6739 86.8573 60.4291 79.9218C58.4729 69.2519 50.0555 60.5381 39.8597 58.4634C28.9527 56.2108 18.342 60.5381 11.9993 69.8447C11.4065 70.7338 10.8137 71.6823 10.1617 72.5714C9.50964 72.5714 8.85758 72.5121 8.20553 72.4529Z" fill="#EE533B"/>
<path d="M178.451 32.6777C182.837 39.7317 183.252 47.6749 181.77 55.6181C181 59.7082 181.414 62.4943 184.201 65.8138C192.44 75.6539 192.084 96.8752 184.023 107.071C183.786 107.427 183.252 107.545 182.422 108.019C181.296 105.648 180.229 103.455 179.162 101.203C174.064 90.5325 166.239 82.1151 157.111 74.7647C144.959 64.9839 139.387 47.3192 143.892 32.6777C145.492 35.2859 146.796 37.5977 148.338 39.8502C152.724 46.1337 159.126 49.631 166.002 52.18C167.069 52.5949 169.737 51.2315 170.389 49.9867C173.353 44.4146 175.783 38.6054 178.451 32.6777Z" fill="#EE533B"/>
<path d="M146.619 193.201C137.253 181.524 136.838 163.148 145.255 149.81C153.554 136.71 170.508 128.944 184.438 132.205C183.489 133.035 182.719 133.687 181.948 134.279C172.167 141.63 168.966 153.189 173.946 164.333C175.19 167.06 174.835 168.838 173.175 171.091C166.18 180.575 157.466 187.866 146.619 193.201Z" fill="#EE533B"/>
<path d="M155.273 87.5686C153.139 88.9913 151.124 91.2439 148.812 91.5995C145.433 92.0737 143.773 89.2877 143.773 86.0867C143.773 82.8264 146.204 80.7517 148.93 81.1667C151.242 81.5223 153.139 83.9527 155.273 85.4939C155.273 86.2053 155.273 86.9166 155.273 87.5686Z" fill="#EE533B"/>
</svg>
