<svg width="200" height="200" viewBox="0 0 200 200" fill="none" xmlns="http://www.w3.org/2000/svg">
<rect width="200" height="200" fill="white"/>
<path fill-rule="evenodd" clip-rule="evenodd" d="M0 0V200H199.278V0H0Z" fill="#004993"/>
<path fill-rule="evenodd" clip-rule="evenodd" d="M112.168 99.0488H124.04L198.95 0.327934H187.799L112.168 99.0488Z" fill="#E3003A"/>
<path fill-rule="evenodd" clip-rule="evenodd" d="M147.393 179.075C147.393 179.075 147.589 176.189 145.95 170.744C144.31 165.3 138.8 147.721 138.8 147.721H108.757L104.1 154.346C104.1 154.346 108.691 168.186 109.61 170.81C110.528 173.368 111.971 176.386 113.742 179.075C108.036 179.075 95.31 179.075 95.31 179.075C95.31 179.075 95.1132 175.074 92.883 169.564C92.883 169.564 89.472 173.368 88.4225 174.943C87.373 176.517 86.3235 179.075 86.3235 179.075H72.0237C72.0237 179.075 71.1054 172.384 69.5311 169.17C66.7761 172.253 64.1523 175.992 63.0371 179.075H48.803C48.803 179.075 53.1323 174.943 58.1175 168.711C63.1027 162.48 65.2018 159.79 65.2018 159.79L61.8564 147.721H32.2074C32.2074 147.721 15.1526 169.826 13.3815 172.122C11.6104 174.418 9.05222 177.894 8.92103 179.075C6.42841 179.075 0.262451 179.075 0.262451 179.075V173.368C0.262451 173.368 17.9076 152.05 42.637 118.399C45.9824 113.808 48.3438 111.906 50.902 104.952H66.3825C66.3825 104.952 66.2513 108.888 68.3504 115.841C70.4494 122.794 76.9433 144.31 76.9433 144.31L81.9286 138.012C81.9286 138.012 75.7626 118.531 74.5819 114.661C73.4012 110.79 71.8925 106.461 70.7118 104.952H88.8817C88.8817 104.952 88.5537 107.117 89.472 110.2C90.3248 113.283 93.8013 125.812 93.8013 125.812C93.8013 125.812 104.428 112.561 105.936 110.528C107.445 108.495 108.036 107.511 108.232 104.952H123.254C123.254 104.952 121.614 106.264 119.646 108.429C117.678 110.594 98.1962 134.995 98.1962 134.995L100.426 143.063C100.426 143.063 119.711 117.94 123.122 113.414C126.533 108.888 127.78 106.068 128.173 104.952H142.998C142.998 104.952 143.129 108.363 143.785 110.725C147.261 122.926 156.445 153.362 161.627 168.514C164.382 176.451 165.431 177.96 166.35 179.075C164.119 179.075 147.393 179.075 147.393 179.075Z" fill="white"/>
<path fill-rule="evenodd" clip-rule="evenodd" d="M115.645 138.865C115.645 138.865 120.499 133.093 123.385 129.419C126.271 125.746 129.879 120.761 130.6 119.055C130.731 122.729 130.863 123.975 131.781 127.058C132.699 130.141 135.52 138.865 135.52 138.865H115.645Z" fill="#004993"/>
<path fill-rule="evenodd" clip-rule="evenodd" d="M39.1605 138.865C39.1605 138.865 43.8834 133.421 47.2943 129.026C50.7709 124.631 53.3291 121.154 54.2474 119.055C53.8539 123.188 54.5754 124.828 55.4282 127.845C56.2809 130.863 58.9047 138.865 58.9047 138.865H39.1605Z" fill="#004993"/>
<path fill-rule="evenodd" clip-rule="evenodd" d="M85.5362 148.377C85.5362 148.377 87.5696 155.198 89.0783 158.019C89.0783 158.019 85.1426 163.07 83.6339 165.3C83.6339 165.3 81.4692 158.413 80.5509 155.198L85.5362 148.377Z" fill="#004993"/>
</svg>
