<svg width="200" height="200" viewBox="0 0 200 200" fill="none" xmlns="http://www.w3.org/2000/svg">
<rect width="200" height="200" fill="white"/>
<path d="M87.8182 121.223C87.6757 121.175 87.5807 121.08 87.4382 121.08C84.826 120.7 82.4513 119.798 80.504 117.946C78.9842 116.521 78.0343 114.763 77.3694 112.769C76.5145 110.062 76.4195 107.307 76.467 104.505C76.5145 102.177 76.8944 99.9451 77.7968 97.7604C79.2692 94.2458 81.8814 92.061 85.5385 91.0636C87.7707 90.4462 90.003 90.3037 92.2827 90.4462C94.7049 90.6362 97.0797 91.1111 99.1694 92.3935C101.212 93.6284 102.684 95.3857 103.634 97.5704C104.299 99.1852 104.774 100.848 104.869 102.605C104.964 104.552 105.011 106.547 105.106 108.494C105.106 108.827 104.964 108.874 104.679 108.874C103.064 108.874 101.449 108.874 99.8343 108.874C94.325 108.874 88.8631 108.874 83.3537 108.874C82.6888 108.874 82.6413 108.874 82.7838 109.539C83.2112 111.581 84.2086 113.291 86.1084 114.241C87.3907 114.906 88.7681 115.191 90.2404 115.191C95.0374 115.191 99.7869 115.191 104.584 115.191C105.059 115.191 105.154 115.333 105.154 115.761C105.154 117.566 105.154 119.37 105.154 121.128C99.3594 121.223 93.6125 121.223 87.8182 121.223ZM98.9319 102.842C98.742 102.225 98.5995 101.655 98.4095 101.133C97.4596 98.3303 95.3698 97.048 92.6152 96.668C91.1903 96.478 89.718 96.478 88.2931 96.763C87.0583 97.0005 85.9659 97.4754 85.016 98.2353C83.7337 99.3277 83.0687 100.8 82.7363 102.415C82.6413 102.842 82.7363 102.937 83.1162 102.937C88.1982 102.937 93.3276 102.937 98.4095 102.937C98.5995 102.89 98.742 102.842 98.9319 102.842Z" fill="#0080A5"/>
<path d="M140.3 121.223C140.11 121.175 139.967 121.08 139.777 121.033C137.355 120.605 135.075 119.798 133.413 117.851C132.083 116.283 131.656 114.384 131.561 112.389C131.561 112.104 131.751 112.056 131.988 112.056C133.745 112.056 135.503 112.056 137.26 112.056C137.497 112.056 137.687 112.151 137.687 112.436C137.735 114.051 138.97 114.621 140.062 114.953C142.199 115.523 144.384 115.381 146.569 115.238C147.471 115.191 148.374 114.953 149.181 114.479C149.893 114.051 150.321 113.434 150.321 112.579C150.321 112.104 150.321 111.581 150.226 111.106C149.988 110.109 149.181 109.682 148.231 109.539C146.094 109.254 143.957 109.064 141.867 108.779C139.967 108.542 138.067 108.304 136.263 107.497C133.983 106.452 132.463 104.79 131.893 102.272C131.466 100.42 131.466 98.5678 131.988 96.763C132.748 94.1033 134.553 92.441 137.07 91.4911C138.495 90.9687 139.967 90.6362 141.487 90.5887C142.864 90.5412 144.194 90.3987 145.571 90.4937C147.756 90.5887 149.893 90.9212 151.888 91.8711C154.453 93.1059 155.973 95.1007 156.305 97.9504C156.353 98.3778 156.4 98.8528 156.448 99.2802C156.495 99.5177 156.4 99.6602 156.115 99.6602C154.31 99.6602 152.506 99.6602 150.748 99.6602C150.606 99.6602 150.416 99.5177 150.416 99.4227C150.131 97.9029 149.514 97.2854 148.041 96.9055C145.904 96.383 143.719 96.478 141.534 96.6205C140.869 96.668 140.205 96.858 139.587 97.0955C138.115 97.6179 137.64 98.4253 137.687 99.9926C137.735 100.99 138.067 101.797 139.065 102.177C139.587 102.367 140.205 102.51 140.775 102.557C142.437 102.747 144.147 102.842 145.809 103.08C147.424 103.317 149.039 103.555 150.606 103.935C152.458 104.41 154.026 105.455 155.118 107.117C155.973 108.447 156.353 109.967 156.448 111.534C156.543 113.671 156.21 115.713 154.928 117.471C153.931 118.848 152.553 119.798 150.938 120.32C149.988 120.653 148.991 120.795 147.994 121.033C147.899 121.033 147.804 121.128 147.756 121.175C145.239 121.223 142.769 121.223 140.3 121.223Z" fill="#0080A5"/>
<path d="M183.946 121.223C183.757 121.175 183.567 121.08 183.377 121.033C180.859 120.558 178.485 119.75 176.822 117.613C176.11 116.663 175.587 115.618 175.397 114.431C175.302 113.766 175.255 113.149 175.207 112.484C175.16 112.151 175.302 112.056 175.635 112.056C177.345 112.056 179.102 112.056 180.812 112.056C181.049 112.056 181.192 112.056 181.239 112.389C181.382 113.909 182.142 114.526 183.614 114.953C185.751 115.571 187.936 115.381 190.121 115.238C190.976 115.191 191.831 114.811 192.686 114.479C193.35 114.241 193.683 113.671 193.825 112.959C194.063 111.866 193.873 110.394 192.923 109.967C192.306 109.682 191.641 109.444 191.023 109.349C189.123 109.112 187.271 108.969 185.371 108.779C183.329 108.542 181.287 108.257 179.387 107.307C177.44 106.309 176.157 104.79 175.54 102.7C175.065 101.085 175.065 99.4702 175.302 97.9029C175.777 94.7207 177.677 92.631 180.717 91.5386C182.142 91.0161 183.614 90.7312 185.134 90.6362C186.511 90.5887 187.841 90.4462 189.218 90.5412C191.641 90.6837 194.015 91.0636 196.153 92.2985C198.147 93.4384 199.382 95.1482 199.81 97.4279C199.952 98.1878 199.952 98.9003 200 99.7077C199.762 99.7077 199.62 99.7552 199.477 99.7552C197.815 99.7552 196.153 99.7552 194.49 99.7552C194.158 99.7552 193.968 99.7077 193.968 99.2802C193.92 98.3303 193.398 97.6179 192.543 97.3329C191.688 97.048 190.786 96.763 189.883 96.668C188.458 96.573 186.986 96.573 185.561 96.668C184.564 96.7155 183.614 96.9055 182.712 97.3329C181.382 97.9504 181.097 99.2802 181.334 100.563C181.572 101.75 182.379 102.32 183.472 102.462C185.276 102.7 187.081 102.89 188.886 103.08C190.691 103.27 192.448 103.46 194.158 103.982C196.913 104.837 198.86 106.547 199.667 109.397C199.81 109.872 199.857 110.346 199.905 110.869C199.952 111.629 199.905 112.389 199.905 113.149C199.857 116.093 198.527 118.278 195.963 119.75C194.87 120.368 193.73 120.748 192.496 120.985C192.116 121.033 191.688 121.175 191.308 121.318C188.886 121.223 186.416 121.223 183.946 121.223Z" fill="#0080A5"/>
<path d="M12.6816 121.223C12.6816 115.951 12.6816 110.726 12.6816 105.455C12.6816 103.507 12.8716 101.56 13.3941 99.6602C14.154 96.953 15.4838 94.5782 17.8586 92.9159C19.2359 91.9185 20.8032 91.3011 22.4655 90.9212C24.4128 90.4937 26.4076 90.3512 28.4024 90.4937C31.2046 90.6837 33.8643 91.2536 36.239 92.9634C38.2338 94.4358 39.5161 96.383 40.3235 98.6628C40.9885 100.658 41.3209 102.7 41.3209 104.742C41.3684 109.967 41.3684 115.191 41.3684 120.415C41.3684 120.653 41.4159 120.938 41.4159 121.175C39.3736 121.175 37.3314 121.175 35.2891 121.175C35.2891 121.08 35.2891 120.985 35.2891 120.89C35.2891 115.713 35.2891 110.489 35.2891 105.312C35.2891 104.267 35.1466 103.222 34.9566 102.177C34.7192 100.848 34.2442 99.6127 33.2943 98.6153C32.107 97.3329 30.5871 96.8105 28.9723 96.6205C27.215 96.4305 25.4102 96.4305 23.6529 96.9055C21.2782 97.5704 19.7583 99.0902 19.1409 101.465C18.761 102.937 18.666 104.457 18.666 105.977C18.666 110.821 18.666 115.713 18.666 120.558C18.666 120.795 18.7135 120.985 18.7135 121.223C16.7187 121.223 14.7239 121.223 12.6816 121.223Z" fill="#0080A5"/>
<path d="M55.9009 121.223C55.141 119.275 54.3336 117.328 53.5737 115.381C52.8613 113.624 52.1963 111.866 51.5314 110.062C50.534 107.497 49.4891 104.98 48.4918 102.415C47.4944 99.8976 46.5445 97.3329 45.5471 94.8157C45.0246 93.4859 44.5022 92.156 43.9798 90.8262C43.9323 90.7312 43.9323 90.6362 43.8848 90.4937C44.0747 90.4937 44.2647 90.4937 44.4072 90.4937C46.212 90.4937 48.0643 90.4937 49.8691 90.4937C50.2016 90.4937 50.3915 90.5887 50.534 90.9212C51.3889 93.1534 52.2913 95.3857 53.1937 97.6179C54.0961 99.9451 54.9985 102.225 55.9009 104.552C56.8033 106.879 57.7057 109.159 58.6081 111.486C58.7031 111.724 58.7981 111.961 58.8931 112.294C59.2255 111.439 59.558 110.726 59.843 109.967C60.5554 108.162 61.2678 106.357 62.0277 104.505C62.7876 102.605 63.5001 100.705 64.26 98.8053C65.2574 96.2406 66.3022 93.7233 67.2996 91.1586C67.5846 90.4937 67.5846 90.4937 68.297 90.4937C70.0068 90.4937 71.7641 90.4937 73.4739 90.4937C73.6164 90.4937 73.8064 90.4937 74.0439 90.4937C73.9014 90.9687 73.7589 91.3486 73.6164 91.7286C72.904 93.5334 72.1916 95.3382 71.4792 97.0955C70.5768 99.3277 69.7219 101.56 68.867 103.84C67.8696 106.404 66.8722 108.969 65.8748 111.486C64.8774 114.004 63.88 116.521 62.8826 119.038C62.6452 119.655 62.4077 120.273 62.1702 120.89C62.1227 120.985 62.1702 121.08 62.1702 121.175C59.9855 121.223 57.9432 121.223 55.9009 121.223Z" fill="#0080A5"/>
<path d="M111.897 121.223C111.897 120.985 111.945 120.748 111.945 120.51C111.945 114.194 111.945 107.829 111.945 101.512C111.945 99.2802 112.42 97.1904 113.75 95.3382C114.985 93.6283 116.647 92.536 118.594 91.7761C119.972 91.2536 121.444 90.8737 122.916 90.7787C124.246 90.6837 125.576 90.5887 126.858 90.4937C127.191 90.4462 127.286 90.5887 127.286 90.9212C127.286 92.631 127.286 94.2933 127.286 96.0031C127.286 96.4305 127.143 96.5255 126.763 96.5255C125.291 96.5255 123.771 96.6205 122.346 96.953C121.349 97.1905 120.352 97.4754 119.544 98.0928C118.737 98.7103 118.214 99.5177 118.119 100.563C118.024 101.275 117.977 101.987 117.977 102.7C117.977 108.732 117.977 114.811 117.977 120.843C117.977 120.985 117.977 121.128 117.929 121.27C115.934 121.223 113.94 121.223 111.897 121.223Z" fill="#0080A5"/>
<path d="M162.765 121.223C162.765 121.033 162.812 120.843 162.812 120.653C162.812 110.726 162.812 100.848 162.812 90.9212C162.812 90.5887 162.907 90.4462 163.287 90.4462C164.997 90.4462 166.707 90.4462 168.417 90.4462C168.749 90.4462 168.891 90.5412 168.891 90.8737C168.891 100.895 168.891 110.964 168.891 120.985C168.891 121.08 168.891 121.128 168.844 121.223C166.802 121.223 164.759 121.223 162.765 121.223Z" fill="#0080A5"/>
<path d="M0 121.223C0 111.011 0 100.753 0 90.4937C0.474947 90.4937 0.949894 90.4937 1.37735 90.4937C2.61221 90.4937 3.84707 90.4937 5.03443 90.4937C5.46188 90.4937 5.55688 90.6362 5.55688 91.0161C5.55688 100.895 5.55688 110.726 5.55688 120.605C5.55688 120.843 5.55688 121.033 5.55688 121.27C3.70458 121.223 1.85229 121.223 0 121.223Z" fill="#0080A5"/>
<path d="M102.826 79.0475C104.773 79.0475 106.72 79.095 108.715 79.0475C109.57 79.0475 110.33 79.7599 110.33 80.6623C110.33 84.5094 110.33 88.4039 110.33 92.251C110.33 92.9634 109.855 93.6758 109.237 93.8183C108.335 94.0558 107.338 93.7708 107.005 93.0584C106.863 92.7735 106.815 92.441 106.815 92.156C106.815 89.3538 106.815 86.5517 106.815 83.7495C106.815 82.8471 106.435 82.4671 105.533 82.4671C102.731 82.4671 99.9284 82.4196 97.1262 82.4671C96.0338 82.4671 95.2739 81.5172 95.5114 80.3773C95.7488 79.3325 96.1763 79 97.2212 79C99.0735 79.0475 100.973 79.0475 102.826 79.0475Z" fill="#00B4D1"/>
</svg>
