<?xml version="1.0" encoding="utf-8"?>
<!-- Generator: Adobe Illustrator 25.3.1, SVG Export Plug-In . SVG Version: 6.00 Build 0)  -->
<!DOCTYPE svg PUBLIC "-//W3C//DTD SVG 1.1//EN" "http://www.w3.org/Graphics/SVG/1.1/DTD/svg11.dtd" [
	<!ENTITY ns_extend "http://ns.adobe.com/Extensibility/1.0/">
	<!ENTITY ns_ai "http://ns.adobe.com/AdobeIllustrator/10.0/">
	<!ENTITY ns_graphs "http://ns.adobe.com/Graphs/1.0/">
	<!ENTITY ns_vars "http://ns.adobe.com/Variables/1.0/">
	<!ENTITY ns_imrep "http://ns.adobe.com/ImageReplacement/1.0/">
	<!ENTITY ns_sfw "http://ns.adobe.com/SaveForWeb/1.0/">
	<!ENTITY ns_custom "http://ns.adobe.com/GenericCustomNamespace/1.0/">
	<!ENTITY ns_adobe_xpath "http://ns.adobe.com/XPath/1.0/">
]>
<svg version="1.1" id="Layer_1" xmlns:x="&ns_extend;" xmlns:i="&ns_ai;" xmlns:graph="&ns_graphs;"
	 xmlns="http://www.w3.org/2000/svg" xmlns:xlink="http://www.w3.org/1999/xlink" x="0px" y="0px" viewBox="0 0 512 512"
	 style="enable-background:new 0 0 512 512;" xml:space="preserve">
<style type="text/css">
	.st0{fill:#FFFFFF;}
	.st1{fill:#007A6B;}
</style>
<metadata>
	<sfw  xmlns="&ns_sfw;">
		<slices></slices>
		<sliceSourceBounds  bottomLeftOrigin="true" height="510.7" width="512.4" x="0.7" y="0.5"></sliceSourceBounds>
	</sfw>
</metadata>
<rect x="0.7" y="0.8" class="st0" width="512.4" height="510.7"/>
<g>
	<path id="path1028" class="st1" d="M30.4,480.9c-0.2-0.2,2.6-7.9,6.3-17.1c3.7-9.1,7.5-18.7,8.4-21.1c0.9-2.5,6-15.1,11.3-28.1
		c5.3-13,17.1-42.4,26.3-65.2c9.2-22.9,21.4-53.1,27-67.1c5.7-14,11.7-29,13.3-33.2c1.9-4.8,3.2-7.4,3.6-6.8
		c0.5,0.9,7.1,17.4,40.8,101.1c7.5,18.8,19,47.3,25.5,63.4c22.5,55.9,29.6,73.7,29.6,74.2C222.6,481.4,31,481.5,30.4,480.9
		L30.4,480.9z M289.9,480.7c-0.3-0.5,13.3-34.8,47.7-119.8c3.7-9.1,7.4-18.5,8.4-21c0.9-2.5,6.4-16,12-30
		c5.7-14,14.2-35.1,18.9-46.8c4.7-11.7,8.7-21.4,8.8-21.6c0.2-0.2,1.8,3.5,3.6,8.2c3.1,7.9,24,59.9,52.9,131.5
		c6.8,16.9,13.9,34.5,15.6,39c1.8,4.5,8,19.9,13.7,34.1c5.7,14.2,10.3,26.1,10.1,26.4c-0.2,0.3-43.3,0.6-95.9,0.6
		C333.2,481.3,290,481.1,289.9,480.7L289.9,480.7z M256.9,269.7c-1.3-3.3-29.6-73.7-43.7-108.6c-9.2-22.9-21.4-53.1-27-67.1
		c-5.7-14-11.2-27.9-12.3-30.8c-1.1-2.9-4.5-11.3-7.4-18.7c-3-7.4-5.3-13.5-5.1-13.7c0.2-0.2,43.5-0.2,96.4-0.1l96.1,0.2l-2.2,5.2
		c-1.2,2.9-3.7,9-5.5,13.5s-7.5,18.7-12.6,31.5c-14.4,35.7-51.1,127.1-64.3,160C262.6,257.4,257.1,270.2,256.9,269.7L256.9,269.7z"
		/>
</g>
</svg>
