<?xml version="1.0" encoding="utf-8"?>
<!-- Generator: Adobe Illustrator 25.3.1, SVG Export Plug-In . SVG Version: 6.00 Build 0)  -->
<!DOCTYPE svg PUBLIC "-//W3C//DTD SVG 1.1//EN" "http://www.w3.org/Graphics/SVG/1.1/DTD/svg11.dtd" [
	<!ENTITY ns_extend "http://ns.adobe.com/Extensibility/1.0/">
	<!ENTITY ns_ai "http://ns.adobe.com/AdobeIllustrator/10.0/">
	<!ENTITY ns_graphs "http://ns.adobe.com/Graphs/1.0/">
	<!ENTITY ns_vars "http://ns.adobe.com/Variables/1.0/">
	<!ENTITY ns_imrep "http://ns.adobe.com/ImageReplacement/1.0/">
	<!ENTITY ns_sfw "http://ns.adobe.com/SaveForWeb/1.0/">
	<!ENTITY ns_custom "http://ns.adobe.com/GenericCustomNamespace/1.0/">
	<!ENTITY ns_adobe_xpath "http://ns.adobe.com/XPath/1.0/">
]>
<svg version="1.1" id="Слой_1" xmlns:x="&ns_extend;" xmlns:i="&ns_ai;" xmlns:graph="&ns_graphs;"
	 xmlns="http://www.w3.org/2000/svg" xmlns:xlink="http://www.w3.org/1999/xlink" x="0px" y="0px" viewBox="0 0 256 256"
	 style="enable-background:new 0 0 256 256;" xml:space="preserve">
<style type="text/css">
	.st0{fill:#1D3763;}
	.st1{fill:url(#blue-symbol_1_);}
	.st2{fill:url(#yellow-symbol_1_);}
</style>
<metadata>
	<sfw  xmlns="&ns_sfw;">
		<slices></slices>
		<sliceSourceBounds  bottomLeftOrigin="true" height="145.9" width="235" x="11" y="54.6"></sliceSourceBounds>
	</sfw>
</metadata>
<g>
	<path id="Bancontact" class="st0" d="M11,200.8v-33.9h10.5c7.6,0,12.5,2.9,12.5,8.8c0,3.3-1.6,5.7-3.7,7c3.2,1.5,5,4.3,5,8.1
		c0,6.8-5,10-12.8,10H11z M17.7,180.9h5c3.1,0,4.4-1.5,4.4-4.3c0-3-2.4-3.9-5.6-3.9h-3.8V180.9z M17.7,194.9h4.2
		c4.1,0,6.4-1,6.4-4.2c0-3.2-2-4.5-5.9-4.5h-4.8L17.7,194.9z M48.3,201.4c-6.6,0-10-3.2-10-7.6c0-4.8,3.9-7.6,9.7-7.7
		c1.4,0,2.9,0.2,4.3,0.4v-1.2c0-3-1.7-4.4-4.9-4.4c-2.2,0-4.4,0.4-6.4,1.2l-1.2-5.2c2.1-0.9,5.4-1.5,8.4-1.5
		c7.1,0,10.7,3.8,10.7,10.3v13.5C56.9,200.2,53.2,201.4,48.3,201.4L48.3,201.4z M52.4,195.9v-5.2c-1.1-0.3-2.3-0.4-3.4-0.4
		c-2.2,0-4,0.9-4,3.2c0,2,1.5,3.1,4,3.1C50.2,196.6,51.3,196.4,52.4,195.9L52.4,195.9z M63.6,200.8v-23.2c3.5-1.4,7.2-2.1,11-2.1
		c7.1,0,11.2,3.5,11.2,9.9v15.4H79v-14.9c0-3.3-1.6-4.9-4.5-4.9c-1.5,0-2.9,0.3-4.3,0.9v19L63.6,200.8z M109.1,176.9l-1.3,5.3
		c-1.7-0.8-3.6-1.2-5.5-1.2c-3.9,0-6.1,2.8-6.1,7.3c0,5,2.2,7.6,6.4,7.6c1.9-0.1,3.7-0.5,5.4-1.3l1.1,5.4c-2.2,1-4.6,1.5-7,1.4
		c-8,0-12.7-5-12.7-12.9c0-7.9,4.6-13,12.3-13C104.3,175.4,106.8,175.9,109.1,176.9L109.1,176.9z M123.6,201.4
		c-7.5,0-12.1-5.2-12.1-13c0-7.8,4.7-12.9,12.1-12.9c7.5,0,12.1,5.2,12.1,12.9C135.6,196.2,131.1,201.4,123.6,201.4z M123.6,195.8
		c3.4,0,5.2-2.9,5.2-7.5c0-4.6-1.8-7.4-5.2-7.4c-3.4,0-5.3,2.9-5.3,7.4C118.3,193,120.2,195.8,123.6,195.8z M139.5,200.8v-23.2
		c3.5-1.4,7.2-2.1,11-2.1c7.1,0,11.2,3.5,11.2,9.9v15.4h-6.7v-14.9c0-3.3-1.6-4.9-4.5-4.9c-1.5,0-2.9,0.3-4.3,0.9v19L139.5,200.8z
		 M176.7,201.4c-5.8,0-8.7-3.2-8.7-9.6v-10.5h-3.3V176h3.3v-5.4l6.7-0.3v5.7h5.4v5.3h-5.4v10.4c0,2.8,1.2,4.1,3.3,4.1
		c0.9,0,1.7-0.1,2.6-0.3l0.3,5.4C179.5,201.2,178.1,201.4,176.7,201.4z M193.6,201.4c-6.6,0-10-3.2-10-7.6c0-4.8,3.9-7.6,9.7-7.7
		c1.4,0,2.9,0.2,4.3,0.4v-1.2c0-3-1.7-4.4-4.9-4.4c-2.2,0-4.4,0.4-6.4,1.2l-1.2-5.2c2.1-0.9,5.4-1.5,8.4-1.5
		c7.1,0,10.7,3.8,10.7,10.3v13.5C202.2,200.2,198.4,201.4,193.6,201.4z M197.7,195.9v-5.2c-1.1-0.3-2.3-0.4-3.4-0.4
		c-2.2,0-4,0.9-4,3.2c0,2,1.5,3.1,4,3.1C195.4,196.6,196.6,196.4,197.7,195.9z M227.1,176.9l-1.3,5.3c-1.7-0.8-3.6-1.2-5.5-1.2
		c-3.9,0-6.1,2.8-6.1,7.3c0,5,2.2,7.6,6.4,7.6c1.9-0.1,3.7-0.5,5.4-1.3l1.1,5.4c-2.2,1-4.6,1.5-7,1.4c-8,0-12.7-5-12.7-12.9
		c0-7.9,4.6-13,12.3-13C222.3,175.4,224.7,175.9,227.1,176.9z M241.8,201.4c-5.8,0-8.7-3.2-8.7-9.6v-10.5h-3.3V176h3.3v-5.4l6.7-0.3
		v5.7h5.4v5.3h-5.4v10.4c0,2.8,1.2,4.1,3.3,4.1c0.9,0,1.7-0.1,2.6-0.3l0.3,5.4C244.6,201.2,243.2,201.4,241.8,201.4z"/>
	
		<linearGradient id="blue-symbol_1_" gradientUnits="userSpaceOnUse" x1="34.7665" y1="127.4661" x2="120.7228" y2="159.3927" gradientTransform="matrix(1 0 0 -1 0 255.8895)">
		<stop  offset="0" style="stop-color:#1F5BA6"/>
		<stop  offset="1" style="stop-color:#1D3763"/>
	</linearGradient>
	<path id="blue-symbol" class="st1" d="M57.7,149.9c35.4,0,53.1-23.6,70.8-47.2H11v47.2H57.7z"/>
	
		<linearGradient id="yellow-symbol_1_" gradientUnits="userSpaceOnUse" x1="135.6143" y1="149.1579" x2="226.8821" y2="180.2963" gradientTransform="matrix(1 0 0 -1 0 255.8895)">
		<stop  offset="0" style="stop-color:#F7A80A"/>
		<stop  offset="1" style="stop-color:#FFD700"/>
	</linearGradient>
	<path id="yellow-symbol" class="st2" d="M199.3,55.4c-35.4,0-53.1,23.6-70.8,47.2H246V55.4H199.3z"/>
</g>
</svg>
