<?xml version="1.0" encoding="utf-8"?>
<!-- Generator: Adobe Illustrator 25.3.1, SVG Export Plug-In . SVG Version: 6.00 Build 0)  -->
<!DOCTYPE svg PUBLIC "-//W3C//DTD SVG 1.1//EN" "http://www.w3.org/Graphics/SVG/1.1/DTD/svg11.dtd" [
	<!ENTITY ns_extend "http://ns.adobe.com/Extensibility/1.0/">
	<!ENTITY ns_ai "http://ns.adobe.com/AdobeIllustrator/10.0/">
	<!ENTITY ns_graphs "http://ns.adobe.com/Graphs/1.0/">
	<!ENTITY ns_vars "http://ns.adobe.com/Variables/1.0/">
	<!ENTITY ns_imrep "http://ns.adobe.com/ImageReplacement/1.0/">
	<!ENTITY ns_sfw "http://ns.adobe.com/SaveForWeb/1.0/">
	<!ENTITY ns_custom "http://ns.adobe.com/GenericCustomNamespace/1.0/">
	<!ENTITY ns_adobe_xpath "http://ns.adobe.com/XPath/1.0/">
]>
<svg version="1.1" id="Layer_1" xmlns:x="&ns_extend;" xmlns:i="&ns_ai;" xmlns:graph="&ns_graphs;"
	 xmlns="http://www.w3.org/2000/svg" xmlns:xlink="http://www.w3.org/1999/xlink" x="0px" y="0px" viewBox="0 0 512 512"
	 style="enable-background:new 0 0 512 512;" xml:space="preserve">
<style type="text/css">
	.st0{fill:#1E357A;}
</style>
<metadata>
	<sfw  xmlns="&ns_sfw;">
		<slices></slices>
		<sliceSourceBounds  bottomLeftOrigin="true" height="333.9" width="491" x="10.5" y="89.1"></sliceSourceBounds>
	</sfw>
</metadata>
<g>
	<g id="g583" transform="matrix(0.6605755,0,0,0.6605755,343.15792,34.120936)">
		<g>
			<g id="g585">
				<g id="g591" transform="translate(1022.0269,101.0614)">
					<path id="path593" class="st0" d="M-1092.7,45.7c0-35.1-28.3-63.6-63.5-63.6c-35,0.1-63.5,28.5-63.5,63.6
						c0.1,35,28.6,63.5,63.5,63.5C-1121,109.2-1092.7,80.7-1092.7,45.7"/>
				</g>
			</g>
		</g>
	</g>
	<g id="g595" transform="matrix(0.6605755,0,0,0.6605755,343.15792,34.120936)">
		<g>
			<g id="g597">
				<g id="g603" transform="translate(1022.0269,87.8022)">
					<path id="path605" class="st0" d="M-1092.7,437.2c0-35.1-28.3-63.5-63.5-63.5c-35,0.1-63.5,28.5-63.5,63.5
						c0.1,35.1,28.6,63.5,63.5,63.6C-1121,500.7-1092.7,472.3-1092.7,437.2"/>
				</g>
			</g>
		</g>
	</g>
	<g id="g607" transform="matrix(0.6605755,0,0,0.6605755,343.15792,34.120936)">
		<g>
			<g id="g609">
				<g id="g615" transform="translate(1011.3079,94.4106)">
					<path id="path617" class="st0" d="M-1387.8,242.1c0-35.1-28.3-63.6-63.5-63.6c-35,0.1-63.4,28.5-63.5,63.6
						c0.1,35.1,28.6,63.5,63.5,63.6C-1416.1,305.6-1387.8,277.1-1387.8,242.1"/>
				</g>
			</g>
		</g>
	</g>
	<g id="g619" transform="matrix(0.6605755,0,0,0.6605755,343.15792,34.120936)">
		<g>
			<g id="g621">
				<g id="g627" transform="translate(1032.9076,94.411)">
					<path id="path629" class="st0" d="M-793.2,242.1c0-35.1-28.3-63.6-63.5-63.6c-35,0.1-63.5,28.5-63.5,63.6
						c0.1,35.1,28.6,63.5,63.5,63.6C-821.5,305.5-793.2,277.1-793.2,242.1"/>
				</g>
			</g>
		</g>
	</g>
	<g id="g631" transform="matrix(0.6605755,0,0,0.6605755,343.15792,34.120936)">
		<g>
			<g id="g633">
				<g id="g639" transform="translate(1029.8667,98.3729)">
					<path id="path641" class="st0" d="M-876.9,125.1V6l-285.8,172.9l-1.5,0.9L-1451.3,5.9v119l188.7,113.2l-188.7,113v119.1
						l287.1-173.7l287.3,173.7V351.2l-188.8-113L-876.9,125.1z"/>
				</g>
			</g>
		</g>
	</g>
</g>
</svg>
