<svg width="200" height="200" viewBox="0 0 200 200" fill="none" xmlns="http://www.w3.org/2000/svg">
<rect width="200" height="200" fill="white"/>
<path d="M172.892 127.117C173.826 121.37 175.053 116.066 175.446 110.663C176.92 90.5749 166.9 76.3805 146.959 71.3216C139.494 69.4552 131.586 69.2096 123.875 68.5711C121.567 68.3746 119.897 67.8835 118.276 66.2627C110.417 58.5515 101.576 52.412 91.0166 49.0231C75.5943 44.0133 60.8105 46.3217 46.7143 53.5417C40.0837 56.9307 33.8951 61.1546 27.4609 65.0348C27.6083 64.691 27.7065 64.1998 27.9521 63.7578C31.4884 57.7656 32.6672 51.4297 31.4884 44.5535C31.3411 43.6695 31.6849 42.1469 32.3725 41.7048C47.7457 31.2432 64.2485 25.8405 82.9125 30.9485C94.9949 34.2393 104.965 41.2137 113.462 50.2018C116.901 53.8364 119.946 57.8639 122.991 61.8422C124.071 63.2666 125.054 63.7086 126.822 63.4631C137.627 62.0878 148.285 62.4808 158.649 66.1644C181.635 74.3176 194.258 98.5316 187.922 122.058C187.627 123.089 187.922 124.858 188.609 125.398C198.334 132.618 201.134 142.539 199.611 153.934C198.875 159.435 197.155 164.838 195.289 170.29C195.093 151.92 189.886 136.4 172.892 127.117Z" fill="#D30505"/>
<path d="M72.4502 169.356C72.0573 161.449 72.2046 153.541 71.075 145.781C68.8156 130.015 57.4699 122.254 41.7038 125.005C33.4524 126.429 26.1341 129.966 19.258 134.533C18.3248 135.172 17.3916 135.761 16.0654 136.645C15.4269 133.944 14.8376 131.537 14.2482 129.082C9.58218 109.042 4.96531 88.9541 0.201093 68.9149C-0.339179 66.6556 0.201093 65.4768 1.92014 64.0525C4.57238 61.8423 7.22463 59.4356 9.14014 56.636C13.2167 50.7912 12.9712 45.3394 8.74721 39.5438C6.29143 36.1548 3.63919 32.864 2.31306 31.1941C5.21089 31.7344 10.368 33.5025 14.7393 36.9897C20.8297 41.8522 22.8925 49.416 20.0929 57.913C18.8159 61.744 16.7039 65.3295 15.0831 69.1114C14.6902 70.0446 14.199 71.3216 14.4937 72.2057C19.2088 86.0563 24.0713 99.8578 28.9337 113.708C29.032 114.003 29.2775 114.2 29.5231 114.543C33.3541 113.463 37.136 112.284 41.0162 111.4C50.1026 109.337 58.8943 109.73 67.1948 114.592C75.1516 119.258 79.5228 126.184 80.3087 135.27C81.4384 147.549 77.3618 158.649 72.4502 169.356Z" fill="#D30505"/>
<path d="M122.155 129.131C128.835 122.5 136.349 118.866 145.534 119.111C162.381 119.553 174.07 132.52 172.646 149.317C172.057 156.586 169.65 163.266 166.015 170.535C166.31 166.802 166.752 164.003 166.703 161.203C166.654 158.256 166.31 155.26 165.819 152.362C164.837 146.763 162.43 141.803 158.501 137.726C150.937 129.917 140.819 128.738 130.456 134.975C126.035 137.628 122.106 141.115 117.98 144.209C116.654 142.736 115.328 140.771 113.56 139.543C111.35 137.971 108.845 136.498 106.291 135.909C101.526 134.779 100.741 135.712 100.495 140.575C99.9548 150.643 97.3516 160.172 92.5874 169.062C92.2436 169.749 91.7033 170.339 91.0157 171.419C92.7839 156.881 93.8644 143.03 83.9922 130.899C89.1984 125.349 95.0923 121.469 102.803 120.928C110.515 120.339 116.605 123.974 122.155 129.131Z" fill="#D30505"/>
</svg>
