<svg width="200" height="200" viewBox="0 0 200 200" fill="none" xmlns="http://www.w3.org/2000/svg">
<rect width="200" height="200" fill="white"/>
<path d="M176.97 28.3836H24V181.354H176.97V28.3836Z" fill="#9C6900"/>
<path d="M95.9639 63.6329C96.3825 58.3999 97.5547 53.2926 99.3967 48.3945V61.8328C99.4386 66.9401 97.6384 71.9219 94.373 75.8571C95.1266 71.7963 95.629 67.7355 95.9639 63.6329Z" fill="white"/>
<path d="M114.635 39.7287C115.765 35.8354 116.854 31.9002 117.942 27.9231H118.235L113.044 60.2001C112.123 59.7814 111.286 59.4465 110.616 59.1953V57.3952C111.453 51.4087 112.793 45.5059 114.635 39.7287Z" fill="white"/>
<path d="M48.6158 127.433C49.9554 130.28 50.8764 133.252 51.3369 136.35C52.2579 139.992 52.844 143.718 53.0533 147.486V156.738C49.4531 150.165 47.611 142.755 47.6529 135.262C47.611 135.387 47.946 132.75 48.6158 127.433Z" fill="white"/>
<path d="M86.7119 81.4669L88.9307 56.8091C88.9307 58.2743 89.0563 61.2048 89.3075 65.5168C89.6005 69.8706 89.7261 73.0522 89.7261 75.0617C89.8098 77.1968 89.6005 79.3737 89.14 81.4669H86.7119Z" fill="white"/>
<path d="M123.469 55.595H127.278V57.6045C126.818 61.2048 125.436 64.6376 123.259 67.5262C120.58 71.7126 118.529 73.9732 117.063 74.2244H114.426C114.3 73.5546 114.007 72.4243 113.631 70.9172C113.379 70.038 113.17 69.117 113.044 68.196C113.296 66.5215 113.84 64.8888 114.635 63.3817C115.598 61.7071 116.812 60.2419 118.277 58.986C120.789 56.7254 122.506 55.595 123.469 55.595Z" fill="white"/>
<path d="M70.4691 92.3095V91.5141C70.4691 89.5047 70.7203 85.4857 71.2645 79.4574C72.9391 84.7322 73.9019 90.2163 74.0694 95.7005C74.0275 98.1705 73.6089 100.599 72.8972 102.901C71.2226 99.6357 70.3854 95.9935 70.4691 92.3095Z" fill="white"/>
<path d="M62.2634 107.171V104.743C62.2215 100.012 62.682 95.3238 63.6867 90.7187C64.9426 95.9936 65.6125 101.352 65.6543 106.794V107.799C65.738 113.702 64.7333 119.563 62.6401 125.047L62.2634 107.171Z" fill="white"/>
<path d="M77.7111 171.558C74.1109 171.558 71.8921 170.804 71.0967 169.339C72.4363 167.329 73.2317 166.325 73.5248 166.325C73.776 166.325 75.3668 166.492 78.2554 166.827C81.144 167.162 82.6929 167.329 82.986 167.329C86.2095 167.371 89.433 167.078 92.6146 166.534C88.512 169.548 83.6558 171.265 78.5903 171.558H77.7111Z" fill="white"/>
<path d="M126.315 27.9231C126.064 29.2628 125.687 31.2304 125.184 33.784C124.18 38.9333 123.677 41.6544 123.677 41.9056V43.329C123.635 43.8732 123.803 44.4593 124.054 44.9198L130.836 27.9231H133.934C133.683 28.8023 133.557 29.7651 133.515 30.6861C133.515 31.021 133.599 31.3559 133.725 31.6909C134.855 30.5187 135.86 29.2628 136.739 27.9231H146.242C144.902 30.1 143.856 32.4444 143.144 34.9144V35.5005L143.353 35.2911L149.424 27.9231H154.322C149.591 34.3283 147.205 37.6774 147.205 37.8867C147.205 38.3053 147.288 38.5146 147.414 38.5146H149.424C149.926 38.3891 150.428 38.1797 150.805 37.803C151.182 37.5099 151.559 37.2587 152.019 37.0913C149.758 42.701 148.586 45.5896 148.586 45.7152V45.9245C151.935 44.5012 154.95 42.408 157.419 39.7287C163.825 34.119 167.257 31.1466 167.676 30.8954V33.9096L138.12 61.1629H134.311V50.7389C134.185 49.5248 133.432 48.4364 132.301 47.934C131.003 48.7294 129.58 49.1899 128.073 49.3574C127.278 49.3574 126.482 49.2736 125.687 49.148C124.891 49.0225 124.096 48.9806 123.259 48.9387C121.417 48.8131 119.742 49.9853 119.24 51.7436V49.7341C119.993 42.1987 121.919 34.8306 124.975 27.9231H126.315Z" fill="white"/>
<path d="M53.0118 170.972C50.8768 169.757 49.1185 168.711 47.7788 167.748C46.1043 166.073 44.7228 164.148 43.6762 162.013C42.2528 160.003 41.2481 157.701 40.7876 155.273V133.629H42.7971C43.3413 138.318 43.9274 143.048 44.5972 147.863C45.1414 152.468 46.6485 156.905 48.9929 160.882C50.3325 162.892 51.3373 163.897 52.0071 163.897C52.5094 163.813 52.9699 163.645 53.4304 163.394C53.8072 163.185 54.2259 163.017 54.6445 162.892C55.733 162.892 56.9889 164.022 58.4541 166.325C59.71 168.46 62.0125 169.757 64.4825 169.716H64.8593C64.8593 171.474 65.8221 173.107 67.3711 173.944C68.8782 174.739 70.5527 175.158 72.2691 175.158H73.6925C73.5669 175.158 74.7391 175.074 77.2928 174.949C79.8465 174.823 81.8978 174.739 83.5305 174.739C84.6189 174.739 85.6655 174.781 86.754 174.949C86.5865 176.163 85.7074 177.167 84.5352 177.544C80.6 178.507 76.5392 179.093 72.5203 179.344C68.3339 179.261 64.3569 177.544 61.4683 174.53L56.6958 181.94C53.3886 181.94 50.2069 181.731 46.8997 181.731L53.0118 170.972Z" fill="white"/>
<path d="M47.1086 181.354H57.0722L44.5549 199.983H43.3409C41.1639 200.151 39.0289 199.062 37.9404 197.178L47.1086 181.354Z" fill="#9C6900"/>
<path d="M85.1209 163.352C84.1999 161.468 83.5301 160.087 83.1114 159.124C81.2694 160.087 79.5112 161.217 77.8785 162.557C76.497 163.813 74.7387 164.608 72.8548 164.776H71.8501C70.636 164.19 69.5057 163.436 68.4591 162.557C67.9986 163.31 67.1613 163.771 66.2403 163.771C63.3099 163.645 60.9655 161.51 59.2072 157.366C57.7839 154.268 57.0303 150.919 56.9885 147.528V145.518C57.0303 143.593 57.449 141.667 58.2025 139.909C58.9142 138.443 59.4584 136.894 59.7933 135.262C59.291 133.42 58.5374 131.62 57.5746 129.945C55.8581 125.591 55.1046 120.903 55.3558 116.214C55.3558 114.749 55.607 111.609 56.1512 106.794C58.1606 110.353 59.3747 114.33 59.7515 118.433C59.7096 123.456 60.4631 128.48 61.9702 133.294C63.4773 138.276 68.2079 141.625 73.399 141.332C74.1945 141.332 74.8643 140.788 75.4085 139.699C70.8454 136.769 68.5847 131.159 68.5847 122.828C68.6266 119.898 69.1289 117.009 69.9662 114.204C71.0547 109.934 72.4362 107.799 74.1945 107.799C75.8271 107.799 77.5017 109.557 79.3018 113.032C81.2276 116.423 82.944 118.181 84.5348 118.181C85.8744 118.181 86.5443 117.47 86.5443 116.004C86.1675 113.702 85.4139 111.483 84.2418 109.474C82.9858 107.213 82.1904 104.743 81.9393 102.148C82.023 100.473 82.5253 98.7984 83.3626 97.3332C82.5253 96.7053 81.7299 96.0354 80.9345 95.3238C79.3437 98.4217 78.1297 100.682 77.3342 102.148L80.1391 70.4567L82.944 91.7235C85.1209 90.4257 87.2141 88.9605 89.1817 87.2859C90.6469 87.2859 92.3215 89.421 94.2053 93.6911C95.5868 96.3285 96.5078 99.1752 97.0102 102.148V102.357C104.671 98.5054 112.918 95.7843 121.417 94.2772C121.835 94.947 122.087 95.7005 122.212 96.4959C122.045 97.5007 121.626 98.4217 120.998 99.2171C120.538 99.8869 120.119 100.599 119.784 101.31V101.896L119.993 102.106C125.98 100.599 131.548 97.9193 136.488 94.2772C141.344 90.9281 146.326 87.8301 151.517 85.0671C147.582 89.714 142.935 93.6073 137.702 96.7053C132.259 100.138 127.236 104.115 122.631 108.553L125.017 108.762C131.464 105.957 136.195 103.822 139.251 102.357C136.153 105.706 132.72 108.72 128.994 111.399C125.896 114.037 122.087 115.837 118.026 116.591H116.435V114.958C117.105 114.037 117.565 113.367 117.816 112.948C117.021 112.32 116.016 111.902 115.012 111.776C113.798 111.776 112.877 113.367 112.207 116.591C111.537 120.191 110.742 122.2 109.779 122.619C104.588 125.382 98.8103 126.847 92.9494 126.847C92.6982 126.847 91.4842 126.638 89.3073 126.135C88.1351 125.842 86.921 125.591 85.707 125.424C85.1628 125.382 84.6185 125.591 84.3255 126.052C83.9487 126.889 83.4045 127.643 82.7347 128.271C86.2512 130.782 90.4795 132.038 94.7914 131.871C96.8009 131.955 98.8522 131.745 100.82 131.285C113.253 125.675 123.008 121.112 130.124 117.637C129.371 119.688 127.864 121.405 125.938 122.451C122.84 124.587 121.166 125.801 120.914 126.094C121.5 126.554 122.045 127.098 122.505 127.684C123.175 128.48 123.719 129.108 124.096 129.485C120.538 131.578 117.063 133.755 113.588 136.015C111.286 137.606 108.565 138.485 105.76 138.611C104.127 138.611 102.536 138.402 100.945 138.025C100.276 139.448 99.3546 140.704 98.1405 141.751C96.6753 143.174 95.9217 144.262 95.9217 145.058C95.9217 145.477 96.0055 145.644 96.1311 145.644H96.3404C97.5544 146.021 98.8522 146.23 100.15 146.23C102.076 146.104 104.001 145.602 105.76 144.807C109.109 143.76 111.328 143.09 112.374 142.797C110.448 145.686 107.727 147.946 104.546 149.328C101.28 151.421 97.5544 152.677 93.703 153.054H92.4889C92.6145 152.133 92.6982 151.17 92.6982 150.249C92.6982 149.579 92.6564 148.909 92.4889 148.24H91.2749C88.3863 149.495 85.2046 150.082 82.0648 149.83C79.553 149.83 76.9993 149.579 74.5294 149.035C73.399 148.867 72.3106 148.574 71.2221 148.24C70.5523 148.24 69.5057 149.328 67.9986 151.463C70.6779 153.933 74.1945 155.231 77.8366 155.063C81.7299 155.356 83.865 156.822 84.2418 159.501C86.628 157.994 89.2654 157.031 92.0703 156.696C92.6564 156.738 93.2843 156.78 93.8704 156.905C94.4146 156.989 94.917 157.073 95.4612 157.115C97.6382 157.198 99.8151 156.863 101.908 156.11C101.364 157.701 99.229 159.333 95.4612 160.924C92.4889 162.348 89.3073 163.185 86.0419 163.352H85.1209ZM96.3822 112.781C97.8475 112.781 99.9825 112.865 102.704 112.99C105.425 113.116 107.476 113.158 108.816 113.158C111.872 112.195 114.677 110.646 117.063 108.553C117.523 107.674 117.858 106.711 118.068 105.748C115.64 106.418 113.672 106.878 112.207 107.129C111.16 107.422 110.155 107.925 109.276 108.553C108.565 109.055 107.811 109.474 106.974 109.767H97.5544C96.8427 109.934 96.1729 110.311 95.6287 110.855C94.7496 111.609 94.3309 112.237 94.3309 112.739L96.3822 112.781Z" fill="white"/>
<path d="M136.697 68.824H134.897V66.4378L159.387 48.9806C147.456 62.2095 139.921 68.824 136.697 68.824Z" fill="white"/>
<path d="M152.145 75.271C145.739 83.3089 137.199 89.4628 127.487 92.8957V91.8909C127.822 89.6303 128.031 87.3697 128.073 85.0671V84.6485L127.696 84.4392H126.691C121.793 85.3183 117.063 87.0766 112.835 89.714C109.234 91.5979 105.592 93.4818 101.992 95.3238C99.815 92.477 98.5591 89.0442 98.3916 85.4858C98.6009 82.0111 99.2707 78.5783 100.401 75.271C101.322 72.0475 102.201 68.7822 102.997 65.4331C103.29 64.6795 103.415 63.8422 103.415 63.0468C103.415 62.377 103.332 61.2885 103.206 59.8233C103.08 58.3581 102.997 57.3533 102.997 56.8091C103.164 54.1717 103.625 51.5343 104.42 48.9806C105.885 43.9988 106.639 41.3614 106.639 40.9428C106.89 40.9428 107.099 42.2405 107.225 44.7524C105.885 55.7207 105.215 61.163 105.215 60.9955C104.755 65.2237 106.388 69.452 109.611 72.2568C109.862 73.2197 110.03 74.2663 110.03 75.271C109.946 76.4432 109.779 77.6154 109.444 78.7876C109.067 80.0435 108.858 81.3831 108.816 82.6809C108.816 83.4345 108.858 84.1461 109.025 84.8997C109.109 86.0719 110.072 86.951 111.244 86.9092C115.639 77.7829 118.905 73.2616 121.04 73.2616H130.082L129.706 73.8477C129.622 74.5593 129.455 75.271 129.203 75.9409C128.91 76.6944 128.743 77.4479 128.701 78.2434C128.659 78.9969 129.036 79.6667 129.706 80.0435C134.562 77.4479 139.209 74.4338 143.563 71.0009C151.433 64.9726 157.545 60.5769 161.815 57.772C158.215 62.4189 153.945 66.5634 149.172 69.9962C144.651 73.2197 140.632 77.113 137.283 81.5087H138.12C144.4 78.955 149.089 76.8619 152.145 75.271Z" fill="white"/>
<path d="M136.156 14.6105C136.868 15.2803 137.245 16.2431 137.161 17.206C137.035 19.676 136.407 22.0622 135.277 24.2391C134.649 25.5369 134.147 26.9184 133.812 28.2999H130.756L136.156 14.6105Z" fill="#9C6900"/>
<path d="M167.889 5.40045V9.21005C167.889 9.46123 164.414 14.3174 157.423 23.7786C156.167 25.4532 155.079 26.9603 154.032 28.3418H149.176L167.889 5.40045Z" fill="#9C6900"/>
<path d="M142.311 17.0385C144.278 11.5544 146.664 6.23769 149.511 1.17218V1.54895C148.339 5.6516 146.748 9.58679 144.822 13.3964C142.52 17.7502 140.929 22.3971 140.134 27.2533V27.6719L140.343 27.8813C144.111 24.4484 147.376 20.5132 150.139 16.2431C154.953 8.49834 158.47 3.05605 160.731 0C158.261 6.6982 155.037 13.1033 151.144 19.048C149.051 22.7739 147.334 25.8718 146.036 28.3418H136.575C138.92 24.7833 140.845 21.0156 142.311 17.0385Z" fill="#9C6900"/>
<path d="M126.57 24.0716V26.0811C126.57 26.2067 126.444 26.9602 126.193 28.3417H124.895C125.439 26.9602 125.983 25.5369 126.57 24.0716Z" fill="#9C6900"/>
</svg>
