<svg width="200" height="200" viewBox="0 0 200 200" fill="none" xmlns="http://www.w3.org/2000/svg">
<rect width="200" height="200" fill="white"/>
<path fill-rule="evenodd" clip-rule="evenodd" d="M0 116.34H10.1018C15.2567 116.34 21.1598 113.804 22.3238 107.818C23.3631 102.414 19.0397 100.917 15.8803 100.626V100.211C19.9127 99.9196 23.3216 97.1343 24.4024 93.2266C25.4001 88.1133 21.4093 86.6583 17.0027 86.6583H5.77842L0 116.34ZM11.8478 89.2773C12.5961 89.1526 13.3444 89.111 14.0927 89.111C17.0027 89.111 18.4577 90.8154 17.8341 93.9333C17.5016 95.6793 16.5038 97.259 15.0904 98.3398C13.5523 99.3376 11.6816 99.7117 9.85242 99.4623L11.8478 89.2773ZM9.31199 101.957C14.0511 101.582 16.3791 103.287 15.4646 108.068C14.9241 111.185 12.3467 113.513 9.22885 113.804H7.15028L9.31199 101.957Z" fill="#0072BB"/>
<path fill-rule="evenodd" clip-rule="evenodd" d="M36.9992 109.315C36.5003 111.393 35.4194 114.095 32.842 114.095C30.9713 114.095 30.7634 112.183 31.1376 110.603C31.3039 109.148 32.0522 107.86 33.2162 106.987C34.7127 106.197 36.2924 105.573 37.9137 105.116L36.9992 109.315ZM44.6899 100.834C45.5213 96.4691 41.1979 94.9726 37.5396 94.9726C34.4217 95.0141 31.387 96.0118 28.8927 97.8826V100.502H29.1837C30.6803 98.8387 32.8004 97.841 35.0453 97.7994C36.916 97.7578 38.4126 99.2128 38.4542 101.084C38.4542 101.25 38.4542 101.458 38.4126 101.624C38.3294 102.289 37.9553 102.913 37.4149 103.328C36.334 103.869 35.2116 104.285 34.006 104.492C28.3107 105.823 25.5254 107.028 24.7356 111.144C23.9873 114.927 26.2737 116.922 29.8489 116.922C32.3016 116.881 34.6296 115.717 36.0846 113.721C36.2924 115.592 37.9137 117.005 39.7844 116.922C41.2394 116.756 42.6529 116.34 43.9416 115.717L44.1494 114.719C42.3619 114.719 42.0709 114.262 42.3203 112.64L44.6899 100.834Z" fill="#0072BB"/>
<path d="M46.5186 116.548C47.5578 116.548 48.5971 116.299 49.5948 116.299C50.5926 116.299 51.5903 116.465 52.5464 116.548L54.5003 106.488C55.0407 103.744 56.0384 98.6308 59.8214 98.6308C62.8977 98.6308 62.8145 101.582 62.0247 105.656L59.9461 116.548C60.9854 116.548 62.0247 116.299 63.0224 116.299C64.0201 116.299 65.0178 116.465 65.974 116.548L68.4267 103.869C69.466 98.6309 68.7593 95.0973 63.2303 95.0973C60.4034 95.3051 57.7428 96.6354 55.8306 98.714L56.4541 95.4714C55.4564 95.4714 54.5003 95.6793 53.5441 95.6793C52.588 95.6793 51.5903 95.5546 50.6341 95.4714L46.5186 116.548Z" fill="#0072BB"/>
<path d="M70.5049 116.548C71.5442 116.548 72.5834 116.299 73.5396 116.299C74.4957 116.299 75.535 116.465 76.5327 116.548L78.5282 106.363C78.9854 106.737 79.318 107.236 79.4843 107.818C80.773 110.645 81.937 113.555 82.8932 116.548C84.0156 116.548 85.1796 116.299 86.2604 116.299C87.3829 116.299 88.339 116.465 89.5446 116.548L89.6277 116.34C88.7132 113.763 87.7154 111.269 86.7177 108.982L84.3066 103.37C87.0919 100.709 90.2929 98.5477 93.0781 95.7208V95.3883C92.4546 95.513 91.831 95.5546 91.2074 95.5961C90.5839 95.5546 89.9603 95.513 89.3783 95.3883C85.8863 98.714 82.6853 101.79 79.1517 104.742C78.9854 104.742 78.8607 104.742 78.7776 104.742L82.9347 83.4157C81.8954 83.4157 80.8562 83.6236 79.9 83.6236C78.9439 83.6236 77.8214 83.4989 76.9069 83.4157L70.5049 116.548Z" fill="#0072BB"/>
<path d="M137.975 92.2288C138.724 90.7323 139.43 89.3189 140.22 87.9054C138.391 86.4504 136.105 85.7021 133.735 85.8269C128.04 85.4943 122.968 89.402 121.887 94.9726C119.809 105.407 133.319 102.954 131.989 109.938C131.366 112.724 128.83 114.636 126.003 114.47C123.425 114.761 121.139 112.89 120.848 110.312C120.806 110.105 120.806 109.897 120.806 109.647H119.975C119.31 111.518 118.52 113.389 117.605 115.176C119.601 116.465 121.929 117.13 124.257 117.047C131.033 117.047 136.604 113.056 137.684 107.444C139.638 97.4668 126.128 98.5477 127.25 92.6446C127.666 89.9424 130.16 88.0717 132.862 88.3627C135.065 88.2796 136.936 89.9424 137.144 92.1457H137.975V92.2288Z" fill="#0072BB"/>
<path fill-rule="evenodd" clip-rule="evenodd" d="M151.32 109.315C150.78 111.393 149.741 114.095 147.163 114.095C145.293 114.095 145.085 112.183 145.459 110.603C145.625 109.148 146.373 107.86 147.537 106.987C148.992 106.197 150.489 105.573 152.069 105.116L151.32 109.315ZM158.97 100.834C159.843 96.4691 155.478 94.9726 151.819 94.9726C148.701 95.0141 145.667 96.0118 143.172 97.8826V100.502H143.463C144.96 98.8387 147.08 97.841 149.325 97.7994C151.154 97.7578 152.692 99.1713 152.775 101.042C152.775 101.25 152.775 101.458 152.734 101.624C152.651 102.289 152.318 102.913 151.736 103.328C150.655 103.869 149.533 104.243 148.327 104.492C142.632 105.823 139.847 107.028 139.057 111.144C138.309 114.927 140.595 116.922 144.17 116.922C146.623 116.881 148.909 115.675 150.406 113.721C150.614 115.592 152.235 117.005 154.106 116.922C155.561 116.756 156.974 116.34 158.263 115.717L158.471 114.719C156.725 114.719 156.392 114.262 156.642 112.64L158.97 100.834Z" fill="#0072BB"/>
<path fill-rule="evenodd" clip-rule="evenodd" d="M172.687 109.315C172.188 111.393 171.107 114.095 168.53 114.095C166.659 114.095 166.451 112.183 166.784 110.603C166.95 109.148 167.698 107.86 168.862 106.987C170.359 106.197 171.939 105.573 173.56 105.116L172.687 109.315ZM180.378 100.834C181.251 96.4691 176.886 94.9726 173.227 94.9726C170.11 95.0141 167.075 96.0118 164.581 97.8826V100.502H164.872C166.368 98.7971 168.53 97.7994 170.816 97.7994C172.645 97.7578 174.184 99.1713 174.267 101.042C174.267 101.25 174.267 101.458 174.225 101.624C174.142 102.289 173.768 102.913 173.227 103.328C172.147 103.869 170.983 104.243 169.819 104.492C164.123 105.823 161.338 107.028 160.548 111.144C159.8 114.927 162.086 116.922 165.661 116.922C168.114 116.881 170.442 115.717 171.897 113.721C172.105 115.592 173.726 117.005 175.597 116.922C177.052 116.756 178.465 116.34 179.754 115.717L179.962 114.719C178.174 114.719 177.883 114.262 178.133 112.64L180.378 100.834Z" fill="#0072BB"/>
<path d="M182.748 116.548C183.746 116.548 184.827 116.299 185.783 116.299C186.739 116.299 187.861 116.465 188.776 116.548L190.314 108.65C190.563 106.904 191.021 105.199 191.686 103.578C192.517 101.79 194.305 100.668 196.259 100.668C197.007 100.668 197.714 100.834 198.337 101.25L198.795 100.876C199.044 98.8803 199.46 96.8848 200 94.931C196.259 94.931 192.933 97.259 191.686 100.751L192.725 95.3467C191.686 95.3467 190.647 95.5546 189.649 95.5546C188.651 95.5546 187.57 95.4298 186.697 95.3467L182.748 116.548Z" fill="#0072BB"/>
<path d="M99.7715 91.73C101.725 90.8986 103.554 90.0671 105.799 88.9031L100.478 116.34H107.171L113.573 83.2494L113.199 83C109.042 84.9123 104.718 86.783 100.353 88.238L99.7715 91.73Z" fill="#EF7D00"/>
</svg>
