<?xml version="1.0" encoding="utf-8"?>
<!-- Generator: Adobe Illustrator 25.3.1, SVG Export Plug-In . SVG Version: 6.00 Build 0)  -->
<!DOCTYPE svg PUBLIC "-//W3C//DTD SVG 1.1//EN" "http://www.w3.org/Graphics/SVG/1.1/DTD/svg11.dtd" [
	<!ENTITY ns_extend "http://ns.adobe.com/Extensibility/1.0/">
	<!ENTITY ns_ai "http://ns.adobe.com/AdobeIllustrator/10.0/">
	<!ENTITY ns_graphs "http://ns.adobe.com/Graphs/1.0/">
	<!ENTITY ns_vars "http://ns.adobe.com/Variables/1.0/">
	<!ENTITY ns_imrep "http://ns.adobe.com/ImageReplacement/1.0/">
	<!ENTITY ns_sfw "http://ns.adobe.com/SaveForWeb/1.0/">
	<!ENTITY ns_custom "http://ns.adobe.com/GenericCustomNamespace/1.0/">
	<!ENTITY ns_adobe_xpath "http://ns.adobe.com/XPath/1.0/">
]>
<svg version="1.1" id="Layer_1" xmlns:x="&ns_extend;" xmlns:i="&ns_ai;" xmlns:graph="&ns_graphs;"
	 xmlns="http://www.w3.org/2000/svg" xmlns:xlink="http://www.w3.org/1999/xlink" x="0px" y="0px" viewBox="0 0 512 512"
	 style="enable-background:new 0 0 512 512;" xml:space="preserve">
<style type="text/css">
	.st0{fill:#0000FF;}
</style>
<metadata>
	<sfw  xmlns="&ns_sfw;">
		<slices></slices>
		<sliceSourceBounds  bottomLeftOrigin="true" height="383.9" width="486.3" x="12.8" y="64.1"></sliceSourceBounds>
	</sfw>
</metadata>
<g>
	<path class="st0" d="M472,250.3v9.5h15V272h-15v57.9h-21.3v-76.4c0-16.4,8.7-29.4,30.1-29.4c8.7,0,15.3,1.8,18.5,3.4V241
		c-3.9-2.9-9.8-4.8-15.6-4.8C476.2,236.3,472,242.3,472,250.3L472,250.3z M361.2,288.9c0-32,18.5-44.2,39-44.2
		c21.9-0.3,38.8,12.2,38.8,44.2c0.3,31.7-18.7,43.6-38.8,43.6C380.2,332.5,361.2,320.9,361.2,288.9z M383.6,288.9
		c0,21.4,4.5,31.2,16.6,31.2c11.9,0,16.9-9.8,16.6-31.2c-0.3-22-5-32.3-16.6-32C388.1,256.9,383.6,266.1,383.6,288.9z M122.8,332.5
		c-15.8,0-26.6-8.2-26.6-24.1s10.8-23.8,26.1-27.5l25.1-6.1v-5.3c0-10.6-6.1-13.8-12.7-13.8c-7.9,0-15.3,5-15.3,14.5H99.9
		c0-11.1,7.4-25.9,34.6-25.9c15.8,0,34,2.4,34,26.7v41.5c0,7.9,0.9,14,1.8,17.5h-20c-0.3-1.3-1.1-4-1.6-5.8
		C146.2,326.3,137.2,332.6,122.8,332.5L122.8,332.5z M130.5,318.5c7.4,0,14.2-3.7,16.9-6.1v-25.9l-10.8,2.6
		c-9.2,2.6-18.7,7.7-18.7,17.2C118.1,314.5,122.5,318.5,130.5,318.5L130.5,318.5z M50.7,330.1H12.9V226.7h42.5
		c14.5,0,27.4,6.6,27.4,23c0,15.6-11.3,21.4-22.2,23.8c10.8,0.5,27.7,7.9,27.7,26.7C88.1,320.4,70.9,330.1,50.7,330.1L50.7,330.1z
		 M35.9,268.8h5.8c11.1,0,17.9-4.8,17.9-16.1s-8.2-14.5-17.9-14.5h-5.8V268.8z M63.6,298.7c-0.3-12.7-8.4-18.2-20.3-18.2h-7.6v38.1
		h7.6C57.5,318.5,63.8,311.4,63.6,298.7L63.6,298.7z M232.1,277.3v52.9h21.1v-53.9c0-13.5-2.4-31.5-26.1-31.5
		c-11.1,0-20.8,6.4-24,8.5v-6.1H182v83.3h21.1v-64c3.4-2.6,9.5-7.1,16.1-7.1C229.4,259,232.1,265.1,232.1,277.3L232.1,277.3z
		 M266.4,226.5v103.4h21.4V226.2h-21.4V226.5z M309.6,279.4l26.9-32.5h-18.2l-30.6,36.5l23.7,46.8h26.1L309.6,279.4L309.6,279.4z
		 M181.7,402.6v3.7h-55.1c0,18,3.7,29.1,16.6,29.1c10.3,0,14.2-7.4,15.6-18.2h22.2c-4.5,23-20.8,30.4-37.7,30.4
		c-21.4,0-39-11.1-39-45c0-29.1,17.4-42.8,39-42.8C163.8,359.7,181.8,373.5,181.7,402.6L181.7,402.6z M159,395.2
		c-0.5-10.3-3.7-23.3-16.1-23.3s-15.3,13.2-16.4,23.3C126.6,395.2,159,395.2,159,395.2z M298.6,428c0,7.9,0.9,14,1.8,17.5h-20
		c-0.3-1.3-1.1-4-1.6-5.8c-2.6,1.8-11.6,8.2-26.1,8.2c-16.1,0-26.6-8.2-26.6-24.1c0-15.9,10.6-23.8,26.1-27.5l25.1-6.1V385
		c0-10.6-6.1-13.8-12.7-13.8c-7.9,0-15.3,5-15.3,14.5h-19.5c0-11.1,7.4-25.9,34.6-25.9c15.8,0,34,2.4,34,26.7v41.5L298.6,428
		L298.6,428z M277.5,401.6l-10.8,2.6c-9.2,2.6-18.7,7.7-18.7,17.2c0,8.2,4.5,12.2,12.4,12.2c7.4,0,14.2-3.7,16.9-6.1v-25.9
		L277.5,401.6L277.5,401.6z M193.3,445.2h21.3V341.8h-21.4v103.4L193.3,445.2z M357.9,359.8c-11.1,0-20.8,6.4-24,8.5v-6.1h-21.1
		v83.3h21.1v-64c3.4-2.6,9.5-7.1,16.1-7.1c10.3,0,12.9,6.1,12.9,18.2v52.9H384v-53.9C384,378,381.6,359.8,357.9,359.8L357.9,359.8z
		 M450.7,341.8h21.4v103.4h-21.4v-6.4c-0.9,0.9-9.8,8.7-22.4,8.7c-16.1,0-33-9.8-33-44.2c0-36.2,21.4-43.4,34.3-43.4
		c9.8,0,16.9,3.7,21.1,7.7L450.7,341.8L450.7,341.8z M450.7,381.7c-2.1-3.4-8.2-9-15.6-9c-8.7,0-17.1,5.6-17.1,30.4
		c0,25.9,7.9,31.2,17.4,31.2c7.1,0,14-6.4,15.6-9v-43.6C451,381.7,450.7,381.7,450.7,381.7z M12.8,445.2h22.9V341.8H12.8V445.2
		L12.8,445.2z M72.7,372.7v-10.8H51.4v83.3h21.4v-47.6c0-20.4,17.7-22,28-21.4V360C84.4,358.2,74.6,368.2,72.7,372.7L72.7,372.7z
		 M256.8,98.3h-1.6c0-16.9-68.3-18.5-68.3-34.2h-1.6v16.4c0,19.6,68.6,17.7,69.9,36.5h1.6c1.3-18.8,69.9-16.9,69.9-36.5V64.1h-1.6
		C325.1,79.7,256.8,81.6,256.8,98.3z M325.1,101.2c0,15.6-68.3,17.5-68.3,34.2h-1.6c0-16.9-68.3-18.5-68.3-34.2h-1.6v16.4
		c0,19.6,68.6,17.7,69.9,36.5h1.6c1.3-18.8,69.9-16.9,69.9-36.5v-16.4H325.1z M325.1,138.5c0,15.6-68.3,17.5-68.3,34.2h-1.6
		c0-16.9-68.3-18.5-68.3-34.2h-1.6v16.4c0,19.6,68.6,17.7,69.9,36.5h1.6c1.3-18.8,69.9-16.9,69.9-36.5v-16.4H325.1z"/>
</g>
</svg>
