<?xml version="1.0" encoding="utf-8"?>
<!-- Generator: Adobe Illustrator 25.3.1, SVG Export Plug-In . SVG Version: 6.00 Build 0)  -->
<!DOCTYPE svg PUBLIC "-//W3C//DTD SVG 1.1//EN" "http://www.w3.org/Graphics/SVG/1.1/DTD/svg11.dtd" [
	<!ENTITY ns_extend "http://ns.adobe.com/Extensibility/1.0/">
	<!ENTITY ns_ai "http://ns.adobe.com/AdobeIllustrator/10.0/">
	<!ENTITY ns_graphs "http://ns.adobe.com/Graphs/1.0/">
	<!ENTITY ns_vars "http://ns.adobe.com/Variables/1.0/">
	<!ENTITY ns_imrep "http://ns.adobe.com/ImageReplacement/1.0/">
	<!ENTITY ns_sfw "http://ns.adobe.com/SaveForWeb/1.0/">
	<!ENTITY ns_custom "http://ns.adobe.com/GenericCustomNamespace/1.0/">
	<!ENTITY ns_adobe_xpath "http://ns.adobe.com/XPath/1.0/">
]>
<svg version="1.1" id="Layer_1" xmlns:x="&ns_extend;" xmlns:i="&ns_ai;" xmlns:graph="&ns_graphs;"
	 xmlns="http://www.w3.org/2000/svg" xmlns:xlink="http://www.w3.org/1999/xlink" x="0px" y="0px" viewBox="0 0 512 512"
	 style="enable-background:new 0 0 512 512;" xml:space="preserve">
<style type="text/css">
	.st0{fill-rule:evenodd;clip-rule:evenodd;fill:#F4C00E;}
	.st1{fill-rule:evenodd;clip-rule:evenodd;fill:#E65A2B;}
	.st2{fill-rule:evenodd;clip-rule:evenodd;fill:#009AD8;}
	.st3{fill-rule:evenodd;clip-rule:evenodd;fill:#B9C800;}
</style>
<metadata>
	<sfw  xmlns="&ns_sfw;">
		<slices></slices>
		<sliceSourceBounds  bottomLeftOrigin="true" height="468.6" width="425.1" x="43.5" y="21.7"></sliceSourceBounds>
	</sfw>
</metadata>
<g>
	<g>
		<path class="st0" d="M330.7,99.8c1.6,1.1,1.5,3.3,3,4.4l0.7,4.9l-3.7,5.2c-4.5,2.4-11.3,3.4-15.5-0.4c-2.3-2.1-3.2-5.3-2.4-8.3
			l1.7-4.5c1-0.6,2.2-0.8,3-1.9c2.4-1,5-1.6,7.6-1.6C327,98.2,329.9,97.2,330.7,99.8"/>
		<path class="st1" d="M319,128.7c1.4,0,2.4,1,3.8,0.8c1.9,0.7,1.7,3,3.6,3.6c1.4,3,2.5,6.2,3.2,9.5c-0.6,1.9,1,3,0.5,4.8l0.5,0.3
			c0.1,1.9-0.2,3.8-0.8,5.6c-0.1,3.2-1,6.3-2.8,8.9c-1,0.6-1.5,2.4-3,2.1c-2.6,0.8-2.8,4.6-5.9,4.1c-2,1.5-4.7,0.7-7.1,0.7
			c-1.3-0.7-3.2-0.5-4.2-1.7c-2.4-1.1-4.6-2.6-6.6-4.5c-0.8-1.8-2.6-2.5-3-4.5c0.7-2.4-0.8-4.5-0.2-6.9l-0.5-4l1.5-6.8
			c2.5-1.3,1.8-4.4,4.4-5.4c1.6-3.7,5.4-4.4,8.3-6.3c1.1-0.2,2.5,0.4,3.3-0.6c1.6-0.3,3,1.4,4.5,0"/>
		<path class="st2" d="M448.2,23.2c-0.6,11.2-9.8,18.7-14.7,28.1c-2.1,5.6-6.9,8.9-10.5,14c-3.2,3.2-6.2,6.7-8.9,10.5
			c0.5,2.6,3.2,3.3,4.8,5.2c3.6,2.2,4,6.2,7.1,8.6c1.8,0,1.8,2.7,3.8,2.4c4,4.5,7.7,9.2,11.1,14.1c0.5,1.8,1.5,3.5,3,4.8
			c2.8,4,5.1,8.3,7.9,12.4c0.4,4.6,4.3,7.7,5.5,11.9c1.8,2.3,2.4,5,4,7.2c2.5,5.4,4.1,11,7.1,16.2c0.4,1.2,0,2.4-0.8,3.3
			c-1.1,0.9-2-0.7-3.3-0.5c-6.5-2.5-12.8-5.7-18.7-9.4c-6.2-5-13-8.5-19.1-13.8c-2.4-0.7-3.3-3.4-5.6-4.5
			c-5.9-3.6-10.5-8.9-16.5-12.3c-2.7-2.1-5.4-4-8.1-6.2c-2.1-0.2-2.8-2.6-4.7-3.3c-4.5-2.7-8.5-6.4-13-8.9c-0.4,0.7,0,1.6-0.4,2.2
			c-3,3-2.2,7.5-4.4,10.7c0,4.7-3.3,8.1-4.7,12.2c-3.7,6.6-7,13.5-10.8,20c-5.2,6.8-7.9,15.1-15.2,20.5c-1.5,1.8-3.4,3.3-5.4,4.5
			c-0.9-0.3-2.1,0-2.4-1.2c-0.9-1.6,0.2-4.2-1-5.7c0.6-2.4,0.9-4.9,0.9-7.4l-0.4-1.1c0-3.5,1.8-6.4,1.1-10c0.9-2.3,1.4-4.7,1.6-7.1
			c1.2-3.1,2-6.3,2.4-9.5c1-2,1.4-4.3,1.2-6.6c0.8-2,0.9-4.5,3-5.9c0.3-1.3,0-2.7,0.2-4.1c2.1-6.5,4.7-12.7,6.4-19.4
			c0-0.5-0.5-0.7-0.8-0.7c-4.7-0.2-8.9,0.7-13.4-0.5c-7.1-0.1-14.2-1-21.1-2.5c-2.8-0.6-6.1-0.2-8.6-1.8c-1.7,0.3-3.5,0.1-5.1-0.5
			c-3.3-1.6-7.2-1.4-10.5-3c-2.5,0.3-4.2-1.3-6.4-1.5c-2.2-0.2-3.3-1.7-4.8-3v-0.7c3.9-5.4,10.3-6.9,16-8.9c5.7-2,11.9-1.9,17.8-3
			c3.7-0.6,7.8,0.4,11.5-0.2c6.7,0,13.2,1.3,19.9,1.4c2.1,0.6,4.3,1,6.5,1.3v-1l-6.2-8.9c-2.4-5.5-6.7-10.2-8.2-16.1
			c-1.4-1.7,0-4.4-1.2-6.3c0-0.9,0.6-1.5,1-2.2c1.4-0.6,3,0.4,4.2-0.5c4,0.9,7.7,2.4,11.9,3.1c4.3,1.5,8.4,3.5,12.2,6.1
			c4.7,3.3,10.3,5.5,14,10.6c1,0.8,2.4,1.1,3.7,0.7c1.1,0,1.4-1.5,2.4-1.9c4.9-3,10.5-4.8,15.3-8.2c2-2,5.2-2.2,6.4-4.9
			c1.4-0.8,2.9-1.5,4.4-2c2.6-2.1,5.4-4,8.2-5.7c1.5-0.3,2.9-0.9,4.1-1.9c4.9-2.7,10.1-4.9,14.8-8c1-2.8,4.1-2.1,6.4-2.8
			c1.1,0.2,2.6,0,3,1.5"/>
	</g>
	<path class="st3" d="M266.2,257.1c14.9-15,23.1-35.3,22.9-56.4c0-55.7-48.4-95.6-131.7-95.6C118.8,106,80.5,112,43.5,123V488
		L94.3,467c32.2,15.4,67.4,23.4,103.1,23.3c102.8,0,155.9-47.8,155.9-120.6C353.3,311.7,320.9,269.8,266.2,257.1z M194.1,436.2
		c-29.7,0.4-58.9-6.7-85.2-20.4V166.7c15.8-4.7,32.1-7.1,48.5-7.2c49.1,0,68.2,26.9,68.2,55c0,23.5-14.4,49.8-45.9,72.7
		c75.5,4.7,105.5,31.4,105.5,77.3C285.2,408.7,255.7,436.2,194.1,436.2z"/>
</g>
</svg>
