<?xml version="1.0" encoding="utf-8"?>
<!-- Generator: Adobe Illustrator 25.3.1, SVG Export Plug-In . SVG Version: 6.00 Build 0)  -->
<!DOCTYPE svg PUBLIC "-//W3C//DTD SVG 1.1//EN" "http://www.w3.org/Graphics/SVG/1.1/DTD/svg11.dtd" [
	<!ENTITY ns_extend "http://ns.adobe.com/Extensibility/1.0/">
	<!ENTITY ns_ai "http://ns.adobe.com/AdobeIllustrator/10.0/">
	<!ENTITY ns_graphs "http://ns.adobe.com/Graphs/1.0/">
	<!ENTITY ns_vars "http://ns.adobe.com/Variables/1.0/">
	<!ENTITY ns_imrep "http://ns.adobe.com/ImageReplacement/1.0/">
	<!ENTITY ns_sfw "http://ns.adobe.com/SaveForWeb/1.0/">
	<!ENTITY ns_custom "http://ns.adobe.com/GenericCustomNamespace/1.0/">
	<!ENTITY ns_adobe_xpath "http://ns.adobe.com/XPath/1.0/">
]>
<svg version="1.1" id="Layer_1" xmlns:x="&ns_extend;" xmlns:i="&ns_ai;" xmlns:graph="&ns_graphs;"
	 xmlns="http://www.w3.org/2000/svg" xmlns:xlink="http://www.w3.org/1999/xlink" x="0px" y="0px" viewBox="0 0 512 512"
	 style="enable-background:new 0 0 512 512;" xml:space="preserve">
<style type="text/css">
	.st0{filter:url(#Adobe_OpacityMaskFilter);}
	.st1{fill-rule:evenodd;clip-rule:evenodd;fill:#FFFFFF;}
	.st2{mask:url(#mask-4_10_);fill-rule:evenodd;clip-rule:evenodd;fill:#5F81DC;}
	.st3{filter:url(#Adobe_OpacityMaskFilter_1_);}
	.st4{mask:url(#mask-4_9_);fill-rule:evenodd;clip-rule:evenodd;}
</style>
<metadata>
	<sfw  xmlns="&ns_sfw;">
		<slices></slices>
		<sliceSourceBounds  bottomLeftOrigin="true" height="388.1" width="337.9" x="86.6" y="67.4"></sliceSourceBounds>
	</sfw>
</metadata>
<g id="Page-1">
	<g id="Page-1-Copy-5" transform="translate(36.000000, 43.000000)">
		<g id="Clip-5">
		</g>
		<defs>
			<filter id="Adobe_OpacityMaskFilter" filterUnits="userSpaceOnUse" x="380" y="134.8" width="8.5" height="260.7">
				<feColorMatrix  type="matrix" values="1 0 0 0 0  0 1 0 0 0  0 0 1 0 0  0 0 0 1 0"/>
			</filter>
		</defs>
		<mask maskUnits="userSpaceOnUse" x="380" y="134.8" width="8.5" height="260.7" id="mask-4_10_">
			<g class="st0">
				<polygon id="path-3_10_" class="st1" points="-1356.4,425.9 1442.2,425.9 1442.2,-115.8 -1356.4,-115.8 				"/>
			</g>
		</mask>
		<polygon id="Fill-4" class="st2" points="380,395.6 388.5,395.6 388.5,134.8 380,134.8 		"/>
		<defs>
			<filter id="Adobe_OpacityMaskFilter_1_" filterUnits="userSpaceOnUse" x="50.6" y="13.5" width="293.7" height="388.1">
				<feColorMatrix  type="matrix" values="1 0 0 0 0  0 1 0 0 0  0 0 1 0 0  0 0 0 1 0"/>
			</filter>
		</defs>
		<mask maskUnits="userSpaceOnUse" x="50.6" y="13.5" width="293.7" height="388.1" id="mask-4_9_">
			<g class="st3">
				<polygon id="path-3_9_" class="st1" points="50.6,425.9 2849.2,425.9 2849.2,-115.8 50.6,-115.8 				"/>
			</g>
		</mask>
		<path id="Fill-6" class="st4" d="M270.5,289.8c-2.8,10.6-7.2,20-12.9,28.3c-5.7,8.3-13.2,14.8-22.4,19.6c-9.1,4.8-20,7.2-32.5,7.2
			c-7.6,0-15.8-0.9-24.3-2.7c-8.6-1.8-15.3-4.1-19.9-6.7v-83.4c0-8,1-15.9,3-23.9c2-7.9,5.3-15,9.9-21.1
			c4.7-6.1,10.8-11.1,18.5-14.9c7.6-3.8,17.2-5.7,28.8-5.7c10.9,0,19.9,2,27.1,6c7.1,4,12.9,9.2,17.2,15.6
			c4.3,6.5,7.3,13.9,9.2,22.4c1.8,8.5,2.7,17.2,2.7,26.1C274.7,268.1,273.3,279.2,270.5,289.8z M336.6,197.4
			c-5.1-14.9-12.2-27.3-21.1-37.3c-9-9.9-19.6-17.5-31.8-22.6c-12.3-5.1-25.5-7.7-39.7-7.7c-21.9,0-40.1,4.7-54.7,14.2
			c-4.1,2.7-12.1,9.1-12.1,9.1c-2,1.6-4.3,2.9-7,2.9c-6.3,0-11.3-5.1-11.3-11.3c0-0.2,0.1-0.3,0.2-0.5h-0.3
			c0.7-9.9,1.3-19.6,1.3-28.7V13.5H50.6v50.7h39.7v315.5c4.4,2.6,10.3,5.3,17.9,8c7.6,2.6,16.3,5,26.1,6.9c9.8,2,20.2,3.7,31.3,5
			c11.1,1.3,22.3,2,33.6,2c27.8,0,51-4.6,69.5-13.9c18.6-9.3,33.4-21.3,44.5-36.1c11.1-14.7,19-31.1,23.9-49.2
			c4.8-18,7.2-36,7.2-53.9C344.3,229.4,341.7,212.2,336.6,197.4z"/>
	</g>
</g>
</svg>
