<svg width="200" height="200" viewBox="0 0 200 200" fill="none" xmlns="http://www.w3.org/2000/svg">
<rect width="200" height="200" fill="white"/>
<path d="M156.012 127.027C153.699 130.652 154.824 133.527 155.512 136.277C157.074 142.84 160.2 148.715 163.262 154.653C164.012 156.091 165.45 157.716 163.575 159.216C161.95 160.529 160.325 159.341 158.887 158.466C153.137 154.841 148.949 149.653 144.886 144.34C140.011 137.902 136.011 130.964 132.135 123.401C129.948 126.152 130.823 128.652 131.448 131.027C134.76 143.903 141.261 155.153 149.574 165.279C152.699 169.029 151.949 170.779 148.511 173.592C134.76 184.78 119.572 193.218 103.008 199.344C100.696 200.219 98.6331 200.219 96.3205 199.344C79.1944 192.906 63.4434 184.155 49.38 172.404C46.7548 170.217 47.0673 168.779 48.9424 166.404C57.6305 155.528 64.6935 143.778 68.0062 130.089C68.5687 127.839 69.2562 125.589 67.2561 123.214C64.881 127.402 62.7558 131.464 60.3182 135.34C55.5054 143.153 50.1925 150.591 43.0046 156.466C41.817 157.466 40.5044 158.341 39.1293 159.029C38.0667 159.591 36.8167 160.279 35.6291 159.216C34.254 158.029 34.879 156.716 35.5041 155.403C37.5042 151.216 39.8169 147.153 41.442 142.84C43.3171 138.09 45.6297 133.214 43.6921 127.089C40.1294 132.027 37.1917 136.715 33.6915 140.84C25.7535 150.216 27.3786 149.028 22.1907 140.215C6.62724 113.776 2.50197 85.3989 8.87738 55.522C10.5025 47.8965 13.6902 40.7085 18.5655 34.5831C25.8785 25.3951 35.4416 21.7698 47.0048 24.27C51.1926 25.145 54.8178 27.2702 57.193 31.0204C59.9432 35.3332 59.6306 40.5835 55.6929 43.6462C52.2552 46.3339 54.0053 47.459 56.3804 48.8341C62.5058 52.4593 74.1316 51.2717 79.0069 46.0214C85.1323 39.521 86.5073 31.4579 84.1322 23.0824C82.5071 17.207 73.944 13.7068 67.3186 16.332C62.5058 18.2071 63.5059 15.2069 63.8184 12.9568C64.2559 9.64404 66.3811 6.83137 69.3813 5.95631C79.3819 3.01862 89.195 -1.73168 100.133 0.643469C108.634 2.45609 112.822 6.64385 114.009 15.2694C114.884 21.7073 115.009 28.2702 116.009 34.7082C118.197 48.709 129.76 53.8969 141.948 49.2091C144.699 48.1465 147.386 46.8339 143.198 43.3337C138.136 39.0209 139.636 31.3329 145.761 27.0202C154.262 21.0198 168.263 22.4574 176.763 30.3954C185.264 38.3959 189.326 48.7716 191.264 59.9598C196.389 90.0867 191.077 118.213 174.701 144.215C172.638 147.528 171.325 147.778 168.7 144.84C164.137 139.527 159.825 133.902 156.012 127.027Z" fill="#01AFE8"/>
</svg>
