<?xml version="1.0" encoding="utf-8"?>
<!-- Generator: Adobe Illustrator 25.3.1, SVG Export Plug-In . SVG Version: 6.00 Build 0)  -->
<!DOCTYPE svg PUBLIC "-//W3C//DTD SVG 1.1//EN" "http://www.w3.org/Graphics/SVG/1.1/DTD/svg11.dtd" [
	<!ENTITY ns_extend "http://ns.adobe.com/Extensibility/1.0/">
	<!ENTITY ns_ai "http://ns.adobe.com/AdobeIllustrator/10.0/">
	<!ENTITY ns_graphs "http://ns.adobe.com/Graphs/1.0/">
	<!ENTITY ns_vars "http://ns.adobe.com/Variables/1.0/">
	<!ENTITY ns_imrep "http://ns.adobe.com/ImageReplacement/1.0/">
	<!ENTITY ns_sfw "http://ns.adobe.com/SaveForWeb/1.0/">
	<!ENTITY ns_custom "http://ns.adobe.com/GenericCustomNamespace/1.0/">
	<!ENTITY ns_adobe_xpath "http://ns.adobe.com/XPath/1.0/">
]>
<svg version="1.1" id="Layer_1" xmlns:x="&ns_extend;" xmlns:i="&ns_ai;" xmlns:graph="&ns_graphs;"
	 xmlns="http://www.w3.org/2000/svg" xmlns:xlink="http://www.w3.org/1999/xlink" x="0px" y="0px" viewBox="0 0 512 512"
	 style="enable-background:new 0 0 512 512;" xml:space="preserve">
<style type="text/css">
	.st0{fill:#AA0024;}
</style>
<metadata>
	<sfw  xmlns="&ns_sfw;">
		<slices></slices>
		<sliceSourceBounds  bottomLeftOrigin="true" height="466.2" width="466" x="23" y="22.9"></sliceSourceBounds>
	</sfw>
</metadata>
<g>
	<path class="st0" d="M255.8,22.9c-48.4,0-96.8,0.3-145.1,0.8c-53.2,0.5-87.2,36.5-87.4,89.9c-0.4,95.3-0.4,190.8,0,286.1
		c0.2,54.9,34.6,88.7,89.7,89c58.6,0.3,117.2,0.1,175.7,0.1c60.6,0,121.2-0.5,181.8,0.3c14.1,0.2,18.5-3.3,18.4-17.9
		c-0.6-119.3-0.1-238.5-0.5-357.7c0-53.5-34-89.3-87.2-89.8c-48.6-0.5-96.7-0.8-145.3-0.8L255.8,22.9z M256.1,158.2
		c29.3,0,58.4,0.1,87.7,0.3c26.3,0.2,37.7,10.4,37.9,32.3c0.2,21.8-13.2,33.6-39.2,33.8c-29.2,0.3-58.5,0-87.7,0h-0.1
		c-28.6,0-57.2,0.2-85.7-0.1c-24.8-0.3-37.6-12-37.8-33.1c-0.1-22,11.4-32.8,37.1-32.9C197.5,158.3,226.8,158.2,256.1,158.2
		L256.1,158.2z M255.8,287.1c29.6,0,59.2,0,88.9,0.1c23.7,0.1,36.7,13.1,36.3,34.6c-0.4,20.4-12.7,31.8-36.3,32.2
		c-29.9,0.4-59.9,0.1-89.9,0.1h-0.1c-29.3,0-58.6,0.3-87.8-0.1c-23.7-0.4-36-11.8-36.3-32.3c-0.4-21.5,12.6-34.4,36.4-34.5
		C196.6,287.1,226.2,287.1,255.8,287.1L255.8,287.1z"/>
</g>
</svg>
