<?xml version="1.0" encoding="utf-8"?>
<!-- Generator: Adobe Illustrator 25.3.1, SVG Export Plug-In . SVG Version: 6.00 Build 0)  -->
<!DOCTYPE svg PUBLIC "-//W3C//DTD SVG 1.1//EN" "http://www.w3.org/Graphics/SVG/1.1/DTD/svg11.dtd" [
	<!ENTITY ns_extend "http://ns.adobe.com/Extensibility/1.0/">
	<!ENTITY ns_ai "http://ns.adobe.com/AdobeIllustrator/10.0/">
	<!ENTITY ns_graphs "http://ns.adobe.com/Graphs/1.0/">
	<!ENTITY ns_vars "http://ns.adobe.com/Variables/1.0/">
	<!ENTITY ns_imrep "http://ns.adobe.com/ImageReplacement/1.0/">
	<!ENTITY ns_sfw "http://ns.adobe.com/SaveForWeb/1.0/">
	<!ENTITY ns_custom "http://ns.adobe.com/GenericCustomNamespace/1.0/">
	<!ENTITY ns_adobe_xpath "http://ns.adobe.com/XPath/1.0/">
]>
<svg version="1.1" id="Layer_1" xmlns:x="&ns_extend;" xmlns:i="&ns_ai;" xmlns:graph="&ns_graphs;"
	 xmlns="http://www.w3.org/2000/svg" xmlns:xlink="http://www.w3.org/1999/xlink" x="0px" y="0px" viewBox="0 0 512 512"
	 style="enable-background:new 0 0 512 512;" xml:space="preserve">
<style type="text/css">
	.st0{fill:#1237AB;}
	.st1{fill:#878786;}
</style>
<metadata>
	<sfw  xmlns="&ns_sfw;">
		<slices></slices>
		<sliceSourceBounds  bottomLeftOrigin="true" height="460.2" width="344" x="84" y="25.9"></sliceSourceBounds>
	</sfw>
</metadata>
<g>
	<polygon class="st0" points="84,229.7 208.9,229.7 253.6,25.9 128.7,25.9 	"/>
	<polygon class="st1" points="195.8,486.1 226.7,486.1 327.6,25.9 296.7,25.9 	"/>
	<g>
		<path class="st0" d="M397.5,387.3c10.8,6.8,17.9,15.5,17.9,32.8c0,37.5-27.3,62-63,62h-78.2l37.5-187h67.7
			c34.4,0,48.6,20.7,48.6,43.3C428,355.5,421.2,375.5,397.5,387.3z M360.8,402.5h-36l-9.7,48.8h36.2c18.1,0,29.1-12.9,29.1-29.7
			C380.5,410.7,374.2,402.5,360.8,402.5z M373.4,325.9h-33.1l-9.5,46h33.3c20.5,0,28.6-15.5,28.6-27.6
			C392.8,335.6,389.1,325.9,373.4,325.9z"/>
	</g>
</g>
</svg>
