<svg width="200" height="200" viewBox="0 0 200 200" fill="none" xmlns="http://www.w3.org/2000/svg">
<rect width="200" height="200" fill="white"/>
<path d="M3.1336 89.3716H6.39424C8.21512 89.3716 10.4171 90.0068 10.4171 92.5899C10.4171 95.8082 7.87635 96.0622 4.86979 96.0622H3.17595V89.3716H3.1336ZM3.1336 98.6454H5.16621C7.834 98.6454 10.7982 99.1111 10.7982 102.456C10.7982 105.378 8.29981 105.971 5.50498 105.971H3.17595V98.6454H3.1336ZM0 108.512H5.75905C10.2054 108.512 14.0589 107.411 14.0589 102.753C14.0589 99.704 11.9839 97.7984 9.01969 97.5444V97.502C11.7722 96.8245 13.5084 95.3424 13.5084 92.3358C13.5084 88.3129 10.4171 86.8732 5.88609 86.8732H0V108.512Z" fill="#005BA3"/>
<path d="M19.6909 100.593C19.6909 97.5867 21.5117 94.6648 24.6453 94.6648C27.7366 94.6648 29.5998 97.5867 29.5998 100.593C29.5998 103.43 28.0754 106.522 24.6453 106.522C21.2153 106.522 19.6909 103.43 19.6909 100.593ZM16.5996 100.593C16.5996 105.124 19.9026 108.893 24.6877 108.893C29.4304 108.893 32.7334 105.124 32.7334 100.593C32.7334 95.7658 29.5151 92.2935 24.6877 92.2935C19.8179 92.2935 16.5996 95.7658 16.5996 100.593Z" fill="#005BA3"/>
<path d="M37.4337 100.509C37.3913 97.6291 38.6194 94.6225 41.7953 94.6225C44.9713 94.6225 46.4957 97.629 46.4957 100.593C46.4957 103.219 45.1406 106.479 41.8377 106.479C38.7041 106.522 37.3913 103.007 37.4337 100.509ZM46.6227 108.512H49.4176V85.2217H46.4957V94.8342H46.4534C45.5641 93.3945 43.955 92.2935 41.2025 92.2935C36.5868 92.2935 34.3848 96.0623 34.3848 100.297C34.3848 104.616 36.4174 108.851 41.2025 108.851C44.0396 108.851 45.8182 107.411 46.6227 106.225H46.6651V108.512H46.6227Z" fill="#005BA3"/>
<path d="M55.1772 99.0688C55.3889 97.0362 56.5746 94.6648 59.4541 94.6648C61.9525 94.6648 63.3923 96.6551 63.3923 99.0688H55.1772ZM65.2555 104.955C64.5356 105.548 62.2913 106.522 60.3857 106.522C57.6333 106.522 55.1772 104.362 55.1772 101.228H66.4836C66.4836 96.1469 64.7897 92.2935 59.4965 92.2935C55.0078 92.2935 52.0859 95.5964 52.0859 100.297C52.0859 105.463 54.669 108.851 60.3011 108.851C62.9265 108.851 64.1969 108.216 65.2979 107.834V104.955H65.2555Z" fill="#005BA3"/>
<path d="M69.1504 108.512H72.0723V101.186C72.0723 97.3326 73.5544 94.6648 76.8997 94.6648C79.4405 94.8342 80.245 96.6127 80.245 100.339V108.554H83.1669V99.1535C83.1669 94.8766 81.346 92.3358 77.2385 92.3358C75.0365 92.3358 72.9192 93.4368 72.0299 95.2153H71.9876V92.7169H69.1504V108.512V108.512Z" fill="#005BA3"/>
<path d="M85.5814 108.004C86.9365 108.724 88.4186 108.893 89.943 108.893C92.7802 108.893 95.4904 107.326 95.4904 103.939C95.4904 98.8571 88.6303 99.7887 88.6303 96.5704C88.6303 95.2577 89.943 94.6648 91.4251 94.6648C92.1027 94.6648 93.8389 95.0883 94.5164 95.4694L94.7705 92.9286C93.6271 92.5899 92.4838 92.2935 91.1287 92.2935C87.9951 92.2935 85.5391 93.8603 85.5391 97.1632C85.5391 101.61 92.3991 101.355 92.3991 104.235C92.3991 105.929 90.7476 106.522 89.4349 106.522C88.588 106.522 86.9365 106.141 85.7931 105.421L85.5814 108.004Z" fill="#005BA3"/>
<path d="M99.7677 99.0688C99.9794 97.0362 101.165 94.6648 104.045 94.6648C106.543 94.6648 107.983 96.6551 107.983 99.0688H99.7677ZM109.888 104.955C109.168 105.548 106.924 106.522 105.019 106.522C102.266 106.522 99.81 104.362 99.81 101.228H111.116C111.116 96.1469 109.423 92.2935 104.129 92.2935C99.6406 92.2935 96.7188 95.5964 96.7188 100.297C96.7188 105.463 99.3019 108.851 104.934 108.851C107.559 108.851 108.83 108.216 109.931 107.834V104.955H109.888Z" fill="#005BA3"/>
<path d="M115.816 99.0688C116.028 97.0362 117.213 94.6648 120.093 94.6648C122.591 94.6648 124.031 96.6551 124.031 99.0688H115.816ZM125.894 104.955C125.174 105.548 122.93 106.522 121.024 106.522C118.272 106.522 115.816 104.362 115.816 101.228H127.122C127.122 96.1469 125.428 92.2935 120.135 92.2935C115.646 92.2935 112.725 95.5964 112.725 100.297C112.725 105.463 115.308 108.851 120.94 108.851C123.565 108.851 124.836 108.216 125.937 107.834V104.955H125.894Z" fill="#005BA3"/>
<path d="M133.009 89.3716H136.27C138.09 89.3716 140.292 90.0068 140.292 92.5899C140.292 95.8082 137.752 96.0622 134.745 96.0622H133.051V89.3716H133.009ZM133.009 98.6454H135.042C137.709 98.6454 140.674 99.1111 140.674 102.456C140.674 105.378 138.175 105.971 135.38 105.971H133.051V98.6454H133.009ZM129.875 108.512H135.634C140.038 108.512 143.892 107.411 143.892 102.753C143.892 99.704 141.817 97.7984 138.853 97.5444V97.502C141.605 96.8245 143.341 95.3424 143.341 92.3358C143.341 88.3129 140.25 86.8732 135.719 86.8732H129.833V108.512H129.875Z" fill="#005BA3"/>
<path d="M156.934 102.372C156.934 104.743 155.41 106.522 152.53 106.522C151.175 106.522 149.566 105.632 149.566 103.939C149.566 101.144 153.462 100.89 155.071 100.89C155.706 100.89 156.299 100.932 156.934 100.932V102.372ZM148.423 96.274C149.608 95.3 151.387 94.6648 153.038 94.6648C155.96 94.6648 156.934 96.0622 156.934 98.8147C155.791 98.7724 154.986 98.7724 153.843 98.7724C150.836 98.7724 146.475 100 146.475 103.981C146.475 107.411 148.846 108.935 152.276 108.935C154.944 108.935 156.511 107.496 157.188 106.522H157.23V108.554H159.983C159.941 108.089 159.856 107.242 159.856 105.463V98.8994C159.856 94.5801 158.035 92.3358 153.504 92.3358C151.471 92.3358 149.735 92.971 148.295 93.8179L148.423 96.274Z" fill="#005BA3"/>
<path d="M163.54 108.512H166.462V101.186C166.462 97.3326 167.944 94.6648 171.289 94.6648C173.83 94.8342 174.635 96.6127 174.635 100.339V108.554H177.557V99.1535C177.557 94.8766 175.736 92.3358 171.628 92.3358C169.426 92.3358 167.309 93.4368 166.462 95.2153H166.42V92.7169H163.54V108.512Z" fill="#005BA3"/>
<path d="M181.283 108.512H184.205V100.382L191.277 108.512H195.469L187.212 99.704L194.537 92.6746H190.599L184.205 99.1112V85.2217H181.283V108.512Z" fill="#005BA3"/>
<path d="M126.699 75.5668C126.699 75.5668 119.543 87.9742 105.738 83.4008C105.738 83.4008 90.1972 77.3877 82.9561 86.6614C82.9561 86.6614 88.6304 73.7459 106.373 79.2085C106.331 79.2509 119.077 83.4431 126.699 75.5668Z" fill="#005BA3"/>
<path d="M127.63 74C127.63 74 120.474 86.4074 106.669 81.834C106.669 81.834 91.1279 75.8209 83.8867 85.137C83.8867 85.137 89.5611 72.2215 107.304 77.6841C107.262 77.6841 120.008 81.8763 127.63 74Z" fill="#005BA3"/>
<path d="M127.63 74C127.63 74 120.474 86.4074 106.669 81.834C106.669 81.834 91.1279 75.8209 83.8867 85.137C83.8867 85.137 89.5611 72.2215 107.304 77.6841C107.262 77.6841 120.008 81.8763 127.63 74Z" fill="#005BA3"/>
<path d="M199.28 125.577C199.703 125.577 199.999 125.281 199.999 124.815C199.999 124.392 199.703 124.095 199.28 124.095C198.856 124.095 198.56 124.434 198.56 124.815C198.602 125.281 198.898 125.577 199.28 125.577ZM196.273 125.408V125.069C195.807 125.027 195.511 124.858 195.087 124.392C194.664 123.968 193.478 122.528 193.224 122.105C193.732 121.512 193.902 121.258 194.24 120.962C194.706 120.538 195.003 120.411 195.807 120.284V119.988L193.309 120.115V120.454C193.859 120.496 193.902 120.623 193.69 120.962C193.478 121.3 193.139 121.766 192.843 122.02C192.674 122.232 192.42 122.359 192.081 122.444V116.727C191.53 116.896 190.81 117.108 190.218 117.151V117.447C190.937 117.489 191.022 117.574 191.022 118.379V124.138C191.022 124.942 190.937 125.027 190.133 125.069V125.408H192.928V125.069C192.165 124.985 192.081 124.942 192.081 124.138V122.783L192.25 122.74C192.377 122.74 192.462 122.825 192.631 122.994C193.266 123.841 194.029 124.815 194.537 125.408H196.273ZM187.846 125.408V125.069C187.169 124.985 187.084 124.942 187.084 124.138V121.809C187.084 120.623 186.491 119.945 185.517 119.945C185.178 119.945 184.84 120.072 184.501 120.326C184.204 120.538 183.95 120.708 183.696 120.877V119.903C183.103 120.157 182.511 120.284 181.918 120.411V120.708C182.553 120.835 182.638 120.877 182.638 121.639V124.138C182.638 124.942 182.595 124.985 181.748 125.069V125.408H184.459V125.069C183.781 124.985 183.696 124.942 183.696 124.138V121.258C184.035 120.962 184.501 120.665 184.967 120.665C185.687 120.665 186.025 121.173 186.025 122.02V124.053C186.025 124.9 185.941 124.985 185.263 125.069V125.408H187.846V125.408ZM177.514 124.434C177.302 124.646 176.921 124.815 176.625 124.815C176.243 124.815 175.778 124.519 175.778 123.884C175.778 123.418 176.032 123.206 176.497 122.994C176.752 122.867 177.26 122.656 177.514 122.486V124.434V124.434ZM179.504 124.942L179.377 124.603C179.25 124.688 179.081 124.73 178.954 124.73C178.742 124.73 178.53 124.561 178.53 124.011V121.809C178.53 121.173 178.403 120.665 177.98 120.284C177.683 120.072 177.344 119.945 176.963 119.945C176.286 120.072 175.481 120.538 175.1 120.792C174.846 120.962 174.719 121.131 174.719 121.3C174.719 121.597 175.058 121.851 175.312 121.851C175.524 121.851 175.651 121.766 175.693 121.555C175.778 121.173 175.905 120.919 176.032 120.75C176.159 120.623 176.328 120.538 176.54 120.538C177.133 120.538 177.514 121.046 177.514 121.893V122.105C177.217 122.317 176.328 122.656 175.608 122.91C174.931 123.121 174.634 123.502 174.634 124.095C174.634 124.857 175.227 125.577 176.116 125.577C176.455 125.577 177.048 125.154 177.514 124.815C177.556 125.027 177.641 125.196 177.81 125.323C177.937 125.45 178.191 125.577 178.403 125.577L179.504 124.942ZM167.944 121.427H168.452C169.934 121.427 170.738 121.978 170.738 123.206C170.738 124.476 169.892 124.985 168.918 124.985C168.155 124.985 167.944 124.773 167.944 123.884V121.427V121.427ZM167.944 121.004V118.633C167.944 118.252 167.986 118.124 168.071 118.04C168.198 117.955 168.452 117.913 168.748 117.913C169.807 117.913 170.315 118.59 170.315 119.48C170.315 120.496 169.764 121.004 168.452 121.004H167.944ZM169.892 121.131C170.611 120.962 171.585 120.454 171.585 119.31C171.585 118.717 171.331 118.209 170.908 117.913C170.484 117.659 169.976 117.489 169.045 117.489H165.826V117.828C166.758 117.913 166.843 117.955 166.843 118.971V123.926C166.843 124.942 166.758 125.027 165.742 125.112V125.45H168.494C169.468 125.45 170.315 125.323 170.908 124.942C171.628 124.561 172.051 123.926 172.051 123.121C172.051 121.893 171.12 121.343 169.892 121.131ZM156.68 120.411C157.315 120.411 157.696 121.004 157.696 121.639C157.696 121.809 157.611 121.893 157.399 121.893C156.722 121.936 156.087 121.936 155.452 121.936C155.621 120.919 156.171 120.411 156.68 120.411ZM158.585 124.095C158.162 124.519 157.696 124.688 157.188 124.688C156.341 124.688 155.409 124.011 155.409 122.401C156.807 122.359 158.331 122.232 158.543 122.19C158.755 122.147 158.839 122.063 158.839 121.766C158.839 120.835 158.035 119.903 156.976 119.903C156.341 119.903 155.706 120.242 155.197 120.792C154.689 121.343 154.393 122.063 154.393 122.952C154.393 124.349 155.282 125.535 156.764 125.535C157.188 125.535 158.035 125.323 158.797 124.349L158.585 124.095ZM152.149 125.408V125.069C151.471 124.985 151.386 124.942 151.386 124.138V121.809C151.386 120.623 150.793 119.945 149.82 119.945C149.481 119.945 149.142 120.072 148.803 120.326C148.507 120.538 148.253 120.708 147.999 120.877V119.903C147.406 120.157 146.813 120.284 146.22 120.411V120.708C146.855 120.835 146.94 120.877 146.94 121.639V124.138C146.94 124.942 146.898 124.985 146.051 125.069V125.408H148.761V125.069C148.083 124.985 147.999 124.942 147.999 124.138V121.258C148.337 120.962 148.803 120.665 149.269 120.665C149.989 120.665 150.328 121.173 150.328 122.02V124.053C150.328 124.9 150.243 124.985 149.565 125.069V125.408H152.149V125.408ZM143.764 125.408V125.069C143.002 124.985 142.917 124.942 142.917 124.095V119.903C142.367 120.115 141.731 120.284 141.096 120.369V120.665C141.774 120.792 141.858 120.835 141.858 121.597V124.095C141.858 124.942 141.774 124.985 141.012 125.069V125.408H143.764ZM142.324 118.929C142.705 118.929 142.959 118.633 142.959 118.252C142.959 117.87 142.663 117.574 142.324 117.574C141.943 117.574 141.647 117.87 141.647 118.252C141.647 118.633 141.986 118.929 142.324 118.929ZM136.65 120.411C137.285 120.411 137.709 121.004 137.666 121.639C137.666 121.809 137.582 121.893 137.37 121.893C136.692 121.936 136.057 121.936 135.422 121.936C135.591 120.919 136.099 120.411 136.65 120.411ZM138.555 124.095C138.132 124.519 137.666 124.688 137.158 124.688C136.311 124.688 135.38 124.011 135.38 122.401C136.777 122.359 138.301 122.232 138.513 122.19C138.725 122.147 138.81 122.063 138.81 121.766C138.81 120.835 138.005 119.903 136.946 119.903C136.311 119.903 135.676 120.242 135.168 120.792C134.66 121.343 134.363 122.063 134.363 122.952C134.363 124.349 135.253 125.535 136.735 125.535C137.158 125.535 138.005 125.323 138.767 124.349L138.555 124.095ZM127.376 121.47C127.334 121.173 127.207 120.411 127.122 120.157C126.868 120.03 126.529 119.945 126.021 119.945C124.878 119.945 124.116 120.665 124.116 121.555C124.116 122.486 124.962 122.952 125.64 123.248C126.275 123.545 126.614 123.841 126.614 124.349C126.614 124.858 126.233 125.196 125.767 125.196C125.047 125.196 124.497 124.476 124.243 123.672L123.904 123.714C123.904 124.18 124.031 125.027 124.116 125.196C124.327 125.366 124.92 125.577 125.513 125.577C126.529 125.577 127.546 125.027 127.546 123.884C127.546 123.037 126.91 122.571 125.979 122.19C125.428 121.936 124.962 121.682 124.962 121.173C124.962 120.708 125.301 120.369 125.725 120.369C126.318 120.369 126.741 120.877 126.995 121.597L127.376 121.47ZM121.617 125.408V125.069C120.855 124.985 120.77 124.942 120.77 124.138V116.769C120.304 116.939 119.542 117.108 118.865 117.193V117.489C119.627 117.574 119.712 117.574 119.712 118.421V124.18C119.712 124.985 119.627 125.027 118.865 125.112V125.45H121.617V125.408ZM114.672 124.434C114.461 124.646 114.08 124.815 113.783 124.815C113.402 124.815 112.936 124.519 112.936 123.884C112.936 123.418 113.19 123.206 113.656 122.994C113.91 122.867 114.418 122.656 114.672 122.486V124.434V124.434ZM116.663 124.942L116.536 124.603C116.409 124.688 116.239 124.73 116.112 124.73C115.9 124.73 115.689 124.561 115.689 124.011V121.809C115.689 121.173 115.562 120.665 115.138 120.284C114.842 120.072 114.503 119.945 114.122 119.945C113.444 120.072 112.64 120.538 112.259 120.792C112.005 120.962 111.878 121.131 111.878 121.3C111.878 121.597 112.216 121.851 112.47 121.851C112.682 121.851 112.809 121.766 112.851 121.555C112.936 121.173 113.063 120.919 113.19 120.75C113.317 120.623 113.487 120.538 113.698 120.538C114.291 120.538 114.672 121.046 114.672 121.893V122.105C114.376 122.317 113.487 122.656 112.767 122.91C112.089 123.121 111.793 123.502 111.793 124.095C111.793 124.857 112.386 125.577 113.275 125.577C113.614 125.577 114.207 125.154 114.672 124.815C114.715 125.027 114.799 125.196 114.969 125.323C115.096 125.45 115.35 125.577 115.562 125.577L116.663 124.942ZM103.239 121.258V119.945C102.604 120.199 102.053 120.326 101.418 120.411V120.708C102.096 120.792 102.138 120.835 102.138 121.639V124.18C102.138 124.985 102.053 125.027 101.291 125.112V125.45H104.171V125.112C103.239 125.027 103.154 124.985 103.154 124.18V121.936C103.408 121.258 103.789 120.962 104.086 120.962C104.298 120.962 104.425 121.046 104.636 121.216C104.721 121.3 104.806 121.3 104.975 121.258C105.229 121.131 105.399 120.877 105.399 120.581C105.399 120.284 105.102 119.945 104.679 119.945C104.171 119.945 103.662 120.623 103.239 121.258ZM98.962 125.408V125.069C98.2845 124.985 98.1998 124.942 98.1998 124.138V121.978C98.1998 120.538 97.5223 119.903 96.5059 119.903C95.8708 119.903 95.1932 120.326 94.7698 120.75V116.727C94.2616 116.896 93.4994 117.066 92.9065 117.151V117.447C93.6688 117.532 93.7111 117.574 93.7111 118.336V124.138C93.7111 124.942 93.6264 124.985 92.9065 125.069V125.408H95.532V125.069C94.8545 124.985 94.7698 124.9 94.7698 124.138V121.216C95.0662 120.835 95.532 120.623 95.9554 120.623C96.7177 120.623 97.0988 121.089 97.0988 122.105V124.138C97.0988 124.9 97.0141 124.985 96.3366 125.069V125.408H98.962V125.408ZM88.6719 120.411C89.3071 120.411 89.6883 121.004 89.6883 121.639C89.6883 121.809 89.6036 121.893 89.3918 121.893C88.7143 121.936 88.0791 121.936 87.4439 121.936C87.6133 120.919 88.1214 120.411 88.6719 120.411ZM90.5775 124.095C90.1541 124.519 89.6882 124.688 89.1801 124.688C88.3332 124.688 87.4016 124.011 87.4016 122.401C88.799 122.359 90.3234 122.232 90.5352 122.19C90.7469 122.147 90.8316 122.063 90.8316 121.766C90.8316 120.835 90.027 119.903 88.9684 119.903C88.3332 119.903 87.698 120.242 87.1898 120.792C86.6817 121.343 86.3853 122.063 86.3853 122.952C86.3853 124.349 87.2745 125.535 88.7566 125.535C89.1801 125.535 90.027 125.323 90.7892 124.349L90.5775 124.095ZM84.1409 125.408V125.069C83.0823 124.985 83.0399 124.9 83.0399 123.629L82.9129 119.225C82.8706 117.997 82.9552 117.955 84.0139 117.87V117.532H81.8966L79.1441 123.502L76.434 117.532H74.3167V117.87C75.4177 117.997 75.5024 118.04 75.3753 119.607L75.2059 122.105C75.1212 123.375 75.0365 123.926 74.9519 124.349C74.8672 124.858 74.6131 124.985 73.9355 125.069V125.45H76.8151V125.069C76.0105 124.985 75.7141 124.9 75.6717 124.307C75.6294 123.841 75.6294 123.291 75.7141 122.274L75.8835 118.844H75.9258L78.636 125.323H78.89L81.8119 118.717H81.8542L81.8966 123.629C81.8966 124.9 81.8542 124.985 80.8803 125.069V125.408H84.1409Z" fill="#005BA3"/>
</svg>
