<svg width="200" height="200" viewBox="0 0 200 200" fill="none" xmlns="http://www.w3.org/2000/svg">
<g clip-path="url(#clip0_1862_112029)">
<rect width="200" height="200" fill="white"/>
<path d="M12.8589 14H0.889648V142.508H12.8589V14Z" fill="black"/>
<path d="M185.443 14H181.642V142.508H185.443V14Z" fill="black"/>
<path d="M35.1797 14H26.041V103.527H35.1797V14Z" fill="black"/>
<path d="M176.789 14H167.65V103.527H176.789V14Z" fill="black"/>
<path d="M55.6406 14H46.502V103.527H55.6406V14Z" fill="black"/>
<path d="M108.693 14H99.5547V103.527H108.693V14Z" fill="black"/>
<path d="M66.4781 14H61.9492V103.527H66.4781V14Z" fill="black"/>
<path d="M120.583 14H116.054V103.527H120.583V14Z" fill="black"/>
<path d="M136.838 14H132.309V103.527H136.838V14Z" fill="black"/>
<path d="M88.3142 14H76.4258V103.527H88.3142V14Z" fill="black"/>
<path d="M157.623 14H145.734V103.527H157.623V14Z" fill="black"/>
<path d="M28.9521 146.875V120.268H42.9433C45.7738 120.268 48.0383 120.51 49.8175 121.076C51.5158 121.643 52.8907 122.451 53.8612 123.584C54.8316 124.716 55.3169 125.848 55.3169 127.061C55.3169 128.193 54.9125 129.245 54.0229 130.296C53.1333 131.347 51.8393 132.075 50.141 132.722C52.4054 133.207 54.1038 134.016 55.3169 135.148C56.53 136.281 57.0961 137.655 57.0961 139.192C57.0961 140.405 56.6917 141.618 55.9639 142.67C55.236 143.721 54.3464 144.53 53.2142 145.177C52.1628 145.743 50.788 146.228 49.1705 146.471C47.553 146.794 45.5312 146.956 43.1859 146.956H28.9521V146.875ZM33.8854 131.428H41.9728C44.1564 131.428 45.6929 131.347 46.6634 131.105C47.9574 130.862 48.847 130.377 49.494 129.811C50.141 129.164 50.4645 128.436 50.4645 127.465C50.4645 126.576 50.141 125.767 49.5749 125.12C49.0088 124.473 48.1191 123.988 47.0678 123.745C45.9356 123.503 44.0755 123.341 41.4067 123.341H33.9663V131.428H33.8854ZM33.8854 143.721H43.1859C44.8033 143.721 45.9356 143.64 46.5826 143.559C47.7148 143.397 48.6853 143.155 49.4131 142.831C50.141 142.508 50.788 142.023 51.2732 141.376C51.7585 140.729 52.0011 140.001 52.0011 139.111C52.0011 138.141 51.6776 137.251 50.9497 136.523C50.2219 135.795 49.2514 135.31 47.9574 134.987C46.6634 134.663 44.8842 134.501 42.5389 134.501H33.8854V143.721Z" fill="black"/>
<path d="M61.626 137.17C61.626 133.612 63.0008 130.943 65.8314 129.245C68.1767 127.789 71.0073 127.061 74.3231 127.061C78.0433 127.061 81.0356 127.951 83.4618 129.649C85.8071 131.347 87.0202 133.774 87.0202 136.847C87.0202 139.354 86.535 141.295 85.4836 142.67C84.4323 144.125 82.8957 145.177 80.9547 145.985C78.9329 146.794 76.7493 147.199 74.404 147.199C70.6029 147.199 67.5297 146.309 65.2653 144.611C62.7582 142.993 61.626 140.486 61.626 137.17ZM66.3166 137.17C66.3166 139.677 67.0445 141.457 68.5811 142.75C70.1177 143.964 71.9778 144.611 74.2422 144.611C76.5067 144.611 78.3668 143.964 79.9034 142.75C81.44 141.537 82.1678 139.596 82.1678 137.089C82.1678 134.663 81.44 132.884 79.9034 131.671C78.3668 130.458 76.5067 129.811 74.2422 129.811C71.9778 129.811 70.0368 130.458 68.5811 131.671C67.1254 132.884 66.3166 134.744 66.3166 137.17Z" fill="black"/>
<path d="M92.1953 146.875V120.268H96.8051V146.875H92.1953Z" fill="black"/>
<path d="M122.361 140.648L127.133 141.052C126.405 142.993 125.03 144.53 123.008 145.662C120.987 146.713 118.399 147.279 115.245 147.279C111.282 147.279 108.128 146.39 105.863 144.691C103.518 142.993 102.386 140.486 102.386 137.413C102.386 134.178 103.518 131.671 105.863 129.892C108.209 128.112 111.201 127.223 115.002 127.223C118.641 127.223 121.553 128.112 123.817 129.892C126.082 131.671 127.214 134.097 127.214 137.332C127.214 137.494 127.214 137.817 127.214 138.222H107.076C107.238 140.324 108.047 141.942 109.583 143.074C111.12 144.206 112.98 144.772 115.245 144.772C116.943 144.772 118.318 144.449 119.531 143.802C120.744 142.993 121.714 142.023 122.361 140.648ZM107.319 135.31H122.442C122.2 133.693 121.634 132.48 120.744 131.671C119.288 130.377 117.428 129.811 115.083 129.811C112.98 129.811 111.201 130.296 109.745 131.347C108.29 132.318 107.481 133.693 107.319 135.31Z" fill="black"/>
<path d="M142.903 143.883L143.55 146.794C142.256 146.956 141.124 147.118 140.073 147.118C138.374 147.118 137.161 146.956 136.191 146.552C135.301 146.147 134.654 145.662 134.25 145.096C133.846 144.449 133.684 143.236 133.684 141.214V130.134H130.287V127.546H133.684V122.775L138.213 120.834V127.546H142.822V130.053H138.213V141.376C138.213 142.346 138.294 142.912 138.455 143.155C138.617 143.397 138.86 143.64 139.264 143.802C139.668 143.964 140.154 144.044 140.801 144.044C141.367 144.044 142.014 144.044 142.903 143.883Z" fill="black"/>
<path d="M145.652 137.17C145.652 133.612 147.027 130.943 149.858 129.245C152.203 127.789 155.034 127.061 158.349 127.061C162.07 127.061 165.062 127.951 167.488 129.649C169.833 131.347 171.047 133.774 171.047 136.847C171.047 139.354 170.561 141.295 169.51 142.67C168.459 144.125 166.922 145.177 164.981 145.985C162.959 146.794 160.776 147.199 158.43 147.199C154.629 147.199 151.556 146.309 149.292 144.611C146.785 142.993 145.652 140.486 145.652 137.17ZM150.343 137.17C150.343 139.677 151.071 141.457 152.607 142.75C154.144 143.964 156.004 144.611 158.269 144.611C160.533 144.611 162.393 143.964 163.93 142.75C165.466 141.537 166.194 139.596 166.194 137.089C166.194 134.663 165.466 132.884 163.93 131.671C162.393 130.458 160.533 129.811 158.269 129.811C156.004 129.811 154.063 130.458 152.607 131.671C151.071 132.884 150.343 134.744 150.343 137.17Z" fill="black"/>
<path d="M0 185.694V159.087H13.9911C16.8217 159.087 19.0861 159.33 20.8653 159.896C22.5637 160.462 23.9385 161.271 24.909 162.403C25.8795 163.535 26.3647 164.667 26.3647 165.88C26.3647 167.013 25.9604 168.064 25.0708 169.115C24.1812 170.086 22.8872 170.894 21.1888 171.541C23.4533 172.027 25.1516 172.835 26.3647 173.968C27.5778 175.1 28.144 176.475 28.144 178.011C28.144 179.224 27.7396 180.438 27.0117 181.489C26.2839 182.54 25.3943 183.349 24.262 183.996C23.2107 184.562 21.8358 185.047 20.2184 185.29C18.6009 185.613 16.5791 185.775 14.2337 185.775H0V185.694ZM4.93328 170.247H13.0206C15.2042 170.247 16.7408 170.167 17.7113 169.924C19.0053 169.681 19.8949 169.196 20.5419 168.63C21.1888 167.983 21.5123 167.255 21.5123 166.285C21.5123 165.395 21.1888 164.586 20.6227 163.939C20.0566 163.292 19.167 162.807 18.1156 162.564C16.9834 162.322 15.1233 162.16 12.4545 162.16H5.01415V170.247H4.93328ZM4.93328 182.54H14.2337C15.8512 182.54 16.9834 182.459 17.6304 182.378C18.7626 182.217 19.7331 181.974 20.461 181.651C21.1888 181.327 21.8358 180.842 22.3211 180.195C22.8063 179.548 23.0489 178.82 23.0489 177.93C23.0489 176.96 22.7254 176.07 21.9976 175.342C21.2697 174.615 20.2992 174.129 19.0053 173.806C17.7113 173.482 15.9321 173.321 13.5867 173.321H4.93328V182.54Z" fill="black"/>
<path d="M52.0018 183.268C50.3034 184.319 48.686 185.047 47.0685 185.452C45.5319 185.856 43.8336 186.099 42.0544 186.099C39.062 186.099 36.7976 185.613 35.1801 184.562C33.5626 183.511 32.7539 182.217 32.7539 180.599C32.7539 179.629 33.0774 178.82 33.6435 178.011C34.2096 177.203 35.0184 176.636 35.9888 176.151C36.9593 175.666 38.0916 175.342 39.3047 175.1C40.1943 174.938 41.5691 174.776 43.3483 174.615C47.0685 174.291 49.7373 173.887 51.5165 173.482C51.5165 172.997 51.5165 172.755 51.5165 172.593C51.5165 171.299 51.1122 170.328 50.2226 169.762C49.0903 169.034 47.3111 168.63 45.0467 168.63C42.8631 168.63 41.3265 168.873 40.2751 169.439C39.2238 170.005 38.4959 170.894 38.0107 172.269L33.5626 171.865C33.967 170.49 34.614 169.358 35.5845 168.549C36.555 167.74 37.8489 167.093 39.6281 166.608C41.4074 166.123 43.4292 165.961 45.7745 165.961C48.1199 165.961 49.9799 166.123 51.4357 166.527C52.8914 166.932 53.9427 167.417 54.5897 167.983C55.2367 168.549 55.722 169.277 56.0455 170.247C56.2072 170.814 56.2881 171.784 56.2881 173.24V177.607C56.2881 180.68 56.3689 182.54 56.6116 183.349C56.7733 184.158 57.1777 184.966 57.7438 185.694H52.9723C52.487 184.966 52.1635 184.158 52.0018 183.268ZM51.5974 175.989C49.8991 176.475 47.4729 176.879 44.1571 177.203C42.297 177.364 40.9221 177.607 40.1943 177.85C39.3855 178.092 38.8194 178.416 38.415 178.901C38.0107 179.386 37.7681 179.871 37.7681 180.438C37.7681 181.327 38.2533 182.055 39.1429 182.621C40.0325 183.187 41.4074 183.511 43.1866 183.511C44.9658 183.511 46.5024 183.268 47.8772 182.702C49.2521 182.136 50.2226 181.408 50.8696 180.438C51.3548 179.71 51.5974 178.577 51.5974 177.203V175.989Z" fill="black"/>
<path d="M63.3242 185.694V166.366H67.4488V169.115C69.4706 167.013 72.3012 165.961 76.0214 165.961C77.6388 165.961 79.1754 166.204 80.5503 166.608C81.9251 167.013 82.9765 167.579 83.6235 168.226C84.2704 168.873 84.7557 169.681 85.0792 170.652C85.2409 171.218 85.3218 172.35 85.3218 173.806V185.694H80.712V173.968C80.712 172.674 80.5503 171.622 80.1459 170.975C79.8224 170.328 79.1754 169.762 78.2858 169.358C77.3962 168.953 76.3448 168.792 75.1317 168.792C73.1908 168.792 71.4924 169.196 70.1176 170.086C68.6619 170.975 68.0149 172.674 68.0149 175.1V185.613H63.3242V185.694Z" fill="black"/>
<path d="M109.988 178.577L114.517 178.982C114.031 181.165 112.737 182.945 110.716 184.158C108.694 185.371 106.187 186.018 103.275 186.018C99.555 186.018 96.6436 185.128 94.3791 183.43C92.1146 181.731 90.9824 179.224 90.9824 175.989C90.9824 173.887 91.4677 172.108 92.4381 170.49C93.4086 168.953 94.8643 167.74 96.8862 167.013C98.8271 166.204 101.011 165.799 103.356 165.799C106.267 165.799 108.694 166.366 110.554 167.417C112.414 168.468 113.627 170.005 114.112 171.946L109.664 172.431C109.26 171.137 108.451 170.167 107.4 169.52C106.348 168.873 105.054 168.549 103.518 168.549C101.172 168.549 99.3124 169.115 97.8567 170.328C96.4009 171.541 95.6731 173.402 95.6731 175.909C95.6731 178.497 96.4009 180.357 97.7758 181.57C99.1506 182.783 101.011 183.349 103.194 183.349C104.974 183.349 106.51 182.945 107.723 182.136C108.855 181.408 109.664 180.195 109.988 178.577Z" fill="black"/>
<path d="M136.029 183.268C134.331 184.319 132.713 185.047 131.096 185.452C129.559 185.856 127.861 186.099 126.082 186.099C123.089 186.099 120.825 185.613 119.207 184.562C117.59 183.511 116.781 182.217 116.781 180.599C116.781 179.629 117.105 178.82 117.671 178.011C118.237 177.203 119.046 176.636 120.016 176.151C120.987 175.666 122.119 175.343 123.332 175.1C124.222 174.938 125.596 174.776 127.376 174.615C131.096 174.291 133.765 173.887 135.544 173.482C135.544 172.997 135.544 172.755 135.544 172.593C135.544 171.299 135.14 170.328 134.25 169.762C133.118 169.034 131.338 168.63 129.074 168.63C126.89 168.63 125.354 168.873 124.302 169.439C123.251 170.005 122.523 170.894 122.038 172.269L117.59 171.865C117.994 170.49 118.641 169.358 119.612 168.549C120.582 167.74 121.876 167.093 123.655 166.608C125.435 166.123 127.457 165.961 129.802 165.961C132.147 165.961 134.007 166.123 135.463 166.527C136.919 166.932 137.97 167.417 138.617 167.983C139.264 168.549 139.749 169.277 140.073 170.247C140.235 170.814 140.315 171.784 140.315 173.24V177.607C140.315 180.68 140.396 182.54 140.639 183.349C140.801 184.158 141.205 184.966 141.771 185.694H137C136.433 184.966 136.191 184.158 136.029 183.268ZM135.625 175.989C133.926 176.475 131.5 176.879 128.184 177.203C126.324 177.364 124.949 177.607 124.222 177.85C123.413 178.092 122.847 178.416 122.442 178.901C122.038 179.386 121.795 179.871 121.795 180.438C121.795 181.327 122.281 182.055 123.17 182.621C124.06 183.187 125.435 183.511 127.214 183.511C128.993 183.511 130.53 183.268 131.905 182.702C133.279 182.136 134.25 181.408 134.897 180.438C135.382 179.71 135.625 178.577 135.625 177.203V175.989ZM126.729 163.939L130.125 158.844H136.11L130.53 163.939H126.729Z" fill="black"/>
<path d="M147.352 185.694V166.366H151.476V169.277C152.527 167.902 153.498 167.013 154.388 166.608C155.277 166.204 156.248 165.961 157.299 165.961C158.836 165.961 160.372 166.285 161.99 167.013L160.372 170.086C159.24 169.6 158.108 169.358 156.975 169.358C156.005 169.358 155.115 169.6 154.307 170.005C153.498 170.409 152.932 171.056 152.608 171.784C152.123 172.916 151.88 174.21 151.88 175.585V185.694H147.352V185.694Z" fill="black"/>
<path d="M164.739 162.807V159.006H169.349V162.807H164.739ZM164.739 185.694V166.366H169.349V185.694H164.739Z" fill="black"/>
<path d="M174.606 175.989C174.606 172.431 175.981 169.762 178.812 168.064C181.157 166.608 183.988 165.88 187.304 165.88C191.024 165.88 194.016 166.77 196.442 168.468C198.788 170.167 200.001 172.593 200.001 175.666C200.001 178.173 199.515 180.114 198.464 181.489C197.413 182.945 195.876 183.996 193.935 184.805C191.913 185.613 189.73 186.018 187.384 186.018C183.583 186.018 180.51 185.128 178.246 183.43C175.739 181.731 174.606 179.305 174.606 175.989ZM179.297 175.989C179.297 178.497 180.025 180.276 181.562 181.57C183.098 182.783 184.958 183.43 187.223 183.43C189.487 183.43 191.347 182.783 192.884 181.57C194.42 180.357 195.148 178.416 195.148 175.909C195.148 173.482 194.42 171.703 192.884 170.49C191.347 169.277 189.487 168.63 187.223 168.63C184.958 168.63 183.017 169.277 181.562 170.49C180.025 171.703 179.297 173.563 179.297 175.989Z" fill="black"/>
</g>
<defs>
<clipPath id="clip0_1862_112029">
<rect width="200" height="200" fill="white"/>
</clipPath>
</defs>
</svg>
