<svg width="200" height="200" viewBox="0 0 200 200" fill="none" xmlns="http://www.w3.org/2000/svg">
<rect width="200" height="200" fill="white"/>
<path d="M182.634 180.878C182.634 180.455 182.634 180.455 182.634 180.116C182.634 142.759 182.634 105.402 182.634 68.0449C182.634 67.6213 182.634 67.2825 182.634 66.8589C182.211 67.2825 181.872 67.2825 181.872 67.6213C171.453 76.8547 160.695 85.3257 148.327 92.2719C140.28 96.9309 131.385 100.743 122.49 103.454C117.831 104.64 113.257 105.402 108.259 105.402C104.024 105.402 99.3647 104.64 95.5527 102.691C89.0301 99.6417 85.1334 93.7967 83.6086 86.9352C82.4227 82.2761 82.4227 78.0406 82.8462 73.4663C83.6086 64.2329 86.3193 55.3384 89.7925 46.8674C89.7925 46.4439 90.216 46.105 90.216 45.6815C89.7925 45.6815 89.4536 45.6815 89.0301 45.6815C61.6688 45.6815 34.3075 45.6815 6.94621 45.6815C3.4731 45.6815 0.762389 47.6298 0 51.1029V51.4418V181.217C0 181.641 0 181.641 0.423549 181.98C1.18594 184.69 3.13426 186.215 5.84498 186.978H6.26853H177.298C177.721 186.978 178.06 186.978 178.06 186.554C180.771 186.639 182.634 183.928 182.634 180.878ZM46.6751 130.391C50.9106 130.391 53.6213 133.102 53.6213 136.914C53.6213 140.726 50.9106 143.437 47.0987 143.437C42.8632 143.437 40.1525 140.726 40.576 136.914C39.7289 133.102 42.4396 130.815 46.6751 130.391ZM10.0805 126.156C11.2664 125.732 12.3676 125.732 13.5536 125.732C13.9771 125.732 13.9771 126.156 13.9771 126.495V130.73C15.5019 130.73 16.6878 130.73 18.2126 131.154C21.2622 131.916 23.2105 133.864 23.2105 137.338C23.2105 139.286 22.787 141.149 21.2622 142.335C20.0762 143.521 18.5515 143.86 17.0267 143.86C15.0784 143.86 12.7912 143.86 10.8429 143.098C10.4193 143.098 10.0805 142.674 10.0805 142.335C10.0805 136.999 10.0805 131.577 10.0805 126.156ZM16.2643 171.221C14.316 171.221 12.7912 170.798 10.8429 170.459C10.4193 170.459 10.0805 170.036 10.0805 169.273C10.0805 164.275 10.0805 158.854 10.0805 153.856C10.0805 153.094 10.0805 153.094 10.8429 153.094H13.13C13.8924 153.094 13.8924 153.517 13.8924 153.856V158.091H17.7044C20.7539 158.515 22.7022 160.802 22.7022 163.852C23.2105 168.934 20.4998 171.221 16.2643 171.221ZM25.1588 132.34C25.1588 131.916 25.5824 131.577 25.5824 131.577C28.2931 130.815 30.5803 130.391 33.291 131.154C37.1029 132.34 38.2889 135.389 37.95 138.439C37.5265 143.098 33.291 144.199 29.9026 143.86C29.479 143.86 29.1402 143.86 28.7166 143.86V148.096C28.7166 148.858 28.7166 148.858 27.9543 148.858C27.1919 148.858 26.4295 148.858 25.6671 148.858C25.2435 148.858 24.9047 148.858 24.9047 148.096C25.1588 142.759 25.1588 137.338 25.1588 132.34ZM38.2041 165.461C37.7806 168.934 35.917 170.883 32.4439 170.883C31.2579 170.883 30.4955 170.883 29.3943 170.883V175.118C29.3943 175.881 29.3943 175.881 28.6319 175.881C27.8695 175.881 27.1072 175.881 26.3448 175.881C25.9212 175.881 25.5824 175.881 25.5824 175.118C25.5824 169.697 25.5824 164.699 25.5824 159.362C25.5824 158.939 26.0059 158.6 26.0059 158.6C28.7166 157.837 31.4274 157.414 34.0534 158.176C37.1029 159.701 38.6277 162.412 38.2041 165.461ZM53.2825 165.885C52.859 169.358 50.2329 171.306 46.7598 171.306C44.4727 171.306 42.1008 170.544 40.9996 168.257C39.8983 165.969 39.8136 163.259 40.9996 160.972C42.1855 159.023 43.7103 158.261 45.6586 158.261C46.8446 158.261 47.9458 158.261 48.7082 158.684C52.4354 159.277 53.6213 162.751 53.2825 165.885ZM64.0407 170.12C63.2783 170.544 62.5159 170.883 61.7535 170.883C59.4663 171.306 57.518 171.306 55.2308 170.12C55.2308 170.12 54.8073 170.12 54.8073 169.697C55.2308 168.934 55.5697 168.172 55.9932 167.41C57.1792 167.833 58.2804 167.833 59.0428 168.172C59.4663 168.172 60.2287 168.172 60.5675 167.748C60.9911 167.748 61.3299 167.325 61.3299 166.986C61.3299 166.562 60.9064 166.224 60.5675 165.8C60.144 165.377 59.3816 165.377 59.0428 165.038C58.2804 164.614 57.0944 164.275 56.3321 163.852C54.0449 162.327 54.0449 159.616 56.3321 158.091C57.8568 157.329 59.8052 157.329 61.7535 157.329C62.9394 157.329 63.7018 157.753 64.803 158.091C64.3795 158.854 64.0407 159.616 63.6171 160.379C62.4312 159.955 61.6688 159.955 60.9064 159.955C60.4828 159.955 60.144 159.955 59.7205 159.955C59.2969 160.379 58.5345 160.717 58.5345 161.141C58.5345 161.565 58.9581 161.903 59.2969 162.327C60.0593 162.751 60.4828 162.751 61.2452 163.089C62.0076 163.513 62.77 163.513 63.1936 163.852C65.989 165.885 65.989 168.934 64.0407 170.12ZM63.6171 142.759C62.0923 143.521 60.144 143.945 58.1957 143.521C57.0097 143.521 55.485 143.098 54.3837 142.759C54.8073 141.573 55.1461 140.811 55.5697 140.048C56.7556 140.472 57.518 140.472 58.2804 140.811H60.2287C60.6523 140.811 60.9911 140.048 60.9911 139.625C60.9911 139.201 60.5675 138.862 60.2287 138.439C59.8052 138.015 59.0428 138.015 58.2804 137.676C57.518 137.253 56.7556 137.253 55.9932 136.49C53.706 134.966 53.706 132.255 55.9932 130.73C57.518 129.968 59.0428 129.544 60.6523 129.968C61.8382 129.968 62.9394 130.391 64.4642 130.73C64.0407 131.493 63.7018 132.255 63.2783 133.017C62.5159 132.594 61.7535 132.594 60.9911 132.594C60.2287 132.594 59.4663 132.594 59.0428 133.017C58.2804 133.441 58.2804 134.203 59.0428 134.966C59.4663 135.389 60.2287 135.389 60.5675 135.728C61.3299 136.152 62.5159 136.49 63.2783 136.914C66.3278 138.523 65.989 141.573 63.6171 142.759ZM66.7514 130.815H68.6997C68.6997 130.052 68.6997 129.29 68.6997 128.528C68.6997 128.104 68.6997 127.765 69.1232 127.765C69.8856 127.342 70.648 127.342 71.0716 127.342C71.4951 127.342 71.834 127.342 72.5963 126.918V130.73H75.3071V133.017C74.5447 133.017 73.7823 133.017 72.5963 133.017V135.305V138.778C72.5963 140.302 73.3587 140.726 74.5447 140.302H75.3071V142.59L74.8835 143.013C73.6976 143.013 72.1728 143.013 71.0716 143.013C69.5468 142.59 68.7844 141.488 68.7844 139.54C68.7844 137.592 68.7844 136.067 68.7844 134.119C68.7844 133.695 68.7844 133.356 68.7844 133.356C68.7844 133.356 68.7844 133.356 68.3609 133.356C66.7514 133.102 66.7514 133.102 66.7514 130.815ZM72.5116 165.461V166.224C72.5116 168.172 72.9352 168.511 74.7988 168.172H75.2224V170.459L74.7988 170.883C73.6129 171.306 72.0881 171.306 70.9869 170.883C69.4621 170.459 68.6997 169.358 68.6997 167.41C68.6997 165.461 68.6997 163.936 68.6997 161.988C68.6997 161.565 68.6997 161.226 68.6997 161.226C68.6997 161.226 68.6997 161.226 68.2761 161.226C67.8526 161.226 66.7514 161.226 66.7514 160.802C66.7514 160.04 66.7514 159.277 66.7514 158.515H68.6997C68.6997 157.753 68.6997 156.99 68.6997 156.228C68.6997 155.804 69.1232 155.804 69.1232 155.465H69.5468C70.3092 155.042 71.4951 155.042 72.2575 154.703V158.515H74.9682V160.802L74.5447 161.226C73.7823 161.226 73.0199 161.226 72.2575 161.226C72.5116 162.412 72.5116 163.936 72.5116 165.461ZM84.0322 126.156C85.2181 125.732 86.7429 125.732 87.8441 125.732V130.391C89.3689 130.391 90.8937 130.391 92.0796 130.815C95.5527 131.577 97.0775 134.288 96.7387 137.338C96.7387 141.573 93.6891 143.098 90.216 143.521C88.2677 143.521 86.4041 143.521 84.4557 142.759C84.0322 142.759 83.6933 142.335 83.6933 141.997C84.0322 136.999 84.0322 131.577 84.0322 126.156ZM96.7387 165.122C96.3151 169.781 93.6891 171.306 89.7925 171.306C87.8441 171.306 86.3193 170.883 84.371 170.544C83.9475 170.544 83.6086 170.12 83.6086 169.781C83.6086 164.36 83.6086 159.023 83.6086 153.602C83.6086 153.602 83.6086 153.602 83.6086 153.178H87.0817C87.0817 153.178 87.5053 153.602 87.5053 153.941V157.414V158.6H88.2677C89.7924 158.176 91.3172 158.6 92.5032 159.023C95.9763 160.125 97.1622 162.412 96.7387 165.122ZM110.631 169.697C110.631 170.12 110.631 170.459 109.869 170.459C107.158 171.221 104.108 171.645 100.974 170.883C98.687 170.459 97.9246 168.934 97.9246 167.071C97.9246 165.546 98.687 164.36 100.212 164.021C101.398 163.598 102.922 163.259 104.447 162.835C105.21 162.835 105.972 162.835 106.734 162.412C107.158 161.226 106.311 160.125 105.21 160.125C103.685 160.125 102.16 160.548 100.974 160.548C100.551 160.548 100.551 160.548 100.212 160.972C99.7882 160.209 99.4494 159.447 99.0258 158.684C102.075 157.922 104.786 157.16 107.92 158.261C109.869 158.684 110.631 160.209 110.631 162.073V169.697ZM110.631 142.335C110.631 142.759 110.208 143.098 110.208 143.098C107.158 143.86 104.024 144.284 100.974 143.098C99.0258 142.335 98.2634 141.149 98.2634 139.286C98.2634 138.1 99.0258 136.999 100.212 136.575C101.737 136.152 103.261 135.813 104.871 135.389H106.819C106.819 133.864 106.396 133.102 104.871 133.102C103.346 133.102 102.16 133.526 100.635 133.526C100.212 133.526 99.8729 133.526 99.4494 133.102C99.4494 132.679 99.0258 131.916 98.687 131.577C99.8729 131.154 100.635 131.154 101.737 130.815C103.685 130.391 105.21 130.391 107.158 130.815C109.445 131.238 110.631 132.763 110.631 135.05V142.335ZM126.048 171.221C124.862 171.221 123.761 171.221 122.575 171.221C121.813 171.221 122.152 170.798 122.152 170.459C122.152 168.172 122.152 165.8 122.152 163.513C122.152 161.988 121.389 161.226 119.864 161.226C117.577 161.226 117.577 161.226 117.577 163.513V170.798C117.577 171.221 117.577 171.56 116.815 171.56C116.053 171.56 115.29 171.56 114.104 171.56C113.681 171.56 113.342 171.56 113.342 170.798C113.342 167.325 113.342 163.513 113.342 160.04C113.342 159.616 113.765 159.277 113.765 159.277C116.476 158.515 119.526 158.091 122.236 158.854C124.523 159.277 125.709 160.802 125.709 163.089V170.374C126.048 170.459 126.048 170.883 126.048 171.221ZM126.048 143.521C124.862 143.521 123.761 143.521 122.999 143.521C122.575 143.521 122.236 143.521 122.236 142.759C122.236 140.472 122.236 138.1 122.236 136.236C122.236 133.949 121.474 133.187 119.187 133.526C117.662 133.949 117.662 133.526 117.662 135.05V143.521C116.476 143.521 114.951 143.521 113.85 143.521C113.85 143.098 113.85 143.098 113.85 142.759C113.85 139.286 113.85 135.813 113.85 132.001C113.85 131.577 113.85 131.238 114.612 131.238C117.323 130.476 120.034 130.052 123.083 130.815C125.794 131.238 126.557 132.763 126.557 135.474V142.759C126.048 142.759 126.048 143.098 126.048 143.521ZM141.465 175.457V175.881C140.28 175.881 139.178 175.881 137.654 175.881C137.654 174.356 137.654 172.407 137.654 170.883C136.468 170.883 134.943 170.883 133.842 170.883C130.03 170.459 128.081 167.833 128.42 163.598C128.844 160.124 131.131 158.176 134.604 157.837C136.552 157.414 138.416 157.837 140.364 158.6C140.788 158.6 141.127 159.023 141.127 159.362C141.465 165.122 141.465 170.459 141.465 175.457ZM139.178 143.521C138.416 143.521 137.654 143.098 137.23 142.759C135.705 140.811 134.519 139.286 132.571 137.338V142.759C132.571 143.521 132.571 143.521 131.809 143.521C131.046 143.521 130.284 143.521 129.521 143.521C128.759 143.521 128.759 143.098 128.759 142.759C128.759 140.048 128.759 136.999 128.759 134.288C128.759 131.577 128.759 129.29 128.759 126.579C128.759 125.817 129.183 125.817 129.521 125.817H131.809C132.571 125.817 132.571 126.241 132.571 126.579V135.474V136.236C132.994 136.236 132.994 135.813 132.994 135.813C134.18 134.288 135.705 133.102 136.806 131.577C137.23 131.154 137.569 131.154 137.992 131.154H141.804C141.381 131.577 141.381 131.577 141.381 131.916C139.856 133.441 138.331 134.966 137.145 136.575C136.722 136.999 136.722 137.338 137.145 137.761C138.67 139.709 140.195 141.234 141.804 143.183C141.804 143.183 142.228 143.606 142.567 143.945C141.042 143.521 140.28 143.521 139.178 143.521ZM156.12 170.459C153.41 171.221 150.36 171.645 147.649 170.883C145.701 170.459 144.6 169.358 144.6 167.071C144.6 164.021 144.6 161.31 144.6 158.176H148.073C148.496 158.176 148.496 158.6 148.496 158.939V165.885C148.496 167.41 149.259 168.172 150.784 168.172C153.071 168.172 153.071 168.172 153.071 165.885C153.071 163.598 153.071 161.226 153.071 158.939C153.071 158.515 153.071 158.176 153.071 158.176H156.883V158.939V169.358C156.459 170.12 156.459 170.459 156.12 170.459ZM172.3 164.699C172.3 164.699 171.876 165.122 171.537 165.122C168.827 165.546 165.777 165.885 163.066 166.308H162.643C162.643 167.071 163.066 167.833 163.829 168.257C165.015 169.019 166.116 169.019 167.302 169.019C168.488 169.019 169.589 168.595 170.775 168.257C171.199 169.019 171.537 169.781 171.961 170.544C170.775 170.967 169.674 170.967 168.911 171.306C166.963 171.73 165.1 171.73 163.151 170.883C160.102 169.697 158.916 167.41 158.916 164.699C158.916 161.226 160.864 159.277 163.914 158.515C165.438 158.091 166.963 158.091 168.573 158.515C171.537 159.277 172.639 161.649 172.3 164.699Z" fill="#264797"/>
<path d="M174.926 21.7933C174.502 21.7933 174.163 22.2169 173.74 22.5557C172.554 24.504 171.791 26.7912 170.69 28.7395C165.269 37.9729 158.746 46.105 151.038 53.3901C145.277 58.8115 139.093 63.8094 132.147 67.6213C126.726 70.6709 120.966 73.0428 114.782 73.8052C111.732 74.2287 108.598 73.8052 105.887 71.8568C102.414 69.5697 100.889 66.0966 100.466 61.8611C100.042 57.6256 100.889 53.3901 102.414 49.4934C103.177 47.2063 103.939 44.8344 105.125 42.5472C102.075 43.3096 98.941 44.4956 95.8915 45.2579C95.4679 45.2579 95.4679 45.6815 95.1291 46.0203C92.0795 52.543 89.7076 59.4892 88.6064 66.4354C87.844 70.6709 87.844 74.9064 89.03 78.803C90.2159 83.0385 92.0795 86.8505 95.9762 89.5612C99.4493 91.8484 103.261 92.6108 107.158 92.6108C112.156 92.6108 116.815 91.4248 121.813 89.9C130.284 86.8505 137.992 82.615 145.277 77.5324C156.798 69.485 167.217 60.1669 176.451 49.4087C184.498 40.1753 191.868 30.1796 197.289 18.9979C198.475 17.8119 199.237 15.9483 200 14H199.576C199.153 14 199.153 14.4235 198.814 14.4235C190.767 16.7954 182.634 19.0826 174.926 21.7933Z" fill="#BC001B"/>
<path d="M25.9215 148.519H28.2086C28.971 148.519 28.971 148.096 28.971 147.757C28.971 146.232 28.971 145.046 28.971 143.521H30.157C33.6301 143.945 37.442 142.759 38.2044 138.1C38.628 135.05 37.442 131.916 33.5454 130.815C30.8347 130.053 28.1239 130.391 25.8368 131.238C25.4132 131.238 25.4132 131.662 25.4132 132.001V147.757C25.1591 148.519 25.4979 148.519 25.9215 148.519ZM29.7334 133.526C32.4441 133.102 34.3925 134.712 33.9689 136.999C33.9689 137.761 33.9689 138.524 33.5454 139.286C32.783 140.811 30.8347 141.573 29.3099 141.234C29.3099 141.234 28.8863 140.811 28.8863 140.472C28.8863 139.286 28.8863 138.524 28.8863 137.422C28.8863 136.66 28.8863 135.898 28.8863 135.135C28.8863 134.712 28.8863 134.712 28.8863 134.373C28.971 133.526 29.3946 133.526 29.7334 133.526Z" fill="white"/>
<path d="M33.9688 158.515C31.2581 157.753 28.5474 158.091 25.9214 158.939C25.4978 158.939 25.4978 159.362 25.4978 159.701V175.457C25.4978 175.881 25.9214 176.219 26.2602 176.219H28.5474C29.3097 176.219 29.3097 175.796 29.3097 175.457C29.3097 173.932 29.3097 172.746 29.3097 171.222H32.3593C35.8324 170.798 37.7807 168.934 38.1196 165.8C38.6278 162.412 37.1031 159.701 33.9688 158.515ZM33.6299 167.41C32.8676 168.596 30.9192 168.934 29.818 168.596C29.818 168.596 29.3945 168.172 29.3945 167.833C29.3945 167.494 29.3945 167.41 29.3945 167.071C29.3945 166.308 29.3945 165.546 29.3945 164.784C29.3945 164.021 29.3945 163.259 29.3945 162.496C29.3945 162.073 29.3945 162.073 29.3945 161.734C29.3945 161.395 29.3945 160.972 30.1568 160.972C31.6816 160.972 33.2064 160.972 33.9688 162.496C34.3923 163.936 34.3923 166.224 33.6299 167.41Z" fill="white"/>
<path d="M140.703 158.939C138.755 158.176 136.891 158.176 134.943 158.176C131.131 158.6 129.183 160.463 128.759 163.936C128.336 167.748 130.284 170.883 134.181 171.221H137.993V176.219H141.805C141.805 175.796 141.805 175.796 141.805 175.796C141.805 170.374 141.805 165.038 141.805 160.04C141.466 158.939 141.042 158.939 140.703 158.939ZM136.807 168.595C134.096 169.358 132.571 167.833 132.148 165.122C132.148 164.699 132.148 163.936 132.148 163.598C132.571 161.31 134.435 160.125 136.807 160.887C137.23 160.887 137.23 161.31 137.23 161.649V163.936V164.699V166.224V167.748C137.569 168.172 137.23 168.595 136.807 168.595Z" fill="white"/>
<path d="M92.9268 158.515C91.402 158.091 89.8772 157.753 88.6913 158.091C88.2677 158.091 88.2677 158.091 87.9289 158.091C87.9289 157.668 87.9289 157.329 87.9289 156.906C87.9289 155.72 87.9289 154.618 87.9289 153.432C87.9289 153.009 87.5053 152.67 87.5053 152.67C86.3194 152.67 85.2182 152.67 84.0322 152.67V153.094V169.273C84.0322 169.697 84.4558 170.036 84.7946 170.036C86.7429 170.459 88.2677 170.798 90.216 170.798C93.6892 170.798 96.7387 168.85 97.1623 164.614C97.1623 162.412 95.9763 160.125 92.9268 158.515ZM91.7408 167.748C90.9784 168.511 89.0301 168.934 87.9289 168.511C87.9289 168.511 87.5053 168.087 87.5053 167.748C87.5053 166.562 87.5053 165.8 87.5053 164.699C87.5053 163.513 87.5053 162.751 87.5053 161.649C87.5053 161.226 87.5053 160.887 88.2677 160.887C90.216 160.463 91.3173 161.31 92.0797 162.412C93.2656 164.36 92.9268 166.647 91.7408 167.748Z" fill="white"/>
<path d="M84.4558 143.098C86.4041 143.521 88.2677 143.86 90.2161 143.86C93.6892 143.437 96.7387 141.912 96.7387 137.676C96.7387 134.203 95.5528 131.493 92.0797 131.154C90.5549 130.73 89.3689 130.73 87.8442 130.73C87.8442 129.205 87.8442 127.681 87.8442 126.071C86.6582 126.071 85.1335 126.071 84.0322 126.071V126.495V142.674C84.0322 142.759 84.0322 142.759 84.4558 143.098ZM88.6913 133.102C90.216 133.102 91.7408 133.102 92.5032 134.627C93.2656 136.152 93.2656 138.439 92.5032 139.625C91.7408 140.811 89.7925 141.15 88.6913 140.811C88.6913 140.811 88.2677 140.387 88.2677 140.048C88.2677 139.709 88.2677 139.625 88.2677 139.286C88.2677 138.523 88.2677 137.761 88.2677 136.999C88.2677 136.236 88.2677 135.474 88.2677 134.712C88.2677 134.288 88.2677 134.288 88.2677 133.949C87.9289 133.526 87.9289 133.526 88.6913 133.102Z" fill="white"/>
<path d="M17.7889 158.515C16.603 158.515 15.0782 158.515 13.977 158.515C13.977 156.99 13.977 155.804 13.977 154.28C13.977 153.856 13.977 153.517 13.2146 153.517C12.4522 153.517 11.6898 153.517 10.9274 153.517C10.165 153.517 10.165 153.941 10.165 154.28V169.697C10.165 170.459 10.5886 170.459 10.9274 170.883C12.8758 171.306 14.4005 171.645 16.3489 171.645C20.5844 171.645 23.2951 169.358 23.2951 164.699C22.7868 161.226 20.9232 158.939 17.7889 158.515ZM18.9749 165.122C18.9749 167.41 17.4501 168.596 15.1629 168.596H14.7394C13.977 168.596 13.977 168.172 13.977 167.833C13.977 165.885 13.977 164.021 13.977 161.649C13.977 161.226 13.977 160.887 14.7394 160.887C17.7889 160.463 19.3137 161.988 18.9749 165.122Z" fill="white"/>
<path d="M10.843 143.098C12.7913 143.86 15.0784 143.86 17.0268 143.86C18.5516 143.86 19.7375 143.437 21.2623 142.335C22.787 140.811 23.2106 139.286 23.2106 137.338C23.2106 134.288 21.6858 131.916 18.2127 131.154C17.0268 130.73 15.502 131.154 13.9772 130.73C13.9772 129.544 13.9772 128.019 13.9772 126.495C13.9772 126.071 13.9772 125.732 13.5537 125.732C12.3677 125.732 11.2665 125.732 10.0806 125.732V126.156V142.335C10.0806 142.759 10.5041 142.759 10.843 143.098ZM13.9772 140.048C13.9772 138.1 13.9772 136.236 13.9772 134.288C13.9772 133.526 13.9772 133.526 14.7396 133.526C16.2644 133.526 17.7892 133.526 18.5516 135.05C19.3139 136.575 19.3139 138.523 18.128 140.048C17.3656 141.234 16.6032 141.234 15.4173 141.234H14.9937C14.3161 141.234 13.9772 140.811 13.9772 140.048Z" fill="white"/>
<path d="M137.23 137.338C136.806 136.914 136.806 136.575 137.23 136.152C138.755 134.627 140.28 133.102 141.466 131.493C141.466 131.493 141.889 131.069 141.889 130.73C140.364 130.73 139.178 130.73 138.077 130.73C137.654 130.73 137.315 131.154 136.891 131.154C135.705 132.679 134.18 133.864 133.079 135.389L132.656 135.813C132.656 135.389 132.656 135.389 132.656 135.05C132.656 132.001 132.656 129.29 132.656 126.156C132.656 125.393 132.656 125.393 131.893 125.393C131.131 125.393 130.369 125.393 129.606 125.393C128.844 125.393 128.844 125.817 128.844 126.156V133.864V142.335C128.844 142.759 128.844 143.098 129.606 143.098H131.893C132.656 143.098 132.656 143.098 132.656 142.335C132.656 140.811 132.656 138.862 132.656 136.914C134.18 138.862 135.705 140.387 137.315 142.335C137.738 143.098 138.501 143.098 139.263 143.098H142.313C142.313 143.098 141.889 143.098 141.889 142.674C140.28 140.811 138.755 139.286 137.23 137.338Z" fill="white"/>
<path d="M107.581 130.815C105.633 130.391 104.108 130.391 102.16 130.815C100.974 130.815 100.212 131.238 99.1105 131.577C99.534 132.34 99.5341 132.763 99.8729 133.102C99.8729 133.526 100.296 133.526 101.059 133.526C102.584 133.102 103.77 133.102 105.294 133.102C106.819 133.102 107.243 133.864 107.243 135.389C106.48 135.389 106.057 135.389 105.294 135.389C103.77 135.813 102.245 136.152 100.635 136.575C99.4493 136.999 98.687 137.761 98.687 139.286C98.2634 141.234 99.4493 142.759 101.398 143.098C104.447 144.284 107.581 143.86 110.631 143.098C111.055 143.098 111.055 142.674 111.055 142.335C111.055 140.048 111.055 137.338 111.055 135.05C110.631 132.763 109.445 131.577 107.581 130.815ZM107.158 140.811L106.819 141.234C105.633 141.234 104.532 141.234 103.346 141.234C102.584 141.234 102.16 140.472 102.16 139.709C102.16 138.947 102.584 138.185 103.346 138.185C104.532 137.761 105.633 137.761 107.158 137.422V140.811Z" fill="white"/>
<path d="M122.575 158.515C119.864 157.753 116.815 158.091 114.104 158.939C113.681 158.939 113.681 159.362 113.681 159.701V170.459C113.681 170.883 113.681 171.222 114.443 171.222H117.154C117.577 171.222 117.916 171.222 117.916 170.459C117.916 168.172 117.916 165.8 117.916 163.174C117.916 160.887 117.916 160.887 120.203 160.887C121.728 160.887 122.49 161.649 122.49 163.174V170.12C122.49 170.544 122.49 170.883 122.914 170.883H126.387C126.387 170.459 126.387 170.12 126.387 169.697C126.387 167.41 126.387 165.038 126.387 162.412C126.048 160.463 124.862 158.939 122.575 158.515Z" fill="white"/>
<path d="M110.631 162.412C110.631 160.463 109.869 158.939 107.92 158.6C104.871 157.837 102.16 158.176 99.0258 159.023C99.4493 159.786 99.7882 160.548 100.212 161.31C100.635 161.31 100.974 160.887 100.974 160.887C102.499 160.887 104.024 160.463 105.21 160.463C106.396 160.463 107.158 161.226 106.734 162.751C105.972 162.751 105.21 162.751 104.447 163.174C102.922 163.598 101.737 163.598 100.212 164.36C99.0258 164.784 97.9246 165.885 97.9246 167.41C97.9246 169.358 99.1105 170.459 100.974 171.222C104.024 171.984 106.734 171.645 109.869 170.798C110.292 170.798 110.631 170.374 110.631 170.036C110.631 167.41 110.631 165.122 110.631 162.412ZM107.158 168.596C105.972 169.019 104.871 169.019 103.685 168.596C102.922 168.172 102.499 167.833 102.499 167.071C102.499 166.308 102.922 165.546 103.685 165.546C104.871 165.122 105.972 165.122 107.497 164.784C107.158 166.224 107.158 167.41 107.158 168.596Z" fill="white"/>
<path d="M168.403 158.515C166.878 158.091 165.354 158.091 163.744 158.515C160.695 159.277 158.746 161.226 158.746 164.699C158.746 167.41 159.932 169.697 162.982 170.883C164.93 171.645 166.794 171.645 168.742 171.306C169.928 171.306 170.69 170.883 171.792 170.544C171.368 169.358 171.029 168.595 170.606 168.257C169.42 168.68 168.319 168.68 167.133 169.019C165.947 169.019 164.845 169.019 163.66 168.257C162.897 167.833 162.474 167.071 162.474 166.308H162.897C165.608 165.885 168.657 165.546 171.368 165.122C171.792 165.122 171.792 164.699 172.13 164.699C172.639 161.649 171.538 159.277 168.403 158.515ZM162.643 163.936C162.643 161.988 163.829 160.887 165.693 160.463C167.641 160.463 168.403 161.226 168.742 163.174C166.455 163.513 164.591 163.936 162.643 163.936Z" fill="white"/>
<path d="M122.575 130.815C119.865 130.053 117.154 130.391 114.104 131.238C113.681 131.238 113.342 131.662 113.342 132.001V142.759V143.521H117.154C117.154 140.811 117.154 137.761 117.154 135.05C117.154 133.526 116.73 133.526 118.679 133.526C120.966 133.102 121.728 133.949 121.728 136.236V142.759C121.728 143.183 121.728 143.521 122.491 143.521H125.54C125.54 143.098 125.54 142.759 125.54 142.335C125.54 140.048 125.54 137.676 125.54 135.05C126.049 132.763 124.863 131.577 122.575 130.815Z" fill="white"/>
<path d="M46.6752 143.945C50.9107 143.945 53.1979 141.234 53.1979 137.422C53.1979 133.61 50.4872 130.9 46.2517 130.9C42.0162 130.9 39.729 133.61 39.729 137.422C39.729 141.234 42.4397 143.945 46.6752 143.945ZM43.9645 135.05C44.388 133.864 45.1504 133.102 46.6752 133.102C47.8612 133.102 48.9624 133.864 49.3859 135.05C49.8095 135.813 49.8095 136.236 49.8095 136.999C49.8095 137.761 49.8095 138.185 49.3859 138.947C48.9624 140.133 48.2 140.895 46.6752 140.895C45.1504 140.895 44.388 140.472 43.9645 138.947C43.6257 137.761 43.6257 136.575 43.9645 135.05Z" fill="white"/>
<path d="M48.9623 158.515C47.7763 158.091 47.014 158.091 45.9127 158.091C43.9644 158.091 42.1008 159.277 41.2537 160.802C39.7289 163.089 39.7289 165.8 41.2537 168.087C42.4396 170.374 44.7268 171.137 47.014 171.137C50.8259 171.137 53.1978 169.188 53.5366 165.715C53.6213 162.751 52.4354 159.277 48.9623 158.515ZM49.3858 166.647C48.9623 168.172 48.1999 168.596 46.6751 168.596C45.1503 168.596 44.388 167.833 43.9644 166.647C43.9644 166.224 43.5409 165.461 43.5409 164.699C43.5409 163.936 43.5409 163.513 43.9644 162.751C44.388 161.226 45.1503 160.802 46.6751 160.802C48.1999 160.802 48.9623 161.565 49.3858 162.751C49.8094 163.936 49.8094 165.461 49.3858 166.647Z" fill="white"/>
<path d="M156.459 159.277C156.459 158.854 156.459 158.854 156.459 158.515C155.273 158.515 153.748 158.515 152.647 158.515V159.277V166.224C152.647 168.511 152.647 168.511 150.36 168.511C148.835 168.511 148.073 167.748 148.073 166.224C148.073 163.936 148.073 161.565 148.073 159.277C148.073 158.854 148.073 158.515 147.649 158.515C146.463 158.515 145.362 158.515 144.176 158.515V167.41C144.176 169.358 145.362 170.459 147.226 171.222C149.937 171.984 152.986 171.645 155.697 170.798C156.12 170.798 156.12 170.374 156.12 170.036C156.459 166.224 156.459 162.751 156.459 159.277Z" fill="white"/>
<path d="M63.6171 136.999C62.8547 136.575 61.6688 136.236 60.9064 135.813C60.4829 135.389 59.7205 135.389 59.3816 135.05C58.6192 134.627 58.6192 133.526 59.3816 133.102C60.144 132.679 60.9064 132.679 61.33 132.679C62.0923 132.679 62.8547 133.102 63.6171 133.102C64.0407 132.34 64.3795 131.577 64.8031 130.815C63.6171 130.391 62.5159 130.053 60.9911 130.053C59.4663 129.629 57.9416 130.053 56.3321 130.815C54.0449 132.001 54.0449 135.05 56.3321 136.575L58.6192 137.761C59.3816 138.185 59.8052 138.185 60.5676 138.524C60.9911 138.947 61.33 139.286 61.33 139.709C61.33 140.133 60.9064 140.472 60.5676 140.895C59.8052 141.319 59.3816 141.319 58.6192 140.895C57.8569 140.895 56.6709 140.472 55.9085 140.133C55.485 140.895 55.1461 141.658 54.7226 142.844C56.2474 143.267 57.4333 143.606 58.5345 143.606C60.4829 144.03 62.0076 143.606 63.956 142.844C65.989 141.573 66.3278 138.524 63.6171 136.999Z" fill="white"/>
<path d="M64.0407 164.699C63.2784 164.275 62.8548 163.936 62.0924 163.936C61.33 163.513 60.5676 163.513 60.1441 163.174C59.7205 162.751 59.3817 162.412 59.3817 161.988C59.3817 161.565 60.1441 161.226 60.5676 160.802H61.7536C62.516 160.802 63.7019 161.226 64.4643 161.226C64.8878 160.463 65.2267 159.701 65.6502 158.939C64.4643 158.515 63.3631 158.176 62.6007 158.176C60.6523 157.753 59.1276 157.753 57.1792 158.939C54.8921 160.125 54.8921 163.174 57.1792 164.699C57.9416 165.122 58.704 165.461 59.89 165.885C60.3135 166.308 61.0759 166.308 61.4147 166.647C61.8383 167.071 62.1771 167.41 62.1771 167.833C62.1771 168.257 61.7536 168.596 61.4147 168.596C60.9912 169.019 60.2288 169.019 59.89 169.019C58.704 169.019 57.9416 168.595 56.8404 168.257C56.4169 169.019 56.078 169.781 55.6545 170.544L56.078 170.967C58.0263 171.73 60.3135 171.73 62.6007 171.73C63.3631 171.73 64.549 171.306 64.8878 170.967C65.9891 168.934 65.9891 165.885 64.0407 164.699Z" fill="white"/>
<path d="M74.7989 160.887C75.2225 160.887 75.2225 160.463 75.2225 160.463C75.2225 159.701 75.2225 159.277 75.2225 158.176C74.0365 158.176 73.2741 158.176 72.5118 158.176C72.5118 156.99 72.5118 155.889 72.5118 154.364C71.3258 154.788 70.5634 154.788 69.801 155.127H69.3775C69.3775 155.127 68.9539 155.55 68.9539 155.889V158.176C68.1916 158.176 67.768 158.176 67.0056 158.176V160.463C67.0056 160.887 68.1916 160.463 68.5304 160.887H68.9539V161.649V167.071C68.9539 169.019 69.7163 170.12 71.2411 170.544C72.427 170.967 73.9518 170.967 75.0531 170.544L75.4766 170.12C75.4766 169.358 75.4766 168.595 75.4766 167.833C75.0531 167.833 75.0531 167.833 75.0531 167.833C73.1047 168.257 72.7659 167.41 72.7659 165.885C72.7659 165.461 72.7659 165.122 72.7659 165.122C72.7659 163.598 72.7659 162.412 72.7659 160.887H74.7989Z" fill="white"/>
<path d="M68.2765 133.526C68.6153 133.526 68.6153 133.526 68.2765 133.526C68.7 133.949 68.7 134.288 68.7 134.712V140.133C68.7 142.081 69.4624 143.183 70.9872 143.606C72.1731 144.03 73.6979 143.606 74.7991 143.606L75.2227 143.183C75.2227 142.42 75.2227 141.658 75.2227 140.895C74.7991 140.895 74.7991 140.895 74.4603 140.895C72.9355 141.319 72.512 140.472 72.512 139.371C72.512 138.185 72.512 137.083 72.512 135.898C72.512 135.135 72.512 134.373 72.512 133.61H75.2227C75.2227 132.848 75.2227 132.086 75.2227 131.323C74.4603 131.323 73.2744 131.323 72.512 131.323C72.512 130.137 72.512 129.036 72.512 127.511C72.0884 127.511 71.7496 127.511 70.9872 127.935C70.2248 127.935 69.4624 128.358 69.0389 128.358C69.0389 128.358 68.6153 128.782 68.6153 129.121V131.408C67.8529 131.408 67.4294 131.408 66.667 131.408C66.7517 133.102 66.7517 133.102 68.2765 133.526Z" fill="white"/>
<path d="M114.528 57.202C117.577 57.202 120.288 56.0161 122.999 54.4913C131.893 49.4934 138.755 42.1237 143.837 33.3138C144.261 32.5514 144.6 31.7891 145.023 31.0267C144.6 31.0267 144.6 31.0267 144.6 31.0267C133.079 34.4998 121.897 37.9729 110.292 41.446C109.869 41.446 109.53 41.8695 109.53 42.2084C108.344 44.9191 107.582 47.6298 107.243 50.2558C107.582 54.1525 109.445 57.202 114.528 57.202Z" fill="#BC001B"/>
<path d="M29.3943 137.338V140.387C29.3943 140.811 29.3943 140.811 29.8178 141.15C31.3426 141.912 33.6298 141.15 34.0533 139.201C34.4769 138.439 34.4769 137.676 34.4769 136.914C34.4769 134.203 32.9521 133.102 30.2414 133.441C29.8178 133.441 29.479 133.864 29.479 134.203V134.966L29.3943 137.338Z" fill="#264797"/>
<path d="M29.3943 137.338C29.3943 136.575 29.3943 135.813 29.3943 135.05V137.338V140.387C28.9707 139.286 29.3943 138.1 29.3943 137.338Z" fill="black"/>
<path d="M29.7331 160.887C29.3095 160.887 28.9707 161.31 28.9707 161.649V162.412V164.699V166.986V167.748C28.9707 168.172 28.9707 168.511 29.3943 168.511C30.5802 168.934 32.4438 168.511 33.2062 167.325C33.9686 166.139 34.3921 163.513 33.6297 162.327C32.8674 160.887 31.2579 160.887 29.7331 160.887Z" fill="#264797"/>
<path d="M137.569 164.699C137.569 164.275 137.569 164.275 137.569 163.936C137.569 163.174 137.569 162.412 137.569 161.649C137.569 161.226 137.145 160.887 137.145 160.887C134.858 160.125 132.91 161.31 132.486 163.598V165.122C132.486 167.833 134.435 168.934 137.145 168.596C137.569 168.596 137.908 168.172 137.908 167.833C137.908 167.494 137.908 166.647 137.908 166.308C137.569 165.885 137.569 165.122 137.569 164.699Z" fill="#264797"/>
<path d="M88.6911 160.887C87.9287 160.887 87.9287 161.31 87.9287 161.649V164.699V167.748C87.9287 168.172 87.9287 168.511 88.3523 168.511C89.5382 168.934 91.4018 168.511 92.1642 167.748C93.3501 166.562 93.689 164.275 92.5878 162.327C91.7407 161.226 90.6394 160.463 88.6911 160.887Z" fill="#264797"/>
<path d="M87.9289 136.999V139.286V140.048C87.9289 140.472 87.9289 140.811 88.3525 140.811C89.5384 141.234 91.402 140.811 92.1644 139.625C92.9268 138.439 93.3504 135.813 92.1644 134.627C91.402 133.102 89.8773 133.102 88.3525 133.102C87.9289 133.102 87.5901 133.526 87.5901 133.864V134.627C87.9289 135.474 87.9289 136.236 87.9289 136.999Z" fill="#264797"/>
<path d="M14.7394 160.887C14.3159 160.887 13.9771 161.31 13.9771 161.649V167.833C13.9771 168.595 14.4006 168.596 14.7394 168.596H15.163C17.4502 168.596 18.6361 167.41 18.9749 165.122C19.3138 161.988 17.789 160.463 14.7394 160.887Z" fill="#264797"/>
<path d="M15.0783 141.234H15.5018C16.6878 141.234 17.789 141.234 18.2126 140.048C19.3985 138.524 19.3985 136.575 18.6361 135.05C17.8737 133.526 16.3489 133.526 14.8242 133.526C14.0618 133.526 14.0618 133.949 14.0618 134.288V140.048C13.9771 140.811 14.3159 141.234 15.0783 141.234Z" fill="#264797"/>
<path d="M103.346 138.1C102.584 138.1 102.16 138.862 102.16 139.625C102.16 140.387 102.584 141.149 103.346 141.149H106.819L107.243 140.726C107.243 139.54 107.243 138.439 107.243 137.253C105.633 137.761 104.447 137.761 103.346 138.1Z" fill="#264797"/>
<path d="M102.16 167.41C102.16 168.172 102.923 168.596 103.346 168.934C104.532 169.358 105.633 169.358 106.819 168.934C106.819 167.748 106.819 166.647 106.819 165.122C105.633 165.546 104.108 165.546 103.007 165.885C102.584 165.885 102.16 166.224 102.16 167.41Z" fill="#264797"/>
<path d="M165.692 160.463C163.744 160.463 162.643 161.988 162.643 163.936C164.591 163.513 166.455 163.513 168.403 163.174C168.403 161.226 167.217 160.463 165.692 160.463Z" fill="#264797"/>
<path d="M46.6754 141.234C47.8613 141.234 48.9625 140.472 49.3861 139.286C49.3861 138.524 49.8096 138.1 49.8096 137.338C49.8096 136.575 49.3861 135.813 49.3861 135.389C48.9625 134.203 48.2001 133.441 46.6754 133.441C45.4894 133.441 44.3882 134.203 43.9646 135.389C43.5411 136.575 43.5411 138.1 43.9646 139.201C44.3882 140.472 45.1506 141.234 46.6754 141.234Z" fill="#264797"/>
<path d="M46.6753 160.887C45.1505 160.887 44.3881 161.649 43.9646 162.835C43.9646 163.598 43.541 164.021 43.541 164.784C43.541 165.546 43.541 165.97 43.9646 166.732C44.3881 168.257 45.1505 168.68 46.6753 168.68C48.2001 168.68 48.9624 167.918 49.386 166.732C49.8095 165.546 49.8095 164.445 49.386 162.92C48.9624 161.649 47.8612 160.887 46.6753 160.887Z" fill="#264797"/>
</svg>
