<?xml version="1.0" encoding="utf-8"?>
<!-- Generator: Adobe Illustrator 25.3.1, SVG Export Plug-In . SVG Version: 6.00 Build 0)  -->
<!DOCTYPE svg PUBLIC "-//W3C//DTD SVG 1.1//EN" "http://www.w3.org/Graphics/SVG/1.1/DTD/svg11.dtd" [
	<!ENTITY ns_extend "http://ns.adobe.com/Extensibility/1.0/">
	<!ENTITY ns_ai "http://ns.adobe.com/AdobeIllustrator/10.0/">
	<!ENTITY ns_graphs "http://ns.adobe.com/Graphs/1.0/">
	<!ENTITY ns_vars "http://ns.adobe.com/Variables/1.0/">
	<!ENTITY ns_imrep "http://ns.adobe.com/ImageReplacement/1.0/">
	<!ENTITY ns_sfw "http://ns.adobe.com/SaveForWeb/1.0/">
	<!ENTITY ns_custom "http://ns.adobe.com/GenericCustomNamespace/1.0/">
	<!ENTITY ns_adobe_xpath "http://ns.adobe.com/XPath/1.0/">
]>
<svg version="1.1" id="Layer_1" xmlns:x="&ns_extend;" xmlns:i="&ns_ai;" xmlns:graph="&ns_graphs;"
	 xmlns="http://www.w3.org/2000/svg" xmlns:xlink="http://www.w3.org/1999/xlink" x="0px" y="0px" viewBox="0 0 512 512"
	 style="enable-background:new 0 0 512 512;" xml:space="preserve">
<style type="text/css">
	.st0{fill-rule:evenodd;clip-rule:evenodd;fill:#F4C00E;}
	.st1{fill-rule:evenodd;clip-rule:evenodd;fill:#E65A2B;}
	.st2{fill-rule:evenodd;clip-rule:evenodd;fill:#009AD8;}
</style>
<metadata>
	<sfw  xmlns="&ns_sfw;">
		<slices></slices>
		<sliceSourceBounds  bottomLeftOrigin="true" height="373.4" width="464.8" x="23.6" y="69.3"></sliceSourceBounds>
	</sfw>
</metadata>
<g>
	<path class="st0" d="M148.5,261.9c3.9,2.7,3.7,8.2,7.3,10.9l1.8,12.2l-9.1,12.9c-11.2,5.9-27.7,8.4-38.1-1
		c-5.5-5.3-7.8-13.1-5.9-20.5l4.1-11.1c2.3-1.5,5.5-1.9,7.3-4.7c6-2.4,12.3-3.8,18.7-4C139.4,258,146.5,255.5,148.5,261.9"/>
	<path class="st1" d="M119.6,333.2c3.5,0,6,2.5,9.4,1.9c4.7,1.8,4.1,7.3,9,8.9c3.5,7.5,6.2,15.3,8,23.4c-1.4,4.7,2.5,7.3,1.2,11.7
		l1.3,0.7c0.3,4.7-0.4,9.5-2.1,13.9c-0.2,7.8-2.6,15.4-6.9,22c-2.6,1.5-3.7,6-7.3,5.2c-6.3,2-6.9,11.3-14.6,10.2
		c-4.9,3.7-11.5,1.6-17.4,1.8c-3.3-1.8-8-1.3-10.3-4.3c-5.9-2.8-11.4-6.5-16.2-11c-2-4.3-6.5-6.2-7.3-11.1c1.7-5.9-2-11.1-0.4-17
		l-1.2-9.8l3.7-16.8c6.2-3.3,4.5-10.9,10.8-13.2c3.9-9,13.2-10.9,20.5-15.5c2.7-0.5,6.1,1,8.2-1.5c3.9-0.7,7.3,3.4,11.1,0"/>
	<path class="st2" d="M438.2,73c-1.5,27.6-24.2,46.1-36.2,69.4c-5.1,13.8-17.1,22-25.8,34.6c-8,8-15.3,16.6-22,25.8
		c1.2,6.4,8,8.2,11.9,12.9c8.8,5.3,9.8,15.2,17.4,21.3c4.5,0,4.5,6.7,9.4,5.9c9.9,11,19,22.6,27.4,34.8c1.2,4.5,3.8,8.6,7.3,11.7
		c6.8,10,12.5,20.5,19.5,30.7c1,11.4,10.5,19,13.5,29.3c4.3,5.6,6,12.2,10,17.9c6.1,13.3,10.2,27.2,17.4,39.9c0.9,2.8,0.1,5.9-2,8.1
		c-2.8,2.1-4.9-1.8-8.1-1.2c-16.1-6.2-31.5-14-46-23.2c-15.2-12.3-32.1-21.1-47.1-34c-5.9-1.6-8.2-8.4-13.7-11.2
		c-14.6-8.9-26-22-40.6-30.2c-6.7-5.1-13.3-9.9-19.9-15.2c-5.1-0.6-6.9-6.4-11.7-8.2c-11-6.7-20.9-15.8-32.1-22c-1,1.6,0,3.9-1,5.5
		c-7.3,7.3-5.5,18.4-10.8,26.4c0,11.6-8.2,19.9-11.6,30.1c-9.2,16.4-17.2,33.2-26.7,49.4c-12.7,16.8-19.5,37.1-37.5,50.6
		c-3.8,4.4-8.3,8.1-13.3,11c-2.2-0.7-5.3,0-5.8-3c-2.2-4,0.6-10.3-2.3-14.1c1.4-6,2.1-12.1,2.1-18.3l-1-2.8c0-8.6,4.5-15.8,2.7-24.6
		c2.2-5.6,3.5-11.5,3.9-17.6c3-7.5,5-15.4,5.9-23.5c2.5-5,3.5-10.6,2.9-16.2c2-5,2.3-11.1,7.3-14.6c0.8-3.3,0-6.6,0.6-10.2
		c5.3-16,11.7-31.4,15.8-47.8c0-1.2-1.2-1.6-2-1.8c-11.5-0.6-22,1.8-33-1.2c-17.5-0.3-35-2.4-52.1-6.1c-6.8-1.4-15.1-0.6-21.3-4.5
		c-4.3,0.7-8.6,0.3-12.7-1.2c-8-4-17.8-3.4-25.8-7.3c-6.1,0.7-10.4-3.1-15.9-3.7c-5.5-0.6-8.2-4.1-11.9-7.3v-1.8
		c9.7-13.3,25.4-17,39.5-22c14.1-5,29.3-4.7,43.9-7.3c9.1-1.5,19.2,1,28.3-0.6c16.6,0,32.6,3.1,49,3.5c5.2,1.5,10.6,2.6,16,3.1v-2.4
		l-15.2-22c-5.8-13.6-16.5-25.1-20.3-39.6c-3.5-4.3,0-10.8-2.9-15.4c0-2.1,1.5-3.7,2.5-5.4c3.4-1.4,7.3,1,10.4-1.2
		c9.9,2.3,19.1,5.9,29.3,7.8c10.7,3.6,20.8,8.7,30.1,15.1c11.6,8.2,25.4,13.5,34.4,26.1c2.6,2,6,2.7,9.1,1.8c2.8,0,3.4-3.7,5.9-4.7
		c12.2-7.3,25.8-11.9,37.7-20.3c4.9-4.9,12.7-5.5,15.7-12.1c3.5-2,7.1-3.7,10.9-5.1c6.4-5.1,13.2-9.8,20.3-14.1
		c3.8-0.7,7.3-2.3,10.2-4.8c12.1-6.6,24.8-12.1,36.6-19.7c2.6-6.8,10.2-5.3,15.7-6.8c2.7,0.6,6.4,0,7.3,3.7"/>
</g>
</svg>
