<?xml version="1.0" encoding="utf-8"?>
<!-- Generator: Adobe Illustrator 25.3.1, SVG Export Plug-In . SVG Version: 6.00 Build 0)  -->
<!DOCTYPE svg PUBLIC "-//W3C//DTD SVG 1.1//EN" "http://www.w3.org/Graphics/SVG/1.1/DTD/svg11.dtd" [
	<!ENTITY ns_extend "http://ns.adobe.com/Extensibility/1.0/">
	<!ENTITY ns_ai "http://ns.adobe.com/AdobeIllustrator/10.0/">
	<!ENTITY ns_graphs "http://ns.adobe.com/Graphs/1.0/">
	<!ENTITY ns_vars "http://ns.adobe.com/Variables/1.0/">
	<!ENTITY ns_imrep "http://ns.adobe.com/ImageReplacement/1.0/">
	<!ENTITY ns_sfw "http://ns.adobe.com/SaveForWeb/1.0/">
	<!ENTITY ns_custom "http://ns.adobe.com/GenericCustomNamespace/1.0/">
	<!ENTITY ns_adobe_xpath "http://ns.adobe.com/XPath/1.0/">
]>
<svg version="1.1" id="Layer_1" xmlns:x="&ns_extend;" xmlns:i="&ns_ai;" xmlns:graph="&ns_graphs;"
	 xmlns="http://www.w3.org/2000/svg" xmlns:xlink="http://www.w3.org/1999/xlink" x="0px" y="0px" viewBox="0 0 512 512"
	 style="enable-background:new 0 0 512 512;" xml:space="preserve">
<style type="text/css">
	.st0{fill:#EC1C24;}
</style>
<metadata>
	<sfw  xmlns="&ns_sfw;">
		<slices></slices>
		<sliceSourceBounds  bottomLeftOrigin="true" height="466.4" width="465.6" x="23.2" y="22.8"></sliceSourceBounds>
	</sfw>
</metadata>
<g>
	<g>
		<g>
			<g>
				<path class="st0" d="M256,22.8L256,22.8C127.2,22.8,23.2,127,23.2,256c0,128.6,104.1,233.2,232.8,233.2
					c128.4,0,232.8-104.6,232.8-233.2C488.8,127,384.4,22.8,256,22.8z M338.7,410.4L338.7,410.4c-13.5,0-25.4-6.9-33-20.1
					l-41.1-74.6l-28.3,28.1v29.7c0,22.4-14.8,36.9-34.6,36.9c-20.4,0-34.9-14.5-34.9-36.9V119.8c0-22.1,14.5-36.9,34.9-36.9
					c19.8,0,34.6,14.8,34.6,36.9v136.5l72.1-74.2c8.9-8.6,19.4-13.5,29.6-12.5c17.1,1.7,30.3,15.5,28.6,33.7
					c-0.7,8.6-4.3,15.8-9.9,21.4L314,266.9l51.7,89.4c4,7.6,5.9,14.5,5.9,21.1C371.6,395.2,358.1,410.4,338.7,410.4z"/>
			</g>
			<g>
				<path class="st0" d="M201.3,364.2L201.3,364.2c-6.6,0-11.5,5.3-11.5,11.9c0,6.3,5,11.5,11.5,11.5c6.2,0,11.5-5.3,11.5-11.5
					C212.8,369.5,207.6,364.2,201.3,364.2z"/>
			</g>
			<g>
				<path class="st0" d="M335.4,212.5L335.4,212.5c6.6,0,11.9-5.3,11.9-11.6c0-6.6-5.3-11.9-11.9-11.9c-6.3,0-11.5,5.3-11.5,11.9
					C323.8,207.2,329.1,212.5,335.4,212.5z"/>
			</g>
			<g>
				<path class="st0" d="M201.3,105.9L201.3,105.9c-6.3,0-11.5,5.3-11.5,11.5c0,6.6,5.3,11.9,11.5,11.9c6.6,0,11.5-5.3,11.5-11.9
					C212.8,111.2,207.9,105.9,201.3,105.9z"/>
			</g>
			<g>
				<path class="st0" d="M337,364.5L337,364.5c-6.2,0-11.5,5.3-11.5,11.5s5.3,11.5,11.5,11.5c6.6,0,11.5-5.3,11.5-11.5
					S343.6,364.5,337,364.5z"/>
			</g>
		</g>
	</g>
</g>
</svg>
