<svg width="200" height="200" viewBox="0 0 200 200" fill="none" xmlns="http://www.w3.org/2000/svg">
<rect width="200" height="200" fill="white"/>
<path d="M170.483 54.1899L120.702 103.851L120.822 22.5584V22.1197L100.16 42.702L79.0985 22V103.013L29.4376 54.509L29.1185 54.2298V83.5477H0L65.1376 147.888L65.6562 148.446C70.722 153.831 75.5485 158.937 78.0215 169.746C78.5002 172.698 78.8193 175.69 78.8991 178.681V178.841H87.515V178.681C87.515 175.73 87.2357 172.778 86.7571 169.866C85.0419 159.854 80.1755 150.68 72.876 143.619L54.0487 124.872H65.2573L77.3434 136.639C80.375 139.71 83.1272 143.021 85.6402 146.491C87.1161 148.526 88.3925 150.68 89.3897 152.993C92.0622 158.298 93.8971 163.962 94.7746 169.826C95.0937 172.778 95.2533 175.73 95.2533 178.721V178.881H103.909V178.721C104.029 175.769 103.869 172.778 103.43 169.826C102.114 159.535 98.3247 149.682 92.4212 141.146C90.2274 138.075 87.7942 135.203 85.1217 132.531L70.7619 118.29V107.042L91.3841 127.106C97.5668 133.687 102.593 141.306 106.143 149.643C109.015 156.065 110.89 162.886 111.608 169.866L112.086 178.761H120.622V178.602C120.622 178.602 120.941 172.698 121.42 170.424C121.899 168.071 122.617 165.718 123.534 163.484C127.443 154.11 132.27 149.363 152.732 129.539L161.268 121.202C170.004 112.666 179.138 103.811 186.438 96.6709C192.94 90.4085 198.006 85.4623 199.681 83.787L200 83.4679H170.562V54.1899H170.483ZM128.64 107.919V118.57L109.852 137.676L105.225 130.815L128.64 107.919ZM112.405 89.0921V111.908L104.388 119.487V96.7507L112.405 89.0921ZM112.405 65.5979V76.7268L104.388 84.4252V73.5357L112.405 65.5979ZM104.388 61.1703V50.1611L112.405 42.4627V53.5517L104.388 61.1703ZM143 116.296L150.897 108.438H162.186L154.208 116.256L143 116.296ZM137.136 99.0642L144.954 91.2461L145.114 102.295L137.256 110.113L137.136 99.0642ZM134.025 124.872H145.513C143.957 126.507 136.019 134.445 130.634 139.471C122.218 147.289 118.668 153.512 117.431 156.065L114.24 146.571C114.36 144.736 128.6 130.377 134.184 124.912H134.025V124.872ZM161.787 74.493V85.6219L153.57 93.7591V82.6302L161.787 74.493ZM178.859 92.0838L171.161 99.9019H159.473L167.611 92.0838H178.859ZM95.6921 96.7507V119.447L87.9138 111.908V89.0921L95.6921 96.7507ZM95.6921 73.6155V84.5449L87.9138 76.8464V66.1165L95.6921 73.6155ZM95.6921 50.201V61.2102L87.9138 53.5118V42.3829L95.6921 50.201ZM56.4819 116.296H45.6721L37.6945 108.438H48.6637L56.4819 116.296ZM37.9737 85.582V74.493L45.9114 82.0718V93.7591L37.9737 85.582ZM40.1276 99.862H29.0387L20.9813 92.0439H31.9904L40.1276 99.862ZM62.3454 98.426V109.754L54.4874 102.016V90.7276L62.3454 98.426Z" fill="#F8CE46"/>
</svg>
