<?xml version="1.0" encoding="utf-8"?>
<!-- Generator: Adobe Illustrator 25.3.1, SVG Export Plug-In . SVG Version: 6.00 Build 0)  -->
<!DOCTYPE svg PUBLIC "-//W3C//DTD SVG 1.1//EN" "http://www.w3.org/Graphics/SVG/1.1/DTD/svg11.dtd" [
	<!ENTITY ns_extend "http://ns.adobe.com/Extensibility/1.0/">
	<!ENTITY ns_ai "http://ns.adobe.com/AdobeIllustrator/10.0/">
	<!ENTITY ns_graphs "http://ns.adobe.com/Graphs/1.0/">
	<!ENTITY ns_vars "http://ns.adobe.com/Variables/1.0/">
	<!ENTITY ns_imrep "http://ns.adobe.com/ImageReplacement/1.0/">
	<!ENTITY ns_sfw "http://ns.adobe.com/SaveForWeb/1.0/">
	<!ENTITY ns_custom "http://ns.adobe.com/GenericCustomNamespace/1.0/">
	<!ENTITY ns_adobe_xpath "http://ns.adobe.com/XPath/1.0/">
]>
<svg version="1.1" id="Layer_1" xmlns:x="&ns_extend;" xmlns:i="&ns_ai;" xmlns:graph="&ns_graphs;"
	 xmlns="http://www.w3.org/2000/svg" xmlns:xlink="http://www.w3.org/1999/xlink" x="0px" y="0px" viewBox="0 0 512 512"
	 style="enable-background:new 0 0 512 512;" xml:space="preserve">
<style type="text/css">
	.st0{fill:#D22F2F;}
	.st1{fill:#004879;}
</style>
<metadata>
	<sfw  xmlns="&ns_sfw;">
		<slices></slices>
		<sliceSourceBounds  bottomLeftOrigin="true" height="175.9" width="490" x="11" y="168.1"></sliceSourceBounds>
	</sfw>
</metadata>
<g id="layer1" transform="translate(-22.831581,-363.86163)">
	<path id="path4637" class="st0" d="M503.3,548.3c-32.9-36.3-244.5-3.6-334.5,16l-2.1,0.5c-0.4,0.1-0.7,0.5-0.6,0.9
		c0.1,0.4,0.5,0.7,0.9,0.6l2.1-0.4c74.6-13.3,229.6-31.7,263,1.4c10.2,10.1,7.7,23.1-4.1,38.4c6.4,4.1,10.9,10.5,12.9,18.6
		C487,593.6,518,564.4,503.3,548.3 M366.4,659.1C366.4,659.1,366.3,659.2,366.4,659.1c-20.9,14.8-45.6,30.3-72.2,46.6l-1.1,0.6
		c-0.4,0.3-0.4,0.7-0.2,1.1c0.2,0.4,0.7,0.4,1.1,0.2l0.9-0.5c22.6-11.8,48.5-25.7,74.5-40.1c0.1-0.1,0.3-0.2,0.4-0.2
		C368.4,664.5,367.2,662,366.4,659.1"/>
	<g id="g5670" transform="translate(1.0000173,-1.0001277)">
		<g id="g4639" transform="matrix(4.3243504,0,0,-4.3243504,-63.655427,3704.564)">
			<g>
				<g id="g4641">
					<g id="g4647" transform="translate(97.4864,745.0146)">
						<path id="path4649" class="st1" d="M2.3-38.6c-0.2,5,3.8,10.2,9.5,10.2c3.8,0,6.3-2.6,6.5-6.5c0.2-5.3-3.5-10.2-9.5-10.2
							C5-45.1,2.5-42.6,2.3-38.6 M4.8-38.8c0.1-3,2-5.4,4.4-5.4c4.7,0,6.7,5.8,6.6,9.7c-0.1,3-2,5.4-4.4,5.4
							C7.3-29.1,4.7-34.9,4.8-38.8"/>
					</g>
					<g id="g4651" transform="translate(48.167,749.4442)">
						<path id="path4653" class="st1" d="M2.3-38.6c0-0.5-0.1-0.9-0.2-1.6l-0.8-4.7c-0.1-0.4,0.1-0.8,0.5-1l0-0.2l-4.8,0l0,1.2
							c-0.7-0.4-1.6-0.8-2.3-1c-0.8-0.2-1.4-0.3-2.3-0.3c-1.6,0-2.5,0.2-3.1,0.7c-0.6,0.6-0.9,0.9-0.9,1.7c0,0.4,0.3,1,0.6,1.4
							c0.3,0.4,0.8,0.7,1.3,0.9c0.5,0.2,1.1,0.4,1.9,0.5c0.9,0.1,2,0.3,3.6,0.4c0.8,0.1,1.3,0.3,1.6,0.4c0.3,0.1,0.5,0.3,0.5,0.5
							c0.1,0.5-0.1,0.8-0.7,0.9c-1.7,0.3-5-0.2-6.7-0.6l0.9,2.5c2.2,0.3,4.3,0.5,6.5,0.5C1.2-36.4,2.3-37.4,2.3-38.6 M-2.7-41.7
							c-0.2-0.1-0.5-0.2-0.8-0.2c-0.3-0.1-0.9-0.2-1.8-0.3c-0.6-0.1-1-0.2-1.2-0.4c-0.2-0.2-0.4-0.4-0.4-0.6c0-0.3,0-0.5,0.3-0.6
							c0.2-0.2,0.6-0.2,1.2-0.2c0.4,0,0.8,0.1,1.2,0.2c0.4,0.1,0.7,0.3,1,0.5c0.2,0.2,0.3,0.4,0.4,0.6C-2.9-42.7-2.8-42.3-2.7-41.7"
							/>
					</g>
					<g id="g4655" transform="translate(64.0913,753.6204)">
						<path id="path4657" class="st1" d="M2.3-38.6c0.1,0.8,1.4,1.4,2.7,1.4c1.4,0,2.4-0.6,2.2-1.4C7.1-39.4,5.9-40,4.5-40
							C3.2-40,2.2-39.4,2.3-38.6 M0.4-50.3l1.7,9.5h4.6L5-50.3C5-50.3,0.4-50.3,0.4-50.3z"/>
					</g>
				</g>
			</g>
		</g>
		<g id="g4659" transform="matrix(4.3243504,0,0,-4.3243504,-63.655427,3704.564)">
			<g>
				<g id="g4661">
					<g id="g4667" transform="translate(89.854,749.426)">
						<path id="path4669" class="st1" d="M2.3-38.6c0-0.5-0.1-0.9-0.2-1.6l-0.8-4.7c-0.1-0.4,0.1-0.7,0.5-1l0-0.2l-4.8,0l0,1.2
							c-0.7-0.4-1.6-0.8-2.3-1c-0.8-0.2-1.4-0.3-2.3-0.3c-1.6,0-2.4,0.2-3.1,0.7c-0.6,0.6-0.9,0.9-0.9,1.7c0,0.4,0.2,1,0.6,1.4
							c0.3,0.4,0.8,0.7,1.3,0.9c0.5,0.2,1.1,0.4,1.9,0.5c0.9,0.1,2.1,0.3,3.6,0.4c0.8,0.1,1.3,0.3,1.6,0.3c0.3,0.1,0.5,0.3,0.5,0.5
							c0.1,0.5-0.1,0.8-0.7,0.9c-1.7,0.3-5-0.2-6.7-0.6l0.9,2.5c2.2,0.3,4.3,0.5,6.5,0.5C1.2-36.4,2.3-37.4,2.3-38.6 M-2.7-41.7
							c-0.2-0.1-0.5-0.1-0.8-0.2c-0.3-0.1-0.9-0.2-1.8-0.3c-0.6-0.1-1-0.2-1.2-0.4c-0.2-0.2-0.4-0.4-0.4-0.6c0-0.3,0-0.5,0.3-0.6
							c0.2-0.2,0.6-0.2,1.2-0.2c0.4,0,0.8,0.1,1.2,0.2c0.4,0.1,0.7,0.3,1,0.5c0.2,0.2,0.3,0.4,0.4,0.6C-2.9-42.7-2.8-42.3-2.7-41.7"
							/>
					</g>
					<g id="g4671" transform="translate(33.4436,745.3742)">
						<path id="path4673" class="st1" d="M2.3-38.6C0.8-38.9,0-39-1.5-39c-2.2,0-4,1.1-3.9,3.1c0.1,1.3,1.7,4.2,5.7,4.2
							c1.3,0,2.3-0.2,3.6-1l0.6,3.3c-1.8,0.7-3,0.8-4.6,0.8c-5.3-0.1-10.4-2.5-11-7.3c-0.6-5,5.4-6.2,8.1-6.2c1.6,0,3.2,0.1,4.7,0.2
							L2.3-38.6z"/>
					</g>
				</g>
			</g>
		</g>
		<g id="g4683" transform="matrix(4.3243504,0,0,-4.3243504,243.39161,454.87614)">
			<path id="path4685" class="st1" d="M2.3-38.6l0.3,1.9l4.8,1.1l-0.5-3h2.4l-0.4-1.9l-2.3,0l-1.4-7.6c0,0-4.7,0-4.7,0l1.4,7.6H0.2
				l0.4,1.9H2.3z"/>
		</g>
		<g id="g4687" transform="matrix(4.3243504,0,0,-4.3243504,345.19505,495.97259)">
			<path id="path4689" class="st1" d="M2.3-38.6l-4.7,0L0-25.4l4.6-0.1L2.3-38.6z"/>
		</g>
		<g id="g4691" transform="matrix(4.3243504,0,0,-4.3243504,142.31511,510.11841)">
			<path id="path4693" class="st1" d="M2.3-38.6L4.6-26h4.1l-0.3-1.6c0.4,0.5,0.9,0.9,1.7,1.2c0.8,0.3,1.7,0.6,2.6,0.6
				c1.1,0,1.7-0.1,2.5-0.5c0.8-0.4,1.3-1,1.6-1.8c0.3-0.8,0.4-1.6,0.2-2.6c-0.3-1.6-1-2.8-2.3-3.7c-1.2-0.9-2.4-1.1-3.9-1.1
				c-0.6,0-1,0.1-1.4,0.2c-0.4,0.1-0.7,0.2-0.9,0.4c-0.2,0.1-0.5,0.4-0.8,0.7l-0.8-4.3H2.3z M10.7-28.1c-0.6,0-1.2-0.2-1.6-0.6
				c-0.5-0.4-0.8-0.9-0.9-1.6c-0.1-0.8-0.1-1.4,0.3-1.8c0.3-0.4,0.8-0.5,1.4-0.5c0.4,0,0.9,0.1,1.2,0.2c0.4,0.2,0.7,0.4,0.9,0.8
				c0.3,0.4,0.4,0.8,0.5,1.2c0.1,0.7,0,1.3-0.3,1.7C11.8-28.3,11.3-28.1,10.7-28.1"/>
		</g>
		<g id="g4695" transform="matrix(4.3243504,0,0,-4.3243504,506.937,494.88548)">
			<path id="path4697" class="st1" d="M2.3-38.6l0.4-0.2c-0.9-1.9-2.8-3.4-5-3.4c-1.8,0-3.3,1.2-3.4,3.5C-5.9-34.8-2.1-31,1-31
				c1.3,0,2.6-0.6,2.6-2c0.1-3.2-4.4-4.2-7.4-4.3c-0.1-0.3-0.1-0.7-0.1-1.2c0-1.3,0.9-2.5,2.5-2.5C0.1-40.9,1.6-39.8,2.3-38.6
				 M1.9-32.8c0,0.8-0.4,1.3-1.2,1.3c-1.9,0-3.9-3.7-4.3-5.2C-0.4-36.7,2-34.9,1.9-32.8"/>
		</g>
		<g id="g4699" transform="matrix(4.3243504,0,0,-4.3243504,426.75057,469.25634)">
			<path id="path4701" class="st1" d="M2.3-38.6c0.3,0,0.8,0.1,1.1,0.1c0.3,0,0.7-0.1,0.7-0.4c0-0.2-0.4-1.6-0.4-2l-0.7-3.2
				c-0.3-1.3-0.6-2.7-0.9-3.7h1.9l1,5c3.2,3.3,4.4,4.4,5.1,4.4c0.3,0,0.6-0.2,0.6-0.6c0-0.6-0.3-1.9-0.5-2.3l-1.1-3.7
				c-0.2-0.8-0.4-1.6-0.4-2.1c0-0.8,0.5-1.2,1.2-1.2c1.4,0,2.3,1.4,3.2,2.8L12.9-45c-0.3-0.6-1.1-1.8-1.8-1.8
				c-0.2,0-0.4,0.1-0.4,0.5c0,0.4,0.2,1.1,0.3,1.5l1.2,4.3c0.3,1.2,0.5,1.9,0.5,2.4c0,0.8-0.5,1.2-1.2,1.2c-1.2,0-2.8-0.9-6.3-4.8
				H5.1l0.4,1.9c0.2,1.1,0.5,2.2,0.7,2.9C5-37.3,3.3-37.8,2.3-38L2.3-38.6z"/>
		</g>
	</g>
</g>
</svg>
