<?xml version="1.0" encoding="utf-8"?>
<!-- Generator: Adobe Illustrator 25.3.1, SVG Export Plug-In . SVG Version: 6.00 Build 0)  -->
<!DOCTYPE svg PUBLIC "-//W3C//DTD SVG 1.1//EN" "http://www.w3.org/Graphics/SVG/1.1/DTD/svg11.dtd" [
	<!ENTITY ns_extend "http://ns.adobe.com/Extensibility/1.0/">
	<!ENTITY ns_ai "http://ns.adobe.com/AdobeIllustrator/10.0/">
	<!ENTITY ns_graphs "http://ns.adobe.com/Graphs/1.0/">
	<!ENTITY ns_vars "http://ns.adobe.com/Variables/1.0/">
	<!ENTITY ns_imrep "http://ns.adobe.com/ImageReplacement/1.0/">
	<!ENTITY ns_sfw "http://ns.adobe.com/SaveForWeb/1.0/">
	<!ENTITY ns_custom "http://ns.adobe.com/GenericCustomNamespace/1.0/">
	<!ENTITY ns_adobe_xpath "http://ns.adobe.com/XPath/1.0/">
]>
<svg version="1.1" id="Layer_1" xmlns:x="&ns_extend;" xmlns:i="&ns_ai;" xmlns:graph="&ns_graphs;"
	 xmlns="http://www.w3.org/2000/svg" xmlns:xlink="http://www.w3.org/1999/xlink" x="0px" y="0px" viewBox="0 0 512 512"
	 style="enable-background:new 0 0 512 512;" xml:space="preserve">
<style type="text/css">
	.st0{fill:#0E2E5A;}
	.st1{fill:#FFFFFF;}
</style>
<metadata>
	<sfw  xmlns="&ns_sfw;">
		<slices></slices>
		<sliceSourceBounds  bottomLeftOrigin="true" height="512" width="513" x="0" y="-0.1"></sliceSourceBounds>
	</sfw>
</metadata>
<rect y="0.1" class="st0" width="513" height="512"/>
<g transform="matrix(1.3333 0 0 -1.3333 -37.986 269.78)">
	<g transform="matrix(3.3591 0 0 3.3591 -1343.1 -2865.2)">
		<g transform="translate(0 -.11148)">
			<g>
				<g>
					<path class="st1" d="M488.6,860.4c-0.2,3.7-1.2,7.3-3.1,10.6l-16.7,28.9c-1.3,2.2-2.1,4.6-2.6,7l-0.7-1.2
						c-4.1-7.2-4.1-16,0-23.1l13.3-23.1c4.1-7.2,4.1-16,0-23.1l-0.7-1.2c-0.5,2.4-1.4,4.8-2.6,7l-20,34.7c-1.3,2.2-2.2,4.6-2.6,7
						l-0.7-1.2c-4.1-7.1-4.1-15.9,0-23h0l13.4-23.2c4.1-7.2,4.1-16,0-23.1l-0.7-1.2c-0.5,2.4-1.4,4.8-2.6,7l-16.7,28.9
						c-2.2,3.9-3.3,8.2-3.1,12.6c-17.8-4.7-30.2-14.6-30.2-26c0-15.9,23.8-28.9,53.3-28.9c29.4,0,53.3,12.9,53.3,28.9
						C518.7,845.8,506.4,855.7,488.6,860.4L488.6,860.4z"/>
				</g>
			</g>
		</g>
	</g>
</g>
</svg>
