<svg width="200" height="200" viewBox="0 0 200 200" fill="none" xmlns="http://www.w3.org/2000/svg">
<rect width="200" height="200" fill="white"/>
<path d="M200 43.4065C198.862 42.7969 94.0657 43.2846 41.9722 43.0001C28.5222 42.9595 19.2575 53.9714 17.4289 63.3987C16.3318 68.8843 12.7153 86.1946 12.7153 86.1946L191.67 86.5603C191.67 86.4791 200 44.1785 200 43.4065Z" fill="#F9C829"/>
<path d="M159.894 157.061C158.797 156.98 157.74 156.939 156.562 156.939H3.65389C2.06914 156.939 -0.328299 157.915 0.0374114 154.664C2.31295 141.62 4.66975 128.617 6.98592 115.573C8.53003 106.837 12.6341 86.1946 12.6341 86.1946C27.7095 86.2759 42.785 86.3165 57.8604 86.3165H186.55C188.257 86.3165 189.923 86.4384 191.67 86.5603C188.907 102.286 185.94 117.971 183.34 133.778C181.308 146.252 172.572 155.192 159.894 157.061Z" fill="#203A74"/>
<path d="M188.175 64.8615C187.932 65.8774 187.322 66.365 186.591 66.7307C176.595 71.1192 166.639 75.5484 156.643 79.9369C155.993 80.2214 155.14 80.9528 154.489 80.0994C153.961 79.368 154.489 78.5147 154.977 77.8645C156.887 75.2639 158.756 72.6633 160.747 70.2253C163.47 66.8526 164.079 63.2361 162.494 59.2539C161.6 56.9784 160.585 54.6216 159.609 52.3054C159.244 51.4521 158.837 50.5581 159.65 49.8267C160.381 49.2172 161.153 49.7048 161.885 50.0705C169.971 54.2965 178.057 58.4412 186.144 62.6672C187.078 63.1548 187.972 63.7644 188.175 64.8615Z" fill="#FCFCF9"/>
<path d="M47.3765 137.232C45.7105 137.963 42.7848 138.573 38.8026 138.573C30.0662 138.573 24.0522 133.29 24.0522 124.716C24.0522 116.914 27.5875 111.347 32.7074 108.219C36.0801 106.146 39.9404 105.212 44.4102 105.212C47.9047 105.212 50.546 105.984 51.5618 106.512L49.4082 113.135C48.5955 112.851 46.4825 112.241 43.76 112.241C41.2407 112.241 38.9245 112.973 37.1772 114.273C34.6579 116.224 32.9106 119.474 32.9106 123.863C32.9106 128.739 35.9582 131.624 40.9562 131.624C43.1911 131.624 45.2635 131.299 46.8076 130.649L47.3765 137.232Z" fill="white"/>
<path d="M65.1339 105.74L62.8178 117.849H73.1796L75.4957 105.74H83.7445L77.6087 138.044H69.4006L71.8386 125.204H61.4362L59.0387 138.044H50.8306L56.9664 105.74H65.1339Z" fill="white"/>
<path d="M93.5375 130.405L90.3274 138.004H81.5503L96.8695 105.699H107.556L111.01 138.004H102.396L102.03 130.405H93.5375ZM101.705 124.269L101.38 118.337C101.217 116.508 101.136 113.826 100.933 111.835H100.852C100.039 113.867 99.145 116.589 98.3324 118.337L95.8537 124.269H101.705Z" fill="white"/>
<path d="M120.234 106.431C122.429 105.862 125.923 105.537 129.296 105.537C132.14 105.537 135.554 105.902 138.154 107.568C140.592 109.072 142.136 111.51 142.136 114.842C142.136 119.109 140.267 122.237 137.545 124.229C134.863 126.22 131.084 127.195 127.02 127.195C125.923 127.195 124.948 127.032 124.379 126.992L122.266 138.044H114.302L120.234 106.431ZM125.598 120.368C126.167 120.45 126.858 120.571 128.036 120.571C131.571 120.571 133.928 118.215 133.928 115.573C133.928 112.81 131.937 111.998 129.662 111.998C128.524 111.998 127.63 112.079 127.183 112.201L125.598 120.368Z" fill="white"/>
<path d="M143.884 129.47C145.834 130.608 148.719 131.543 151.848 131.543C154.083 131.543 156.155 130.689 156.155 128.78C156.155 127.195 154.733 126.301 151.929 124.838C148.8 123.172 145.143 120.653 145.143 116.183C145.143 109.316 151.198 105.252 158.634 105.252C162.901 105.252 165.217 106.065 166.72 106.837L164.201 113.623C163.144 113.095 160.747 112.201 158.024 112.282C155.139 112.282 153.758 113.42 153.758 114.801C153.758 116.345 155.911 117.402 158.35 118.784C162.25 120.815 164.851 123.416 164.851 127.276C164.851 135.119 158.187 138.573 151.035 138.573C145.997 138.491 142.746 137.272 141.161 136.216L143.884 129.47Z" fill="white"/>
</svg>
