<?xml version="1.0" encoding="utf-8"?>
<!-- Generator: Adobe Illustrator 25.3.1, SVG Export Plug-In . SVG Version: 6.00 Build 0)  -->
<!DOCTYPE svg PUBLIC "-//W3C//DTD SVG 1.1//EN" "http://www.w3.org/Graphics/SVG/1.1/DTD/svg11.dtd" [
	<!ENTITY ns_extend "http://ns.adobe.com/Extensibility/1.0/">
	<!ENTITY ns_ai "http://ns.adobe.com/AdobeIllustrator/10.0/">
	<!ENTITY ns_graphs "http://ns.adobe.com/Graphs/1.0/">
	<!ENTITY ns_vars "http://ns.adobe.com/Variables/1.0/">
	<!ENTITY ns_imrep "http://ns.adobe.com/ImageReplacement/1.0/">
	<!ENTITY ns_sfw "http://ns.adobe.com/SaveForWeb/1.0/">
	<!ENTITY ns_custom "http://ns.adobe.com/GenericCustomNamespace/1.0/">
	<!ENTITY ns_adobe_xpath "http://ns.adobe.com/XPath/1.0/">
]>
<svg version="1.1" id="Layer_1" xmlns:x="&ns_extend;" xmlns:i="&ns_ai;" xmlns:graph="&ns_graphs;"
	 xmlns="http://www.w3.org/2000/svg" xmlns:xlink="http://www.w3.org/1999/xlink" x="0px" y="0px" viewBox="0 0 512 512"
	 style="enable-background:new 0 0 512 512;" xml:space="preserve">
<style type="text/css">
	.st0{fill:#D10825;}
	.st1{fill:url(#SVGID_1_);}
	.st2{fill:#840A3B;}
	.st3{fill:url(#SVGID_2_);}
	.st4{fill:#969696;}
	.st5{fill:url(#SVGID_3_);}
	.st6{fill:url(#SVGID_4_);}
</style>
<metadata>
	<sfw  xmlns="&ns_sfw;">
		<slices></slices>
		<sliceSourceBounds  bottomLeftOrigin="true" height="449.1" width="451.1" x="30" y="31.8"></sliceSourceBounds>
	</sfw>
</metadata>
<g>
	<path class="st0" d="M328.1,38.8c23.4-5.3,47.8-7.6,72.1-7.6c24.4-0.5,48.2,2.4,72.1,7.6c5.3,23.4,7.6,47.8,7.6,72.1
		s-2.4,48.2-7.6,72.1l0,0c-23.4,5.3-47.8,7.6-72.1,7.2c-24.4,0-48.2-2.4-72.1-7.2c-5.3-23.9-7.6-47.8-7.2-72.1
		C320.5,86.5,322.9,62.2,328.1,38.8"/>
	
		<linearGradient id="SVGID_1_" gradientUnits="userSpaceOnUse" x1="405.2846" y1="1225.8882" x2="405.2846" y2="1073.5022" gradientTransform="matrix(1 0 0 1 0 -1035.0708)">
		<stop  offset="0" style="stop-color:#830B0E"/>
		<stop  offset="0.85" style="stop-color:#D10825"/>
	</linearGradient>
	<path class="st1" d="M473.3,38.8c5.3,23.4,7.6,47.8,7.6,72.1c0.5,24.4-2.4,48.2-7.6,72.1l0,0c-23.4,4.8-47.8,7.6-71.7,7.2
		c-24.4,0-48.2-2.4-72.1-7.2L473.3,38.8z"/>
	<path class="st2" d="M182.9,182.6c23.9-4.8,47.8-7.6,72.1-7.2c23.9-0.5,48.2,1.9,71.7,7.2c5.3,23.4,7.6,47.8,7.6,71.7
		c0.5,24.4-2.4,48.2-7.6,72.1l0,0c-23.4,4.8-47.8,7.6-71.7,7.2c-23.9,0-48.2-2.4-71.7-7.6C173.3,279,173.3,229.8,182.9,182.6"/>
	
		<linearGradient id="SVGID_2_" gradientUnits="userSpaceOnUse" x1="260.0639" y1="1370.8702" x2="260.0639" y2="1218.436" gradientTransform="matrix(1 0 0 1 0 -1035.0708)">
		<stop  offset="0" style="stop-color:#550220"/>
		<stop  offset="0.85" style="stop-color:#840A3B"/>
	</linearGradient>
	<path class="st3" d="M328.1,182.6c5.3,23.4,7.6,47.8,7.6,71.7c0.5,24.4-2.4,48.2-7.6,72.1l0,0c-23.4,4.8-47.8,7.6-71.7,7.6
		c-24.4,0-48.2-2.4-72.1-7.6L328.1,182.6z"/>
	<path class="st4" d="M38.1,328.7c23.4-5.3,47.8-7.6,72.1-7.6s48.2,2.4,72.1,7.6c5.3,23.9,7.6,47.8,7.2,72.1
		c0,23.9-2.4,48.2-7.2,71.7l0,0c-23.4,5.3-46.8,7.6-70.7,7.6s-48.2-2.4-71.7-7.6c-6.2-23.4-9.1-47.3-8.6-71.7
		C30.5,376.5,32.9,352.6,38.1,328.7"/>
	
		<linearGradient id="SVGID_3_" gradientUnits="userSpaceOnUse" x1="114.6085" y1="1515.7563" x2="114.6085" y2="1363.3702" gradientTransform="matrix(1 0 0 1 0 -1035.0708)">
		<stop  offset="0" style="stop-color:#4E4E4E"/>
		<stop  offset="0.85" style="stop-color:#969696"/>
	</linearGradient>
	<path class="st5" d="M182.9,328.7c5.3,23.9,7.6,47.8,7.2,72.1c0,23.9-2.4,48.2-7.2,71.7l0,0c-23.4,5.3-47.8,7.6-72.1,7.6
		c-23.9,0-48.2-2.4-71.7-7.6L182.9,328.7z"/>
	<path class="st0" d="M182.9,38.8c5.3,23.4,7.6,47.8,7.2,72.1c0,24.4-2.4,48.2-7.2,72.1c-23.9,5.3-47.8,7.6-72.1,7.2
		c-23.9,0-48.2-2.4-71.7-7.2l0,0c-6.2-23.4-9.6-47.8-9.1-72.1c-0.5-24.4,2.4-48.2,7.6-72.1c23.9-5.3,48.7-7.6,73.1-7.6
		S159.5,33.5,182.9,38.8"/>
	
		<linearGradient id="SVGID_4_" gradientUnits="userSpaceOnUse" x1="106.4319" y1="1225.8882" x2="106.4319" y2="1073.5022" gradientTransform="matrix(1 0 0 1 0 -1035.0708)">
		<stop  offset="0" style="stop-color:#830B0E"/>
		<stop  offset="0.85" style="stop-color:#D10825"/>
	</linearGradient>
	<path class="st6" d="M182.9,182.6c-23.9,5.3-47.8,7.6-72.1,7.2c-23.9,0-48.2-2.4-71.7-7.2l0,0c-6.2-23.4-9.6-47.8-9.1-72.1
		c-0.5-24.4,2.4-48.2,7.6-72.1L182.9,182.6z"/>
</g>
</svg>
