<svg width="200" height="200" viewBox="0 0 200 200" fill="none" xmlns="http://www.w3.org/2000/svg">
<rect width="200" height="200" fill="white"/>
<path d="M0 158.712V41H200V158.669H0V158.712ZM2.33051 157.441H197.627V42.2712H2.33051V157.441Z" fill="#0F228B"/>
<path d="M109.309 131.195V112.043H90.7501L90.7925 42.3817H1.93652V131.195" fill="#0F228B"/>
<path d="M198.122 131.195V42.3817H90.792V61.5342H109.309V131.195" fill="#018289"/>
<path d="M68.8855 101.407L66.5973 109.67C61.9363 111.916 56.3855 112.805 51.1736 112.805C34.4787 112.805 21.8516 103.187 21.8516 88.2291C21.8516 69.2037 35.877 60.5596 52.9109 60.5596C58.0804 60.5596 64.3092 61.7884 68.8431 64.1189C68.1227 66.5766 67.36 70.3054 66.7244 72.8478L65.9194 71.6189C63.038 67.6783 58.038 64.924 52.9956 64.924C40.0295 64.924 34.8177 76.5342 34.8177 87.2122C34.8177 99.6698 41.3855 108.441 53.377 108.441C58.2075 108.441 63.8007 106.11 67.3177 102.975" fill="white"/>
<path d="M176.428 101.492L174.14 109.755C169.479 112 163.928 112.89 158.717 112.89C142.022 112.89 129.395 103.229 129.395 88.3139C129.395 69.2884 143.42 60.6444 160.454 60.6444C165.581 60.6444 171.852 61.8732 176.344 64.2037C175.623 66.6613 174.903 70.3901 174.267 72.9325L173.462 71.7037C170.581 67.763 165.581 65.0088 160.496 65.0088C147.572 65.0088 142.361 76.6189 142.361 87.2969C142.361 99.7545 148.886 108.483 160.92 108.483C165.75 108.483 171.386 106.153 174.903 103.017" fill="white"/>
<path d="M90.792 61.5342V112.043H109.309V61.5342H90.792Z" fill="#FE330F"/>
<path d="M7.78355 143.483V140.856H8.8005C9.94457 140.856 10.4107 141.407 10.4107 142.17C10.4107 142.89 9.94457 143.483 8.8005 143.483H7.78355ZM4.2666 149.373H10.9615C12.8259 149.373 14.0547 148.144 14.0547 146.534C14.0547 145.221 13.3768 144.373 11.8513 143.865C12.9107 143.399 13.4191 142.721 13.4191 141.746C13.4191 140.56 12.6141 139.288 10.1141 139.288H4.2666V149.373ZM7.78355 147.848V145.009H8.96999C10.1141 145.009 10.6649 145.517 10.6649 146.365C10.6649 147.382 10.0293 147.848 8.88525 147.848H7.78355Z" fill="#0F228B"/>
<path d="M33.123 149.373H36.5976L37.2756 147.721H41.8519L42.5298 149.373H46.0468L41.4281 139.288H37.7417L33.123 149.373ZM37.9959 145.899L39.5637 141.916L41.0891 145.899H37.9959Z" fill="#0F228B"/>
<path d="M66.0889 139.288H69.0973L74.1821 144.458L74.0126 139.288H77.5719V149.373H74.5634L69.4787 144.204L69.6482 149.373H66.0889" fill="#0F228B"/>
<path d="M110.157 150.051C108.97 149.712 107.996 149.288 106.809 148.653C108.546 147.636 109.394 146.195 109.394 144.331C109.394 141.661 107.572 139.119 103.716 139.119C99.7752 139.119 98.165 141.788 98.165 144.246C98.165 146.534 99.4362 148.399 102.021 149.797C103.504 150.644 106.512 151.831 107.868 152.127L110.157 150.051ZM101.682 144.373C101.682 143.017 102.487 142.085 103.758 142.085C105.029 142.085 105.877 142.975 105.877 144.331C105.877 145.687 105.072 146.577 103.801 146.577C102.529 146.619 101.682 145.687 101.682 144.373Z" fill="#0F228B"/>
<path d="M140.411 144.755C140.411 147.721 138.589 149.543 135.072 149.543C131.597 149.543 129.605 147.89 129.605 145.136V139.288H133.122V144.67C133.122 146.068 133.885 146.746 134.987 146.746C136.089 146.746 136.851 146.068 136.851 144.458V139.246H140.368" fill="#0F228B"/>
<path d="M161.047 139.288H168.589V141.407H164.564V143.187H168.25V145.305H164.564V147.255H168.674V149.373H161.047" fill="#0F228B"/>
<path d="M188.885 146.068C189.859 146.746 190.792 147.085 191.639 147.085C192.317 147.085 192.656 146.788 192.656 146.407C192.656 145.305 188.885 145.178 188.885 142.212C188.885 140.941 189.775 139.204 192.444 139.204C193.631 139.204 194.605 139.543 195.622 140.263V142.933C194.647 142.043 193.885 141.619 193.122 141.619C192.529 141.619 192.147 141.873 192.147 142.297C192.147 143.526 196.046 143.653 196.046 146.534C196.046 147.975 195.029 149.543 192.402 149.543C191.088 149.543 189.944 149.331 188.927 148.865" fill="#0F228B"/>
</svg>
