<?xml version="1.0" encoding="utf-8"?>
<!-- Generator: Adobe Illustrator 25.3.1, SVG Export Plug-In . SVG Version: 6.00 Build 0)  -->
<!DOCTYPE svg PUBLIC "-//W3C//DTD SVG 1.1//EN" "http://www.w3.org/Graphics/SVG/1.1/DTD/svg11.dtd" [
	<!ENTITY ns_extend "http://ns.adobe.com/Extensibility/1.0/">
	<!ENTITY ns_ai "http://ns.adobe.com/AdobeIllustrator/10.0/">
	<!ENTITY ns_graphs "http://ns.adobe.com/Graphs/1.0/">
	<!ENTITY ns_vars "http://ns.adobe.com/Variables/1.0/">
	<!ENTITY ns_imrep "http://ns.adobe.com/ImageReplacement/1.0/">
	<!ENTITY ns_sfw "http://ns.adobe.com/SaveForWeb/1.0/">
	<!ENTITY ns_custom "http://ns.adobe.com/GenericCustomNamespace/1.0/">
	<!ENTITY ns_adobe_xpath "http://ns.adobe.com/XPath/1.0/">
]>
<svg version="1.1" id="Layer_1" xmlns:x="&ns_extend;" xmlns:i="&ns_ai;" xmlns:graph="&ns_graphs;"
	 xmlns="http://www.w3.org/2000/svg" xmlns:xlink="http://www.w3.org/1999/xlink" x="0px" y="0px" viewBox="0 0 512 512"
	 style="enable-background:new 0 0 512 512;" xml:space="preserve">
<style type="text/css">
	.st0{fill:#E3032E;}
	.st1{fill:#FFFFFF;}
</style>
<metadata>
	<sfw  xmlns="&ns_sfw;">
		<slices></slices>
		<sliceSourceBounds  bottomLeftOrigin="true" height="512.2" width="512" x="0" y="-0.1"></sliceSourceBounds>
	</sfw>
</metadata>
<g>
	<rect y="-0.1" class="st0" width="512" height="512.2"/>
	<path class="st1" d="M124.4,237c-2.4,0-2.7-0.8-2.7-7v-1.1c0-6.2,0.2-7.1,2.7-7.1H180c2.4,0,2.7,0.9,2.7,7.1v1.1c0,6.2-0.2,7-2.7,7
		H124.4z"/>
	<path class="st1" d="M180,194.4c2.4,0,2.7,0.9,2.7,7.1v1c0,6.3-0.2,7.1-2.7,7.1h-55.6c-2.4,0-2.7-0.8-2.7-7.1v-1
		c0-6.2,0.2-7.1,2.7-7.1H180"/>
	<path class="st1" d="M132.7,291.7c0-10.3,4.9-16,12.4-16c2.8,0,5.1,0.8,7.9,2.3c1,0.5,1.9,0.3,3.2-2.9l1-2.2c1-2.6,1-3.8-0.2-4.3
		c-3.5-2.1-8.8-3.3-13.4-3.3c-13.2,0-23.2,10.5-23.2,26.5c0,15.9,10,26.5,23.2,26.5c4.6,0,10.1-1.3,13.6-3.4
		c1.2-0.6,1.1-1.7,0.1-4.3l-1-2.3c-1.4-3.2-2.2-3.4-3.2-2.9c-2.8,1.4-5.2,2.3-8,2.3C137.7,307.6,132.7,302.1,132.7,291.7"/>
	<path class="st1" d="M278.7,291c-1.4-1.4-3.2-2.3-5.2-2.3c-4.3,0-6.4,3.8-6.4,10.8c0,4,0.8,6.5,2.1,7.9c1.1,1.3,2.8,1.8,4.4,1.8
		c2,0,3.6-0.5,4.3-1.4c0.6-0.7,0.9-1.8,0.9-4.3V291z M290.2,315.8c0,1.4-0.5,1.8-4.5,1.8h-0.4c-4.1,0-4.7-0.2-5-1.3
		c-0.2-0.6-0.4-1.4-0.5-2.1c-2.2,2.6-4.8,4-8.9,4c-9.7,0-15.6-7.2-15.6-18.8c0-12.6,6.5-20,16.2-20c2.7,0,5.2,0.9,7.2,2.4v-16.3
		c0-1.1,0.1-1.5,5.6-1.5h0.4c5,0,5.5,0.4,5.5,1.5V315.8z"/>
	<path class="st1" d="M348.7,316.1c0,1.1-0.5,1.5-5.6,1.5h-0.4c-5.4,0-5.6-0.5-5.6-1.5v-50.5c0-1.1,0.1-1.5,5.6-1.5h0.4
		c5.1,0,5.6,0.4,5.6,1.5V316.1z"/>
	<path class="st1" d="M319.9,295.5c-0.2-3.8-1.7-7.2-5.5-7.2c-3.3,0-5.7,2.5-6.1,7.2H319.9z M308.3,302.7c0.6,4.6,3.5,6.8,7.9,6.8
		c3.5,0,6.7-0.8,10.4-2.4c0.8-0.3,1.5,0,2.3,2.6l0.6,1.4c0.9,2.7,0.8,3.2-0.1,3.7c-4.5,2.5-9.1,3.5-14.2,3.5c-11.4,0-18.6-7-18.6-19
		c0-11.7,6.6-19.8,17.9-19.8c11.1,0,16.9,8,16.9,19.1c0,3.7-0.3,4.1-1.6,4.1H308.3z"/>
	<path class="st1" d="M378.1,295.5c-0.2-3.8-1.8-7.2-5.5-7.2c-3.3,0-5.7,2.5-6.1,7.2H378.1z M366.6,302.7c0.6,4.6,3.4,6.8,7.9,6.8
		c3.4,0,6.7-0.8,10.4-2.4c0.8-0.3,1.5,0,2.3,2.6l0.6,1.4c0.8,2.7,0.8,3.2-0.1,3.7c-4.5,2.5-9.1,3.5-14.3,3.5c-11.4,0-18.6-7-18.6-19
		c0-11.7,6.6-19.8,17.9-19.8c11.2,0,16.9,8,16.9,19.1c0,3.7-0.3,4.1-1.6,4.1H366.6z"/>
	<path class="st1" d="M248.6,315.8c0,1.4-0.5,1.8-4.5,1.8h-0.5c-4.1,0-4.7-0.2-5-1.3c-0.2-0.6-0.4-1.4-0.5-2.1c-2.2,2.6-4.8,4-8.8,4
		c-9.3,0-15.3-7.1-15.3-18.7c0-12.9,7.4-20.1,16.1-20.1c3.6,0,6.7,1.5,8.3,3.6l0.2-1.6c0.1-0.8,0.3-1.3,4.5-1.3h0.5
		c4.4,0,5,0.3,5,1.5V315.8z M237,291.3c-1.1-1.5-3-2.5-5-2.5c-4.3,0-6.4,3.8-6.4,10.6c0,5.7,1.5,10,6.2,10c1.8,0,3.1-0.5,3.9-1.4
		c0.8-0.9,1.2-2.1,1.2-4.8V291.3z"/>
	<path class="st1" d="M194.8,269.3c4.3,0,4.6,0,4.6,1.5v9.4h7.4c1,0,1.3,0.2,1.3,3.7v0.5c0,3.6-0.3,3.8-1.3,3.8h-7.4v16.9
		c0,2.9,0.5,4.4,3.1,4.4c1.4,0,2.6-0.3,3.7-0.7c1.2-0.5,1.7,0.1,2.5,3.1l0.2,0.7c0.9,3.2,0.6,3.5-0.5,4.1c-2.3,1.1-5.4,1.7-8.3,1.7
		c-9.2,0-11.8-4.6-11.8-12.7v-17.4H184c-1.1,0-1.3-0.2-1.3-3.8V284c0-3.5,0.3-3.7,1.3-3.7h4.9c0.5-3,1.4-7.3,2-9.4
		C191.1,269.6,191.3,269.3,194.8,269.3"/>
	<path class="st1" d="M170.5,263.5c3.6,0,6.3,2.8,6.3,6.1c0,3.2-2.6,6-6.3,6c-3.6,0-6.3-2.8-6.3-6
		C164.2,266.3,166.9,263.5,170.5,263.5 M170.8,280.2c5,0,5.5,0.5,5.5,1.6v34.3c0,1.1-0.5,1.5-5.5,1.5h-0.3c-5.5,0-5.7-0.4-5.7-1.5
		v-34.3c0-1.1,0.1-1.6,5.7-1.6H170.8z"/>
</g>
</svg>
