<?xml version="1.0" encoding="utf-8"?>
<!-- Generator: Adobe Illustrator 25.3.1, SVG Export Plug-In . SVG Version: 6.00 Build 0)  -->
<!DOCTYPE svg PUBLIC "-//W3C//DTD SVG 1.1//EN" "http://www.w3.org/Graphics/SVG/1.1/DTD/svg11.dtd" [
	<!ENTITY ns_extend "http://ns.adobe.com/Extensibility/1.0/">
	<!ENTITY ns_ai "http://ns.adobe.com/AdobeIllustrator/10.0/">
	<!ENTITY ns_graphs "http://ns.adobe.com/Graphs/1.0/">
	<!ENTITY ns_vars "http://ns.adobe.com/Variables/1.0/">
	<!ENTITY ns_imrep "http://ns.adobe.com/ImageReplacement/1.0/">
	<!ENTITY ns_sfw "http://ns.adobe.com/SaveForWeb/1.0/">
	<!ENTITY ns_custom "http://ns.adobe.com/GenericCustomNamespace/1.0/">
	<!ENTITY ns_adobe_xpath "http://ns.adobe.com/XPath/1.0/">
]>
<svg version="1.1" id="Layer_1" xmlns:x="&ns_extend;" xmlns:i="&ns_ai;" xmlns:graph="&ns_graphs;"
	 xmlns="http://www.w3.org/2000/svg" xmlns:xlink="http://www.w3.org/1999/xlink" x="0px" y="0px" viewBox="0 0 512 512"
	 style="enable-background:new 0 0 512 512;" xml:space="preserve">
<style type="text/css">
	.st0{fill:url(#SVGID_1_);}
	.st1{fill:#FFFFFF;}
</style>
<metadata>
	<sfw  xmlns="&ns_sfw;">
		<slices></slices>
		<sliceSourceBounds  bottomLeftOrigin="true" height="512" width="513.4" x="0" y="-0.1"></sliceSourceBounds>
	</sfw>
</metadata>
<linearGradient id="SVGID_1_" gradientUnits="userSpaceOnUse" x1="256.7113" y1="512.0709" x2="256.7113" y2="7.086615e-02">
	<stop  offset="0" style="stop-color:#9B1F23"/>
	<stop  offset="0.1556" style="stop-color:#B02021"/>
	<stop  offset="0.45" style="stop-color:#E2241C"/>
	<stop  offset="1" style="stop-color:#E2241C"/>
</linearGradient>
<rect y="0.1" class="st0" width="513.4" height="512"/>
<g>
	<polygon class="st1" points="206.7,200.9 267.7,137.6 267.8,137.5 267.8,117.2 187.9,200.9 	"/>
	<path class="st1" d="M160.6,253.3c25.9,0,48.6-13.2,62-33.2v33.2H234h2.7h30.9c14.7,0,26.4-11.6,26.4-26.3c0-7.5-3.2-14.4-8.2-19.2
		c5.1-4.9,8.2-11.7,8.2-19.2c0-14.7-11.9-26.6-26.6-26.6h-10.8l-14.8,14.8h25.6c6.5,0,11.8,5.3,11.8,11.8c0,6.5-5.3,11.8-11.8,11.8
		h-35.6h-9.2h-8.4c-8.5,21.2-29.3,36.2-53.6,36.2c-31.9,0-57.7-25.8-57.7-57.8c0-31.9,25.8-57.8,57.7-57.8c25.7,0,47.5,16.8,55,40
		l12.7-13.3c-11.8-25.6-37.7-43.4-67.7-43.4c-41.1,0-74.5,33.3-74.5,74.4C86.1,220,119.5,253.3,160.6,253.3 M236.8,215.6l30.8-0.4
		c6.5,0,11.8,5.3,11.8,11.8c0,6.5-5.3,11.8-11.8,11.8h-30.8V215.6z"/>
	<rect x="142.3" y="300.9" class="st1" width="7.2" height="48.3"/>
	<polygon class="st1" points="179.8,313.6 169.8,336.5 159.6,313.6 151.9,313.6 166,345.3 159,361.2 166.7,361.2 187.5,313.6 	"/>
	<path class="st1" d="M216.7,345.7v3.4h7.1v-48.3h-7.1v16.2c-1.1-1-2.3-1.9-3.6-2.5c-2.4-1.3-5.1-1.9-8-1.9c-5,0-9.4,1.8-13,5.5
		c-3.6,3.6-5.4,8-5.4,13.1c0,5.2,1.8,9.6,5.3,13.3c3.6,3.6,7.9,5.5,12.9,5.5c2.8,0,5.5-0.6,7.8-1.8
		C214.3,347.6,215.5,346.8,216.7,345.7 M205.5,343.2c-2,0-3.9-0.5-5.7-1.5c-1.7-1-3.2-2.5-4.2-4.4c-1.1-1.9-1.6-3.9-1.6-5.9
		c0-2.1,0.5-4,1.6-5.9c1.1-1.8,2.5-3.3,4.2-4.3c1.8-1,3.7-1.5,5.8-1.5c3.3,0,5.9,1.1,8.1,3.4c2.2,2.3,3.3,5,3.3,8.4
		c0,2.2-0.5,4.2-1.5,6c-0.9,1.7-2.3,3.1-4.2,4.1C209.5,342.7,207.5,343.2,205.5,343.2"/>
	<path class="st1" d="M247.1,312.7c-5.9,0-10.6,2.3-14.1,6.7c-2.8,3.5-4.1,7.5-4.1,12c0,4.7,1.6,9.1,4.9,12.8
		c3.3,3.8,7.9,5.8,13.6,5.8c2.6,0,4.9-0.4,7-1.2c2.1-0.8,4-2,5.6-3.5c1.6-1.5,3.1-3.5,4.3-5.9l0.7-1.3l-6.1-3.2l-0.8,1.2
		c-1.2,2-2.3,3.4-3.2,4.3c-1,0.8-2.1,1.5-3.6,2c-1.4,0.5-2.8,0.8-4.3,0.8c-3,0-5.5-1-7.6-3.2c-1.8-1.9-2.8-4.1-3.1-6.9h29.3v-1.5
		c0-4.8-1.4-8.8-3.9-12.1C258,315,253.1,312.7,247.1,312.7 M237.1,326.6c0.7-1.8,1.6-3.2,2.7-4.2c2.1-1.8,4.4-2.7,7.3-2.7
		c1.7,0,3.4,0.4,4.9,1.1c1.5,0.7,2.8,1.7,3.7,2.8c0.6,0.8,1.2,1.8,1.6,2.9H237.1z"/>
	<path class="st1" d="M279,319.6c1.7,0,3.6,1,5.6,2.8l1.1,1l4.8-4.9l-1.1-1c-3.3-3.2-6.7-4.8-10.1-4.8c-2.9,0-5.5,1-7.4,2.9
		c-2,1.9-3,4.4-3,7.2c0,2.2,0.7,4.2,1.9,6c1.2,1.7,3.3,3.3,6.5,5c3.4,1.7,4.5,2.7,4.8,3.1c0.6,0.7,0.8,1.4,0.8,2.3
		c0,1-0.4,1.9-1.3,2.7c-0.9,0.8-2,1.2-3.3,1.2c-2,0-3.8-1-5.7-3.1l-1.1-1.3l-4.6,5.2l0.8,1c1.2,1.6,2.9,2.9,4.8,3.8
		c1.9,0.9,3.9,1.4,6,1.4c3.2,0,5.9-1.1,8.1-3.2c2.2-2.1,3.3-4.8,3.3-7.9c0-2.2-0.6-4.2-1.9-6c-1.3-1.7-3.5-3.4-6.9-5.1
		c-2.9-1.5-4.1-2.5-4.6-3.1c-0.6-0.7-0.8-1.4-0.8-2.1c0-0.8,0.3-1.4,1-2.1C277.2,319.9,278,319.6,279,319.6"/>
	<path class="st1" d="M322.7,317.1c-1.1-1-2.3-1.9-3.6-2.5c-2.3-1.3-5.1-1.9-8-1.9c-5,0-9.4,1.8-13,5.5c-3.6,3.6-5.4,8-5.4,13.1
		c0,5.2,1.8,9.6,5.3,13.3c3.6,3.6,7.9,5.5,12.9,5.5c2.8,0,5.4-0.6,7.8-1.8c1.3-0.7,2.6-1.5,3.8-2.5v3.5h7.1v-48.3h-7.1V317.1z
		 M321.5,337.5c-1,1.7-2.3,3.1-4.2,4.1c-1.9,1-3.8,1.5-5.8,1.5c-2,0-3.9-0.5-5.7-1.5c-1.7-1-3.1-2.5-4.2-4.4c-1-1.9-1.6-3.9-1.6-5.9
		c0-2.1,0.5-4,1.6-5.9c1.1-1.8,2.5-3.3,4.2-4.3c1.8-1,3.7-1.5,5.7-1.5c3.3,0,5.9,1.1,8.1,3.4c2.2,2.3,3.3,5,3.3,8.4
		C323,333.8,322.5,335.8,321.5,337.5"/>
	<path class="st1" d="M364.8,317.1c-1.1-1-2.3-1.9-3.6-2.5c-2.4-1.3-5.1-1.9-8-1.9c-5,0-9.4,1.8-13,5.5c-3.6,3.6-5.4,8-5.4,13.1
		c0,5.2,1.8,9.6,5.3,13.3c3.6,3.6,7.9,5.5,12.9,5.5c2.8,0,5.5-0.6,7.8-1.8c1.3-0.7,2.6-1.5,3.8-2.5v3.5h7.1v-35.6h-7.1V317.1z
		 M363.6,337.5c-1,1.7-2.3,3.1-4.2,4.1c-1.9,1-3.7,1.5-5.8,1.5c-2,0-3.9-0.5-5.7-1.5c-1.8-1-3.2-2.5-4.2-4.4c-1-1.9-1.6-3.9-1.6-5.9
		c0-2.1,0.5-4,1.5-5.9c1-1.8,2.5-3.3,4.2-4.3c1.7-1,3.7-1.5,5.8-1.5c3.2,0,5.9,1.1,8.1,3.4c2.2,2.3,3.3,5,3.3,8.4
		C365.1,333.8,364.6,335.8,363.6,337.5"/>
	<rect x="377.8" y="300.9" class="st1" width="7.2" height="48.3"/>
	<path class="st1" d="M418.4,336.1c-1.2,2-2.3,3.4-3.3,4.3c-1,0.8-2.1,1.5-3.6,2c-1.4,0.5-2.8,0.8-4.3,0.8c-3.1,0-5.6-1-7.6-3.2
		c-1.8-1.9-2.8-4.1-3.1-6.9h29.3l0-1.5c0-4.8-1.4-8.8-3.9-12.1c-3.6-4.6-8.5-6.9-14.5-6.9c-5.9,0-10.6,2.3-14.1,6.7
		c-2.8,3.5-4.2,7.5-4.2,12c0,4.7,1.6,9.1,4.9,12.8c3.3,3.8,7.9,5.8,13.6,5.8c2.5,0,4.9-0.4,7-1.2c2.1-0.8,4-2,5.6-3.5
		c1.7-1.5,3.1-3.5,4.3-5.9l0.7-1.3l-6.1-3.2L418.4,336.1z M400.2,322.4c2.1-1.8,4.4-2.7,7.3-2.7c1.7,0,3.4,0.4,4.9,1.1
		c1.5,0.7,2.8,1.7,3.7,2.8c0.6,0.8,1.2,1.8,1.6,2.9h-20.3C398.2,324.8,399.1,323.4,400.2,322.4"/>
	<path class="st1" d="M137.4,340.9l0.9-1.2l-5.8-4.4l-0.9,1.1c-3.9,4.5-8.6,6.7-14.4,6.7c-5.3,0-9.5-1.6-13-5
		c-3.4-3.4-5.1-7.4-5.1-12.4c0-3.3,0.8-6.3,2.3-8.9c1.5-2.6,3.7-4.7,6.4-6.3c2.8-1.6,5.8-2.4,9.1-2.4c3,0,5.7,0.6,8.2,1.8
		c2.5,1.2,4.6,2.9,6.4,5.3l0.9,1.1l5.8-4.4l-0.8-1.2c-2.3-3.1-5.2-5.6-8.7-7.3c-3.5-1.7-7.5-2.6-11.8-2.6c-7.2,0-13.3,2.4-18.1,7.1
		c-4.8,4.7-7.2,10.5-7.2,17.4c0,6.5,2,12.1,6,16.7c4.7,5.5,11.3,8.2,19.4,8.2c4.3,0,8.2-0.8,11.7-2.4
		C132.1,346.3,135.1,343.9,137.4,340.9"/>
	<path class="st1" d="M120.7,382.8c-0.8-0.7-1.9-1.4-3.2-2c1-0.8,1.8-1.8,2.4-2.8c1.1-1.8,1.7-3.9,1.7-6.1c0-2.4-0.6-4.6-1.9-6.6
		c-1.2-2-3-3.4-5.1-4.4c-2.1-1-4.9-1.4-8.7-1.4H95.8v47.2h13.6c4.7,0,8.6-1.4,11.4-4.1c2.9-2.7,4.4-6.2,4.4-10.1
		c0-2-0.4-3.8-1.2-5.5C123.3,385.4,122.1,384,120.7,382.8 M103.1,366.9h3.6c2.7,0,4.6,0.5,5.8,1.4c1.1,0.9,1.6,2,1.6,3.6
		c0,1.2-0.3,2.3-1,3.2c-0.7,1-1.6,1.7-2.7,2.2c-1.3,0.5-3.3,0.7-6.2,0.7h-1V366.9z M116.5,396.2c-0.7,1.1-1.7,1.9-2.9,2.4
		c-1.3,0.5-3.5,0.8-6.5,0.8h-4v-14h1c3.6,0,6.1,0.1,7.5,0.5c2,0.5,3.4,1.3,4.5,2.5c1,1.2,1.6,2.5,1.6,4.1
		C117.6,394,117.2,395.1,116.5,396.2"/>
	<path class="st1" d="M158.7,374.6c-1.1-1-2.3-1.8-3.6-2.5c-2.4-1.3-5.1-1.9-7.9-1.9c-5,0-9.4,1.8-13,5.4c-3.6,3.6-5.4,8-5.4,13.1
		c0,5.2,1.8,9.6,5.3,13.3c3.6,3.6,7.9,5.5,12.9,5.5c2.8,0,5.5-0.6,7.8-1.8c1.3-0.6,2.6-1.5,3.8-2.5v3.5h7.1v-35.7h-7.1V374.6z
		 M157.5,395.1c-1,1.8-2.4,3.1-4.2,4.2c-1.8,1-3.8,1.6-5.8,1.6c-2.1,0-3.9-0.5-5.7-1.6c-1.7-1-3.1-2.5-4.2-4.4
		c-1.1-1.8-1.6-3.8-1.6-5.9c0-2.1,0.5-4,1.6-5.9c1.1-1.8,2.5-3.3,4.2-4.3c1.8-1.1,3.7-1.5,5.7-1.5c3.3,0,5.9,1.1,8.1,3.3
		c2.3,2.3,3.4,5.1,3.4,8.5C159,391.3,158.5,393.3,157.5,395.1"/>
	<path class="st1" d="M197.5,372.3c-2.1-1.4-4.6-2.1-7.3-2.1c-2.6,0-5.1,0.6-7.4,1.9c-1.2,0.6-2.3,1.4-3.4,2.5v-3.5h-7.2v35.7h7.2
		v-13.5c0-4.2,0.2-7,0.5-8.5c0.6-2.2,1.7-4,3.5-5.5c1.7-1.5,3.7-2.2,5.9-2.2c1.9,0,3.3,0.4,4.5,1.3c1.1,0.9,1.9,2.2,2.3,4.1
		c0.2,0.8,0.4,2.7,0.4,7.2v17.1h7.1v-18.3c0-4.7-0.5-8.1-1.5-10.4C201.3,375.7,199.7,373.8,197.5,372.3"/>
	<polygon class="st1" points="240.8,371.1 230,371.1 217,382.5 217,358.5 209.8,358.5 209.8,406.7 217,406.7 217,393.9 231.3,406.7 
		241.7,406.7 221.1,388.2 	"/>
</g>
</svg>
