<svg width="200" height="200" viewBox="0 0 200 200" fill="none" xmlns="http://www.w3.org/2000/svg">
<rect width="200" height="200" fill="white"/>
<path d="M65.0986 106.141C65.0986 85.5154 81.7187 68.5731 102.666 68.5731C123.292 68.5731 140.234 85.1931 140.234 106.141C140.234 126.766 123.614 143.709 102.666 143.709C81.7187 143.709 65.0986 126.766 65.0986 106.141Z" fill="#F08E00"/>
<path d="M65.0986 106.141C65.0986 85.5154 81.7187 68.5731 102.666 68.5731C123.292 68.5731 140.234 85.1931 140.234 106.141C140.234 126.766 123.614 143.709 102.666 143.709C81.7187 143.709 65.0986 126.766 65.0986 106.141Z" fill="#F08E00"/>
<path fill-rule="evenodd" clip-rule="evenodd" d="M199.947 51.6307C199.026 51.953 199.349 50.71 199.349 50.3877C198.428 50.0654 197.829 49.4669 197.829 48.5461C195.666 47.3031 194.146 45.7838 192.903 43.9422C192.581 43.9422 192.305 43.9422 191.982 43.9422C190.141 41.5022 186.734 40.5354 184.616 38.0953C184.294 38.0953 184.018 38.0953 183.695 38.0953C182.176 36.576 180.289 35.0107 177.526 34.4122C177.849 33.8137 176.928 34.4122 177.204 33.8137C169.838 30.4068 163.024 26.7237 154.737 24.2836C154.415 23.0405 152.297 23.6851 151.652 22.7643C145.207 21.5213 138.715 19.3574 132.27 18.1604C131.349 18.1604 130.106 18.4827 129.508 17.5619C128.909 17.5619 129.185 18.1604 128.587 17.8842C125.824 17.2857 122.74 16.9634 119.655 16.6411C113.808 16.0426 106.718 15.7204 101.194 16.3189C97.1883 16.6411 92.5844 16.9174 89.1775 17.5619C80.8444 19.0812 73.1559 20.9688 66.3882 22.8104C66.3882 23.4089 66.0659 23.1326 65.7897 23.4089C62.1066 23.7311 60.265 25.8489 56.8581 26.4935C56.8581 27.092 56.5359 26.8157 56.2596 27.092C55.3388 27.092 55.0166 27.4142 54.4181 27.4142C52.8988 28.6573 51.0112 29.5781 48.8934 30.1766C47.0518 32.0181 44.2895 32.3404 42.4479 34.182C42.1257 34.182 41.8494 34.182 41.5271 34.182C40.6064 35.7013 38.4425 35.7013 37.5218 37.2666C35.0817 38.5096 32.9179 40.3512 31.0763 41.8705C29.8333 42.1928 28.9125 42.469 28.6362 42.7913C28.0377 43.3898 28.0377 44.3106 27.3932 44.6328C26.4724 44.9551 26.1501 45.5536 25.2294 45.5536C24.9071 47.3952 22.7893 47.3952 22.467 49.2367C22.1447 49.2367 22.1447 49.559 21.5462 49.559C21.224 50.1575 21.224 50.802 20.3032 50.802C19.7047 52.3213 18.1394 52.9659 17.5408 54.4852C16.0216 55.0837 15.6993 57.2475 14.134 57.892C14.134 58.4906 13.8117 58.4906 13.8117 59.1351C11.9701 60.3781 11.0494 62.542 10.1286 64.6598C9.8063 65.2583 9.20779 66.5013 8.88552 67.7444C8.56325 67.7444 8.56325 67.7444 8.28701 67.7444C8.28701 69.5859 6.76773 69.9082 7.04396 71.7498C5.52468 72.072 6.12318 74.8344 4.88013 75.4329C4.88013 76.3537 4.55786 76.6759 4.55786 77.5967C4.23559 77.5967 4.23558 77.5967 3.95935 77.5967C3.63708 79.4383 2.7163 80.6813 2.7163 83.1214C2.39403 83.1214 2.39403 83.1214 2.11779 83.1214C2.11779 84.963 1.51929 86.206 1.51929 88.0476C1.19701 88.0476 1.19701 88.0476 0.920779 88.0476C0.920779 90.4876 0.598506 92.3752 0.598506 94.493C0.276233 94.493 0.276234 94.493 0 94.493C0 98.1761 0 101.859 0 105.865C0.322273 105.865 0.598506 105.865 0.598506 106.187C0.598506 108.351 0.920779 109.87 0.920779 112.034C1.24305 112.034 1.51929 112.034 1.51929 112.356C1.84156 114.198 1.51929 116.362 2.76234 117.605C2.76234 119.768 4.00539 120.689 4.00539 122.853C4.92617 122.853 4.6039 124.096 4.6039 125.017C5.52468 125.339 5.52468 126.536 5.84695 127.779C6.76773 127.457 6.16922 129.022 7.09 129.022C7.09 130.864 8.33305 131.186 8.33305 133.028C9.85234 133.35 9.25383 135.468 10.4969 136.112C10.4969 136.435 10.8192 136.711 10.8192 137.355C11.7399 137.355 11.7399 138.276 12.0622 139.197C13.3053 139.795 13.9038 141.361 14.5023 142.604C15.1008 142.604 15.4231 143.202 15.4231 143.847C16.6661 144.768 17.2646 146.011 18.1854 147.254C19.4284 147.852 20.027 148.773 20.6255 150.016C21.224 150.016 21.8685 150.338 21.8685 151.259C23.3878 151.581 23.3878 153.101 24.9531 153.423C24.9531 154.666 26.7947 154.344 26.7947 155.863C28.314 156.185 28.9585 157.705 30.2016 158.027C32.0431 160.789 35.7262 161.71 37.5678 164.196C40.0079 164.795 40.9747 166.636 43.4147 167.281C43.4147 167.603 43.737 167.603 43.737 167.879C48.3409 169.398 51.4255 172.483 56.3517 173.726C56.0294 174.325 56.9502 173.726 56.674 174.325C60.0809 174.923 62.1986 177.087 65.9278 177.409C65.6055 178.008 66.8486 177.409 66.5263 178.008C72.051 179.251 77.6217 181.092 83.7449 182.335C92.0779 183.855 101.286 184.499 109.895 184.499C110.494 184.499 109.895 183.578 110.217 183.578C116.064 183.901 119.747 183.256 124.397 182.658C123.799 182.658 123.799 181.737 123.154 182.059C119.747 182.658 115.788 182.381 112.381 182.658C112.059 182.335 111.783 182.059 111.783 182.059C111.184 182.98 109.343 182.059 108.376 182.059C108.053 182.658 109.297 182.381 108.698 182.658C102.529 181.415 97.0041 181.415 89.3156 180.816C89.6379 180.218 88.7171 180.816 88.9933 180.218C85.5864 180.54 84.0672 178.975 80.6603 178.975C78.2202 177.133 74.2148 176.811 70.4857 176.212C68.9664 174.693 65.8818 174.371 63.3957 173.45C63.3957 173.128 63.3957 172.851 63.3957 172.529C62.7971 172.207 63.0734 172.851 62.7971 172.851C62.1986 172.253 60.9556 171.931 59.3903 171.931C58.7918 171.332 58.1472 170.411 56.6279 170.411C56.6279 170.089 56.6279 169.813 56.6279 169.813C56.0294 169.813 55.7071 169.491 55.1086 169.491C55.1086 169.168 55.1086 168.892 55.1086 168.892C53.8656 169.214 53.5894 168.294 52.3463 168.294C52.6686 167.695 52.024 167.695 52.024 167.373C50.5047 167.05 48.3409 166.452 48.9394 165.209C49.5379 166.452 52.3463 165.531 52.3463 167.373C53.5894 167.373 53.8656 167.971 55.1086 167.971C55.1086 168.293 55.1086 168.57 55.1086 168.57C56.0294 168.892 56.9502 169.168 58.1933 169.491C58.7918 169.813 59.4363 170.734 60.3571 171.01C60.6794 171.01 61.2779 171.01 61.6001 171.01C62.8432 171.332 62.5209 172.529 63.1194 171.608C68.9664 175.015 76.3786 175.936 82.8241 178.054C83.4226 178.376 82.8241 177.455 83.4226 177.731C87.1057 180.494 94.1957 178.975 97.8788 180.494C99.1219 179.573 100.963 180.494 102.207 180.816C107.731 180.816 114.223 180.494 120.99 180.816C122.233 179.297 125.594 180.816 126.837 179.573C128.357 181.415 129.922 178.054 131.764 179.573C135.769 178.652 139.452 177.731 144.056 177.133C144.378 175.89 146.818 176.534 147.463 175.614C149.304 176.212 151.468 174.094 153.908 174.094C153.908 173.772 153.586 173.496 153.908 173.496C155.151 173.818 156.072 173.818 156.671 172.897C158.19 173.22 158.512 172.299 159.755 172.299C160.077 171.056 162.518 171.977 162.518 170.135C161.919 170.734 160.998 170.457 160.077 170.457C160.077 170.78 160.077 171.378 159.755 171.378C158.236 170.457 156.993 172.621 155.151 171.7C155.151 172.023 155.474 172.621 154.829 172.621C153.31 171.378 152.665 173.864 150.501 173.22C150.501 173.542 150.501 173.818 150.179 173.818C146.772 174.417 144.01 175.66 140.005 175.66C140.005 176.903 138.163 175.982 137.242 176.258C136.92 176.258 136.92 176.857 136.644 176.857C136.367 176.857 136.321 176.534 136.045 176.534C135.447 176.534 134.526 177.455 133.881 177.455C131.717 177.778 129.554 177.778 127.436 177.778C127.114 178.376 128.357 178.376 127.758 178.698C123.43 178.1 119.149 178.698 115.742 179.021C115.42 178.698 115.42 178.422 114.821 178.422C114.223 180.264 110.816 178.422 110.217 179.021C106.212 179.021 102.207 178.422 97.9249 177.778C96.0833 177.455 94.518 177.455 92.9987 177.778C92.9987 177.455 92.9987 177.179 92.6764 177.179C86.8295 176.857 81.3048 174.094 75.1356 173.496C75.1356 172.253 72.9718 172.897 72.6955 171.977C72.3733 172.299 69.9332 172.299 69.6109 171.056C67.7694 171.056 67.1709 169.537 64.6847 169.813C63.764 168.57 62.5209 167.649 60.0809 167.971C60.0809 167.649 59.7586 167.649 59.7586 167.05C58.2393 167.05 58.2393 165.807 56.3517 166.13C56.0294 164.61 54.8324 164.288 53.2671 164.288C53.2671 163.966 53.2671 163.69 53.2671 163.367C49.584 162.447 48.0186 159.684 44.3355 158.763C44.0133 157.244 42.494 157.244 41.5732 156.001C42.494 156.001 42.8162 156.001 43.4147 156.323C43.4147 156.646 43.4147 156.922 43.4147 157.244C45.5786 157.244 45.2563 159.408 47.4201 159.086C48.6632 160.605 49.8602 161.526 52.3463 161.848C52.9448 164.012 56.3517 163.367 56.9502 165.531C58.7918 165.531 59.7125 166.452 61.2779 166.452C61.2779 166.774 61.2779 167.05 61.2779 167.373C63.4417 167.05 63.7179 168.293 65.2833 168.616C65.2833 168.938 65.2833 169.214 65.2833 169.214C68.3679 169.214 68.9664 171.378 72.3733 171.378C73.8925 171.977 78.2202 173.542 79.141 173.22C79.141 173.542 79.7395 173.542 79.7395 173.818C84.3434 175.061 89.2696 175.337 94.1957 176.258C94.518 176.258 94.518 176.857 94.7942 176.857C95.715 176.857 96.6358 176.534 97.5566 176.857C100.963 177.778 105.245 177.778 108.928 178.1C112.335 178.1 117.537 177.778 121.221 178.1C122.74 176.857 126.469 178.1 127.666 176.857C128.265 177.455 130.751 177.455 131.073 176.534C129.83 175.015 127.068 177.778 125.226 176.212C121.221 177.133 115.696 176.811 111.368 176.811C110.77 177.133 107.363 176.212 106.12 177.133C103.357 176.811 99.3521 175.614 96.866 176.212C96.866 175.89 96.866 175.89 96.5437 175.614C97.4645 175.614 97.4645 175.015 98.063 175.015C100.503 175.936 103.91 175.614 106.396 176.258C108.836 175.337 111 176.581 113.762 176.258C115.926 175.936 117.768 176.258 119.011 175.936C120.53 175.614 122.694 176.258 124.259 175.936C124.581 175.936 124.581 175.337 124.858 175.337C127.62 176.581 128.541 174.094 131.027 175.337C131.625 174.417 133.191 175.015 134.71 174.739C134.71 173.22 135.953 174.417 135.953 174.417C137.196 174.417 138.117 172.575 139.636 173.174C139.636 172.851 139.636 172.575 139.958 172.575C142.122 172.253 143.964 172.253 145.207 171.332C146.128 172.253 147.647 169.491 148.89 170.734C148.568 169.813 149.811 170.135 150.133 170.135C150.133 169.813 150.133 169.537 150.455 169.537C152.297 169.537 153.54 168.017 154.461 168.017C154.783 168.017 154.783 168.34 154.783 168.34C154.783 168.34 154.783 167.741 155.105 167.741C155.704 167.143 156.026 168.063 156.625 167.741C156.625 167.419 156.302 166.82 156.947 166.82C157.868 167.419 157.545 166.498 159.111 166.222C160.031 165.899 159.709 165.899 160.354 165.623C161.597 165.025 161.873 165.301 161.873 164.38C162.195 164.38 161.873 164.979 162.472 164.702C163.392 163.782 164.635 162.861 166.477 163.183C166.799 162.585 165.878 162.861 166.155 162.262C166.477 162.262 166.753 162.262 167.398 162.262C167.72 161.664 166.799 161.342 167.398 161.342C169.562 161.664 170.16 160.421 171.081 159.5C172.6 158.902 173.843 158.257 174.764 157.06C175.086 157.06 175.362 157.06 176.007 157.06C176.329 155.218 178.769 155.218 179.69 153.975C180.611 153.975 181.209 153.653 182.13 153.653C181.808 152.732 182.452 152.732 183.051 153.055C182.729 151.812 183.649 152.134 184.57 151.812C184.57 150.292 185.491 150.292 186.734 149.97C185.215 148.128 185.813 148.128 186.412 148.128C186.412 147.53 185.813 147.806 186.09 147.208C186.688 147.53 186.688 147.53 187.333 147.208C187.655 146.609 186.734 147.208 187.01 146.609C187.333 146.609 187.609 146.609 188.253 146.609C187.931 145.688 188.852 145.688 189.174 145.366C187.01 144.768 188.852 142.604 190.417 142.604C190.095 141.361 191.338 142.005 191.016 140.762C188.253 141.683 187.01 143.847 185.491 145.688C185.169 145.688 184.892 145.688 184.57 145.688C184.57 146.287 184.248 146.609 184.248 147.208C183.926 147.208 183.649 147.208 183.327 147.208C183.005 148.451 182.406 149.049 180.887 149.049C179.966 150.292 179.046 151.812 177.204 152.134C177.526 153.055 176.605 152.732 176.605 153.055C176.928 153.055 176.928 153.055 176.928 153.377C176.605 153.377 176.605 153.699 176.329 153.699C176.053 153.699 176.007 153.377 175.731 153.377C174.81 154.62 172.968 155.218 171.725 156.139C171.403 155.541 170.805 155.541 169.884 155.541C169.884 155.863 169.884 156.139 169.884 156.139C170.206 156.461 171.403 156.139 171.127 156.738C169.884 157.336 168.963 157.06 167.121 157.06C167.121 157.382 167.121 157.658 166.799 157.658C165.28 157.981 163.715 158.902 162.794 159.822C162.195 159.822 161.551 160.145 160.952 160.145C160.031 161.065 158.512 162.308 156.947 161.664C156.348 163.505 152.941 161.065 152.343 163.828C151.1 163.828 150.179 163.505 148.936 163.505C148.614 164.426 147.417 164.426 145.851 164.426C145.253 165.347 143.688 165.669 141.846 165.669C141.846 166.268 141.524 165.992 141.248 166.268C139.084 165.946 137.564 167.511 135.723 166.866V166.544C137.242 166.222 139.406 164.702 140.649 165.301C141.248 164.058 143.089 164.058 145.253 163.782C145.253 163.782 145.253 163.183 145.575 163.183C146.174 163.183 146.818 163.505 147.417 163.183C148.015 162.861 148.338 161.664 148.936 162.585C148.936 162.262 149.258 161.986 149.535 161.664C153.218 161.342 154.783 158.902 158.466 158.579C158.788 157.336 159.709 157.06 161.228 157.06C161.551 156.461 161.827 155.817 162.748 156.139C162.748 155.817 162.425 155.218 163.07 155.218C163.392 155.541 163.991 155.218 164.589 155.218C164.589 154.62 164.912 153.975 165.832 154.298C165.832 153.975 165.51 153.377 166.155 153.377C167.996 153.699 167.996 151.535 170.16 152.134C169.838 151.812 169.562 150.891 168.917 150.891C168.595 151.812 167.075 151.489 165.832 151.812C165.51 152.732 164.589 153.055 163.392 153.055C162.794 154.574 160.308 154.298 159.709 155.817C159.111 154.896 158.466 157.06 156.947 156.415C156.625 157.658 155.428 158.257 153.862 158.257C152.619 159.776 149.258 159.5 148.015 161.019C147.693 160.697 147.094 161.342 146.174 161.019C146.174 161.94 145.253 161.94 144.332 161.618C144.332 161.94 144.332 162.216 144.01 162.216C140.327 162.815 138.485 164.058 134.756 164.38C134.756 164.702 134.756 164.979 134.434 164.979C130.428 164.656 125.824 166.498 120.576 166.498C120.254 167.096 118.412 166.82 117.491 166.82C108.56 167.419 99.6283 167.143 91.6175 165.899C87.6122 165.301 83.929 164.058 80.2459 163.137C79.9236 163.137 79.3251 163.137 79.0029 163.137C78.0821 162.815 76.839 161.894 76.2405 161.894C75.642 161.572 74.9975 161.894 74.399 161.572C74.0767 161.572 73.8005 160.973 73.8005 160.973C73.202 160.651 72.5574 160.973 72.2812 160.651C71.9589 160.651 71.6827 160.053 71.6827 160.053C71.0842 159.73 70.4396 160.053 70.1634 159.73C69.8871 159.408 69.5649 159.132 68.9203 158.809C68.5981 158.487 67.9996 158.809 67.6773 158.809C67.6773 158.809 67.355 158.211 67.0788 158.211C66.7565 157.889 66.158 158.211 65.8357 157.889L65.5135 157.29C64.9149 156.968 64.2704 157.29 63.9942 156.968C63.6719 156.968 63.6719 156.369 63.6719 156.369C63.0734 156.047 62.1526 156.047 61.5081 155.771C60.8635 155.495 60.265 154.528 59.6665 154.252C59.3442 154.252 59.068 154.252 59.068 154.252C58.1472 153.653 56.9042 152.41 56.3057 152.088C55.7072 151.766 55.0626 151.766 54.7864 151.489C54.1879 150.891 54.1879 150.891 53.2671 150.568C52.6686 150.246 52.6686 149.648 52.024 149.325C51.7018 149.003 51.1033 149.003 50.781 149.003C50.4587 148.681 50.4587 148.405 50.1825 148.082C49.2617 147.484 48.0186 146.839 47.0979 146.241C45.5786 144.998 44.934 143.801 43.4147 143.156C43.0925 142.235 42.1717 141.913 41.5732 141.315V140.716C40.9747 140.118 40.3301 140.118 40.0539 139.473C39.4554 138.875 39.4554 138.875 38.8109 138.23C38.2123 137.632 38.2123 136.711 37.5678 136.711C37.5678 136.388 37.2455 136.388 37.2455 135.79C36.3247 135.79 36.0025 134.869 36.0025 134.271C34.4832 133.948 34.4832 131.831 32.9179 131.186C32.3194 129.345 31.3986 127.779 30.1555 126.582C29.557 123.82 27.7155 122.255 27.3932 119.216C27.0709 119.216 26.7947 119.216 26.7947 118.894C26.7947 117.651 25.8739 117.052 26.1962 115.487C25.8739 115.487 25.5977 115.487 25.5977 115.165C25.2754 112.724 24.3546 110.238 24.3546 107.154C24.0323 107.154 23.7561 107.154 23.7561 106.831C23.7561 103.148 23.7561 99.143 23.7561 95.4598C24.0784 95.4598 24.0784 95.4598 24.3546 95.4598C24.0323 92.3752 25.2754 90.5337 25.5977 87.7713C25.9199 87.7713 25.9199 87.7713 26.1962 87.7713C25.8739 85.9298 26.7947 85.3313 26.7947 84.0882C27.117 84.0882 27.117 84.0882 27.3932 84.0882C27.3932 83.1674 27.7155 83.1674 27.7155 82.2467C28.9585 81.6481 28.6362 79.162 29.8793 78.5635C29.8793 77.965 30.2016 77.6428 30.2016 77.0443C31.1223 77.0443 31.1223 75.8012 31.4446 74.8804C33.8847 73.0389 34.8515 69.3557 37.2916 67.7904C37.2916 67.1919 37.6138 67.1919 37.6138 66.5474C39.1331 65.6266 40.6984 64.3835 41.297 62.8643C41.6192 62.8643 41.8955 62.8643 42.2177 62.8643C42.2177 61.9435 42.54 61.6212 43.4608 61.6212C43.4608 61.2989 43.4608 61.0227 43.7831 60.7004C45.0261 60.1019 46.2231 58.8589 47.4662 57.9381C48.9855 56.695 50.2285 55.498 52.0701 55.1757C52.0701 54.8535 52.0701 54.5772 52.3923 54.5772C62.8432 48.1318 74.5371 42.8833 89.6379 40.7195C99.8125 38.5557 113.946 39.4765 124.443 40.7195C126.607 41.9626 130.613 41.6403 132.454 42.8833C134.894 43.2056 137.38 43.8041 138.9 44.7249C141.063 44.7249 141.662 45.9679 143.503 45.9679C143.181 46.8887 144.424 45.968 144.102 46.5665C149.949 48.0857 154.277 51.4926 159.479 53.6565C160.077 54.5772 160.4 55.1757 161.643 55.1757C161.965 55.7743 162.241 56.0965 163.162 56.0965C162.84 57.3396 164.681 56.4188 164.405 57.6158C166.247 58.2143 167.49 58.8589 168.088 60.3781C168.411 60.3781 168.687 60.7004 169.331 60.7004C169.009 61.6212 169.93 61.2989 170.252 61.9435C170.851 63.4628 172.416 64.1073 173.935 64.7058C173.935 65.0281 173.935 65.3043 173.935 65.3043C175.777 65.9028 177.342 66.8236 179.46 67.4682C183.788 67.7904 187.793 67.4681 190.832 66.2251C190.832 65.6266 190.832 64.982 191.154 64.7058C191.476 64.3835 192.075 64.7058 192.075 64.1073C191.752 61.345 195.159 61.0227 196.678 59.5034C196.678 58.9049 196.678 58.5826 196.678 57.9841C197.001 57.9841 197.599 57.9841 197.922 57.9841C197.922 57.3856 197.922 56.4648 198.244 56.1426C198.842 56.1426 199.165 56.1426 199.763 56.1426C199.303 54.3931 200.223 53.4723 199.947 51.6307ZM95.5769 27.3222C94.9784 27.3222 94.6561 27.3222 94.3338 26.9999C90.3285 27.9207 85.4023 28.2429 82.0414 29.7622C82.0414 29.44 81.7192 29.44 81.4429 29.44C82.3637 28.1969 83.883 27.5984 86.0468 27.5984C86.3691 27.5984 86.3691 26.9999 86.3691 26.9999C88.2107 26.9999 89.776 26.6776 91.8938 26.6776C92.2161 26.6776 92.2161 26.0791 92.2161 26.0791C94.3799 25.7568 96.5437 26.4014 97.1422 25.4806C97.7407 25.8029 98.6615 26.0791 99.9046 25.8029C100.503 24.5598 101.148 25.4806 102.345 25.8029C100.779 26.9999 97.0962 26.0791 95.5769 27.3222ZM147.279 33.4454C144.516 30.683 138.347 31.6038 135.585 29.1177C134.664 28.7954 135.585 29.7162 135.262 29.7162C134.664 29.7162 134.019 29.3939 134.019 28.7954C132.776 28.7954 131.257 29.1177 130.613 28.1969C130.29 28.5192 130.014 28.7954 129.369 28.5192C127.528 26.9999 123.845 28.5192 122.28 26.9999C119.517 27.9207 115.834 26.9999 113.348 26.4014C110.908 27.6444 108.099 26.0791 105.015 26.4014C105.015 23.6391 108.422 26.4014 109.02 25.4806C109.343 26.0791 111.184 25.4806 111.783 26.0791C112.105 26.0791 111.783 25.7568 111.783 25.4806C113.302 25.4806 113.946 26.4014 114.867 25.4806C117.307 26.0791 121.635 26.4014 123.799 26.0791C123.799 26.6776 125.042 26.0791 125.042 26.6776C125.364 26.6776 125.364 26.0791 125.64 26.3554C128.403 27.2761 131.487 27.2761 134.25 27.8746C137.657 28.4731 140.695 30.9592 144.7 30.637C145.621 32.8008 149.627 31.88 150.87 33.7216C151.468 34.0439 150.87 33.1231 151.468 33.3993C151.146 34.3201 151.79 34.3201 151.79 34.6424C150.363 34.6884 149.765 33.1691 147.279 33.4454ZM163.3 38.3715C161.781 38.3715 161.459 37.773 160.86 37.1285C157.776 36.8062 155.934 34.6884 153.172 34.0439C153.77 32.2023 155.612 34.0439 157.499 33.7216C157.177 35.5631 159.019 34.9646 160.262 35.2409C160.86 36.1617 161.505 36.7602 163.024 37.0824C163.622 38.924 166.431 38.6017 167.628 39.8448C166.063 41.1799 163.899 39.6146 163.3 38.3715Z" fill="#262A5E"/>
</svg>
