<?xml version="1.0" encoding="utf-8"?>
<!-- Generator: Adobe Illustrator 25.3.1, SVG Export Plug-In . SVG Version: 6.00 Build 0)  -->
<!DOCTYPE svg PUBLIC "-//W3C//DTD SVG 1.1//EN" "http://www.w3.org/Graphics/SVG/1.1/DTD/svg11.dtd" [
	<!ENTITY ns_extend "http://ns.adobe.com/Extensibility/1.0/">
	<!ENTITY ns_ai "http://ns.adobe.com/AdobeIllustrator/10.0/">
	<!ENTITY ns_graphs "http://ns.adobe.com/Graphs/1.0/">
	<!ENTITY ns_vars "http://ns.adobe.com/Variables/1.0/">
	<!ENTITY ns_imrep "http://ns.adobe.com/ImageReplacement/1.0/">
	<!ENTITY ns_sfw "http://ns.adobe.com/SaveForWeb/1.0/">
	<!ENTITY ns_custom "http://ns.adobe.com/GenericCustomNamespace/1.0/">
	<!ENTITY ns_adobe_xpath "http://ns.adobe.com/XPath/1.0/">
]>
<svg version="1.1" id="Layer_1" xmlns:x="&ns_extend;" xmlns:i="&ns_ai;" xmlns:graph="&ns_graphs;"
	 xmlns="http://www.w3.org/2000/svg" xmlns:xlink="http://www.w3.org/1999/xlink" x="0px" y="0px" viewBox="0 0 512 512"
	 style="enable-background:new 0 0 512 512;" xml:space="preserve">
<style type="text/css">
	.st0{fill:#2B373A;}
	.st1{fill:#FFF500;}
</style>
<metadata>
	<sfw  xmlns="&ns_sfw;">
		<slices></slices>
		<sliceSourceBounds  bottomLeftOrigin="true" height="512.1" width="511.6" x="0" y="-0.1"></sliceSourceBounds>
	</sfw>
</metadata>
<rect class="st0" width="511.6" height="512.1"/>
<g>
	<path class="st1" d="M117.1,322.5c9.3,21,21,37.4,35,53.7c16.3,14,32.7,25.7,53.7,35s44.4,11.7,70,11.7c28,0,51.4-4.7,74.7-14
		c23.3-9.3,42-23.3,58.4-42l-44.4-56c-11.7,11.7-23.3,23.3-39.7,30.4c-16.3,7-32.7,11.7-49,11.7c-14,0-25.7-2.3-37.4-7
		c-11.7-4.7-21-11.7-30.4-18.7c-9.3-9.3-16.3-18.7-21-30.4c-4.7-11.7-7-25.7-7-39.7c0-14,2.3-28,7-39.7c4.7-11.7,11.7-23.3,21-30.4
		c9.3-9.3,18.7-16.3,30.4-21s23.3-7,37.4-7c18.7,0,35,4.7,49,11.7c14,7,28,18.7,39.7,30.4l44.4-56c-16.3-18.7-35-32.7-58.4-42
		c-23.3-9.3-46.7-14-74.7-14c-25.7,0-46.7,4.7-70,11.7c-21,9.3-37.4,21-53.7,35c-16.3,14-28,32.7-35,53.7c-9.3,21-14,42-14,67.7
		C103.1,280.5,107.7,303.9,117.1,322.5"/>
</g>
</svg>
