<?xml version="1.0" encoding="utf-8"?>
<!-- Generator: Adobe Illustrator 25.3.1, SVG Export Plug-In . SVG Version: 6.00 Build 0)  -->
<!DOCTYPE svg PUBLIC "-//W3C//DTD SVG 1.1//EN" "http://www.w3.org/Graphics/SVG/1.1/DTD/svg11.dtd" [
	<!ENTITY ns_extend "http://ns.adobe.com/Extensibility/1.0/">
	<!ENTITY ns_ai "http://ns.adobe.com/AdobeIllustrator/10.0/">
	<!ENTITY ns_graphs "http://ns.adobe.com/Graphs/1.0/">
	<!ENTITY ns_vars "http://ns.adobe.com/Variables/1.0/">
	<!ENTITY ns_imrep "http://ns.adobe.com/ImageReplacement/1.0/">
	<!ENTITY ns_sfw "http://ns.adobe.com/SaveForWeb/1.0/">
	<!ENTITY ns_custom "http://ns.adobe.com/GenericCustomNamespace/1.0/">
	<!ENTITY ns_adobe_xpath "http://ns.adobe.com/XPath/1.0/">
]>
<svg version="1.1" id="Layer_1" xmlns:x="&ns_extend;" xmlns:i="&ns_ai;" xmlns:graph="&ns_graphs;"
	 xmlns="http://www.w3.org/2000/svg" xmlns:xlink="http://www.w3.org/1999/xlink" x="0px" y="0px" viewBox="0 0 512 512"
	 style="enable-background:new 0 0 512 512;" xml:space="preserve">
<style type="text/css">
	.st0{fill:url(#path201_1_);}
	.st1{fill:url(#path225_1_);}
	.st2{fill:url(#path249_1_);}
	.st3{fill:url(#path273_1_);}
</style>
<metadata>
	<sfw  xmlns="&ns_sfw;">
		<slices></slices>
		<sliceSourceBounds  bottomLeftOrigin="true" height="442.6" width="511" x="1" y="34.3"></sliceSourceBounds>
	</sfw>
</metadata>
<g>
	
		<radialGradient id="path201_1_" cx="-42.6184" cy="669.2368" r="5.939" gradientTransform="matrix(66.4069 0 0 -66.4069 3250.9773 44868.832)" gradientUnits="userSpaceOnUse">
		<stop  offset="0" style="stop-color:#FEDF33"/>
		<stop  offset="0.44" style="stop-color:#FBB809"/>
		<stop  offset="0.9" style="stop-color:#EE960D"/>
		<stop  offset="1" style="stop-color:#E17A10"/>
	</radialGradient>
	<path id="path201" class="st0" d="M324.8,35.1c-9.3,0-36.8,0-68.8,38.9l0,0c0.4,0.5,0.8,1,1.3,1.5l0,0c8.2-9.6,18.5-19.4,29.6-26.6
		l0,0c10.2-6.6,22.1-11,31.9-12.1l0,0c7.2-0.8,30.8-0.5,57.8-0.5l0,0c0.1,0,0.2,0.1,0.3,0.1l0,0l-0.7-1.2c0-0.1-0.1-0.2-0.3-0.2l0,0
		H324.8z"/>
	
		<radialGradient id="path225_1_" cx="-43.906" cy="674.1456" r="5.939" gradientTransform="matrix(66.4557 0 0 -66.4557 3235.637 44835.9102)" gradientUnits="userSpaceOnUse">
		<stop  offset="0" style="stop-color:#FEDF33"/>
		<stop  offset="0.44" style="stop-color:#FBB809"/>
		<stop  offset="0.9" style="stop-color:#EE960D"/>
		<stop  offset="1" style="stop-color:#E17A10"/>
	</radialGradient>
	<path id="path225" class="st1" d="M137.1,35.1c-0.1,0-0.2,0-0.3,0.1l0,0L36.6,208.9L5.1,263.3l-3.6,6.3L1,270.4c0,0.1,0,0.2,0,0.3
		l0,0l95.5,165.4v-0.7c-2.1-3.8-3.6-6.7-4.4-8.6l0,0c-4-9-6.3-21.6-5.7-33.7l0,0c1.6-32,18.6-63.6,27.2-78.4l0,0
		c20.1-34.8,58.9-102,58.9-102l0,0c0,0,38.8-67.3,58.9-102.1l0,0c8.6-14.8,27.4-45.4,54.4-62.8l0,0c10.2-6.6,22.2-10.9,32-12l0,0
		c7.2-0.8,31-0.8,58-0.8l0,0H137.1z"/>
	
		<radialGradient id="path249_1_" cx="-47.5071" cy="670.5607" r="5.939" gradientTransform="matrix(66.4293 0 0 -66.4293 3186.1345 44866.2383)" gradientUnits="userSpaceOnUse">
		<stop  offset="0" style="stop-color:#FEDF33"/>
		<stop  offset="0.44" style="stop-color:#FBB809"/>
		<stop  offset="0.9" style="stop-color:#EE960D"/>
		<stop  offset="1" style="stop-color:#E17A10"/>
	</radialGradient>
	<path id="path249" class="st2" d="M1.8,272.1c1.5,2.6,3,5.2,4.5,7.8l0,0L1.8,272.1z M482.2,320.5c-5.8,8-15.5,16.2-26.4,21.7l0,0
		c-28.6,14.6-64.4,15.7-81.5,15.7l0,0H256.5H138.7c-17.1,0-53-1.1-81.5-15.7l0,0c-10.8-5.5-20.5-13.8-26.4-21.7l0,0
		c-3.7-5.1-13.2-21.2-24.5-40.7l0,0l24,41.5l90.2,156.2c0,0.1,0.2,0.1,0.3,0.1l0,0h271.6c0.1,0,0.2-0.1,0.2-0.2l0,0l118.3-205
		C497.8,295.2,486.4,314.9,482.2,320.5"/>
	
		<radialGradient id="path273_1_" cx="-42.6166" cy="669.2448" r="5.939" gradientTransform="matrix(66.6153 0 0 -66.6153 3259.4768 45010.1289)" gradientUnits="userSpaceOnUse">
		<stop  offset="0" style="stop-color:#FEDF33"/>
		<stop  offset="0.44" style="stop-color:#FBB809"/>
		<stop  offset="0.9" style="stop-color:#EE960D"/>
		<stop  offset="1" style="stop-color:#D87301"/>
	</radialGradient>
	<path id="path273" class="st3" d="M317.9,35.9c-9.8,1.1-21.8,5.4-32,12l0,0c-11.3,7.3-21.1,16.9-29.4,26.6l0,0
		c11.5,13.6,20,27.5,24.9,36.1l0,0c20.1,34.8,58.9,102.1,58.9,102.1l0,0c0,0,38.8,67.3,58.9,102l0,0c8.5,14.8,25.6,46.4,27.2,78.4
		l0,0c0.6,12.2-1.7,24.7-5.6,33.7l0,0c-2.8,6.3-13.8,25.5-26.6,47.7l0,0L512,270.7c0,0,0,0,0-0.1l0,0v-0.1c0,0,0-0.1,0-0.1l0,0
		L376.2,35.2c0-0.1-0.1-0.2-0.3-0.2l0,0C348.9,35.1,325.1,35.1,317.9,35.9"/>
</g>
</svg>
