<svg width="200" height="200" viewBox="0 0 200 200" fill="none" xmlns="http://www.w3.org/2000/svg">
<rect width="200" height="200" fill="white"/>
<g clip-path="url(#clip0_1846_112098)">
<path d="M17.6363 0C13.3422 0.390371 11 3.73021 11 7.6773V163.869C11 168.033 13.6892 171.59 18.5038 171.59H31.0824C31.733 172.327 55.1553 198.699 55.6758 199.436C55.7945 199.604 55.9502 199.742 56.1306 199.839C56.3111 199.937 56.5117 199.992 56.7168 200H56.8469C56.9752 200.004 57.1029 199.982 57.2227 199.935C57.3425 199.889 57.4519 199.82 57.5446 199.731C57.6374 199.642 57.7117 199.536 57.7631 199.418C57.8146 199.301 57.8423 199.174 57.8445 199.046V171.59H181.375C185.583 171.59 188.792 168.901 189.53 165.431V6.15919C188.836 2.9061 186.016 0.346996 182.243 0.0433739L17.6363 0V0Z" fill="url(#paint0_linear_1846_112098)"/>
<path d="M152.054 90.5443H147.066V116.873H152.054V90.5443Z" fill="#0080AA"/>
<path d="M152.054 120.733H147.066V125.201H152.054V120.733Z" fill="#0080AA"/>
<path d="M161.683 73.6283C164.408 76.0283 167.898 77.3811 171.529 77.4452C176.387 77.4452 180.117 74.6693 180.117 69.3776C180.117 64.8232 176.257 63.1316 172.917 61.9605C170.185 61.0063 167.669 60.1388 167.669 58.2737C167.669 56.7989 168.883 55.7146 170.922 55.7146C172.83 55.7146 175.259 56.6254 177.471 58.1002L179.597 53.9362C177.104 52.1391 174.124 51.1409 171.052 51.0735C166.454 51.0735 162.767 53.9796 162.767 58.8375C162.767 63.6955 166.628 65.3004 170.011 66.3847C172.744 67.2956 175.216 67.9896 175.216 69.9414C175.216 71.633 173.915 72.8042 171.616 72.8042C169.317 72.8042 166.541 71.7198 164.025 69.6812L161.683 73.6283" fill="#0080AA"/>
<path d="M98.8767 73.6283C101.602 76.0283 105.092 77.3811 108.723 77.4452C113.581 77.4452 117.311 74.6693 117.311 69.3776C117.311 64.8232 113.451 63.1316 110.111 61.9605C107.378 61.0063 104.862 60.1388 104.862 58.2737C104.862 56.7989 106.077 55.7146 108.115 55.7146C110.024 55.7146 112.453 56.6254 114.665 58.1002L116.79 53.9362C114.297 52.1391 111.318 51.1409 108.246 51.0735C103.648 51.0735 99.9611 53.9796 99.9611 58.8375C99.9611 63.6955 103.821 65.3004 107.205 66.3847C109.937 67.2956 112.41 67.9896 112.41 69.9414C112.41 71.633 111.108 72.8042 108.809 72.8042C106.511 72.8042 103.735 71.7198 101.219 69.6812L98.8767 73.6283" fill="#0080AA"/>
<path d="M160.772 56.9291C159.992 56.5387 159.037 56.5821 158.04 56.5821C154.483 56.5821 152.141 60.6159 152.141 66.1245V77.0115H147.109V51.594H152.097V56.4086L152.661 55.5411C154.613 52.5049 157.042 51.1169 160.165 51.1169H160.729L160.772 56.9291V56.9291Z" fill="#0080AA"/>
<path d="M59.3626 50.5097C52.3793 50.5097 47.2178 56.4953 47.2178 63.7823V63.869C47.2178 71.0692 52.336 77.0115 59.2759 77.0115C66.2158 77.0115 71.4641 71.0258 71.4641 63.7823V63.6955C71.4208 56.452 66.3026 50.5097 59.3626 50.5097ZM66.2158 63.869C66.2158 68.2498 63.5266 71.9367 59.3193 71.9367C55.2854 71.9367 52.3793 68.1631 52.3793 63.7389V63.6521C52.3793 59.2279 55.0686 55.5845 59.2325 55.5845C63.3097 55.5845 66.2158 59.3147 66.2158 63.7823V63.869Z" fill="#0080AA"/>
<path d="M131.841 50.4663C124.858 50.4663 119.697 56.4519 119.697 63.7389V63.8256C119.697 71.0258 124.815 76.9681 131.755 76.9681C138.695 76.9681 143.943 70.9824 143.943 63.7389V63.6521C143.943 56.4086 138.825 50.4663 131.841 50.4663V50.4663ZM138.738 63.8256C138.738 68.2065 136.049 71.8933 131.841 71.8933C127.808 71.8933 124.901 68.1197 124.901 63.6955V63.6088C124.901 59.1845 127.591 55.5411 131.755 55.5411C135.832 55.5411 138.738 59.2713 138.738 63.7389V63.8256Z" fill="#0080AA"/>
<path d="M91.5031 77.0115V62.5244C91.5031 58.1002 89.291 55.5411 85.5175 55.5411C81.6571 55.5411 79.2715 58.3171 79.2715 62.6111V77.0115H74.2834V51.594H79.2715V56.8423L80.0956 55.4977C82.0909 52.4615 84.5198 51.0735 87.7296 51.0735C93.1514 51.0735 96.4045 54.6736 96.4045 60.7027V77.0115H91.5031Z" fill="#0080AA"/>
<path d="M96.5781 125.244V110.757C96.5781 106.333 94.366 103.774 90.5924 103.774C86.7321 103.774 84.3465 106.55 84.3465 110.844V125.244H79.3584V99.8265H84.3465V105.075L85.1706 103.73C87.1658 100.737 89.5948 99.306 92.8045 99.306C98.2263 99.306 101.479 102.906 101.479 108.935V125.244H96.5781Z" fill="#0080AA"/>
<path d="M44.3115 70.2017C42.2399 71.4317 39.8674 72.0623 37.4584 72.0234C31.5161 71.9801 25.4436 67.7293 25.4436 59.4448C25.4436 52.982 30.9522 47.6903 37.4584 47.6903C39.9047 47.6924 42.2933 48.4332 44.3115 49.8157L46.4803 44.4372C41.8826 42.1384 39.8873 42.1384 36.9812 42.1384C29.4775 42.1384 20.0652 48.9482 20.0652 59.4448C20.0652 72.1102 30.4751 77.5754 37.415 77.5754C42.0994 77.5754 43.791 76.7946 46.4803 75.45L44.3115 70.2017Z" fill="#0080AA"/>
<path d="M124.511 125.244L116.834 114.053L113.19 117.957V125.244H108.029V90.5443H113.19V111.364L123.817 99.8265H130.54L120.174 110.67L130.714 125.244H124.511Z" fill="#0080AA"/>
<path d="M60.8807 125.764C56.283 125.764 52.0757 123.032 52.0757 117.957C52.0757 112.492 55.7191 109.109 61.5747 109.109C63.8623 109.068 66.1389 109.435 68.2978 110.193V109.542C68.2978 105.986 66.3025 104.121 62.3555 104.121C60.0024 104.168 57.6843 104.7 55.5456 105.682L54.1143 101.475C56.92 100.092 60.0083 99.3795 63.1362 99.3928C69.599 99.3928 73.416 103.383 73.416 110.106V116.352C73.416 118.521 72.6786 121.557 69.3821 123.899C67.0399 125.548 63.7001 125.721 60.447 125.721L60.8807 125.764ZM62.7892 112.969C59.3626 112.969 56.6734 114.964 56.6734 117.567C56.6734 120.343 59.2759 121.557 61.6615 121.557C63.2229 121.557 68.3845 121.167 68.3845 115.875V114.053L68.2978 114.01C66.5433 113.32 64.6745 112.967 62.7892 112.969Z" fill="#0080AA"/>
<path d="M36.0704 125.764C29.9979 125.764 25.9641 123.466 22.8845 119.085V90.5443H27.9593V101.995L28.3063 101.778C29.304 101.214 32.2101 99.4361 35.9836 99.4361C43.3139 99.4361 48.2153 104.728 48.2153 112.579C48.3454 121.687 42.1862 125.764 36.0704 125.764V125.764ZM28.0027 117.87C30.2582 119.822 32.3835 120.95 35.5499 120.95C40.4078 120.95 43.4441 117.653 43.4441 112.579C43.4441 107.504 40.538 104.034 35.7668 104.034C31.7329 104.034 28.957 106.68 28.0027 107.374V117.87Z" fill="#0080AA"/>
<path d="M152.054 91.8456H147.066V118.174H152.054V91.8456Z" fill="#5CC1D6"/>
<path d="M152.054 122.078H147.066V126.545H152.054V122.078Z" fill="#5CC1D6"/>
<path d="M161.683 75.0163C164.408 77.4162 167.898 78.7691 171.529 78.8332C176.387 78.8332 180.117 76.0573 180.117 70.7656C180.117 66.2112 176.257 64.5196 172.917 63.3485C170.185 62.3943 167.669 61.5268 167.669 59.6617C167.669 58.1869 168.883 57.1026 170.922 57.1026C172.83 57.1026 175.259 58.0134 177.471 59.4882L179.597 55.3676C177.104 53.5705 174.124 52.5723 171.052 52.5049C166.454 52.5049 162.767 55.411 162.767 60.2689C162.767 65.1269 166.628 66.7317 170.011 67.8161C172.744 68.727 175.216 69.4209 175.216 71.3728C175.216 73.0644 173.915 74.2355 171.616 74.2355C169.317 74.2355 166.541 73.1945 164.025 71.1126L161.683 75.0163" fill="#5CC1D6"/>
<path d="M98.8767 75.0163C101.602 77.4162 105.092 78.7691 108.723 78.8332C113.581 78.8332 117.311 76.0573 117.311 70.7656C117.311 66.2112 113.451 64.5196 110.111 63.3485C107.378 62.3943 104.862 61.5268 104.862 59.6617C104.862 58.1869 106.077 57.1026 108.115 57.1026C110.024 57.1026 112.453 58.0134 114.665 59.4882L116.79 55.3676C114.297 53.5705 111.318 52.5723 108.246 52.5049C103.648 52.5049 99.9611 55.411 99.9611 60.2689C99.9611 65.1269 103.821 66.7317 107.205 67.8161C109.937 68.727 112.41 69.4209 112.41 71.3728C112.41 73.0644 111.108 74.2355 108.809 74.2355C106.511 74.2355 103.735 73.1945 101.219 71.1126L98.8767 75.0163" fill="#5CC1D6"/>
<path d="M160.772 58.2303C159.992 57.84 159.037 57.8833 158.04 57.8833C154.483 57.8833 152.141 61.9172 152.141 67.4257V78.3127H147.109V52.8953H152.097V57.7098L152.661 56.8424C154.613 53.8061 157.042 52.4182 160.165 52.4182H160.729L160.772 58.2303V58.2303Z" fill="#5CC1D6"/>
<path d="M59.3626 51.8109C52.3793 51.8109 47.2178 57.7966 47.2178 65.0835V65.1702C47.2178 72.3704 52.336 78.3127 59.2759 78.3127C66.2158 78.3127 71.4641 72.327 71.4641 65.0835V64.9967C71.4208 57.7532 66.3026 51.8109 59.3626 51.8109ZM66.2158 65.2136C66.2158 69.5944 63.5266 73.2813 59.3193 73.2813C55.2854 73.2813 52.3793 69.5077 52.3793 65.0835V64.9967C52.3793 60.5725 55.0686 56.9291 59.2325 56.9291C63.3097 56.9291 66.2158 60.6593 66.2158 65.1269V65.2136Z" fill="#5CC1D6"/>
<path d="M131.841 51.8109C124.858 51.8109 119.697 57.7966 119.697 65.0835V65.1702C119.697 72.4138 124.815 78.3127 131.755 78.3127C138.695 78.3127 143.943 72.327 143.943 65.0835V64.9967C143.943 57.7098 138.825 51.8109 131.841 51.8109V51.8109ZM138.738 65.1702C138.738 69.5511 136.049 73.2379 131.841 73.2379C127.808 73.2379 124.901 69.4643 124.901 65.0401V64.9534C124.901 60.5292 127.591 56.8857 131.755 56.8857C135.832 56.8857 138.738 60.6159 138.738 65.0835V65.1702Z" fill="#5CC1D6"/>
<path d="M91.5031 78.3127V63.8256C91.5031 59.4014 89.291 56.8423 85.5175 56.8423C81.6571 56.8423 79.2715 59.6183 79.2715 63.9124V78.3127H74.2834V52.8952H79.2715V58.1436L80.0956 56.799C82.0909 53.8061 84.5198 52.3748 87.7296 52.3748C93.1514 52.3748 96.4045 55.9748 96.4045 62.0039V78.3127H91.5031Z" fill="#5CC1D6"/>
<path d="M96.5781 126.545V112.058C96.5781 107.634 94.366 105.075 90.5924 105.075C86.7321 105.075 84.3465 107.851 84.3465 112.145V126.545H79.3584V101.128H84.3465V106.333L85.1706 104.988C87.1658 101.995 89.5948 100.564 92.8045 100.564C98.2263 100.564 101.479 104.164 101.479 110.193V126.502L96.5781 126.545V126.545Z" fill="#5CC1D6"/>
<path d="M44.3115 71.5029C42.2399 72.7329 39.8674 73.3636 37.4584 73.3247C31.5161 73.2379 25.4436 68.9872 25.4436 60.746C25.4436 54.2832 30.9522 48.9915 37.4584 48.9915C39.9047 48.9936 42.2933 49.7344 44.3115 51.1169L46.4803 45.7384C41.8826 43.4396 39.8873 43.4396 36.9812 43.4396C29.4775 43.4396 20.0652 50.2494 20.0652 60.746C20.0652 73.4114 30.4751 78.8766 37.415 78.8766C42.0994 78.8766 43.791 78.0959 46.4803 76.7512L44.3115 71.5029Z" fill="#5CC1D6"/>
<path d="M124.511 126.545L116.834 115.398L113.19 119.258V126.545H108.029V91.8456H113.19V112.665L123.817 101.128H130.54L120.174 111.971L130.714 126.545H124.511Z" fill="#5CC1D6"/>
<path d="M60.8807 127.066C56.283 127.066 52.0757 124.333 52.0757 119.258C52.0757 113.793 55.7191 110.367 61.5747 110.367C63.8608 110.347 66.1336 110.714 68.2978 111.451V110.844C68.2978 107.287 66.3025 105.422 62.3555 105.422C60.0024 105.469 57.6843 106.001 55.5456 106.983L54.1143 102.819C56.92 101.437 60.0083 100.724 63.1362 100.737C69.599 100.737 73.416 104.728 73.416 111.451V117.697C73.416 119.866 72.6786 122.902 69.3821 125.244C67.0399 126.892 63.7001 127.066 60.447 127.066H60.8807ZM62.7892 114.314C59.3626 114.314 56.6734 116.309 56.6734 118.911C56.6734 121.687 59.2759 122.902 61.6615 122.902C63.2229 122.902 68.3845 122.511 68.3845 117.176V115.355L68.2978 115.311C66.5405 114.636 64.6717 114.297 62.7892 114.314Z" fill="#5CC1D6"/>
<path d="M36.0704 127.066C29.9979 127.066 25.9641 124.767 22.8845 120.386V91.8456H27.9593V103.296L28.3063 103.08C29.304 102.516 32.2101 100.737 35.9836 100.737C43.3139 100.737 48.2153 106.029 48.2153 113.836C48.3454 122.989 42.1862 127.066 36.0704 127.066ZM28.0027 119.172C30.2582 121.123 32.3835 122.251 35.5499 122.251C40.4078 122.251 43.4441 118.955 43.4441 113.88C43.4441 108.805 40.538 105.335 35.7668 105.335C31.7329 105.335 28.957 107.981 28.0027 108.675V119.172Z" fill="#5CC1D6"/>
<path d="M152.054 91.195H147.066V117.523H152.054V91.195Z" fill="white"/>
<path d="M152.054 121.384H147.066V125.851H152.054V121.384Z" fill="white"/>
<path d="M161.683 74.3223C164.408 76.7223 167.898 78.0751 171.529 78.1392C176.387 78.1392 180.117 75.3633 180.117 70.0716C180.117 65.5172 176.257 63.8256 172.917 62.6545C170.185 61.7003 167.669 60.8328 167.669 58.9677C167.669 57.4929 168.883 56.4086 170.922 56.4086C172.83 56.4086 175.259 57.3195 177.471 58.7942L179.597 54.6736C177.104 52.8765 174.124 51.8783 171.052 51.8109C166.454 51.8109 162.767 54.717 162.767 59.5749C162.767 64.4329 166.628 66.0377 170.011 67.1221C172.744 68.033 175.216 68.727 175.216 70.6788C175.216 72.3704 173.915 73.5415 171.616 73.5415C169.317 73.5415 166.541 72.5005 164.025 70.4186L161.683 74.3223" fill="white"/>
<path d="M98.8767 74.3223C101.602 76.7223 105.092 78.0751 108.723 78.1392C113.581 78.1392 117.311 75.3633 117.311 70.0716C117.311 65.5172 113.451 63.8256 110.111 62.6545C107.378 61.7003 104.862 60.8328 104.862 58.9677C104.862 57.4929 106.077 56.4086 108.115 56.4086C110.024 56.4086 112.453 57.3195 114.665 58.7942L116.79 54.6736C114.297 52.8765 111.318 51.8783 108.246 51.8109C103.648 51.8109 99.9611 54.717 99.9611 59.5749C99.9611 64.4329 103.821 66.0377 107.205 67.1221C109.937 68.033 112.41 68.727 112.41 70.6788C112.41 72.3704 111.108 73.5415 108.809 73.5415C106.511 73.5415 103.735 72.5005 101.219 70.4186L98.8767 74.3223" fill="white"/>
<path d="M160.772 57.5797C159.992 57.1893 159.037 57.2327 158.04 57.2327C154.483 57.2327 152.141 61.2665 152.141 66.7751V77.7055H147.109V52.288H152.097V57.0592L152.661 56.1917C154.613 53.1555 157.042 51.7675 160.165 51.7675H160.729L160.772 57.5797V57.5797Z" fill="white"/>
<path d="M59.3626 51.1603C52.3793 51.1603 47.2178 57.146 47.2178 64.4329V64.5196C47.2178 71.7198 52.336 77.6621 59.2759 77.6621C66.2158 77.6621 71.4641 71.6764 71.4641 64.4329V64.3895C71.4208 57.0592 66.3026 51.1603 59.3626 51.1603ZM66.2158 64.563C66.2158 68.9438 63.5266 72.6307 59.3193 72.6307C55.2854 72.6307 52.3793 68.8571 52.3793 64.4329V64.3461C52.3793 59.9219 55.0686 56.2785 59.2325 56.2785C63.3097 56.2785 66.2158 60.0087 66.2158 64.4763V64.563Z" fill="white"/>
<path d="M131.841 51.1169C124.858 51.1169 119.697 57.1026 119.697 64.3895V64.4763C119.697 71.6764 124.815 77.6187 131.755 77.6187C138.695 77.6187 143.943 71.6331 143.943 64.3895V64.3028C143.943 57.0158 138.825 51.1169 131.841 51.1169V51.1169ZM138.738 64.5196C138.738 68.9005 136.049 72.5873 131.841 72.5873C127.808 72.5873 124.901 68.8137 124.901 64.3895V64.3028C124.901 59.8786 127.591 56.2351 131.755 56.2351C135.832 56.2351 138.738 59.9653 138.738 64.4329V64.5196Z" fill="white"/>
<path d="M91.5031 77.6621V63.175C91.5031 58.7508 89.291 56.1917 85.5175 56.1917C81.6571 56.1917 79.2715 58.9677 79.2715 63.2618V77.6621H74.2834V52.288H79.2715V57.5363L80.0956 56.1917C82.0909 53.1989 84.5198 51.7675 87.7296 51.7675C93.1514 51.7675 96.4045 55.3676 96.4045 61.3967V77.7055L91.5031 77.6621V77.6621Z" fill="white"/>
<path d="M96.5781 125.895V111.407C96.5781 106.983 94.366 104.424 90.5924 104.424C86.7321 104.424 84.3465 107.2 84.3465 111.494V125.895H79.3584V100.477H84.3465V105.725L85.1706 104.381C87.1658 101.388 89.5948 99.9566 92.8045 99.9566C98.2263 99.9566 101.479 103.557 101.479 109.586V125.895H96.5781Z" fill="white"/>
<path d="M44.3115 70.8957C42.2399 72.1257 39.8674 72.7563 37.4584 72.7174C31.5161 72.674 25.4436 68.4233 25.4436 60.1388C25.4436 53.676 30.9522 48.3843 37.4584 48.3843C39.9047 48.3864 42.2933 49.1272 44.3115 50.5096L46.4803 45.1312C41.8826 42.8324 39.8873 42.8324 36.9812 42.8324C29.4775 42.8324 20.0652 49.6422 20.0652 60.1388C20.0652 72.8042 30.4751 78.2694 37.415 78.2694C42.0994 78.2694 43.791 77.4886 46.4803 76.144L44.3115 70.8957Z" fill="white"/>
<path d="M124.511 125.895L116.834 114.747L113.19 118.651V125.895H108.029V91.195H113.19V112.015L123.817 100.477H130.54L120.174 111.364L130.714 125.895H124.511Z" fill="white"/>
<path d="M60.8807 126.415C56.283 126.415 52.0757 123.683 52.0757 118.608C52.0757 113.142 55.7191 109.759 61.5747 109.759C63.8623 109.719 66.1389 110.086 68.2978 110.844V110.193C68.2978 106.636 66.3025 104.771 62.3555 104.771C60.0024 104.819 57.6843 105.35 55.5456 106.333L54.1143 102.125C56.92 100.743 60.0083 100.03 63.1362 100.043C69.599 100.043 73.416 104.034 73.416 110.757V117.003C73.416 119.172 72.6786 122.208 69.3821 124.55C67.0399 126.198 63.7001 126.372 60.447 126.372L60.8807 126.415ZM62.7892 113.62C59.3626 113.62 56.6734 115.615 56.6734 118.217C56.6734 120.993 59.2759 122.208 61.6615 122.208C63.2229 122.208 68.3845 121.817 68.3845 116.482V114.661L68.2978 114.617C66.5405 113.942 64.6717 113.603 62.7892 113.62" fill="white"/>
<path d="M36.0704 126.415C29.9979 126.415 25.9641 124.116 22.8845 119.735V91.1516H27.9593V102.602L28.3063 102.386C29.304 101.822 32.2101 100.043 35.9836 100.043C43.3139 100.043 48.2153 105.335 48.2153 113.143C48.3454 122.338 42.1862 126.415 36.0704 126.415V126.415ZM28.0027 118.521C30.2582 120.473 32.3835 121.601 35.5499 121.601C40.4078 121.601 43.4441 118.304 43.4441 113.229C43.4441 108.154 40.538 104.684 35.7668 104.684C31.7329 104.684 28.957 107.33 28.0027 108.024V118.521Z" fill="white"/>
<path d="M68.0808 183.626C68.0808 183.488 68.1356 183.356 68.2333 183.258C68.3309 183.16 68.4633 183.106 68.6013 183.106C68.7393 183.106 68.8717 183.16 68.9693 183.258C69.067 183.356 69.1218 183.488 69.1218 183.626V187.356C69.6857 186.576 70.4664 185.838 71.7243 185.838C72.1738 185.845 72.6175 185.942 73.0288 186.123C73.4401 186.305 73.8106 186.567 74.1182 186.895C74.4258 187.223 74.6643 187.61 74.8194 188.032C74.9744 188.454 75.0429 188.902 75.0207 189.352V189.395C75.0207 191.65 73.4159 192.952 71.7243 192.952C71.2042 192.956 70.6918 192.827 70.2361 192.576C69.7804 192.325 69.3967 191.962 69.1218 191.52V192.344C69.1223 192.475 69.0734 192.601 68.985 192.698C68.8966 192.794 68.7751 192.854 68.6447 192.865C68.5096 192.856 68.3825 192.798 68.2868 192.702C68.1911 192.607 68.1333 192.479 68.1242 192.344L68.0808 183.626V183.626ZM73.9364 189.438C73.9364 187.79 72.8086 186.749 71.5508 186.749C70.8727 186.774 70.232 187.066 69.7688 187.562C69.3055 188.058 69.0573 188.717 69.0784 189.395V189.438C69.0645 189.775 69.1177 190.111 69.2348 190.427C69.352 190.743 69.5308 191.032 69.7609 191.279C69.9909 191.525 70.2676 191.723 70.5749 191.861C70.8822 191.999 71.2139 192.075 71.5508 192.084C72.8086 192.084 73.9364 191.087 73.9364 189.438" fill="#3F3A34"/>
<path d="M77.2763 194.773C77.1882 194.74 77.1122 194.68 77.0581 194.603C77.0039 194.526 76.9742 194.434 76.9727 194.34C76.9727 194.225 77.0184 194.114 77.0997 194.033C77.181 193.952 77.2914 193.906 77.4064 193.906C77.4931 193.906 77.5799 193.949 77.6666 193.949C77.9 194.046 78.1517 194.09 78.404 194.079C79.0546 194.079 79.4016 193.732 79.7486 192.865L79.792 192.735L76.9293 186.706C76.8872 186.624 76.8579 186.536 76.8425 186.445C76.8534 186.315 76.9131 186.194 77.0095 186.105C77.106 186.017 77.2322 185.968 77.363 185.968C77.6233 185.968 77.7534 186.142 77.8835 186.359L80.2691 191.737L82.3945 186.315C82.4279 186.215 82.4919 186.128 82.5774 186.065C82.663 186.003 82.7658 185.969 82.8716 185.968C83.0002 185.975 83.1225 186.026 83.2174 186.113C83.3124 186.201 83.3741 186.318 83.3921 186.445C83.3921 186.532 83.3487 186.619 83.3487 186.706L80.6595 193.082C80.0522 194.47 79.4016 194.99 78.3606 194.99C77.988 194.994 77.6187 194.92 77.2763 194.773" fill="#3F3A34"/>
<path d="M90.8959 184.103C90.905 183.968 90.9628 183.841 91.0585 183.745C91.1542 183.65 91.2814 183.592 91.4164 183.583H94.843C95.2756 183.553 95.7097 183.611 96.1195 183.753C96.5293 183.894 96.9065 184.117 97.2286 184.407C97.4258 184.598 97.5815 184.827 97.686 185.081C97.7905 185.335 97.8415 185.607 97.8358 185.882V185.925C97.8345 186.392 97.6933 186.849 97.4305 187.235C97.1677 187.622 96.7952 187.921 96.3611 188.094C97.4888 188.397 98.3563 189.048 98.3563 190.349V190.393C98.3563 191.997 97.0551 192.908 94.9731 192.908H91.373C91.238 192.899 91.1109 192.841 91.0151 192.746C90.9194 192.65 90.8617 192.523 90.8525 192.388L90.8959 184.103V184.103ZM94.6261 187.703C95.884 187.703 96.7515 187.139 96.7515 186.055V186.012C96.7515 185.101 96.0141 184.494 94.7129 184.494H91.8935V187.703H94.6261ZM95.0599 191.911C96.4479 191.911 97.3587 191.303 97.3587 190.262V190.219C97.3587 189.221 96.5346 188.614 94.8864 188.614H91.9803V191.867L95.0599 191.911V191.911Z" fill="#3F3A34"/>
<path d="M101.262 184.06C101.271 183.925 101.329 183.798 101.425 183.702C101.521 183.606 101.648 183.548 101.783 183.539H101.956C102.062 183.54 102.166 183.568 102.257 183.621C102.349 183.675 102.424 183.751 102.477 183.843L108.072 191V184.016C108.081 183.881 108.139 183.754 108.235 183.659C108.33 183.563 108.458 183.505 108.593 183.496C108.723 183.507 108.845 183.567 108.933 183.663C109.021 183.759 109.07 183.886 109.07 184.016V192.344C109.069 192.471 109.018 192.591 108.929 192.681C108.84 192.77 108.719 192.82 108.593 192.822H108.549C108.439 192.816 108.33 192.786 108.233 192.734C108.135 192.681 108.051 192.607 107.985 192.518L102.26 185.231V192.388C102.26 192.526 102.205 192.658 102.108 192.756C102.01 192.853 101.878 192.908 101.739 192.908C101.601 192.908 101.469 192.853 101.371 192.756C101.274 192.658 101.219 192.526 101.219 192.388L101.262 184.06Z" fill="#3F3A34"/>
<path d="M112.496 184.103C112.505 183.968 112.563 183.841 112.659 183.745C112.755 183.65 112.882 183.592 113.017 183.583H115.966C118.048 183.583 119.436 184.71 119.436 186.489V186.532C119.436 188.527 117.745 189.568 115.793 189.568H113.537V192.388C113.537 192.526 113.482 192.658 113.385 192.756C113.287 192.853 113.155 192.908 113.017 192.908C112.879 192.908 112.746 192.853 112.649 192.756C112.551 192.658 112.496 192.526 112.496 192.388V184.103V184.103ZM115.793 188.614C117.311 188.614 118.309 187.79 118.309 186.576V186.532C118.309 185.231 117.311 184.537 115.836 184.537H113.494V188.614H115.793Z" fill="#3F3A34"/>
<path d="M126.897 184.103C126.906 183.968 126.964 183.841 127.059 183.745C127.155 183.65 127.282 183.592 127.417 183.583H130.367C132.449 183.583 133.837 184.71 133.837 186.489V186.532C133.837 188.527 132.145 189.568 130.193 189.568H127.938V192.388C127.938 192.456 127.924 192.524 127.898 192.587C127.872 192.65 127.834 192.707 127.785 192.756C127.737 192.804 127.68 192.842 127.616 192.869C127.553 192.895 127.486 192.908 127.417 192.908C127.349 192.908 127.281 192.895 127.218 192.869C127.155 192.842 127.098 192.804 127.049 192.756C127.001 192.707 126.963 192.65 126.936 192.587C126.91 192.524 126.897 192.456 126.897 192.388V184.103V184.103ZM130.237 188.614C131.755 188.614 132.752 187.79 132.752 186.576V186.532C132.752 185.231 131.755 184.537 130.28 184.537H127.938V188.614H130.237Z" fill="#3F3A34"/>
<path d="M135.095 192.171L138.868 183.973C138.922 183.836 139.018 183.719 139.143 183.641C139.268 183.563 139.415 183.527 139.562 183.539H139.649C139.788 183.54 139.924 183.582 140.039 183.659C140.155 183.736 140.245 183.845 140.3 183.973L144.073 192.171C144.115 192.253 144.144 192.341 144.16 192.431C144.159 192.559 144.111 192.683 144.026 192.779C143.941 192.875 143.824 192.936 143.696 192.952C143.569 192.968 143.44 192.937 143.334 192.865C143.228 192.793 143.151 192.685 143.119 192.561L142.165 190.436H137.09L136.136 192.605C136.105 192.716 136.036 192.812 135.94 192.875C135.845 192.939 135.729 192.966 135.615 192.952C135.489 192.951 135.368 192.9 135.279 192.811C135.19 192.721 135.139 192.601 135.138 192.475C135.008 192.344 135.008 192.258 135.095 192.171V192.171ZM141.644 189.438L139.519 184.71L137.393 189.438H141.644Z" fill="#3F3A34"/>
<path d="M146.849 184.103C146.858 183.968 146.916 183.841 147.012 183.745C147.107 183.65 147.235 183.592 147.37 183.583H150.796C151.762 183.541 152.707 183.866 153.442 184.494C153.917 184.981 154.181 185.635 154.179 186.315V186.359C154.179 187.877 153.138 188.744 151.707 189.048L154.006 191.997C154.106 192.086 154.169 192.211 154.179 192.344C154.17 192.479 154.113 192.607 154.017 192.702C153.921 192.798 153.794 192.856 153.659 192.865C153.566 192.858 153.475 192.831 153.392 192.786C153.31 192.741 153.238 192.679 153.182 192.605L150.579 189.221H147.933V192.344C147.933 192.482 147.879 192.615 147.781 192.712C147.683 192.81 147.551 192.865 147.413 192.865C147.275 192.865 147.143 192.81 147.045 192.712C146.947 192.615 146.892 192.482 146.892 192.344V184.103H146.849ZM150.709 188.311C152.097 188.311 153.095 187.573 153.095 186.402V186.359C153.095 185.188 152.228 184.537 150.753 184.537H147.89V188.311H150.709Z" fill="#3F3A34"/>
<path d="M157.259 184.016C157.259 183.878 157.314 183.746 157.411 183.648C157.509 183.551 157.641 183.496 157.78 183.496C157.918 183.496 158.05 183.551 158.148 183.648C158.245 183.746 158.3 183.878 158.3 184.016V192.344C158.3 192.482 158.245 192.615 158.148 192.712C158.05 192.81 157.918 192.865 157.78 192.865C157.641 192.865 157.509 192.81 157.411 192.712C157.314 192.615 157.259 192.482 157.259 192.344V184.016Z" fill="#3F3A34"/>
<path d="M161.857 184.103C161.866 183.968 161.924 183.841 162.019 183.745C162.115 183.65 162.242 183.592 162.377 183.583H165.804C166.677 183.531 167.534 183.827 168.189 184.407C168.386 184.598 168.542 184.827 168.647 185.081C168.751 185.335 168.802 185.607 168.797 185.882V185.925C168.795 186.392 168.654 186.849 168.391 187.235C168.128 187.622 167.756 187.921 167.322 188.094C168.406 188.397 169.317 189.048 169.317 190.349V190.393C169.317 191.997 168.016 192.908 165.934 192.908H162.334C162.199 192.899 162.072 192.841 161.976 192.746C161.88 192.65 161.822 192.523 161.813 192.388V184.103H161.857ZM165.587 187.703C166.845 187.703 167.712 187.139 167.712 186.055V186.012C167.712 185.101 166.975 184.494 165.674 184.494H162.854V187.703H165.587ZM165.977 191.911C167.365 191.911 168.276 191.303 168.276 190.262V190.219C168.276 189.221 167.452 188.614 165.847 188.614H162.941V191.867L165.977 191.911V191.911Z" fill="#3F3A34"/>
<path d="M171.616 192.171L175.39 183.973C175.443 183.836 175.54 183.719 175.665 183.641C175.79 183.563 175.937 183.527 176.084 183.539H176.127C176.266 183.54 176.402 183.582 176.517 183.659C176.633 183.736 176.723 183.845 176.778 183.973L180.551 192.171C180.583 192.254 180.598 192.342 180.594 192.431C180.594 192.554 180.549 192.673 180.468 192.765C180.387 192.857 180.275 192.917 180.153 192.933C180.031 192.949 179.907 192.92 179.805 192.852C179.703 192.783 179.629 192.68 179.597 192.561L178.643 190.436H173.568L172.614 192.605C172.583 192.715 172.514 192.812 172.418 192.875C172.323 192.939 172.207 192.966 172.093 192.952C171.967 192.95 171.846 192.9 171.757 192.811C171.668 192.721 171.617 192.601 171.616 192.475C171.594 192.427 171.583 192.375 171.583 192.323C171.583 192.27 171.594 192.219 171.616 192.171V192.171ZM178.166 189.438L176.04 184.71L173.915 189.438H178.166Z" fill="#3F3A34"/>
<path d="M182.85 191.694C182.787 191.649 182.735 191.591 182.697 191.523C182.66 191.456 182.638 191.381 182.633 191.303C182.642 191.168 182.7 191.041 182.796 190.945C182.891 190.85 183.019 190.792 183.154 190.783C183.211 190.777 183.269 190.786 183.322 190.808C183.375 190.831 183.422 190.867 183.457 190.913C184.255 191.628 185.293 192.015 186.363 191.997C187.621 191.997 188.445 191.347 188.445 190.436C188.445 189.612 187.968 189.091 186.06 188.658C183.934 188.18 182.937 187.486 182.937 185.968V185.925C182.937 184.494 184.238 183.409 185.973 183.409C187.03 183.378 188.067 183.698 188.922 184.32C188.996 184.368 189.057 184.432 189.103 184.507C189.148 184.582 189.175 184.667 189.183 184.754C189.173 184.889 189.116 185.016 189.02 185.112C188.924 185.207 188.797 185.265 188.662 185.274C188.555 185.272 188.451 185.242 188.358 185.188C187.673 184.667 186.833 184.392 185.973 184.407C184.758 184.407 184.021 185.057 184.021 185.882V185.925C184.021 186.792 184.498 187.27 186.537 187.747C188.575 188.224 189.53 188.961 189.53 190.393V190.436C189.53 192.041 188.228 193.038 186.363 193.038C185.075 192.994 183.839 192.521 182.85 191.694" fill="#3F3A34"/>
</g>
<defs>
<linearGradient id="paint0_linear_1846_112098" x1="100.265" y1="0" x2="100.265" y2="200" gradientUnits="userSpaceOnUse">
<stop stop-color="#5CC1D6"/>
<stop offset="1" stop-color="#0080AA"/>
</linearGradient>
<clipPath id="clip0_1846_112098">
<rect width="178.53" height="200" fill="white" transform="translate(11)"/>
</clipPath>
</defs>
</svg>
