<?xml version="1.0" encoding="utf-8"?>
<!-- Generator: Adobe Illustrator 25.3.1, SVG Export Plug-In . SVG Version: 6.00 Build 0)  -->
<!DOCTYPE svg PUBLIC "-//W3C//DTD SVG 1.1//EN" "http://www.w3.org/Graphics/SVG/1.1/DTD/svg11.dtd" [
	<!ENTITY ns_extend "http://ns.adobe.com/Extensibility/1.0/">
	<!ENTITY ns_ai "http://ns.adobe.com/AdobeIllustrator/10.0/">
	<!ENTITY ns_graphs "http://ns.adobe.com/Graphs/1.0/">
	<!ENTITY ns_vars "http://ns.adobe.com/Variables/1.0/">
	<!ENTITY ns_imrep "http://ns.adobe.com/ImageReplacement/1.0/">
	<!ENTITY ns_sfw "http://ns.adobe.com/SaveForWeb/1.0/">
	<!ENTITY ns_custom "http://ns.adobe.com/GenericCustomNamespace/1.0/">
	<!ENTITY ns_adobe_xpath "http://ns.adobe.com/XPath/1.0/">
]>
<svg version="1.1" id="Layer_1" xmlns:x="&ns_extend;" xmlns:i="&ns_ai;" xmlns:graph="&ns_graphs;"
	 xmlns="http://www.w3.org/2000/svg" xmlns:xlink="http://www.w3.org/1999/xlink" x="0px" y="0px" viewBox="0 0 512 512"
	 style="enable-background:new 0 0 512 512;" xml:space="preserve">
<style type="text/css">
	.st0{fill:url(#SVGID_1_);}
	.st1{fill:#F9B233;}
</style>
<metadata>
	<sfw  xmlns="&ns_sfw;">
		<slices></slices>
		<sliceSourceBounds  bottomLeftOrigin="true" height="394.1" width="369.5" x="71.3" y="59"></sliceSourceBounds>
	</sfw>
</metadata>
<g>
	<linearGradient id="SVGID_1_" gradientUnits="userSpaceOnUse" x1="86.9513" y1="320.7941" x2="440.7338" y2="320.7941">
		<stop  offset="0" style="stop-color:#EA571B"/>
		<stop  offset="1" style="stop-color:#F9B233"/>
	</linearGradient>
	<path class="st0" d="M403.7,318.7c-74.9,77.9-175.9,102.2-225.7,54.4c-40.9-39.3-34.4-115,10.6-184C102,247.4,63.2,341.9,102,403
		c39.7,62.6,145.9,66.4,237.1,8.4c48.1-30.6,86-71,98.3-113.9c7.8-27,0.2-20.9-4.8-13.8C424.1,295.7,414.5,307.4,403.7,318.7z"/>
	<path class="st1" d="M165.5,396.7c-52.5-81.2,1.7-209.5,120.9-286.5c32-20.7,65.5-35.6,98.3-44.7c4.9-1.4,7.9-6.5-4.3-6.5
		c-60.6,0.2-132.1,21.2-195.8,72.4C80.7,214.8,40.4,336.4,96.8,406.7c30.8,38.4,83.6,52.6,142.1,43.9
		C207.9,440.7,182.3,422.7,165.5,396.7z"/>
	
		<ellipse transform="matrix(0.8437 -0.5369 0.5369 0.8437 -26.4399 231.6688)" class="st1" cx="384.6" cy="161.2" rx="41.6" ry="19.7"/>
</g>
</svg>
