<svg width="200" height="200" viewBox="0 0 200 200" fill="none" xmlns="http://www.w3.org/2000/svg">
<rect width="200" height="200" fill="white"/>
<path d="M99.5823 112.454C67.5957 112.454 35.6091 112.454 3.62251 112.506C2.10184 112.506 1.57747 112.244 1.6299 110.619C1.78721 106.686 1.73478 102.753 1.6299 98.8202C1.57747 97.6142 2.0494 97.2471 3.09814 97.0898C12.9563 95.307 22.8145 93.6814 32.6726 92.2132C43.4222 90.6401 54.2242 89.3291 64.9738 88.1231C65.8128 88.0182 66.3896 88.228 67.0713 88.6999C75.3564 94.6777 84.6902 97.6142 94.9154 97.2996C106.242 96.8801 116.047 92.7375 124.228 84.872C125.381 83.7184 126.535 83.2464 128.16 83.194C142.423 82.6172 156.634 82.0404 170.897 81.7782C179.339 81.6209 187.781 81.6209 196.224 81.516C197.272 81.516 197.587 81.7258 197.587 82.827C197.535 92.2656 197.535 101.652 197.587 111.091C197.587 112.664 196.801 112.506 195.804 112.506C163.765 112.454 131.674 112.454 99.5823 112.454Z" fill="#1CADCE"/>
<path d="M67.0195 55.8219C67.0195 36.9446 82.1738 22 101.261 22C119.666 22 134.873 37.3641 134.873 55.8743C134.873 74.8565 119.614 89.8011 100.369 89.8011C82.069 89.8011 67.0195 74.437 67.0195 55.8219Z" fill="#1BACCE"/>
<path d="M189.145 152.096C195.699 153.46 200.052 158.284 199.999 163.685C199.894 171.708 195.804 176.112 187.729 177.109C185.16 177.423 182.59 177.528 180.021 177.581C171.106 177.633 162.14 177.581 153.225 177.633C151.915 177.633 151.652 177.266 151.652 176.008C151.705 160.276 151.705 144.598 151.652 128.867C151.652 127.661 151.915 127.241 153.225 127.241C163.765 127.294 174.305 127.294 184.845 127.346C187.31 127.346 189.774 127.923 192.029 128.919C196.591 130.859 198.951 134.32 199.055 139.302C199.16 144.598 197.168 148.583 192.239 150.89C191.767 151.1 191.242 151.31 190.718 151.467C190.298 151.677 189.879 151.834 189.145 152.096ZM169.324 161.902C169.324 163.318 169.324 164.681 169.324 166.097C169.324 166.569 169.166 167.146 169.953 167.093C172.365 166.988 174.777 167.408 177.137 166.726C179.968 165.94 181.332 164.104 181.122 161.325C180.965 158.913 179.287 157.34 176.455 157.13C174.41 156.973 172.365 157.025 170.372 156.92C169.481 156.868 169.271 157.235 169.324 158.074C169.324 159.333 169.324 160.643 169.324 161.902ZM172.942 146.485C174.095 146.433 175.511 146.486 176.875 146.118C179.444 145.437 180.807 143.759 180.702 141.452C180.598 139.039 179.024 137.466 176.35 137.047C174.41 136.732 172.47 136.837 170.53 136.785C169.533 136.732 169.166 137.047 169.219 138.043C169.271 139.721 169.219 141.399 169.219 143.025C169.324 146.485 169.324 146.485 172.942 146.485Z" fill="#182B58"/>
<path d="M92.8185 152.883C92.8185 147.429 93.6051 142.71 95.9123 138.305C98.8488 132.799 103.516 129.443 109.389 127.766C116.468 125.773 123.651 125.773 130.73 127.923C140.064 130.754 145.99 138.253 146.881 147.954C147.301 152.568 147.196 157.078 145.937 161.535C143.735 169.348 138.701 174.487 130.993 176.847C123.442 179.101 115.786 179.154 108.287 176.689C99.3732 173.753 94.6538 167.198 93.238 158.074C92.9234 156.186 92.7661 154.246 92.8185 152.883ZM112.43 152.306C112.43 155.61 112.587 158.861 113.898 161.954C114.999 164.524 116.782 166.202 119.771 166.254C122.708 166.307 124.805 164.943 126.011 162.269C126.85 160.381 127.165 158.389 127.322 156.344C127.637 152.044 127.637 147.744 126.221 143.601C125.067 140.35 122.97 138.672 120.033 138.62C117.044 138.568 114.947 140.193 113.741 143.444C112.64 146.276 112.43 149.265 112.43 152.306Z" fill="#172B58"/>
<path d="M46.0972 162.951C49.3483 164.157 52.4946 165.153 55.7981 165.625C59.6784 166.202 63.6112 166.569 67.4915 165.782C69.1171 165.468 70.8475 165.048 71.2146 163.003C71.4243 161.692 70.2707 160.539 67.8586 159.857C64.9221 159.07 61.8808 158.494 58.9443 157.707C55.6408 156.868 52.4421 155.714 49.8727 153.355C43.1608 147.22 44.4193 135.054 52.2324 130.282C56.7944 127.503 61.8808 126.769 67.0721 126.455C73.2596 126.088 79.4472 126.717 85.5299 127.818C86.5786 128.028 86.9457 128.395 86.8932 129.443C86.7884 132.852 86.8408 136.208 86.8932 139.616C86.9457 140.927 86.5786 140.98 85.425 140.613C80.3386 138.935 75.0425 138.305 69.6939 138.62C68.6452 138.672 67.6489 138.83 66.705 139.197C65.4989 139.616 64.5551 140.193 64.4502 141.609C64.3453 143.025 65.3416 143.706 66.4428 144.231C68.8025 145.227 71.3195 145.542 73.784 146.066C76.2485 146.59 78.7131 147.167 81.0727 148.111C86.1591 150.156 89.3578 153.774 89.9346 159.385C90.5114 165.52 88.8334 170.816 83.38 174.33C78.7655 177.318 73.5218 178.21 68.1208 178.367C61.2515 178.577 54.4872 177.895 47.7752 176.427C46.4119 176.165 45.9924 175.588 46.0448 174.225C46.1497 170.554 46.0972 166.831 46.0972 162.951Z" fill="#182C58"/>
<path d="M19.6689 127.503C16.7325 126.612 14.0582 125.72 11.6461 124.2C9.60102 122.889 9.60102 122.889 11.3839 121.211C12.2753 120.372 13.2716 119.585 14.1106 118.694C14.8447 117.907 15.2642 117.907 16.1556 118.694C22.3957 124.41 31.3099 125.353 38.2316 121.211C39.0182 120.739 39.7523 120.215 40.434 119.585C41.1157 118.956 41.4827 119.533 41.9022 119.848C42.5839 120.319 42.0595 120.686 41.7449 121.001C39.8047 122.994 37.4975 124.462 35.033 125.668C34.561 125.878 33.9842 125.93 33.6172 126.507C36.1342 126.926 38.5987 127.346 41.0632 127.713C42.112 127.87 42.5839 128.185 42.5839 129.443C42.479 133.376 42.5315 137.309 42.5315 141.347C39.8047 140.56 37.2878 139.721 34.561 139.564C31.677 139.354 28.8454 139.669 26.2236 140.822C20.7701 143.234 18.358 148.478 19.5116 155.243C20.4555 160.644 24.7553 164.419 30.471 164.891C34.194 165.206 37.7597 164.681 41.273 163.475C42.3742 163.108 42.6888 163.265 42.6363 164.419C42.5839 168.09 42.5839 171.76 42.6363 175.378C42.6363 176.06 42.5315 176.479 41.7974 176.689C32.1489 179.101 22.6578 179.573 13.4814 175.011C5.19631 170.921 1.00135 163.947 0.162355 154.875C-0.362016 149.37 0.319664 144.021 3.15126 139.144C6.50723 133.429 11.6461 130.02 17.8336 128.028C18.358 127.87 18.8824 127.713 19.6689 127.503Z" fill="#182C58"/>
</svg>
