<svg width="200" height="200" viewBox="0 0 200 200" fill="none" xmlns="http://www.w3.org/2000/svg">
<rect width="200" height="200" fill="white"/>
<path d="M117.167 179.448C160.473 179.655 200 144.13 200 100.913C200 53.6517 160.473 20.9843 117.167 21H79.8969C36.0721 20.9843 0 53.6614 0 100.913C0 144.14 36.0721 179.656 79.8969 179.448H117.167Z" fill="#0079BE"/>
<path d="M80.0732 27.5486C40.0273 27.5611 7.57681 60.021 7.56738 100.083C7.57681 140.138 40.0269 172.595 80.0732 172.607C120.128 172.595 152.586 140.138 152.591 100.083C152.585 60.021 120.128 27.5611 80.0732 27.5486ZM34.1137 100.083C34.1515 80.5064 46.3778 63.8128 63.6184 57.179V142.977C46.3778 136.347 34.1512 119.662 34.1137 100.083ZM96.5216 142.996V57.1762C113.769 63.7939 126.014 80.497 126.045 100.083C126.014 119.675 113.769 136.365 96.5216 142.996Z" fill="white"/>
<path d="M117.167 179.448C160.473 179.655 200 144.13 200 100.913C200 53.6517 160.473 20.9843 117.167 21H79.8969C36.0721 20.9843 0 53.6614 0 100.913C0 144.14 36.0721 179.656 79.8969 179.448H117.167Z" fill="#0079BE"/>
<path d="M80.0732 27.5486C40.0273 27.5611 7.57681 60.021 7.56738 100.083C7.57681 140.138 40.0269 172.595 80.0732 172.607C120.128 172.595 152.586 140.138 152.591 100.083C152.585 60.021 120.128 27.5611 80.0732 27.5486ZM34.1137 100.083C34.1515 80.5064 46.3778 63.8128 63.6184 57.179V142.977C46.3778 136.347 34.1512 119.662 34.1137 100.083ZM96.5216 142.996V57.1762C113.769 63.7939 126.014 80.497 126.045 100.083C126.014 119.675 113.769 136.365 96.5216 142.996Z" fill="white"/>
</svg>
