<?xml version="1.0" encoding="utf-8"?>
<!-- Generator: Adobe Illustrator 25.3.1, SVG Export Plug-In . SVG Version: 6.00 Build 0)  -->
<!DOCTYPE svg PUBLIC "-//W3C//DTD SVG 1.1//EN" "http://www.w3.org/Graphics/SVG/1.1/DTD/svg11.dtd" [
	<!ENTITY ns_extend "http://ns.adobe.com/Extensibility/1.0/">
	<!ENTITY ns_ai "http://ns.adobe.com/AdobeIllustrator/10.0/">
	<!ENTITY ns_graphs "http://ns.adobe.com/Graphs/1.0/">
	<!ENTITY ns_vars "http://ns.adobe.com/Variables/1.0/">
	<!ENTITY ns_imrep "http://ns.adobe.com/ImageReplacement/1.0/">
	<!ENTITY ns_sfw "http://ns.adobe.com/SaveForWeb/1.0/">
	<!ENTITY ns_custom "http://ns.adobe.com/GenericCustomNamespace/1.0/">
	<!ENTITY ns_adobe_xpath "http://ns.adobe.com/XPath/1.0/">
]>
<svg version="1.1" id="Слой_1" xmlns:x="&ns_extend;" xmlns:i="&ns_ai;" xmlns:graph="&ns_graphs;"
	 xmlns="http://www.w3.org/2000/svg" xmlns:xlink="http://www.w3.org/1999/xlink" x="0px" y="0px" viewBox="0 0 256 256"
	 style="enable-background:new 0 0 256 256;" xml:space="preserve">
<style type="text/css">
	.st0{fill:#245A64;}
	.st1{fill:#CAE7EA;}
</style>
<metadata>
	<sfw  xmlns="&ns_sfw;">
		<slices></slices>
		<sliceSourceBounds  bottomLeftOrigin="true" height="256" width="256" x="0" y="0.1"></sliceSourceBounds>
	</sfw>
</metadata>
<rect y="-0.1" class="st0" width="256" height="256"/>
<path class="st1" d="M117.9,57.1c-21.3-13.8-45.7-27.5-66.5-34C73.9,33.2,95.2,45.6,115.1,60C116,59,116.9,58,117.9,57.1z
	 M193.3,119.3c-1.3-1.4-2.6-2.8-4.1-4.1c1.3-1.5,2.5-3,3.7-4.5c19.8-24.3,31.3-54.2,32.9-85.5c0,0-57-5.3-98.8,31.3
	c-1.4,1.2-2.8,2.5-4.1,3.8c-1.1,1-2.1,2.1-3.1,3.1l-4.1,4.4c-21.4,25.4-24.6,54-13.8,83.2c0.6,1.6,1.2,3.2,1.9,4.8l0.2,0.6
	c-1.7,0.6-3.5,1.1-5.5,1.6h-0.2c-14.6,4.1-34,6.2-39.2-2.2c-6.1-9.8,2.8-31.5,35.5-63.2c-10.9,4.1-68,45.6-77.7,88.8
	c29.9,3.6,60.3-0.1,88.4-10.8l5.5-2.1c1,1.7,2.1,3.3,3.3,5c8.8,12.6,19.8,23.5,32.6,32.2c22.4,15.4,52.9,26.5,91.4,27.3
	C241.6,200.1,235.9,165.2,193.3,119.3z M196.7,187c-0.4,0.4-0.9,0.7-1.3,1.1c-0.6,0.4-1.3,0.8-1.9,1.1c-0.8,0.4-1.7,0.8-2.6,1.1
	c-6.6,1.4-13.4,1.2-19.9-0.7c-15.2-4.5-29.1-12.5-40.5-23.4c-0.9-0.9-1.8-1.9-2.6-2.8c-4.5-4.9-8.1-10.6-10.8-16.7
	c-5.9-14.3-16.8-48.9,4.4-74.6c1.3-1.4,2.6-2.8,4.1-4.1l4.5,3.6c14.7,12,28.3,25.2,40.7,39.5c2.2-2.5,4.2-5.3,5.9-8.1
	c-3.8-3.6-6.9-6.6-11.2-10.3c-10.1-8.7-20.6-16.8-31.6-24.4l-5-3.5c1.6-1.3,3.2-2.6,4.9-3.7c16.7-10.7,39.9-13.1,50.1-2.8
	c8.9,8.8,8.8,27.1,0.5,43.9c-0.9,1.8-1.8,3.5-2.9,5.3c-1.9,3-4,5.9-6.3,8.6c-1.3,1.4-2.6,2.8-4.1,4.1c-1.4,1.3-2.5,2.4-3.8,3.5
	c-12.5,10.8-26.6,19.5-41.8,25.8c1.7,2.8,3.7,5.6,5.7,8.1c0.3,0.3,0.5,0.7,0.9,0.9c5.5-2.8,10.2-5.5,15.8-8.9
	c10.5-6.4,20.4-13.9,29.4-22.3l4.1-4.1l3.7,4.7l0.7,0.9c11.5,14.7,24.4,46.4,11,58.1C196.8,186.9,196.7,187,196.7,187z"/>
</svg>
