<?xml version="1.0" encoding="utf-8"?>
<!-- Generator: Adobe Illustrator 25.3.1, SVG Export Plug-In . SVG Version: 6.00 Build 0)  -->
<!DOCTYPE svg PUBLIC "-//W3C//DTD SVG 1.1//EN" "http://www.w3.org/Graphics/SVG/1.1/DTD/svg11.dtd" [
	<!ENTITY ns_extend "http://ns.adobe.com/Extensibility/1.0/">
	<!ENTITY ns_ai "http://ns.adobe.com/AdobeIllustrator/10.0/">
	<!ENTITY ns_graphs "http://ns.adobe.com/Graphs/1.0/">
	<!ENTITY ns_vars "http://ns.adobe.com/Variables/1.0/">
	<!ENTITY ns_imrep "http://ns.adobe.com/ImageReplacement/1.0/">
	<!ENTITY ns_sfw "http://ns.adobe.com/SaveForWeb/1.0/">
	<!ENTITY ns_custom "http://ns.adobe.com/GenericCustomNamespace/1.0/">
	<!ENTITY ns_adobe_xpath "http://ns.adobe.com/XPath/1.0/">
]>
<svg version="1.1" id="Layer_1" xmlns:x="&ns_extend;" xmlns:i="&ns_ai;" xmlns:graph="&ns_graphs;"
	 xmlns="http://www.w3.org/2000/svg" xmlns:xlink="http://www.w3.org/1999/xlink" x="0px" y="0px" viewBox="0 0 512 512"
	 style="enable-background:new 0 0 512 512;" xml:space="preserve">
<style type="text/css">
	.st0{fill:#148DEA;}
</style>
<metadata>
	<sfw  xmlns="&ns_sfw;">
		<slices></slices>
		<sliceSourceBounds  bottomLeftOrigin="true" height="260.6" width="511" x="1" y="125.3"></sliceSourceBounds>
	</sfw>
</metadata>
<g id="Logo_1_" transform="matrix(5.6720686,0,0,5.6720686,-0.56720686,-1.7016206)">
	<path id="path439" class="st0" d="M0.3,22.5v33.7h13.1c7.5,0,16.4-6.5,16.4-16.8c0-11.3-8.9-16.8-16.4-16.8H0.3z M33.5,22.5v33.8
		h9.4V41.8H43l8.3,14.5h10.8L51.3,38l9.9-15.5H50.3L43,35.2h-0.1V22.5H33.5z M64.7,22.5v33.7h14.9c5.7,0,10.8-3.5,10.8-10.3
		c0-4.5-3.3-7.4-5.5-8.2v-0.1c2.6-0.8,3.7-3.5,3.7-6.7c0-4.7-4.2-8.4-10.3-8.4H64.7z M74,30.2h2.8c1.5,0,2.9,1.1,2.9,2.9
		c0,1.9-1.3,2.9-2.9,2.9H74V30.2z M9.6,30.9c5.2,0,10.8,1.4,10.8,8.4s-5.7,8.4-10.8,8.4V30.9z M74,41.5h3.3c1.9,0,3.3,1.5,3.3,3.3
		c0,1.9-1,3.3-2.9,3.3v0.1H74V41.5z"/>
</g>
<g id="Claim" transform="matrix(5.6720686,0,0,5.6720686,-0.56720686,-1.7016206)">
	<path id="path446" class="st0" d="M2.3,68.3h-2v-6.2h1.9c1.5,0,3.1,1,3.1,3.1C5.3,67.3,3.6,68.3,2.3,68.3L2.3,68.3z M1.9,63.2H1.5
		v4h0.4c1,0,2.1-0.6,2.1-2C4.1,63.8,2.9,63.2,1.9,63.2z"/>
	<path id="path448" class="st0" d="M6.9,66.8c0.1,0.4,0.4,0.8,0.9,0.8s0.7-0.1,1-0.4l0.8,0.4c-0.4,0.6-0.9,0.9-1.8,0.9
		c-1.2,0-2-0.8-2-1.9s0.8-1.9,2-1.9c1.1,0,1.9,0.9,1.9,1.8v0.4L6.9,66.8L6.9,66.8z M7.7,65.5c-0.5,0-0.8,0.3-0.9,0.7h1.7
		C8.5,65.8,8.3,65.5,7.7,65.5L7.7,65.5z"/>
	<path id="path450" class="st0" d="M12.8,68.3V68l0,0c-0.3,0.3-0.7,0.4-1.1,0.4c-0.9,0-1.3-0.4-1.3-1.4v-2.3h0.9v2
		c0,0.5,0.2,0.8,0.7,0.8c0.4,0,0.7-0.3,0.7-0.8v-2h1v3.6L12.8,68.3z"/>
	<path id="path452" class="st0" d="M16.1,68.5c-0.6,0-1-0.3-1-1v-1.7h-0.6l0.1-0.9H15v-1.3l1-0.2v1.4h0.7v0.9H16V67
		c0,0.3,0.1,0.3,0.3,0.3c0.1,0,0.3-0.1,0.4-0.2v0.9C16.7,68.3,16.3,68.5,16.1,68.5L16.1,68.5z"/>
	<path id="path454" class="st0" d="M18.8,68.5c-0.6,0-1-0.3-1.4-0.6l0.4-0.7c0.3,0.3,0.6,0.4,0.9,0.4c0.3,0,0.4-0.1,0.4-0.3
		c0-0.6-1.7-0.4-1.7-1.7c0-0.7,0.6-1,1.3-1c0.6,0,1,0.1,1.4,0.4l-0.4,0.6c-0.3-0.2-0.5-0.3-0.9-0.3c-0.2,0-0.3,0-0.3,0.3
		c0,0.4,1.8,0.3,1.8,1.7C20.4,68.2,19.7,68.5,18.8,68.5L18.8,68.5z"/>
	<path id="path456" class="st0" d="M22.9,68.5c-1.2,0-2-0.8-2-1.9s0.8-1.9,2-1.9c0.7,0,1.1,0.2,1.5,0.6L23.8,66
		c-0.3-0.3-0.4-0.4-0.9-0.4S22,66,22,66.6c0,0.6,0.3,1,0.9,1c0.4,0,0.7-0.2,0.9-0.5l0.7,0.7C24,68.2,23.6,68.5,22.9,68.5z"/>
	<path id="path458" class="st0" d="M27.5,68.3v-2c0-0.5-0.2-0.8-0.7-0.8c-0.4,0-0.7,0.3-0.7,0.8v2h-1V62h1v3l0,0
		c0.3-0.3,0.7-0.4,1.1-0.4c0.9,0,1.3,0.4,1.3,1.4v2.3H27.5z"/>
	<path id="path460" class="st0" d="M30.3,66.8c0.1,0.4,0.4,0.8,0.9,0.8c0.4,0,0.7-0.1,1-0.4l0.8,0.4c-0.4,0.6-0.9,0.9-1.8,0.9
		c-1.2,0-2-0.8-2-1.9s0.8-1.9,2-1.9c1.1,0,1.9,0.9,1.9,1.8v0.4L30.3,66.8L30.3,66.8z M31.2,65.5c-0.5,0-0.8,0.3-0.9,0.7h1.7
		C32,65.8,31.7,65.5,31.2,65.5z"/>
	<path id="path462" class="st0" d="M39.2,68.3l-1.8-2.6l0,0v2.6h-1.1v-6.2h1.1v2.4l0,0l1.7-2.4h1.4l-2.1,3l2.3,3.2H39.2z"/>
	<path id="path464" class="st0" d="M43,65.6c-0.6,0-0.9,0.3-0.9,0.9v1.9h-1v-3.6h1v0.4l0,0c0.3-0.4,0.5-0.5,1.1-0.5v0.9
		C43.2,65.6,43.1,65.6,43,65.6z"/>
	<path id="path466" class="st0" d="M44.7,66.8c0.1,0.4,0.4,0.8,0.9,0.8c0.4,0,0.7-0.1,1-0.4l0.8,0.4c-0.4,0.6-0.9,0.9-1.8,0.9
		c-1.2,0-2-0.8-2-1.9s0.8-1.9,2-1.9c1.1,0,1.9,0.9,1.9,1.8v0.4L44.7,66.8L44.7,66.8z M45.5,65.5c-0.5,0-0.8,0.3-0.9,0.7h1.7
		C46.3,65.8,46.1,65.5,45.5,65.5z"/>
	<path id="path468" class="st0" d="M50.9,68.3V68l0,0c-0.3,0.3-0.7,0.4-1.2,0.4c-0.9,0-1.6-0.7-1.6-1.9s0.8-1.9,1.6-1.9
		c0.5,0,0.9,0.1,1.2,0.4l0,0v-3h1v6.3H50.9z M50,65.6c-0.4,0-0.9,0.3-0.9,0.9s0.4,0.9,0.9,0.9c0.5,0,0.9-0.3,0.9-0.9
		C50.9,65.9,50.5,65.6,50,65.6z"/>
	<path id="path470" class="st0" d="M52.8,64v-1.2h1V64H52.8z M52.8,68.3v-3.6h1v3.6H52.8z"/>
	<path id="path472" class="st0" d="M56.1,68.5c-0.6,0-1-0.3-1-1v-1.7h-0.6l0.1-0.9H55v-1.3l1-0.2v1.4h0.9v0.9h-0.7V67
		c0,0.3,0.1,0.3,0.3,0.3c0.1,0,0.3-0.1,0.4-0.2v0.9C56.7,68.3,56.4,68.5,56.1,68.5L56.1,68.5z"/>
	<path id="path474" class="st0" d="M60,68.5c-0.5,0-0.9-0.1-1.2-0.4l0,0v0.3h-1v-6.3h1v3l0,0c0.3-0.3,0.7-0.4,1.2-0.4
		c0.9,0,1.6,0.7,1.6,1.9S60.8,68.5,60,68.5L60,68.5z M59.6,65.6c-0.5,0-0.9,0.3-0.9,0.9s0.3,0.9,0.9,0.9c0.4,0,0.9-0.3,0.9-0.9
		C60.5,65.9,60.1,65.6,59.6,65.6z"/>
	<path id="path476" class="st0" d="M65,68.3V68l0,0c-0.3,0.3-0.7,0.4-1.2,0.4c-0.9,0-1.6-0.7-1.6-1.9s0.8-1.9,1.6-1.9
		c0.5,0,0.9,0.1,1.2,0.4l0,0v-0.3h1v3.6H65z M64.2,65.6c-0.4,0-0.9,0.3-0.9,0.9s0.4,0.9,0.9,0.9c0.5,0,0.9-0.3,0.9-0.9
		C65,65.9,64.7,65.6,64.2,65.6z"/>
	<path id="path478" class="st0" d="M69.5,68.3v-2c0-0.5-0.2-0.8-0.7-0.8c-0.4,0-0.7,0.3-0.7,0.8v2h-1v-3.6h1V65l0,0
		c0.3-0.3,0.7-0.4,1.1-0.4c0.9,0,1.3,0.4,1.3,1.4v2.3H69.5z"/>
	<path id="path480" class="st0" d="M73.7,68.3l-1.1-1.5l0,0v1.5h-1.1V62h1v4l0,0l0.9-1.3h1.3l-1.4,1.7l1.5,1.9H73.7z"/>
	<path id="path482" class="st0" d="M81.3,68.3l-0.4-1.4h-2l-0.4,1.4h-1.2l2.1-6.2h1.2l2.1,6.2H81.3z M79.9,63.5L79.9,63.5l-0.7,2.4
		h1.4L79.9,63.5z"/>
	<path id="path484" class="st0" d="M85.7,68.5c-1.7,0-3.1-1.4-3.1-3.3c0-1.9,1.4-3.3,3.1-3.3c1.4,0,2.1,0.5,2.7,1.2l-0.8,0.8
		c-0.3-0.5-0.9-0.9-1.9-0.9c-1.1,0-1.9,0.9-1.9,2.1c0,1.1,0.8,2.1,1.9,2.1c0.6,0,1.3-0.2,1.7-0.7v-0.9h-1.1l0.2-0.9h2.1V67
		C88,67.9,87.3,68.5,85.7,68.5L85.7,68.5z"/>
</g>
</svg>
