<svg width="200" height="200" viewBox="0 0 200 200" fill="none" xmlns="http://www.w3.org/2000/svg">
<g clip-path="url(#clip0_1852_112278)">
<rect width="200" height="200" fill="white"/>
<path d="M57.0242 122.738C57.0242 127.331 55.656 131.045 52.9196 133.83C50.1832 136.615 46.3719 138.032 41.5343 138.032H0V62L41.5343 62.0977C46.323 62.0977 50.0855 63.5148 52.8708 66.3C55.656 69.0853 57.0242 72.7989 57.0242 77.3921V122.738ZM34.6934 123.911V75.9751H22.5263V123.911H34.6934Z" fill="#485150"/>
<path d="M100.905 62.0489L77.792 62V92.0513L100.905 62.0489Z" fill="#485150"/>
<path d="M177.718 62.0977L156.169 95.2763L133.496 62.0977H125.336L97.1416 98.1104L122.991 138.032H133.496V97.5729L155.045 129.188L176.057 97.5729V138.032H200V62L177.718 62.0977Z" fill="#485150"/>
<path d="M77.792 106.857V138.032H97.3864L77.792 106.857Z" fill="#485150"/>
</g>
<defs>
<clipPath id="clip0_1852_112278">
<rect width="200" height="200" fill="white"/>
</clipPath>
</defs>
</svg>
