<?xml version="1.0" encoding="utf-8"?>
<!-- Generator: Adobe Illustrator 25.3.1, SVG Export Plug-In . SVG Version: 6.00 Build 0)  -->
<!DOCTYPE svg PUBLIC "-//W3C//DTD SVG 1.1//EN" "http://www.w3.org/Graphics/SVG/1.1/DTD/svg11.dtd" [
	<!ENTITY ns_extend "http://ns.adobe.com/Extensibility/1.0/">
	<!ENTITY ns_ai "http://ns.adobe.com/AdobeIllustrator/10.0/">
	<!ENTITY ns_graphs "http://ns.adobe.com/Graphs/1.0/">
	<!ENTITY ns_vars "http://ns.adobe.com/Variables/1.0/">
	<!ENTITY ns_imrep "http://ns.adobe.com/ImageReplacement/1.0/">
	<!ENTITY ns_sfw "http://ns.adobe.com/SaveForWeb/1.0/">
	<!ENTITY ns_custom "http://ns.adobe.com/GenericCustomNamespace/1.0/">
	<!ENTITY ns_adobe_xpath "http://ns.adobe.com/XPath/1.0/">
]>
<svg version="1.1" id="Layer_1" xmlns:x="&ns_extend;" xmlns:i="&ns_ai;" xmlns:graph="&ns_graphs;"
	 xmlns="http://www.w3.org/2000/svg" xmlns:xlink="http://www.w3.org/1999/xlink" x="0px" y="0px" viewBox="0 0 512 512"
	 style="enable-background:new 0 0 512 512;" xml:space="preserve">
<style type="text/css">
	.st0{fill:#FFCC01;}
	.st1{fill-rule:evenodd;clip-rule:evenodd;fill:#010166;}
	.st2{fill:#FF0000;}
</style>
<metadata>
	<sfw  xmlns="&ns_sfw;">
		<slices></slices>
		<sliceSourceBounds  bottomLeftOrigin="true" height="511.8" width="511.7" x="0.1" y="0.1"></sliceSourceBounds>
	</sfw>
</metadata>
<polygon id="polygon5" class="st0" points="0.1,0.1 511.9,0.1 511.9,511.9 0.1,511.9 "/>
<g>
	<path class="st1" d="M380.1,123.3l-164.6,4.4c-83.9,51.2-148,182-158.4,261h141.5C209.3,316.6,252.4,199.6,380.1,123.3z"/>
	<path class="st1" d="M454.9,231.5c0,0-55.5,0.8-55.8,1c-40.2,29.4-67.4,85.4-74.7,128.7h42.3C370.7,336.7,389.8,272.4,454.9,231.5z
		"/>
	<path id="path27" class="st2" d="M328.6,191.1l96.5-2.7C345.9,230.2,306.4,318,299.8,372.2h-73.4
		C232.6,327.7,263,240.3,328.6,191.1L328.6,191.1z"/>
</g>
</svg>
