<?xml version="1.0" encoding="utf-8"?>
<!-- Generator: Adobe Illustrator 25.3.1, SVG Export Plug-In . SVG Version: 6.00 Build 0)  -->
<!DOCTYPE svg PUBLIC "-//W3C//DTD SVG 1.1//EN" "http://www.w3.org/Graphics/SVG/1.1/DTD/svg11.dtd" [
	<!ENTITY ns_extend "http://ns.adobe.com/Extensibility/1.0/">
	<!ENTITY ns_ai "http://ns.adobe.com/AdobeIllustrator/10.0/">
	<!ENTITY ns_graphs "http://ns.adobe.com/Graphs/1.0/">
	<!ENTITY ns_vars "http://ns.adobe.com/Variables/1.0/">
	<!ENTITY ns_imrep "http://ns.adobe.com/ImageReplacement/1.0/">
	<!ENTITY ns_sfw "http://ns.adobe.com/SaveForWeb/1.0/">
	<!ENTITY ns_custom "http://ns.adobe.com/GenericCustomNamespace/1.0/">
	<!ENTITY ns_adobe_xpath "http://ns.adobe.com/XPath/1.0/">
]>
<svg version="1.1" id="Layer_1" xmlns:x="&ns_extend;" xmlns:i="&ns_ai;" xmlns:graph="&ns_graphs;"
	 xmlns="http://www.w3.org/2000/svg" xmlns:xlink="http://www.w3.org/1999/xlink" x="0px" y="0px" viewBox="0 0 512 512"
	 style="enable-background:new 0 0 512 512;" xml:space="preserve">
<style type="text/css">
	.st0{fill:#84B816;}
	.st1{fill:#FFFFFF;}
</style>
<metadata>
	<sfw  xmlns="&ns_sfw;">
		<slices></slices>
		<sliceSourceBounds  bottomLeftOrigin="true" height="511.8" width="511.8" x="0" y="0.2"></sliceSourceBounds>
	</sfw>
</metadata>
<rect class="st0" width="511.8" height="511.8"/>
<path id="path7186" class="st1" d="M80.4,180.1c-33.8,0-59.1,27.1-59.1,63c0,36.8,24.8,63.5,59.1,63.5c23,0.6,44.2-12.3,54.4-32.9
	l1.1-2.2l-14.1-8.1l-1.3,2.4c-8.4,15.9-22.6,25-38.7,25c-11.9,0.3-23.3-4.3-31.8-12.7c-7.9-8.4-12.2-19.6-12.1-31.1h100.8v-3.2
	c0.5-17.6-6-34.7-18.1-47.5C110.1,185.6,95.5,179.7,80.4,180.1z M38.7,231.1c3.8-20.3,21.5-35.1,42.2-35.2
	c22.6,0,37.5,17.6,41.1,35.2C122,231.1,38.7,231.1,38.7,231.1z M252,199c-10.8-12.1-26.4-19-42.7-18.9c-35,0-59.5,25.7-59.5,62.5
	c0,36.8,25.3,64,60,64c16.2,0,31.6-7,42.2-19.3v16.9h16.6V182.6h-16.8C251.9,182.6,252,199,252,199z M209.5,290.7
	c-28,0-43.2-24.8-43.2-48.2c0-22.4,16.2-46.7,42.2-46.7s44.1,18.6,44.1,45.4C252.6,265.9,239.3,290.7,209.5,290.7L209.5,290.7z
	 M333,230.2c-13.8-5-22.3-8.7-22.3-18.8c0-8.9,9.1-15.5,17.3-15.5c7.8-0.1,14.8,4.5,18,11.6l1.1,2.5l14.5-7.3l-1.1-2.3
	c-6.2-12-18.5-19.7-32.1-20.1c-19.2,0-34.3,14-34.3,32c0,21.6,19.8,28.9,35.7,34.7c11.9,4.2,21.1,8.4,21.1,20.4
	c0.1,6.3-2.4,12.3-6.8,16.7c-4.4,4.4-10.5,6.9-16.7,6.8c-16.2,0-23.3-11.9-26.4-21.8l-0.8-2.5l-15.9,5.1l0.6,2.4
	c4.7,19.6,22.4,33.2,42.5,32.7c10.5,0.4,20.8-3.5,28.4-10.9c7.6-7.3,11.8-17.4,11.8-28C367.3,242.7,348.3,235.8,333,230.2z
	 M430.4,283.9l-47.8-101.3H365l57.1,120.8c-0.9,2.1-25.3,68.5-25.3,68.5H414l76.6-189.4h-17.3L430.4,283.9z"/>
</svg>
