<?xml version="1.0" encoding="utf-8"?>
<!-- Generator: Adobe Illustrator 25.3.1, SVG Export Plug-In . SVG Version: 6.00 Build 0)  -->
<!DOCTYPE svg PUBLIC "-//W3C//DTD SVG 1.1//EN" "http://www.w3.org/Graphics/SVG/1.1/DTD/svg11.dtd" [
	<!ENTITY ns_extend "http://ns.adobe.com/Extensibility/1.0/">
	<!ENTITY ns_ai "http://ns.adobe.com/AdobeIllustrator/10.0/">
	<!ENTITY ns_graphs "http://ns.adobe.com/Graphs/1.0/">
	<!ENTITY ns_vars "http://ns.adobe.com/Variables/1.0/">
	<!ENTITY ns_imrep "http://ns.adobe.com/ImageReplacement/1.0/">
	<!ENTITY ns_sfw "http://ns.adobe.com/SaveForWeb/1.0/">
	<!ENTITY ns_custom "http://ns.adobe.com/GenericCustomNamespace/1.0/">
	<!ENTITY ns_adobe_xpath "http://ns.adobe.com/XPath/1.0/">
]>
<svg version="1.1" id="Слой_1" xmlns:x="&ns_extend;" xmlns:i="&ns_ai;" xmlns:graph="&ns_graphs;"
	 xmlns="http://www.w3.org/2000/svg" xmlns:xlink="http://www.w3.org/1999/xlink" x="0px" y="0px" viewBox="0 0 256 256"
	 style="enable-background:new 0 0 256 256;" xml:space="preserve">
<style type="text/css">
	.st0{opacity:0.8;fill:url(#SVGID_1_);}
	.st1{fill:url(#SVGID_2_);}
</style>
<metadata>
	<sfw  xmlns="&ns_sfw;">
		<slices></slices>
		<sliceSourceBounds  bottomLeftOrigin="true" height="246.4" width="236.3" x="9.8" y="4.8"></sliceSourceBounds>
	</sfw>
</metadata>
<g>
	
		<linearGradient id="SVGID_1_" gradientUnits="userSpaceOnUse" x1="81.4594" y1="239.0388" x2="208.2453" y2="239.0388" gradientTransform="matrix(1.1235 -4.362924e-03 -4.362924e-03 1.0002 4.3047 -0.152)">
		<stop  offset="0" style="stop-color:#020203"/>
		<stop  offset="1" style="stop-color:#FFFFFF;stop-opacity:0"/>
	</linearGradient>
	<path class="st0" d="M237.2,235.8c0.2,7-31.4,13.8-70.8,15.2s-71.4-3.2-71.7-10.2c-0.2-7,31.4-13.8,70.8-15.2
		S237,228.8,237.2,235.8z"/>
	<linearGradient id="SVGID_2_" gradientUnits="userSpaceOnUse" x1="104.9175" y1="101.177" x2="205.3851" y2="285.6423">
		<stop  offset="0" style="stop-color:#218CCC"/>
		<stop  offset="0.3108" style="stop-color:#2568B0"/>
		<stop  offset="0.6936" style="stop-color:#2D4091"/>
	</linearGradient>
	<path class="st1" d="M11.1,189.8c4.2,2.4,8.5,4.6,12.5,7.4c14.8,10.2,30.5,18.6,48.4,21c11.2,1.5,23,2,34.1,0.4
		c6.1-0.9,12.6-5.9,16.8-10.9c7.8-9.2,3.7-20.5-7.9-23.8c-4.7-1.3-9.9-1.3-14.8-1c-35.8,2.1-64-15.8-76.7-49
		c-0.7-1.8-1.4-3.6-1.9-5.5c-3.5-14.4,3.6-21.7,17.6-16.4c15.1,5.7,29.6,13.3,44.2,20.3c5.9,2.8,11.9,4.1,18.2,2
		c7.4-2.5,12.9-9.4,13.2-16.9c0.3-8.4-3.7-14.6-11.1-18.4c-12-6-24.2-11.6-36.2-17.6c-4.6-2.3-9.4-4.6-13.5-7.6
		c-7.4-5.4-7.3-12.2,0.3-17.5c15.9-11.2,33.6-14.8,52.6-10.9c20.9,4.3,37.6,15.1,49,33.4c5.4,8.7,15.4,11.7,24.3,7.6
		c8.1-3.7,11.4-12.1,8.5-22c-3.9-12.9-12.4-22.6-22.5-31.1c-13.3-11.2-28.9-18.2-45.4-23.2c-3.8-1.2-7.6-2.6-11.2-4.6
		c14.3-1.6,28.4-0.6,42.1,3.2c49.3,13.9,82,44.8,92.2,95.4c12,59.6-22.9,117.8-81.3,136.6c-53.2,17.1-100,5.2-139.2-34.9
		c-4.6-4.7-8.9-9.6-13.4-14.4C10.3,190.9,10.7,190.3,11.1,189.8z"/>
</g>
</svg>
