<svg width="200" height="200" viewBox="0 0 200 200" fill="none" xmlns="http://www.w3.org/2000/svg">
<rect width="200" height="200" fill="white"/>
<path d="M101.017 184.486C89.9747 184.374 79.285 180.582 70.6396 173.711C61.9942 166.84 55.8869 157.282 53.2841 146.55C52.4577 142.672 51.9556 138.732 51.7828 134.771C51.9584 130.795 52.4345 126.838 53.2071 122.934C56.0952 111.27 63.149 101.065 73.0395 94.2418C82.9299 87.4184 94.9742 84.4474 106.903 85.8886C118.832 87.3297 129.823 93.0835 137.804 102.066C145.785 111.048 150.205 122.639 150.233 134.655V146.569H78.2478C82.5015 154.884 91.105 159.561 101.017 159.561H165.727V89.2892C165.712 84.2454 163.701 79.4125 160.135 75.8459C156.568 72.2793 151.735 70.2689 146.691 70.2537H55.0548C52.5727 70.2334 50.1109 70.7022 47.81 71.6333C45.509 72.5645 43.414 73.9397 41.6446 75.6805C39.8752 77.4214 38.466 79.4937 37.4975 81.7791C36.529 84.0646 36.0201 86.5184 36 89.0005V180.752C35.9997 185.824 38.0011 190.691 41.5692 194.295C45.1372 197.899 49.9835 199.949 55.0548 200H146.768C151.234 200.025 155.564 198.472 158.998 195.617C162.431 192.761 164.746 188.785 165.534 184.39L101.017 184.486Z" fill="#C80370"/>
<path d="M100.902 108.864C96.2307 108.958 91.6676 110.285 87.6754 112.713C83.6832 115.14 80.4041 118.58 78.1708 122.683H123.652C121.414 118.579 118.131 115.14 114.136 112.713C110.141 110.286 105.575 108.958 100.902 108.864Z" fill="#C80370"/>
<path d="M142.438 40.4204C142.14 29.6931 137.705 19.4966 130.062 11.9637C122.419 4.43088 112.159 0.145343 101.428 0.0036294C90.6979 -0.138084 80.3283 3.875 72.4888 11.2034C64.6493 18.5317 59.9472 28.6076 59.3662 39.3233V51.7763C59.3594 52.51 59.6321 53.2188 60.129 53.7586C60.626 54.2985 61.3098 54.6289 62.0416 54.6827H77.4394C78.1837 54.6347 78.8831 54.3098 79.3996 53.7718C79.9162 53.2339 80.2126 52.5219 80.2303 51.7763V40.4204C80.2303 34.9124 82.4183 29.6301 86.313 25.7353C90.2078 21.8406 95.4902 19.6526 100.998 19.6526C106.506 19.6526 111.788 21.8406 115.683 25.7353C119.578 29.6301 121.766 34.9124 121.766 40.4204V51.7763C121.764 52.5149 122.044 53.2264 122.548 53.7663C123.052 54.3061 123.743 54.6337 124.48 54.6827H139.762C140.487 54.6118 141.161 54.2762 141.655 53.7401C142.148 53.204 142.427 52.5049 142.438 51.7763V40.4204Z" fill="#C80370"/>
</svg>
