<?xml version="1.0" encoding="utf-8"?>
<!-- Generator: Adobe Illustrator 25.3.1, SVG Export Plug-In . SVG Version: 6.00 Build 0)  -->
<!DOCTYPE svg PUBLIC "-//W3C//DTD SVG 1.1//EN" "http://www.w3.org/Graphics/SVG/1.1/DTD/svg11.dtd" [
	<!ENTITY ns_extend "http://ns.adobe.com/Extensibility/1.0/">
	<!ENTITY ns_ai "http://ns.adobe.com/AdobeIllustrator/10.0/">
	<!ENTITY ns_graphs "http://ns.adobe.com/Graphs/1.0/">
	<!ENTITY ns_vars "http://ns.adobe.com/Variables/1.0/">
	<!ENTITY ns_imrep "http://ns.adobe.com/ImageReplacement/1.0/">
	<!ENTITY ns_sfw "http://ns.adobe.com/SaveForWeb/1.0/">
	<!ENTITY ns_custom "http://ns.adobe.com/GenericCustomNamespace/1.0/">
	<!ENTITY ns_adobe_xpath "http://ns.adobe.com/XPath/1.0/">
]>
<svg version="1.1" id="Layer_1" xmlns:x="&ns_extend;" xmlns:i="&ns_ai;" xmlns:graph="&ns_graphs;"
	 xmlns="http://www.w3.org/2000/svg" xmlns:xlink="http://www.w3.org/1999/xlink" x="0px" y="0px" viewBox="0 0 512 512"
	 style="enable-background:new 0 0 512 512;" xml:space="preserve">
<style type="text/css">
	.st0{fill:#307756;}
	.st1{fill:#F3CC23;}
	.st2{fill:#FFFFFF;}
</style>
<metadata>
	<sfw  xmlns="&ns_sfw;">
		<slices></slices>
		<sliceSourceBounds  bottomLeftOrigin="true" height="512.4" width="512.2" x="-0.1" y="-0.3"></sliceSourceBounds>
	</sfw>
</metadata>
<g>
	<rect x="-0.1" y="0" class="st0" width="512.2" height="512.4"/>
	<path class="st1" d="M142.1,336.5L142.1,336.5l-25.5,0.2c-0.2-7.9-1.4-17.9-6.4-25.7c-9-13.9-73.9-73.3-76.6-75.8
		c-1.4-1.2-3.5-1.2-4.7,0.2c-1.2,1.4-1.2,3.5,0.2,4.7l0,0c0.6,0.6,67,61.3,75.5,74.5c4.8,7.4,5.4,18.1,5.4,25.4v3.4l32.2-0.3
		c1.8,0,3.3-1.5,3.3-3.4C145.4,338,143.9,336.5,142.1,336.5L142.1,336.5z"/>
	<path class="st1" d="M116.7,260.8c0.5-0.5,0.8-1.1,1-1.8l-1.1-87.1c0-1.8-1.5-3.3-3.4-3.3h0c-1.8,0-3.3,1.5-3.3,3.4c0,0,0,0,0,0
		l1,78.6l-45.8-45.8c-1.4-0.9-3.4-0.7-4.5,0.6c-0.5,0.5-0.8,1.1-1,1.7l-0.2,29.7c0,1.8,1.5,3.3,3.3,3.4c0,0,0,0,0,0l0,0
		c1.8,0,3.3-1.5,3.3-3.3l0.1-21.5l45.9,45.9C113.6,262.3,115.5,262,116.7,260.8z"/>
	<path class="st1" d="M212.1,204.9c-1.3-1.3-3.4-1.3-4.7,0l-45,45.8v-79.2c-0.4-1.7-1.9-2.8-3.6-2.8c-0.7,0-1.4,0.2-2,0.6
		l-22.6,21.3c-1.3,1.3-1.4,3.4-0.1,4.7c1.3,1.3,3.4,1.4,4.7,0.1l0,0l16.9-16v79.5c0.2,0.7,0.5,1.3,1,1.8c1.2,1.3,3.1,1.5,4.6,0.6
		l50.9-51.8C213.5,208.4,213.5,206.3,212.1,204.9C212.1,205,212.1,205,212.1,204.9z"/>
	<path class="st2" d="M316,251.3c-9.7,0-19.6,6.9-19.6,20.3c0,12,8.2,20.8,19.6,20.8s19.5-8.8,19.5-20.8
		C335.5,258.3,325.7,251.3,316,251.3z M316,286.5c-6.8,0-13.7-5-13.7-14.7s6.9-14.6,13.7-14.6s13.7,5,13.7,14.6
		S322.7,286.5,316,286.5L316,286.5z"/>
	<path class="st2" d="M418.1,286.5h-2.5L402.8,254c-0.6-1.6-1.4-2.7-3.5-2.7h-9.6c-0.7-0.1-1.3,0.4-1.4,1.1c0,0.1,0,0.2,0,0.3v3.2
		c0,0.7,0.5,1.3,1.2,1.3c0.1,0,0.1,0,0.2,0h3.8l-11.1,29.3h-2.6c-0.7-0.1-1.3,0.4-1.4,1.1c0,0.1,0,0.2,0,0.3v1.6c0,0,0,0,0,0
		s0,0,0,0v1.6c0,0.7,0.5,1.3,1.2,1.3c0.1,0,0.1,0,0.2,0h10.9c0.7,0.1,1.3-0.4,1.4-1.2c0-0.1,0-0.1,0-0.2v-3.2
		c0.1-0.7-0.5-1.3-1.1-1.3c-0.1,0-0.2,0-0.3,0h-2.4l3.8-9.7l13.6,0.1l4,9.6h-2.6c-0.7-0.1-1.3,0.4-1.4,1.1c0,0.1,0,0.2,0,0.3v3.2
		c0,0.7,0.5,1.3,1.2,1.3c0.1,0,0.1,0,0.2,0h10.9c0.7,0.1,1.3-0.5,1.4-1.2c0-0.1,0-0.1,0-0.2v-3.2c0-0.7-0.5-1.3-1.2-1.3
		C418.3,286.4,418.2,286.4,418.1,286.5z M394.1,270.9l4.8-11.6l4.9,11.6L394.1,270.9z"/>
	<path class="st2" d="M482.6,286.5h-2.5L467.3,254c-0.6-1.6-1.4-2.7-3.5-2.7h-9.6c-0.7-0.1-1.3,0.4-1.4,1.1c0,0.1,0,0.2,0,0.3v3.2
		c0,0.7,0.5,1.3,1.2,1.3c0.1,0,0.1,0,0.2,0h3.8l-11.1,29.3h-2.6c-0.7-0.1-1.3,0.4-1.4,1.1c0,0.1,0,0.2,0,0.3v1.6c0,0,0,0,0,0
		s0,0,0,0v1.6c0,0.7,0.5,1.3,1.2,1.3c0.1,0,0.1,0,0.2,0h10.9c0.7,0.1,1.3-0.5,1.4-1.2c0-0.1,0-0.1,0-0.2v-3.2
		c0.1-0.7-0.4-1.3-1.1-1.3c-0.1,0-0.2,0-0.3,0h-2.3l3.8-9.7l13.6,0.1l3.9,9.6h-2.6c-0.7-0.1-1.3,0.4-1.4,1.1c0,0.1,0,0.2,0,0.3v3.2
		c0,0.7,0.5,1.3,1.2,1.3c0.1,0,0.1,0,0.2,0h10.9c0.7,0.1,1.3-0.4,1.4-1.2c0-0.1,0-0.1,0-0.2v-3.2c0-0.7-0.5-1.3-1.2-1.3
		C482.8,286.4,482.7,286.4,482.6,286.5z M458.6,270.9l4.8-11.6l4.9,11.6L458.6,270.9z"/>
	<path class="st2" d="M340,337.3h-2.5l-12.9-32.4c-0.6-1.6-1.4-2.7-3.5-2.7l0,0h-9.6c-0.7-0.1-1.3,0.4-1.4,1.1c0,0.1,0,0.1,0,0.2
		v3.2c0,0.7,0.5,1.3,1.2,1.3c0.1,0,0.1,0,0.2,0h3.8l-11.1,29.3h-2.6c-0.7-0.1-1.3,0.4-1.4,1.2c0,0.1,0,0.1,0,0.2v1.6c0,0,0,0,0,0
		s0,0,0,0v1.5c0,0.7,0.5,1.3,1.2,1.3c0.1,0,0.1,0,0.2,0h10.9c0.7,0.1,1.3-0.4,1.4-1.1c0-0.1,0-0.1,0-0.2v-3.2
		c0.1-0.7-0.5-1.3-1.1-1.3c-0.1,0-0.2,0-0.3,0h-2.4l3.8-9.7l13.6,0.1l3.9,9.6h-2.6c-0.7-0.1-1.3,0.4-1.4,1.2c0,0.1,0,0.1,0,0.2v3.2
		c0,0.7,0.5,1.3,1.2,1.3c0.1,0,0.1,0,0.2,0H340c0.7,0.1,1.3-0.4,1.4-1.2c0-0.1,0-0.1,0-0.2v-3.2c0-0.7-0.5-1.3-1.2-1.4
		C340.1,337.3,340.1,337.3,340,337.3z M316,321.7l4.8-11.6l4.9,11.6H316z"/>
	<path class="st2" d="M255.9,251.3h-11c-0.7-0.1-1.3,0.4-1.4,1.1c0,0.1,0,0.2,0,0.3v3.2c0,0.7,0.5,1.3,1.2,1.3c0,0,0.1,0,0.1,0h1.5
		h0.1h1v20.1c0,6.5-3.4,9.3-9.8,9.3c-6.6,0-9.7-2.7-9.7-9.6v-19.7h0.9h0.1h0.1h1.5c0.7,0.1,1.3-0.4,1.4-1.1c0-0.1,0-0.2,0-0.3v-3.2
		c0-0.7-0.5-1.3-1.2-1.3c0,0-0.1,0-0.1,0h-11c-0.7-0.1-1.3,0.4-1.4,1.1c0,0.1,0,0.2,0,0.3v3.2c0,0.7,0.5,1.3,1.2,1.3
		c0,0,0.1,0,0.1,0h1.5h0.1h1v19.5c0,10.2,5.5,15.7,15.5,15.7s15.6-5.5,15.6-15.7v-19.6h1h0.1h0.1h1.5c0.7,0.1,1.3-0.4,1.4-1.1
		c0-0.1,0-0.2,0-0.3v-3.2c0-0.7-0.5-1.3-1.2-1.3C256,251.3,256,251.3,255.9,251.3z"/>
	<path class="st2" d="M212.9,251.3h-28.6c-0.7-0.1-1.3,0.4-1.4,1.1c0,0.1,0,0.2,0,0.3v3.2c0,0.7,0.5,1.3,1.2,1.3c0,0,0.1,0,0.1,0
		h1.3c0.1,0,0.2,0,0.3,0h1v29.3h-2.5c-0.7-0.1-1.3,0.5-1.4,1.2c0,0.1,0,0.1,0,0.2v3.2c-0.1,0.7,0.5,1.3,1.1,1.3c0.1,0,0.2,0,0.3,0
		h28.5c0.7,0.1,1.3-0.5,1.4-1.2c0,0,0-0.1,0-0.1v-3.6l0,0V284c0.1-0.7-0.4-1.3-1.2-1.4c-0.1,0-0.1,0-0.2,0h-3.2
		c-0.7,0-1.3,0.5-1.3,1.2c0,0.1,0,0.1,0,0.2v2.5h-15.7v-11.7h10.4c0.7,0.1,1.3-0.4,1.4-1.1c0-0.1,0-0.2,0-0.3v-3.2
		c0-0.7-0.5-1.3-1.2-1.3c-0.1,0-0.1,0-0.2,0h-10.4v-11.8h15.6v2.6c-0.1,0.7,0.4,1.3,1.2,1.4c0.1,0,0.1,0,0.2,0h3.2
		c0.7,0,1.3-0.5,1.3-1.2c0-0.1,0-0.1,0-0.2v-7.1c0-0.7-0.5-1.3-1.2-1.3C213,251.3,212.9,251.3,212.9,251.3z"/>
	<path class="st2" d="M295,286.5h-4l-4.2-8.1c-0.5-1-1.1-2-1.8-2.9l-0.2-0.3l0.4-0.1c4.7-1.7,7.3-5.6,7.3-11
		c0-7.7-5.3-12.6-13.9-12.6h-11.5h-2.9c-0.1,0-0.1,0-0.2,0h-1.4c-0.7-0.1-1.3,0.4-1.4,1.1c0,0.1,0,0.2,0,0.3v3.2
		c0,0.7,0.5,1.3,1.2,1.3c0,0,0.1,0,0.1,0h1.4c0,0,0.1,0,0.1,0h1v29.3h-2.4c-0.7-0.1-1.3,0.5-1.4,1.2c0,0.1,0,0.1,0,0.2v3.2
		c-0.1,0.7,0.5,1.3,1.1,1.3c0.1,0,0.2,0,0.3,0h0.8c0,0.1,0.1,0,0.3,0h9.9c0.7,0.1,1.3-0.4,1.4-1.2c0-0.1,0-0.1,0-0.2v-3.2
		c0-0.7-0.5-1.3-1.2-1.3c-0.1,0-0.1,0-0.2,0H271v-9.7h6.5c1.6,0,2.3,0.4,3.1,2.1l5.2,10.6c0.7,1.5,1.7,3,3.8,3h5.4
		c0.7,0.1,1.3-0.5,1.4-1.2c0-0.1,0-0.1,0-0.2v-3.2c0-0.7-0.5-1.3-1.2-1.3C295.1,286.4,295.1,286.4,295,286.5z M277.6,270.8H271
		v-13.7h6.6c5.9,0,9,2,9,7C286.5,269.1,283.8,270.8,277.6,270.8z"/>
	<path class="st2" d="M255.9,302.2h-11c-0.7-0.1-1.3,0.4-1.4,1.1c0,0.1,0,0.2,0,0.3v3.2c0,0.7,0.5,1.3,1.2,1.3c0,0,0.1,0,0.1,0h1.5
		h0.1h1v20c0,6.5-3.4,9.3-9.8,9.3c-6.6,0-9.7-2.7-9.7-9.6V308h0.9h0.1h0.1h1.5c0.7,0.1,1.3-0.4,1.4-1.1c0-0.1,0-0.2,0-0.3v-3.2
		c0-0.7-0.5-1.3-1.2-1.3c0,0-0.1,0-0.1,0h-11c-0.7-0.1-1.3,0.4-1.4,1.1c0,0.1,0,0.2,0,0.3v3.2c0,0.7,0.5,1.3,1.2,1.3
		c0,0,0.1,0,0.1,0h1.5h0.1h1v19.5c0,10.2,5.5,15.7,15.5,15.7s15.6-5.5,15.6-15.7V308h1h0.1h0.1h1.5c0.7,0.1,1.3-0.4,1.4-1.1
		c0-0.1,0-0.2,0-0.3v-3.2c0-0.7-0.5-1.3-1.3-1.3C256,302.2,256,302.2,255.9,302.2z"/>
	<path class="st2" d="M295,337.3h-4l-4.2-8.1c-0.5-1-1.1-2-1.8-2.9l-0.2-0.3l0.4-0.1c4.7-1.7,7.3-5.6,7.3-11
		c0-7.7-5.3-12.6-13.9-12.6h-11.5h-2.9c-0.1,0-0.1,0-0.2,0h-1.4c-0.7-0.1-1.3,0.4-1.4,1.1c0,0.1,0,0.2,0,0.3v3.2
		c0,0.7,0.5,1.3,1.2,1.3c0,0,0.1,0,0.1,0h1.4c0,0,0.1,0,0.1,0h1v29.3h-2.4c-0.7-0.1-1.3,0.5-1.4,1.2c0,0.1,0,0.1,0,0.2v3.3
		c-0.1,0.7,0.5,1.3,1.1,1.3c0.1,0,0.2,0,0.3,0h0.8c0,0.1,0.1,0,0.3,0h9.9c0.7,0.1,1.3-0.4,1.4-1.2c0-0.1,0-0.1,0-0.2v-3.2
		c0-0.7-0.5-1.3-1.2-1.3c-0.1,0-0.1,0-0.2,0H271v-9.8h6.5c1.6,0,2.3,0.4,3.1,2.1l5.2,10.6c0.7,1.5,1.7,3,3.8,3h5.4
		c0.7,0.1,1.3-0.5,1.4-1.2c0-0.1,0-0.1,0-0.2v-3.2c0.1-0.7-0.4-1.3-1.1-1.4C295.2,337.3,295.1,337.3,295,337.3z M277.6,321.7H271
		V308h6.6c5.9,0,9,2,9,7S283.8,321.7,277.6,321.7z"/>
	<path class="st2" d="M216.8,337.3h-4l-4.2-8.1c-0.5-1-1.1-2-1.8-2.9l-0.2-0.3l0.4-0.1c4.8-1.7,7.3-5.6,7.3-11
		c0-7.7-5.3-12.6-13.9-12.6h-11.5h-2.9c-0.1,0-0.1,0-0.2,0h-1.4c-0.7-0.1-1.3,0.4-1.4,1.1c0,0.1,0,0.2,0,0.3v3.2
		c0,0.7,0.5,1.3,1.2,1.3c0,0,0.1,0,0.1,0h1.4h0.2h1v29.3h-2.4c-0.7-0.1-1.3,0.5-1.4,1.2c0,0.1,0,0.1,0,0.2v3.3
		c-0.1,0.7,0.5,1.3,1.1,1.3c0.1,0,0.2,0,0.3,0h0.8c0,0.1,0.1,0,0.3,0h9.9c0.7,0.1,1.3-0.5,1.4-1.2c0-0.1,0-0.1,0-0.2v-3.2
		c0.1-0.7-0.5-1.3-1.1-1.3c-0.1,0-0.2,0-0.3,0h-2.7v-9.8h6.5c1.6,0,2.3,0.4,3.1,2.1l5.2,10.6c0.7,1.5,1.7,3,3.8,3h5.4
		c0.7,0.1,1.3-0.4,1.4-1.1c0-0.1,0-0.1,0-0.2v-3.2c0.1-0.7-0.4-1.3-1.1-1.4C217,337.3,216.9,337.3,216.8,337.3z M199.4,321.7h-6.6
		V308h6.6c5.9,0,9,2,9,7S205.6,321.7,199.4,321.7L199.4,321.7z"/>
	<path class="st2" d="M376.1,281.7l-2.6-1.9c-0.5-0.5-1.4-0.4-1.8,0.2c0,0.1-0.1,0.1-0.1,0.2l-2.1,2.8l0,0
		c-1.8,1.9-4.5,3.6-10.3,3.6c-6.5,0-13.9-4.4-13.9-14.7c0-10.3,7.3-14.6,13.8-14.6c3.6,0,6.6,1.1,8.6,2.8c1.5,1.1,2.5,2.7,3,4.6
		c0,0.1,0,0.3,0,0.4v0.7c-0.1,0.7,0.5,1.3,1.2,1.4c0.1,0,0.1,0,0.2,0h3.2c0.7,0.1,1.3-0.5,1.3-1.1c0-0.1,0-0.2,0-0.3v-13
		c0.1-0.7-0.5-1.3-1.2-1.4c0,0-0.1,0-0.1,0h-3.2c-0.7-0.1-1.3,0.5-1.3,1.1c0,0.1,0,0.2,0,0.3v3.4l0,0v0.1l-0.4-0.5
		c-1.9-2-5.5-4.3-11.6-4.3c-9.6,0-19.3,6.9-19.3,20.3c0,12,8.2,20.8,19.6,20.8c9.2,0,13.9-4.2,16.1-7l0,0l1.2-1.7
		c0.5-0.5,0.5-1.3,0-1.8C376.2,281.8,376.1,281.7,376.1,281.7z"/>
	<path class="st2" d="M441.1,274.6L441.1,274.6v-17.5h0.9c0,0,0.1,0,0.1,0h1.4c0.7,0.1,1.3-0.4,1.4-1.1c0-0.1,0-0.2,0-0.3v-3.2
		c0-0.7-0.5-1.3-1.2-1.3c0,0-0.1,0-0.1,0h-11c-0.7-0.1-1.3,0.4-1.4,1.1c0,0.1,0,0.2,0,0.3v3.2c0,0.7,0.5,1.3,1.2,1.3
		c0,0,0.1,0,0.1,0h1.4c0,0,0.1,0,0.1,0h1v17.5l0,0v0.7c0,6.7-0.5,11.2-10.4,11.2c-0.7-0.1-1.3,0.4-1.4,1.1c0,0.1,0,0.2,0,0.3v3.2
		c0,0.7,0.5,1.3,1.2,1.3c0,0,0.1,0,0.1,0c12.9,0,16.3-4.4,16.3-17.6L441.1,274.6z"/>
	<path class="st2" d="M378.5,338.2v-3.4c0.1-0.7-0.5-1.3-1.2-1.4c-0.1,0-0.1,0-0.2,0h-3.2c-0.7-0.1-1.3,0.5-1.3,1.1
		c0,0.1,0,0.2,0,0.3v2.6h-15h-0.1h-2.6V308h0.9h0.1h0.1h1.4c0.7,0.1,1.3-0.4,1.4-1.1c0-0.1,0-0.2,0-0.3v-1.3c0-0.1,0-0.2,0-0.3
		s0-0.2,0-0.3v-1.3c0-0.7-0.6-1.3-1.3-1.3c0,0-0.1,0-0.1,0h-10.9c-0.7-0.1-1.3,0.4-1.4,1c0,0.1,0,0.2,0,0.2v3.2
		c0,0.7,0.5,1.3,1.2,1.3c0,0,0.1,0,0.1,0h1.4h0.1h1v29.3h-2.6c-0.7-0.1-1.3,0.4-1.4,1c0,0.1,0,0.2,0,0.3v3.2c0,0.7,0.5,1.3,1.2,1.3
		c0,0,0.1,0,0.1,0h7.2v0h23.3c0.7,0.1,1.3-0.5,1.4-1.2c0,0,0-0.1,0-0.1L378.5,338.2L378.5,338.2z"/>
</g>
</svg>
