<?xml version="1.0" encoding="utf-8"?>
<!-- Generator: Adobe Illustrator 25.3.1, SVG Export Plug-In . SVG Version: 6.00 Build 0)  -->
<!DOCTYPE svg PUBLIC "-//W3C//DTD SVG 1.1//EN" "http://www.w3.org/Graphics/SVG/1.1/DTD/svg11.dtd" [
	<!ENTITY ns_extend "http://ns.adobe.com/Extensibility/1.0/">
	<!ENTITY ns_ai "http://ns.adobe.com/AdobeIllustrator/10.0/">
	<!ENTITY ns_graphs "http://ns.adobe.com/Graphs/1.0/">
	<!ENTITY ns_vars "http://ns.adobe.com/Variables/1.0/">
	<!ENTITY ns_imrep "http://ns.adobe.com/ImageReplacement/1.0/">
	<!ENTITY ns_sfw "http://ns.adobe.com/SaveForWeb/1.0/">
	<!ENTITY ns_custom "http://ns.adobe.com/GenericCustomNamespace/1.0/">
	<!ENTITY ns_adobe_xpath "http://ns.adobe.com/XPath/1.0/">
]>
<svg version="1.1" id="Layer_1" xmlns:x="&ns_extend;" xmlns:i="&ns_ai;" xmlns:graph="&ns_graphs;"
	 xmlns="http://www.w3.org/2000/svg" xmlns:xlink="http://www.w3.org/1999/xlink" x="0px" y="0px" viewBox="0 0 512 512"
	 style="enable-background:new 0 0 512 512;" xml:space="preserve">
<style type="text/css">
	.st0{fill:#616868;}
</style>
<metadata>
	<sfw  xmlns="&ns_sfw;">
		<slices></slices>
		<sliceSourceBounds  bottomLeftOrigin="true" height="311.1" width="401.3" x="55.4" y="100.4"></sliceSourceBounds>
	</sfw>
</metadata>
<g>
	<path id="path268" class="st0" d="M275.8,180.4c-9.7,11.1-15.8,26.2-18.3,45.3h119.3c-1.3-20.3-7.4-35.7-18.6-46.1
		c-11-10.5-24.6-15.9-41-15.9C299.5,163.8,285.6,169.3,275.8,180.4 M199.5,350.1h-96.8l-19.4-50.8h98.2c-1.2-7.1-2-14.5-2.6-22.3
		H74.8l-19.4-50.8h124.8c4.4-35.6,16.6-63.9,36.7-85.1c25.8-27.1,59.3-40.6,100.4-40.6c24.5,0,46.5,4.6,66,13.7s35.8,23.6,48.5,43.3
		c11.5,17.5,19,37.7,22.3,60.6c1.9,13.5,2.8,32.9,2.4,58.2H255.6c1.1,29.5,10.3,50.1,27.7,62c10.5,7.3,23.4,11,38.2,11
		c15.9,0,28.7-4.5,38.5-13.5c5.4-4.8,10.2-11.6,14.3-20.2h78.4c-1.9,17.4-11,35.1-27.2,53c-25.1,28.6-60.3,42.8-105.6,42.8
		c-37.4,0-70.2-12.1-98.8-36.1C212.7,368.3,205.5,359.9,199.5,350.1"/>
</g>
</svg>
