<svg width="200" height="200" viewBox="0 0 200 200" fill="none" xmlns="http://www.w3.org/2000/svg">
<rect width="200" height="200" fill="white"/>
<path d="M51.4981 117.626H17.1515V106.249H44.7243V91.703H17.1515V80.6739H51.4981V66.1711H0V132.172H51.4981V117.626ZM99.3487 132.172L127.529 66.1711H108.901L92.8789 106.249L76.9431 66.1711H58.3152L86.0617 132.172H99.3487ZM163.526 64C143.378 64 127.052 79.762 127.052 99.1715C127.052 118.624 143.378 134.343 163.526 134.343C183.673 134.343 200 118.581 200 99.1715C200 79.7186 183.673 64 163.526 64ZM163.526 117.713C153.235 117.713 144.898 109.419 144.898 99.1715C144.898 88.924 153.235 80.6305 163.526 80.6305C173.817 80.6305 182.154 88.924 182.154 99.1715C182.154 109.419 173.817 117.713 163.526 117.713Z" fill="black"/>
</svg>
