<?xml version="1.0" encoding="utf-8"?>
<!-- Generator: Adobe Illustrator 25.3.1, SVG Export Plug-In . SVG Version: 6.00 Build 0)  -->
<!DOCTYPE svg PUBLIC "-//W3C//DTD SVG 1.1//EN" "http://www.w3.org/Graphics/SVG/1.1/DTD/svg11.dtd" [
	<!ENTITY ns_extend "http://ns.adobe.com/Extensibility/1.0/">
	<!ENTITY ns_ai "http://ns.adobe.com/AdobeIllustrator/10.0/">
	<!ENTITY ns_graphs "http://ns.adobe.com/Graphs/1.0/">
	<!ENTITY ns_vars "http://ns.adobe.com/Variables/1.0/">
	<!ENTITY ns_imrep "http://ns.adobe.com/ImageReplacement/1.0/">
	<!ENTITY ns_sfw "http://ns.adobe.com/SaveForWeb/1.0/">
	<!ENTITY ns_custom "http://ns.adobe.com/GenericCustomNamespace/1.0/">
	<!ENTITY ns_adobe_xpath "http://ns.adobe.com/XPath/1.0/">
]>
<svg version="1.1" id="Layer_1" xmlns:x="&ns_extend;" xmlns:i="&ns_ai;" xmlns:graph="&ns_graphs;"
	 xmlns="http://www.w3.org/2000/svg" xmlns:xlink="http://www.w3.org/1999/xlink" x="0px" y="0px" viewBox="0 0 512 512"
	 style="enable-background:new 0 0 512 512;" xml:space="preserve">
<style type="text/css">
	.st0{fill:#003087;}
	.st1{fill:#FFCC00;}
</style>
<metadata>
	<sfw  xmlns="&ns_sfw;">
		<slices></slices>
		<sliceSourceBounds  bottomLeftOrigin="true" height="512.1" width="512.1" x="0" y="0"></sliceSourceBounds>
	</sfw>
</metadata>
<g>
	<rect x="0" y="0" class="st0" width="512.1" height="512.1"/>
	<path class="st1" d="M230.8,359.2c4.6-22.5,7.7-45.2,9.2-68.1L144.4,256l95.6-35c-1.5-22.9-4.6-45.7-9.2-68.1L84.1,99.1
		c-4.9,15.9-9.1,32-12.6,48.4l112.3,41.1L76.1,228.1c-0.5,9.2-0.8,18.5-0.8,27.9c0,9.3,0.2,18.6,0.8,27.9l107.9,39.5L71.6,364.5
		c3.4,16.4,7.6,32.5,12.6,48.3L230.8,359.2z"/>
	<path class="st1" d="M281.3,359.2c-4.6-22.5-7.7-45.2-9.2-68.1l95.6-35L272,221c1.6-22.9,4.7-45.7,9.3-68.1L428,99.1
		c4.9,15.9,9.1,32,12.5,48.4l-112.3,41.1L436,228.1c0.5,9.2,0.8,18.5,0.8,27.9s-0.3,18.6-0.8,27.9l-107.8,39.5l112.4,41.1
		c-3.4,16.4-7.6,32.5-12.6,48.3L281.3,359.2z"/>
</g>
</svg>
