<?xml version="1.0" encoding="utf-8"?>
<!-- Generator: Adobe Illustrator 25.3.1, SVG Export Plug-In . SVG Version: 6.00 Build 0)  -->
<!DOCTYPE svg PUBLIC "-//W3C//DTD SVG 1.1//EN" "http://www.w3.org/Graphics/SVG/1.1/DTD/svg11.dtd" [
	<!ENTITY ns_extend "http://ns.adobe.com/Extensibility/1.0/">
	<!ENTITY ns_ai "http://ns.adobe.com/AdobeIllustrator/10.0/">
	<!ENTITY ns_graphs "http://ns.adobe.com/Graphs/1.0/">
	<!ENTITY ns_vars "http://ns.adobe.com/Variables/1.0/">
	<!ENTITY ns_imrep "http://ns.adobe.com/ImageReplacement/1.0/">
	<!ENTITY ns_sfw "http://ns.adobe.com/SaveForWeb/1.0/">
	<!ENTITY ns_custom "http://ns.adobe.com/GenericCustomNamespace/1.0/">
	<!ENTITY ns_adobe_xpath "http://ns.adobe.com/XPath/1.0/">
]>
<svg version="1.1" id="Layer_1" xmlns:x="&ns_extend;" xmlns:i="&ns_ai;" xmlns:graph="&ns_graphs;"
	 xmlns="http://www.w3.org/2000/svg" xmlns:xlink="http://www.w3.org/1999/xlink" x="0px" y="0px" viewBox="0 0 512 512"
	 style="enable-background:new 0 0 512 512;" xml:space="preserve">
<metadata>
	<sfw  xmlns="&ns_sfw;">
		<slices></slices>
		<sliceSourceBounds  bottomLeftOrigin="true" height="316.1" width="407.4" x="52.3" y="97.9"></sliceSourceBounds>
	</sfw>
</metadata>
<g>
	<path id="path114" d="M52.3,225.7v-42.1h37v-17.4c0-20,6.2-36.3,18.7-49.1c12.4-12.8,31.3-19.1,56.5-19.1c6.1,0,21.7,0.6,32.6,1.7
		v46.1c-5.5-0.7-13.7-1.3-21.5-1.3c-9.1,0-15.5,2-19.1,5.9c-3.9,4.1-5.4,9.8-5.4,19.8v13.5h42.6v42.1H151v182.6H89.3V225.7H52.3z"/>
	<path id="path132" d="M398,98v113h-0.8c-15.1-23.7-41.5-33.5-69.2-33.5c-42.1,0-96.7,33.3-96.7,116.7c0,73.5,39.1,119.9,100,119.9
		c29.3,0,54.5-10,68.8-34.5h0.9v28.7h58.7V97.9L398,98L398,98z M346.5,367.9c-33.1,0-53.6-27.5-53.6-71.9
		c0-44.3,20.6-71.9,53.6-71.9c34.3,0,53.6,26,53.6,71.9S380.7,367.9,346.5,367.9z"/>
</g>
</svg>
