<svg width="200" height="200" viewBox="0 0 200 200" fill="none" xmlns="http://www.w3.org/2000/svg">
<rect width="200" height="200" fill="white"/>
<path d="M89.9924 130.475C75.4038 130.475 63.6245 118.695 63.5752 104.156C63.5752 89.5674 75.3545 77.7881 89.8938 77.7388C104.482 77.7388 116.262 89.5181 116.311 104.057V104.107C116.36 118.646 104.581 130.425 89.9924 130.475ZM89.9924 90.2574C82.3531 90.2574 76.1431 96.4181 76.0938 104.057C76.0445 111.697 82.2545 117.907 89.8938 117.956C97.5331 117.956 103.743 111.795 103.792 104.156V104.107C103.792 96.4674 97.6317 90.2574 89.9924 90.2574Z" fill="#00FF87"/>
<path d="M106.404 87.9409L94.7725 83.3081C97.3353 76.6545 99.4053 69.853 101.032 62.9037C105.024 45.9001 104.728 33.4308 100.243 27.5658C94.4768 22.1936 85.6053 22.1936 79.8389 27.5658C75.2553 33.3322 74.9596 45.9987 79.001 62.953L66.8274 65.8116C61.7509 44.323 62.786 28.9951 70.031 19.7786C80.2331 8.68931 97.5325 7.99931 108.573 18.2508C109.115 18.7436 109.608 19.2365 110.1 19.7786C117.296 28.8472 118.38 44.323 113.304 65.7623C111.53 73.303 109.263 80.6959 106.503 87.9409H106.404Z" fill="#00FF87"/>
<path d="M49.5286 93.5595C30.7999 81.9774 20.5978 70.198 19.3163 58.7144C18.7249 43.6823 30.4549 31.0158 45.4871 30.4244C46.2264 30.3751 46.9657 30.3751 47.6557 30.4244C59.1393 31.7551 70.8693 41.9573 82.4515 60.7352C86.4929 67.2902 90.1401 74.1409 93.2944 81.1888L81.7615 86.2159C78.9029 79.7102 75.5515 73.4509 71.8058 67.3887C62.6386 52.4551 53.3729 43.8301 46.2264 42.943C38.39 43.2387 32.0814 49.5473 31.7857 57.3837C32.6235 64.7273 41.2978 73.7959 56.1822 83.1602L49.5286 93.5595Z" fill="#00FF87"/>
<path d="M31.2926 130.425C23.259 130.918 15.324 128.651 8.76894 124.067C-2.32038 113.865 -2.96109 96.566 7.24108 85.5259C7.73394 85.0331 8.22679 84.4909 8.71965 84.0474C17.6897 76.9502 32.919 75.7673 53.9641 80.6466L57.3155 81.4352L59.5334 82.0266C65.4477 83.5545 71.2141 85.4767 76.9313 87.6452L72.3477 99.2767C65.6941 96.7138 58.8926 94.6438 51.9433 93.0174L48.9369 92.3274C33.4119 89.0252 21.9775 89.5674 16.5561 93.8552C11.2332 99.6217 11.2332 108.493 16.5561 114.26C22.3225 118.843 34.989 119.139 51.9433 115.048L54.8019 127.222C47.1133 129.193 39.2276 130.277 31.2926 130.425Z" fill="#00FF87"/>
<path d="M152.585 130.967C160.619 131.46 168.554 129.193 175.109 124.61C186.149 114.407 186.839 97.1574 176.636 86.1174C176.144 85.5752 175.601 85.0824 175.109 84.5895C166.139 77.5416 150.909 76.3095 129.913 81.1888L126.562 81.9774L124.344 82.5688C118.43 84.1459 112.614 86.0188 106.946 88.1874L111.826 99.671C118.479 97.1574 125.33 95.0874 132.23 93.4117L135.187 92.7217C150.712 89.4195 162.146 89.9617 167.568 94.2495C172.94 100.016 172.94 108.887 167.568 114.654C161.801 119.237 149.135 119.533 132.181 115.442L128.484 123.575C137.208 125.842 145.784 130.967 152.585 130.967Z" fill="#00FF87"/>
<path d="M45.2897 178.183C38.4883 178.035 32.0318 175.128 27.4482 170.1C21.7311 164.975 18.7739 157.385 19.5132 149.745C20.8439 138.213 31.0461 126.482 49.824 114.95C56.379 110.908 63.1805 107.261 70.2284 104.107L75.1569 115.59C68.7005 118.498 62.4412 121.85 56.379 125.546C41.4454 134.762 32.8204 143.979 31.9332 151.323C32.2783 159.06 38.4883 165.27 46.2754 165.615C53.619 164.778 62.6876 156.103 71.8548 141.219L82.5005 147.873C70.9184 166.601 59.1883 176.754 47.7047 178.085C46.9161 178.134 46.0783 178.183 45.2897 178.183Z" fill="#00FF87"/>
<path d="M89.9914 197.306C82.3029 197.75 74.8607 194.497 69.9814 188.533C62.9335 179.563 61.7507 164.334 66.5807 143.338L67.2707 140.677L67.9607 137.818C69.5378 131.904 71.4107 126.088 73.5793 120.371L85.2107 125.053C82.6479 131.707 80.5778 138.508 78.9021 145.458L78.2614 148.415C74.9593 163.94 75.4521 175.374 79.7893 180.795C85.5557 186.168 94.4272 186.168 100.194 180.795C104.777 175.029 105.073 162.363 100.982 145.408L113.156 142.55C118.232 163.989 117.148 179.366 109.952 188.583C105.171 194.497 97.7293 197.75 89.9914 197.306Z" fill="#00FF87"/>
<path d="M139.13 178.183C138.292 178.233 137.455 178.233 136.567 178.183C125.035 176.853 113.304 166.65 101.772 147.873C97.7302 141.318 94.083 134.467 90.9287 127.419L102.412 122.49C105.32 128.947 108.622 135.255 112.368 141.268C121.585 156.005 130.801 164.876 138.145 165.714C145.932 165.27 152.043 158.962 152.24 151.175C151.402 143.831 142.728 134.763 127.844 125.398C120.895 121.16 113.304 117.956 105.419 115.886L107.538 103.565C116.952 105.93 126.02 109.676 134.399 114.605C153.226 126.236 163.379 137.966 164.71 149.499C165.449 157.138 162.442 164.728 156.725 169.805C152.24 174.881 145.882 177.937 139.13 178.183Z" fill="#00FF87"/>
<path d="M124.196 75.2252L129.519 62.5095C133.413 53.1944 145.143 28.9458 145.636 27.9108C150.86 17.3143 161.358 4.20429 173.827 2.13429C186.789 0.754282 198.47 10.1679 199.85 23.1301C199.998 24.5101 200.047 25.8901 199.949 27.2701C198.125 40.6758 182.994 51.0258 174.172 56.0037H173.975C161.999 61.6716 149.726 66.6002 137.158 70.7402L124.196 75.2252ZM177.326 14.3079C176.883 14.2586 176.39 14.2586 175.946 14.3079C169.736 15.3429 161.851 23.1301 156.922 33.2337C156.922 33.2337 151.747 44.0765 147.114 53.8844C154.31 51.2723 161.309 48.2658 168.159 44.9144C179.199 38.5565 186.789 31.1144 187.578 25.4465C187.874 22.3908 186.543 19.4336 184.177 17.5608C182.403 15.5893 179.939 14.4065 177.326 14.3079Z" fill="#00FF87"/>
</svg>
