<?xml version="1.0" encoding="utf-8"?>
<!-- Generator: Adobe Illustrator 25.3.1, SVG Export Plug-In . SVG Version: 6.00 Build 0)  -->
<!DOCTYPE svg PUBLIC "-//W3C//DTD SVG 1.1//EN" "http://www.w3.org/Graphics/SVG/1.1/DTD/svg11.dtd" [
	<!ENTITY ns_extend "http://ns.adobe.com/Extensibility/1.0/">
	<!ENTITY ns_ai "http://ns.adobe.com/AdobeIllustrator/10.0/">
	<!ENTITY ns_graphs "http://ns.adobe.com/Graphs/1.0/">
	<!ENTITY ns_vars "http://ns.adobe.com/Variables/1.0/">
	<!ENTITY ns_imrep "http://ns.adobe.com/ImageReplacement/1.0/">
	<!ENTITY ns_sfw "http://ns.adobe.com/SaveForWeb/1.0/">
	<!ENTITY ns_custom "http://ns.adobe.com/GenericCustomNamespace/1.0/">
	<!ENTITY ns_adobe_xpath "http://ns.adobe.com/XPath/1.0/">
]>
<svg version="1.1" id="Layer_1" xmlns:x="&ns_extend;" xmlns:i="&ns_ai;" xmlns:graph="&ns_graphs;"
	 xmlns="http://www.w3.org/2000/svg" xmlns:xlink="http://www.w3.org/1999/xlink" x="0px" y="0px" viewBox="0 0 512 512"
	 style="enable-background:new 0 0 512 512;" xml:space="preserve">
<style type="text/css">
	.st0{fill:#FFCF26;}
</style>
<metadata>
	<sfw  xmlns="&ns_sfw;">
		<slices></slices>
		<sliceSourceBounds  bottomLeftOrigin="true" height="510.7" width="511.5" x="0.9" y="0.5"></sliceSourceBounds>
	</sfw>
</metadata>
<rect x="0.9" y="0.8" class="st0" width="511.5" height="510.7"/>
<g>
	<path d="M285,95h101.1v82.3c0,5.4-1,9.2-3,11.6c-2,2.4-5.3,3.5-9.8,3.5c-3.3,0-6-0.8-7.9-2.5c-1.9-1.6-3.5-4.5-4.9-8.4
		c-2.5-7.7-5.8-14.8-9.8-21.2c-4-6.4-8.5-12-13.5-16.5c-6.9-6.3-14.4-11.1-22.6-14.4c-8.2-3.3-18.1-5.6-29.6-6.8V95z M283.7,266.7
		v-27.4c9.9-4.4,17.1-9.1,21.7-14.3c4.6-5.1,8-12.1,10.2-20.9c1.3-6,3.1-10.1,5.3-12.4c2.2-2.3,5.3-3.4,9.3-3.4c5.4,0,9,2,11,5.9
		c1.2,2,1.8,6.7,1.8,13.9v89.9c0,7.4-0.9,12.5-2.6,15.3c-1.8,2.8-5,4.3-9.7,4.3c-3.9,0-6.9-1.1-9-3.3c-2.2-2.2-3.9-5.9-5.3-11.1
		c-3-10.9-7.1-19.2-12.3-25C298.9,272.5,292.1,268.6,283.7,266.7 M262.9,95v277.2c0,6.1,1.3,10.5,3.8,13.2c1.3,1.6,2.6,2.6,3.8,3
		c1.2,0.4,5,1.4,11.5,3c8,1.7,12,6.1,12,13c0,4.1-2.2,7.4-6.5,9.9c-3.2,1.9-8.4,2.8-15.8,2.8h-8.5H151.2h-6.5
		c-6,0-10.7-1.1-13.9-3.2c-3.3-2.1-4.9-5.1-4.9-9.1c0-6.4,3.4-10.7,10-12.7c5.5-1.7,8.7-2.8,9.7-3.2c0.9-0.4,1.9-1.3,2.9-2.7
		c2-2.5,3-6.5,3-12V137.9c0-5.5-1-9.5-3-12c-1-1.4-2-2.3-2.9-2.7c-0.9-0.4-4.1-1.5-9.7-3.2c-6.7-2-10-6.3-10-12.8
		c0-3.9,1.6-6.9,4.9-9.1c3.3-2.1,7.9-3.2,13.9-3.2h6.5H262.9z"/>
</g>
</svg>
