<?xml version="1.0" encoding="utf-8"?>
<!-- Generator: Adobe Illustrator 25.3.1, SVG Export Plug-In . SVG Version: 6.00 Build 0)  -->
<!DOCTYPE svg PUBLIC "-//W3C//DTD SVG 1.1//EN" "http://www.w3.org/Graphics/SVG/1.1/DTD/svg11.dtd" [
	<!ENTITY ns_extend "http://ns.adobe.com/Extensibility/1.0/">
	<!ENTITY ns_ai "http://ns.adobe.com/AdobeIllustrator/10.0/">
	<!ENTITY ns_graphs "http://ns.adobe.com/Graphs/1.0/">
	<!ENTITY ns_vars "http://ns.adobe.com/Variables/1.0/">
	<!ENTITY ns_imrep "http://ns.adobe.com/ImageReplacement/1.0/">
	<!ENTITY ns_sfw "http://ns.adobe.com/SaveForWeb/1.0/">
	<!ENTITY ns_custom "http://ns.adobe.com/GenericCustomNamespace/1.0/">
	<!ENTITY ns_adobe_xpath "http://ns.adobe.com/XPath/1.0/">
]>
<svg version="1.1" id="Слой_1" xmlns:x="&ns_extend;" xmlns:i="&ns_ai;" xmlns:graph="&ns_graphs;"
	 xmlns="http://www.w3.org/2000/svg" xmlns:xlink="http://www.w3.org/1999/xlink" x="0px" y="0px" viewBox="0 0 256 256"
	 style="enable-background:new 0 0 256 256;" xml:space="preserve">
<style type="text/css">
	.st0{clip-path:url(#SVGID_2_);fill:#1B2147;}
	.st1{clip-path:url(#SVGID_2_);fill:#FFFFFF;}
	.st2{clip-path:url(#SVGID_2_);fill:#E41514;}
</style>
<metadata>
	<sfw  xmlns="&ns_sfw;">
		<slices></slices>
		<sliceSourceBounds  bottomLeftOrigin="true" height="106.9" width="248.4" x="3.8" y="74.6"></sliceSourceBounds>
	</sfw>
</metadata>
<g>
	<defs>
		<rect id="SVGID_1_" x="3.8" y="74.6" width="248.4" height="106.9"/>
	</defs>
	<clipPath id="SVGID_2_">
		<use xlink:href="#SVGID_1_"  style="overflow:visible;"/>
	</clipPath>
	<path class="st0" d="M3.8,93.7c0-10.6,8.6-19.2,19.3-19.2h209.9c10.6,0,19.3,8.6,19.3,19.2v68.5c0,10.6-8.6,19.2-19.3,19.2H23.1
		c-10.6,0-19.3-8.6-19.3-19.2V93.7z"/>
	<path class="st1" d="M207.2,152.2c1.9,0.4,3.8,0.6,5.8,0.6c8.5,0,10.5-6.6,13.1-13.3l9.8-25h-9.3l-5.5,17.5h-0.1l-5.8-17.5h-10
		l10.9,27.5c-0.7,2.4-2.4,3.7-4.7,3.7c-1.3,0-2.4-0.2-3.7-0.6L207.2,152.2z M203.1,141.4c-0.4-2.1-0.5-4.2-0.5-6.3v-10
		c0-8.2-5.9-11.1-12.8-11.1c-4,0-7.4,0.6-10.7,1.9l0.2,6.3c2.6-1.4,5.6-2,8.5-2c3.3,0,6.1,1,6.1,4.6c-1.2-0.2-2.8-0.4-4.3-0.4
		c-4.9,0-13.9,1-13.9,9.2c0,5.8,4.7,8.5,10,8.5c3.8,0,6.4-1.5,8.5-4.8h0.1c0,1.4,0.1,2.8,0.2,4.2H203.1z M184.4,132.9
		c0-2.6,2.5-3.6,5.6-3.6c1.4,0,2.7,0.1,3.9,0.2c0,3.1-2.2,6.3-5.7,6.3C186,135.8,184.4,134.7,184.4,132.9 M141.6,152.2h9.3v-14.6
		h0.1c1.8,3.2,5.3,4.4,8.5,4.4c8,0,12.3-6.6,12.3-14.5c0-6.5-4.1-13.6-11.5-13.6c-4.2,0-8.1,1.7-10,5.5h-0.1v-4.8h-8.5V152.2z
		 M162.1,127.7c0,4.3-2.1,7.2-5.6,7.2c-3.1,0-5.7-2.9-5.7-6.9c0-4,2.3-7,5.7-7C160.1,121,162.1,124.1,162.1,127.7 M11.7,94.4v67.2
		c0,6.6,5.4,12,12,12h109.9V82.4H23.8C17.1,82.4,11.7,87.8,11.7,94.4"/>
	<path class="st2" d="M112,142c8.9,0,15.6-5.2,15.6-14c0-8.9-6.8-14.1-15.6-14.1s-15.6,5.2-15.6,14.1C96.4,136.9,103.1,142,112,142
		 M112,135.5c-4.3,0-6-3.6-6-7.5c0-4,1.8-7.6,6-7.6s6,3.6,6,7.6C118,132,116.3,135.5,112,135.5 M96,114.2c-0.9-0.1-2-0.3-3.1-0.3
		c-4,0-6.3,2.2-7.9,5.6h-0.1v-4.9h-8.4v26.9h9.3v-11.3c0-5.3,2.4-8.4,6.8-8.4c1.1,0,2.1,0,3.1,0.3L96,114.2z M60.9,141.4h9.3v-26.9
		h-9.3V141.4z M70.2,103.3h-9.3v6.8h9.3V103.3z M54.5,114.5h-8.4v4.8H46c-2-3.3-5.2-5.5-9.1-5.5c-8.3,0-12.1,6-12.1,14
		c0,7.9,4.6,13.5,12,13.5c3.7,0,6.8-1.4,9-4.6h0.1v1.4c0,5.3-2.9,7.8-8.2,7.8c-3.9,0-6.2-0.8-9.1-2.2l-0.5,7.3
		c2.2,0.8,5.8,1.7,10.3,1.7c10.8,0,16.2-3.6,16.2-14.6V114.5z M34.4,127.7c0-3.7,1.8-6.7,5.3-6.7c4.2,0,5.9,3.4,5.9,6.4
		c0,4.1-2.6,6.9-5.9,6.9C36.8,134.3,34.4,131.9,34.4,127.7"/>
</g>
</svg>
