<?xml version="1.0" encoding="utf-8"?>
<!-- Generator: Adobe Illustrator 25.3.1, SVG Export Plug-In . SVG Version: 6.00 Build 0)  -->
<!DOCTYPE svg PUBLIC "-//W3C//DTD SVG 1.1//EN" "http://www.w3.org/Graphics/SVG/1.1/DTD/svg11.dtd" [
	<!ENTITY ns_extend "http://ns.adobe.com/Extensibility/1.0/">
	<!ENTITY ns_ai "http://ns.adobe.com/AdobeIllustrator/10.0/">
	<!ENTITY ns_graphs "http://ns.adobe.com/Graphs/1.0/">
	<!ENTITY ns_vars "http://ns.adobe.com/Variables/1.0/">
	<!ENTITY ns_imrep "http://ns.adobe.com/ImageReplacement/1.0/">
	<!ENTITY ns_sfw "http://ns.adobe.com/SaveForWeb/1.0/">
	<!ENTITY ns_custom "http://ns.adobe.com/GenericCustomNamespace/1.0/">
	<!ENTITY ns_adobe_xpath "http://ns.adobe.com/XPath/1.0/">
]>
<svg version="1.1" id="Layer_1" xmlns:x="&ns_extend;" xmlns:i="&ns_ai;" xmlns:graph="&ns_graphs;"
	 xmlns="http://www.w3.org/2000/svg" xmlns:xlink="http://www.w3.org/1999/xlink" x="0px" y="0px" viewBox="0 0 512 512"
	 style="enable-background:new 0 0 512 512;" xml:space="preserve">
<style type="text/css">
	.st0{fill:none;stroke:#2869AE;stroke-width:2;stroke-miterlimit:10;}
	.st1{fill:#2869AE;}
</style>
<metadata>
	<sfw  xmlns="&ns_sfw;">
		<slices></slices>
		<sliceSourceBounds  bottomLeftOrigin="true" height="343.1" width="513.7" x="-0.9" y="84.7"></sliceSourceBounds>
	</sfw>
</metadata>
<rect x="0.1" y="85.2" class="st0" width="511.7" height="341.1"/>
<g id="layer1" transform="translate(-45.859375,-323.48718)">
	<path id="path62_4_" class="st1" d="M251.2,750.3l-46-200l-58.4-0.1l0,0l-14.9-62.9h127.4l41.3,180.4h1.8l26-115.6
		c13.1-52.5,18-64.8,91.9-64.8h53.1c0,0-10.7,48.4-24.1,100.9c-5.1,20-49.4,17.7-47.2-1c0.2-2,2.3-16,4-26
		c2.4-14.4-14.4-16.2-17.4-2c-2.2,10.2-35.8,181.4-37.6,190.6L251.2,750.3z"/>
</g>
<rect x="0.1" y="344.3" class="st1" width="511.7" height="21.2"/>
</svg>
