<svg width="100" height="100" viewBox="0 0 100 100" fill="none" xmlns="http://www.w3.org/2000/svg">
<rect width="100" height="100" fill="white"/>
<g clip-path="url(#clip0_1846_111788)">
<path d="M47.2968 50.2356V61.9694H43.6039V32.9921H53.3982C54.5673 32.9674 55.7296 33.1764 56.8182 33.607C57.9067 34.0376 58.8999 34.6812 59.7404 35.5007C60.5893 36.2704 61.265 37.2144 61.7219 38.2692C62.1789 39.3241 62.4066 40.4653 62.3896 41.6161C62.4139 42.7732 62.1898 43.9218 61.7325 44.9834C61.2752 46.0449 60.5956 46.9942 59.7404 47.7663C58.0277 49.4125 55.9136 50.2348 53.3982 50.2333H47.2968V50.2356ZM47.2968 36.5596V46.675H53.4899C54.1689 46.6953 54.8445 46.5725 55.4737 46.3145C56.1029 46.0565 56.6717 45.669 57.1438 45.1768C57.6135 44.7165 57.9868 44.166 58.2417 43.5578C58.4966 42.9496 58.628 42.296 58.628 41.6358C58.628 40.9755 58.4966 40.322 58.2417 39.7138C57.9868 39.1056 57.6135 38.5551 57.1438 38.0948C56.6777 37.5922 56.1108 37.1952 55.4809 36.9301C54.8509 36.665 54.1723 36.538 53.4899 36.5573H47.2968V36.5596Z" fill="#5F6368"/>
<path d="M70.8992 41.4959C73.6287 41.4959 75.7833 42.2312 77.3629 43.7017C78.9426 45.1721 79.7316 47.1883 79.7301 49.7501V61.9694H76.1977V59.2181H76.0372C74.508 61.4839 72.4742 62.6168 69.9358 62.6168C67.769 62.6168 65.9562 61.9694 64.4974 60.6747C63.7973 60.0804 63.2376 59.3362 62.859 58.4962C62.4804 57.6562 62.2926 56.7417 62.3091 55.8193C62.3091 53.7677 63.0783 52.1361 64.6166 50.9246C66.155 49.7131 68.2086 49.1058 70.7776 49.1027C72.9704 49.1027 74.7764 49.5073 76.1954 50.3165V49.4657C76.1996 48.8368 76.0649 48.2149 75.8011 47.6451C75.5372 47.0752 75.1509 46.5717 74.6701 46.171C73.6935 45.2828 72.4208 44.7982 71.1056 44.8138C69.0428 44.8138 67.4104 45.6908 66.2085 47.4449L62.956 45.3802C64.7451 42.7907 67.3928 41.4959 70.8992 41.4959ZM66.1213 55.9002C66.1189 56.374 66.2287 56.8415 66.4418 57.2637C66.6548 57.686 66.9649 58.0509 67.3462 58.3279C68.1629 58.9755 69.1767 59.3186 70.2157 59.299C71.774 59.2964 73.2678 58.6711 74.3696 57.5603C75.5929 56.3996 76.2046 55.0378 76.2046 53.4748C75.0531 52.55 73.4475 52.0876 71.3878 52.0876C69.8877 52.0876 68.6368 52.4521 67.6352 53.1812C66.6237 53.9211 66.1213 54.8205 66.1213 55.9002V55.9002Z" fill="#5F6368"/>
<path d="M100.007 42.1434L87.6758 70.7092H83.8636L88.4396 60.7141L80.3312 42.1434H84.3453L90.2057 56.3859H90.286L95.986 42.1434H100.007Z" fill="#5F6368"/>
<path d="M32.3738 47.7062C32.3752 46.5718 32.28 45.4393 32.0894 44.3213H16.5149V50.7327H25.4352C25.2527 51.7567 24.8663 52.7328 24.2995 53.6023C23.7326 54.4717 22.9969 55.2164 22.1368 55.7915V59.9533H27.4606C30.5778 57.0563 32.3738 52.772 32.3738 47.7062Z" fill="#4285F4"/>
<path d="M16.5148 63.974C20.9716 63.974 24.7241 62.4989 27.4605 59.9556L22.1368 55.7939C20.655 56.8065 18.7466 57.3846 16.5148 57.3846C12.2072 57.3846 8.55099 54.4575 7.24356 50.513H1.75924V54.802C3.1338 57.5591 5.24153 59.8768 7.84713 61.4965C10.4527 63.1161 13.4536 63.9739 16.5148 63.974V63.974Z" fill="#34A853"/>
<path d="M7.24368 50.5131C6.55249 48.4462 6.55249 46.2079 7.24368 44.141V39.8521H1.75936C0.603028 42.1714 0.000812531 44.7313 0.000812531 47.327C0.000812531 49.9228 0.603028 52.4826 1.75936 54.802L7.24368 50.5131Z" fill="#FBBC04"/>
<path d="M16.5148 37.2695C18.87 37.2307 21.1457 38.1277 22.8501 39.7666L27.5638 35.0152C24.5748 32.1854 20.6152 30.6318 16.5148 30.6801C13.4536 30.6802 10.4527 31.538 7.84713 33.1576C5.24153 34.7772 3.1338 37.095 1.75924 39.8521L7.24356 44.141C8.55099 40.1966 12.2072 37.2695 16.5148 37.2695Z" fill="#EA4335"/>
</g>
<defs>
<clipPath id="clip0_1846_111788">
<rect width="100" height="42" fill="white" transform="translate(0 29)"/>
</clipPath>
</defs>
</svg>
