<?xml version="1.0" encoding="utf-8"?>
<!-- Generator: Adobe Illustrator 25.3.1, SVG Export Plug-In . SVG Version: 6.00 Build 0)  -->
<!DOCTYPE svg PUBLIC "-//W3C//DTD SVG 1.1//EN" "http://www.w3.org/Graphics/SVG/1.1/DTD/svg11.dtd" [
	<!ENTITY ns_extend "http://ns.adobe.com/Extensibility/1.0/">
	<!ENTITY ns_ai "http://ns.adobe.com/AdobeIllustrator/10.0/">
	<!ENTITY ns_graphs "http://ns.adobe.com/Graphs/1.0/">
	<!ENTITY ns_vars "http://ns.adobe.com/Variables/1.0/">
	<!ENTITY ns_imrep "http://ns.adobe.com/ImageReplacement/1.0/">
	<!ENTITY ns_sfw "http://ns.adobe.com/SaveForWeb/1.0/">
	<!ENTITY ns_custom "http://ns.adobe.com/GenericCustomNamespace/1.0/">
	<!ENTITY ns_adobe_xpath "http://ns.adobe.com/XPath/1.0/">
]>
<svg version="1.1" id="Layer_1" xmlns:x="&ns_extend;" xmlns:i="&ns_ai;" xmlns:graph="&ns_graphs;"
	 xmlns="http://www.w3.org/2000/svg" xmlns:xlink="http://www.w3.org/1999/xlink" x="0px" y="0px" viewBox="0 0 512 512"
	 style="enable-background:new 0 0 512 512;" xml:space="preserve">
<style type="text/css">
	.st0{fill-rule:evenodd;clip-rule:evenodd;fill:#005FA0;}
</style>
<metadata>
	<sfw  xmlns="&ns_sfw;">
		<slices></slices>
		<sliceSourceBounds  bottomLeftOrigin="true" height="511.9" width="511.8" x="0.1" y="0"></sliceSourceBounds>
	</sfw>
</metadata>
<g>
	<path class="st0" d="M491.7,419.5c-14.3,4.4-29,6.5-43.9,6.5c-11.5,0-22.3-1.4-32.2-4.2c-10-2.8-18.7-7.2-26.2-13.1
		c-7.5-5.9-13.3-13.4-17.5-22.5c-4.2-9-6.3-19.8-6.3-32.3c0-13.7,2.4-25,7.2-33.9c4.8-8.9,11.1-16,18.7-21.3
		c7.6-5.3,16.3-9.3,26.2-11.9c9.8-2.6,19.7-4.8,29.7-6.3c10-1.6,19.8-2.8,29.4-3.7c9.7-0.9,18.2-2.3,25.7-4.2c3.5-0.9,6.7-2,9.5-3.2
		v-48.4c-3.5-1.9-7.5-3.1-12-3.8c-5.1-0.8-10.6-1.2-16.5-1.2c-13,0-23.3,2.8-30.7,8.5c-7.4,5.6-11.8,15.1-13,28.2h-66.5
		c0.9-15.6,4.8-28.6,11.7-38.9l0,0c6.8-10.3,15.6-18.6,26.2-24.8c10.6-6.2,22.5-10.7,35.7-13.4c13.2-2.7,26.6-4,40-4
		c8.3,0,16.8,0.4,25.3,1.2V0.1H0.1V512H512V410.3C505.7,414.2,498.9,417.3,491.7,419.5z M337,419.9h-73.4V275.8H128.5v144.1H55V86
		h73.4v128.2h135.1V86H337V419.9z"/>
	<path class="st0" d="M487.1,313.3c-5.3,0.6-10.6,1.4-15.9,2.3c-5,0.9-9.9,2.2-14.7,3.7c-4.8,1.6-9,3.7-12.6,6.3
		c-3.6,2.7-6.5,6-8.6,10c-2.2,4.1-3.3,9.2-3.3,15.4c0,5.9,1.1,10.9,3.3,15c2.2,4.1,5.1,7.3,8.9,9.6c3.7,2.3,8.1,4,13.1,4.9
		c5,0.9,10.1,1.4,15.4,1.4c13.1,0,23.2-2.2,30.3-6.6c3.4-2.1,6.4-4.4,9-6.9v-60c-3.1,0.9-6.3,1.7-9.7,2.3
		C497.4,311.9,492.4,312.7,487.1,313.3z"/>
</g>
</svg>
