<?xml version="1.0" encoding="utf-8"?>
<!-- Generator: Adobe Illustrator 25.3.1, SVG Export Plug-In . SVG Version: 6.00 Build 0)  -->
<!DOCTYPE svg PUBLIC "-//W3C//DTD SVG 1.1//EN" "http://www.w3.org/Graphics/SVG/1.1/DTD/svg11.dtd" [
	<!ENTITY ns_extend "http://ns.adobe.com/Extensibility/1.0/">
	<!ENTITY ns_ai "http://ns.adobe.com/AdobeIllustrator/10.0/">
	<!ENTITY ns_graphs "http://ns.adobe.com/Graphs/1.0/">
	<!ENTITY ns_vars "http://ns.adobe.com/Variables/1.0/">
	<!ENTITY ns_imrep "http://ns.adobe.com/ImageReplacement/1.0/">
	<!ENTITY ns_sfw "http://ns.adobe.com/SaveForWeb/1.0/">
	<!ENTITY ns_custom "http://ns.adobe.com/GenericCustomNamespace/1.0/">
	<!ENTITY ns_adobe_xpath "http://ns.adobe.com/XPath/1.0/">
]>
<svg version="1.1" id="Layer_1" xmlns:x="&ns_extend;" xmlns:i="&ns_ai;" xmlns:graph="&ns_graphs;"
	 xmlns="http://www.w3.org/2000/svg" xmlns:xlink="http://www.w3.org/1999/xlink" x="0px" y="0px" viewBox="0 0 512 512"
	 style="enable-background:new 0 0 512 512;" xml:space="preserve">
<style type="text/css">
	.st0{fill:url(#SVGID_1_);}
	.st1{fill:#1B83AA;}
	.st2{fill:#FFFFFF;}
	.st3{fill:#666666;}
</style>
<metadata>
	<sfw  xmlns="&ns_sfw;">
		<slices></slices>
		<sliceSourceBounds  bottomLeftOrigin="true" height="488.1" width="444.7" x="33.6" y="12"></sliceSourceBounds>
	</sfw>
</metadata>
<g>
	
		<linearGradient id="SVGID_1_" gradientUnits="userSpaceOnUse" x1="348.7255" y1="392.0415" x2="345.1301" y2="885.0708" gradientTransform="matrix(1 0 0 1 -91.155 -386.9598)">
		<stop  offset="0" style="stop-color:#2BC0D3"/>
		<stop  offset="2.300000e-02" style="stop-color:#36C1D4"/>
		<stop  offset="0.111" style="stop-color:#2BC0D3"/>
		<stop  offset="0.232" style="stop-color:#12BED3"/>
		<stop  offset="0.355" style="stop-color:#00BBD1"/>
		<stop  offset="0.645" style="stop-color:#03A0BE"/>
		<stop  offset="0.805" style="stop-color:#148EB2"/>
		<stop  offset="0.903" style="stop-color:#178BB0"/>
		<stop  offset="1" style="stop-color:#1A86AC"/>
	</linearGradient>
	<path class="st0" d="M52.2,12.2L460.9,12c0,0,17.1,0.2,17.4,16.5c0.2,11.2,0,384.3,0,384.3s2.4,19.2-17.6,20.1
		c-20,0.8-327.1,0.8-327.1,0.8l-0.2,60.5c0,0,1.8,8.1-4.2,5.3l-50.6-65.3l-28.2-0.5c0,0-16.4-1.7-16.4-17
		c0-14.4-0.4-389.8-0.4-389.8S32.2,12.4,52.2,12.2L52.2,12.2z"/>
	<path class="st1" d="M78.1,111.5l16.5-0.2v42.3h50.5l-0.2-41.9h16.5l0.2,100.3l-16.7,0.2v-43.4L94.6,169L95,212l-17.1,0.2
		L78.1,111.5z M210.5,135c-39.8,0.4-37.4,38.9-37.4,38.9s-0.8,39.6,37.7,39.8c0,0,21.5,0.7,31.6-13.5l-9.2-8.5c0,0-9.8,8.8-20.8,8.6
		c-11-0.2-22.9-8.4-22.9-20.1l56.6-0.2C246.1,180,250.3,134.6,210.5,135z M209.3,148.1c18.4,0.1,20.3,20.7,20.3,20.7l-40.2,0.1
		C189.4,168.9,191.4,148,209.3,148.1z M257.7,107.9h16.4L274,211.8h-16.1L257.7,107.9z M291,108.2h16.4l-0.2,103.9h-16.1L291,108.2z
		 M358.9,134.3c-22.1,0-39.8,17.8-39.8,39.7s17.9,39.7,39.8,39.7c22.1,0,39.8-17.8,39.8-39.7C398.7,152.2,380.8,134.3,358.9,134.3
		L358.9,134.3z M357.6,148.5c0.4,0,0.9,0,1.3,0c13.7,0,24.6,11.4,24.6,25.7c0,14.2-11,25.7-24.6,25.7c-13.6,0-24.7-11.5-24.7-25.7
		C334.2,160.4,344.5,149.1,357.6,148.5L357.6,148.5z M78.3,231.6v85.9c0,2.5,19.9,19.9,39.5,19.6s40.4-8.8,41-37.6
		c0.6-28.7-16.8-42.2-35.6-42.2s-28.5,8.8-28.5,8.8l-0.6-34.7L78.3,231.6L78.3,231.6z M121.1,272c14,0.3,23.5,14,23.3,25.6
		c-0.1,12.5-9.4,24.9-24.2,24.9c-15.6,0-25.7-8.5-25.7-8.5l-0.2-34.5C94.4,279.5,105.9,271.6,121.1,272z M201.2,257.5
		c-16.3,0-28.8,6.6-28.8,6.6l4.4,12.7c0,0,8.7-4.9,22.7-4.9c19.3,0,18,17.7,18,17.7c-6.6-3.6-21.1-3.4-21.1-3.4
		c-29.8,0.4-30.7,22.7-30.5,26.9c0.2,3.6-0.2,24.2,33.9,23.1c34-1,33.6-23.6,33.6-23.6s0.8-15.1-0.6-30.6
		C231.5,266.6,217.5,257.5,201.2,257.5L201.2,257.5z M202.2,298.5c5.1,0.1,10.4,0.1,13.5,1.3c2.2,0.9,2.9,2.1,2.8,5
		c-0.1,5.1,0.8,7.4-2,11.1c-2.3,4.9-11.7,8.5-18.4,8.6c-10.1,0.2-18.4-4.8-18.4-12.9c0-8,8.5-12.7,18.6-13.1
		C199.7,298.5,201,298.5,202.2,298.5L202.2,298.5z M245.6,259.3h16.2v12.5c0,0,8.1-14.8,25.9-14.5c17.8,0.3,24.9,14.6,25.1,21.7
		c0.1,6.9,0.3,55.3,0.3,55.3h-15.9l0.1-49.4c0,0-3.4-13-17.2-12.5c-13.9,0.4-18.1,11.5-18.1,13.8c0,2.2-0.1,48.1-0.1,48.1h-16.1
		L245.6,259.3z M327.3,231.4h16.2l0.1,62.5l32.4-34.9h20.1l-29.8,31.3l32,44.5l-20.2,0.1l-23-33.5l-11.8,12.1l0.1,21.2l-16.2-0.1
		L327.3,231.4z M417.6,309.2l-0.3-78h15.9l0.1,78H417.6z M417.6,334.8l-0.3-14.4h15.9l0.1,14.4H417.6z"/>
	<path class="st2" d="M78.1,113.8l16.5-0.2v42.3h50.5l-0.2-41.9h16.5l0.2,100.3l-16.7,0.2V171l-50.3,0.2l0.4,43.1l-17.1,0.2
		L78.1,113.8z M210.5,137.1c-39.8,0.4-37.4,38.9-37.4,38.9s-0.8,39.6,37.7,39.8c0,0,21.5,0.7,31.6-13.5l-9.2-8.5
		c0,0-9.8,8.8-20.8,8.6c-11-0.2-22.9-8.4-22.9-20.1l56.6-0.2C246.1,182.2,250.3,136.7,210.5,137.1z M209.3,150.3
		c18.4,0.1,20.3,20.7,20.3,20.7l-40.2,0.1C189.4,171.1,191.4,150.1,209.3,150.3z M257.7,110.2h16.4l-0.2,103.9h-16.1L257.7,110.2z
		 M291,110.5h16.4l-0.2,103.9h-16.1L291,110.5z M358.9,136.5c-22.1,0-39.8,17.8-39.8,39.7s17.9,39.7,39.8,39.7
		c22.1,0,39.8-17.8,39.8-39.7C398.7,154.3,380.8,136.5,358.9,136.5L358.9,136.5z M357.6,150.7c0.4,0,0.9,0,1.3,0
		c13.7,0,24.6,11.4,24.6,25.7c0,14.3-11,25.7-24.6,25.7c-13.6,0-24.7-11.5-24.7-25.7C334.2,162.6,344.5,151.4,357.6,150.7
		L357.6,150.7z M78.3,233.9v85.9c0,2.5,19.9,19.9,39.5,19.6c19.6-0.3,40.4-8.8,41-37.6c0.6-28.7-16.8-42.2-35.6-42.2
		s-28.5,8.8-28.5,8.8l-0.6-34.7L78.3,233.9L78.3,233.9z M121.1,274.1c14,0.3,23.5,14,23.3,25.6c-0.1,12.5-9.4,24.9-24.2,24.9
		c-15.6,0-25.7-8.5-25.7-8.5l-0.3-34.5C94.4,281.6,105.9,273.8,121.1,274.1z M201.2,259.8c-16.3,0-28.8,6.6-28.8,6.6l4.4,12.7
		c0,0,8.7-4.9,22.7-4.9c19.3,0,18,17.7,18,17.7c-6.6-3.6-21.1-3.4-21.1-3.4c-29.8,0.4-30.7,22.7-30.5,26.9
		c0.2,3.6-0.2,24.2,33.9,23.1c34-1,33.6-23.6,33.6-23.6s0.8-15.1-0.6-30.6C231.5,268.8,217.5,259.8,201.2,259.8L201.2,259.8z
		 M202.2,300.8c5.1,0.1,10.4,0.1,13.5,1.3c2.2,0.9,2.9,2.1,2.8,5c-0.1,5.1,0.8,7.4-2,11.1c-2.3,4.9-11.7,8.5-18.4,8.6
		c-10.1,0.2-18.4-4.8-18.4-12.9c0-8,8.5-12.7,18.6-13.1C199.7,300.8,201,300.8,202.2,300.8L202.2,300.8z M245.6,261.4h16.2v12.5
		c0,0,8.1-14.8,25.9-14.5c17.8,0.3,24.9,14.6,25.1,21.7c0.1,6.9,0.3,55.3,0.3,55.3h-15.9l0.1-49.4c0,0-3.4-13-17.2-12.5
		c-13.9,0.4-18.1,11.5-18.1,13.8c0,2.2-0.1,48.1-0.1,48.1h-16.1L245.6,261.4z M327.3,233.7h16.2l0.1,62.5l32.4-34.9h20.1l-29.8,31.3
		l32,44.5l-20.2,0.1l-22.9-33.4L343.4,316l0.1,21.2l-16.2-0.1V233.7z M417.6,311.4l-0.3-78h15.9l0.1,78H417.6z M417.6,337l-0.3-14.4
		h15.9l0.1,14.4H417.6z"/>
	<path class="st3" d="M166,487.5v-29.9c0-0.6,0.2-1.1,0.6-1.4c0.4-0.3,0.9-0.5,1.4-0.5c0.6,0,1.1,0.2,1.5,0.5
		c0.4,0.3,0.6,0.8,0.6,1.4l0.1,13c2.1-2.2,4.4-3.5,7.4-3.9c5.9-0.4,10.5,2.1,12.4,6.9c0.6,1.6,0.7,3.4,0.7,5.2
		c0,2.4-0.4,4.3-1.4,6.2c-2.6,4.2-6.4,6.1-10.9,6.1c-1.9,0-3.8-0.5-5.8-1.8c-0.8-0.5-1.8-1.9-2.4-2.4v2.4c0,1.6-1.4,2-2.1,2
		c-0.7,0-1.8-0.7-1.8-1.5C166.1,489,166,488.2,166,487.5L166,487.5z M170,481.5c0.1,1.2,2.1,4.3,3.2,5c1.5,1,3.3,1.8,4.9,1.8
		c2.6,0,5.9-1.4,7.2-3.2c1.5-1.7,2-2.7,2.1-6.5c-0.4-3.8-1.6-5.6-3.6-6.9c-1.8-1-4.2-1.5-6.6-1.3c-2.7,0.1-5.9,2.4-7.1,5.3V481.5z
		 M196.2,496.6c0-0.5,0.2-0.8,0.5-1.1c0.3-0.4,1-0.6,1.5-0.6c0.2,0,0.9-0.1,1.5,0c0.6,0.1,1.1,0,1.6,0c0.9,0,1.2-0.1,1.9-0.4
		c0.8-0.3,0.2,0,0.7-0.5c0.6-0.5-0.1,0.5,0.5-0.3c0.6-0.9,0.4-0.4,0.6-0.7c0.4-0.8,0.9-1.8,1.4-2.9l-10-21.5c-0.2-0.4-0.2-0.7-0.2-1
		c0-0.5,0.2-1,0.6-1.3s0.9-0.5,1.4-0.5c0.9,0,1.6,0.5,2,1.4l8.3,18.6l8-18.6c0.2-0.4,0.5-0.8,0.8-1c0.4-0.2,0.8-0.4,1.2-0.4
		c0.5,0,1,0.2,1.3,0.5c0.3,0.3,0.5,0.8,0.5,1.3c0,0.4-0.1,0.8-0.2,1.1l-9.8,22c-0.7,1.6-1.3,2.8-1.9,3.9c-0.6,1.1-0.6,0.6-1.4,1.7
		c-0.8,1.1-0.9,0.8-1.8,1.4c-0.8,0.7-1.5,0.3-2.5,0.7c-1.1,0.4-1.5,0.1-2.7,0.1C196.9,498.5,196.2,497.9,196.2,496.6L196.2,496.6z
		 M238.9,474.8c0-3.1,0.7-6,2.1-8.6c1.4-2.6,3.3-4.7,5.9-6.2c2.4-1.6,5.2-2.3,8.2-2.3c3.4,0,6.8,0.7,9.1,2c2.1,1.3,4.1,2.5,4.7,4.2
		c0.5,1.1-0.6,2-1.4,2c-0.3,0.1-0.6,0-1.2-0.2c-0.5-0.3-1-0.7-1.3-0.9c-1-1-2.2-1.6-3.4-2.1c-1.5-0.9-4-1.1-6.4-1.1
		c-2.3,0-4.4,0.4-6.2,1.7c-1.9,1.3-3.2,2.8-4.3,4.9c-1,2.1-1.5,4.3-1.5,6.8c0,2.5,0.5,4.8,1.6,6.8c1,2.1,2.4,3.6,4.4,4.8
		c2,1.2,4.1,1.6,6.6,1.6c1.5,0,2.9,0.1,4.2-0.2c1.3-0.2,2.4-1,3.1-1.2c0.9-0.4,1.3-0.8,2.1-1.5c0.4-0.3,0.6-0.6,1-0.9
		c1.1-0.7,2.2-0.4,2.4,0c0.5,0.7,0.4,1,0.3,1.8c-0.2,0.5-0.3,0.7-0.7,1.1c-0.3,0.4-0.6,0.7-1.5,1.3c-0.6,0.4-1,0.8-2.1,1.4
		c-0.9,0.4-1.5,0.8-3.2,1.3c-1.3,0.5-3.7,0.6-5.5,0.6c-2.4,0-4.8-0.4-6.9-1.3c-2.1-0.9-3.9-2.1-5.4-3.6c-1.5-1.6-2.6-3.3-3.4-5.4
		C239.3,479.5,238.9,477.3,238.9,474.8L238.9,474.8z M274,478.8c0-1.9,0.3-3.5,0.8-5.1c0.5-1.6,1.3-2.9,2.1-4.1
		c1-1.2,2.1-2.1,3.6-2.7c1.5-0.7,3.1-1,5-1s3.5,0.3,5,0.9c1.5,0.6,2.7,1.4,3.7,2.3s1.8,2.1,2.2,3.3c0.5,1.3,0.8,2.6,0.8,4v1.3
		c0,0.6-0.2,1-0.5,1.3s-0.7,0.5-1.3,0.5h-17.6c0.1,2.7,0.9,4.9,2.3,6.6s3.6,2.6,6.2,2.6c1.2,0,2.3-0.1,3.3-0.3
		c1.1-0.2,1.9-0.4,2.4-0.7c0.6-0.2,1.1-0.5,1.6-0.7s0.9-0.3,1.2-0.3c0.5,0,0.8,0.2,1.1,0.5c0.3,0.3,0.4,0.7,0.4,1.2
		c0,0.6-0.5,1.2-1.6,1.8c-1.1,0.6-2.3,1.1-3.9,1.4c-1.6,0.3-3.1,0.5-4.7,0.5c-2.4,0-4.7-0.6-6.6-1.8c-2-1.2-3.4-2.7-4.5-4.8
		C274.5,483.5,274,481.3,274,478.8L274,478.8z M278.2,476.3h15.1c0-2.2-0.7-3.9-2.1-5.2c-1.4-1.3-3.3-1.9-5.7-1.9
		c-2.1,0-3.8,0.7-5.1,2C279.4,472.4,278.6,474.2,278.2,476.3L278.2,476.3z M301.9,467.9c0-0.5,0.2-0.9,0.5-1.2
		c0.3-0.3,0.8-0.5,1.3-0.5h2.8V461c0-1.3,0.7-2,1.9-2c0.6,0,1.1,0.2,1.4,0.5c0.3,0.3,0.5,0.8,0.5,1.5v5.3h5.8c0.5,0,1,0.2,1.3,0.5
		c0.3,0.3,0.5,0.7,0.5,1.2s-0.2,0.9-0.5,1.2s-0.7,0.5-1.3,0.5h-5.8V485c0,1.2,0.2,2.1,0.6,2.4c0.4,0.5,1.1,0.7,2.1,0.7
		c1.1,0,2.2-0.4,3.4-1.1c0.2-0.1,0.5-0.2,0.9-0.1c0.3,0,0.6,0.2,0.8,0.6c0.2,0.4,0.4,0.8,0.4,1.2c0,0.9-0.7,1.7-2,2.2
		c-1.3,0.6-2.6,0.9-4.1,0.9c-2.1,0-3.6-0.5-4.6-1.6c-1-1.1-1.5-2.6-1.5-4.8v-16h-2.7c-0.6,0-1-0.1-1.3-0.4
		C301.9,468.9,301.8,468.5,301.9,467.9L301.9,467.9z M322.7,478.7c0-1.9,0.3-3.5,0.8-5.1c0.5-1.6,1.3-2.9,2.2-4.1s2.1-2.1,3.6-2.7
		c1.5-0.7,3.1-1,5-1c1.9,0,3.5,0.3,5,0.9c1.6,0.6,2.7,1.4,3.7,2.3s1.8,2.1,2.2,3.3c0.5,1.3,0.8,2.6,0.8,4v1.3c0,0.6-0.2,1-0.5,1.3
		c-0.3,0.3-0.7,0.5-1.3,0.5h-17.6c0.1,2.7,0.9,4.9,2.3,6.6s3.6,2.6,6.2,2.6c1.2,0,2.3-0.1,3.3-0.3c1.1-0.2,1.9-0.4,2.4-0.7
		c0.6-0.2,1.1-0.5,1.6-0.7s0.9-0.3,1.2-0.3c0.5,0,0.8,0.2,1.1,0.5c0.3,0.3,0.4,0.7,0.4,1.2c0,0.6-0.5,1.2-1.6,1.8
		c-1.1,0.6-2.3,1.1-3.9,1.4c-1.6,0.3-3.1,0.5-4.7,0.5c-2.4,0-4.7-0.6-6.6-1.8s-3.4-2.7-4.5-4.8C323.2,483.3,322.7,481.2,322.7,478.7
		L322.7,478.7z M327,476.1h15.1c0-2.2-0.7-3.9-2.1-5.2c-1.4-1.3-3.3-1.9-5.7-1.9c-2.1,0-3.8,0.7-5.1,2
		C328.2,472.3,327.4,474,327,476.1L327,476.1z M354.5,485.5v-27.8c0-0.6,0.2-1.1,0.6-1.4c0.4-0.3,0.9-0.5,1.4-0.5
		c0.6,0,1.1,0.2,1.5,0.5c0.4,0.3,0.6,0.8,0.6,1.4v27.8c0,0.9,0,3.3,0,4c0,1.1-0.6,2-2.1,2c-1.7-0.1-1.7-0.7-1.8-1.8
		C354.4,488.5,354.3,487.5,354.5,485.5L354.5,485.5z M365.4,478.7c0-1.9,0.3-3.5,0.8-5.1c0.5-1.6,1.3-2.9,2.2-4.1s2.1-2.1,3.6-2.7
		c1.5-0.7,3.1-1,5-1c1.9,0,3.5,0.3,5,0.9c1.5,0.6,2.7,1.4,3.7,2.3s1.8,2.1,2.2,3.3c0.5,1.3,0.8,2.6,0.8,4v1.3c0,0.6-0.2,1-0.5,1.3
		c-0.3,0.3-0.7,0.5-1.3,0.5h-17.6c0.1,2.7,0.9,4.9,2.3,6.6s3.6,2.6,6.2,2.6c1.2,0,2.3-0.1,3.3-0.3c1.1-0.2,1.9-0.4,2.4-0.7
		c0.6-0.2,1.1-0.5,1.6-0.7s0.9-0.3,1.2-0.3c0.5,0,0.8,0.2,1.1,0.5c0.3,0.3,0.4,0.7,0.4,1.2c0,0.6-0.5,1.2-1.6,1.8
		c-1.1,0.6-2.3,1.1-3.9,1.4c-1.6,0.3-3.1,0.5-4.7,0.5c-2.4,0-4.7-0.6-6.6-1.8s-3.4-2.7-4.5-4.8C365.9,483.3,365.4,481.2,365.4,478.7
		L365.4,478.7z M369.7,476.1h15.1c0-2.2-0.7-3.9-2.1-5.2c-1.4-1.3-3.3-1.9-5.7-1.9c-2.1,0-3.8,0.7-5.1,2
		C370.9,472.3,370.1,474,369.7,476.1L369.7,476.1z M396.8,489.5V468c0-0.6,0.1-1,0.4-1.3c0.3-0.3,0.7-0.5,1.3-0.5h0.5
		c0.5,0,0.8,0.1,1.1,0.4c0.3,0.2,0.5,0.7,0.5,1.2v1c2.6-2.1,5.4-3.1,8.3-3.1c3.6,0,6.2,1.2,7.5,3.5c1.1-0.7,1.8-1.2,2.2-1.5
		c0.5-0.3,1.1-0.6,2-1c0.9-0.4,1.7-0.7,2.4-0.8c0.8-0.2,1.8-0.2,2.7-0.2c5.7,0,8.5,2.9,8.5,8.7v15.1c0,0.6-0.2,1-0.5,1.3
		c-0.3,0.3-0.8,0.5-1.3,0.5h-0.4c-0.6,0-1-0.2-1.4-0.5c-0.3-0.3-0.5-0.8-0.5-1.3v-14.6c0-2-0.4-3.4-1.3-4.3
		c-0.9-0.9-2.2-1.3-4.1-1.3c-1,0-2,0.2-2.9,0.5s-1.8,0.7-2.3,1c-0.6,0.3-1.3,0.7-2.1,1.3v17.5c0,0.6-0.2,1-0.5,1.3
		c-0.3,0.3-0.8,0.5-1.3,0.5h-0.4c-0.6,0-1-0.2-1.3-0.5c-0.3-0.3-0.5-0.7-0.5-1.3v-14.4c0-2.1-0.4-3.5-1.2-4.4
		c-0.8-0.9-2.2-1.4-4.3-1.4c-0.4,0-0.8,0-1.3,0.1c-0.4,0-0.8,0.1-1.1,0.2c-0.3,0.1-0.6,0.2-1,0.3c-0.4,0.2-0.7,0.3-0.9,0.3
		c-0.2,0.1-0.5,0.2-0.9,0.4c-0.4,0.2-0.7,0.4-0.8,0.4c-0.1,0.1-0.4,0.2-0.8,0.5s-0.7,0.4-0.8,0.5v17.5c0,0.6-0.2,1-0.5,1.3
		s-0.8,0.5-1.3,0.5h-0.4c-0.6,0-1-0.2-1.3-0.5C397,490.5,396.8,490.1,396.8,489.5L396.8,489.5z"/>
</g>
</svg>
