<?xml version="1.0" encoding="utf-8"?>
<!-- Generator: Adobe Illustrator 26.0.2, SVG Export Plug-In . SVG Version: 6.00 Build 0)  -->
<svg version="1.1" id="Layer_1" xmlns="http://www.w3.org/2000/svg" xmlns:xlink="http://www.w3.org/1999/xlink" x="0px" y="0px"
	 viewBox="0 0 512 512" style="enable-background:new 0 0 512 512;" xml:space="preserve">
<style type="text/css">
	.st0{clip-path:url(#SVGID_00000133512700215853936410000015964401842028669605_);}
	.st1{fill:url(#path3956_00000039107671723479742470000000318455301432642968_);}
	.st2{clip-path:url(#SVGID_00000136412091507046824290000011238777465255710887_);}
	.st3{fill-rule:evenodd;clip-rule:evenodd;fill:#B51D48;}
	.st4{clip-path:url(#SVGID_00000145057386195460604750000017228072765518576788_);}
	.st5{fill-rule:evenodd;clip-rule:evenodd;fill:url(#path3982_00000043444096490422560750000013366196371038766472_);}
</style>
<g>
	<g id="g3942" transform="translate(-4540.0244,-13208.103)">
		<g>
			<g>
				<defs>
					<circle id="SVGID_1_" cx="4796" cy="13464.1" r="255"/>
				</defs>
				<clipPath id="SVGID_00000015356502436172959070000001520209129642723729_">
					<use xlink:href="#SVGID_1_"  style="overflow:visible;"/>
				</clipPath>
				<g id="g3944" style="clip-path:url(#SVGID_00000015356502436172959070000001520209129642723729_);">
					
						<radialGradient id="path3956_00000085222940305438563570000003570414354891073952_" cx="13866.7246" cy="13099.1357" r="149.7645" gradientTransform="matrix(3.8225 0 0 -3.8225 -48099.6523 63370.5117)" gradientUnits="userSpaceOnUse">
						<stop  offset="0" style="stop-color:#FAF1F0"/>
						<stop  offset="1" style="stop-color:#CD6978"/>
					</radialGradient>
					<path id="path3956" style="fill:url(#path3956_00000085222940305438563570000003570414354891073952_);" d="M4541,13464.1
						c0-140.9,114.1-255,255-255s255,114.1,255,255s-114.1,255-255,255S4541,13605,4541,13464.1z"/>
				</g>
			</g>
		</g>
	</g>
	<g id="g3958" transform="translate(-4540.0244,-13208.103)">
		<g>
			<g>
				<defs>
					<circle id="SVGID_00000062159884421627132390000004377436241380530085_" cx="4796" cy="13464.1" r="255"/>
				</defs>
				<clipPath id="SVGID_00000047053823938402232530000017354513338362103722_">
					<use xlink:href="#SVGID_00000062159884421627132390000004377436241380530085_"  style="overflow:visible;"/>
				</clipPath>
				<g id="g3960" style="clip-path:url(#SVGID_00000047053823938402232530000017354513338362103722_);">
					<path id="path3966" class="st3" d="M5068.8,13570.9l-22.6,16.1l-8.8,26.4l7.8,2.3l-1.7,10l13.2-1.8l20.6-48.8L5068.8,13570.9
						L5068.8,13570.9z M4858.8,13375.9l-5.1,6.3l-28.8-0.5l-10.8,8.6l-0.5,10.6l-36.2,27.4l1.3,22l-9.4,13.1l24.8,29.9l15.9,0.2
						l1.8,10l51.7-9.7l6.4,9.1l20.5,1.8l6.5,14.6l-5.1,6l0.9,9.2l9.2,3.7l7.3,31.1l-10.6,11.7v8.9l10.4,9l17.3,46.3l-2.8,10.1
						l10.1,8.4l21-6.4l7.3,3.2l22.9-13.8l19.7-26.5l1.4-24.2l22.8-8.6l7.9-26.4l-10.8-16.2l44.8-42.8l11.1-28.6l-2.9-6l-35.4,8.3
						l-21.5-19.7l2.8-6.3l-29.8-37.5l1.8-4.5l-4.1-7.5l-55.1-11.5l-0.8,9.4l-10.6,2.1l-15.5-10.6l-13.2-2.1l0.8-12.3L4858.8,13375.9
						L4858.8,13375.9z M4918.2,13265.2l-12.8,0.5l-14.7,16.9l-14.2,4.6l1.8,13.2l17.4-3.1l4.5,13.7l19.3-12.6l-5.5-9l16.9-14.6
						l6.3,2.9l-12.4,11.1l6.9,9.4l15.1-7.7l3.7,5.5l-33.1,16l-27.4,2.3l-48.6,20.3l11.1,10.8l-3.6,6l-26-1l-4.6,19.7l22.5,5.4
						l15.5-5.9l-2.3-9.7l16.5-3.2l-2.2-9.1l22.8,3.2l21.1,13.2l-2.9,12.4l16.5-12l-22.3-14.6l4.5-5.1l25.2,19.7l1.3,10.1l17,10
						l7.8-3.3l-11.6-5l3.2-5.9l-7.5-6l11.1-5l6.8,7.3l-4,3.7l13.7,11.3l19.2-5.9l7.5,4.6l-2.8,17.9l43,50.2l-0.9,10.6l11.1,11.5
						l38.5-20.2l8.2,1.3l11.6-25.3l-20.8-7.6l-12.4,2.8l-21.4-19.2l5-2.8l27.1,16.6l55.9,3.1l1.8,12.9l17.4,7.7l0.5-9.1h5l16.1,34.3
						l8.2,2.3l-1.8,10.1l10.1,10l5.4-3.7l7.5,13.5l13.1-4.1l-14.2-12.1l-1.7-26.5l25.6-20.5l-6.8-7.9l34.8,8.8l3.7,21.5l13.2,12.8
						h10.1l12.3,36.2l20.6,6.8v-13.7l-20.5-12.9l-1.8-19.2h9.6l14.1,19.1l16.5-18.1l-28.3-29.3l8.9-13.2l9.9,8.8l25.6-14.2l2.3-22.5
						l-38.8-37.1l8.2-2.8l24.4,19.3l14.9-4.3l-5.4-12.2l9.6-11.7l-17.4-6.7l-15.5,6.3l-0.9-6.8l12.8-1.8l-21.4-30.3l-31.7-12.8
						l-0.9,5.9l-15.5-16l19.7-4.6l4.5,6.9l8.8-8.4l-11.1-4.5l18.3-5.4l20.6,29.3l11.5-0.5l19.2,11.5l6.3-5l-25.6-22.9l-4.6,3.7
						l-13.2-8.3l14.6-2.3l-3.1-21.5l-66.3-6.3l-7,5.1l-80.9-7.1l-75,4.5l2.2-6.6l-29.1-1.5l-2.8,5.4l-15.5-1.3l-5.2,7.8l-31.4,1.3
						l-2.3,6.8l-40.8,9.7l-5.9-5.9l-4.1,2.8l0.5,5.9l-13.2,8.6l-13.4-10l16.9,0.8l2.8-4.5l-36.2-6.9l-19.7,2.8v-0.3H4918.2z
						 M4847.6,13297.3v19.9c0,0-13.6,8.3-11.3,8.8c2.3,0.5,24.3-1.3,24.3-1.3l-5.5-25.8L4847.6,13297.3L4847.6,13297.3z
						 M4834.5,13307.7l-10.8,9.2l11.7,4.6l6.4-7.3L4834.5,13307.7L4834.5,13307.7z M4613.1,13424.8l-16,11.5l17.2,1l11.4-7.9
						L4613.1,13424.8L4613.1,13424.8z M4562.8,13413.3h16l21.8,9.1l-11.4,9.2L4562.8,13413.3L4562.8,13413.3z M4735.4,13312
						l-17.4,10.1l14.5,9.7l12.6-13L4735.4,13312z M4739.8,13237.8l30.9,12l-0.9,15l-26,8.2l-19.7-10.6l22.8-10.3l-19.5-9.4
						L4739.8,13237.8L4739.8,13237.8z M4894.8,13263.2l-24.6-4.1l-5.1,4.1l20.6,12.4L4894.8,13263.2z M4764.3,13222.8l-4.8,9.7
						l47.3,4.7l-20.7,25l12.6,20.7l27.4-22.9l11.5,6l68.8-31.6l-4.6-10.1h-44l-11.4,6.6l-82-7.8L4764.3,13222.8L4764.3,13222.8z
						 M4706.5,13246.2l-47.7,7.5l-25.6-18.3l-26.6,11.3l-21.1-14.3l-69.7,10.5l5.5,8.3l-6,3l-11.9-5.2l-25.6,10l0.9,9.9l-37.1,6.4
						l5.2,8.3l41.5-9.6l32.6-15.4l22.2,11.1l-6.6,7.8l-9.6-3.1l-19.1,35.7l-12.3,0.2l-34.6,23.5l-6.8,41.3l1.6,38.9h8.4l-3-33.2l7-7
						l9,29.3l-4.6,22.7l23.6,17.5l10-3.1l33.9,23.2l-8.4,3.9l30.3,13l4.1-7.8l3.3,13.8l-19.7,27.4l4.8,23.6l8.3,0.8l11.3,14.4
						l6,20.5l37.7,28.8l-4.8,12.1l23.2,37.7l-1.3,6l14.3,26.6l9.6,0.5l5.3,9.1l-4.4,4.4l31.3,24.2l30.5,5l1.7-5.3l-20.8-7.8
						l-8.3-10.5l3.1-8.3l-13.6-20.5l20.8-17.9l-10.5-7.5l3.1-4.3l9.1,3.5l12.6-25.3l-5.8-10.4l4.8-6.9l21.3-5.3l7.5-17.4l-5.8-6.2
						l17.3-35.5l-16.5-22.8l-28.2,0.8l-2.2-7.3l-19.6,1.3l-7.5-14.1l4-3.9l-14.4-16.6l-39.6-18.8l-6.1,7.8l-17-13.6l-28.8,6.2
						l-6.2,11.3l-17.7-4.8l-11.3-6.4l7.7-14.9l-0.5-6.6l-21.8-0.5l0.9-4.3l13-12.6l-3.5-4.8l-14.9,1.8l-3.8,10.5l-20.2-2.6
						l17.9-34.9l42.3-11.7l14.4,5.3l-4.7,13.8l13.8-1.5l-0.8-16.2l32.6-15.3l8.3-15.2l10,3.5l29.7-21.3l19-4.4l-3.8,6.6l2.2,4.4
						l29.4-13.1v-3.5l-19.7,2.1l7.8-7.8l-4.3-9.6l22.1,2.1l8.8-6h12.6l1-8.8l-10.1-1.3l11.1-15.3l-2.8-1.8l-15.2,5.2l-4.5-2.6
						l5.8-6.1l-14.1-7.5l-18.3,9.9l-27.4,20.7l-0.9,9.6l-14.3-5.4l11.7-6.3l1.3-5.8l-16.1-10l7-5.8l42.7-8.3l13.8-8.8l13.1,0.8
						l2.5-7.3l-15.3,2.6l-6.9-6.6L4706.5,13246.2z"/>
					<g id="g3968">
						<g>
							<g>
								<defs>
									<path id="SVGID_00000036243102304569599830000008439083900907112082_" d="M4770.8,13195.4l-4.8,9.7l47.3,4.7l-20.7,25
										l12.6,20.8l27.4-22.9l11.5,6.1l68.8-31.7l-4.6-10l-44-0.2l-11.4,6.6L4770.8,13195.4L4770.8,13195.4z M4901.3,13235.7
										l-24.6-4.1l-5.1,4.1l20.6,12.4L4901.3,13235.7z M4746.2,13210.3l30.9,12.1l-0.9,15l-26,8.2l-19.7-10.6l22.8-10.3l-19.5-9.6
										L4746.2,13210.3L4746.2,13210.3z M4741.9,13284.4l-17.4,10l14.5,9.7l12.6-13L4741.9,13284.4z M4569.2,13385.9h16l21.8,9.1
										l-11.4,9.1L4569.2,13385.9L4569.2,13385.9z M4619.6,13397.3l-16,11.4l17.2,1l11.4-7.9L4619.6,13397.3L4619.6,13397.3z
										 M4840.8,13280.2l-10.8,9.1l11.7,4.6l6.5-7.4L4840.8,13280.2L4840.8,13280.2z M4854,13269.8v19.9c0,0-13.6,8.3-11.3,8.8
										c2.3,0.5,24.3-1.3,24.3-1.3l-5.5-25.8L4854,13269.8L4854,13269.8z M4924.7,13237.7l-12.8,0.5l-14.7,16.9l-14.2,4.6
										l1.8,13.2l17.4-3.1l4.5,13.7l19.3-12.6l-5.5-9l16.9-14.5l6.3,2.8l-12.4,11.1l6.9,9.4l15.1-7.7l3.7,5.5l-33.1,16l-27.4,2.3
										l-48.6,20.3l11.1,10.7l-3.6,6l-26-0.8l-4.6,19.7l22.5,5.4l15.5-5.9l-2.3-9.7l16.5-3.2l-2.2-9.1l22.8,3.2l21.1,13.2
										l-2.9,12.4l16.5-12l-22.3-14.5l4.5-5.2l25.2,19.7l1.3,10l17,10.1l7.8-3.3l-11.6-5l3.2-5.9l-7.5-6.1l11.1-5l6.8,7.3l-4,3.7
										l13.7,11.3l19.2-5.9l7.5,4.6l-2.8,17.9l43,50.2l-0.9,10.6l11.1,11.4l38.5-20.2l-0.9-31.7l-12.4,2.8l-21.4-19.2l5-2.8
										l27.1,16.6l1.8-169l-15.5-1.3l-5.2,7.8l-31.4,1.3l-2.3,6.8l-40.8,9.6l-5.9-5.9l-4.1,2.8l0.5,5.9l-13.2,8.6l-13.4-10.1
										l16.9,1l2.8-4.5l-36.2-7l-19.7,2.9L4924.7,13237.7z M4865.2,13348.5l-5.1,6.3l-28.8-0.5l-10.8,8.6l-0.5,10.6l-36.2,27.5
										l1.3,22l-9.4,13.2l24.8,29.9l15.9,0.2l1.8,10.1l51.7-9.6l6.5,9.1l20.5,1.8l6.4,14.6l-5.1,6l0.9,9.1l9.2,3.7l7.3,31
										l-10.6,11.9v8.9l10.4,9l17.3,46.3l-2.8,10.1l10,8.4l21-6.4l7.3,3.2l22.9-13.8l19.7-26.5l1.4-24.2l22.8-8.6l7.9-26.4
										l-10.8-16.2l44.8-42.8l11.1-28.4l-2.9-6.1l-35.4,8.4l-21.5-19.7l2.8-6.3l-29.8-37.5l1.8-4.5l-4.1-7.5l-55.1-11.6l-0.8,9.4
										l-10.6,2.1l-15.5-10.6l-13.2-2.1l0.8-12.4L4865.2,13348.5L4865.2,13348.5z M5075.3,13543.3l-22.6,16.1l-8.8,26.5l7.8,2.3
										l-1.7,10.1l13.2-1.8l20.6-48.8L5075.3,13543.3L5075.3,13543.3z M4713,13218.7l-47.7,7.5l-25.6-18.3l-26.6,11.3l-21.1-14.3
										l-64,18.7l-0.5,7.6l22.3,11.1l-6.6,7.8l-9.6-3.1l13,189.2l-8.4,3.9l30.3,13l4.1-7.9l3.3,13.9l-19.7,27.4l4.8,23.6l8.3,0.8
										l11.3,14.4l6,20.5l37.7,28.8l-4.8,12.1l23.2,37.7l-1.3,6l14.3,26.6l9.6,0.5l5.3,9.2l-4.5,4.4l31.3,24.2l30.5,5l1.7-5.3
										l-20.8-7.8l-8.3-10.5l3.1-8.3l-13.6-20.5l20.8-17.9l-10.5-7.5l3.1-4.3l9.1,3.5l12.6-25.3l-5.8-10.5l4.8-6.8l21.3-5.3
										l7.5-17.4l-5.8-6.2l17.3-35.6l-16.5-22.8l-28.2,0.8l-2.2-7.4l-19.6,1.3l-7.5-14.1l4-3.8l-14.4-16.6l-39.6-18.8l-6.1,7.8
										l-17-13.6l-28.8,6.1l-6.1,11.3l-17.7-4.8l-11.3-6.4l7.7-14.9l-0.5-6.6l-21.8-0.5l0.9-4.3l13-12.6l-3.5-4.8l-14.9,1.8
										l-3.9,10.5l-2.3-37.5l42.4-11.7l14.4,5.3l-4.7,13.8l13.8-1.5l-0.8-16.2l32.6-15.3l8.3-15.2l10,3.5l29.7-21.3l19-4.4
										l-3.8,6.6l2.2,4.4l29.4-13.1v-3.5l-19.7,2.1l7.8-7.8l-4.3-9.6l22.1,2.1l8.8-6h12.6l1-8.8l-10.1-1.3l11.1-15.3l-2.8-1.8
										l-15.2,5.2l-4.4-2.6l5.8-6.2l-14.1-7.5l-18.3,9.9l-27.4,20.7l-0.9,9.6l-14.3-5.4l11.7-6.3l1.3-5.8l-16.1-10l7-5.8l42.7-8.3
										l13.8-8.8l13.1,0.8l2.5-7.3l-15.3,2.6l-6.9-6.6L4713,13218.7z"/>
								</defs>
								<clipPath id="SVGID_00000110465730988199910970000006250367175280156606_">
									<use xlink:href="#SVGID_00000036243102304569599830000008439083900907112082_"  style="overflow:visible;"/>
								</clipPath>
								<g id="g3970" style="clip-path:url(#SVGID_00000110465730988199910970000006250367175280156606_);">
									
										<radialGradient id="path3982_00000106148975155616658190000006403530407253459390_" cx="13859.9033" cy="13099.1357" r="146.1725" gradientTransform="matrix(3.8225 0 0 -3.8225 -48099.6523 63370.5117)" gradientUnits="userSpaceOnUse">
										<stop  offset="0" style="stop-color:#F6E3E2"/>
										<stop  offset="1" style="stop-color:#B51D48"/>
									</radialGradient>
									
										<path id="path3982" style="fill-rule:evenodd;clip-rule:evenodd;fill:url(#path3982_00000106148975155616658190000006403530407253459390_);" d="
										M4770.8,13195.4l-4.8,9.7l47.3,4.7l-20.7,25l12.6,20.8l27.4-22.9l11.5,6.1l68.8-31.7l-4.6-10l-44-0.2l-11.4,6.6
										L4770.8,13195.4L4770.8,13195.4z M4901.3,13235.7l-24.6-4.1l-5.1,4.1l20.6,12.4L4901.3,13235.7z M4746.2,13210.3l30.9,12.1
										l-0.9,15l-26,8.2l-19.7-10.6l22.8-10.3l-19.5-9.6L4746.2,13210.3L4746.2,13210.3z M4741.9,13284.4l-17.4,10l14.5,9.7
										l12.6-13L4741.9,13284.4z M4569.2,13385.9h16l21.8,9.1l-11.4,9.1L4569.2,13385.9L4569.2,13385.9z M4619.6,13397.3l-16,11.4
										l17.2,1l11.4-7.9L4619.6,13397.3L4619.6,13397.3z M4840.8,13280.2l-10.8,9.1l11.7,4.6l6.5-7.4L4840.8,13280.2
										L4840.8,13280.2z M4854,13269.8v19.9c0,0-13.6,8.3-11.3,8.8c2.3,0.5,24.3-1.3,24.3-1.3l-5.5-25.8L4854,13269.8
										L4854,13269.8z M4924.7,13237.7l-12.8,0.5l-14.7,16.9l-14.2,4.6l1.8,13.2l17.4-3.1l4.5,13.7l19.3-12.6l-5.5-9l16.9-14.5
										l6.3,2.8l-12.4,11.1l6.9,9.4l15.1-7.7l3.7,5.5l-33.1,16l-27.4,2.3l-48.6,20.3l11.1,10.7l-3.6,6l-26-0.8l-4.6,19.7l22.5,5.4
										l15.5-5.9l-2.3-9.7l16.5-3.2l-2.2-9.1l22.8,3.2l21.1,13.2l-2.9,12.4l16.5-12l-22.3-14.5l4.5-5.2l25.2,19.7l1.3,10l17,10.1
										l7.8-3.3l-11.6-5l3.2-5.9l-7.5-6.1l11.1-5l6.8,7.3l-4,3.7l13.7,11.3l19.2-5.9l7.5,4.6l-2.8,17.9l43,50.2l-0.9,10.6
										l11.1,11.4l38.5-20.2l-0.9-31.7l-12.4,2.8l-21.4-19.2l5-2.8l27.1,16.6l1.8-169l-15.5-1.3l-5.2,7.8l-31.4,1.3l-2.3,6.8
										l-40.8,9.6l-5.9-5.9l-4.1,2.8l0.5,5.9l-13.2,8.6l-13.4-10.1l16.9,1l2.8-4.5l-36.2-7l-19.7,2.9L4924.7,13237.7z
										 M4865.2,13348.5l-5.1,6.3l-28.8-0.5l-10.8,8.6l-0.5,10.6l-36.2,27.5l1.3,22l-9.4,13.2l24.8,29.9l15.9,0.2l1.8,10.1
										l51.7-9.6l6.5,9.1l20.5,1.8l6.4,14.6l-5.1,6l0.9,9.1l9.2,3.7l7.3,31l-10.6,11.9v8.9l10.4,9l17.3,46.3l-2.8,10.1l10,8.4
										l21-6.4l7.3,3.2l22.9-13.8l19.7-26.5l1.4-24.2l22.8-8.6l7.9-26.4l-10.8-16.2l44.8-42.8l11.1-28.4l-2.9-6.1l-35.4,8.4
										l-21.5-19.7l2.8-6.3l-29.8-37.5l1.8-4.5l-4.1-7.5l-55.1-11.6l-0.8,9.4l-10.6,2.1l-15.5-10.6l-13.2-2.1l0.8-12.4
										L4865.2,13348.5L4865.2,13348.5z M5075.3,13543.3l-22.6,16.1l-8.8,26.5l7.8,2.3l-1.7,10.1l13.2-1.8l20.6-48.8
										L5075.3,13543.3L5075.3,13543.3z M4713,13218.7l-47.7,7.5l-25.6-18.3l-26.6,11.3l-21.1-14.3l-64,18.7l-0.5,7.6l22.3,11.1
										l-6.6,7.8l-9.6-3.1l13,189.2l-8.4,3.9l30.3,13l4.1-7.9l3.3,13.9l-19.7,27.4l4.8,23.6l8.3,0.8l11.3,14.4l6,20.5l37.7,28.8
										l-4.8,12.1l23.2,37.7l-1.3,6l14.3,26.6l9.6,0.5l5.3,9.2l-4.5,4.4l31.3,24.2l30.5,5l1.7-5.3l-20.8-7.8l-8.3-10.5l3.1-8.3
										l-13.6-20.5l20.8-17.9l-10.5-7.5l3.1-4.3l9.1,3.5l12.6-25.3l-5.8-10.5l4.8-6.8l21.3-5.3l7.5-17.4l-5.8-6.2l17.3-35.6
										l-16.5-22.8l-28.2,0.8l-2.2-7.4l-19.6,1.3l-7.5-14.1l4-3.8l-14.4-16.6l-39.6-18.8l-6.1,7.8l-17-13.6l-28.8,6.1l-6.1,11.3
										l-17.7-4.8l-11.3-6.4l7.7-14.9l-0.5-6.6l-21.8-0.5l0.9-4.3l13-12.6l-3.5-4.8l-14.9,1.8l-3.9,10.5l-2.3-37.5l42.4-11.7
										l14.4,5.3l-4.7,13.8l13.8-1.5l-0.8-16.2l32.6-15.3l8.3-15.2l10,3.5l29.7-21.3l19-4.4l-3.8,6.6l2.2,4.4l29.4-13.1v-3.5
										l-19.7,2.1l7.8-7.8l-4.3-9.6l22.1,2.1l8.8-6h12.6l1-8.8l-10.1-1.3l11.1-15.3l-2.8-1.8l-15.2,5.2l-4.4-2.6l5.8-6.2
										l-14.1-7.5l-18.3,9.9l-27.4,20.7l-0.9,9.6l-14.3-5.4l11.7-6.3l1.3-5.8l-16.1-10l7-5.8l42.7-8.3l13.8-8.8l13.1,0.8l2.5-7.3
										l-15.3,2.6l-6.9-6.6L4713,13218.7z"/>
								</g>
							</g>
						</g>
					</g>
				</g>
			</g>
		</g>
	</g>
</g>
</svg>
