<svg width="200" height="200" viewBox="0 0 200 200" fill="none" xmlns="http://www.w3.org/2000/svg">
<rect width="200" height="200" fill="white"/>
<path d="M20.4707 181.047C31.8054 172.845 43.0261 164.985 53.9621 156.783C99.016 122.836 141.279 85.5853 182.346 46.9676C185.649 43.8919 187.814 39.62 190.605 35.7469C193.851 37.3417 196.016 43.8919 192.541 48.1068C188.497 53.0052 189.978 56.8214 191.972 61.7768C208.319 102.217 198.807 145.448 166.454 174.668C145.152 193.92 119.635 202.065 90.814 199.558C72.8722 198.021 56.6391 191.983 42.0578 181.617C39.5517 179.851 37.5581 179.68 35.3368 181.731C34.7102 182.357 33.8559 182.756 33.1724 183.268C26.85 187.711 24.2299 187.142 20.4707 181.047Z" fill="#FF0000"/>
<path d="M162.524 23.6718C160.075 23.6718 158.366 23.6148 156.601 23.6718C136.551 24.64 116.502 25.6083 96.4528 26.6905C94.0606 26.8045 91.5544 27.374 89.447 28.3993C87.8521 29.2537 86.0864 31.0763 85.7447 32.7281C85.5169 34.0951 86.8838 36.4304 88.1939 37.3417C92.124 40.1327 96.3959 42.4679 100.497 45.0311C105.11 47.9359 105.452 49.0751 102.149 53.4039C92.0101 66.903 81.4728 80.1742 71.5621 93.9011C56.0125 115.488 40.9756 137.36 25.6538 159.061C22.5781 163.447 22.2933 163.447 19.1037 159.004C3.66801 137.246 -2.93913 113.096 1.21881 86.6105C7.59812 45.7715 30.7231 18.3177 69.7395 5.27428C101.864 -5.49081 131.938 0.603709 159.392 20.0834C160.132 20.596 160.816 21.1656 161.442 21.7352C161.784 22.02 161.898 22.4187 162.524 23.6718Z" fill="#FF0000"/>
</svg>
