<svg width="200" height="200" viewBox="0 0 200 200" fill="none" xmlns="http://www.w3.org/2000/svg">
<rect width="200" height="200" fill="white"/>
<path d="M86.6506 115.342C86.2706 116.482 85.7955 118.335 86.128 120.045C86.2231 120.52 86.4131 120.758 86.2706 121.185C85.8905 123.038 85.748 124.701 87.3632 126.791C87.9808 127.646 88.1233 128.501 88.6459 129.309C89.1209 129.926 89.2634 131.019 89.786 131.399C90.4986 132.112 90.9261 132.919 91.6387 133.537C92.3513 134.439 92.7789 134.914 93.7765 135.532C95.1542 136.53 95.9143 137.005 97.2919 137.907C98.3846 138.62 97.9095 139.285 99.2872 139.76C99.7622 139.903 100.76 140.378 101.282 140.615C101.805 140.71 102.66 141.328 103.278 141.755C105.13 143.133 106.651 143.133 109.216 143.656C110.831 144.131 112.351 144.938 113.967 145.271C115.107 145.556 115.819 145.271 116.864 145.413C117.719 145.508 118.147 145.888 118.86 146.031C120.712 146.316 121.377 146.316 122.85 146.031C124.94 146.411 126.746 146.553 128.931 146.173C129.929 146.031 131.069 146.078 131.781 146.173C133.064 146.268 134.157 145.936 135.297 145.698C137.624 145.413 138.29 145.603 140.19 145.318C141.662 145.176 143.8 144.321 145.415 143.941C150.546 142.563 152.399 142.848 156.722 141.328C158.005 140.853 160.617 139.95 161.615 139.428C162.755 138.81 164.513 138.525 165.748 138.05C167.648 137.527 169.216 136.197 171.259 136.435C171.116 137.147 170.879 137.29 170.261 137.432C170.166 139.333 169.168 139.808 167.743 140.425C166.888 140.805 166.128 141.803 165.368 142.135C164.655 142.61 163.848 142.515 163.23 142.99C162.328 143.513 162.138 145.081 161.52 145.698C160 147.171 157.624 147.836 155.677 149.071C153.586 149.974 152.826 150.924 151.164 151.922C150.309 152.397 149.406 152.302 148.646 152.919C148.266 153.062 147.791 153.632 147.506 153.917C146.508 154.439 146.366 154.297 145.368 154.629C144.37 155.105 143.373 155.865 142.375 156.245C141.282 156.72 140.38 156.34 139.002 156.625C137.862 156.91 136.864 157.622 135.629 157.765C134.917 157.907 134.109 157.765 133.254 157.907C132.731 158.192 131.971 158.525 131.259 158.762C130.356 159.048 129.738 158.667 128.503 158.905C127.221 159.19 126.793 159.76 125.51 159.76C121.425 159.618 121.757 160.9 117.767 161.138C108.693 162.61 96.8644 160.283 94.4891 159.428C92.3513 159.143 91.3537 158.81 87.3632 156.957C72.9214 150.876 63.9903 134.297 62.6126 132.302C61.2349 130.401 59.7622 123.703 58.8596 121.708C58.0045 118.857 57.862 113.347 57.862 113.347C57.2444 102.991 60.0948 94.4394 60.0948 94.4394C60.0948 94.4394 64.6079 75.7696 86.5081 58.4299C100.57 47.361 115.107 44.2257 122.328 41.5178C126.176 40.1401 130.879 39.5226 132.874 39C135.249 39 134.014 39.38 140.332 39.1425C145.558 39.9976 140.19 39.9976 146.461 40.1401C150.974 41.1378 162.803 47.361 168.361 51.7316C170.451 52.8717 171.686 54.1069 172.209 57.0998C172.351 58.3349 173.491 59 173.064 60.8052C172.779 61.5178 172.161 61.7078 172.066 62.658C171.924 63.3705 172.446 63.7506 172.209 64.3682C171.924 65.2708 170.831 66.981 170.214 67.8361C169.501 68.7387 167.126 70.5439 166.081 70.3539C163.99 69.8789 162.185 67.9786 158.765 67.9786C153.301 67.9786 148.693 67.361 143.468 68.3587C142.328 68.6437 141.615 68.6437 139.952 68.9762C138.337 69.3563 137.197 69.9739 135.439 70.3539C133.919 70.639 132.921 71.0665 131.686 71.3515C130.404 71.6366 130.546 71.8266 129.453 71.7316C128.741 71.6366 127.981 72.4442 127.458 72.7292C125.843 73.5843 123.99 73.9644 122.47 74.7245C120.57 75.6271 119.002 76.3397 116.959 77.6223C116.579 78.0024 115.487 78.715 115.202 78.7625C114.347 79.38 114.062 79.5226 113.491 80.2827C112.779 81.1853 111.639 81.1853 110.879 81.8979C109.026 83.3705 107.363 85.3658 105.51 87.4086C105.13 87.8836 104.228 87.9311 103.61 88.4062C102.708 89.0238 102.708 89.9264 101.758 90.5439C100.285 91.6366 99.4297 92.4442 98.3846 93.9169C98.4321 94.0594 88.9784 104.416 86.6506 115.342Z" fill="black"/>
<path d="M0 104.796C0 98.6675 44.8456 93.6793 99.9525 93.6793C155.202 93.6793 200 98.6675 200 104.796C200 110.876 155.154 115.912 99.9525 115.912C44.8931 115.96 0 110.876 0 104.796Z" fill="black"/>
<path d="M176.01 124.558C176.01 120.33 179.478 116.862 183.753 116.862C188.029 116.862 191.497 120.33 191.497 124.558C191.497 128.786 188.029 132.254 183.753 132.254C179.478 132.254 176.01 128.786 176.01 124.558Z" fill="black"/>
</svg>
