<?xml version="1.0" encoding="utf-8"?>
<!-- Generator: Adobe Illustrator 25.3.1, SVG Export Plug-In . SVG Version: 6.00 Build 0)  -->
<!DOCTYPE svg PUBLIC "-//W3C//DTD SVG 1.1//EN" "http://www.w3.org/Graphics/SVG/1.1/DTD/svg11.dtd" [
	<!ENTITY ns_extend "http://ns.adobe.com/Extensibility/1.0/">
	<!ENTITY ns_ai "http://ns.adobe.com/AdobeIllustrator/10.0/">
	<!ENTITY ns_graphs "http://ns.adobe.com/Graphs/1.0/">
	<!ENTITY ns_vars "http://ns.adobe.com/Variables/1.0/">
	<!ENTITY ns_imrep "http://ns.adobe.com/ImageReplacement/1.0/">
	<!ENTITY ns_sfw "http://ns.adobe.com/SaveForWeb/1.0/">
	<!ENTITY ns_custom "http://ns.adobe.com/GenericCustomNamespace/1.0/">
	<!ENTITY ns_adobe_xpath "http://ns.adobe.com/XPath/1.0/">
]>
<svg version="1.1" id="Layer_1" xmlns:x="&ns_extend;" xmlns:i="&ns_ai;" xmlns:graph="&ns_graphs;"
	 xmlns="http://www.w3.org/2000/svg" xmlns:xlink="http://www.w3.org/1999/xlink" x="0px" y="0px" viewBox="0 0 512 512"
	 style="enable-background:new 0 0 512 512;" xml:space="preserve">
<style type="text/css">
	.st0{fill:#EB1F07;}
</style>
<metadata>
	<sfw  xmlns="&ns_sfw;">
		<slices></slices>
		<sliceSourceBounds  bottomLeftOrigin="true" height="335.8" width="496.1" x="7.9" y="88.1"></sliceSourceBounds>
	</sfw>
</metadata>
<g>
	<g>
		<path class="st0" d="M62.3,359.9c8.9-4.7,14.5-14,14.4-24.1c0-15-12.2-28.6-33.1-28.6H9.4c-1.1,0-1.4,0.6-1.4,1.4v112.1
			c0,1.1,0.3,1.4,1.4,1.4h35.1c23.5,0,36.5-14.7,36.5-33.1C81,374.9,73.9,364.7,62.3,359.9z M23.2,320.5h19.5c9.6,0,19,5.9,19,17.3
			c0,11.3-9.1,17.3-19,17.3H23.2V320.5z M42.8,408.8H23.2v-41h19.5c10.8,0,22.9,5.7,22.9,20.4C65.7,402.9,53.5,408.8,42.8,408.8
			L42.8,408.8z"/>
		<path class="st0" d="M168.7,336.1h-7.1c-0.8-0.2-1.5,0.3-1.7,1.1c0,0,0,0,0,0.1l-3.1,7.4c-6.3-6.9-15.3-10.6-24.6-10.2
			c-25.8,0-41.9,20.9-41.9,44.7c0,23.8,15.8,44.4,41.3,44.4c3.4,0,6.7-0.4,9.9-1.4c0.7-0.2,1.2-0.7,1.4-1.4l5.7-13
			c0.3-1.1,0-1.7-1.4-1.1c-4.2,1.9-8.7,2.8-13.3,2.8c-17.5,0-28.9-12.7-28.9-30.3s11-30.3,27.5-30.3s22.9,9.9,22.9,17v54.9
			c0,1.1,0.6,1.4,1.4,1.4h11.9c1.1,0,1.4-0.3,1.4-1.4v-83.2C170.1,336.4,169.8,336.1,168.7,336.1z"/>
		<path class="st0" d="M225.6,334.4c-10.6-0.5-20.6,4.7-26.3,13.6v-10.5c0-1.1-0.6-1.4-1.4-1.4h-11c-1.1,0-1.4,0.3-1.4,1.4v83.2
			c0,1.1,0.3,1.4,1.4,1.4h11.9c0.8,0,1.4-0.3,1.4-1.4v-47.5c0-16.1,10.2-24.3,22.6-24.3s22.1,7.9,22.1,24.9v47
			c0,1.1,0.6,1.4,1.4,1.4h11.9c0.8,0,1.4-0.3,1.4-1.4v-48.7C259.5,348.6,246,334.4,225.6,334.4z"/>
		<path class="st0" d="M304,373.2l34.2-35.4c0.8-1.1,0.5-1.7-0.8-1.7h-14.7c-0.7-0.1-1.4,0.1-2,0.6l-31.7,34v-62
			c0-0.8-0.6-1.4-1.4-1.4h-11.9c-1.1,0-1.4,0.6-1.4,1.4v112.1c0,1.1,0.3,1.4,1.4,1.4h11.9c0.8,0,1.4-0.3,1.4-1.4v-44.1l34.5,45
			l1.7,0.6h14.4c1.1,0,1.7-0.6,0.8-1.7L304,373.2z"/>
		<path class="st0" d="M379.2,334.4c-24.6,0-41.3,19.8-41.3,44.7s17.3,44.7,43,44.7c10.3,0.4,20.4-2.8,28.6-9.1
			c0.6-0.3,0.6-1.1,0.3-2l-5.4-9.3c-0.4-0.7-1.2-1-1.9-0.6c0,0,0,0-0.1,0c-5.9,4.3-13.1,6.6-20.4,6.5c-18.7,0-29.1-13-29.1-30.3
			s9.6-30.6,26.3-30.6s23.2,10.2,24.6,23.8h-35.9c-0.8-0.2-1.5,0.3-1.7,1.1c0,0,0,0,0,0.1l-4.2,9.6c-0.3,1.1,0,2,1.1,2h53.8
			c0.8,0,1.1-0.6,1.4-1.4c0.2-2.1,0.3-4.1,0.3-6.2C418.6,353.7,404.7,334.4,379.2,334.4z"/>
		<path class="st0" d="M470.1,334.4c-10.6-0.5-20.6,4.7-26.3,13.6v-10.5c0-1.1-0.6-1.4-1.4-1.4h-11c-0.8,0-1.4,0.3-1.4,1.4v83.2
			c0,1.1,0.6,1.4,1.4,1.4h11.9c0.8,0,1.4-0.3,1.4-1.4v-47.5c0-16.1,10.5-24.3,22.6-24.3s22.1,7.9,22.1,24.9v47
			c0,1.1,0.6,1.4,1.4,1.4h11.9c1.1,0,1.4-0.3,1.4-1.4v-48.7C504.1,348.6,490.5,334.4,470.1,334.4z"/>
	</g>
	<g>
		<rect x="86" y="94.6" class="st0" width="44" height="175.1"/>
		<path class="st0" d="M282.9,197.6l-4.7,8.6c-7.1,11.9-19.1,19.9-32.7,22c-18.9,2.9-37.6-6-47.4-22.4c-4.8-7.6-7.1-16.5-6.5-25.4
			c0.5-13.4,6.8-26,17.2-34.5c6-4.5,12.9-7.6,20.3-9c11.3-2,22.9,0.1,32.7,6l22-38.4l-0.9-0.9c-7.6-4.6-15.9-7.9-24.6-9.9
			c-45.8-10.8-92.2,15.5-106.4,60.3c-1.5,5.4-2.5,10.8-3,16.4c-3.9,24.8,3,50,19,69.4c10.2,13.2,24.2,23,40.1,28
			c22.6,7.7,47.3,6.5,68.9-3.4c18.5-8.2,34.9-26.3,44-44l17.2-31l5.2-8.6l20.7,37.5h-15.1l-17.2,31.9H382l11.2,19.4h50.8L342.8,88.1
			L282.9,197.6z"/>
	</g>
</g>
</svg>
