<?xml version="1.0" encoding="utf-8"?>
<!-- Generator: Adobe Illustrator 25.3.1, SVG Export Plug-In . SVG Version: 6.00 Build 0)  -->
<!DOCTYPE svg PUBLIC "-//W3C//DTD SVG 1.1//EN" "http://www.w3.org/Graphics/SVG/1.1/DTD/svg11.dtd" [
	<!ENTITY ns_extend "http://ns.adobe.com/Extensibility/1.0/">
	<!ENTITY ns_ai "http://ns.adobe.com/AdobeIllustrator/10.0/">
	<!ENTITY ns_graphs "http://ns.adobe.com/Graphs/1.0/">
	<!ENTITY ns_vars "http://ns.adobe.com/Variables/1.0/">
	<!ENTITY ns_imrep "http://ns.adobe.com/ImageReplacement/1.0/">
	<!ENTITY ns_sfw "http://ns.adobe.com/SaveForWeb/1.0/">
	<!ENTITY ns_custom "http://ns.adobe.com/GenericCustomNamespace/1.0/">
	<!ENTITY ns_adobe_xpath "http://ns.adobe.com/XPath/1.0/">
]>
<svg version="1.1" id="Слой_1" xmlns:x="&ns_extend;" xmlns:i="&ns_ai;" xmlns:graph="&ns_graphs;"
	 xmlns="http://www.w3.org/2000/svg" xmlns:xlink="http://www.w3.org/1999/xlink" x="0px" y="0px" viewBox="0 0 256 256"
	 style="enable-background:new 0 0 256 256;" xml:space="preserve">
<style type="text/css">
	.st0{fill:#010102;}
	.st1{clip-path:url(#SVGID_2_);fill:#010102;}
	.st2{clip-path:url(#SVGID_2_);fill:#CA0766;}
	.st3{clip-path:url(#SVGID_2_);fill:#FFFFFF;}
	.st4{fill:#FFFFFF;}
	.st5{clip-path:url(#SVGID_4_);fill:#FFFFFF;}
</style>
<metadata>
	<sfw  xmlns="&ns_sfw;">
		<slices></slices>
		<sliceSourceBounds  bottomLeftOrigin="true" height="213.6" width="245" x="6" y="20.8"></sliceSourceBounds>
	</sfw>
</metadata>
<g>
	<rect x="33.2" y="141.8" class="st0" width="39.3" height="65.2"/>
	<g>
		<defs>
			<rect id="SVGID_1_" x="6" y="21.6" width="245" height="213.6"/>
		</defs>
		<clipPath id="SVGID_2_">
			<use xlink:href="#SVGID_1_"  style="overflow:visible;"/>
		</clipPath>
		<path class="st1" d="M75.5,109.2c0,12.3-9.9,22.2-22.2,22.2S31,121.5,31,109.2C31,97,41,87,53.2,87S75.5,97,75.5,109.2"/>
		<path class="st1" d="M144.2,35.8c27.3,0,50,7.4,65.8,21.4c17.8,15.8,26.8,39.8,26.8,71.2c0,62.3-30.3,92.6-92.6,92.6h-124V35.8
			H144.2z M146.9,21.6H6v213.6h140.9v0c30.8-0.4,55.1-8.1,72.4-22.8c21-17.9,31.7-46.2,31.7-84c0-18.1-2.8-34.3-8.3-48.2
			c-5.3-13.3-13.1-24.6-23.2-33.6C201.6,30.7,176.5,22.1,146.9,21.6L146.9,21.6z"/>
		<path class="st2" d="M140.3,207.1H90.5V53h49.8h-2c41.5,0,85.7,16.4,85.7,77.2c0,64.3-44.2,76.8-85.7,76.8H140.3z"/>
		<path class="st3" d="M89.4,99.1v24.5H95c2.1,0,3.6-0.1,4.5-0.4c1.2-0.3,2.2-0.8,3-1.5c0.8-0.7,1.4-1.9,2-3.6
			c0.5-1.7,0.8-3.9,0.8-6.8c0-2.9-0.3-5.1-0.8-6.6c-0.5-1.5-1.2-2.7-2.1-3.6c-0.9-0.9-2.1-1.4-3.5-1.8c-1.1-0.2-3.1-0.3-6.2-0.3
			H89.4z M81.9,92.8h13.7c3.1,0,5.4,0.2,7,0.7c2.2,0.6,4,1.8,5.6,3.4c1.5,1.6,2.7,3.6,3.5,6c0.8,2.4,1.2,5.3,1.2,8.8
			c0,3-0.4,5.7-1.1,7.9c-0.9,2.7-2.2,4.9-4,6.5c-1.3,1.3-3,2.2-5.3,3c-1.6,0.5-3.9,0.8-6.6,0.8H81.9V92.8z"/>
		<path class="st3" d="M95.6,93.8c3,0,5.3,0.2,6.8,0.7c2,0.6,3.7,1.6,5.1,3.1c1.4,1.5,2.6,3.4,3.3,5.6c0.8,2.2,1.1,5.1,1.1,8.4
			c0,2.9-0.3,5.5-1.1,7.6c-0.9,2.5-2.1,4.6-3.7,6.1c-1.2,1.2-2.8,2.1-4.8,2.7c-1.6,0.5-3.7,0.7-6.3,0.7H83v-35H95.6z M80.9,91.8
			v39.1H96c2.9,0,5.2-0.3,6.9-0.8c2.4-0.8,4.3-1.8,5.7-3.2c1.8-1.8,3.2-4.1,4.2-7c0.8-2.3,1.2-5.1,1.2-8.2c0-3.6-0.4-6.6-1.3-9.1
			c-0.9-2.5-2.1-4.6-3.8-6.4c-1.7-1.8-3.7-3-6-3.7c-1.7-0.5-4.1-0.8-7.3-0.8H80.9z"/>
		<path class="st3" d="M92.8,100.1c3.7,0,5.3,0.2,5.9,0.3c1.2,0.3,2.2,0.8,3,1.5c0.8,0.7,1.4,1.8,1.9,3.2c0.5,1.4,0.7,3.5,0.7,6.3
			c0,2.8-0.2,4.9-0.7,6.5c-0.5,1.5-1,2.5-1.7,3.1c-0.7,0.6-1.6,1.1-2.6,1.3c-0.9,0.2-2.3,0.3-4.3,0.3h-4.6v-22.5H92.8z M88.4,98.1
			v26.5H95c2.2,0,3.8-0.1,4.8-0.4c1.4-0.3,2.5-0.9,3.5-1.8c1-0.9,1.7-2.2,2.3-4c0.5-1.8,0.8-4.1,0.8-7.1c0-3-0.3-5.3-0.8-6.9
			c-0.5-1.7-1.4-3-2.4-4c-1.1-1-2.4-1.7-4-2c-1.1-0.2-3.2-0.4-6.4-0.4H88.4z"/>
	</g>
	<polygon class="st4" points="121.4,129.9 121.4,92.8 148.9,92.8 148.9,99.1 128.9,99.1 128.9,107.3 147.5,107.3 147.5,113.6 
		128.9,113.6 128.9,123.6 149.6,123.6 149.6,129.9 	"/>
	<path class="st4" d="M147.9,93.8v4.3h-20v10.2h18.6v4.3h-18.6v12h20.7v4.3h-26.1v-35H147.9z M120.4,91.8v39.1h30.2v-8.3h-20.7v-8
		h18.6v-8.3h-18.6v-6.2h20v-8.3H120.4z"/>
	<path class="st4" d="M177.7,115.2l-5.1-13.7l-5,13.7H177.7z M191.4,129.9h-8.1l-3.2-8.4h-14.8l-3.1,8.4h-7.9l14.4-37.1h8
		L191.4,129.9z"/>
	<g>
		<defs>
			<rect id="SVGID_3_" x="6" y="21.6" width="245" height="213.6"/>
		</defs>
		<clipPath id="SVGID_4_">
			<use xlink:href="#SVGID_3_"  style="overflow:visible;"/>
		</clipPath>
		<path class="st5" d="M175.9,93.8c0.5,1.2,13,32.5,14,35H184c-0.4-1.1-3.2-8.4-3.2-8.4h-16.2c0,0-2.7,7.3-3.1,8.4h-5.7
			c1-2.5,13.2-33.8,13.6-35H175.9z M168,91.8l-15.2,39.1h10.1c0,0,2.7-7.3,3.1-8.4h13.4c0.4,1.1,3.2,8.4,3.2,8.4h10.3l-15.6-39.1
			H168z"/>
		<path class="st5" d="M172.6,104.4c1.1,3,3,8,3.7,9.8H169C169.7,112.4,171.5,107.4,172.6,104.4 M166.1,116.2h13l-6.6-17.7
			L166.1,116.2z"/>
	</g>
	<polygon class="st4" points="197.7,129.9 197.7,93.1 205.2,93.1 205.2,123.6 223.8,123.6 223.8,129.9 	"/>
	<path class="st4" d="M204.2,94.1v30.5h18.6v4.3h-24.1V94.1H204.2z M196.7,92.1v38.8h28.1v-8.3h-18.6V92.1H196.7z"/>
</g>
</svg>
