<svg width="200" height="200" viewBox="0 0 200 200" fill="none" xmlns="http://www.w3.org/2000/svg">
<rect width="200" height="200" fill="white"/>
<path d="M58.7108 106.44C58.8242 99.1793 59.3915 91.9752 57.1225 84.9412C55.364 79.4956 52.8113 72.4049 48.33 68.661C43.6218 64.6902 36.0206 63.896 30.1211 64.2364C24.1082 64.5768 18.0386 66.3352 13.0467 69.7955C8.5654 72.9154 4.93497 77.2833 3.51683 82.6155C1.70162 89.3091 2.21214 96.9103 1.92852 103.774C1.30454 120.848 1.13436 137.98 3.23321 154.997C3.68701 158.571 9.35956 158.628 8.90576 154.997C7.26072 141.723 6.97709 128.336 7.26072 114.949C7.37417 108.426 7.65779 101.959 7.94142 95.4354C8.22505 89.536 7.94142 83.2962 11.8555 78.4178C15.0888 74.447 19.8538 71.9511 24.7889 70.7031C30.4615 69.285 38.0059 69.1148 43.3381 72.0645C45.7773 73.4259 47.0253 75.8651 48.2165 78.2476C49.6914 81.1973 51.0528 84.2038 51.9604 87.3804C53.7756 93.5635 53.1517 100.03 53.0382 106.383C52.7546 121.529 52.9815 136.732 53.6622 151.877C53.8324 155.508 59.5049 155.508 59.3347 151.877C58.654 136.788 58.4271 121.586 58.7108 106.44Z" fill="#0066A2"/>
<path d="M128.483 107.688C127.973 100.427 127.235 93.053 125.874 85.9056C124.796 80.4599 122.981 74.8441 119.01 70.8166C111.012 62.7048 95.6391 63.499 86.3929 68.9446C74.9343 75.695 73.2326 90.557 71.9846 102.526C70.2261 119.317 71.5308 136.221 72.9489 152.955C73.2326 156.586 78.9051 156.586 78.6215 152.955C77.5437 139.795 76.4659 126.578 76.9764 113.304C77.2033 106.554 77.8273 99.7466 79.0753 93.1097C80.0963 87.664 81.3443 81.6511 85.0882 77.34C88.4917 73.4259 93.597 71.4405 98.7023 70.8166C103.978 70.1926 110.388 70.5329 114.529 74.2201C118.386 77.6236 119.691 82.9558 120.598 87.7775C121.79 94.3009 122.47 100.995 122.924 107.631C124.002 122.607 123.718 137.696 123.491 152.671C123.435 156.302 129.107 156.302 129.164 152.671C129.277 137.696 129.561 122.664 128.483 107.688Z" fill="#008048"/>
<path d="M197.121 109.106C196.61 101.959 195.759 94.8115 194.625 87.664C193.547 81.1973 192.98 74.9575 187.024 71.2136C182.032 68.0937 175.168 65.2574 169.212 65.4276C163.199 65.6545 156.449 68.7177 151.57 72.0645C141.133 79.1552 140.736 92.2021 140.566 103.604C140.339 120.792 140.849 138.036 142.097 155.167C142.381 158.798 148.053 158.798 147.77 155.167C146.805 141.723 146.238 128.28 146.181 114.836C146.125 108.596 146.068 102.299 146.465 96.0594C146.749 91.0676 147.429 85.8488 150.095 81.5377C153.102 76.716 159.058 73.9932 164.22 72.2347C170.517 70.0791 176.132 72.1212 181.862 74.9008C184.358 76.092 186.57 77.4534 187.478 80.233C188.385 83.0693 188.726 86.2459 189.179 89.1956C190.257 95.7758 190.995 102.413 191.505 109.106C192.583 124.025 191.165 138.944 191.732 153.863C191.902 157.493 197.575 157.493 197.405 153.863C196.724 138.887 198.142 124.025 197.121 109.106Z" fill="#E98838"/>
<path d="M197.235 42H4.14096C3.63043 42 3.23335 42.1135 2.83627 42.2836C2.77955 42.2836 2.77955 42.2836 2.72283 42.2836C-0.907608 42.2836 -0.907608 47.9562 2.72283 47.9562C3.23335 47.9562 3.63043 47.8427 4.02751 47.6726C4.08423 47.6726 4.08424 47.6726 4.14096 47.6726H197.235C200.922 47.6726 200.922 42 197.235 42Z" fill="#E4BB13"/>
</svg>
