<svg width="200" height="200" viewBox="0 0 200 200" fill="none" xmlns="http://www.w3.org/2000/svg">
<rect width="200" height="200" fill="white"/>
<path d="M100 0C44.7706 0 0 44.7706 0 100C0 155.229 44.7706 200 100 200C155.229 200 200 155.229 200 100C200 44.7706 155.229 0 100 0ZM100 159.404C67.2018 159.404 40.5963 132.798 40.5963 100C40.5963 67.2018 67.2018 40.5963 100 40.5963C132.798 40.5963 159.404 67.2018 159.404 100C159.404 132.798 132.798 159.404 100 159.404Z" fill="#2F435E"/>
<path d="M84.404 141.743C95.7284 141.743 104.909 132.563 104.909 121.239C104.909 109.914 95.7284 100.734 84.404 100.734C73.0796 100.734 63.8994 109.914 63.8994 121.239C63.8994 132.563 73.0796 141.743 84.404 141.743Z" fill="#08A1B6"/>
<path d="M123.394 104.633C134.719 104.633 143.899 95.4528 143.899 84.1284C143.899 72.8041 134.719 63.6239 123.394 63.6239C112.07 63.6239 102.89 72.8041 102.89 84.1284C102.89 95.4528 112.07 104.633 123.394 104.633Z" fill="#08A1B6"/>
<path d="M91.8349 106.972C96.3762 106.927 99.6331 110 99.6789 114.495C99.6789 117.89 95.367 122.248 92.0184 122.156C88.6239 122.11 84.4037 117.752 84.4496 114.358C84.4955 110.138 87.5689 107.018 91.8349 106.972Z" fill="#DFEBEF"/>
<path d="M130.826 71.6973C135.367 71.6514 138.624 74.7248 138.67 79.2202C138.67 82.6147 134.358 86.9725 131.01 86.8808C127.615 86.8349 123.395 82.4771 123.441 79.0826C123.487 74.9083 126.56 71.789 130.826 71.6973Z" fill="#DFEBEF"/>
</svg>
