<svg width="200" height="200" viewBox="0 0 200 200" fill="none" xmlns="http://www.w3.org/2000/svg">
<rect width="200" height="200" fill="white"/>
<path d="M200 145.979C199.988 154.211 196.712 162.103 190.891 167.923C185.07 173.744 177.179 177.02 168.947 177.032H0V54.044C0.012366 45.8144 3.28703 37.9254 9.10623 32.1062C14.9254 26.287 22.8144 23.0124 31.044 23H200V145.979V145.979Z" fill="white"/>
<path d="M144.99 114.44H157.829C158.193 114.44 159.054 114.318 159.418 114.318C160.723 114.039 161.889 113.312 162.714 112.263C163.539 111.215 163.971 109.91 163.935 108.577C163.931 107.252 163.485 105.966 162.667 104.924C161.848 103.882 160.705 103.143 159.418 102.826C158.895 102.721 158.361 102.68 157.829 102.705H144.99V114.44Z" fill="#4AA35B"/>
<path d="M156.352 33.3885C150.452 33.3885 144.794 35.7322 140.622 39.9039C136.45 44.0757 134.106 49.7338 134.106 55.6336V78.7389H165.524C166.259 78.7153 166.994 78.756 167.722 78.8605C174.819 79.2345 180.074 82.8999 180.074 89.2583C180.074 94.2703 176.53 98.5435 169.929 99.4038V99.6469C177.138 100.133 182.636 104.173 182.636 110.409C182.636 117.132 176.53 121.527 168.461 121.527H133.985V166.765H166.628C172.528 166.763 178.187 164.417 182.358 160.244C186.53 156.071 188.873 150.412 188.873 144.511V33.3885H156.352Z" fill="#4AA35B"/>
<path d="M162.354 90.717C162.377 89.4382 161.928 88.1959 161.093 87.2267C160.259 86.2576 159.097 85.6294 157.829 85.462C157.585 85.462 156.968 85.3404 156.604 85.3404H144.99V96.103H156.604C157.016 96.1364 157.431 96.0952 157.829 95.9814C159.097 95.8119 160.26 95.1818 161.094 94.2111C161.929 93.2405 162.377 91.9969 162.354 90.717V90.717Z" fill="#4AA35B"/>
<path d="M33.3632 33.3885C27.4635 33.3885 21.8053 35.7322 17.6336 39.9039C13.4618 44.0757 11.1181 49.7338 11.1181 55.6336V110.531C17.355 113.579 23.835 115.543 30.3056 115.543C38.0105 115.543 42.1715 110.868 42.1715 104.537V78.6174H61.2374V104.416C61.2374 114.44 55.0005 122.631 33.8588 122.631C26.1517 122.639 18.4731 121.697 10.9966 119.825V166.653H43.6395C49.5402 166.651 55.1983 164.305 59.3697 160.132C63.5412 155.959 65.8846 150.299 65.8846 144.399V33.3885H33.3632Z" fill="#214F9C"/>
<path d="M94.8618 33.3885C88.962 33.3885 83.3039 35.7322 79.1321 39.9039C74.9604 44.0757 72.6167 49.7338 72.6167 55.6336V84.7326C78.2271 79.9638 88.0171 76.9062 103.782 77.6449C109.679 78.0137 115.531 78.9087 121.268 80.3192V89.7352C116.06 86.9492 110.327 85.2834 104.437 84.8448C92.4587 83.9939 85.24 89.8568 85.24 100.124C85.24 110.391 92.4587 116.384 104.437 115.412C110.315 114.911 116.036 113.249 121.268 110.522V119.928C115.534 121.36 109.681 122.262 103.782 122.621C88.0171 123.36 78.2364 120.302 72.6167 115.534V166.878H105.25C111.153 166.878 116.813 164.533 120.987 160.359C125.16 156.186 127.505 150.525 127.505 144.623V33.3511L94.8618 33.3885Z" fill="#DA3833"/>
</svg>
