<svg width="200" height="200" viewBox="0 0 200 200" fill="none" xmlns="http://www.w3.org/2000/svg">
<rect width="200" height="200" fill="white"/>
<path d="M149.4 8.16328L199.88 58.4634L99.1597 58.6435L149.4 8.16328Z" fill="#006B47"/>
<path d="M69.9873 0.120051L141.236 0L70.1074 71.3686L69.9873 0.120051Z" fill="#006B47"/>
<path d="M8.16357 50.6003L58.4637 0.120064L58.6438 100.84L8.16357 50.6003Z" fill="#006B47"/>
<path d="M0.120046 130.012L0 58.8235L71.3685 129.892L0.120046 130.012Z" fill="#006B47"/>
<path d="M50.6003 191.837L0.120117 141.537L100.84 141.417L50.6003 191.837Z" fill="#006B47"/>
<path d="M130.012 199.88L58.7632 200L129.892 128.631L130.012 199.88Z" fill="#006B47"/>
<path d="M191.837 149.46L141.537 199.88L141.357 99.1597L191.837 149.46Z" fill="#006B47"/>
<path d="M199.88 70.048L200 141.237L128.631 70.1081L199.88 70.048Z" fill="#006B47"/>
</svg>
