<svg width="200" height="200" viewBox="0 0 200 200" fill="none" xmlns="http://www.w3.org/2000/svg">
<g clip-path="url(#clip0_1862_112071)">
<rect width="200" height="200" fill="white"/>
<path d="M194.296 111.089C191.199 111.089 188.591 113.615 188.591 116.794C188.591 119.972 191.117 122.499 194.296 122.499C197.393 122.499 200.001 119.972 200.001 116.794C200.001 113.615 197.393 111.089 194.296 111.089Z" fill="#010102"/>
<path d="M167.32 114.43C171.884 114.43 175.551 110.926 175.551 106.606C175.551 102.287 171.884 98.7824 167.32 98.7824C162.756 98.7824 159.088 102.287 159.088 106.606C159.088 110.926 162.837 114.43 167.32 114.43ZM175.551 93.4849V91.5289H184.598V121.847H175.551V119.891C173.025 121.602 169.846 122.662 166.586 122.662C157.784 122.662 150.612 115.49 150.612 106.688C150.612 97.8859 157.784 90.7139 166.586 90.7139C169.928 90.6324 173.025 91.6919 175.551 93.4849Z" fill="#010102"/>
<path d="M134.475 90.7139C130.808 90.7139 127.385 91.8549 125.184 94.9519V91.5289H116.138V121.847H125.266V105.954C125.266 101.39 128.363 99.1084 132.03 99.1084C136.024 99.1084 138.306 101.472 138.306 105.873V121.847H147.352V102.613C147.434 95.5224 141.81 90.7139 134.475 90.7139Z" fill="#010102"/>
<path d="M103.017 95.4409V91.5289H93.7256V121.847H103.017V107.666C103.017 102.939 108.151 100.331 111.818 100.331H111.9V91.5289C108.233 91.5289 104.81 93.0774 103.017 95.4409Z" fill="#010102"/>
<path d="M71.6391 114.43C76.203 114.43 79.8705 110.926 79.8705 106.606C79.8705 102.287 76.203 98.7824 71.6391 98.7824C67.0751 98.7824 63.4076 102.287 63.4076 106.606C63.4891 110.926 67.1566 114.43 71.6391 114.43ZM79.8705 93.4849V91.5289H88.917V121.847H79.8705V119.891C77.344 121.602 74.1656 122.662 70.9056 122.662C62.1036 122.662 54.9316 115.49 54.9316 106.688C54.9316 97.8859 62.1036 90.7139 70.9056 90.7139C74.2471 90.6324 77.344 91.6919 79.8705 93.4849Z" fill="#010102"/>
<path d="M51.1815 78.0815H41.7275V121.847H51.1815V78.0815Z" fill="#010102"/>
<path d="M35.207 78H25.3455C25.3455 86.0685 21.678 93.4849 15.1581 98.2934L11.2461 101.227L26.3235 121.847H38.793L24.938 102.857C31.458 96.3374 35.207 87.5355 35.207 78Z" fill="#010102"/>
<path d="M10.0245 78H0V121.847H10.0245V78Z" fill="#010102"/>
</g>
<defs>
<clipPath id="clip0_1862_112071">
<rect width="200" height="200" fill="white"/>
</clipPath>
</defs>
</svg>
