<svg width="200" height="200" viewBox="0 0 200 200" fill="none" xmlns="http://www.w3.org/2000/svg">
<rect width="200" height="200" fill="white"/>
<path d="M31.2813 68.444C26.9587 49.8059 31.6066 33.8636 46.3405 21.5002C64.4208 6.39451 90.8209 7.78888 107.646 24.3819C114.386 31.0284 121.079 37.7214 127.818 44.3214C129.073 45.5763 130.514 46.5988 131.815 47.7608C139.252 54.3144 147.386 54.4538 155.984 50.4101C163.653 46.7848 169.649 41.0678 175.645 35.3044C180.293 30.8425 185.685 27.9143 192.052 26.7058C193.632 26.427 199.768 26.4734 200 28.1932C200 31.9115 199.535 37.6749 199.535 41.6721C199.535 56.2665 199.442 69.8383 199.535 84.4328C199.535 86.4313 195.213 86.4778 193.075 86.1525C186.103 85.037 180.246 81.9694 175.227 76.9961C170.161 71.9299 165.048 66.9102 158.866 63.1454C148.641 56.8707 139.763 57.4749 130.607 65.1904C123.031 71.6046 116.57 79.1806 109.691 86.2454C96.3519 99.9103 80.5025 104.419 62.0039 99.6314C62.1433 94.0539 61.1208 88.5694 60.3771 83.0849C64.6532 85.1299 69.0687 86.4314 73.856 86.5708C90.3096 87.0821 104.021 75.5553 106.159 59.3806C108.204 44.0425 97.6998 28.9833 82.4082 25.4509C66.6518 21.7791 50.663 30.4706 45.4574 45.5763C42.6222 53.8496 43.5053 61.9369 47.1306 69.7919C41.8785 69.1412 36.6264 68.5369 31.2813 68.444Z" fill="#033C5A"/>
<path d="M31.2813 68.444C36.6264 68.5834 41.8785 69.1412 47.1771 69.8383C49.5011 70.3961 51.8715 70.675 54.2419 70.6285C58.1462 70.582 59.7264 69.0482 59.7264 65.1904C59.7264 61.751 59.494 58.3115 59.587 54.8721C59.9124 46.4594 66.9772 39.8129 75.3899 39.9523C83.8955 40.0918 90.5885 46.8777 90.5885 55.3834C90.5885 63.982 83.849 70.9538 75.2969 71.0468C72.3687 71.0933 69.487 70.8609 66.5589 70.8144C62.3293 70.7214 60.2842 72.4412 59.8194 76.5313C59.587 78.7623 60.0518 80.9003 60.4236 83.0849C61.1673 88.5694 62.1898 94.0539 62.0504 99.6314C61.1673 108.881 57.7278 116.875 50.663 123.103C41.7391 131.005 27.9813 132.91 17.4306 127.658C5.8108 121.895 -0.882171 110.461 0.0938883 98.0046C1.30234 82.3412 13.0151 70.3496 28.632 68.8158C29.5616 68.7228 30.3982 68.5834 31.2813 68.444Z" fill="#FCC503"/>
<path d="M124.471 161.123C129.863 157.87 135.162 157.544 140.367 160.751C146.502 164.47 148.826 173.858 145.619 181.388C142.831 187.895 136.091 191.195 129.026 189.382C128.004 189.103 127.074 188.546 126.098 188.22C125.308 187.941 124.192 185.896 123.681 188.639C123.542 189.289 121.915 188.871 120.939 188.871C114.804 188.918 114.804 188.871 114.804 182.782C114.804 171.999 114.804 161.216 114.804 150.433C114.804 146.715 114.897 146.668 118.476 146.668C124.518 146.668 124.518 146.668 124.518 152.664C124.471 155.406 124.471 158.148 124.471 161.123ZM123.635 173.998C123.681 178.646 126.609 181.853 130.792 181.76C134.743 181.667 137.532 178.32 137.485 173.812C137.439 169.257 134.65 166.096 130.607 166.05C126.47 166.05 123.635 169.303 123.635 173.998Z" fill="#033C5A"/>
<path d="M47.2695 159.636C44.1554 162.517 41.1343 165.446 37.9272 168.234C36.3005 169.629 36.4399 170.744 37.5554 172.371C40.5765 176.833 43.4118 181.434 46.2935 185.989C46.8512 186.872 47.3625 187.756 48.0132 188.918C44.5273 188.918 41.3667 188.918 38.2061 188.918C36.8582 188.918 36.161 188.127 35.5103 187.105C33.9765 184.734 32.5357 182.318 30.9089 179.994C30.3976 179.25 30.2117 177.484 29.0033 178.041C27.7948 178.599 26.4469 179.622 26.5864 181.527C26.6793 183.387 26.5399 185.246 26.6328 187.105C26.6793 188.406 26.4005 189.057 24.9131 188.964C22.961 188.871 21.0089 188.871 19.0568 188.964C17.4765 189.011 16.7793 188.406 16.7793 186.826C16.7793 174.37 16.7793 161.867 16.7793 149.41C16.7793 147.458 17.7554 146.715 19.8004 146.668C26.5864 146.668 26.5864 146.575 26.5864 153.315C26.5864 157.73 26.5864 162.146 26.5864 166.561C26.5864 167.119 26.3075 167.816 27.1441 168.42C29.3751 166.003 31.6991 163.633 33.8371 161.077C35.2779 159.403 36.8582 158.567 39.0892 158.706C41.5526 158.846 44.016 158.753 46.4794 158.753C46.7583 159.032 46.9906 159.357 47.2695 159.636Z" fill="#033C5A"/>
<path d="M150.686 78.9947C159.238 79.0412 166.257 86.0595 166.21 94.4722C166.117 103.071 159.053 109.81 150.222 109.764C141.762 109.717 134.93 102.838 134.93 94.4257C134.883 85.7342 141.855 78.9482 150.686 78.9947Z" fill="#39B14A"/>
<path d="M101.14 186.315C97.3285 189.754 93.1918 190.637 88.5904 189.336C84.0355 188.034 81.4326 184.734 81.4791 180.319C81.4791 176.136 83.896 173.208 88.4975 171.86C91.9369 170.884 95.5158 170.884 99.0017 170.884C100.768 170.884 100.861 170.094 100.536 168.746C100.024 166.654 98.5369 165.725 96.5383 165.446C93.2848 164.981 90.1707 165.539 87.289 167.026C85.8946 167.77 85.2439 167.63 84.6397 166.096C82.7341 161.402 82.7805 161.123 87.6608 159.729C92.0299 158.474 96.4918 158.102 101.047 158.985C107.089 160.24 110.714 164.144 110.993 170.326C111.226 175.95 111.04 181.62 111.133 187.291C111.133 188.685 110.575 188.918 109.367 188.871C107.6 188.825 105.834 188.732 104.068 188.871C102.302 189.103 101.186 188.592 101.14 186.315ZM101.279 178.46C100.675 178.041 102.395 176.182 100.396 176.136C98.1186 176.043 95.7947 175.996 93.6566 176.879C91.2397 177.902 90.682 180.784 92.5876 182.457C94.3538 184.037 96.4454 183.991 98.5369 183.201C100.489 182.457 101.79 181.202 101.279 178.46Z" fill="#033C5A"/>
<path d="M59.1221 162.564C62.0038 159.125 65.5827 157.916 69.8122 158.474C74.4137 159.078 77.2024 161.495 78.2714 165.957C79.201 169.815 78.7362 173.719 78.8292 177.577C78.8757 180.737 78.7827 183.944 78.8757 187.105C78.9221 188.406 78.6433 189.011 77.1559 188.918C75.2968 188.778 73.4376 188.778 71.5785 188.918C69.6728 189.057 69.1151 188.22 69.1615 186.454C69.2545 181.667 69.2545 176.926 69.1151 172.139C69.0221 168.374 67.4418 166.608 64.5136 166.561C61.539 166.468 59.5869 168.188 59.0756 171.581C58.3784 176.508 58.7502 181.481 58.8432 186.408C58.8897 188.546 58.239 189.011 56.1939 188.964C49.0826 188.871 49.0826 188.964 49.0826 181.853C49.0826 175.206 49.1291 168.606 49.0361 161.96C49.0361 159.682 49.7333 158.381 52.2897 158.706C53.0798 158.799 53.87 158.706 54.6601 158.706C58.5179 158.706 58.5178 158.706 59.1221 162.564Z" fill="#033C5A"/>
<path d="M4.55566 54.5467C4.55566 50.2242 7.94863 46.8312 12.2712 46.7848C16.7796 46.7383 20.2191 50.1312 20.2656 54.5932C20.312 58.9158 16.6402 62.4947 12.2712 62.4017C7.94863 62.3087 4.55566 58.8228 4.55566 54.5467Z" fill="#FF00C3"/>
</svg>
