<?xml version="1.0" encoding="utf-8"?>
<!-- Generator: Adobe Illustrator 25.3.1, SVG Export Plug-In . SVG Version: 6.00 Build 0)  -->
<!DOCTYPE svg PUBLIC "-//W3C//DTD SVG 1.1//EN" "http://www.w3.org/Graphics/SVG/1.1/DTD/svg11.dtd" [
	<!ENTITY ns_extend "http://ns.adobe.com/Extensibility/1.0/">
	<!ENTITY ns_ai "http://ns.adobe.com/AdobeIllustrator/10.0/">
	<!ENTITY ns_graphs "http://ns.adobe.com/Graphs/1.0/">
	<!ENTITY ns_vars "http://ns.adobe.com/Variables/1.0/">
	<!ENTITY ns_imrep "http://ns.adobe.com/ImageReplacement/1.0/">
	<!ENTITY ns_sfw "http://ns.adobe.com/SaveForWeb/1.0/">
	<!ENTITY ns_custom "http://ns.adobe.com/GenericCustomNamespace/1.0/">
	<!ENTITY ns_adobe_xpath "http://ns.adobe.com/XPath/1.0/">
]>
<svg version="1.1" id="Layer_1" xmlns:x="&ns_extend;" xmlns:i="&ns_ai;" xmlns:graph="&ns_graphs;"
	 xmlns="http://www.w3.org/2000/svg" xmlns:xlink="http://www.w3.org/1999/xlink" x="0px" y="0px" viewBox="0 0 512 512"
	 style="enable-background:new 0 0 512 512;" xml:space="preserve">
<style type="text/css">
	.st0{fill-rule:evenodd;clip-rule:evenodd;}
	.st1{fill-rule:evenodd;clip-rule:evenodd;fill:#ED2F24;}
</style>
<metadata>
	<sfw  xmlns="&ns_sfw;">
		<slices></slices>
		<sliceSourceBounds  bottomLeftOrigin="true" height="437.5" width="278" x="117" y="37.2"></sliceSourceBounds>
	</sfw>
</metadata>
<g transform="translate(21 1)">
	<path class="st0" d="M127.4,82.5c0,8.6,7,15.6,15.6,15.6c8.7,0,15.8-7,15.8-15.6c0-8.6-7.1-15.4-15.8-15.4
		C134.4,67.2,127.4,73.9,127.4,82.5 M309.2,193.5c0,8.6,7.1,15.6,15.8,15.6c8.5,0,15.5-7,15.5-15.6c0-8.4-7-15.4-15.5-15.4
		C316.3,178.2,309.2,185.1,309.2,193.5 M128,428.3c0,8.4,7,15.4,15.8,15.4c8.5,0,15.6-7,15.6-15.4c0-8.6-7.1-15.6-15.6-15.6
		C135,412.7,128,419.7,128,428.3 M311.5,427.9c0,8.6,7,15.6,15.6,15.6c8.7,0,15.8-7,15.8-15.6c0-8.4-7.1-15.4-15.8-15.4
		C318.6,412.5,311.5,419.5,311.5,427.9 M96,424.4V85.6c0-29.7,19.9-49.3,47.5-49.3c26.8,0,46.7,19.7,46.7,49.3v182.1l98-98.7
		c12-11.7,26.1-18.2,40.3-17c23,2.1,40.9,20.7,38.8,44.9c-1.1,11.5-5.8,21.1-13.7,28.9l-57.9,56.5l70,119.2
		c5.8,10,8.3,19.5,8.3,28.3c0,24-18.5,44-44.6,44c-18.5,0-34.5-9.4-44.6-27l-56-99.3l-38.4,37.5v39.5c0,29.9-19.9,49.4-46.7,49.4
		C116,473.8,96,454.3,96,424.4"/>
	<path class="st1" d="M308,428.6c0,10.2,8.3,18.6,18.7,18.6c10.4,0,18.9-8.4,18.9-18.6c0-10.2-8.5-18.4-18.9-18.4
		C316.3,410.2,308,418.3,308,428.6"/>
</g>
</svg>
