<?xml version="1.0" encoding="utf-8"?>
<!-- Generator: Adobe Illustrator 25.3.1, SVG Export Plug-In . SVG Version: 6.00 Build 0)  -->
<!DOCTYPE svg PUBLIC "-//W3C//DTD SVG 1.1//EN" "http://www.w3.org/Graphics/SVG/1.1/DTD/svg11.dtd" [
	<!ENTITY ns_extend "http://ns.adobe.com/Extensibility/1.0/">
	<!ENTITY ns_ai "http://ns.adobe.com/AdobeIllustrator/10.0/">
	<!ENTITY ns_graphs "http://ns.adobe.com/Graphs/1.0/">
	<!ENTITY ns_vars "http://ns.adobe.com/Variables/1.0/">
	<!ENTITY ns_imrep "http://ns.adobe.com/ImageReplacement/1.0/">
	<!ENTITY ns_sfw "http://ns.adobe.com/SaveForWeb/1.0/">
	<!ENTITY ns_custom "http://ns.adobe.com/GenericCustomNamespace/1.0/">
	<!ENTITY ns_adobe_xpath "http://ns.adobe.com/XPath/1.0/">
]>
<svg version="1.1" id="Layer_1" xmlns:x="&ns_extend;" xmlns:i="&ns_ai;" xmlns:graph="&ns_graphs;"
	 xmlns="http://www.w3.org/2000/svg" xmlns:xlink="http://www.w3.org/1999/xlink" x="0px" y="0px" viewBox="0 0 512 512"
	 style="enable-background:new 0 0 512 512;" xml:space="preserve">
<style type="text/css">
	.st0{fill:#AE005A;}
	.st1{fill:#8EBB18;}
	.st2{fill:#49194D;}
	.st3{fill:#4B1B00;}
	.st4{fill:#FFFFFF;}
</style>
<metadata>
	<sfw  xmlns="&ns_sfw;">
		<slices></slices>
		<sliceSourceBounds  bottomLeftOrigin="true" height="454.6" width="398.3" x="56.8" y="28.7"></sliceSourceBounds>
	</sfw>
</metadata>
<g>
	<rect x="56.8" y="232.4" class="st0" width="398.3" height="143.8"/>
	<polygon class="st1" points="455.2,204.7 56.8,483.3 56.8,307.3 455.2,28.7 	"/>
	<polygon class="st2" points="415.3,232.4 163.7,232.4 56.8,307.3 56.8,376.2 209.9,376.2 	"/>
	<path class="st3" d="M56.8,375v1.2h153.1l0.9-0.7l-0.2-0.2l-0.7-0.2H56.8z M413.6,233.6l1.6-1.2H163.7l-0.9,0.7l0.2,0.2l0.7,0.2
		H413.6z"/>
	<path class="st4" d="M187.7,311.5c-1.2,6.1,0.2,25.2,7.5,26.6c2.6,0.5,4.7,0,6.8-1.2l6.3-3.5l1.2,25.4h-40.4
		c1.4-10.5,2.1-19.1,2.8-26.8l1.4-20.5c-8.2-1.2-17-4.2-24.5-10c-6.5-5.4-10.3-11.9-10.7-19.8c-0.9-14,17.5-31.5,41.3-31.5h7
		c2.6,0.2,5.1,0.5,7.9,1.2c-1.6,3.5-3.7,7.7-4.2,14.9c-2.6-0.7-4.7-1.2-7.7-1.2c-17.3,0-21.9,11.7-21.9,16.1
		c0,11.4,11.2,15.4,19.6,16.1c6.1,0.7,11.9-0.7,17-4.2c3.7-2.6,4.7-3.5,6.5-7.7c4.4,2.3,14.5,3,21.7,0.5
		C223.7,300.3,204.1,311.1,187.7,311.5"/>
</g>
</svg>
