<svg width="200" height="200" viewBox="0 0 200 200" fill="none" xmlns="http://www.w3.org/2000/svg">
<rect width="200" height="200" fill="white"/>
<path d="M152.084 52.0356C154.236 53.6266 156.483 54.7496 156.483 57.2766C156.483 58.0253 155.547 58.774 153.488 58.774C151.897 58.774 150.212 58.306 149.37 57.183C148.715 56.3407 149.651 55.124 149.089 54.2817C148.621 53.533 147.685 53.9073 147.03 53.533C146.281 53.065 146.188 52.7843 145.626 51.6612C145.065 50.351 143.099 48.1984 140.76 45.8587C138.794 43.8933 136.735 42.8638 135.799 42.9574C135.144 43.051 134.957 43.051 134.302 43.051C132.617 43.051 131.214 44.642 128.78 45.6715C127.096 46.4202 126.16 46.7946 125.13 46.9817L124.756 47.4497L126.908 47.3561C128.967 47.3561 131.588 47.0753 133.647 47.0753C135.706 47.0753 136.735 48.9471 137.578 50.9125C139.169 54.8432 141.508 60.5522 144.41 65.3252C145.813 67.5714 146.937 68.9752 146.937 71.7829C146.937 72.6252 146.843 73.8418 145.72 73.8418C144.129 73.8418 140.105 72.1572 140.105 70.379C140.105 68.9752 141.228 68.4137 141.228 67.0098C141.228 66.1675 139.917 66.2611 139.637 65.5124C138.607 61.3009 137.39 57.0894 135.051 54.5625C133.834 53.2522 133.647 52.6907 132.43 52.6907C131.775 52.6907 131.12 52.8779 130.558 53.065C127.283 54.2817 122.884 58.0253 117.362 59.6163C115.303 60.2714 114.929 59.0548 112.776 59.4291H112.964C111.185 59.8035 109.875 60.8329 107.442 61.4881C104.166 62.424 98.4574 62.8919 93.8715 62.2368C90.5959 61.7688 86.3844 61.1137 84.6062 61.2073C83.2023 65.138 80.3011 70.379 75.9024 72.438C73.5626 73.4675 72.9075 74.8713 73.5626 77.4918C74.405 80.7674 77.3062 83.1072 78.8036 85.9148C80.2075 88.2546 82.4536 92.0917 84.7933 93.3084C87.1331 94.525 88.6305 96.3032 88.6305 97.8942C88.6305 98.643 88.3497 99.0173 87.601 99.0173H82.828C82.0793 99.0173 81.7049 98.5494 81.6113 98.2686C80.9562 97.0519 81.4241 95.9289 80.4882 94.8058C79.8331 94.0571 79.3652 94.2443 78.5229 93.5891C77.119 92.1853 78.1485 91.4366 77.119 89.6584C74.1242 84.8854 72.8139 83.7623 70.287 80.2995C68.8832 78.5213 67.105 77.5854 67.105 75.2457C67.105 72.3444 70.0063 71.8765 69.9127 68.9752C68.0409 70.379 65.8883 71.4085 62.5191 71.8765C62.0512 71.9701 60.9281 72.8124 60.4602 73.3739C59.3371 74.497 58.8692 75.7136 58.682 77.3982C58.3076 81.329 57.5589 85.2597 58.0268 89.1905C58.682 91.7174 59.1499 92.5597 61.2089 93.9635C62.5191 94.8058 64.0166 96.0225 64.2037 97.8942C64.2037 98.3622 64.0166 99.0173 63.3614 99.0173H58.214C57.7461 99.0173 57.2781 98.643 57.091 98.3622C56.5294 97.3327 56.9038 96.6776 56.623 95.4609C56.1551 93.1212 53.441 93.2148 53.441 90.7815C53.441 90.0328 53.9089 89.0969 53.9089 87.5994C54.0961 84.3238 55.032 78.8957 54.0961 72.438C53.6282 68.6944 57.5589 68.5073 59.6179 65.2316C60.8345 63.3598 60.4602 64.1086 61.2089 62.7983C61.9576 61.3945 61.7704 60.365 61.6768 59.5227C61.6768 58.3996 60.5538 56.1535 61.3025 51.474C61.5832 49.4151 62.6127 47.2625 64.0166 45.4843C64.0166 45.3907 64.0166 45.11 63.5486 45.11C61.4896 45.2971 61.4896 44.7356 60.1794 44.7356C58.8692 44.7356 57.8397 45.8587 57.6525 46.4202C56.9974 46.1394 56.7166 45.3907 56.7166 45.0164C56.7166 44.2677 56.9038 43.6125 57.5589 42.9574C57.8397 42.6767 57.5589 42.4895 57.1845 42.4895C55.5935 42.4895 54.0961 44.4548 53.7217 45.7651C52.7859 45.5779 52.6923 44.3613 52.3179 44.3613C51.85 44.3613 51.5692 45.0164 51.5692 45.6715C51.5692 50.2574 59.0563 51.2869 59.0563 57.3701C59.0563 64.3893 50.6333 62.8919 50.6333 65.4188C50.6333 65.8868 51.0077 66.3547 51.6628 66.6355C51.382 67.2906 50.6333 67.5714 49.8846 67.5714C48.0128 67.5714 46.609 66.1675 46.609 64.2957C46.609 60.4586 51.7564 60.365 51.7564 57.4637C51.7564 56.0599 50.9141 55.6855 50.0718 55.0304C45.2051 51.5676 42.3975 48.1048 42.3975 42.3959C42.3975 36.219 46.7026 31.5395 52.2243 31.5395C60.273 31.5395 60.5538 40.8985 67.8537 41.6472C70.5678 39.7754 73.8434 38.6523 77.0254 38.6523C81.7985 38.6523 83.8574 39.869 88.9113 39.869C90.9702 39.869 94.3394 39.3074 98.3638 36.4998C99.8612 35.4703 100.516 35.2831 101.92 34.0665C105.102 31.3524 108.097 26.0178 108.097 22.1806V22.3678C108.097 21.1511 107.816 20.4024 107.255 20.4024C105.57 20.4024 103.979 21.9934 102.295 23.6781C101.171 24.8011 102.856 25.3627 100.423 26.6729C99.5804 27.1409 98.5509 26.2985 97.6151 26.2985C95.6497 26.2985 94.8074 23.9588 94.8074 21.9934C94.8074 20.964 95.5561 20.6832 96.024 19.7473C97.0535 17.7819 96.9599 17.0332 97.8958 15.1614C98.4574 13.8512 99.4868 13.0089 99.3933 12.073C99.3933 11.6986 99.1125 11.5115 99.1125 11.1371C99.1125 9.17174 101.733 7.86149 101.733 5.89612C101.733 4.77305 100.516 4.3051 100.236 3.4628C99.9548 2.6205 100.142 2.33973 100.142 2.33973C100.236 2.15255 100.329 2.15255 100.516 2.15255C101.546 2.15255 101.92 3.27562 102.856 3.83716C102.95 2.52691 102.482 2.24614 102.482 1.31025C102.482 0.842302 102.388 0 102.95 0C103.605 0 103.511 0.842302 104.073 1.31025C104.821 1.87178 105.477 1.77819 106.225 2.33973C107.255 2.99485 107.816 4.11792 108.191 4.11792C109.22 4.3051 109.501 2.99485 108.939 2.33973C110.062 2.24614 111.279 3.18203 112.776 3.18203C115.116 3.18203 115.959 3.83715 116.426 4.21151C117.924 5.52176 118.205 6.55124 119.889 6.55124C120.732 6.55124 121.2 5.80253 121.387 5.52176C122.51 6.36406 122.603 8.51661 121.387 10.3884C121.855 11.8858 124.007 12.073 125.037 12.8217C126.066 13.5704 125.879 13.9448 126.628 14.3191C127.189 14.6935 127.751 14.5999 128.125 14.3191C128.593 16.3781 126.908 18.1563 124.756 18.4371C124.849 21.0576 127.564 22.6486 128.78 23.3037C128.032 24.8947 126.721 25.3627 125.598 25.6434C125.973 27.2344 127.657 29.5742 126.815 31.6331C126.066 31.2588 124.85 31.6331 124.85 32.7562C124.85 34.0664 126.534 34.7216 124.756 35.6575C124.007 36.1254 123.82 37.2485 125.224 38.3715C127.096 37.9036 128.874 37.9036 131.026 37.9036C132.337 37.9036 134.021 37.5292 135.238 37.5292C137.39 37.5292 138.701 38.3716 140.292 40.1497C144.316 44.3613 147.966 48.9471 152.084 52.0356Z" fill="#231F20"/>
<path d="M44.925 40.5248C45.7673 40.5248 47.3583 35.7518 50.6339 35.7518C51.5698 35.7518 51.757 36.1261 51.757 36.5005C51.757 37.1556 50.6339 37.7172 50.6339 38.5595C50.6339 38.7466 50.7275 38.9338 51.0083 38.9338C51.757 38.9338 52.4121 37.1556 55.5941 37.1556C56.4364 37.1556 57.1851 37.2492 57.9339 37.4364C58.3082 37.53 59.0569 37.9043 58.6826 36.8749C57.9339 34.6287 55.407 32.5698 51.9442 32.5698C48.4814 32.5698 44.8314 35.6582 44.457 39.4018C44.5506 40.0569 44.5506 40.5248 44.925 40.5248Z" fill="#A0A1A4"/>
<path d="M104.822 10.7641C103.886 10.3898 103.699 9.92183 104.073 8.70518C104.26 7.48852 104.354 6.92698 103.792 6.83339C103.324 6.64621 102.669 7.02057 102.014 7.67569C101.452 8.42441 100.517 9.45389 100.236 10.2026C99.955 11.2321 101.172 11.0449 100.329 12.7295C98.8319 15.4436 98.4576 16.0987 97.7089 17.9705C97.0537 20.0295 96.5858 20.3102 96.2114 20.9654C95.7435 21.5269 96.773 21.6205 97.896 21.2461C99.1127 20.7782 99.2063 22.2756 98.7383 23.3051C98.364 24.0538 98.6447 24.3346 99.6742 23.4923C100.61 22.7435 99.2063 22.182 99.4871 19.8423C99.8614 17.7833 100.236 16.5667 101.546 14.5077C102.669 12.7295 103.605 11.4193 105.477 12.0744C106.225 12.4487 105.851 11.2321 104.822 10.7641Z" fill="#A0A1A4"/>
<path d="M144.97 72.0652C145.345 72.0652 145.438 71.5972 145.438 71.1293C145.438 70.0998 144.877 68.6024 144.035 67.9472C143.847 69.4447 143.099 70.4741 143.099 71.1293C143.099 71.5972 144.502 72.0652 144.97 72.0652Z" fill="#A0A1A4"/>
<path d="M153.955 57.5558C154.517 57.5558 155.359 57.3686 155.359 56.9007C155.359 56.0584 154.049 54.561 152.926 54.1866C153.674 55.684 152.926 57.5558 153.955 57.5558Z" fill="#A0A1A4"/>
<path d="M114.273 37.8085C122.415 41.5521 121.947 48.3841 122.602 46.6995C122.883 45.9508 124.006 42.5816 121.105 39.3059C118.859 36.6854 118.016 37.3406 118.859 35.188C122.415 26.5778 124.661 13.5689 113.992 9.07664C112.775 8.60869 111.746 8.60869 111.746 8.79587C111.746 8.98305 112.869 9.35741 114.273 10.2933C121.386 14.9728 119.14 27.7945 112.682 33.9714C110.623 36.1239 111.652 36.5919 114.273 37.8085Z" fill="#A0A1A4"/>
<path d="M86.385 97.7061C86.9465 97.7061 86.6657 96.8638 86.4786 96.4895C86.0106 95.6472 85.0747 95.0856 84.2324 94.7113C84.4196 95.5536 84.5132 97.7061 85.3555 97.7061H86.385Z" fill="#A0A1A4"/>
<path d="M61.7702 97.7061C62.3318 97.7061 61.9574 96.8638 61.6766 96.4895C61.2087 95.6472 60.1792 95.0856 59.3369 94.7113C59.5241 95.5536 59.7113 97.7061 60.5536 97.7061H61.7702Z" fill="#A0A1A4"/>
<path d="M91.6263 48.7611C96.1186 48.2931 96.8673 47.2636 97.616 43.8944C97.9903 42.3034 99.1134 40.6188 100.143 39.5893C100.798 38.8406 101.453 38.2791 102.108 37.2496C102.295 36.7816 102.483 36.5009 102.108 36.5945C101.64 36.9688 100.049 37.9983 99.3942 38.4663C96.2121 40.7124 91.3455 41.7419 89.4737 41.7419C85.3558 41.7419 81.7994 40.5252 78.0558 40.5252C66.8251 40.5252 62.6135 49.3226 63.1751 54.47C63.2687 55.3123 63.3623 55.3123 63.643 55.3123C64.3917 55.3123 65.1405 52.3174 67.9481 49.6034C72.0661 45.6726 76.5584 43.4265 82.9225 43.4265C87.5084 43.4265 89.4737 44.9239 89.4737 45.4854C89.4737 46.6085 87.5084 46.7021 87.6955 47.8252C87.6019 48.2931 88.6314 49.1354 91.6263 48.7611Z" fill="#A0A1A4"/>
<path d="M110.344 140.291C113.9 135.144 116.427 130.932 118.58 124.755H125.224C122.136 132.617 118.486 138.794 113.339 145.813V156.295H107.442V145.906C102.295 138.794 98.6451 132.71 95.5566 124.849H102.201C104.26 131.026 106.787 135.237 110.344 140.291Z" fill="#006C32"/>
<path d="M171.269 137.67C168.368 136.734 166.683 136.266 165.654 135.517C164.531 134.862 164.25 134.02 164.25 133.177C164.25 131.867 164.999 131.025 166.122 130.463C167.245 129.902 168.742 129.715 170.052 129.715C172.111 129.715 174.451 130.183 176.884 131.025L178.85 126.439C176.416 125.222 173.141 124.474 170.052 124.474C166.87 124.474 164.063 125.222 162.097 126.626C159.664 128.217 158.447 130.557 158.447 133.365C158.447 138.793 163.033 140.852 167.525 142.349C169.397 143.004 171.363 143.472 172.673 144.221C173.983 144.97 174.732 145.999 174.732 147.309C174.732 148.807 173.796 149.836 172.86 150.304C171.737 150.959 169.959 151.24 168.181 151.24C163.969 151.24 160.974 149.649 158.822 148.152L156.763 152.925C159.477 154.984 163.969 156.481 168.461 156.481C175.387 156.481 180.628 152.831 180.628 146.935C180.628 141.788 176.416 139.261 171.269 137.67Z" fill="#006C32"/>
<path d="M138.889 150.773H134.584V130.277H138.327C144.879 130.277 149.09 133.833 149.09 140.291C149.09 146.468 145.253 150.773 138.889 150.773ZM138.234 124.755H128.781V156.295H138.795C148.061 156.295 154.986 149.744 154.986 140.291C154.986 131.026 148.435 124.755 138.234 124.755Z" fill="#006C32"/>
<path d="M43.333 156.295H61.0214L62.8931 150.679H49.0419V124.755H43.333V156.295Z" fill="#006C32"/>
<path d="M19 156.295H36.6883L38.6537 150.679H24.8025V124.755H19V156.295Z" fill="#006C32"/>
<path d="M79.833 151.24C73.4689 151.24 69.819 146.561 69.819 140.571C69.819 134.581 73.4689 129.902 79.833 129.902C86.2907 129.902 89.9406 134.768 89.9406 140.664C89.847 146.467 86.1971 151.24 79.833 151.24ZM79.9266 124.474C70.2869 124.474 63.9229 131.586 63.9229 140.571C63.9229 149.462 70.0997 156.575 79.833 156.575C89.4727 156.575 95.8367 149.368 95.8367 140.477C95.7432 131.586 89.4727 124.474 79.9266 124.474Z" fill="#006C32"/>
<path d="M51.1946 195.225H46.1407V186.053H51.3817C55.874 186.053 58.2137 187.27 58.2137 190.452C58.2137 194.664 54.1894 195.225 51.1946 195.225ZM46.1407 173.232H50.633C54.8445 173.232 56.8099 174.261 56.8099 176.975C56.8099 179.689 54.8445 181.28 51.101 181.28H46.1407V173.232ZM56.9971 183.433C60.3663 182.31 62.4253 179.97 62.4253 176.32C62.4253 170.798 57.5586 168.552 52.7856 168.552H40.5254V199.998H51.9433C57.8394 199.998 63.8291 197.565 63.8291 191.014C63.8291 186.615 61.115 183.994 56.9971 183.433Z" fill="#006C32"/>
<path d="M125.691 168.46H120.17V191.203H120.076L106.786 168.46H99.5801V200H105.008V176.509H105.102L118.672 200H125.691V168.46Z" fill="#006C32"/>
<path d="M143.941 183.622L158.541 168.46H151.147L138.045 182.592H137.858V168.46H132.336V200H137.858V184.745H138.045L151.99 200H159.758L143.941 183.622Z" fill="#006C32"/>
<path d="M80.6739 193.26C83.0136 193.26 85.2597 193.073 87.2251 192.511L90.1264 199.998H96.6776L83.1072 168.552H78.3341L64.6699 199.998H71.2212L74.1226 192.511C76.088 193.073 78.3341 193.26 80.6739 193.26ZM80.6739 188.487C78.9893 188.487 77.4918 188.393 75.8072 188.019L80.6739 175.571L85.5405 188.019C83.8559 188.393 82.3585 188.487 80.6739 188.487Z" fill="#006C32"/>
</svg>
