<?xml version="1.0" encoding="utf-8"?>
<!-- Generator: Adobe Illustrator 25.3.1, SVG Export Plug-In . SVG Version: 6.00 Build 0)  -->
<!DOCTYPE svg PUBLIC "-//W3C//DTD SVG 1.1//EN" "http://www.w3.org/Graphics/SVG/1.1/DTD/svg11.dtd" [
	<!ENTITY ns_extend "http://ns.adobe.com/Extensibility/1.0/">
	<!ENTITY ns_ai "http://ns.adobe.com/AdobeIllustrator/10.0/">
	<!ENTITY ns_graphs "http://ns.adobe.com/Graphs/1.0/">
	<!ENTITY ns_vars "http://ns.adobe.com/Variables/1.0/">
	<!ENTITY ns_imrep "http://ns.adobe.com/ImageReplacement/1.0/">
	<!ENTITY ns_sfw "http://ns.adobe.com/SaveForWeb/1.0/">
	<!ENTITY ns_custom "http://ns.adobe.com/GenericCustomNamespace/1.0/">
	<!ENTITY ns_adobe_xpath "http://ns.adobe.com/XPath/1.0/">
]>
<svg version="1.1" id="Layer_1" xmlns:x="&ns_extend;" xmlns:i="&ns_ai;" xmlns:graph="&ns_graphs;"
	 xmlns="http://www.w3.org/2000/svg" xmlns:xlink="http://www.w3.org/1999/xlink" x="0px" y="0px" viewBox="0 0 512 512"
	 style="enable-background:new 0 0 512 512;" xml:space="preserve">
<style type="text/css">
	.st0{fill:#FFFFFF;}
</style>
<metadata>
	<sfw  xmlns="&ns_sfw;">
		<slices></slices>
		<sliceSourceBounds  bottomLeftOrigin="true" height="512" width="513.5" x="0" y="0"></sliceSourceBounds>
	</sfw>
</metadata>
<rect width="513.5" height="512"/>
<g>
	<g>
		<g>
			<path class="st0" d="M184.7,178.1v154.7h-14.3V206.6l-50.9,98.7h-10.2l-50.9-98.7v126.2H44.3V178.1h15.3l56,106.9l55-106.9H184.7
				z M336.4,335.9L311,308.4c-9.2,14.3-22.4,25.5-42.8,25.5c-26.5,0-46.8-18.3-46.8-41.7c0-19.3,12.2-30.5,34.6-43.8
				c-13.2-13.2-20.4-23.4-20.4-36.6c0-18.3,15.3-33.6,34.6-33.6c20.4,0,34.6,14.3,34.6,33.6c0,17.3-14.3,29.5-28.5,38.7l31.6,34.6
				l19.3-30.5l11.2,7.1l-21.4,33.6l28.5,30.5L336.4,335.9z M264.1,257.5c-20.4,11.2-29.5,20.4-29.5,33.6c0,15.3,14.3,28.5,32.6,28.5
				c16.3,0,24.4-7.1,33.6-22.4L264.1,257.5z M248.9,211.7c0,9.2,6.1,16.3,18.3,29.5c15.3-9.2,23.4-17.3,23.4-29.5
				c0-11.2-8.1-20.4-21.4-20.4C257,191.4,248.9,200.5,248.9,211.7 M466.7,211.7l-13.2,5.1c-5.1-16.3-19.3-26.5-38.7-26.5
				c-21.4,0-35.6,10.2-35.6,28.5c0,38.7,88.6,18.3,88.6,72.3c0,26.5-21.4,43.8-51.9,43.8c-28.5,0-45.8-14.3-58-35.6l12.2-7.1
				c8.1,17.3,22.4,29.5,44.8,29.5c25.5,0,38.7-12.2,38.7-31.6c0-38.7-88.6-19.3-88.6-72.3c0-31.6,28.5-41.7,48.9-41.7
				C438.2,176.1,459.6,187.3,466.7,211.7"/>
		</g>
	</g>
</g>
</svg>
