<svg width="200" height="200" viewBox="0 0 200 200" fill="none" xmlns="http://www.w3.org/2000/svg">
<rect width="200" height="200" fill="white"/>
<path d="M131.476 90.2741C128.417 82.5288 125.26 74.7834 122.152 67.0874C121.609 65.7554 121.116 64.3741 120.573 62.9928C120.376 62.5488 120.03 62.2034 119.537 61.4634C118.649 63.4368 117.86 65.0648 117.169 66.6928C113.222 75.9181 109.325 85.1434 105.329 94.3688C104.293 96.7861 103.208 99.3514 101.53 101.374C100.396 102.755 98.2743 103.545 96.4983 104.235C93.5383 105.419 90.4797 106.505 87.3717 107.245C81.9943 108.577 76.5677 109.613 71.141 110.698C70.8943 110.747 70.5983 110.649 70.0557 110.55C70.7957 108.971 71.437 107.491 72.177 106.061C76.8637 96.9834 81.5997 87.9554 86.2863 78.8781C92.1077 67.5808 97.8797 56.2341 103.701 44.9368C103.898 44.5914 104.244 44.2461 104.342 43.9008C105.329 39.9047 108.092 39.4114 111.742 39.5594C118.698 39.8554 125.654 39.6581 132.61 39.6088C133.992 39.6088 134.732 39.9048 135.373 41.3354C140.01 51.6461 144.845 61.9074 149.581 72.1688C150.814 74.8821 152.097 77.5461 153.281 80.3088C153.774 81.4928 161.569 98.5621 162.013 99.4994C166.453 109.07 170.844 118.69 175.234 128.261C177.158 132.454 179.132 136.598 181.105 140.791C181.352 141.334 181.5 141.975 181.796 142.814C180.858 142.863 180.118 142.962 179.378 142.962C172.077 142.962 164.776 142.814 157.474 142.962C152.985 143.011 151.653 141.729 150.124 137.881C147.361 130.974 144.648 124.018 141.934 117.062C141.293 115.483 140.652 113.954 140.109 112.326C139.665 110.895 132.709 93.3821 131.476 90.2741Z" fill="#0D6B50"/>
<path d="M87.668 57.3194C84.412 57.3194 81.6986 57.1221 79.084 57.3687C76.716 57.5661 74.348 58.0101 72.0786 58.7007C67.836 60.0327 63.4946 61.3154 59.4493 63.1901C54.0226 65.7061 48.6946 68.5181 43.564 71.6261C35.572 76.4608 28.32 82.2328 22.0053 89.0901C16.9733 94.5661 12.6813 100.535 10.8066 107.837C9.5733 112.622 10.3626 116.519 14.8026 120.417C18.2066 123.377 22.4 124.314 26.5933 124.659C31.6746 125.054 36.904 125.103 41.9853 124.659C47.5106 124.166 52.9866 123.031 58.4626 122.094C62.36 121.403 66.208 120.663 70.1053 119.825C72.72 119.282 75.3346 118.591 77.8506 117.802C84.116 115.779 90.3813 113.757 96.4986 111.438C101.087 109.711 105.477 107.541 109.917 105.469C116.084 102.558 122.201 99.5488 128.319 96.5888C128.96 96.2928 129.503 95.8488 130.144 95.5034C133.153 93.8754 155.008 82.0848 156.044 81.4928C163.444 77.2501 170.844 73.0568 178.244 68.8634C184.904 65.0648 191.515 61.2661 198.175 57.5168C198.619 57.2701 199.112 57.1221 199.803 56.8261C199.852 57.5661 199.951 58.1087 199.951 58.7007C199.951 64.3247 199.951 69.9488 200 75.5234C200 76.7568 199.655 77.4474 198.471 78.0888C186.68 84.6501 174.988 91.3101 163.247 97.8714C162.161 98.4634 139.517 111.093 138.235 111.833C132.857 114.842 127.529 117.999 121.955 120.713C115.492 123.87 108.881 126.83 102.172 129.543C96.3507 131.862 90.3813 133.934 84.3627 135.71C79.1333 137.239 73.7066 138.127 68.4773 139.558C62.2613 141.235 55.7986 141.285 49.484 142.123C47.3626 142.37 45.1426 142.173 43.0213 141.975C39.8146 141.679 36.608 141.531 33.5 140.841C29.4053 139.854 25.2613 138.67 21.364 137.091C15.444 134.625 10.9546 130.234 7.40263 125.005C3.99863 120.022 1.5813 114.497 0.742632 108.478C0.199965 104.729 -0.194701 100.93 0.101299 97.1808C0.495966 92.1488 2.56796 87.5608 5.23197 83.2194C10.6093 74.4874 17.812 67.5808 26.0506 61.7101C31.132 58.0594 36.2133 54.4088 41.64 51.3994C47.116 48.3408 52.9866 46.0221 58.7093 43.4567C64.284 40.9407 70.3026 40.0034 76.3213 39.5594C79.4786 39.3621 81.8467 39.9541 82.8827 42.9634C84.4613 47.5514 85.9906 52.2874 87.668 57.3194Z" fill="#159596"/>
<path d="M93.8348 172.315C64.0868 172.315 34.3388 172.315 4.54143 172.315C1.92676 172.315 1.92676 172.315 1.92676 169.75C1.92676 165.705 1.92676 161.659 1.92676 157.663C1.92676 155.098 1.92676 155.098 4.59076 155.098C25.0148 155.098 45.3894 155.098 65.8134 155.098C104.984 155.098 144.155 155.098 183.325 155.098C185.693 155.098 185.693 155.098 185.693 157.515C185.693 161.709 185.595 165.951 185.743 170.145C185.792 172.019 185.151 172.365 183.473 172.365C153.577 172.315 123.681 172.315 93.8348 172.315Z" fill="#0D6B50"/>
<path d="M147.904 53.1261C150.519 54.4581 152.542 53.5207 154.515 52.4354C160.731 49.0314 166.947 45.5287 173.163 42.0754C180.958 37.7834 188.752 33.4421 196.596 29.1501C199.902 27.3247 199.951 27.4234 199.951 31.2714C199.951 35.4647 199.951 39.7074 199.951 43.9007C199.951 44.9861 199.655 45.6767 198.619 46.2687C187.618 52.2874 176.715 58.4047 165.763 64.5221C164.48 65.2127 163.247 65.9527 161.964 66.6927C159.004 68.3207 156.883 68.0741 154.515 65.7061C151.062 62.3021 149.088 58.1087 147.904 53.1261Z" fill="#EA222E"/>
</svg>
