<svg width="100" height="100" viewBox="0 0 100 100" fill="none" xmlns="http://www.w3.org/2000/svg">
<rect width="100" height="100" fill="white"/>
<path d="M63.4129 25.5836H36.2941V73.9824H63.4129V25.5836Z" fill="#FF5F00"/>
<path d="M38.0169 49.783C38.0211 45.1196 39.0847 40.5182 41.1274 36.326C43.1702 32.1339 46.1387 28.4606 49.8088 25.5836C45.2679 22.0135 39.814 19.793 34.0707 19.1761C28.3274 18.5592 22.5264 19.5706 17.3308 22.0949C12.1352 24.6191 7.75471 28.5543 4.68998 33.4506C1.62526 38.3469 0 44.0067 0 49.783C0 55.5594 1.62526 61.2191 4.68998 66.1154C7.75471 71.0117 12.1352 74.9469 17.3308 77.4711C22.5264 79.9954 28.3274 81.0069 34.0707 80.3899C39.814 79.773 45.2679 77.5526 49.8088 73.9824C46.132 71.1114 43.1588 67.4394 41.1154 63.2459C39.0719 59.0524 38.0122 54.4479 38.0169 49.783V49.783Z" fill="#EC001B"/>
<path d="M100 49.783C99.9573 55.5744 98.2934 61.238 95.1969 66.1322C92.1004 71.0265 87.6951 74.9556 82.48 77.4745C77.265 79.9934 71.4486 81.0014 65.6901 80.3842C59.9316 79.767 54.461 77.5493 49.8982 73.9824C53.5712 71.1081 56.5417 67.4354 58.5847 63.2426C60.6276 59.0498 61.6893 54.447 61.6893 49.783C61.6893 45.119 60.6276 40.5162 58.5847 36.3234C56.5417 32.1307 53.5712 28.4579 49.8982 25.5836C55.3511 21.3107 62.0808 18.9922 69.0085 19C86.1427 19 100 32.8524 100 49.783Z" fill="#F89E1B"/>
</svg>
