<svg width="200" height="200" viewBox="0 0 200 200" fill="none" xmlns="http://www.w3.org/2000/svg">
<rect width="200" height="200" fill="white"/>
<path fill-rule="evenodd" clip-rule="evenodd" d="M35.544 174.499V164.419C35.544 160.706 33.422 158.053 29.178 158.053C27.056 158.053 24.934 158.584 23.873 160.706C22.8119 159.114 21.2204 158.053 18.5679 158.053C16.9764 158.053 15.3849 158.584 13.7934 160.175V158.053H10.6104V173.968H14.3239V164.95C14.3239 162.297 15.9154 160.706 18.0374 160.706C20.1594 160.706 21.2204 162.297 21.2204 164.95V173.968H24.934V164.95C24.934 162.297 26.5255 160.706 28.6475 160.706C30.7695 160.706 32.361 162.297 32.361 164.95V173.968H35.544V174.499ZM87.0029 158.584H81.1674V153.809H77.4539V158.584H74.2708V161.767H77.4539V169.194C77.4539 172.907 79.0454 175.029 82.7589 175.029C84.3504 175.029 85.9419 174.499 87.0029 173.968L85.9419 170.785C84.8809 171.316 83.8199 171.846 82.7589 171.846C81.1674 171.846 80.6369 170.785 80.6369 169.194V161.767H86.4724V158.584H87.0029ZM116.181 158.053C114.059 158.053 112.998 159.114 111.937 160.175V158.053H108.754V173.968H111.937V164.95C111.937 162.297 112.998 160.706 115.12 160.706C115.65 160.706 116.711 160.706 117.242 161.236L118.303 158.053C118.303 158.053 117.242 158.053 116.181 158.053ZM72.1488 159.645C70.5573 158.584 68.4353 158.053 65.7828 158.053C61.5387 158.053 59.4167 160.175 59.4167 163.358C59.4167 166.011 61.5387 167.602 64.7218 168.133H66.3133C68.4353 168.663 68.9658 168.663 68.9658 169.724C68.9658 170.785 67.9048 171.846 65.2523 171.846C62.5997 171.846 61.0082 171.316 59.9472 170.255L58.3557 172.907C60.4777 174.499 62.5997 175.029 65.2523 175.029C70.0268 175.029 72.6793 172.907 72.6793 169.724C72.6793 167.072 70.5573 165.48 67.3743 164.95H65.7828C64.1913 164.95 63.1303 164.419 63.1303 163.358C63.1303 162.297 64.1913 161.236 66.3133 161.236C68.4353 161.236 70.5573 161.767 71.0878 162.828L72.1488 159.645ZM97.613 158.053C101.857 158.053 105.04 161.236 105.04 166.541C105.04 167.072 105.04 167.602 105.04 168.133H93.369C93.8995 170.785 96.0215 171.846 98.1435 171.846C99.735 171.846 101.327 171.316 102.918 170.255L104.51 172.907C102.388 174.499 100.266 175.029 98.1435 175.029C93.369 175.029 90.186 171.846 90.186 166.541C89.6555 161.767 92.8385 158.053 97.613 158.053ZM97.613 161.236C94.9605 161.236 93.8995 162.828 93.369 164.95H101.327C101.327 162.828 99.735 161.236 97.613 161.236ZM55.1727 166.541V174.499H51.9897V172.377C50.9287 173.968 49.3372 174.499 47.2151 174.499C42.9711 174.499 39.2576 170.785 39.2576 166.011C39.2576 161.236 42.9711 157.523 47.2151 157.523C49.3372 157.523 50.9287 158.584 51.9897 159.645V157.523H55.1727V166.541ZM41.9101 166.541C41.9101 169.194 43.5016 171.846 46.6846 171.846C49.3371 171.846 51.4592 169.724 51.4592 166.541C51.4592 163.889 49.3371 161.236 46.6846 161.236C44.0321 161.236 41.9101 163.889 41.9101 166.541ZM157.029 166.541V174.499H153.846V172.377C152.785 173.968 151.194 174.499 149.072 174.499C144.828 174.499 141.114 170.785 141.114 166.011C141.114 161.236 144.828 157.523 149.072 157.523C151.194 157.523 152.785 158.584 153.846 159.645V157.523H157.029V166.541ZM144.297 166.541C144.297 169.194 145.889 171.846 149.072 171.846C151.724 171.846 153.846 169.724 153.846 166.541C153.846 163.889 151.724 161.236 149.072 161.236C145.889 161.236 144.297 163.889 144.297 166.541ZM121.486 166.541V158.584H124.669V160.706C125.73 159.114 127.321 158.584 129.443 158.584C133.687 158.584 137.401 162.297 137.401 167.072C137.401 171.846 133.687 175.56 129.443 175.56C127.321 175.56 125.73 174.499 124.669 173.438V181.395H121.486V166.541ZM134.748 166.541C134.748 163.889 133.157 161.236 129.974 161.236C127.321 161.236 125.199 163.358 125.199 166.541C125.199 169.724 127.321 171.846 129.974 171.846C132.626 171.846 134.748 169.194 134.748 166.541ZM174.006 159.645C172.414 158.584 170.292 158.053 167.64 158.053C163.396 158.053 161.274 160.175 161.274 163.358C161.274 166.011 163.396 167.602 166.579 168.133H168.17C170.292 168.663 170.823 168.663 170.823 169.724C170.823 170.785 169.762 171.846 167.109 171.846C164.987 171.846 162.865 171.316 161.804 170.255L160.212 172.907C162.335 174.499 164.457 175.029 167.109 175.029C171.884 175.029 174.536 172.907 174.536 169.724C174.536 167.072 172.414 165.48 169.231 164.95H167.64C166.048 164.95 164.987 164.419 164.987 163.358C164.987 162.297 166.048 161.236 168.17 161.236C170.292 161.236 172.414 161.767 172.945 162.828L174.006 159.645ZM190.451 159.645C188.86 158.584 186.738 158.053 184.085 158.053C179.841 158.053 177.719 160.175 177.719 163.358C177.719 166.011 179.841 167.602 183.024 168.133H184.616C186.738 168.663 187.268 168.663 187.268 169.724C187.268 170.785 186.207 171.846 183.555 171.846C180.902 171.846 179.311 171.316 178.25 170.255L176.658 172.907C178.78 174.499 180.902 175.029 183.555 175.029C188.329 175.029 190.982 172.907 190.982 169.724C190.982 167.072 188.86 165.48 185.677 164.95H184.085C182.494 164.95 181.433 164.419 181.433 163.358C181.433 162.297 182.494 161.236 184.616 161.236C186.738 161.236 188.86 161.767 189.39 162.828L190.451 159.645ZM193.634 174.499V172.377H192.573V171.846H194.695V172.377H193.634V174.499ZM198.409 174.499V171.846H197.878L197.348 173.438L196.287 171.846H195.756V174.499H196.287V172.907L196.817 174.499H197.348L197.878 172.907L198.409 174.499Z" fill="black"/>
<mask id="mask0_1852_112179" style="mask-type:alpha" maskUnits="userSpaceOnUse" x="0" y="18" width="200" height="163">
<path fill-rule="evenodd" clip-rule="evenodd" d="M0 180.334H200V18H0V180.334Z" fill="white"/>
</mask>
<g mask="url(#mask0_1852_112179)">
<path fill-rule="evenodd" clip-rule="evenodd" d="M73.2095 129.936H127.321V31.2626H73.2095V129.936Z" fill="#FF5F00"/>
</g>
<mask id="mask1_1852_112179" style="mask-type:alpha" maskUnits="userSpaceOnUse" x="0" y="18" width="200" height="163">
<path fill-rule="evenodd" clip-rule="evenodd" d="M0 180.334H200V18H0V180.334Z" fill="white"/>
</mask>
<g mask="url(#mask1_1852_112179)">
<path fill-rule="evenodd" clip-rule="evenodd" d="M76.3926 80.5995C76.3926 60.4403 85.4112 42.9337 100.265 31.2626C89.6552 22.7745 76.3926 18 62.069 18C27.5862 18 0 46.1167 0 80.5995C0 115.082 27.5862 143.199 62.069 143.199C76.3926 143.199 89.6552 138.424 100.265 129.936C85.9417 118.265 76.3926 100.228 76.3926 80.5995Z" fill="#EB001B"/>
</g>
<mask id="mask2_1852_112179" style="mask-type:alpha" maskUnits="userSpaceOnUse" x="0" y="18" width="200" height="163">
<path fill-rule="evenodd" clip-rule="evenodd" d="M0 180.334H200V18H0V180.334Z" fill="white"/>
</mask>
<g mask="url(#mask2_1852_112179)">
<path fill-rule="evenodd" clip-rule="evenodd" d="M199.999 80.5995C199.999 115.082 172.412 143.199 137.93 143.199C123.606 143.199 110.343 138.424 99.7334 129.936C114.057 118.265 123.606 100.759 123.606 80.5995C123.606 60.4403 114.588 42.9337 99.7334 31.2626C110.343 22.7745 123.606 18 137.93 18C172.412 18 199.999 46.1167 199.999 80.5995ZM194.163 119.326V117.204H195.224V116.674H193.102V117.204H194.163V119.326ZM198.407 119.326V116.674H197.877L196.816 118.796L196.285 117.204H195.755V119.857H196.285V118.265L196.816 119.857H197.346L197.877 118.265L198.407 119.326Z" fill="#F79E1B"/>
</g>
</svg>
