<?xml version="1.0" encoding="utf-8"?>
<!-- Generator: Adobe Illustrator 25.3.1, SVG Export Plug-In . SVG Version: 6.00 Build 0)  -->
<!DOCTYPE svg PUBLIC "-//W3C//DTD SVG 1.1//EN" "http://www.w3.org/Graphics/SVG/1.1/DTD/svg11.dtd" [
	<!ENTITY ns_extend "http://ns.adobe.com/Extensibility/1.0/">
	<!ENTITY ns_ai "http://ns.adobe.com/AdobeIllustrator/10.0/">
	<!ENTITY ns_graphs "http://ns.adobe.com/Graphs/1.0/">
	<!ENTITY ns_vars "http://ns.adobe.com/Variables/1.0/">
	<!ENTITY ns_imrep "http://ns.adobe.com/ImageReplacement/1.0/">
	<!ENTITY ns_sfw "http://ns.adobe.com/SaveForWeb/1.0/">
	<!ENTITY ns_custom "http://ns.adobe.com/GenericCustomNamespace/1.0/">
	<!ENTITY ns_adobe_xpath "http://ns.adobe.com/XPath/1.0/">
]>
<svg version="1.1" id="Layer_1" xmlns:x="&ns_extend;" xmlns:i="&ns_ai;" xmlns:graph="&ns_graphs;"
	 xmlns="http://www.w3.org/2000/svg" xmlns:xlink="http://www.w3.org/1999/xlink" x="0px" y="0px" viewBox="0 0 512 512"
	 style="enable-background:new 0 0 512 512;" xml:space="preserve">
<style type="text/css">
	.st0{fill:#009DA6;}
	.st1{fill:#FFFFFF;}
</style>
<metadata>
	<sfw  xmlns="&ns_sfw;">
		<slices></slices>
		<sliceSourceBounds  bottomLeftOrigin="true" height="512" width="513.5" x="0" y="0"></sliceSourceBounds>
	</sfw>
</metadata>
<rect class="st0" width="513.5" height="512"/>
<path class="st1" d="M60.8,123.3c20.4,0,40.8,0,61.2,0c0.5,0,0.9,0.1,1.6,0.1c0,3,0,5.9,0,9.2c0.9-0.3,1.6-0.6,2.2-0.8
	c11.8-5.3,24.2-8.7,37.1-9.8c35.1-2.9,65.8,7.3,91.5,31.6c0.5,0.4,0.9,0.8,1.5,1.3c0.4-0.4,0.8-0.7,1.2-1
	c17.9-17.3,39.1-27.7,63.7-31.2c24.6-3.5,48.2-0.1,70.4,11.3c30.6,15.7,49.2,40.8,57.2,74.1c2,8.2,2.8,16.7,2.8,25.1
	c0,51.6,0.1,103.2,0.1,154.8c0,0.8-0.1,1.6-0.1,2.5c-20.8,0-41.4,0-62.3,0c0-1-0.1-2.1-0.1-3.1c0-27.5,0-55.1,0-82.6
	c0-25.1,0.1-50.2-0.2-75.3c-0.2-19.4-9.1-34.2-25.5-44.1c-17.3-10.5-39.9-8.5-56.2,4.5c-12.8,10.2-19.1,23.8-19.3,40.1
	c-0.2,11.1,0,22.3,0,33.4c0,41.3,0,82.6,0,123.8c0,1,0,2.1,0,3.3c-20.9,0-41.6,0-62.5,0c0-1.2,0-2.2,0-3.2c0-52,0-104,0-156
	c0-7.8-1.3-15.4-4.6-22.5c-8.1-17.3-21.6-27.4-40.5-29.7c-22.3-2.7-44.4,11.1-52.5,32.1c-2.1,5.5-3.2,11.2-3.5,17.1
	c-0.1,3.2-0.1,6.5-0.1,9.7c0,49.8,0,99.6,0,149.4c0,1,0,1.9,0,3c-0.9,0.1-1.5,0.2-2.1,0.2c-19.6,0-39.2,0-58.8,0
	c-0.6,0-1.3-0.1-1.9-0.2C60.8,301.4,60.8,212.3,60.8,123.3z"/>
</svg>
