<svg width="200" height="200" viewBox="0 0 200 200" fill="none" xmlns="http://www.w3.org/2000/svg">
<rect width="200" height="200" fill="white"/>
<path d="M199.722 99.9243C199.782 109.916 198.244 119.731 195.347 129.309C194.756 131.379 194.106 132.325 191.918 130.728C189.316 128.836 186.538 127.181 183.818 125.525C182.576 124.757 182.103 124.047 182.517 122.451C187.011 105.186 186.892 87.9811 180.566 71.1896C168.859 40.3856 146.747 21.1701 114.169 15.4941C76.9795 8.99039 41.8593 26.7869 23.9445 60.0151C3.90125 97.1454 15.5488 145.332 50.2551 169.632C66.3961 180.925 84.1927 186.424 103.763 185.36C131.197 183.881 153.191 171.82 169.51 149.589C171.343 147.047 173.116 144.504 174.594 141.725C175.363 140.247 176.073 139.893 177.551 140.898C180.211 142.731 182.931 144.504 185.71 146.101C187.306 147.047 187.602 147.697 186.597 149.471C175.304 169.041 159.222 183.468 138.41 191.982C111.154 203.156 83.6014 202.801 56.9953 189.971C26.9008 175.427 7.86261 151.363 1.89101 118.43C-4.84921 81.1817 6.50274 49.4909 34.7644 24.2446C50.0186 10.5868 68.1699 2.90054 88.5088 0.653797C111.39 -1.82944 132.852 2.72317 152.482 14.962C174.831 28.9746 189.435 48.8405 196.471 74.2641C198.776 82.6598 199.722 91.2329 199.722 99.9243Z" fill="#078DCD"/>
<path d="M45.4069 83.0737C45.0521 78.8759 44.6974 74.6189 42.9236 70.7166C42.8054 70.4801 42.8054 70.1845 42.6871 69.948C40.9725 66.1049 40.9725 66.1049 45.466 66.1049C51.615 66.1049 57.8231 66.164 63.972 66.0458C65.864 65.9867 66.5735 66.5188 66.4553 68.4699C66.337 69.8298 66.0414 71.3079 66.81 73.1407C72.2495 65.9867 79.6401 64.0355 87.9176 64.2129C96.6089 64.3903 102.699 68.7655 107.192 76.2152C111.449 70.7758 116.593 66.9326 123.156 65.3954C130.428 63.6808 137.76 63.3852 144.796 66.4597C153.723 70.3619 157.921 77.8116 159.577 87.0351C160.109 89.9322 160.168 92.8884 160.168 95.8446C160.168 109.089 160.109 122.392 160.227 135.636C160.227 137.587 159.872 138.355 157.685 138.296C152.245 138.119 146.806 138.119 141.366 138.296C139.297 138.355 139.001 137.587 139.001 135.754C139.06 123.338 139.06 110.862 139.06 98.4461C139.06 97.6184 139.06 96.7906 139.06 95.9629C138.942 84.6109 129.364 79.3488 119.49 85.1431C115.884 87.2716 114.465 90.6417 113.755 94.4848C113.4 96.5541 113.282 98.6826 113.282 100.811C113.223 112.4 113.223 124.047 113.282 135.636C113.282 137.528 112.986 138.414 110.799 138.355C105.182 138.178 99.5651 138.237 93.9483 138.355C92.3519 138.355 92.0563 138.06 92.0563 136.286C92.2337 123.279 92.2928 110.271 92.0563 97.3228C91.9972 93.4205 92.3519 88.9271 88.5088 86.0891C85.4934 83.8423 82.1233 82.9555 78.3394 83.665C76.2109 84.0788 74.0824 84.3744 72.1313 85.6752C67.6378 88.6906 66.81 93.2432 66.4553 98.0914C66.3962 99.8651 66.2188 100.043 66.2188 101.048C66.2188 112.518 66.1597 123.988 66.2779 135.458C66.2779 137.646 65.6867 138.296 63.499 138.237C57.7048 138.119 51.9106 138.237 46.1755 138.296C45.939 138.119 45.7025 137.882 45.466 137.705C45.5251 136.641 45.6434 135.517 45.6434 134.453C45.6434 118.962 45.6434 103.413 45.6434 87.9219C45.5842 86.1482 45.466 84.611 45.4069 83.0737Z" fill="#173E85"/>
</svg>
