<?xml version="1.0" encoding="utf-8"?>
<!-- Generator: Adobe Illustrator 25.3.1, SVG Export Plug-In . SVG Version: 6.00 Build 0)  -->
<!DOCTYPE svg PUBLIC "-//W3C//DTD SVG 1.1//EN" "http://www.w3.org/Graphics/SVG/1.1/DTD/svg11.dtd" [
	<!ENTITY ns_extend "http://ns.adobe.com/Extensibility/1.0/">
	<!ENTITY ns_ai "http://ns.adobe.com/AdobeIllustrator/10.0/">
	<!ENTITY ns_graphs "http://ns.adobe.com/Graphs/1.0/">
	<!ENTITY ns_vars "http://ns.adobe.com/Variables/1.0/">
	<!ENTITY ns_imrep "http://ns.adobe.com/ImageReplacement/1.0/">
	<!ENTITY ns_sfw "http://ns.adobe.com/SaveForWeb/1.0/">
	<!ENTITY ns_custom "http://ns.adobe.com/GenericCustomNamespace/1.0/">
	<!ENTITY ns_adobe_xpath "http://ns.adobe.com/XPath/1.0/">
]>
<svg version="1.1" id="Layer_1" xmlns:x="&ns_extend;" xmlns:i="&ns_ai;" xmlns:graph="&ns_graphs;"
	 xmlns="http://www.w3.org/2000/svg" xmlns:xlink="http://www.w3.org/1999/xlink" x="0px" y="0px" viewBox="0 0 512 512"
	 style="enable-background:new 0 0 512 512;" xml:space="preserve">
<style type="text/css">
	.st0{fill:#294AA9;}
	.st1{fill:#D70818;}
</style>
<metadata>
	<sfw  xmlns="&ns_sfw;">
		<slices></slices>
		<sliceSourceBounds  bottomLeftOrigin="true" height="510" width="511.3" x="0.6" y="1.4"></sliceSourceBounds>
	</sfw>
</metadata>
<rect x="0.6" y="0.6" class="st0" width="511.3" height="510"/>
<g>
	<path class="st1" d="M109.9,86.7h82.8c0.4,0.9,1.1,2.8,1.5,3.8c-12.3,110.5-24,221.1-36.4,331.6c0.3,0.8,1,2.4,1.3,3.2H72.7
		c1.5-28.4,5.9-56.6,8.6-84.9c8.7-80.1,17.5-160.1,26.2-240.2C107.9,95.6,108.3,91,109.9,86.7"/>
	<path class="st1" d="M323.5,86.7h68.9c16.3,112.7,31.2,225.7,46.9,338.5h-89.9c-6.7-46.6-13.7-93.1-19.6-139.8
		c-0.8,1.3-2.4,3.9-3.2,5.3c-19.6,40.2-39.1,80.5-58.7,120.7c-2.2,4.5-4.6,8.9-5.9,13.8h-2.3c-0.2-6.7-4.2-12.2-6.7-18.1
		c-18.4-40-37.2-79.8-55.4-119.9c5.3-56.8,12.5-113.5,17-170.4c6.2,11.1,10.6,23.1,16.2,34.5c10,22.6,20.9,44.8,30.2,67.6
		c19.8-42,39.4-84.1,59.1-126.1C321.1,90.8,322.2,88.7,323.5,86.7"/>
</g>
</svg>
