<?xml version="1.0" encoding="utf-8"?>
<!-- Generator: Adobe Illustrator 25.3.1, SVG Export Plug-In . SVG Version: 6.00 Build 0)  -->
<!DOCTYPE svg PUBLIC "-//W3C//DTD SVG 1.1//EN" "http://www.w3.org/Graphics/SVG/1.1/DTD/svg11.dtd" [
	<!ENTITY ns_extend "http://ns.adobe.com/Extensibility/1.0/">
	<!ENTITY ns_ai "http://ns.adobe.com/AdobeIllustrator/10.0/">
	<!ENTITY ns_graphs "http://ns.adobe.com/Graphs/1.0/">
	<!ENTITY ns_vars "http://ns.adobe.com/Variables/1.0/">
	<!ENTITY ns_imrep "http://ns.adobe.com/ImageReplacement/1.0/">
	<!ENTITY ns_sfw "http://ns.adobe.com/SaveForWeb/1.0/">
	<!ENTITY ns_custom "http://ns.adobe.com/GenericCustomNamespace/1.0/">
	<!ENTITY ns_adobe_xpath "http://ns.adobe.com/XPath/1.0/">
]>
<svg version="1.1" id="Layer_1" xmlns:x="&ns_extend;" xmlns:i="&ns_ai;" xmlns:graph="&ns_graphs;"
	 xmlns="http://www.w3.org/2000/svg" xmlns:xlink="http://www.w3.org/1999/xlink" x="0px" y="0px" viewBox="0 0 512 512"
	 style="enable-background:new 0 0 512 512;" xml:space="preserve">
<style type="text/css">
	.st0{fill:#C60052;}
	.st1{fill:#FFFFFF;}
</style>
<metadata>
	<sfw  xmlns="&ns_sfw;">
		<slices></slices>
		<sliceSourceBounds  bottomLeftOrigin="true" height="512" width="513.5" x="0" y="0"></sliceSourceBounds>
	</sfw>
</metadata>
<rect class="st0" width="513.5" height="512"/>
<path class="st1" d="M282,374.1l-94.7-222C157.9,83.8,116.4,55.9,83.5,48c-14.7-5.1-57.3-1.6-57.3-1.6s32.1,1.6,49.7,15
	c24.7,16.1,40,53.8,33.1,104.8l-30,222c-4,27.2-12,72-12,72h43.1c0,0,2.7-34.2,6.7-65l28.7-216.5l95.7,227.1
	c12.1,28.2,19.1,41.8,44.3,60.9l112.8-288.5L427,420.9c1.6,17.1,2.9,39.3,2.9,39.3h55.8c0,0-4.9-29.2-7.9-52.9l-33.2-247.2
	c-1-11.6-2.4-31.2-2.4-31.2h-69.1v0.5c0,10.6-3.5,20.6-7.6,31.2L282,374.1z"/>
</svg>
