<svg width="200" height="200" viewBox="0 0 200 200" fill="none" xmlns="http://www.w3.org/2000/svg">
<rect width="200" height="200" fill="white"/>
<path fill-rule="evenodd" clip-rule="evenodd" d="M33.5644 36.8728H0V166.206H35.9072V91.666C35.9072 66.5644 53.2632 61.9266 60.2438 61.9266C82.2376 61.9266 82.2376 78.1351 82.2376 92.431V93.961V166.541H118.145V94.0088C118.145 77.8004 122.018 61.2094 142.481 61.2094C162.945 61.2094 164.475 75.1229 164.475 92.4788V165.823H200V78.9479C200 45.3835 180.301 33 152.522 33C133.588 33 120.488 43.8056 112.742 54.9938C105.809 39.5503 90.7483 33 74.5398 33C57.9488 33 44.0354 40.6978 34.7597 53.8463H33.6122V36.8728H33.5644Z" fill="#BAD606"/>
</svg>
