<?xml version="1.0" encoding="utf-8"?>
<!-- Generator: Adobe Illustrator 25.3.1, SVG Export Plug-In . SVG Version: 6.00 Build 0)  -->
<!DOCTYPE svg PUBLIC "-//W3C//DTD SVG 1.1//EN" "http://www.w3.org/Graphics/SVG/1.1/DTD/svg11.dtd" [
	<!ENTITY ns_extend "http://ns.adobe.com/Extensibility/1.0/">
	<!ENTITY ns_ai "http://ns.adobe.com/AdobeIllustrator/10.0/">
	<!ENTITY ns_graphs "http://ns.adobe.com/Graphs/1.0/">
	<!ENTITY ns_vars "http://ns.adobe.com/Variables/1.0/">
	<!ENTITY ns_imrep "http://ns.adobe.com/ImageReplacement/1.0/">
	<!ENTITY ns_sfw "http://ns.adobe.com/SaveForWeb/1.0/">
	<!ENTITY ns_custom "http://ns.adobe.com/GenericCustomNamespace/1.0/">
	<!ENTITY ns_adobe_xpath "http://ns.adobe.com/XPath/1.0/">
]>
<svg version="1.1" id="Layer_1" xmlns:x="&ns_extend;" xmlns:i="&ns_ai;" xmlns:graph="&ns_graphs;"
	 xmlns="http://www.w3.org/2000/svg" xmlns:xlink="http://www.w3.org/1999/xlink" x="0px" y="0px" viewBox="0 0 512 512"
	 style="enable-background:new 0 0 512 512;" xml:space="preserve">
<style type="text/css">
	.st0{fill:#E34B5F;}
	.st1{fill:#E7CE9C;}
	.st2{fill:#1E7889;}
	.st3{fill:#97BAA6;}
</style>
<metadata>
	<sfw  xmlns="&ns_sfw;">
		<slices></slices>
		<sliceSourceBounds  bottomLeftOrigin="true" height="387.6" width="423.4" x="44.3" y="62.2"></sliceSourceBounds>
	</sfw>
</metadata>
<g>
	<path class="st0" d="M467.4,345.9c-0.9,4-2.6,8.1-5.5,11.3l-89.2,89.2c-1.4,3.2-5.2,4.3-8.4,2.9c-3.2-1.4-4.3-5.2-2.9-8.4V246
		l105.9-105.9L467.4,345.9L467.4,345.9z"/>
	<path class="st1" d="M395,67.7c0-3.2-2.6-5.5-5.5-5.5c-3.2,0-5.5,2.6-5.5,5.5L255.9,201.3v150.4l105.9-105.9l105.9-105.9L395,67.7z
		"/>
	<path class="st2" d="M44.3,345.9c0.9,4,2.6,8.1,5.5,11.3l89.2,89.2c1.4,3.2,5.2,4.3,8.4,2.9c3.2-1.4,4.3-5.2,2.9-8.4V246
		L44.3,140.1V345.9z"/>
	<path class="st3" d="M127.7,67.7c0-3.2-2.6-5.5-5.5-5.5c-3.2,0-5.5,2.6-5.5,5.5l-72.4,72.4L150.2,246l105.6,105.6V201.3L127.7,67.7
		z"/>
</g>
</svg>
