<?xml version="1.0" encoding="utf-8"?>
<!-- Generator: Adobe Illustrator 25.3.1, SVG Export Plug-In . SVG Version: 6.00 Build 0)  -->
<!DOCTYPE svg PUBLIC "-//W3C//DTD SVG 1.1//EN" "http://www.w3.org/Graphics/SVG/1.1/DTD/svg11.dtd" [
	<!ENTITY ns_extend "http://ns.adobe.com/Extensibility/1.0/">
	<!ENTITY ns_ai "http://ns.adobe.com/AdobeIllustrator/10.0/">
	<!ENTITY ns_graphs "http://ns.adobe.com/Graphs/1.0/">
	<!ENTITY ns_vars "http://ns.adobe.com/Variables/1.0/">
	<!ENTITY ns_imrep "http://ns.adobe.com/ImageReplacement/1.0/">
	<!ENTITY ns_sfw "http://ns.adobe.com/SaveForWeb/1.0/">
	<!ENTITY ns_custom "http://ns.adobe.com/GenericCustomNamespace/1.0/">
	<!ENTITY ns_adobe_xpath "http://ns.adobe.com/XPath/1.0/">
]>
<svg version="1.1" id="Слой_1" xmlns:x="&ns_extend;" xmlns:i="&ns_ai;" xmlns:graph="&ns_graphs;"
	 xmlns="http://www.w3.org/2000/svg" xmlns:xlink="http://www.w3.org/1999/xlink" x="0px" y="0px" viewBox="0 0 256 256"
	 style="enable-background:new 0 0 256 256;" xml:space="preserve">
<style type="text/css">
	.st0{clip-path:url(#SVGID_2_);fill:#366FB6;}
	.st1{clip-path:url(#SVGID_2_);fill:#010102;}
</style>
<metadata>
	<sfw  xmlns="&ns_sfw;">
		<slices></slices>
		<sliceSourceBounds  bottomLeftOrigin="true" height="240.6" width="250.5" x="2.7" y="7.7"></sliceSourceBounds>
	</sfw>
</metadata>
<g>
	<defs>
		<rect id="SVGID_1_" x="2.7" y="7.7" width="250.5" height="240.6"/>
	</defs>
	<clipPath id="SVGID_2_">
		<use xlink:href="#SVGID_1_"  style="overflow:visible;"/>
	</clipPath>
	<path class="st0" d="M54.2,7.7h159.6c11.2,0,20.4,9.7,20.4,21.6v10.3c0,14.6-19.7,14.5-19.7,0.1v-5.6c0-3.6-2.9-6.6-6.6-6.6H48
		c-3.6,0-6.6,2.9-6.6,6.6v5.5c0,14.5-18.8,14.4-18.8,0.3V29.3c0-11.9,9.2-21.6,20.4-21.6H54.2z M127.3,248.3h103.5
		c23.6,0,23.9-25.1,21.4-37.5c-1.3-8.3-15.5-8.2-17,0v9.7c0,4.4-3.6,8-8,8H28.8c-4.4,0-8-3.6-8-8v-9.7c-1.5-8.2-15.7-8.3-17,0
		c-2.4,12.4-2.2,37.5,21.4,37.5H127.3z"/>
	<path class="st1" d="M191.3,118.2h16.5V118c7.6-1.2,13.3-7.8,13.3-15.5c0-8.6-7-15.7-15.7-15.7h-33.2v82.1h42.1
		c9,0.3,16.4-6.7,16.7-15.7c0.3-9-6.7-16.4-15.7-16.7c-0.3,0-0.7,0-1,0h-6.6h-16.5c-5,0-9.1-4.1-9.1-9.1
		C182.2,122.3,186.3,118.2,191.3,118.2 M230.1,126.2c11.2,5,18.5,16,18.7,28.3c0,17.4-15.1,31.6-33.7,31.6h-52
		c-4.7,0.1-8.6-3.5-8.8-8.2V78.9c0-4.8,3.9-8.7,8.7-8.7h43.3c18.2,0,33.1,14.7,33.1,33C239.4,111.8,236.1,120.1,230.1,126.2"/>
	<path class="st1" d="M146,176.2c0.8,5.7-3.1,11-8.8,11.8c-5.7,0.8-11-3.1-11.8-8.8c0-0.3-0.1-0.5-0.1-0.8l-8.6-78.6l-30.2,76.9v0.2
		v0.2v0.1v0.1v0.1v0.2c-0.7,1.1-1.5,2.2-2.6,3l-0.2,0.1c-0.6,0.5-1.2,0.9-1.8,1.3l-0.2,0.1l-0.2,0.1h-0.1h-0.1h-0.1H81h-0.1h-0.1
		h-0.1h-0.1h-0.1c-1,0.4-2,0.6-3.1,0.6h-0.7c-1.2,0-2.3-0.3-3.4-0.7h-0.1H73h-0.1h-0.1h-0.1h-0.1h-0.1l-0.2-0.1l-0.2-0.1H72
		c-0.6-0.3-1.1-0.7-1.7-1.1l-0.3-0.3l-0.3-0.2l-0.6-0.2l-0.3-0.3c-0.4-0.5-0.8-1.1-1.1-1.7V178l-0.1-0.2l-0.1-0.2v-0.1v-0.1v-0.1
		v-0.1V177v-0.1L36.7,99.8l-8.5,78.6c-0.6,5.7-5.7,9.9-11.5,9.2c-5.7-0.6-9.9-5.7-9.3-11.5l10.1-92.7c0.3-2.2,0.9-4.3,1.9-6.2
		c2.6-4.9,7.5-8.3,13-9H33c0.9-0.1,1.8-0.1,2.6,0c1.1,0,2.1,0.2,3.2,0.4c5.5,1.3,10.1,5.2,12.1,10.5l25.8,65.3L102.5,79
		c2.5-6.3,8.5-10.6,15.3-10.9c0.9-0.1,1.8-0.1,2.6,0h0.6c5.5,0.7,10.4,4.1,13,9c0.5,1,0.9,2,1.3,3c0.3,1.1,0.6,2.2,0.7,3.3
		L146,176.2z"/>
</g>
</svg>
