<?xml version="1.0" encoding="utf-8"?>
<!-- Generator: Adobe Illustrator 25.3.1, SVG Export Plug-In . SVG Version: 6.00 Build 0)  -->
<!DOCTYPE svg PUBLIC "-//W3C//DTD SVG 1.1//EN" "http://www.w3.org/Graphics/SVG/1.1/DTD/svg11.dtd" [
	<!ENTITY ns_extend "http://ns.adobe.com/Extensibility/1.0/">
	<!ENTITY ns_ai "http://ns.adobe.com/AdobeIllustrator/10.0/">
	<!ENTITY ns_graphs "http://ns.adobe.com/Graphs/1.0/">
	<!ENTITY ns_vars "http://ns.adobe.com/Variables/1.0/">
	<!ENTITY ns_imrep "http://ns.adobe.com/ImageReplacement/1.0/">
	<!ENTITY ns_sfw "http://ns.adobe.com/SaveForWeb/1.0/">
	<!ENTITY ns_custom "http://ns.adobe.com/GenericCustomNamespace/1.0/">
	<!ENTITY ns_adobe_xpath "http://ns.adobe.com/XPath/1.0/">
]>
<svg version="1.1" id="Layer_1" xmlns:x="&ns_extend;" xmlns:i="&ns_ai;" xmlns:graph="&ns_graphs;"
	 xmlns="http://www.w3.org/2000/svg" xmlns:xlink="http://www.w3.org/1999/xlink" x="0px" y="0px" viewBox="0 0 512 512"
	 style="enable-background:new 0 0 512 512;" xml:space="preserve">
<style type="text/css">
	.st0{fill:#23292F;}
	.st1{fill:#FFFFFF;}
</style>
<metadata>
	<sfw  xmlns="&ns_sfw;">
		<slices></slices>
		<sliceSourceBounds  bottomLeftOrigin="true" height="511.3" width="511.3" x="0.7" y="-0.1"></sliceSourceBounds>
	</sfw>
</metadata>
<rect x="0.7" y="0.8" class="st0" width="511.3" height="511.3"/>
<g>
	<g>
		<g>
			<path class="st1" d="M359.5,182.3H357L256.8,29.4c-0.3-0.4-0.7-0.7-1.2-0.7l0,0c-0.5,0-1,0.3-1.2,0.7l-99.4,152.9h-2.5
				c-0.8,0-1.5,0.7-1.5,1.5l0,0v9c0,0.8,0.7,1.5,1.5,1.5l0,0h1.8v289h203.5v-289h1.8c0.8,0,1.5-0.7,1.5-1.5l0,0v-9
				C361,183,360.4,182.3,359.5,182.3C359.6,182.3,359.6,182.3,359.5,182.3z M255.6,32.9l97.9,149.4h-195L255.6,32.9z M173.5,480.3
				h-16.3V353.8h16.3V480.3z M218.2,371.2v109.1h-41.7V353.8h41.7V371.2z M276.8,480.3h-42.7v-96.8h42.7V480.3z M290,480.3h-10.2
				V382c0-0.8-0.7-1.5-1.5-1.5l0,0h-45.6c-0.8,0-1.5,0.7-1.5,1.5l0,0v98.3h-10V372.7H290L290,480.3z M290,301.5v68.2h-68.9v-74.4
				H290L290,301.5z M290,292.3h-68.9v-86.1H290L290,292.3z M334.7,480.3H293V353.8h41.7L334.7,480.3z M354.8,480.3h-17.1V353.8h17.1
				V480.3z M354.8,350.8H293V204.7c0-0.8-0.7-1.5-1.5-1.5l0,0h-71.8c-0.8,0-1.5,0.7-1.5,1.5l0,0v146.1h-61V194.3h197.5L354.8,350.8z
				 M358.1,191.3H153.9v-6.1h204.1V191.3z"/>
			<path class="st1" d="M232.7,284.7h19.1c0.8,0,1.5-0.7,1.5-1.5l0,0v-67.9c0-0.8-0.7-1.5-1.5-1.5l0,0h-19.1c-0.8,0-1.5,0.7-1.5,1.5
				l0,0v67.9C231.2,284.1,231.9,284.7,232.7,284.7L232.7,284.7z M234.2,216.9h16.1v64.9h-16.1L234.2,216.9z"/>
			<path class="st1" d="M259.4,284.7h19c0.8,0,1.5-0.7,1.5-1.5l0,0v-67.9c0-0.8-0.7-1.5-1.5-1.5l0,0h-19c-0.8,0-1.5,0.7-1.5,1.5l0,0
				v67.9C257.9,284.1,258.5,284.7,259.4,284.7L259.4,284.7z M260.8,216.9h16v64.9h-16V216.9z"/>
			<path class="st1" d="M270.7,311.1c-2.7,4.2-8.4,5.4-12.6,2.7c-1.1-0.7-2-1.6-2.7-2.7c-2.7,4.2-8.4,5.4-12.6,2.7
				c-1.1-0.7-2-1.6-2.7-2.7c-5,0-9.1,4.1-9.1,9.1v41.1c0,0.8,0.7,1.5,1.5,1.5h45.6c0.8,0,1.5-0.6,1.5-1.4c0,0,0,0,0-0.1v-41.1
				C279.8,315.2,275.7,311.1,270.7,311.1C270.7,311.1,270.7,311.1,270.7,311.1z M246.4,320.2v39.6h-12.2v-39.6
				c0.1-3.4,2.9-6,6.3-5.9C243.7,314.3,246.3,316.9,246.4,320.2L246.4,320.2z M261.6,359.8h-12.2v-39.6c-0.1-3.4,2.5-6.2,5.9-6.3
				c3.4-0.1,6.2,2.5,6.3,5.9c0,0.1,0,0.3,0,0.4V359.8z M276.8,359.8h-12.2v-39.6c-0.1-3.4,2.5-6.2,5.9-6.3c3.4-0.1,6.2,2.5,6.3,5.9
				c0,0.1,0,0.3,0,0.4V359.8z"/>
			<path class="st1" d="M251.8,123.4h-32.1c-0.8,0-1.5,0.7-1.5,1.5l0,0v48.4c0,0.8,0.7,1.5,1.5,1.5l0,0h32.1c0.8,0,1.5-0.7,1.5-1.5
				l0,0v-48.4C253.3,124,252.6,123.4,251.8,123.4L251.8,123.4z M250.3,171.8h-29.2v-45.4h29.2V171.8z"/>
			<path class="st1" d="M165.1,284.7h43.5c0.8,0,1.5-0.7,1.5-1.5l0,0v-67.9c0-0.8-0.7-1.5-1.5-1.5l0,0h-43.5c-0.8,0-1.5,0.7-1.5,1.5
				l0,0v67.9C163.6,284.1,164.2,284.7,165.1,284.7L165.1,284.7z M166.5,216.9H207v64.9h-40.5V216.9z"/>
			<path class="st1" d="M303.1,284.7h43.3c0.8,0,1.5-0.7,1.5-1.5l0,0v-67.9c0-0.8-0.7-1.5-1.5-1.5l0,0h-43.3c-0.8,0-1.5,0.7-1.5,1.5
				l0,0v67.9C301.6,284.1,302.3,284.7,303.1,284.7L303.1,284.7z M304.6,216.9H345v64.9h-40.4V216.9z"/>
			<path class="st1" d="M303.1,342.4h33c0.8,0,1.5-0.7,1.5-1.5l0,0v-47.1c0-0.8-0.7-1.5-1.5-1.5l0,0h-33c-0.8,0-1.5,0.7-1.5,1.5l0,0
				v47.1C301.6,341.7,302.3,342.4,303.1,342.4L303.1,342.4z M304.6,295.3h30v44.1h-30V295.3z"/>
			<path class="st1" d="M291.5,123.4h-32.1c-0.8,0-1.5,0.7-1.5,1.5l0,0v48.4c0,0.8,0.7,1.5,1.5,1.5l0,0h32.1c0.8,0,1.5-0.7,1.5-1.5
				l0,0v-48.4C293,124,292.3,123.4,291.5,123.4L291.5,123.4z M290,171.8h-29.2v-45.4H290V171.8z"/>
			<path class="st1" d="M322.1,471.9c0.8,0,1.5-0.7,1.5-1.5V364.2c0-0.8-0.7-1.5-1.5-1.5c-0.8,0-1.5,0.7-1.5,1.5v106.2
				C320.6,471.2,321.2,471.9,322.1,471.9C322.1,471.9,322.1,471.9,322.1,471.9z"/>
			<path class="st1" d="M306.1,471.9c0.8,0,1.5-0.7,1.5-1.5V364.2c0-0.8-0.7-1.5-1.5-1.5c-0.8,0-1.5,0.7-1.5,1.5v106.2
				C304.6,471.2,305.2,471.9,306.1,471.9C306.1,471.9,306.1,471.9,306.1,471.9z"/>
			<path class="st1" d="M263.4,471.9c0.8,0,1.5-0.7,1.5-1.5v-76.1c0-0.8-0.7-1.5-1.5-1.5c-0.8,0-1.5,0.7-1.5,1.5v76.1
				C262,471.2,262.6,471.9,263.4,471.9C263.4,471.9,263.4,471.9,263.4,471.9z"/>
			<path class="st1" d="M247.7,471.9c0.8,0,1.5-0.7,1.5-1.5v-76.1c0-0.8-0.7-1.5-1.5-1.5c-0.8,0-1.5,0.7-1.5,1.5v76.1
				C246.2,471.2,246.9,471.9,247.7,471.9C247.7,471.9,247.7,471.9,247.7,471.9z"/>
			<path class="st1" d="M165.1,471.9c0.8,0,1.5-0.7,1.5-1.5V364.2c0-0.8-0.7-1.5-1.5-1.5c-0.8,0-1.5,0.7-1.5,1.5l0,0v106.2
				C163.6,471.2,164.2,471.9,165.1,471.9C165,471.9,165.1,471.9,165.1,471.9z"/>
			<path class="st1" d="M346.4,471.9c0.8,0,1.5-0.7,1.5-1.5V364.2c0-0.8-0.7-1.5-1.5-1.5c-0.8,0-1.5,0.7-1.5,1.5v106.2
				C344.9,471.2,345.6,471.9,346.4,471.9C346.4,471.9,346.4,471.9,346.4,471.9z"/>
			<path class="st1" d="M346.4,292.3c-0.8,0-1.5,0.7-1.5,1.5l0,0v47.1c0,0.8,0.7,1.5,1.5,1.5c0.8,0,1.5-0.7,1.5-1.5l0,0v-47.1
				C347.9,293,347.3,292.3,346.4,292.3C346.5,292.3,346.5,292.3,346.4,292.3z"/>
			<path class="st1" d="M208.5,292.3H175c-0.8,0-1.5,0.7-1.5,1.5l0,0v47.1c0,0.8,0.7,1.5,1.5,1.5l0,0h33.5c0.8,0,1.5-0.7,1.5-1.5
				l0,0v-47.1C210,293,209.3,292.3,208.5,292.3L208.5,292.3z M207,339.4h-30.5v-44.1H207L207,339.4z"/>
			<path class="st1" d="M165.1,342.4c0.8,0,1.5-0.7,1.5-1.5l0,0v-47.1c0-0.8-0.7-1.5-1.5-1.5c-0.8,0-1.5,0.7-1.5,1.5v47.1
				C163.6,341.7,164.2,342.4,165.1,342.4C165.1,342.4,165.1,342.4,165.1,342.4z"/>
			<path class="st1" d="M232.7,305h45.6c0.8,0,1.5-0.7,1.5-1.5c0-0.8-0.7-1.5-1.5-1.5h-45.6c-0.8,0-1.5,0.7-1.5,1.5
				C231.2,304.3,231.8,305,232.7,305z"/>
			<path class="st1" d="M205.6,471.9c0.8,0,1.5-0.7,1.5-1.5V364.2c0-0.8-0.7-1.5-1.5-1.5c-0.8,0-1.5,0.7-1.5,1.5l0,0v106.2
				C204.1,471.2,204.8,471.9,205.6,471.9C205.6,471.9,205.6,471.9,205.6,471.9z"/>
			<path class="st1" d="M189.1,471.9c0.8,0,1.5-0.7,1.5-1.5V364.2c0-0.8-0.7-1.5-1.5-1.5c-0.8,0-1.5,0.7-1.5,1.5l0,0v106.2
				C187.6,471.2,188.2,471.9,189.1,471.9C189,471.9,189,471.9,189.1,471.9z"/>
		</g>
	</g>
</g>
</svg>
