<?xml version="1.0" encoding="utf-8"?>
<!-- Generator: Adobe Illustrator 25.3.1, SVG Export Plug-In . SVG Version: 6.00 Build 0)  -->
<!DOCTYPE svg PUBLIC "-//W3C//DTD SVG 1.1//EN" "http://www.w3.org/Graphics/SVG/1.1/DTD/svg11.dtd" [
	<!ENTITY ns_extend "http://ns.adobe.com/Extensibility/1.0/">
	<!ENTITY ns_ai "http://ns.adobe.com/AdobeIllustrator/10.0/">
	<!ENTITY ns_graphs "http://ns.adobe.com/Graphs/1.0/">
	<!ENTITY ns_vars "http://ns.adobe.com/Variables/1.0/">
	<!ENTITY ns_imrep "http://ns.adobe.com/ImageReplacement/1.0/">
	<!ENTITY ns_sfw "http://ns.adobe.com/SaveForWeb/1.0/">
	<!ENTITY ns_custom "http://ns.adobe.com/GenericCustomNamespace/1.0/">
	<!ENTITY ns_adobe_xpath "http://ns.adobe.com/XPath/1.0/">
]>
<svg version="1.1" id="Layer_1" xmlns:x="&ns_extend;" xmlns:i="&ns_ai;" xmlns:graph="&ns_graphs;"
	 xmlns="http://www.w3.org/2000/svg" xmlns:xlink="http://www.w3.org/1999/xlink" x="0px" y="0px" viewBox="0 0 512 512"
	 style="enable-background:new 0 0 512 512;" xml:space="preserve">
<style type="text/css">
	.st0{fill:#DE0029;}
</style>
<metadata>
	<sfw  xmlns="&ns_sfw;">
		<slices></slices>
		<sliceSourceBounds  bottomLeftOrigin="true" height="401.6" width="478.2" x="16.9" y="55.2"></sliceSourceBounds>
	</sfw>
</metadata>
<g id="layer1" transform="translate(-91.531592,-246.21506)">
	<g id="g3045" transform="matrix(0.9829486,0,0,0.9829486,6.6781766,5.2920079)">
		<path id="path2456" class="st0" d="M514.9,480.1c1.6,6.7,2.6,13.6,2.6,20.7c0,43-30.4,78.6-70.9,87.2
			c-22.6-46.1-62.6-62.7-97.1-62.7c-0.2-0.7-0.4-1.3-0.7-1.9c-5.1-13.9-12.1-33.8-1.3-61.6c14.5-29.8,44.9-50.6,80.3-50.6
			c23.1,0,44,9,59.9,23.4l-79.3-133.4H287l-80.4,133.6c15.9-14.5,36.9-23.6,60.2-23.6c29.3,0,55,14.3,71.3,36.2
			c-18.4,37.6-8.6,65.5-2.9,81c0.8,2.4,1.6,4.4,2.2,6.2l0.8,2.6c-15.9,35-52.5,53.2-84.6,51.7c-0.5-0.1-1-0.1-1.5-0.2
			c-1.8-0.1-3.5-0.5-5.3-0.8c-39.8-9.1-69.6-44.5-69.6-87.1c0-7.8,1.3-15.2,3.2-22.3l-76.9,127.8l62.7,103.4h156.2
			c-36.7-11.2-63.6-44.9-63.6-85.3c0-7.4,1.2-14.5,2.9-21.4c36.3-1.7,75.1-23.6,91.3-63.3c19.4,0.8,55.9,8.3,78.3,50.3
			c-0.1,0-0.2,0.1-0.3,0.1c4.4,10.6,6.9,22.2,6.9,34.3c0,40.4-26.9,74.1-63.6,85.3h152.8L590,606.4L514.9,480.1"/>
	</g>
</g>
</svg>
