<svg width="200" height="200" viewBox="0 0 200 200" fill="none" xmlns="http://www.w3.org/2000/svg">
<rect width="200" height="200" fill="white"/>
<path d="M137.749 89.6918C130.039 89.6147 126.446 94.0479 126.446 94.0479C124.133 96.5305 125.606 99.8843 127.895 100.131C131.195 100.478 131.164 97.7178 136.222 96.4919C140.663 95.4125 140.848 99.5296 140.848 99.5296C121.913 99.0593 122.815 114.95 129.283 118.319C135.451 121.557 141.241 117.471 141.241 117.471C141.241 117.471 141.457 119.676 144.518 119.676C148.018 119.676 148.011 116.183 148.011 116.183V100.717C147.749 89.3988 137.749 89.6918 137.749 89.6918ZM136.261 112.051C136.261 112.051 131.303 113.091 131.38 109.529C131.457 105.967 140.401 106.199 141.326 106.484C141.303 106.484 141.581 110.509 136.261 112.058V112.051Z" fill="#1B4B68"/>
<path d="M198.889 113.431L191.179 101.812L196.853 96.4148C196.853 96.4148 199.467 93.9939 197.316 91.5884C194.933 88.9285 192.096 91.5884 192.096 91.5884L184.972 98.2113V84.9193C184.994 84.4525 184.921 83.9861 184.758 83.5483C184.595 83.1104 184.344 82.7103 184.021 82.3722C183.699 82.034 183.311 81.7648 182.881 81.5809C182.452 81.397 181.989 81.3021 181.522 81.3021C181.055 81.3021 180.592 81.397 180.163 81.5809C179.733 81.7648 179.345 82.034 179.023 82.3722C178.7 82.7103 178.449 83.1104 178.286 83.5483C178.123 83.9861 178.05 84.4525 178.072 84.9193V116.175C178.114 117.062 178.496 117.899 179.138 118.512C179.78 119.124 180.634 119.466 181.522 119.466C182.41 119.466 183.264 119.124 183.906 118.512C184.548 117.899 184.93 117.062 184.972 116.175V107.849L186.275 106.546L193.253 117.494C193.253 117.494 195.566 121.295 198.881 118.874C201.394 117.07 198.889 113.431 198.889 113.431Z" fill="#1B4B68"/>
<path d="M174.263 100.756C174.263 89.4605 164.842 87.8645 158.442 91.4496C158.166 90.6667 157.623 90.0063 156.907 89.585C156.192 89.1637 155.351 89.0085 154.532 89.1468C153.714 89.2851 152.97 89.7079 152.433 90.3408C151.896 90.9737 151.599 91.776 151.596 92.6061V116.175C151.574 116.653 151.648 117.129 151.815 117.577C151.983 118.024 152.239 118.433 152.569 118.778C152.898 119.124 153.295 119.399 153.734 119.587C154.173 119.775 154.646 119.872 155.123 119.872C155.601 119.872 156.073 119.775 156.513 119.587C156.952 119.399 157.348 119.124 157.678 118.778C158.007 118.433 158.264 118.024 158.431 117.577C158.598 117.129 158.673 116.653 158.65 116.175L158.604 100.285C159.268 99.5388 160.016 98.8713 160.832 98.2961C164.125 95.9831 167.27 96.7541 167.27 100.748L167.355 116.237C167.355 117.157 167.721 118.04 168.371 118.69C169.022 119.341 169.904 119.707 170.824 119.707C171.745 119.707 172.627 119.341 173.278 118.69C173.928 118.04 174.294 117.157 174.294 116.237L174.263 100.756Z" fill="#1B4B68"/>
<path d="M72.9082 120.123C73.3574 119.413 73.6784 118.631 73.8565 117.81L65.8921 96.9931C65.8921 96.9931 64.4504 92.9685 67.6346 91.7734C71.0038 90.509 72.2605 93.7317 72.4764 94.4025L77.5033 107.802L82.1293 94.4334C82.1293 94.4334 83.4477 90.2777 87.1253 91.758C90.2093 92.9839 88.6056 97.0624 88.6056 97.0624C88.6056 97.0624 83.9026 110.987 79.9551 121.094C77.6035 127.131 75.5835 127.725 73.286 128.288C70.202 129.059 64.3887 128.673 64.3887 124.841C64.3887 121.827 67.4727 121.642 68.8759 121.68C68.9298 121.711 71.8056 121.958 72.9082 120.123Z" fill="#00C0EE"/>
<path d="M54.412 85.1429L47.1338 105.189L39.2002 85.2663C39.2002 85.2663 38.0283 81.4807 34.7208 81.4807C30.8658 81.4807 31.0123 84.5184 30.9275 85.2663C30.8427 86.0141 30.9275 116.476 30.9275 116.476C30.9258 116.921 31.0168 117.361 31.1947 117.768C31.3725 118.176 31.6334 118.542 31.9605 118.843C32.2877 119.144 32.674 119.373 33.0948 119.517C33.5156 119.66 33.9617 119.714 34.4047 119.676C34.8495 119.719 35.2985 119.666 35.7215 119.522C36.1446 119.378 36.5321 119.145 36.8582 118.84C37.1843 118.534 37.4415 118.162 37.6127 117.75C37.7839 117.337 37.8651 116.892 37.851 116.445V100.362L43.6874 116.445C43.6874 116.445 44.5509 119.606 47.2494 119.529C49.9479 119.452 50.7266 116.445 50.7266 116.445L55.6147 100.393V116.445C55.6185 116.895 55.715 117.339 55.8982 117.75C56.0815 118.161 56.3475 118.529 56.6797 118.832C57.0118 119.135 57.403 119.367 57.8286 119.512C58.2543 119.657 58.7054 119.713 59.1536 119.676C59.5934 119.702 60.0339 119.638 60.448 119.487C60.862 119.337 61.2408 119.103 61.5609 118.8C61.881 118.497 62.1356 118.132 62.309 117.727C62.4824 117.322 62.5709 116.886 62.5691 116.445V85.3357C62.5691 85.3357 62.5691 81.5192 58.8529 81.5424C55.7689 81.5424 54.6047 84.503 54.4043 85.1815C54.402 85.2226 54.402 85.2637 54.4043 85.3048" fill="#00C0EE"/>
<path d="M199.999 131.965H93.5014V132.019C87.0451 139.577 78.4254 144.972 68.8058 147.477C59.1863 149.981 49.03 149.473 39.7081 146.022C30.3861 142.572 22.3472 136.344 16.6765 128.18C11.0058 120.016 7.9763 110.309 7.997 100.369C8.0177 90.4291 11.0876 80.7347 16.7922 72.5944C22.4969 64.4542 30.5616 58.2602 39.8979 54.8484C49.2342 51.4367 59.3924 50.9715 69.0015 53.5156C78.6105 56.0597 87.2077 61.4907 93.6325 69.0754H103.393C96.8726 59.3242 87.4766 51.8462 76.5107 47.6803C65.5448 43.5144 53.5537 42.8676 42.2033 45.8296C30.853 48.7917 20.707 55.2156 13.1752 64.2087C5.6434 73.2018 1.09975 84.3177 0.175545 96.0117C-0.748655 107.706 1.9925 119.397 8.01814 129.462C14.0438 139.527 23.0547 147.464 33.7989 152.173C44.543 156.881 56.4869 158.126 67.971 155.734C79.4552 153.342 89.9092 147.433 97.8806 138.827L195.373 138.727L199.999 131.965Z" fill="#00C0EE"/>
<path d="M118.273 99.2136C118.458 98.9592 120.802 97.0548 120.586 92.0048C120.216 81.766 111.334 81.8816 109.361 81.8277C106.192 81.7274 104.28 81.766 98.4666 81.8277C93.5553 81.8739 93.5862 86.338 93.5862 86.338V119.684H110.147C119.006 119.684 122.298 114.803 122.298 107.98C122.298 101.156 118.273 99.2136 118.273 99.2136ZM100.733 88.8746H109.877C111.705 88.9208 113.632 89.8923 113.632 92.6293C113.632 95.3663 111.951 96.384 109.877 96.384H100.764L100.733 88.8746ZM110.563 112.86H100.764V103.508H110.563C112.938 103.631 115.243 104.834 115.243 108.18C115.243 111.526 113.154 112.86 110.563 112.86Z" fill="#1B4B68"/>
</svg>
