<?xml version="1.0" encoding="utf-8"?>
<!-- Generator: Adobe Illustrator 25.3.1, SVG Export Plug-In . SVG Version: 6.00 Build 0)  -->
<!DOCTYPE svg PUBLIC "-//W3C//DTD SVG 1.1//EN" "http://www.w3.org/Graphics/SVG/1.1/DTD/svg11.dtd" [
	<!ENTITY ns_extend "http://ns.adobe.com/Extensibility/1.0/">
	<!ENTITY ns_ai "http://ns.adobe.com/AdobeIllustrator/10.0/">
	<!ENTITY ns_graphs "http://ns.adobe.com/Graphs/1.0/">
	<!ENTITY ns_vars "http://ns.adobe.com/Variables/1.0/">
	<!ENTITY ns_imrep "http://ns.adobe.com/ImageReplacement/1.0/">
	<!ENTITY ns_sfw "http://ns.adobe.com/SaveForWeb/1.0/">
	<!ENTITY ns_custom "http://ns.adobe.com/GenericCustomNamespace/1.0/">
	<!ENTITY ns_adobe_xpath "http://ns.adobe.com/XPath/1.0/">
]>
<svg version="1.1" id="Layer_1" xmlns:x="&ns_extend;" xmlns:i="&ns_ai;" xmlns:graph="&ns_graphs;"
	 xmlns="http://www.w3.org/2000/svg" xmlns:xlink="http://www.w3.org/1999/xlink" x="0px" y="0px" viewBox="0 0 512 512"
	 style="enable-background:new 0 0 512 512;" xml:space="preserve">
<style type="text/css">
	.st0{fill:#0000A0;}
</style>
<metadata>
	<sfw  xmlns="&ns_sfw;">
		<slices></slices>
		<sliceSourceBounds  bottomLeftOrigin="true" height="497.6" width="857.6" x="0.8" y="7.2"></sliceSourceBounds>
	</sfw>
</metadata>
<g>
	<path class="st0" d="M96.5,290.8L96.5,290.8c-17.4,0-31.9-14.5-31.9-31.9v-95.1c0-17.4,14.5-31.9,31.9-31.9l0,0
		c17.4,0,31.9,14.5,31.9,31.9v95.7C128.4,276.9,113.9,290.8,96.5,290.8z"/>
	<path class="st0" d="M492,287.9L492,287.9c-10.4,0-19.1-8.7-19.1-19.1v-25.5c0-10.4,8.7-19.1,19.1-19.1l0,0
		c10.4,0,19.1,8.7,19.1,19.1v25.5C511.2,279.2,502.5,287.9,492,287.9z"/>
	<path class="st0" d="M20,287.9L20,287.9c-10.4,0-19.1-8.7-19.1-19.1v-25.5c0-10.4,8.7-19.1,19.1-19.1l0,0
		c10.4,0,19.1,8.7,19.1,19.1v25.5C39.1,279.2,30.4,287.9,20,287.9z"/>
	<path class="st0" d="M415.5,380.1L415.5,380.1c-17.4,0-31.9-14.5-31.9-31.9v-95.1c0-17.4,14.5-31.9,31.9-31.9l0,0
		c17.4,0,31.9,14.5,31.9,31.9v95.7C447.4,366.2,432.9,380.1,415.5,380.1z"/>
	<g>
		<path class="st0" d="M200.3,364.5L200.3,364.5c-22,0-40-18-40-40V47.2c0-22,18-40,40-40l0,0c22,0,40,18,40,40v277.2
			C239.8,346.5,222.4,364.5,200.3,364.5z"/>
		<path class="st0" d="M311.7,504.8L311.7,504.8c-22,0-40-18-40-40V187.6c0-22,18-40,40-40l0,0c22,0,40,18,40,40v277.2
			C351.7,486.8,333.7,504.8,311.7,504.8z"/>
	</g>
</g>
</svg>
