<?xml version="1.0" encoding="utf-8"?>
<!-- Generator: Adobe Illustrator 25.3.1, SVG Export Plug-In . SVG Version: 6.00 Build 0)  -->
<!DOCTYPE svg PUBLIC "-//W3C//DTD SVG 1.1//EN" "http://www.w3.org/Graphics/SVG/1.1/DTD/svg11.dtd" [
	<!ENTITY ns_extend "http://ns.adobe.com/Extensibility/1.0/">
	<!ENTITY ns_ai "http://ns.adobe.com/AdobeIllustrator/10.0/">
	<!ENTITY ns_graphs "http://ns.adobe.com/Graphs/1.0/">
	<!ENTITY ns_vars "http://ns.adobe.com/Variables/1.0/">
	<!ENTITY ns_imrep "http://ns.adobe.com/ImageReplacement/1.0/">
	<!ENTITY ns_sfw "http://ns.adobe.com/SaveForWeb/1.0/">
	<!ENTITY ns_custom "http://ns.adobe.com/GenericCustomNamespace/1.0/">
	<!ENTITY ns_adobe_xpath "http://ns.adobe.com/XPath/1.0/">
]>
<svg version="1.1" id="Layer_1" xmlns:x="&ns_extend;" xmlns:i="&ns_ai;" xmlns:graph="&ns_graphs;"
	 xmlns="http://www.w3.org/2000/svg" xmlns:xlink="http://www.w3.org/1999/xlink" x="0px" y="0px" viewBox="0 0 512 512"
	 style="enable-background:new 0 0 512 512;" xml:space="preserve">
<style type="text/css">
	.st0{fill:#EE2425;}
</style>
<metadata>
	<sfw  xmlns="&ns_sfw;">
		<slices></slices>
		<sliceSourceBounds  bottomLeftOrigin="true" height="511" width="510.4" x="0.8" y="0.5"></sliceSourceBounds>
	</sfw>
</metadata>
<path class="st0" d="M370.5,27.4C458,69,525.1,175.6,508.8,291.9C489.1,431.4,360,528.7,220.5,509C80.9,489.4-16.1,360.3,3.2,220.7
	C19.6,102.3,115.8,12.8,238.4,0.5C93.2,54.2,38.2,186.9,39,194.4c0.4,3.8,2.1,15.5,5.5,25c3.5,9.6,12.2,23.2,12.2,23.2
	S99.1,65.7,273.2,0.7c4.3,0.5,8,0.7,10.2,1c-156.2,66-203.6,263.9-203.6,267c0,1.5,7.9,12.1,14.3,18.7c7.6,7.9,22.1,17.4,22.1,17.4
	s35-231.5,194-298.8c3.2,0.7,5.2,0.9,9,2C163,85.2,151.9,321.9,151.6,327.2c0,1.4,11.8,8.8,20.1,13.3c10,5.3,27.1,10.6,27.1,10.6
	S185.2,98,343.6,15.9c3.3,1.1,9,3.3,9,3.3C200.2,119,241.8,357.7,243.1,363c0.2,1,13.9,3.8,22.9,5.2c11.2,1.8,29,2.3,29,2.3
	S223.5,139.8,370.5,27.4"/>
</svg>
