<svg width="200" height="200" viewBox="0 0 200 200" fill="none" xmlns="http://www.w3.org/2000/svg">
<rect width="200" height="200" fill="white"/>
<path d="M76.1838 87.3245C80.789 87.3245 83.596 90.1315 83.596 95.1753V116.71H88.7276V94.956C88.7276 87.7631 84.5171 83.0701 76.7978 83.0701C70.7891 83.0701 67.2803 85.9648 65.3505 89.9122C63.7716 86.0525 59.6926 83.0701 54.2979 83.0701C49.9997 83.0701 46.4471 84.649 43.9032 88.6402V83.9473H38.8594V116.666H43.9909V96.0525C43.9909 91.2279 47.6313 87.2806 53.7277 87.2806C58.4207 87.2806 61.2277 90.0876 61.2277 95.1314V116.666H66.3154V96.4034C66.3154 90.7016 70.3066 87.3245 76.1838 87.3245Z" fill="#1DCA7A"/>
<path d="M178.333 76.7543H183.289C183.333 75.7894 183.245 74.8245 183.069 73.8596C181.447 64.9561 174.166 60 166.14 60C156.798 60 149.298 67.1052 149.298 76.7543C149.298 87.2367 155.613 91.0087 155.613 100.789C155.613 107.895 151.14 113.333 144.166 113.333C136.973 113.333 132.368 107.412 132.368 100.351C132.368 93.2894 136.842 88.6402 141.798 87.8069C142.368 87.7192 142.938 87.6753 143.508 87.6753V83.3771C142.982 83.3771 142.192 83.4648 141.491 83.5087C134.78 84.342 127.236 90.2192 127.236 100.351C127.236 109.868 134.21 117.587 144.078 117.587C153.727 117.587 160.833 110 160.833 100.745C160.833 89.9999 154.517 86.0525 154.517 76.7982C154.517 68.9912 159.561 64.2544 166.184 64.2544C171.973 64.2544 176.666 67.4561 178.069 74.5613C178.157 75.2192 178.333 76.0964 178.333 76.7543Z" fill="#1DCA7A"/>
<path d="M183.289 83.0701C178.158 83.0701 174.079 85.6578 171.491 90.1315V83.9911H166.359V136.973H171.491V99.1227C171.491 91.7104 176.622 87.3245 182.851 87.3245C190.043 87.3245 194.78 92.8946 194.78 99.8683C194.78 107.5 190.394 113.377 182.851 113.377C180.965 113.421 179.079 113.07 177.368 112.324V116.71C179.166 117.28 181.008 117.587 182.851 117.587C193.552 117.587 200 109.781 200 99.8683C200.087 90.7016 192.763 83.2017 183.596 83.1139C183.465 83.0701 183.377 83.0701 183.289 83.0701Z" fill="#1DCA7A"/>
<path d="M108.333 83.0701C101.71 83.0701 96.6662 86.0964 95.5697 91.3157H100.701C101.754 88.3332 104.649 87.3245 108.333 87.3245C112.719 87.3245 116.359 89.1666 116.359 94.1665V95.0437C116.359 96.842 115.482 97.9385 113.157 97.9385H105.526C98.8592 97.9385 94.2539 101.579 94.2539 107.588C94.2539 113.465 99.21 117.588 106.052 117.588C110.263 117.588 114.21 115.965 116.447 112.193V116.71H121.491V94.2104C121.447 87.456 116.403 83.0701 108.333 83.0701ZM116.359 104.824C116.359 110.745 111.754 113.509 106.842 113.509C101.359 113.509 99.4293 110.395 99.4293 107.588C99.4293 104.167 101.447 101.798 106.271 101.798H112.192C113.903 101.798 115.526 101.491 116.359 100.526V104.824Z" fill="#1DCA7A"/>
<path d="M16.7543 83.0701C7.41225 83.0701 0 90.263 0 100.351C0 110.438 7.41225 117.588 16.7543 117.588C26.0964 117.588 33.5964 110.482 33.5964 100.351C33.5964 90.2192 26.1841 83.0701 16.7543 83.0701ZM16.7543 113.333C9.78066 113.333 5.17542 107.763 5.17542 100.351C5.17542 92.9385 9.7368 87.2806 16.7543 87.2806C23.7718 87.2806 28.3771 92.9385 28.3771 100.351C28.4209 107.807 23.8157 113.333 16.7543 113.333Z" fill="#1DCA7A"/>
<path d="M1.40332 136.93V123.903H3.11384V135.482H9.47346V136.93H1.40332Z" fill="#333333"/>
<path d="M16.5788 130.701C16.5788 129.473 15.6578 128.903 14.3858 128.903C13.4209 128.947 12.5437 129.298 11.7981 129.912L10.9209 128.684C11.9297 127.851 13.2016 127.412 14.4735 127.412C16.842 127.412 18.1577 128.772 18.1577 130.701V136.886H16.5349V135.833C15.9648 136.754 14.7367 137.149 13.7718 137.149C11.7543 137.149 10.4385 135.921 10.4385 134.21C10.4385 132.5 11.6665 131.447 13.6841 131.447H15.8332C16.3595 131.447 16.4911 131.184 16.4911 130.789L16.5788 130.701ZM12.9385 123.684C13.5964 123.684 14.1227 124.21 14.1227 124.868C14.1227 125.526 13.5964 126.052 12.9385 126.052C12.2806 126.052 11.7543 125.526 11.7543 124.868C11.7543 124.254 12.2806 123.728 12.9385 123.684ZM16.5788 133.508V132.5C16.2718 132.719 15.9209 132.807 15.57 132.763H14.1227C12.8507 132.763 12.1929 133.289 12.1929 134.21C12.1929 135 12.8069 135.745 14.0788 135.745C15.3507 135.745 16.5788 135.131 16.5788 133.508ZM16.3156 123.684C16.9735 123.684 17.4999 124.21 17.4999 124.868C17.4999 125.526 16.9735 126.052 16.3156 126.052C15.6578 126.052 15.1314 125.526 15.1314 124.868C15.1753 124.21 15.7016 123.684 16.3156 123.684Z" fill="#333333"/>
<path d="M22.28 136.93H20.6572V123.903H22.28V128.947C23.0695 127.982 24.2098 127.412 25.4379 127.456C27.6309 127.456 28.859 128.816 28.859 130.877V136.93H27.1923V130.965C27.3239 129.912 26.5344 128.947 25.4379 128.816C25.3502 128.816 25.2186 128.816 25.1309 128.816C24.2098 128.816 23.2011 129.342 22.2362 130.438V136.93H22.28Z" fill="#333333"/>
<path d="M32.4126 132.807C32.6319 134.473 33.6845 135.745 35.395 135.745C36.3599 135.789 37.281 135.351 37.8512 134.605H39.781C38.9038 136.228 37.1933 137.237 35.3512 137.193C32.6319 137.193 30.6582 135.175 30.6582 132.324C30.6582 129.473 32.6319 127.456 35.3073 127.456C37.6757 127.456 39.9564 128.991 39.9564 132.763V132.807H32.4126V132.807ZM32.4564 131.447H38.1143C38.0266 130 36.8424 128.859 35.395 128.859C33.7284 128.859 32.7196 129.956 32.4564 131.447Z" fill="#333333"/>
<path d="M43.4646 123.903H41.8418V136.93H43.4646V123.903Z" fill="#333333"/>
<path d="M47.5876 123.903H45.9648V136.93H47.5876V123.903Z" fill="#333333"/>
<path d="M55.5261 130.701C55.5261 129.473 54.605 128.903 53.3331 128.903C52.3682 128.947 51.491 129.298 50.7454 129.912L49.8682 128.684C50.877 127.851 52.1489 127.412 53.4208 127.412C55.7892 127.412 57.105 128.772 57.105 130.701V136.886H55.4822V135.833C54.912 136.754 53.684 137.149 52.7191 137.149C50.7015 137.149 49.3857 135.921 49.3857 134.21C49.3857 132.5 50.6138 131.447 52.6313 131.447H54.7805C55.3068 131.447 55.4383 131.184 55.4383 130.789L55.5261 130.701ZM51.8857 123.684C52.5436 123.684 53.0699 124.21 53.0699 124.868C53.0699 125.526 52.5436 126.052 51.8857 126.052C51.2278 126.052 50.7015 125.526 50.7015 124.868C50.7454 124.254 51.2278 123.728 51.8857 123.684ZM55.5261 133.508V132.5C55.2191 132.719 54.8682 132.807 54.5173 132.763H53.0699C51.798 132.763 51.1401 133.289 51.1401 134.21C51.1401 135 51.7541 135.745 53.0261 135.745C54.298 135.745 55.5261 135.131 55.5261 133.508ZM55.3068 123.684C55.9647 123.684 56.491 124.21 56.491 124.868C56.491 125.526 55.9647 126.052 55.3068 126.052C54.6489 126.052 54.1226 125.526 54.1226 124.868C54.1226 124.21 54.6489 123.684 55.3068 123.684Z" fill="#333333"/>
<path d="M64.386 129.035H62.9386V127.675H66.0088V138.596C66.0088 140.307 64.6491 140.526 63.6842 140.526H62.5V139.166H63.3772C63.9474 139.166 64.3421 139.079 64.3421 138.377L64.386 129.035ZM65.0439 123.684C65.7456 123.684 66.3158 124.254 66.3158 124.956C66.3158 125.658 65.7456 126.228 65.0439 126.228C64.3421 126.228 63.7719 125.701 63.7719 125C63.7719 125 63.7719 125 63.7719 124.956C63.7719 124.254 64.3421 123.684 65.0439 123.684Z" fill="#333333"/>
<path d="M73.903 130.701C73.903 129.473 72.982 128.903 71.71 128.903C70.7451 128.947 69.868 129.298 69.1223 129.912L68.2452 128.684C69.2539 127.851 70.5258 127.412 71.7978 127.412C74.1662 127.412 75.482 128.728 75.482 130.701V136.886H73.8592V135.833C73.289 136.754 72.0609 137.149 71.096 137.149C69.0785 137.149 67.7627 135.921 67.7627 134.21C67.7627 132.5 68.9908 131.447 71.0083 131.447H73.1574C73.6837 131.447 73.8153 131.184 73.8153 130.789L73.903 130.701ZM73.903 133.508V132.5C73.596 132.719 73.2451 132.807 72.8943 132.763H71.4469C70.175 132.763 69.5171 133.289 69.5171 134.21C69.5171 135 70.1311 135.745 71.403 135.745C72.675 135.745 73.903 135.131 73.903 133.508Z" fill="#333333"/>
<path d="M83.9031 123.903H82.2803V136.93H83.9031V123.903Z" fill="#333333"/>
<path d="M91.8854 130.701C91.8854 129.473 90.9644 128.903 89.6925 128.903C88.7276 128.947 87.8504 129.298 87.1048 129.912L86.2276 128.684C87.2363 127.851 88.5083 127.412 89.7802 127.412C92.1486 127.412 93.4644 128.772 93.4644 130.701V136.886H91.8416V135.833C91.2714 136.754 90.0433 137.149 89.0784 137.149C87.0609 137.149 85.7451 135.921 85.7451 134.21C85.7451 132.5 86.9732 131.447 88.9907 131.447H91.1398C91.6661 131.447 91.7977 131.184 91.7977 130.789L91.8854 130.701ZM88.2451 123.684C88.903 123.684 89.4293 124.21 89.4293 124.868C89.4293 125.526 88.903 126.052 88.2451 126.052C87.5872 126.052 87.0609 125.526 87.0609 124.868C87.0609 124.254 87.5872 123.728 88.2451 123.684ZM91.8854 133.508V132.5C91.5784 132.719 91.2276 132.807 90.8767 132.763H89.4293C88.1574 132.763 87.4995 133.289 87.4995 134.21C87.4995 135 88.1135 135.745 89.3855 135.745C90.6574 135.745 91.8854 135.131 91.8854 133.508ZM91.6223 123.684C92.2802 123.684 92.8065 124.21 92.8065 124.868C92.8065 125.526 92.2802 126.052 91.6223 126.052C90.9644 126.052 90.4381 125.526 90.4381 124.868C90.4381 124.21 90.9644 123.684 91.6223 123.684Z" fill="#333333"/>
<path d="M100.307 134.386C100.307 133.64 99.6492 133.289 98.3773 132.851L97.9387 132.675C96.4475 132.105 95.4387 131.447 95.4387 130C95.4387 128.552 96.7983 127.412 98.7281 127.412C99.8685 127.412 101.009 127.807 101.886 128.509L101.053 129.693C100.351 129.166 99.5176 128.816 98.6843 128.772C97.7632 128.772 97.0615 129.21 97.0615 129.868C97.0615 130.438 97.5001 130.833 98.3773 131.14L99.386 131.535C101.184 132.193 101.974 133.026 101.974 134.386C101.974 135.614 100.921 137.105 98.465 137.105C97.2369 137.105 96.0089 136.666 95.0439 135.877L95.8773 134.649C96.6229 135.263 97.5439 135.614 98.5088 135.658C99.5615 135.745 100.307 135.131 100.307 134.386Z" fill="#333333"/>
<path d="M112.061 136.93H110.438V130.965C110.57 129.912 109.78 128.947 108.684 128.816C108.596 128.816 108.465 128.816 108.377 128.816C107.456 128.816 106.447 129.342 105.482 130.438V136.886H103.859V127.675H105.438V128.947C106.228 127.982 107.412 127.412 108.64 127.456C110.833 127.456 112.061 128.816 112.061 130.877V136.93Z" fill="#333333"/>
<path d="M119.912 130.701C119.912 129.473 118.991 128.903 117.719 128.903C116.754 128.947 115.877 129.298 115.131 129.912L114.254 128.684C115.263 127.851 116.535 127.412 117.807 127.412C120.175 127.412 121.491 128.772 121.491 130.701V136.886H119.868V135.833C119.298 136.754 118.07 137.149 117.105 137.149C115.087 137.149 113.771 135.921 113.771 134.21C113.771 132.5 115 131.447 117.017 131.447H119.166C119.693 131.447 119.824 131.184 119.824 130.789L119.912 130.701ZM116.271 123.684C116.929 123.684 117.456 124.21 117.456 124.868C117.456 125.526 116.929 126.052 116.271 126.052C115.614 126.052 115.087 125.526 115.087 124.868C115.087 124.254 115.614 123.728 116.271 123.684ZM119.912 133.508V132.5C119.605 132.719 119.254 132.807 118.903 132.763H117.456C116.184 132.763 115.526 133.289 115.526 134.21C115.526 135 116.14 135.745 117.412 135.745C118.684 135.745 119.912 135.131 119.912 133.508ZM119.649 123.684C120.307 123.684 120.833 124.21 120.833 124.868C120.833 125.526 120.307 126.052 119.649 126.052C118.991 126.052 118.464 125.526 118.464 124.868C118.508 124.21 118.991 123.684 119.649 123.684Z" fill="#333333"/>
</svg>
