<?xml version="1.0" encoding="utf-8"?>
<!-- Generator: Adobe Illustrator 25.3.1, SVG Export Plug-In . SVG Version: 6.00 Build 0)  -->
<!DOCTYPE svg PUBLIC "-//W3C//DTD SVG 1.1//EN" "http://www.w3.org/Graphics/SVG/1.1/DTD/svg11.dtd" [
	<!ENTITY ns_extend "http://ns.adobe.com/Extensibility/1.0/">
	<!ENTITY ns_ai "http://ns.adobe.com/AdobeIllustrator/10.0/">
	<!ENTITY ns_graphs "http://ns.adobe.com/Graphs/1.0/">
	<!ENTITY ns_vars "http://ns.adobe.com/Variables/1.0/">
	<!ENTITY ns_imrep "http://ns.adobe.com/ImageReplacement/1.0/">
	<!ENTITY ns_sfw "http://ns.adobe.com/SaveForWeb/1.0/">
	<!ENTITY ns_custom "http://ns.adobe.com/GenericCustomNamespace/1.0/">
	<!ENTITY ns_adobe_xpath "http://ns.adobe.com/XPath/1.0/">
]>
<svg version="1.1" id="Layer_1" xmlns:x="&ns_extend;" xmlns:i="&ns_ai;" xmlns:graph="&ns_graphs;"
	 xmlns="http://www.w3.org/2000/svg" xmlns:xlink="http://www.w3.org/1999/xlink" x="0px" y="0px" viewBox="0 0 512 512"
	 style="enable-background:new 0 0 512 512;" xml:space="preserve">
<style type="text/css">
	.st0{opacity:0.99;fill-rule:evenodd;clip-rule:evenodd;fill:#FF6A10;enable-background:new    ;}
	.st1{opacity:0.99;fill-rule:evenodd;clip-rule:evenodd;fill:#FFFFFF;enable-background:new    ;}
</style>
<metadata>
	<sfw  xmlns="&ns_sfw;">
		<slices></slices>
		<sliceSourceBounds  bottomLeftOrigin="true" height="508.2" width="508.2" x="1.9" y="1.9"></sliceSourceBounds>
	</sfw>
</metadata>
<g id="layer1" transform="translate(-252.04724,-406.18109)">
	<path id="path3789" class="st0" d="M559.2,912.9c71.5-15.3,135.1-62.1,170.4-125.3c41.3-73.9,43.4-162.3,5.8-238.8
		c-13.9-28.3-28.8-48.5-51.9-70.5c-31.5-30-69.8-51.5-112-62.7c-30.2-8-78-10-107.8-4.4c-98.7,18.6-178.1,92.2-203.2,188.5
		c-6.2,23.9-8.6,77-4.5,102.4c16.7,104.6,97.5,188.9,202.1,211C478.5,917.5,538.7,917.3,559.2,912.9L559.2,912.9z"/>
	<path id="path3819" class="st1" d="M479.8,564.7c-99.6-50.9-174.8,34.3-170.6,98.3c0.4,80.8,87.4,140.7,170.6,96.9v101.5l53.3-0.2
		l0.8-101.7c104.8,49.4,174.2-34,172.9-96.5c-1.3-80.7-82-143.5-172.9-98.4V462.9h-52.6L479.8,564.7z M423.5,603.1
		c85.3,9.5,69.6,118.2-0.3,119.8C340.8,720.9,341,603.1,423.5,603.1L423.5,603.1z M598.3,601.4c79.3,8.9,70.1,119.3-3.8,121.5
		C503.8,711,522.3,599.2,598.3,601.4L598.3,601.4z"/>
</g>
</svg>
