<?xml version="1.0" encoding="utf-8"?>
<!-- Generator: Adobe Illustrator 25.3.1, SVG Export Plug-In . SVG Version: 6.00 Build 0)  -->
<!DOCTYPE svg PUBLIC "-//W3C//DTD SVG 1.1//EN" "http://www.w3.org/Graphics/SVG/1.1/DTD/svg11.dtd" [
	<!ENTITY ns_extend "http://ns.adobe.com/Extensibility/1.0/">
	<!ENTITY ns_ai "http://ns.adobe.com/AdobeIllustrator/10.0/">
	<!ENTITY ns_graphs "http://ns.adobe.com/Graphs/1.0/">
	<!ENTITY ns_vars "http://ns.adobe.com/Variables/1.0/">
	<!ENTITY ns_imrep "http://ns.adobe.com/ImageReplacement/1.0/">
	<!ENTITY ns_sfw "http://ns.adobe.com/SaveForWeb/1.0/">
	<!ENTITY ns_custom "http://ns.adobe.com/GenericCustomNamespace/1.0/">
	<!ENTITY ns_adobe_xpath "http://ns.adobe.com/XPath/1.0/">
]>
<svg version="1.1" id="Layer_1" xmlns:x="&ns_extend;" xmlns:i="&ns_ai;" xmlns:graph="&ns_graphs;"
	 xmlns="http://www.w3.org/2000/svg" xmlns:xlink="http://www.w3.org/1999/xlink" x="0px" y="0px" viewBox="0 0 512 512"
	 style="enable-background:new 0 0 512 512;" xml:space="preserve">
<style type="text/css">
	.st0{fill:#E9004C;}
</style>
<metadata>
	<sfw  xmlns="&ns_sfw;">
		<slices></slices>
		<sliceSourceBounds  bottomLeftOrigin="true" height="205.6" width="456.2" x="27.9" y="153.2"></sliceSourceBounds>
	</sfw>
</metadata>
<g>
	<path class="st0" d="M481.7,216.2H247.3c-26,0-49.4,19.2-52.1,45.2c-4.1,35.6-31.5,56.2-64.4,57.6c-35.6,0-64.4-28.8-64.4-64.4
		s28.8-64.4,64.4-64.4c23.3,0,43.9,12.3,54.8,31.5c1.4,1.4,2.7,1.4,4.1,0c6.9-8.2,15.1-15.1,24.7-19.2c1.4,0,1.4-2.7,1.4-4.1
		c-17.8-27.4-49.4-45.2-85-45.2c-56.2,0-101.4,45.2-102.8,102.8c0,56.2,45.2,102.8,102.8,102.8c52.1-1.4,96-35.6,101.4-90.5
		c1.4-6.9,6.9-12.3,15.1-12.3h200.1v27.4c0,15.1-4.1,37-23.3,37s-23.3-21.9-23.3-37v-8.2c0-1.4-1.4-2.7-2.7-2.7h-32.9
		c-1.4,0-2.7,1.4-2.7,2.7v6.9c0,15.1-4.1,37-23.3,37s-23.3-21.9-23.3-37v-6.9c0-1.4-1.4-2.7-2.7-2.7h-32.9c-1.4,0-2.7,1.4-2.7,2.7
		v6.9c0,37,20.6,74,60.3,74c16.5,0,31.5-6.9,41.1-19.2c11,12.3,24.7,19.2,41.1,19.2c41.1,0,60.3-38.4,60.3-74V219
		C485.8,217.6,484.4,216.2,481.7,216.2"/>
</g>
</svg>
