<?xml version="1.0" encoding="utf-8"?>
<!-- Generator: Adobe Illustrator 25.3.1, SVG Export Plug-In . SVG Version: 6.00 Build 0)  -->
<!DOCTYPE svg PUBLIC "-//W3C//DTD SVG 1.1//EN" "http://www.w3.org/Graphics/SVG/1.1/DTD/svg11.dtd" [
	<!ENTITY ns_extend "http://ns.adobe.com/Extensibility/1.0/">
	<!ENTITY ns_ai "http://ns.adobe.com/AdobeIllustrator/10.0/">
	<!ENTITY ns_graphs "http://ns.adobe.com/Graphs/1.0/">
	<!ENTITY ns_vars "http://ns.adobe.com/Variables/1.0/">
	<!ENTITY ns_imrep "http://ns.adobe.com/ImageReplacement/1.0/">
	<!ENTITY ns_sfw "http://ns.adobe.com/SaveForWeb/1.0/">
	<!ENTITY ns_custom "http://ns.adobe.com/GenericCustomNamespace/1.0/">
	<!ENTITY ns_adobe_xpath "http://ns.adobe.com/XPath/1.0/">
]>
<svg version="1.1" id="Слой_1" xmlns:x="&ns_extend;" xmlns:i="&ns_ai;" xmlns:graph="&ns_graphs;"
	 xmlns="http://www.w3.org/2000/svg" xmlns:xlink="http://www.w3.org/1999/xlink" x="0px" y="0px" viewBox="0 0 256 256"
	 style="enable-background:new 0 0 256 256;" xml:space="preserve">
<style type="text/css">
	.st0{fill:#F9AE00;}
	.st1{fill:#E30616;}
</style>
<metadata>
	<sfw  xmlns="&ns_sfw;">
		<slices></slices>
		<sliceSourceBounds  bottomLeftOrigin="true" height="255.7" width="256.3" x="-0.1" y="0"></sliceSourceBounds>
	</sfw>
</metadata>
<rect y="0.3" class="st0" width="256.2" height="77.7"/>
<rect x="-0.1" y="178.5" class="st0" width="256.2" height="77.5"/>
<g>
	<path class="st1" d="M21.2,127.8c0-11.9,9.6-21.6,21.4-21.6c11.8,0,21.4,9.7,21.4,21.6c0,11.9-9.6,21.6-21.4,21.6
		C30.8,149.4,21.2,139.8,21.2,127.8 M191.6,127.8c0-11.9,9.6-21.6,21.4-21.6c11.8,0,21.4,9.7,21.4,21.6c0,11.9-9.6,21.6-21.4,21.6
		C201.2,149.4,191.6,139.8,191.6,127.8 M256.1,171.4H79.8c3.2-2.2,6.1-5.3,9.4-9.5l18-23.1l7.8,10l8.7-11.7l-7.6-9.8l18.3-23.5
		c5.8-7.5-5.3-16.2-11.1-8.8l-16.2,20.8L90.7,94.7c-5.8-7.4-16.9,1.3-11.1,8.8l18.6,23.8l-20.1,25.8c-7.1,9.2-14.3,17.6-28.4,18.3
		H0.2V84.7h175.3c-3,2.2-5.9,5.2-9,9.2L148.6,117l-7.8-10l-8.7,11.7l7.6,9.8L121.4,152c-5.8,7.5,5.3,16.2,11.1,8.8l16.1-20.8
		l16.4,21.1c5.8,7.5,16.9-1.3,11.1-8.8l-18.6-23.8l20.1-25.8c6.5-8.5,13.1-16.3,25.1-18h53.3V171.4z M6.8,127.8
		c0,19.9,16,36.1,35.8,36.1c19.7,0,35.7-16.1,35.7-36.1s-16-36.1-35.7-36.1C22.8,91.8,6.8,107.9,6.8,127.8 M177.3,127.8
		c0,19.9,16,36.1,35.8,36.1c19.7,0,35.7-16.1,35.7-36.1s-16-36.1-35.7-36.1C193.3,91.8,177.3,107.9,177.3,127.8"/>
</g>
</svg>
