<?xml version="1.0" encoding="utf-8"?>
<!-- Generator: Adobe Illustrator 25.3.1, SVG Export Plug-In . SVG Version: 6.00 Build 0)  -->
<!DOCTYPE svg PUBLIC "-//W3C//DTD SVG 1.1//EN" "http://www.w3.org/Graphics/SVG/1.1/DTD/svg11.dtd" [
	<!ENTITY ns_extend "http://ns.adobe.com/Extensibility/1.0/">
	<!ENTITY ns_ai "http://ns.adobe.com/AdobeIllustrator/10.0/">
	<!ENTITY ns_graphs "http://ns.adobe.com/Graphs/1.0/">
	<!ENTITY ns_vars "http://ns.adobe.com/Variables/1.0/">
	<!ENTITY ns_imrep "http://ns.adobe.com/ImageReplacement/1.0/">
	<!ENTITY ns_sfw "http://ns.adobe.com/SaveForWeb/1.0/">
	<!ENTITY ns_custom "http://ns.adobe.com/GenericCustomNamespace/1.0/">
	<!ENTITY ns_adobe_xpath "http://ns.adobe.com/XPath/1.0/">
]>
<svg version="1.1" id="Слой_1" xmlns:x="&ns_extend;" xmlns:i="&ns_ai;" xmlns:graph="&ns_graphs;"
	 xmlns="http://www.w3.org/2000/svg" xmlns:xlink="http://www.w3.org/1999/xlink" x="0px" y="0px" viewBox="0 0 256 256"
	 style="enable-background:new 0 0 256 256;" xml:space="preserve">
<style type="text/css">
	.st0{fill:#EF81A0;}
	.st1{fill:#FFFFFF;}
</style>
<metadata>
	<sfw  xmlns="&ns_sfw;">
		<slices></slices>
		<sliceSourceBounds  bottomLeftOrigin="true" height="256" width="256" x="0" y="0.1"></sliceSourceBounds>
	</sfw>
</metadata>
<rect y="-0.1" class="st0" width="256" height="256"/>
<g>
	<path class="st1" d="M71.3,133c-5.3-14.9-1.6-23.6,5.1-27.5c8-4.7,16-4.1,23.8,3.7c-0.4-4.4-0.5-7.9-0.9-11.4
		c-1-8.1-2-16.1-3.1-24.2c-1-7.4-2.1-14.8-2.9-22.3c-0.7-6.6-2.2-13,1.1-19.7c6.5-12.9,24.8-13.6,32-1.8c3.1,5,4.3,11.4,5.8,17.3
		c3.1,12.1,5.7,24.4,8.6,36.6c0.6,2.6,1.2,5.2,2.6,7.7c4.9-16.8,9.8-33.5,14.6-50.3c1.9-6.6,3.5-13.3,10.2-17
		c6.9-3.9,14.6-4.8,22.8,0.9c5.1,3.6,7.8,11.9,6.4,19c-3.9,19.4-7.5,38.7-11.4,58.1c-2,10.4-4.2,20.7-6.4,31.4
		c2.1,0.7,4.1,1.4,6.2,2c9.4,2.3,14.8,8.9,15.6,18.4c1.2,14.2-0.8,28-5.7,41.3c-8.1,21.5-23.3,34.8-46.4,38.2
		c-6.6,1-13.4,1.8-20.1,1.5c-15.4-0.7-29.1-5.8-40.5-16.6c-9.6-9.1-15.2-20.2-17.9-33c-0.3-1.3,0-2.7-0.1-4
		c-0.4-3.4-1.5-6.4-4.3-8.9c-5-4.5-9.3-9.3-11.1-16.4C52,144.2,59.8,134.1,71.3,133z M78.4,185.3c0.4,1.6,0.7,2.7,1,3.8
		c5.2,17.1,16.2,28.8,32.8,35.1c11.8,4.4,23.9,4.4,36.1,2c19.6-3.9,33.7-14.7,40.1-34c2.4-7.4,4.6-15.1,5.3-22.8
		c0.7-6.4-0.4-13.1-1.5-19.6c-0.5-3.3-3-6.1-6.8-6.9c-15.5-3.6-31-7.2-46.5-10.6c-3.6-0.8-7.5-1-11.1-0.5c-5.7,0.9-7.5,5.7-8.3,10.6
		c-0.6,4.1,0.5,7.4,4.2,10.3c5.5,4.4,12,5.5,18.5,7c8.2,1.9,16.5,3.8,24.8,5.6c2.4,0.5,3.6,2.3,2.8,4.3c-0.5,1.3-2.5,2.5-4,2.8
		c-2.3,0.5-4.8,0-7.2,0.1c-7.7,0.4-16.4,5.8-18.4,13.7c-0.9,3.5-1.6,7.1-2.2,10.7c-0.5,2.6-2.4,3.4-4.3,2.7c-1.3-0.5-3-2.5-3-3.7
		c0.2-3.9,1-7.8,2-11.5c1.9-6.9,6-12.3,12.7-16c-7.9-2.2-15.3-4.3-22.5-6.3c-1.5,1.5-3,3.6-5,4.6c-2.7,1.3-2.8,2.6-1.9,5.2
		c2.5,7.2-0.2,16.4-5.7,20.4c-7.6,5.6-15.6,6-22.9,0.8C84.4,190.9,81.7,188.2,78.4,185.3z M172.1,132c1.3-5.8,2.4-10.9,3.5-16
		c4.6-22.5,9.2-45,13.5-67.6c0.8-3.9,1.2-8.2,0.4-12.1c-1.1-5.1-6.2-8.5-10.9-8c-4.5,0.5-9.8,3.4-11.7,9.8
		c-4.4,14.7-8.6,29.5-12.9,44.3c-2.5,8.5-4.7,17.1-7.5,25.5c-0.5,1.6-2.7,3.1-4.4,3.5c-0.8,0.2-2.9-2.2-3.3-3.7
		c-2.8-10.7-5.3-21.5-7.8-32.3c-2.8-12.1-5.6-24.1-8.3-36.2c-1.5-6.7-6.7-10.7-13.5-10c-4.9,0.5-10.3,7.1-9.7,12.6
		c1.1,10.7,2.6,21.3,3.9,32c1.6,12.8,3.4,25.5,4.7,38.3c0.7,7.1,2.3,13.6,7.8,18.9c5-6.1,11.8-8.1,19.2-7c6.7,0.9,13.2,2.9,19.9,4.4
		C160.5,129.4,166.1,130.7,172.1,132z M116.4,158.2c-1.6-4.2-4-7.7-4-11.1c0.1-5.7-1.7-10.1-5-14.4c-5.1-6.6-9.9-13.6-15-20.2
		c-2.5-3.3-6.2-3.2-9.7-1.6c-6.5,2.8-9,9.9-4.8,16.9c5.7,9.8,12.5,19,18.5,28.7C101.3,164.5,110.2,165.3,116.4,158.2z M98,190.1
		c6.2-0.7,12.5-7.7,11.7-13.5c-0.4-3.3-2.1-6-5.8-6.4c-6.3-0.6-10.4-4-13.6-9.3c-3.5-5.7-7.4-11.1-11.1-16.6
		c-2.3-3.4-5.9-4.8-9.6-3.4c-8.1,3.1-11.4,11.7-4.1,19.7c8.2,9,17,17.4,25.7,25.8C93.1,188.1,95.8,188.9,98,190.1z"/>
</g>
</svg>
