<?xml version="1.0" encoding="utf-8"?>
<!-- Generator: Adobe Illustrator 26.0.1, SVG Export Plug-In . SVG Version: 6.00 Build 0)  -->
<svg version="1.1" id="Layer_1" xmlns="http://www.w3.org/2000/svg" xmlns:xlink="http://www.w3.org/1999/xlink" x="0px" y="0px"
	 viewBox="0 0 512 512" style="enable-background:new 0 0 512 512;" xml:space="preserve">
<style type="text/css">
	.st0{fill:#003087;}
	.st1{fill:#002F86;}
	.st2{fill:#009CDE;}
	.st3{fill:#012069;}
</style>
<g id="Page-1">
	<g id="interface" transform="translate(-172.000000, -512.000000)">
		<g id="PP" transform="translate(172.000000, 512.000000)">
			<path id="path14499" class="st0" d="M396.4,67.6C375,44.3,336.4,34.3,287,34.3H143.6c-10.1,0-18.7,7-20.3,16.6l-59.7,363
				c-1.2,7.2,4.6,13.6,12.2,13.6h88.5l22.2-135.2l-0.7,4.2c1.6-9.6,10.1-16.6,20.2-16.6h42.1c82.6,0,147.3-32.2,166.2-125.3
				c0.6-2.8,1-5.4,1.5-8.1c-2.4-1.2-2.4-1.2,0,0C421.5,112.3,415.8,88.8,396.4,67.6"/>
			<path id="path14527" class="st0" d="M396.4,67.6C375,44.3,336.4,34.3,287,34.3H143.6c-10.1,0-18.7,7-20.3,16.6l-59.7,363
				c-1.2,7.2,4.6,13.6,12.2,13.6h88.5l22.2-135.2l-0.7,4.2c1.6-9.6,10.1-16.6,20.2-16.6h42.1c82.6,0,147.3-32.2,166.2-125.3
				c0.6-2.8,1-5.4,1.5-8.1c-2.4-1.2-2.4-1.2,0,0C421.5,112.3,415.8,88.8,396.4,67.6"/>
			<path id="path14531" class="st1" d="M210.4,147.1c0.9-5.8,4.8-10.5,10-12.8c2.4-1.1,5-1.7,7.7-1.7h112.4
				c13.3,0,25.7,0.8,37.1,2.6c3.3,0.5,6.4,1.1,9.5,1.7c3.1,0.6,6,1.4,8.9,2.2c1.4,0.4,2.9,0.8,4.2,1.3c5.6,1.8,10.8,3.9,15.5,6.3
				c5.6-34.4,0-57.8-19.4-79C375,44.3,336.4,34.3,287,34.3H143.6c-10.1,0-18.7,7-20.3,16.6l-59.7,363c-1.2,7.2,4.6,13.6,12.1,13.6
				h88.5l22.2-135.2L210.4,147.1L210.4,147.1z"/>
			<path id="path14535" class="st2" d="M411.1,148.1L411.1,148.1c-0.4,2.6-0.9,5.3-1.4,8.1c-18.6,93.4-82.3,125.7-163.7,125.7h-41.4
				c-9.9,0-18.3,7.1-19.9,16.7L163.5,430l-6,37.3c-1,6.3,4,12,10.5,12h73.5c8.7,0,16.1-6.2,17.5-14.6l0.7-3.7l13.8-85.8l0.9-4.7
				c1.4-8.4,8.8-14.6,17.5-14.6h11c71.2,0,126.9-28.3,143.2-110c6.8-34.2,3.3-62.7-14.7-82.7C425.8,157.2,419,152.2,411.1,148.1"/>
			<path id="path14539" class="st3" d="M398.2,144.3c-2.9-0.8-5.8-1.6-8.9-2.2c-3.1-0.7-6.2-1.2-9.4-1.7c-11.3-1.8-23.7-2.6-37-2.6
				H230.8c-2.8,0-5.4,0.6-7.7,1.7c-5.2,2.4-9,7.2-10,13l-23.8,146.6l-0.7,4.3c1.6-9.6,10.1-16.8,20.1-16.8h42
				c82.4,0,146.9-32.5,165.8-126.5c0.6-2.8,1-5.5,1.5-8.1c-4.8-2.4-9.9-4.6-15.5-6.3C401,145.2,399.6,144.7,398.2,144.3"/>
		</g>
	</g>
</g>
</svg>
