<?xml version="1.0" encoding="utf-8"?>
<!-- Generator: Adobe Illustrator 25.3.1, SVG Export Plug-In . SVG Version: 6.00 Build 0)  -->
<!DOCTYPE svg PUBLIC "-//W3C//DTD SVG 1.1//EN" "http://www.w3.org/Graphics/SVG/1.1/DTD/svg11.dtd" [
	<!ENTITY ns_extend "http://ns.adobe.com/Extensibility/1.0/">
	<!ENTITY ns_ai "http://ns.adobe.com/AdobeIllustrator/10.0/">
	<!ENTITY ns_graphs "http://ns.adobe.com/Graphs/1.0/">
	<!ENTITY ns_vars "http://ns.adobe.com/Variables/1.0/">
	<!ENTITY ns_imrep "http://ns.adobe.com/ImageReplacement/1.0/">
	<!ENTITY ns_sfw "http://ns.adobe.com/SaveForWeb/1.0/">
	<!ENTITY ns_custom "http://ns.adobe.com/GenericCustomNamespace/1.0/">
	<!ENTITY ns_adobe_xpath "http://ns.adobe.com/XPath/1.0/">
]>
<svg version="1.1" id="Слой_1" xmlns:x="&ns_extend;" xmlns:i="&ns_ai;" xmlns:graph="&ns_graphs;"
	 xmlns="http://www.w3.org/2000/svg" xmlns:xlink="http://www.w3.org/1999/xlink" x="0px" y="0px" viewBox="0 0 256 256"
	 style="enable-background:new 0 0 256 256;" xml:space="preserve">
<style type="text/css">
	.st0{fill:#E3061D;}
</style>
<metadata>
	<sfw  xmlns="&ns_sfw;">
		<slices></slices>
		<sliceSourceBounds  bottomLeftOrigin="true" height="247.6" width="170.1" x="42.9" y="4.2"></sliceSourceBounds>
	</sfw>
</metadata>
<g>
	<path id="path2513" class="st0" d="M59.9,85.2c3.1-1.4,6.2-2.4,9.3-3.1c5.7-27.2,29.8-47.7,58.8-47.7c28.9,0,53.1,20.5,58.8,47.7
		c8.9,1.7,16.2,5.3,21.9,10.6c0.2-5.2,0-10.3-0.6-15C204.5,36.5,170,4.2,127.9,4.2c-43.3,0-78.6,34.3-80.4,77.3
		c-0.3,3.7-0.3,7.6-0.2,11.6C50.9,90,55,87.3,59.9,85.2"/>
	<path id="path2515" class="st0" d="M175,91.3H78.5c-4.6,0-9.5,1.1-14.4,3.3c-4.8,2.1-8.7,4.6-11.8,7.6c-6,7.2-9.1,17.7-9.3,31.6
		v75.5c0.2,13.9,3.3,24.4,9.3,31.6c3.1,3.1,7.1,5.6,11.8,7.7c5,2.2,9.8,3.3,14.4,3.3H175c24.9-0.2,37.6-13.9,38-40.9v-78.6
		C212.7,105.1,200,91.5,175,91.3"/>
</g>
</svg>
