<?xml version="1.0" encoding="utf-8"?>
<!-- Generator: Adobe Illustrator 25.3.1, SVG Export Plug-In . SVG Version: 6.00 Build 0)  -->
<!DOCTYPE svg PUBLIC "-//W3C//DTD SVG 1.1//EN" "http://www.w3.org/Graphics/SVG/1.1/DTD/svg11.dtd" [
	<!ENTITY ns_extend "http://ns.adobe.com/Extensibility/1.0/">
	<!ENTITY ns_ai "http://ns.adobe.com/AdobeIllustrator/10.0/">
	<!ENTITY ns_graphs "http://ns.adobe.com/Graphs/1.0/">
	<!ENTITY ns_vars "http://ns.adobe.com/Variables/1.0/">
	<!ENTITY ns_imrep "http://ns.adobe.com/ImageReplacement/1.0/">
	<!ENTITY ns_sfw "http://ns.adobe.com/SaveForWeb/1.0/">
	<!ENTITY ns_custom "http://ns.adobe.com/GenericCustomNamespace/1.0/">
	<!ENTITY ns_adobe_xpath "http://ns.adobe.com/XPath/1.0/">
]>
<svg version="1.1" id="Слой_1" xmlns:x="&ns_extend;" xmlns:i="&ns_ai;" xmlns:graph="&ns_graphs;"
	 xmlns="http://www.w3.org/2000/svg" xmlns:xlink="http://www.w3.org/1999/xlink" x="0px" y="0px" viewBox="0 0 256 256"
	 style="enable-background:new 0 0 256 256;" xml:space="preserve">
<style type="text/css">
	.st0{fill:#253D91;}
</style>
<metadata>
	<sfw  xmlns="&ns_sfw;">
		<slices></slices>
		<sliceSourceBounds  bottomLeftOrigin="true" height="245.9" width="240.4" x="7.8" y="5.1"></sliceSourceBounds>
	</sfw>
</metadata>
<g>
	<g>
		<path class="st0" d="M173.9,226.2c8.8-3.1,17.5-9.8,25.1-16.7c21.2-19.3,43.5-52.1,41.7-92c-1.9-42-24.3-68.9-54.3-85.7
			c8.7,1.8,15.7,7.6,22.5,13.1c19.2,15.5,33.8,39.6,34.4,73.6c0.8,45.1-23.2,75.9-47,97.2c7.4-3.7,13.2-10.5,18.8-17.3
			c15.8-18.9,30.3-45.8,30.3-79.5c0-47.3-26.8-74.6-58-92.4c10.3,3,19.5,9.2,27.2,15.7c18.9,16,35.7,44.2,33.4,81.5
			c-2.2,36.9-18.6,66-40.7,87.2c-22.2,21.2-52.5,36.4-87.8,39.6c-3.5,0.3-8.9,0.3-13.1,0c-54.5-4.5-94.1-39.4-98.2-93
			c-0.5-5.6-0.5-11,0-16.7c2.4-33.7,17.5-60.7,37.6-81.5C67.5,36.9,95,19.8,133.4,17.1c0.9-4.2,2.1-9.1,2.6-12.1
			c12.7,13.4,28,28.1,43.8,43.8c-19.1,9.7-37.7,20-56.3,30.3c0.4-3.9,1.3-8.2,1.5-11.1c-32.1,5.7-59.1,29-64.7,61.6
			c-6.8,39.8,19.7,70.3,58,70.5c38.6,0.2,71.4-29.6,77.2-63.7c4.8-27.6-7.4-46.8-22.9-59.5c14.5,9.6,30.2,26.9,28.1,52.8
			c-3.3,40.3-41.2,73.9-80.9,74.1c-21.7,0.1-41.1-9.5-54.9-25.6c13,18.9,35.7,28.8,61.6,27.1c20.3-1.4,37.5-11.4,50.1-23.5
			c13-12.4,23-29.7,25.6-47.6c0.9-6.7,1-14.3,0-21.4c-3.1-20.9-15.9-30.6-27.5-44c16.5,13.2,33.9,30.8,32.7,59.2
			c-1.7,41.5-41.4,78.2-83,80.9c-27.2,1.9-44.1-7.4-58.5-20.9c13.7,17.3,39.3,26.2,66.4,21.9c38.4-6,72.6-38,76.8-77.8
			c3.7-35.8-14.4-52.5-31.8-70.2c18.4,14.1,34.2,29.5,35.4,58.1c1,24.8-11.1,49.2-26.7,64.7c-24.8,24.8-73.2,41.2-110.8,18.3
			c32,24.5,81.7,10.4,108.1-13.6c19.1-17.4,33.2-40.6,30.9-75.2c-1.9-27.8-17.7-42.1-35.5-56.9c18.4,9.4,36.1,28.3,38.6,55.3
			c3.3,35.5-13,61.8-33,79.3c-24,21.2-57.9,33.8-96.1,24c63.1,19.7,122.1-27.2,130.6-81.4c6.1-38.9-13.9-61.9-32.9-78.4
			c-2-1.6-3-2.9-5.7-5.2c27.2,14.1,49.7,45.2,40.7,89.3c-10.3,51.3-61.7,92.9-128,82c9.6,3.9,20.9,3,30.6,2.6
			c30.1-1.6,57.4-16.7,72-32.9c17.7-19.7,31.7-44.5,29-80.4c-2.4-32.4-20.5-47.9-42.7-65.1c9.3,3.3,17.4,9.8,24,17.2
			c11.1,12.1,20.2,28.5,21.7,49.1c2.6,36.9-14.3,64.4-33,83.6c-19.8,20.6-46.7,33.7-80.9,34c53.6,1.6,89.3-31.3,106.6-67.8
			c9.8-21,12.8-50.6,4.8-73.6c-7.4-21.3-24.5-36-41.3-47.8c29.3,15.7,53.9,45,48.6,90.6c-2,17.3-7.5,31.4-15.3,44.5
			c-16,26.8-42.1,45.7-71.4,55.9c21.7-4.7,42.3-17.7,57.4-34.4c18.6-20.5,32.8-46.5,31.9-82.5c-1-38.9-25-61.2-49.6-78.9
			c0.3,0,0.8,0.2,0.9,0.2c26.8,13.1,47.1,36,51.3,71.3C244.8,164.2,208,205,173.9,226.2"/>
	</g>
</g>
</svg>
