<?xml version="1.0" encoding="utf-8"?>
<!-- Generator: Adobe Illustrator 25.3.1, SVG Export Plug-In . SVG Version: 6.00 Build 0)  -->
<!DOCTYPE svg PUBLIC "-//W3C//DTD SVG 1.1//EN" "http://www.w3.org/Graphics/SVG/1.1/DTD/svg11.dtd" [
	<!ENTITY ns_extend "http://ns.adobe.com/Extensibility/1.0/">
	<!ENTITY ns_ai "http://ns.adobe.com/AdobeIllustrator/10.0/">
	<!ENTITY ns_graphs "http://ns.adobe.com/Graphs/1.0/">
	<!ENTITY ns_vars "http://ns.adobe.com/Variables/1.0/">
	<!ENTITY ns_imrep "http://ns.adobe.com/ImageReplacement/1.0/">
	<!ENTITY ns_sfw "http://ns.adobe.com/SaveForWeb/1.0/">
	<!ENTITY ns_custom "http://ns.adobe.com/GenericCustomNamespace/1.0/">
	<!ENTITY ns_adobe_xpath "http://ns.adobe.com/XPath/1.0/">
]>
<svg version="1.1" id="Слой_1" xmlns:x="&ns_extend;" xmlns:i="&ns_ai;" xmlns:graph="&ns_graphs;"
	 xmlns="http://www.w3.org/2000/svg" xmlns:xlink="http://www.w3.org/1999/xlink" x="0px" y="0px" viewBox="0 0 256 256"
	 style="enable-background:new 0 0 256 256;" xml:space="preserve">
<style type="text/css">
	.st0{fill:#E20613;}
	.st1{fill:#FFEC00;}
</style>
<metadata>
	<sfw  xmlns="&ns_sfw;">
		<slices></slices>
		<sliceSourceBounds  bottomLeftOrigin="true" height="255.9" width="256" x="0" y="0.1"></sliceSourceBounds>
	</sfw>
</metadata>
<rect class="st0" width="256" height="255.9"/>
<g>
	<path class="st1" d="M112.9,113.5c0,0-1.8,1.9-6.2,2.5c-12.6,1.6-18.9,2.8-26.6,5.7c-8.5,3.1-18.9,9-19.7,14.6
		c-1.6,11,15.4,9,23.2,17.3c7.1,7.4,2.3,19.9,12.4,19.9c7.1,0,13-6.9,15.5-13.5c2.6-6.7,2.7-11.2,3.5-19.9
		c0.7-8.2,1.8-15.9,3.8-21.2c1.5-4,1.7-4.2,2.4-5.2c1.4-2.2,4.1-2.7,4.1-2.7s1.3,1.6,0.5,4.6c-3,11-2.2,29-2.7,42.5
		c-0.6,13.8-7.2,29.7-24.9,31.8c-6.8,0.8-15.4-1.1-19.2-9.9c-4-9.1-10.8-16.7-18.9-21.2c-6.8-3.7-14.5-10.6-13.1-22.3
		c1.6-13.4,18.2-21.7,29-23.7c14.1-2.6,22.7-2,29.1-1.9C110.6,111.1,112.9,113.5,112.9,113.5"/>
	<path class="st1" d="M132.5,123.9c0,0,1.9,1.8,2.5,6.2c1.6,12.6,2.8,18.9,5.7,26.6c3.1,8.5,9,18.9,14.6,19.7
		c11,1.6,9-15.4,17.3-23.2c7.4-7.1,19.9-2.3,19.9-12.4c0-7.1-6.9-13-13.5-15.5c-6.7-2.6-11.2-2.7-19.9-3.5
		c-8.2-0.7-15.9-1.8-21.2-3.8c-4-1.5-4.2-1.7-5.2-2.4c-2.2-1.4-2.7-4.1-2.7-4.1s1.6-1.3,4.6-0.5c11,3,29,2.2,42.5,2.7
		c13.8,0.6,29.7,7.2,31.8,24.9c0.8,6.8-1.1,15.4-9.9,19.2c-9.1,4-16.7,10.8-21.2,18.9c-3.7,6.8-10.6,14.5-22.3,13.1
		c-13.4-1.6-21.7-18.2-23.7-29c-2.6-14.1-2-22.7-1.9-29.1C130,126.3,132.5,123.9,132.5,123.9"/>
	<path class="st1" d="M123.4,94.1c0,0-1.9-1.8-2.5-6.2c-1.6-12.6-2.8-18.9-5.7-26.6c-3.1-8.5-9-18.9-14.6-19.7
		c-11-1.6-9,15.4-17.3,23.2c-7.4,7.1-19.9,2.3-19.9,12.4c0,7.1,6.9,13,13.5,15.5c6.7,2.6,11.2,2.7,19.9,3.5
		c8.2,0.7,15.9,1.8,21.2,3.8c4,1.5,4.2,1.7,5.2,2.4c2.2,1.4,2.7,4.1,2.7,4.1s-1.6,1.3-4.6,0.5c-11-3-29-2.2-42.5-2.7
		C65,103.6,49.1,97,47,79.3c-0.8-6.8,1.1-15.4,9.9-19.2c9.1-4,16.7-10.8,21.2-18.9c3.7-6.8,10.6-14.5,22.3-13.1
		c13.4,1.6,21.7,18.2,23.7,29c2.6,14.1,2,22.7,1.9,29.1C125.9,91.8,123.4,94.1,123.4,94.1"/>
	<path class="st1" d="M143.1,104.5c0,0,1.8-1.9,6.2-2.5c12.6-1.6,19-2.8,26.6-5.7c8.5-3.1,18.9-9,19.7-14.6c1.6-11-15.4-9-23.2-17.3
		c-7.1-7.4-2.3-19.9-12.4-19.9c-7.1,0-13,6.9-15.5,13.5c-2.6,6.7-2.7,11.2-3.5,19.9c-0.7,8.2-1.8,15.9-3.8,21.2
		c-1.5,4-1.7,4.2-2.4,5.2c-1.4,2.2-4.1,2.7-4.1,2.7s-1.3-1.6-0.5-4.6c3-11,2.2-29,2.7-42.5c0.6-13.8,7.2-29.7,24.9-31.8
		c6.8-0.8,15.4,1.1,19.2,9.9c4,9.1,10.8,16.7,18.9,21.2c6.8,3.7,14.5,10.6,13.1,22.3c-1.6,13.4-18.2,21.7-29,23.7
		c-14.1,2.6-22.7,2-29.1,1.9C145.4,107,143.1,104.5,143.1,104.5"/>
	<path class="st1" d="M133.2,183.4c0.4,3.7,0.3,3.8,0.8,7.6c1.6,13.3,17.8,32.7,17.8,32.7s-2.9,6.1-5.8,4
		c-2.2-1.6-30.2-26.6-19.8-57.1C128.5,172.1,132.4,176.2,133.2,183.4"/>
</g>
</svg>
