<?xml version="1.0" encoding="utf-8"?>
<!-- Generator: Adobe Illustrator 25.3.1, SVG Export Plug-In . SVG Version: 6.00 Build 0)  -->
<!DOCTYPE svg PUBLIC "-//W3C//DTD SVG 1.1//EN" "http://www.w3.org/Graphics/SVG/1.1/DTD/svg11.dtd" [
	<!ENTITY ns_extend "http://ns.adobe.com/Extensibility/1.0/">
	<!ENTITY ns_ai "http://ns.adobe.com/AdobeIllustrator/10.0/">
	<!ENTITY ns_graphs "http://ns.adobe.com/Graphs/1.0/">
	<!ENTITY ns_vars "http://ns.adobe.com/Variables/1.0/">
	<!ENTITY ns_imrep "http://ns.adobe.com/ImageReplacement/1.0/">
	<!ENTITY ns_sfw "http://ns.adobe.com/SaveForWeb/1.0/">
	<!ENTITY ns_custom "http://ns.adobe.com/GenericCustomNamespace/1.0/">
	<!ENTITY ns_adobe_xpath "http://ns.adobe.com/XPath/1.0/">
]>
<svg version="1.1" id="Layer_1" xmlns:x="&ns_extend;" xmlns:i="&ns_ai;" xmlns:graph="&ns_graphs;"
	 xmlns="http://www.w3.org/2000/svg" xmlns:xlink="http://www.w3.org/1999/xlink" x="0px" y="0px" viewBox="0 0 512 512"
	 style="enable-background:new 0 0 512 512;" xml:space="preserve">
<style type="text/css">
	.st0{fill:#EEDC00;}
	.st1{fill:#0246BB;}
	.st2{fill-rule:evenodd;clip-rule:evenodd;fill:#FFFFFF;}
	.st3{fill-rule:evenodd;clip-rule:evenodd;fill:#0246BB;}
</style>
<metadata>
	<sfw  xmlns="&ns_sfw;">
		<slices></slices>
		<sliceSourceBounds  bottomLeftOrigin="true" height="511.8" width="512" x="0" y="0.2"></sliceSourceBounds>
	</sfw>
</metadata>
<rect y="374.1" class="st0" width="512" height="137.7"/>
<rect y="0" class="st1" width="512" height="374.1"/>
<g>
	<path class="st2" d="M55.4,208h12.8c6.2,0,10.8-2.6,10.8-9.2c0-6.3-4.6-8.9-10.8-8.9H55.4V208 M55.4,183.6h9.7
		c7.4,0,12.4-1.1,12.4-8.1c0-7-5-8.1-12.4-7.8h-9.7V183.6z M47.7,214.3v-52.8h20.1c9.3,0,17.8,3.3,17.8,13.7c0,5.5-3.9,10-9.7,11.4
		c7.4,1.1,11.2,7,11.2,13.7c0,6.3-4.3,10.7-10.1,12.9c-2.7,1.1-6.2,1.1-9.3,1.1H47.7z"/>
	<path class="st2" d="M110.4,196.2c-4.3,0.4-10.4,1.8-10.4,7c0,4.8,3.5,7,7.7,7c8.5,0,10.1-7,10.1-14H110.4 M117.7,191.4
		c0-6.3-0.4-10-8.1-10c-3.9,0-7.3,1.8-7.3,5.9h-7.7c0.4-8.1,7-11.1,14.7-11.1c7.7,0,15.9,2.2,15.9,12.6v17.7c0,1.5,0,4.4,0,7.8h-4.6
		c-0.8,0-1.9,0.4-2.3-0.7c0-1.5,0-3.3-0.4-4.8c-2.3,4.4-6.6,6.6-12,6.6c-6.6,0-13.5-3.3-13.5-10.7c0-10.3,9.7-13.3,19-13.3H117.7z"
		/>
	<path class="st2" d="M141.7,182.9c2.3-4.8,7.7-6.6,11.6-6.6c2.7,0,14.7,0.7,14.7,12.6v25.5h-7.4V191c0-5.9-2.7-9.2-8.9-9.2
		c0,0-3.9-0.4-7,2.6c-1.2,1.1-3.1,2.6-3.1,10v19.9h-7.3v-36.9h7.3V182.9"/>
	<path class="st2" d="M198.9,189.2c-0.4-4.4-2.7-7.8-7.7-7.8c-7,0-9.7,5.9-9.7,14.4c0,8.5,2.7,14.4,9.7,14.4c5,0,7.7-3,8.1-8.1h7.4
		c-0.8,8.1-7,13.3-15.5,13.3c-12.4,0-17.4-8.5-17.4-19.2c0-10.7,5.8-19.9,17.8-19.9c8.1,0,14.3,4.8,14.7,12.9H198.9"/>
	<path class="st2" d="M229.1,210.2c8.9,0,11.6-6.6,11.6-14.4c0-7.8-2.7-14.4-11.6-14.4c-8.5,0-11.2,6.6-11.2,14.4
		C217.9,203.6,220.6,210.2,229.1,210.2 M248.5,195.8c0,11.4-6.6,19.6-19.3,19.6c-12.4,0-19-8.1-19-19.6c0-11.5,6.6-19.6,19-19.6
		C241.9,176.2,248.5,184.4,248.5,195.8z"/>
	<path class="st2" d="M278.2,185.1c5.8-0.4,8.5-3,8.5-6.6c0-4.1-2.7-6.7-8.5-7h-8.1v13.7H278.2 M254.6,214.3v-52.8h25.5
		c13.5,0,22.4,4.1,22.4,17c0,12.6-8.9,16.6-22.4,16.6h-10.1v19.2H254.6z"/>
	<path class="st2" d="M326.2,207.3c6.2,0,7.4-6.3,7.4-11.4s-1.2-11.5-7.4-11.5c-6.2,0-7.4,6.3-7.4,11.5S320,207.3,326.2,207.3
		 M348.6,195.8c0,13.7-10.4,19.6-22.4,19.6c-12,0-22.4-5.9-22.4-19.6c0-13.7,10.4-19.6,22.4-19.6
		C338.2,176.2,348.6,182.1,348.6,195.8z"/>
	<path class="st2" d="M373,188.8c0-1.5-0.4-2.2-1.2-3c-0.8-1.1-1.9-1.5-3.9-1.5c-1.9,0-3.5,1.1-3.5,3.3c0,2.6,5.8,2.6,15.1,5.2
		c4.6,1.5,7.7,4.1,7.7,10.3c0,9.6-9.7,12.2-18.6,12.2c-9.3,0-18.6-1.8-18.2-13.3h13.5c0,1.1,0.4,2.6,1.2,3.3
		c0.8,1.1,1.9,1.8,3.5,1.8c2.7,0,4.6-1.1,4.6-3.3c0-6.6-22.8-2.6-22.8-16.2c0-8.9,10.4-11.4,17.8-11.4c9.3,0,17.8,2.2,18.2,12.6H373
		"/>
	<path class="st2" d="M397.4,177.3v-5.5l14.7-5.2v10.7h8.1v8.9h-8.1v14.4c0,1.1-0.8,5.9,2.7,5.9c1.9,0,3.9,0,5.4-0.4v8.5
		c-3.1,0.4-5.4,0.7-7.7,0.7c-10.1,0-15.9-1.5-15.1-12.6v-16.6H390v-8.9H397.4"/>
	<path class="st2" d="M443,207.3c6.2,0,7-5.5,7-10.7c-3.1,0-6.2,0-8.1,0.7c-1.9,1.1-3.9,2.6-3.9,5.2C438,205,440.3,207.3,443,207.3
		 M450.4,214.3c-0.4-1.5-0.4-2.6-0.4-5.2c-1.6,2.6-5,6.3-12.4,6.3c-8.9,0-13.5-4.8-13.5-12.2c0-9.2,8.9-12.9,21.3-12.9h4.6
		c0-3,0.8-7.8-5-7.4c-3.5,0-4.6,3.3-4.6,5.5h-13.9c0-5.2,3.1-8.1,7-10c3.9-1.8,8.9-2.2,13.1-2.2c7.7,0,17.4,3.3,17,11.4v18.8
		c0,1.5,0.4,3.3,0.8,7.8H450.4z"/>
</g>
<g>
	<path class="st3" d="M233.8,445.7c0-1.5-0.5-3.4-1.5-4.9c-1-1.5-2.5-2.4-4.6-2.4c-5.1,0.5-6.1,3.4-6.6,7.3H233.8 M221.1,453
		c0,4.4,1,8.3,6.1,8.3c4.1,0,6.1-1.9,6.6-4.9h12.7c-0.5,4.4-3.1,7.3-6.6,9.2c-3.1,1.9-7.1,2.9-11.7,2.9c-14.3,0-19.9-5.8-19.9-19.4
		c0-11.2,8.1-17,19.4-17c14.8,0,19.4,7.8,19.4,20.9H221.1z"/>
	<path class="st3" d="M71.3,440.4c5.6-0.5,8.2-2.9,8.2-6.3c0-3.9-2.5-6.3-8.2-6.3h-7.1v12.6H71.3 M49.4,467.6V418h23.9
		c12.7,0,21.4,3.9,21.4,16.1c0,11.7-8.7,15.6-21.4,15.6h-9.2v18H49.4z"/>
	<path class="st3" d="M116.2,460.8c5.6,0,7.1-5.8,7.1-10.7c0-4.9-1.5-10.7-7.1-10.7c-5.6,0-7.1,5.8-7.1,10.7
		C109,454.9,110.6,460.8,116.2,460.8 M137.1,450.1c0,12.6-9.7,18.5-20.9,18.5c-11.2,0-20.9-5.8-20.9-18.5c0-12.6,9.7-18,20.9-18
		C127.4,432.1,137.1,437.4,137.1,450.1z"/>
	<path class="st3" d="M161,443.8c0-1.5-0.5-2.4-1-2.9c-0.5-1-2-1.5-3.6-1.5c-2,0-3.6,1.5-3.6,3.4c0,2.4,5.6,2.4,14.3,4.9
		c4.6,1.5,7.1,3.9,7.1,9.2c0,9.2-8.7,11.7-17.3,11.7c-8.7,0-17.3-1.9-17.3-12.2h13.2c-0.5,1,0,1.9,1,2.9c0.5,1,1.5,1.5,3.1,1.5
		c2.5,0,4.6-1,4.6-2.9c0-6.3-21.4-2.4-21.4-15.1c0-8.3,9.7-10.7,16.8-10.7c8.7,0,16.3,1.9,16.8,11.7H161"/>
	<path class="st3" d="M183.4,433.1v-5.4l13.8-4.9v10.2h7.6v8.3h-7.6v13.6c0,1-0.5,5.3,2.5,5.3c1.5,0,3.6,0,5.1,0v7.3
		c-3.1,1-5.1,1-7.1,1c-9.2,0-14.8-1.5-14.3-11.7v-15.6h-7.1v-8.3H183.4"/>
	<path class="st3" d="M252.2,417.5h8.2v7.3h-8.2V417.5z M252.2,417.5 M259.8,467.1h-7.1v-34.5h7.1V467.1z M252.7,467.1"/>
	<path class="st3" d="M270.5,432.6v-7.3l7.1-1.9v9.2h8.1v4.9h-8.1v22.4c0,2.4,2,3.4,4.6,3.4c1,0,2.5,0,3.6-0.5v5.4
		c-1.5,0-3.1,0-5.1,0c-1.5,0-2.5,0-4.6,0c-1-0.5-2.5-1-4.1-2.4c-1-1.5-1.5-1.9-1.5-6.3v-21.9h-6.1v-4.9H270.5"/>
	<path class="st3" d="M306.2,450.6c-4.6,0-10.2,1.5-10.2,6.3c0,4.4,3.6,6.8,7.1,6.8c8.2,0,9.7-6.8,9.7-13.1H306.2 M312.8,445.7
		c0-5.8-0.5-9.2-7.6-9.2c-3.6,0-6.6,1.9-6.6,5.4h-7.1c0-7.3,6.1-10.2,13.2-10.2c7.6,0,15.3,1.9,15.3,11.7v16.5c0,1.5,0,4.4,0,7.3
		h-4.6c-0.5,0-2,0.5-2-0.5c0-1.5,0-2.9-0.5-4.4c-2,4.4-6.1,5.8-11.2,5.8c-6.1,0-12.7-2.9-12.7-9.7c0-9.7,9.2-12.6,17.8-12.6H312.8z"
		/>
	<rect x="326.6" y="417.5" class="st1" width="6.6" height="49.6"/>
	<path class="st3" d="M341.3,417.5h8.1v7.3h-8.1V417.5z M341.3,417.5 M349,467.1h-7.1v-34.5h7.1V467.1z M341.8,467.1"/>
	<path class="st3" d="M371.9,450.6c-4.1,0-9.7,1.5-9.7,6.3c0,4.4,3.1,6.8,7.1,6.8c8.2,0,9.7-6.8,9.2-13.1H371.9 M378.5,445.7
		c0-5.8,0-9.2-7.6-9.2c-3.1,0-6.6,1.9-6.6,5.4h-7.1c0.5-7.3,6.6-10.2,13.8-10.2c7.1,0,14.8,1.9,14.8,11.7v16.5c0,1.5,0,4.4,0,7.3
		h-4.6c-0.5,0-1.5,0.5-1.5-0.5c-0.5-1.5-0.5-2.9-0.5-4.4c-2.5,4.4-6.6,5.8-11.7,5.8c-6.1,0-12.2-2.9-12.2-9.7
		c0-9.7,8.7-12.6,17.3-12.6H378.5z"/>
	<path class="st3" d="M399.4,437.9c2.5-4.4,7.6-6.3,11.2-6.3c2.5,0,13.8,0.5,13.8,11.7v23.8h-7.1v-21.4c0-5.8-2.5-9.2-8.1-9.2
		c0,0-3.6,0-6.6,2.9c-1,1-3.1,2.4-3.1,9.2v18.5h-6.6v-34.5h6.6V437.9"/>
	<path class="st3" d="M454.9,446.7c0.5-5.8-2.5-10.2-9.2-10.2c-5.6,0-8.7,4.4-8.7,10.2H454.9 M437.1,451.1c-0.5,6.3,2,12.6,8.7,12.6
		c5.6,0,8.1-1.9,9.2-7.3h7.1c-1,7.8-7.6,11.7-16.3,11.7c-11.7,0-16.3-7.8-16.3-18c0-9.7,5.6-18.5,16.8-18.5
		c11.2,0.5,16.3,6.8,16.3,16.5v2.9H437.1z"/>
</g>
</svg>
