<svg width="200" height="200" viewBox="0 0 200 200" fill="none" xmlns="http://www.w3.org/2000/svg">
<rect width="200" height="200" fill="white"/>
<path fill-rule="evenodd" clip-rule="evenodd" d="M91.6984 188.657C59.0313 186.01 34.907 169.947 34.907 146.485C34.907 136.438 39.4791 128.617 46.2773 122.24C51.5714 117.247 58.2492 113.036 65.5888 110.148C70.943 108.042 76.538 106.418 82.0727 105.395C89.4123 104.012 96.5714 103.651 102.708 103.651C118.169 103.711 139.225 109.125 152.882 120.375C160.883 126.993 166.538 135.475 166.538 146.304C166.538 169.165 142.955 185.409 111.07 188.357C104.452 188.958 98.3762 189.259 91.6984 188.657ZM91.0968 199.606C57.1061 196.538 32.0192 178.189 32.0192 151.238C32.0192 148.891 31.8989 146.545 32.2599 144.319C32.8615 140.048 34.3053 136.017 36.2305 132.407C39.6596 125.79 45.2545 120.435 51.7519 116.044C60.4751 110.148 71.3642 106.358 82.0727 104.312C89.2318 102.929 96.3307 102.508 102.768 102.508C111.732 102.568 121.357 104.072 130.442 106.959C136.939 109.005 143.136 111.772 148.55 115.382C151.498 117.367 154.325 119.292 156.732 121.759C159.379 124.406 161.845 126.993 163.71 130.242C165.455 133.31 166.779 136.137 167.621 139.807C168.042 141.492 168.283 143.296 168.583 145.402C168.764 146.966 168.523 149.673 168.583 151.238C168.583 177.467 144.399 195.816 111.251 199.246C104.392 199.967 98.0152 200.328 91.0968 199.606Z" fill="#293377"/>
<path fill-rule="evenodd" clip-rule="evenodd" d="M91.6987 188.657C59.0316 186.01 34.9072 169.947 34.9072 146.485C34.9072 136.438 39.4794 128.617 46.2775 122.24C51.5717 117.247 58.2495 113.036 65.589 110.148C70.9433 108.042 76.5382 106.418 82.073 105.395C89.4126 104.012 96.5716 103.651 102.708 103.651C118.169 103.711 139.225 109.125 152.882 120.375C160.883 126.993 166.538 135.475 166.538 146.304C166.538 169.165 142.955 185.409 111.07 188.356C104.453 188.958 98.3765 189.259 91.6987 188.657Z" fill="#DA7D10"/>
<path fill-rule="evenodd" clip-rule="evenodd" d="M93.5635 173.617C69.1384 171.632 51.1504 159.6 51.1504 141.973C51.1504 125.489 70.5822 111.893 95.4285 110.328C99.76 109.907 103.49 109.907 107.822 110.328C131.224 112.795 149.212 125.91 149.212 141.973C149.212 159.119 131.826 171.151 108.062 173.377C103.069 173.858 98.4966 174.098 93.5635 173.617ZM95.4285 110.81C71.0033 112.374 51.9926 125.489 51.9926 141.552C51.9926 158.457 69.8001 170.308 93.5635 172.294C98.5568 172.715 103.069 172.534 108.062 172.053C131.224 169.827 148.189 158.036 148.189 141.552C148.189 125.97 130.803 113.276 107.822 110.81C103.49 110.328 99.76 110.328 95.4285 110.81Z" fill="#293377"/>
<path fill-rule="evenodd" clip-rule="evenodd" d="M97.1731 143.116L97.5942 143.357L97.4137 153.824L96.9926 153.584L97.1731 143.116ZM100.121 135.776C102.828 135.776 104.934 136.859 104.934 138.423C104.934 139.747 102.828 141.07 100.121 141.07C97.4137 141.07 95.1276 139.747 95.1276 138.423C95.1276 136.919 97.4137 135.776 100.121 135.776ZM100.121 134.212C103.851 134.212 106.799 136.197 106.799 138.423C106.799 140.649 103.851 142.394 100.121 142.394C96.3308 142.394 93.2025 140.589 93.2025 138.423C93.2025 136.258 96.3308 134.212 100.121 134.212ZM109.325 134.212L115.402 129.76L115.823 130.001L110.589 134.212L112.454 134.453L125.208 121.759L105.355 130.181L106.378 133.49L120.395 124.586L120.816 124.827L106.979 134.032L109.325 134.212ZM105.956 145.101L113.296 148.651H113.477L106.378 144.199L106.558 143.116L125.99 155.569L126.17 155.328L107.581 142.635L113.236 141.973L129.118 157.554L105.535 146.906L105.956 145.101ZM100.121 115.803H99.5193L94.526 129.82L73.6504 121.157L73.4699 121.398L86.4044 134.754L60.1143 138.303V138.724L85.9832 142.033L69.0782 158.276L69.4993 158.697L94.165 147.327L99.5795 167.541H100.181L105.415 147.327L130.261 158.697L130.502 158.276L114.018 141.792L139.526 137.1V136.679L113.837 134.453L126.351 121.338L125.93 121.097L105.235 129.76L100.121 115.803ZM99.6998 116.705L106.197 134.513L135.856 136.979L106.197 142.514L99.6998 166.278L93.2025 142.514L61.6784 138.303L93.2025 134.513L99.6998 116.705ZM99.4592 143.597H100.061L99.8803 162.909L99.4592 162.668V143.597ZM97.1731 134.032H97.5942L97.4137 126.03H97.2332V134.032H97.1731ZM99.4592 133.791H100.061V119.774L99.4592 120.195V133.791ZM89.8937 136.679L90.0741 136.919L82.133 137.16V136.739H89.8937V136.679ZM69.018 138.664L91.5781 139.085V138.664L69.018 138.243V138.664ZM70.4618 157.554L93.8642 146.906L93.022 143.116L73.5902 155.569L73.1691 155.328L92.1797 142.635L90.3148 142.394L82.1931 147.929L81.5915 147.688L89.5327 142.334L86.8255 141.913L70.4618 157.554ZM94.2854 130.242L93.6838 131.806L86.5848 127.594H86.1637L93.4431 132.467L93.022 133.55L77.1396 123.564H76.7185L92.6009 134.032L87.1864 134.693L74.4324 121.819L94.2854 130.242ZM107.22 138.243L129.78 137.581V137.16L107.22 137.581V138.243Z" fill="#293377"/>
<path fill-rule="evenodd" clip-rule="evenodd" d="M44.7132 160.923H45.9766L53.4966 160.021L48.0822 164.292V165.195L46.8188 163.631H47.6611L51.6316 160.743L45.7961 161.405V161.886L44.7132 160.923ZM53.6771 120.556L54.9405 119.653L54.6998 120.315L55.5421 121.879L58.8509 121.639L59.8736 121.398L58.6103 122.962V122.3H55.903L56.7453 123.624H57.5875L56.5648 124.767V123.865L55.7226 122.3H52.5942L51.1504 122.721L52.5942 121.398L52.7747 121.819H55.3014L54.2787 120.496H53.6771V120.556ZM98.0755 183.784L98.9177 182.882L101.444 177.287H102.287L104.573 183.123L105.836 183.363L105.656 183.784H102.948L103.55 183.123L101.444 178.43L99.3389 183.363L99.9405 183.604L98.0755 183.784ZM147.046 120.315L146.023 119.413V119.653L141.632 120.977L141.03 120.736L142.293 121.879L142.113 121.458L146.505 120.315H147.046ZM148.55 121.879L147.708 120.736L147.527 121.157L143.136 122.3L142.534 122.06L143.797 123.203L143.617 122.962L148.009 121.639L148.55 121.879ZM131.224 178.189L131.645 177.528L129.961 171.03H130.382L136.458 175.061H137.902L135.194 176.385L135.375 175.482L130.803 172.594L132.066 177.287H133.329C132.487 177.708 132.066 178.189 131.465 178.43L131.224 178.189ZM64.9271 169.225L66.7921 170.369H65.9498L61.7988 175.061L62.4004 175.963H63.4231L67.5742 171.271L67.153 170.609L69.4391 171.512H68.5969L64.4458 176.445L65.4685 177.107L66.3108 177.347L73.4097 173.076L71.5448 179.152L71.9659 179.814L69.2587 178.911L70.2814 178.671L71.9659 174.159L66.7319 177.287L67.153 177.949C63.1825 176.806 59.8736 174.58 59.8736 174.58L60.8963 174.339L65.0474 169.827L64.9271 169.225ZM78.2827 112.013L76.4177 112.675L76.5982 112.254L74.9137 111.772L74.4926 113.096H75.0942L73.6504 113.758L74.0715 113.096L74.4926 111.772L71.9659 110.87H71.1236L72.8081 110.208V110.449L74.6731 111.111L75.0942 109.787H74.252L75.5153 109.125L75.0942 111.171L77.1998 112.073H78.2827V112.013ZM98.0755 184.025C95.9699 184.025 94.1049 183.784 94.1049 183.784L95.1276 183.544V177.708L94.526 177.287H97.4739L96.6316 177.708V183.303L97.6544 183.724L98.0755 184.025ZM41.1637 140.709H46.9993L47.6009 140.228L47.4204 139.326L44.7132 138.423L41.8255 139.326L40.9833 140.228L41.1637 140.709ZM41.4044 137.581L42.006 136.017L42.4271 136.919L44.7132 137.822L48.022 136.679L48.6236 135.776L48.2025 137.581L47.7814 137.1L45.4953 138.243L47.3603 139.145L47.9619 138.724L47.5407 142.093L47.1196 141.612H41.0434L40.2012 142.274L41.0434 138.484L41.645 138.905C42.4873 138.905 43.9311 138.002 43.9311 138.002L42.0661 137.1L41.4044 137.581ZM159.379 137.16V135.596L158.958 136.017L152.942 135.776L152.521 135.295L152.701 136.859L152.882 136.438L158.898 136.679L159.379 137.16ZM160.582 140.95V139.627L159.981 140.048L154.145 139.807L153.543 139.326L153.724 140.89L154.145 140.469L159.981 140.709L160.582 140.95ZM159.981 138.905V137.581L159.559 138.002L153.543 137.762L152.942 137.34L153.122 138.905L153.543 138.484L159.559 138.724L159.981 138.905ZM97.6544 107.742L98.6771 108.644L98.4966 109.065L100.181 108.824L99.5795 108.584L98.1357 107.02H98.3763L100.061 105.455H98.6169L99.0381 105.696L98.0153 106.839L96.752 105.516L95.3081 105.756L96.1504 106.177L97.5942 107.32L96.1504 108.644L95.5487 109.065H96.9926L96.5715 108.644L97.8348 107.501V107.742H97.6544ZM76.5982 109.065L78.0421 108.403V108.824L80.1477 111.05L80.7493 111.291L78.8843 111.712L79.3054 111.471L77.1998 109.005H76.5982V109.065ZM43.6905 159.119H44.7132L50.5488 156.652L50.7894 155.75L51.6316 157.554L50.7894 157.314L44.9538 159.78L44.7734 160.683C44.2921 160.021 43.6905 159.119 43.6905 159.119ZM41.8255 154.847L43.0889 155.088L48.5033 152.862L48.9244 151.959L49.7667 153.764L48.9244 153.524L43.0889 155.569L42.6678 156.712C42.2466 155.99 41.8255 154.847 41.8255 154.847ZM42.6678 157.073L43.9311 157.314L49.3456 154.847L49.7667 153.945L50.6089 155.75L50.0073 155.509L43.9913 157.735L43.5702 158.637C43.0889 157.975 42.6678 157.073 42.6678 157.073Z" fill="#293377"/>
<path fill-rule="evenodd" clip-rule="evenodd" d="M104.452 189.56H101.143V191.124H104.452V189.56ZM100.903 103.41H99.6392V102.748H100.903V103.41ZM96.7515 189.56H100.301V191.124H96.7515V189.56ZM92.5403 189.319L95.6686 189.56V191.124L92.3598 190.883L92.5403 189.319ZM88.3892 190.402V188.838L91.5175 189.259L91.3371 190.582L88.3892 190.402ZM84.0577 189.981L84.2983 188.417L87.4266 188.838L87.2462 190.402L84.0577 189.981ZM80.0871 189.319L80.2676 187.755L83.3959 188.176L82.9748 189.74L80.0871 189.319ZM75.936 188.236L76.3571 186.913L79.6659 187.574L79.0643 189.139L75.936 188.236ZM72.2061 187.334L72.6272 185.77L75.7555 186.672L75.1539 187.996L72.2061 187.334ZM68.4159 185.95L68.8371 184.627L71.9654 185.709L71.3638 187.033L68.4159 185.95ZM64.9266 184.867L65.5283 183.544L68.2355 184.446L67.6339 185.77L64.9266 184.867ZM61.3772 183.303L61.9788 181.979L64.686 183.303L63.8438 184.386L61.3772 183.303ZM58.0684 181.739L58.9106 180.656L61.3772 181.739L60.5349 183.062L58.0684 181.739ZM54.94 180.175L55.7823 178.851L58.2488 180.175L57.4066 181.498L54.94 180.175ZM51.9922 178.43L52.8344 177.287L55.1205 178.43L54.0978 179.754L51.9922 178.43ZM49.2849 176.385L50.1272 175.302L52.2328 176.866L51.3906 177.949L49.2849 176.385ZM46.5777 174.399L47.6004 173.256L49.7061 174.82L48.6833 175.903L46.5777 174.399ZM44.2916 172.414L45.555 171.271L47.2395 172.835L46.2168 173.918L44.2916 172.414ZM42.0055 170.188L43.4494 169.286L45.1339 170.85L43.69 171.933L42.0055 170.188ZM40.1406 167.962L41.5844 167.06L43.0283 168.865L41.5844 169.767L40.1406 167.962ZM38.5162 165.496L39.7796 164.834L41.2234 166.398L39.7796 167.481L38.5162 165.496ZM37.0122 163.51L38.4561 162.608L39.7194 164.352L38.2756 165.255L37.0122 163.51ZM35.809 161.044L37.2529 160.382L38.2756 162.187L36.8317 162.848L35.809 161.044ZM34.7261 158.637L36.17 158.216L37.0122 160.021L35.5684 160.683L34.7261 158.637ZM34.1245 156.411L35.5684 155.75L36.17 157.554L34.7261 158.216L34.1245 156.411ZM33.5229 153.945L34.9668 153.524L35.3879 155.328L33.944 155.75L33.5229 153.945ZM32.8611 151.478L34.5456 151.057L34.9668 152.862L33.2823 153.283L32.8611 151.478ZM32.6807 149.012L34.3652 148.771V150.576L32.9213 150.997L32.6807 149.012ZM32.6807 148.59V146.786L34.1245 146.545V148.109L32.6807 148.59ZM32.6807 146.124V144.319H34.1245V145.883L32.6807 146.124ZM32.8611 143.898L33.0416 142.153H34.4855L34.305 143.898H32.8611ZM33.1018 141.672L33.5229 139.867H34.9668L34.5456 141.672H33.1018ZM33.7034 139.266L34.1245 137.701H35.5684L35.1472 139.266H33.7034ZM34.3652 137.04L35.2074 135.475H36.2301L35.809 137.04H34.3652ZM35.1472 134.814L36.17 133.25H37.1927L36.5911 134.814H35.1472ZM36.2301 132.768L37.2529 130.963L38.5162 131.204L37.4935 132.768H36.2301ZM37.674 130.542L38.6967 128.978L39.7194 129.219L38.6967 130.783L37.674 130.542ZM38.9373 128.557L40.2007 126.993L41.043 127.234L40.0202 128.798L38.9373 128.557ZM40.3812 126.572L41.825 125.008L42.6673 125.429L41.4039 126.752L40.3812 126.572ZM42.0055 124.767L43.4494 123.203L44.2916 123.443L42.8478 125.008L42.0055 124.767ZM43.8705 122.782L45.3144 121.458L45.916 121.879L44.6526 123.203L43.8705 122.782ZM45.7956 120.977L47.2395 119.653L47.8411 120.074L46.3972 121.398L45.7956 120.977ZM47.8411 119.473L49.2849 118.33L49.8865 118.57L48.4427 119.713L47.8411 119.473ZM49.7061 117.909L51.3906 116.585L51.9922 117.006L50.3077 118.149L49.7061 117.909ZM51.8117 116.344L53.6766 115.262L54.2782 115.502L52.5938 116.826L51.8117 116.344ZM54.2782 114.78L55.9627 113.637L56.5643 114.058L54.8799 115.201L54.2782 114.78ZM56.5643 113.457L58.2488 112.314L58.8504 112.735L57.1659 113.818L56.5643 113.457ZM58.8504 112.073L60.7154 111.171L61.317 111.592L59.452 112.494L58.8504 112.073ZM61.5577 110.99L63.2422 110.088L63.6633 110.509L61.9788 111.411L61.5577 110.99ZM63.8438 109.847L65.9494 108.945L66.3705 109.366L64.2649 110.328L63.8438 109.847ZM66.551 108.764L68.6566 108.103L69.0777 108.524L66.9721 109.185L66.551 108.764ZM69.2582 107.862L71.1232 107.2L71.5443 107.621L69.6793 108.283L69.2582 107.862ZM71.9654 106.959L73.8304 106.298L74.2515 106.719L72.3865 107.381L71.9654 106.959ZM74.4921 106.298L76.3571 105.636L76.7782 106.057L74.9133 106.719L74.4921 106.298ZM76.9587 105.636L79.0643 105.215L79.305 105.636L77.44 106.057L76.9587 105.636ZM79.4855 104.974L81.5911 104.553L81.8317 104.974L79.9668 105.395L79.4855 104.974ZM81.952 104.553L83.9975 104.132L84.2381 104.553L82.3732 104.974L81.952 104.553ZM97.5336 102.748H99.2181V103.41H97.5336V102.748ZM84.4788 104.072L86.7649 103.651L86.9454 104.312L84.8397 104.553L84.4788 104.072ZM87.186 103.651L89.2916 103.41L89.4721 103.831L87.6071 104.072L87.186 103.651ZM89.8932 103.41L91.7582 103.169L92.1793 103.59L90.0737 103.831L89.8932 103.41ZM92.3598 103.169L94.2248 102.929L94.6459 103.35L92.7809 103.59L92.3598 103.169ZM95.067 102.989H96.932V103.41H95.067V102.989ZM108.603 189.319L105.294 189.56L105.475 191.124L108.603 190.883V189.319ZM112.754 190.402L112.574 188.838L109.686 189.259V190.582L112.754 190.402ZM117.086 189.981L116.905 188.417L113.596 188.838L113.777 190.402L117.086 189.981ZM121.056 189.319L120.635 187.755L117.507 188.176L117.928 189.74L121.056 189.319ZM125.027 188.236L124.606 186.913L121.477 187.574L122.079 189.139L125.027 188.236ZM128.937 187.334L128.516 185.77L125.388 186.672L125.809 187.996L128.937 187.334ZM132.727 185.95L132.126 184.627L129.238 185.709L129.84 187.033L132.727 185.95ZM136.217 184.867L135.615 183.544L132.727 184.446L133.57 185.77L136.217 184.867ZM139.766 183.303L138.924 181.979L136.397 183.303L136.999 184.386L139.766 183.303ZM142.895 181.739L142.293 180.656L139.586 181.739L140.428 183.062L142.895 181.739ZM146.203 180.175L145.361 178.851L142.834 180.175L143.436 181.498L146.203 180.175ZM149.151 178.43L148.128 177.287L146.023 178.43L146.865 179.754L149.151 178.43ZM151.858 176.385L150.836 175.302L148.73 176.866L149.753 177.949L151.858 176.385ZM154.566 174.399L153.543 173.256L151.257 174.82L152.52 175.903L154.566 174.399ZM156.852 172.414L155.588 171.271L153.723 172.835L154.987 173.918L156.852 172.414ZM158.897 170.188L157.634 169.286L155.949 170.85L157.393 171.933L158.897 170.188ZM161.003 167.962L159.559 167.06L157.874 168.865L159.318 169.767L161.003 167.962ZM162.687 165.496L161.243 164.834L159.8 166.398L161.484 167.481L162.687 165.496ZM163.891 163.51L162.627 162.608L161.364 164.352L162.808 165.255L163.891 163.51ZM165.154 161.044L163.891 160.382L162.868 162.187L164.312 162.848L165.154 161.044ZM166.177 158.637L164.733 158.216L163.891 160.021L165.334 160.683L166.177 158.637ZM167.019 156.411L165.575 155.75L164.973 157.554L166.417 158.216L167.019 156.411ZM167.681 153.945L166.237 153.524L165.635 155.328L167.32 155.75L167.681 153.945ZM168.042 151.478L166.598 151.057L166.177 152.862L167.861 153.283L168.042 151.478ZM168.282 149.012L166.838 148.771L166.658 150.576L168.342 150.997V149.012H168.282ZM168.463 148.59V146.786L166.778 146.545V148.109L168.463 148.59ZM168.463 146.124L168.282 144.319H166.838V145.883L168.463 146.124ZM168.282 143.898L167.861 142.153H166.598L166.778 143.898H168.282ZM167.861 141.672L167.44 139.867H166.177L166.357 141.672H167.861ZM167.44 139.266L166.838 137.701H165.334L165.936 139.266H167.44ZM166.838 137.04L165.996 135.475H164.733L165.334 137.04H166.838ZM165.755 134.814L164.913 133.25H163.65L164.492 134.814H165.755ZM164.733 132.768L163.71 130.963L162.687 131.204L163.53 132.768H164.733ZM163.469 130.542L162.447 128.978L161.424 129.219L162.266 130.783L163.469 130.542ZM162.266 128.557L161.003 126.993L159.98 127.234L161.003 128.798L162.266 128.557ZM160.582 126.572L159.318 125.008L158.476 125.429L159.739 126.752L160.582 126.572ZM158.897 124.767L157.634 123.203L156.792 123.443L158.055 125.008L158.897 124.767ZM157.273 122.782L155.829 121.458L154.987 121.879L156.431 123.203L157.273 122.782ZM155.408 120.977L153.723 119.653L153.122 120.074L154.806 121.398L155.408 120.977ZM153.302 119.473L151.858 118.33L151.257 118.57L152.701 119.713L153.302 119.473ZM151.197 117.909L149.753 116.585L148.911 117.006L150.595 118.149L151.197 117.909ZM149.151 116.344L147.467 115.262L146.624 115.502L148.489 116.826L149.151 116.344ZM146.865 114.78L145.181 113.637L144.579 114.058L146.264 115.201L146.865 114.78ZM144.579 113.457L142.714 112.314L142.293 112.735L143.977 113.818L144.579 113.457ZM142.052 112.073L140.187 111.171L139.766 111.592L141.631 112.494L142.052 112.073ZM139.586 110.99L137.901 110.088L137.48 110.509L139.165 111.411L139.586 110.99ZM137.3 109.847L135.194 108.945L134.773 109.366L136.879 110.268L137.3 109.847ZM134.352 108.764L132.487 108.103L131.885 108.524L133.991 109.185L134.352 108.764ZM131.885 107.862L129.78 107.2L129.358 107.621L131.464 108.283L131.885 107.862ZM128.937 106.959L127.072 106.298L126.651 106.719L128.757 107.381L128.937 106.959ZM126.651 106.298L124.546 105.636L124.365 106.057L126.23 106.719L126.651 106.298ZM124.185 105.636L122.079 105.215L121.899 105.636L123.764 106.057L124.185 105.636ZM121.477 104.974L119.612 104.553L119.191 104.974L121.297 105.395L121.477 104.974ZM119.011 104.553L116.905 104.132L116.725 104.553L118.83 104.974L119.011 104.553ZM103.61 102.748H101.925V103.41H103.369L103.61 102.748ZM116.484 104.072L114.378 103.651L114.198 104.312L116.243 104.553L116.484 104.072ZM113.777 103.651L111.912 103.41L111.731 103.831L113.596 104.072L113.777 103.651ZM111.31 103.41L109.445 103.169L109.024 103.59L111.13 103.831L111.31 103.41ZM108.784 103.169L106.738 102.929L106.558 103.35L108.423 103.59L108.784 103.169ZM106.076 102.989H104.211L103.971 103.41H105.836L106.076 102.989Z" fill="#DA7D10"/>
<path fill-rule="evenodd" clip-rule="evenodd" d="M102.106 132.768L101.925 133.009C102.767 133.009 104.211 133.43 104.993 134.332C105.835 135.235 106.618 137.22 107.46 137.22C108.302 137.22 115.04 137.461 116.484 137.461C118.108 137.701 120.815 137.04 122.62 138.604C124.485 140.168 128.396 141.973 129.599 142.153C130.802 142.394 132.065 142.574 132.065 142.574C132.065 142.574 132.246 141.251 132.065 140.108C131.644 138.965 131.043 131.385 130.02 129.64C128.997 128.076 127.132 126.512 125.929 126.271C124.726 126.03 122.861 126.03 123.041 125.188C123.462 124.286 124.485 124.286 124.666 122.962C125.087 121.819 124.245 118.931 123.823 116.946C123.402 114.961 121.537 110.028 119.492 108.042C117.446 106.057 115.822 103.109 114.799 102.447C112.934 100.883 110.708 96.8525 107.821 96.1907C106.979 94.8672 106.196 93.5437 105.535 92.4006C105.114 95.0477 105.114 98.6573 105.715 101.304C106.136 103.29 106.317 108.463 105.896 110.449C105.294 112.254 104.632 113.336 104.632 114.239C104.632 115.562 102.346 121.578 101.985 123.804C101.564 126.03 102.406 127.354 102.406 128.677C102.527 129.881 102.527 131.685 102.106 132.768ZM168.342 144.139C167.741 143.778 167.019 143.477 166.658 143.477C165.815 143.477 160.521 142.574 160.521 142.574C160.521 142.574 157.032 141.672 156.611 140.589C156.009 139.446 154.746 137.942 155.588 137.701C156.43 137.461 160.521 137.461 160.521 137.461C160.521 137.461 163.168 137.461 164.432 137.701C164.973 137.882 166.237 138.243 167.199 138.544C167.741 140.348 167.981 142.213 168.342 144.139ZM148.85 186.492C148.309 182.701 147.587 178.069 147.286 175.362C147.286 175.362 140.307 171.812 135.976 171.151C131.644 170.489 124.666 168.022 126.11 166.278C127.373 164.713 127.975 163.631 129.599 163.631C131.464 163.631 133.269 164.292 134.291 165.195C135.555 166.097 140.668 166.759 141.872 167.421C143.075 167.902 148.429 169.406 149.873 169.225C151.076 168.985 154.987 168.985 154.987 168.985C155.829 168.082 156.611 167.18 157.453 166.097C157.453 166.097 147.827 161.405 144.519 159.179C141.45 156.953 136.277 152.501 135.254 152.501C133.991 152.501 130.922 150.275 127.433 148.951C126.17 148.53 123.703 146.725 121.477 145.823C116.965 143.838 112.032 142.274 111.19 142.274C109.565 142.274 104.392 141.371 103.369 140.95C102.346 140.288 97.5935 139.627 96.1496 140.048C96.1496 140.048 93.8635 141.852 93.0815 141.131C92.6603 140.89 93.2619 138.664 93.5026 138.002C93.0815 138.002 92.4799 138.243 92.0587 138.423C91.6376 138.844 91.4571 138.664 91.036 138.664C90.1938 138.664 88.9906 138.243 89.4117 137.34C90.0133 136.017 90.8555 135.776 92.2994 134.453C93.9237 133.31 95.6082 132.648 95.9692 131.565C96.3903 130.242 98.0146 122.842 98.0146 122.842C98.0146 118.39 98.1951 113.697 98.1951 109.246C98.3756 106.598 98.6162 103.47 98.7967 100.763C98.1951 98.1159 97.9545 95.6493 97.9545 93.4234C98.1349 89.8739 98.7967 86.2643 98.7967 82.2937C97.5333 77.8418 96.1496 72.9087 94.8863 68.2161C93.8635 61.2977 95.3074 52.394 94.2847 47.2803C90.3742 53.9581 86.4638 62.0196 83.9972 69.5998C83.8168 70.021 83.8168 70.5022 83.8168 70.9234C84.2379 72.4875 85.2606 75.6159 85.2606 77.8418C85.2606 79.1653 84.8395 80.3084 83.2151 80.3084C82.0119 79.6466 81.5908 77.6613 81.5908 74.7135C81.5908 70.9234 82.4331 65.8097 83.2151 61.5383C84.0574 57.3271 84.4785 53.9581 84.8395 52.394C84.8395 51.9127 85.02 51.7322 85.2606 51.2509C89.5921 46.1373 88.7499 35.8498 91.6376 29.5932C94.1042 28.029 96.5708 26.4648 99.0373 24.9007C99.4585 23.7576 100.06 22.6747 99.8796 21.7723C99.8796 21.1105 99.4585 20.6293 99.0373 19.9675C98.1951 19.3057 98.1951 18.8846 98.0146 17.7416C97.8341 13.7108 96.9919 9.49959 97.5935 4.38595C97.5935 3.96483 97.774 3.48354 98.0146 3.06242C98.6162 2.16002 99.4585 0.836487 100.481 0.355203C101.083 -0.0659195 101.323 -0.0659204 101.925 0.114561C104.993 1.67873 106.257 5.70948 106.618 9.49959C106.618 10.1614 106.618 10.6426 106.437 11.3044C105.234 14.1921 103.549 16.418 103.79 19.5464C106.678 24.66 112.032 20.6894 114.258 25.8031C115.461 32.0597 116.544 38.3164 117.928 44.7536C121.237 51.672 120.575 60.5758 122.861 68.8177C123.282 70.1413 123.884 71.2843 124.064 72.3672C123.222 73.9314 122.62 75.4956 122.199 76.5784C119.552 79.045 118.71 77.7215 118.529 75.2549C118.349 71.7054 119.552 65.8699 119.552 63.4635C118.108 59.2522 116.063 54.7402 114.017 50.2883C112.754 46.9194 111.37 43.8512 110.528 40.9033C109.505 44.6934 108.483 49.3859 107.46 52.9354C107.039 54.7402 108.483 56.7255 109.325 57.8686C109.926 58.5303 110.167 58.771 110.348 59.6734C111.37 66.1105 110.347 71.2843 108.723 77.7215C110.347 81.7522 112.032 85.5424 113.656 89.3325C115.281 91.1373 117.146 92.7014 119.191 94.2656C119.793 94.6867 120.214 94.9274 120.635 95.8298C122.079 98.9581 123.523 102.086 125.388 104.974C125.388 104.974 125.568 106.779 126.591 108.343C127.614 109.907 129.9 111.712 130.682 112.554C131.524 113.216 130.501 115.021 130.08 116.104C129.238 117.247 128.877 118.992 128.877 120.796C128.275 122.12 128.275 123.925 129.9 123.684C130.922 123.925 133.389 123.263 134.231 123.263C135.254 123.263 135.495 124.165 135.495 124.165C135.495 124.165 135.495 127.534 135.675 128.377C135.856 129.279 139.766 132.407 140.789 133.31C141.811 134.453 142.413 140.649 142.654 142.213C142.834 143.537 145.541 144.439 146.564 145.101C147.587 145.763 149.632 146.425 151.257 146.425C152.881 146.425 160.1 148.651 162.146 149.072C163.65 149.433 167.259 150.395 168.462 150.756C168.462 150.937 168.462 151.117 168.462 151.298C168.643 165.856 161.183 178.009 148.85 186.492Z" fill="#293377"/>
</svg>
