<?xml version="1.0" encoding="utf-8"?>
<!-- Generator: Adobe Illustrator 25.3.1, SVG Export Plug-In . SVG Version: 6.00 Build 0)  -->
<!DOCTYPE svg PUBLIC "-//W3C//DTD SVG 1.1//EN" "http://www.w3.org/Graphics/SVG/1.1/DTD/svg11.dtd" [
	<!ENTITY ns_extend "http://ns.adobe.com/Extensibility/1.0/">
	<!ENTITY ns_ai "http://ns.adobe.com/AdobeIllustrator/10.0/">
	<!ENTITY ns_graphs "http://ns.adobe.com/Graphs/1.0/">
	<!ENTITY ns_vars "http://ns.adobe.com/Variables/1.0/">
	<!ENTITY ns_imrep "http://ns.adobe.com/ImageReplacement/1.0/">
	<!ENTITY ns_sfw "http://ns.adobe.com/SaveForWeb/1.0/">
	<!ENTITY ns_custom "http://ns.adobe.com/GenericCustomNamespace/1.0/">
	<!ENTITY ns_adobe_xpath "http://ns.adobe.com/XPath/1.0/">
]>
<svg version="1.1" id="Слой_1" xmlns:x="&ns_extend;" xmlns:i="&ns_ai;" xmlns:graph="&ns_graphs;"
	 xmlns="http://www.w3.org/2000/svg" xmlns:xlink="http://www.w3.org/1999/xlink" x="0px" y="0px" viewBox="0 0 256 256"
	 style="enable-background:new 0 0 256 256;" xml:space="preserve">
<style type="text/css">
	.st0{fill:#F07E15;}
	.st1{fill:#2E8D2D;}
</style>
<metadata>
	<sfw  xmlns="&ns_sfw;">
		<slices></slices>
		<sliceSourceBounds  bottomLeftOrigin="true" height="231.2" width="60.3" x="97.9" y="12.4"></sliceSourceBounds>
	</sfw>
</metadata>
<g>
	<path class="st0" d="M131.5,12.4c1.7,1.7,3.8,3.1,5.1,5.1c9.9,15.3,17.9,31.4,20.8,49.5c1.9,11.5,0.2,22.4-8.1,31.4
		c-3.3,3.6-7.1,6.7-10.7,10c-6.2,5.7-9.5,12.6-9,21.2c0.1,1.3-0.2,2.7-0.3,4.4c-0.7-0.4-1-0.5-1.2-0.8c-3.4-5.4-6.6-11-8.1-17.2
		c-2.2-8.7,0.3-16.2,6.6-22.4c3.3-3.3,6.9-6.4,10.4-9.5c6.8-6.2,8.7-13.9,7.3-22.6c-0.6-3.6-1.6-7.2-2.5-10.8c-0.2,0-0.4,0-0.6,0.1
		c-0.1,0.9-0.3,1.8-0.4,2.7c-1.1,7.1-4.9,12.7-9.9,17.6c-4.1,4-8.5,7.8-12.7,11.7c-4.2,4-7.7,8.6-8.8,14.5c-0.9,4.8,0,9.5,1.7,14
		c1,2.5,2,5,3.2,8c-5.7-5.7-11.5-10.9-14.4-18.2c-4-10.1-2.9-23,7.2-32.2c3.1-2.8,6.2-5.8,9.2-8.8c7.5-7.6,11.1-16.9,12-27.3
		c0.4-4.8,0.3-9.7,0.4-14.6c0.1-2,0.1-4,1.7-5.5C130.8,12.4,131.2,12.4,131.5,12.4z"/>
	<path class="st1" d="M99.6,124.3c4.8,13.2,16.3,19.8,28,19.7c12.5-0.1,24.1-7.6,28.2-20.9c2.9,7.5,1.4,20.5-8.7,29
		c-10.4,8.8-26,9.3-37.1,1.1C99.2,145.4,96.9,132.5,99.6,124.3z"/>
	<path class="st1" d="M128.7,243.3c0.7-23.9,1.4-47.8,2.2-71.7c7.6-2.4,14.9-5,17.9-13.5c-0.2,1.8-0.3,3.7-0.7,5.5
		c-3.9,20.6-7.7,41.3-11.8,61.9c-0.9,4.5-2.4,8.8-3.9,13.2c-0.6,1.8-2.1,3.3-3.2,5C129.1,243.5,128.9,243.4,128.7,243.3z"/>
	<path class="st1" d="M120.4,237.3c-0.9-2.5-2.2-5-2.7-7.6c-2-9.1-4-18.1-5.6-27.2c-2.3-13.1-4.2-26.3-6.2-39.5
		c-0.4-2.7-0.6-5.5-0.6-8.4c0.3,1,0.6,2,1,2.9c1.8,4.7,5,8.3,9,11.2c0.9,0.7,1.2,1.3,1.3,2.4c1,14.9,2,29.7,3,44.6
		c0.5,7.1,0.9,14.2,1.4,21.3C120.8,237.2,120.6,237.2,120.4,237.3z"/>
</g>
</svg>
