<?xml version="1.0" encoding="utf-8"?>
<!-- Generator: Adobe Illustrator 25.3.1, SVG Export Plug-In . SVG Version: 6.00 Build 0)  -->
<!DOCTYPE svg PUBLIC "-//W3C//DTD SVG 1.1//EN" "http://www.w3.org/Graphics/SVG/1.1/DTD/svg11.dtd" [
	<!ENTITY ns_extend "http://ns.adobe.com/Extensibility/1.0/">
	<!ENTITY ns_ai "http://ns.adobe.com/AdobeIllustrator/10.0/">
	<!ENTITY ns_graphs "http://ns.adobe.com/Graphs/1.0/">
	<!ENTITY ns_vars "http://ns.adobe.com/Variables/1.0/">
	<!ENTITY ns_imrep "http://ns.adobe.com/ImageReplacement/1.0/">
	<!ENTITY ns_sfw "http://ns.adobe.com/SaveForWeb/1.0/">
	<!ENTITY ns_custom "http://ns.adobe.com/GenericCustomNamespace/1.0/">
	<!ENTITY ns_adobe_xpath "http://ns.adobe.com/XPath/1.0/">
]>
<svg version="1.1" id="Layer_1" xmlns:x="&ns_extend;" xmlns:i="&ns_ai;" xmlns:graph="&ns_graphs;"
	 xmlns="http://www.w3.org/2000/svg" xmlns:xlink="http://www.w3.org/1999/xlink" x="0px" y="0px" viewBox="0 0 512 512"
	 style="enable-background:new 0 0 512 512;" xml:space="preserve">
<style type="text/css">
	.st0{fill-rule:evenodd;clip-rule:evenodd;fill:#46A1B8;}
	.st1{fill-rule:evenodd;clip-rule:evenodd;fill:#FFFFFF;}
</style>
<metadata>
	<sfw  xmlns="&ns_sfw;">
		<slices></slices>
		<sliceSourceBounds  bottomLeftOrigin="true" height="511.9" width="511.8" x="0.1" y="0"></sliceSourceBounds>
	</sfw>
</metadata>
<rect x="0.1" y="0.1" class="st0" width="511.8" height="511.9"/>
<g>
	<g id="g24" transform="matrix(1.8361659,0,0,1.8361659,185.25281,63.104032)">
		<path id="path26" class="st1" d="M55.2,114.2c-10.2,14.2-16.3,31.1-16.3,49H38c0-18-6-34.9-16.2-49H-8.5
			c15.1,11.8,24.3,29.8,24.3,49c0,19.4-9.2,37.4-24.5,49.2h94.4c-15.3-11.7-24.5-29.8-24.5-49.2c0-19.3,9.1-37.2,24.3-49L55.2,114.2
			"/>
	</g>
	<g id="g28" transform="matrix(1.8361659,0,0,1.8361659,163.64058,80.524652)">
		<path id="path30" class="st1" d="M-8.8,43.7l0,1l-1,0c-30.1,0.4-55.5,27.5-55.5,59.1c0,16,6.3,31.1,17.6,42.5
			C-36.2,157.7-21,163.9-5,163.9c5.9,0,12-1,17.9-2.9c0.1-1.2,0.6-7.3,0.6-7.3c0-7-1.5-13.6-4.4-20c-4.4,2.1-9,3.3-14.2,3.3
			c-8.9,0-17.3-3.5-23.6-9.8c-6.3-6.3-9.8-14.7-9.8-23.5c0-8.9,3.5-17.3,9.7-23.5c6.3-6.3,14.6-9.7,23.6-9.7
			c8.4,0,13.7,1.6,18.8,3.4c0,0,7.2,2.8,11,4.3c-1.2-3.1-4.3-11-4.3-11C18.6,62.1,17,56.8,17,48.4c0-8.9,3.5-17.3,9.8-23.6
			c6.3-6.3,14.6-9.7,23.5-9.7c8.9,0,17.3,3.5,23.6,9.7c6.3,6.3,9.8,14.7,9.8,23.6c0,8.3-1.5,13.4-3.4,18.8c0,0-2.8,7.2-4.3,11
			c3.1-1.2,10.9-4.3,10.9-4.3c5.3-1.9,10.4-3.4,18.8-3.4c8.9,0,17.3,3.5,23.5,9.7c6.3,6.3,9.8,14.6,9.8,23.5
			c0,8.9-3.5,17.2-9.8,23.5c-6.3,6.3-14.6,9.8-23.6,9.8c-5.2,0-9.8-1.2-14.2-3.3c-2.9,6.4-4.4,12.9-4.4,20c0,0,0.5,6.1,0.7,7.3
			c6,1.9,12,2.9,17.9,2.9c16.1,0,31.2-6.3,42.6-17.7c11.4-11.3,17.6-26.5,17.6-42.5c0-31.6-25.4-58.6-55.4-59.1l-1,0l0-1
			C109,13.6,81.9-11.8,50.3-11.8C18.7-11.8-8.3,13.6-8.8,43.7"/>
	</g>
</g>
</svg>
