<?xml version="1.0" encoding="utf-8"?>
<!-- Generator: Adobe Illustrator 25.3.1, SVG Export Plug-In . SVG Version: 6.00 Build 0)  -->
<!DOCTYPE svg PUBLIC "-//W3C//DTD SVG 1.1//EN" "http://www.w3.org/Graphics/SVG/1.1/DTD/svg11.dtd" [
	<!ENTITY ns_extend "http://ns.adobe.com/Extensibility/1.0/">
	<!ENTITY ns_ai "http://ns.adobe.com/AdobeIllustrator/10.0/">
	<!ENTITY ns_graphs "http://ns.adobe.com/Graphs/1.0/">
	<!ENTITY ns_vars "http://ns.adobe.com/Variables/1.0/">
	<!ENTITY ns_imrep "http://ns.adobe.com/ImageReplacement/1.0/">
	<!ENTITY ns_sfw "http://ns.adobe.com/SaveForWeb/1.0/">
	<!ENTITY ns_custom "http://ns.adobe.com/GenericCustomNamespace/1.0/">
	<!ENTITY ns_adobe_xpath "http://ns.adobe.com/XPath/1.0/">
]>
<svg version="1.1" id="Layer_1" xmlns:x="&ns_extend;" xmlns:i="&ns_ai;" xmlns:graph="&ns_graphs;"
	 xmlns="http://www.w3.org/2000/svg" xmlns:xlink="http://www.w3.org/1999/xlink" x="0px" y="0px" viewBox="0 0 512 512"
	 style="enable-background:new 0 0 512 512;" xml:space="preserve">
<style type="text/css">
	.st0{fill:#0079AD;}
	.st1{fill:#FFFFFF;}
	.st2{fill:#25221F;}
	.st3{fill-rule:evenodd;clip-rule:evenodd;fill:#FFFFFF;}
</style>
<metadata>
	<sfw  xmlns="&ns_sfw;">
		<slices></slices>
		<sliceSourceBounds  bottomLeftOrigin="true" height="511" width="510" x="1" y="0.5"></sliceSourceBounds>
	</sfw>
</metadata>
<rect id="rect2168" x="1" y="0.5" class="st0" width="510" height="511"/>
<path id="path8" class="st1" d="M480.7,183c-19.1-54.3-63.7-73.4-118.3-73.4c-28.7,0-55.5,6.4-78.2,25.5
	c-22.3,18.7-33.7,44.2-33.7,73.4c0,68.4,54.6,84.8,110.1,96.3c19.1,4.1,54.6,9.1,54.6,35.1c0,26-27.7,33.8-48.7,33.8
	c-32.3,0-56-11.4-65.1-44.3L234.1,345c14.1,61.1,67.3,86.7,126,86.7c31.4,0,65.5-5.9,90.5-25.5c24.1-18.7,38.7-47.9,38.7-78.5
	c0-31-15.5-57-40.9-73.9c-21.8-14.6-56-21-81.4-26.5c-17.7-3.2-45-8.7-45-31.5c0-24.2,23.7-29.2,43.2-29.2c27.7,0,44.6,10.5,53.7,37
	L480.7,183"/>
<ellipse id="circle10" class="st2" cx="122.3" cy="161.8" rx="106.3" ry="106.6">
</ellipse>
<path id="path14" class="st3" d="M106,171.1h16.8c3.7,0,8.2,0,11.5,1.9c3.3,1.9,5.5,5.7,5.5,9.4c0,4-1.9,8-5.1,10.1
	c-3.5,2.4-8.8,2.1-12.9,2.1H106L106,171.1 M106,132.4h13.8c3.8,0,9.8-0.4,13.1,1.4c3.1,1.9,4.8,5.3,4.8,8.8c0,3.3-1.4,6.8-4.1,8.9
	c-3.4,2.6-8.1,2.3-12.1,2.3h-15.5L106,132.4L106,132.4z M83.2,115v97.8h43.6c8.4,0,17.9,0,25-5.3c6.8-5,11.9-12.5,11.9-21.1
	c0-12.7-8.2-21.9-20.3-24.4v-0.3c10.2-2.6,17.6-10,17.6-21.1c0-9.3-4.1-16.4-11.9-21.4c-6.7-4.3-14.6-4.3-22.3-4.3L83.2,115
	L83.2,115z"/>
</svg>
