<?xml version="1.0" encoding="utf-8"?>
<!-- Generator: Adobe Illustrator 25.3.1, SVG Export Plug-In . SVG Version: 6.00 Build 0)  -->
<!DOCTYPE svg PUBLIC "-//W3C//DTD SVG 1.1//EN" "http://www.w3.org/Graphics/SVG/1.1/DTD/svg11.dtd" [
	<!ENTITY ns_extend "http://ns.adobe.com/Extensibility/1.0/">
	<!ENTITY ns_ai "http://ns.adobe.com/AdobeIllustrator/10.0/">
	<!ENTITY ns_graphs "http://ns.adobe.com/Graphs/1.0/">
	<!ENTITY ns_vars "http://ns.adobe.com/Variables/1.0/">
	<!ENTITY ns_imrep "http://ns.adobe.com/ImageReplacement/1.0/">
	<!ENTITY ns_sfw "http://ns.adobe.com/SaveForWeb/1.0/">
	<!ENTITY ns_custom "http://ns.adobe.com/GenericCustomNamespace/1.0/">
	<!ENTITY ns_adobe_xpath "http://ns.adobe.com/XPath/1.0/">
]>
<svg version="1.1" id="Слой_1" xmlns:x="&ns_extend;" xmlns:i="&ns_ai;" xmlns:graph="&ns_graphs;"
	 xmlns="http://www.w3.org/2000/svg" xmlns:xlink="http://www.w3.org/1999/xlink" x="0px" y="0px" viewBox="0 0 256 256"
	 style="enable-background:new 0 0 256 256;" xml:space="preserve">
<style type="text/css">
	.st0{fill:#2A509B;}
	.st1{fill:#029BD0;}
	.st2{fill:#5774B0;}
	.st3{fill:#6A84BA;}
	.st4{fill:#4DB4DC;}
	.st5{fill:#79C6E5;}
	.st6{fill:#43B0DB;}
	.st7{fill:#88CEE8;}
</style>
<metadata>
	<sfw  xmlns="&ns_sfw;">
		<slices></slices>
		<sliceSourceBounds  bottomLeftOrigin="true" height="250.1" width="151.9" x="52" y="2.9"></sliceSourceBounds>
	</sfw>
</metadata>
<g>
	<path class="st0" d="M169.2,127.9c0-8.1-1.1-16-3.2-23.7c-10.4-34.3-33.2-55.8-68-64.6c-5.2-1.4-10.4-2-15.6-2.3
		c-1.1,0-1.1-0.7-1.1-1.4v-33h0.9c0.7,0.2,1.6,0.2,2.3,0h1.8c2,0.5,4.3,0.2,6.6,0.5c10.8,1.4,21.7,3.8,31.9,7.9
		c13.1,5.2,25.5,12.7,36.2,21.9c13.6,11.8,24.6,26.2,32.1,42.7c5.6,12.2,9.3,25.1,10.6,38.2c0.2,2,0,4.1,0.5,6.1v1.8
		c-0.2,0.7-0.2,1.6,0,2.3v3.8c-0.7,0.5-1.4,0.7-2,0.5h-30.3C170.5,128.6,169.6,128.6,169.2,127.9"/>
	<path class="st1" d="M169.2,127.9h34.6v3.4c-0.2,0.7,0,1.4-0.2,1.8c-0.2,0.5-0.2,1.4,0.2,1.8v0.9c-0.5,2.3-0.2,4.5-0.5,6.8
		c-0.9,7.2-2.5,14.5-4.5,21.7c-3.4,11.5-8.6,22.4-15.4,32.3c-3.6,5.6-7.9,10.8-12.4,15.8c-8.1,8.8-17.4,16.5-27.6,22.6
		c-15.6,9.5-33,15.4-51.3,17.4c-1.8,0.2-3.8,0-5.6,0.5h-0.7c-0.7-0.2-1.4,0-1.8-0.2c-0.7,0-1.4-0.2-1.8,0.2h-0.9v-33
		c0-1.1,0.2-1.4,1.4-1.4c40.7-1.8,76.4-32.1,84.7-71.9C168.5,140.8,169.2,134.4,169.2,127.9"/>
	<path class="st2" d="M84.2,2.9c-0.7,0.5-1.6,0.5-2.3,0H84.2z"/>
	<path class="st3" d="M203.7,124.3c-0.5-0.7-0.5-1.6,0-2.3V124.3z"/>
	<path class="st4" d="M203.3,133.3c0-0.7-0.2-1.4,0.2-1.8v1.8C203.5,133.5,203.5,133.5,203.3,133.3"/>
	<path class="st5" d="M203.3,133.3h0.2v1.8C203,134.7,203.5,134,203.3,133.3"/>
	<path class="st6" d="M81.9,253.1c0.7-0.5,1.4-0.2,1.8-0.2v0.2l0,0H81.9z"/>
	<path class="st7" d="M83.7,253.1v-0.2c0.7,0,1.4-0.5,1.8,0.2H83.7z"/>
	<path class="st0" d="M52.1,128.1v-9.7V78.6v-2l7.5,5.9c19,14.9,38.2,29.8,57.2,44.7c0.5,0.2,0.9,0.5,0.9,0.9
		c-0.7,0.5-1.6,0.7-2.5,0.5H54.4C53.7,128.8,52.8,128.6,52.1,128.1"/>
	<path class="st1" d="M52.1,128.1h65.5c-2,1.8-4.1,3.6-6.3,5.2c-19,14.9-38.2,29.8-57.4,44.7c-0.5,0.5-1.1,0.7-1.6,1.1
		c-0.5-0.5-0.2-0.7-0.2-0.9v-49.5C52.1,128.3,52.1,128.1,52.1,128.1"/>
</g>
</svg>
