<svg width="200" height="200" viewBox="0 0 200 200" fill="none" xmlns="http://www.w3.org/2000/svg">
<rect width="200" height="200" fill="white"/>
<path d="M91.8067 198.267C90.0325 198.163 88.4147 197.954 88.1538 197.693C87.9451 197.485 90.2412 193.101 93.3201 187.935C98.4342 179.376 99.0082 178.594 100.156 178.75C101.252 178.855 102.192 180.264 106.784 188.144C112.785 198.476 112.733 198.006 107.619 198.111L104.801 198.163L102.505 194.51C101.252 192.527 99.9998 190.857 99.8432 190.857C99.6345 190.857 98.4864 192.579 97.2862 194.614L95.0944 198.372L91.8067 198.267Z" fill="#055943"/>
<path d="M79.2298 196.493C77.6642 196.18 76.2552 195.763 76.0987 195.606C75.9421 195.449 79.5429 189.553 84.1351 182.508C88.6752 175.463 93.685 167.739 95.1983 165.391C98.1207 160.903 99.2688 160.12 101.617 160.955C102.504 161.268 105.844 166.121 113.672 178.437L124.526 195.449L120.978 196.284C119.047 196.754 117.325 196.911 117.168 196.754C117.012 196.545 113.254 190.753 108.714 183.917C104.226 177.028 100.365 171.497 100.156 171.549C99.9472 171.601 96.0333 177.341 91.3888 184.282C86.7444 191.222 82.7783 196.963 82.5696 197.015C82.3087 197.067 80.7953 196.858 79.2298 196.493Z" fill="#055943"/>
<path d="M66.8624 193.258L63.9922 192.266L72.6027 179.794C95.9815 145.978 97.0774 144.413 98.382 143.943C99.1648 143.682 100.417 143.682 101.565 143.943C103.34 144.36 104.175 145.404 119.673 167.739C128.597 180.577 135.903 191.327 135.955 191.588C135.955 191.849 134.546 192.579 132.772 193.153L129.536 194.197L128.388 192.631C127.762 191.796 121.239 182.664 113.933 172.331C106.627 161.999 100.522 153.545 100.313 153.441C100.104 153.388 93.5288 162.521 85.6489 173.74C76.36 187.048 71.0371 194.197 70.5153 194.145C70.0456 194.249 68.4279 193.779 66.8624 193.258Z" fill="#055943"/>
<path d="M56.8427 189.292L53.4507 187.726L62.7396 174.575C88.0493 138.829 95.7726 128.183 96.9207 127.452C97.5991 126.983 99.1646 126.67 100.417 126.67C102.191 126.67 103.026 126.983 104.383 128.183C105.949 129.54 145.453 184.908 146.183 186.787C146.392 187.361 145.818 187.883 143.835 188.77C142.374 189.448 140.965 189.97 140.704 189.97C140.443 189.97 131.363 177.602 120.613 162.469C109.81 147.335 100.73 134.967 100.417 134.967C99.7909 134.967 94.2071 142.69 73.6462 171.966C66.6013 181.986 60.7044 190.387 60.4956 190.596C60.3391 190.701 58.7214 190.179 56.8427 189.292Z" fill="#055943"/>
<path d="M46.7186 183.917C45.3096 183.082 44.1094 182.194 44.1094 182.038C44.1094 181.203 95.8768 111.588 97.1292 110.805C98.8513 109.657 102.087 109.657 103.809 110.805C104.8 111.432 153.489 176.976 155.942 180.994C156.15 181.359 155.315 182.194 153.593 183.342C152.08 184.334 150.723 185.117 150.514 185.065C150.306 185.065 139.086 169.931 125.57 151.51C112.054 133.088 100.782 117.955 100.469 117.955C100.208 117.955 88.7275 133.088 74.9506 151.562C61.1738 170.035 49.7975 185.221 49.641 185.326C49.4322 185.378 48.1276 184.751 46.7186 183.917Z" fill="#055943"/>
<path d="M36.073 175.723C34.7684 174.628 33.7247 173.532 33.7247 173.323C33.7247 173.062 44.7879 158.033 58.3559 139.925C71.924 121.764 83.0916 106.683 83.2481 106.37C83.4569 105.848 73.9592 102.665 14.1032 83.4606C7.84097 81.4254 2.51811 79.6511 2.25718 79.4424C1.89189 79.1293 2.98777 73.8064 3.50962 73.3367C3.66618 73.1802 24.3836 79.7033 76.7772 96.2459C90.1887 100.473 91.3368 101.203 91.3368 105.17C91.3368 106.892 90.9715 107.988 89.98 109.449C87.1098 113.571 38.9432 177.707 38.7344 177.707C38.5257 177.707 37.3254 176.819 36.073 175.723Z" fill="#055943"/>
<path d="M135.59 143.004C121.343 123.904 109.445 107.674 109.184 106.944C107.462 102.508 109.602 99.7423 116.125 97.7071C118.421 96.9765 137.103 91.184 157.612 84.7652C178.12 78.3465 195.133 73.128 195.394 73.128C196.02 73.128 197.637 79.0771 197.116 79.4946C196.907 79.6511 178.747 85.4436 156.672 92.3842C134.598 99.3248 116.594 105.117 116.594 105.274C116.594 105.43 127.866 120.877 141.695 139.612L166.796 173.636L164.448 175.671C163.143 176.819 161.943 177.759 161.786 177.759C161.63 177.759 149.836 162.103 135.59 143.004Z" fill="#055943"/>
<path d="M27.7757 168.313C26.5755 167.113 25.6883 165.861 25.7927 165.495C25.8971 165.13 35.186 152.867 46.4579 138.203C57.7299 123.539 66.9666 111.484 66.9666 111.327C66.9666 110.753 51.9895 106.213 7.63236 93.3236L0.169922 91.184L0.326478 88.7313C0.430848 87.3745 0.639587 85.7046 0.848327 85.0783L1.16144 83.9303L28.7151 92.0711C74.0637 105.483 71.872 104.752 73.4375 106.318C74.6378 107.518 74.8987 108.092 74.8987 110.231C74.8987 111.797 74.5334 113.31 73.9594 114.198C72.7069 116.233 30.6981 170.14 30.2806 170.296C30.0719 170.401 28.976 169.514 27.7757 168.313Z" fill="#055943"/>
<path d="M153.802 149.683C125.309 112.945 125.153 112.736 124.84 110.962C124.422 108.718 125.674 106.109 127.866 104.752C129.275 103.865 196.385 83.8781 197.898 83.8259C198.472 83.8259 199.046 86.383 199.099 88.94V90.4534L168.362 99.6379C151.506 104.7 136.633 109.136 135.381 109.501C133.554 110.023 133.137 110.336 133.346 111.014C133.659 111.901 145.609 127.505 163.3 150.049C169.458 157.928 174.676 164.66 174.833 164.921C174.989 165.234 173.946 166.591 172.537 168L169.927 170.557L153.802 149.683Z" fill="#055943"/>
<path d="M20.3132 159.598C19.1652 158.137 18.278 156.78 18.278 156.624C18.278 156.415 25.0099 147.648 33.2029 137.055C41.3959 126.461 48.2321 117.537 48.3887 117.172C48.6496 116.441 50.3717 117.016 21.2525 108.614C9.92843 105.378 0.482963 102.508 0.274223 102.352C0.0654834 102.143 -0.0388864 100.473 0.0132985 98.5421L0.169851 95.15L28.1931 103.082C43.5877 107.466 56.5817 111.38 57.1036 111.849C58.4082 112.997 58.8779 115.867 57.9385 117.381C57.2601 118.581 24.3315 160.225 23.0268 161.634C22.505 162.155 22.0353 161.842 20.3132 159.598Z" fill="#055943"/>
<path d="M159.595 139.455C140.391 115.137 140.443 115.293 142.426 112.162C143.156 110.962 144.044 110.44 146.027 109.866C147.488 109.449 159.908 105.952 173.632 102.038C187.357 98.1246 198.838 94.9413 199.046 94.9413C199.516 94.9413 200.299 101.151 199.881 101.569C199.725 101.725 188.923 105.013 175.876 108.875C162.83 112.736 151.923 116.076 151.715 116.337C151.454 116.598 151.454 117.015 151.767 117.433C152.028 117.798 159.021 126.67 167.266 137.159L182.243 156.259L180.26 158.92C179.164 160.381 178.068 161.686 177.859 161.79C177.598 161.947 169.405 151.875 159.595 139.455Z" fill="#055943"/>
<path d="M13.3729 149.318C12.538 147.857 11.8596 146.5 11.8596 146.239C11.8596 145.978 16.1909 140.551 21.566 134.132C26.8888 127.713 31.2724 122.338 31.2724 122.13C31.2724 121.921 31.0114 121.764 30.6461 121.764C30.333 121.764 23.6012 120.042 15.7213 118.007C6.53672 115.607 1.26605 113.989 1.00513 113.519C0.378907 112.371 0.0136115 107.205 0.53546 107.205C2.25756 107.205 40.0916 117.12 40.8222 117.746C41.344 118.216 41.7093 119.207 41.7093 120.147C41.7093 121.556 39.9872 123.8 28.7675 136.846C21.6182 145.143 15.6169 151.979 15.4082 151.979C15.1994 151.979 14.2079 150.779 13.3729 149.318Z" fill="#055943"/>
<path d="M171.389 136.846C160.273 123.695 158.551 121.451 158.395 119.886C158.29 118.581 158.499 117.85 159.177 117.224C159.96 116.546 197.064 107.153 198.994 107.153C199.412 107.153 199.464 108.04 199.203 110.44C198.994 112.267 198.786 113.832 198.681 113.937C198.577 114.041 191.845 115.867 183.756 117.955C175.668 120.042 168.936 121.869 168.779 121.973C168.518 122.234 168.779 122.599 179.321 135.385L188.244 146.187L186.679 148.953C185.844 150.466 184.904 151.771 184.644 151.875C184.487 151.927 178.486 145.195 171.389 136.846Z" fill="#055943"/>
<path d="M7.84122 138.516C6.58878 135.802 6.48441 135.124 6.95407 134.497C7.31937 134.08 8.62399 132.462 9.92861 131.001C11.2332 129.488 12.2769 128.183 12.2769 128.027C12.2769 127.87 10.2417 127.348 7.78903 126.878C3.35332 125.991 3.30113 125.991 2.83147 124.269C1.99651 121.399 1.6834 118.894 2.15306 118.894C3.61424 118.894 22.9227 123.33 23.4967 123.8C25.1144 125.104 25.0622 125.209 12.4335 138.516L9.30239 141.803L7.84122 138.516Z" fill="#055943"/>
<path d="M182.765 133.819C175.824 126.148 174.728 124.321 176.294 123.382C176.868 123.017 197.689 118.79 197.898 118.999C197.95 119.051 197.637 120.616 197.22 122.547L196.437 125.991L191.74 127.087L187.044 128.183L187.931 129.227C188.401 129.801 189.81 131.314 191.01 132.567C192.732 134.341 193.149 135.071 192.888 136.011C192.419 137.837 190.54 141.751 190.175 141.699C190.018 141.699 186.678 138.15 182.765 133.819Z" fill="#055943"/>
<path d="M49.5888 81.582C28.7149 74.7979 10.1371 68.7445 8.3106 68.2226L5.02295 67.2311L6.27539 64.1C6.95379 62.3779 7.73656 60.9689 7.9453 60.9689C8.15404 60.9689 26.0535 66.7093 47.7102 73.702C69.3669 80.6948 87.4751 86.5395 87.9447 86.6439C88.7797 86.8526 88.8319 85.2349 88.8841 57.0029C88.9363 40.5646 89.0928 21.5693 89.2494 14.7331L89.5625 2.31311L92.6414 2.15655L95.7203 2V45.8353C95.7203 93.2192 95.8247 91.3927 93.111 93.2714C90.8149 94.8891 88.6753 94.3151 49.5888 81.582Z" fill="#055943"/>
<path d="M106.418 93.2192C105.061 92.8539 103.757 91.6536 102.817 89.8793C102.139 88.5747 102.087 83.7737 102.348 45.4178C102.504 21.7781 102.765 2.31309 102.869 2.15654C102.974 2.05217 104.592 2.10436 106.418 2.26091L109.758 2.6262L109.393 44.1654C109.079 82.1038 109.079 85.7046 109.81 85.7046C110.228 85.7046 128.753 80.0164 150.88 73.0236C173.058 66.0308 191.323 60.4993 191.532 60.708C192.21 61.4908 193.932 66.1874 193.619 66.3961C192.471 67.0745 110.645 93.0104 109.184 93.2192C108.245 93.3757 106.992 93.3757 106.418 93.2192Z" fill="#055943"/>
<path d="M45.362 69.4229C27.8801 63.4216 12.6421 58.151 11.4418 57.7335L9.30225 56.9507L10.92 54.0805C11.8071 52.515 12.7465 51.2104 13.0074 51.2104C13.3727 51.2104 74.8987 71.8756 77.4035 72.8671C77.9254 73.0758 78.3429 72.8671 78.5516 72.3453C78.7082 71.8756 78.4994 56.6376 78.0819 38.4773C77.6123 20.3169 77.4035 5.13111 77.5079 4.76581C77.7166 4.19178 84.1876 2.67842 84.5529 3.0959C84.7094 3.30464 85.8575 61.1777 85.8053 69.6316V77.0941L84.1354 78.764C81.1087 81.7385 81.213 81.7385 45.362 69.4229Z" fill="#055943"/>
<path d="M114.664 78.6596C113.776 77.929 112.942 76.5722 112.628 75.4763C112.263 74.0673 112.315 63.9956 112.941 38.3729C113.411 19.0645 113.829 3.20025 113.881 3.14807C113.933 3.09588 115.499 3.30462 117.377 3.61773L120.769 4.19177L120.456 18.1251C120.3 25.7963 119.986 41.0865 119.83 52.0975C119.517 70.6753 119.569 72.1887 120.352 72.1887C121.187 72.1887 147.697 63.2129 172.798 54.498L185.948 49.9057L187.566 52.6715C188.453 54.1849 189.184 55.6983 189.184 56.0114C189.184 56.3245 187.879 57.0029 186.313 57.5247C184.748 58.0466 169.301 63.3172 151.976 69.2663C130.006 76.7809 119.83 80.0164 118.369 80.0164C116.751 79.912 115.812 79.5989 114.664 78.6596Z" fill="#055943"/>
<path d="M67.4364 65.8743C67.0189 65.6656 55.2773 61.4386 41.3439 56.5854C27.4106 51.68 15.8255 47.5052 15.6168 47.2965C15.3559 47.0877 15.9299 45.8875 16.8692 44.5829C17.8085 43.2782 18.6957 42.0258 18.8522 41.8171C19.1654 41.3996 22.3486 42.3911 52.5115 52.6715C61.5395 55.7504 67.2276 57.4725 67.3842 57.1594C67.5408 56.8985 67.5408 52.3062 67.3842 46.9834C67.2276 41.6605 66.9145 30.5973 66.7058 22.4043L66.3405 7.47941L69.6803 6.38352C71.5068 5.80949 73.0724 5.39201 73.1767 5.49638C73.3333 5.65294 74.7945 45.8875 75.0554 58.1509L75.1597 63.8913L73.6464 65.0393C72.133 66.2918 69.0019 66.7093 67.4364 65.8743Z" fill="#055943"/>
<path d="M125.361 65.2481C123.065 63.9435 123.065 63.4738 124.057 33.6762C124.579 18.3339 125.1 5.65295 125.205 5.54858C125.309 5.44421 126.823 5.75732 128.545 6.22698L131.676 7.16631V12.2804C131.676 15.0984 131.519 26.3182 131.258 37.2248C130.945 53.4021 130.997 57.0551 131.519 57.0551C131.884 57.0551 142.582 53.4021 155.368 48.9664C168.101 44.5307 178.903 40.9821 179.321 41.1387C179.999 41.3996 183.704 46.3572 183.443 46.6703C182.765 47.2965 129.014 65.8221 127.814 65.8221C127.031 65.7699 125.883 65.509 125.361 65.2481Z" fill="#055943"/>
<path d="M41.135 44.896C31.1677 40.9299 23.0269 37.4857 23.0269 37.2248C23.0269 36.5986 27.0451 32.2151 27.6191 32.2151C27.8801 32.2151 32.6811 34.0415 38.2127 36.2855C49.4846 40.7734 56.373 43.2783 56.6861 42.913C56.7905 42.8086 56.5817 37.6423 56.2686 31.4845C55.9033 25.3267 55.5902 18.4383 55.538 16.1421L55.4337 12.0195L58.5126 10.6105C60.1825 9.82774 61.6437 9.3059 61.748 9.35808C61.9046 9.51463 64.5138 47.8705 64.5138 49.5926C64.5138 50.7929 62.5308 52.1497 60.9131 52.0975C59.9738 52.1497 51.1023 48.862 41.135 44.896Z" fill="#055943"/>
<path d="M135.903 51.4191C135.172 51.0538 134.441 50.3754 134.285 49.9057C133.92 48.9664 136.529 10.5583 136.999 9.77555C137.207 9.41025 138.355 9.72337 140.391 10.6105C143.991 12.1761 143.783 10.8714 142.687 24.9092C142.269 30.232 142.008 36.442 142.06 38.686L142.217 42.8086L156.881 37.277L171.545 31.7454L173.893 34.3024C175.198 35.7114 176.085 37.0161 175.876 37.2248C175.511 37.5901 140.182 51.3669 138.251 51.9409C137.677 51.9931 136.633 51.8366 135.903 51.4191Z" fill="#055943"/>
<path d="M42.1267 33.6241C37.3257 31.4845 32.8899 29.5014 32.2637 29.2405L31.0635 28.7709L32.5247 27.2575C33.3074 26.4225 34.6121 25.3267 35.3426 24.8048L36.6994 23.8133L40.8742 25.5354C43.1704 26.4747 45.1534 27.1009 45.3099 26.8922C45.4143 26.6835 45.31 25.0135 45.1012 23.1349C44.4228 18.0208 44.3706 18.2295 47.7105 16.1421L50.7894 14.2113L51.1025 16.0377C51.259 17.0293 51.8331 21.9346 52.3027 26.9444C53.0333 34.3546 53.0855 36.1811 52.5637 36.8073C52.1984 37.2248 51.6765 37.5379 51.3634 37.5379C51.0503 37.5379 46.9277 35.7636 42.1267 33.6241Z" fill="#055943"/>
<path d="M145.974 36.3899C145.557 35.868 145.713 33.1022 146.757 24.9614L148.062 14.2113L150.097 15.4637C151.193 16.1421 152.654 16.9249 153.228 17.238C154.324 17.7598 154.324 17.9164 154.011 22.5609L153.698 27.3619L154.898 26.8922C155.576 26.6313 157.403 25.8485 158.968 25.1701C160.534 24.4917 162.099 23.9177 162.36 23.9177C163.039 23.9177 167.527 27.7793 167.527 28.3534C167.527 28.9274 148.74 37.0683 147.435 37.0683C146.914 37.0683 146.287 36.7551 145.974 36.3899Z" fill="#055943"/>
</svg>
