<?xml version="1.0" encoding="utf-8"?>
<!-- Generator: Adobe Illustrator 25.3.1, SVG Export Plug-In . SVG Version: 6.00 Build 0)  -->
<!DOCTYPE svg PUBLIC "-//W3C//DTD SVG 1.1//EN" "http://www.w3.org/Graphics/SVG/1.1/DTD/svg11.dtd" [
	<!ENTITY ns_extend "http://ns.adobe.com/Extensibility/1.0/">
	<!ENTITY ns_ai "http://ns.adobe.com/AdobeIllustrator/10.0/">
	<!ENTITY ns_graphs "http://ns.adobe.com/Graphs/1.0/">
	<!ENTITY ns_vars "http://ns.adobe.com/Variables/1.0/">
	<!ENTITY ns_imrep "http://ns.adobe.com/ImageReplacement/1.0/">
	<!ENTITY ns_sfw "http://ns.adobe.com/SaveForWeb/1.0/">
	<!ENTITY ns_custom "http://ns.adobe.com/GenericCustomNamespace/1.0/">
	<!ENTITY ns_adobe_xpath "http://ns.adobe.com/XPath/1.0/">
]>
<svg version="1.1" id="Layer_1" xmlns:x="&ns_extend;" xmlns:i="&ns_ai;" xmlns:graph="&ns_graphs;"
	 xmlns="http://www.w3.org/2000/svg" xmlns:xlink="http://www.w3.org/1999/xlink" x="0px" y="0px" viewBox="0 0 512 512"
	 style="enable-background:new 0 0 512 512;" xml:space="preserve">
<style type="text/css">
	.st0{fill:#8ACA33;}
	.st1{fill-rule:evenodd;clip-rule:evenodd;fill:#FFFFFF;}
</style>
<metadata>
	<sfw  xmlns="&ns_sfw;">
		<slices></slices>
		<sliceSourceBounds  bottomLeftOrigin="true" height="495.5" width="512" x="0" y="8.2"></sliceSourceBounds>
	</sfw>
</metadata>
<g id="layer1" transform="translate(-45.733054,-181.74719)">
	<g id="g2974" transform="translate(-143.11161,-109.51744)">
		<g>
			<g id="g1836" transform="matrix(0.35277777,0,0,0.35277777,7.7373762,22.209574)">
				<path id="path1834" class="st0" d="M513.4,2190.6h1451.3V786H513.4V2190.6z"/>
			</g>
		</g>
		<path id="path1838" class="st1" d="M375.5,513.8l-15.9,11.9c-7.7-6.3-17.3-7.7-22.9-7.7c-5.3,0-10.9,1.6-12,5.3
			c-0.8,4,2.6,6.9,8.8,8.5c6.9,1.9,13.3,3.4,22.9,6.1c14.4,4.2,24.2,10.3,24.2,24.9c0,19.6-17.5,29.9-41.2,29.9
			c-23.6,0-39.9-12.2-44.7-18l17-12.4c11.7,10.3,20.2,11.6,26.9,11.6c8,0,15.4-1.6,16.5-6.1c0.8-3.7-2.4-6.4-9-7.9
			c-7.7-1.9-14.1-3.2-21.3-5c-19.4-5.3-25-16.4-25-26.7c0-13.8,13-28.3,37-28.3C361.1,499.8,375.5,513.8,375.5,513.8 M477.6,501.4
			H406V590h72.8v-20.4h-47.6v-14.3H464v-19.6h-32.7v-14.3h46.3V501.4z M393.3,480.7h-5.6v129.9h5.6V480.7z M493.8,480.7h-5.6v129.9
			h5.6V480.7z M506.5,590h57.4c15.4,0,27.9-9,27.9-23.8c0-11.6-7.7-19.1-18.3-22.5c0,0-0.3,0-1.1-0.2h1.1
			c6.1-2.4,12.7-8.7,12.7-19.6c0-13.8-12.2-22.5-27.1-22.5h-52.6L506.5,590z M531.8,519.9H552c4.5,0,8.2,3.4,8.2,7.7
			c0,4.2-3.7,7.7-8.2,7.7h-20.2V519.9z M556.2,570.4h-24.5v-16.1h24.5c4.5,0,8,3.4,8,7.9C564.2,567,560.7,570.4,556.2,570.4"/>
	</g>
</g>
</svg>
