<?xml version="1.0" encoding="utf-8"?>
<!-- Generator: Adobe Illustrator 25.3.1, SVG Export Plug-In . SVG Version: 6.00 Build 0)  -->
<!DOCTYPE svg PUBLIC "-//W3C//DTD SVG 1.1//EN" "http://www.w3.org/Graphics/SVG/1.1/DTD/svg11.dtd" [
	<!ENTITY ns_extend "http://ns.adobe.com/Extensibility/1.0/">
	<!ENTITY ns_ai "http://ns.adobe.com/AdobeIllustrator/10.0/">
	<!ENTITY ns_graphs "http://ns.adobe.com/Graphs/1.0/">
	<!ENTITY ns_vars "http://ns.adobe.com/Variables/1.0/">
	<!ENTITY ns_imrep "http://ns.adobe.com/ImageReplacement/1.0/">
	<!ENTITY ns_sfw "http://ns.adobe.com/SaveForWeb/1.0/">
	<!ENTITY ns_custom "http://ns.adobe.com/GenericCustomNamespace/1.0/">
	<!ENTITY ns_adobe_xpath "http://ns.adobe.com/XPath/1.0/">
]>
<svg version="1.1" id="Слой_1" xmlns:x="&ns_extend;" xmlns:i="&ns_ai;" xmlns:graph="&ns_graphs;"
	 xmlns="http://www.w3.org/2000/svg" xmlns:xlink="http://www.w3.org/1999/xlink" x="0px" y="0px" viewBox="0 0 256 256"
	 style="enable-background:new 0 0 256 256;" xml:space="preserve">
<style type="text/css">
	.st0{fill:#26367E;}
	.st1{fill:#FCBD0E;}
</style>
<metadata>
	<sfw  xmlns="&ns_sfw;">
		<slices></slices>
		<sliceSourceBounds  bottomLeftOrigin="true" height="92.2" width="250.6" x="2.7" y="81.9"></sliceSourceBounds>
	</sfw>
</metadata>
<g>
	<path id="path5689" class="st0" d="M58.4,103.8H41.2c0-2.8-0.3-4.7-1-5.7c-1-1.4-3.8-2.1-8.4-2.1c-4.5,0-7.4,0.4-8.9,1.2
		c-1.4,0.8-2.2,2.6-2.2,5.4c0,2.5,0.6,4.1,1.9,4.9c0.9,0.6,2.1,0.9,3.7,1l3.5,0.2c7.4,0.5,12,0.8,13.9,1c5.9,0.6,10.1,2.1,12.7,4.7
		c2.1,2,3.3,4.5,3.7,7.7c0.2,1.9,0.3,4.1,0.3,6.4c0,5.5-0.5,9.6-1.6,12.1c-1.9,4.7-6.2,7.7-12.9,8.9c-2.8,0.5-7.1,0.8-12.8,0.8
		c-9.6,0-16.3-0.6-20.1-1.7c-4.6-1.4-7.7-4.3-9.2-8.6c-0.8-2.4-1.2-6.4-1.2-11.9h17.1c0,0.6,0,1.1,0,1.4c0,3,0.9,4.9,2.6,5.7
		c1.2,0.6,2.6,0.9,4.3,0.9H33c3.2,0,5.3-0.2,6.2-0.5c1.6-0.6,2.6-1.6,3.1-3c0.3-0.9,0.4-1.9,0.4-3.3c0-3-1.1-4.8-3.3-5.5
		c-0.8-0.3-4.6-0.6-11.5-1.1c-5.5-0.4-9.3-0.8-11.4-1.1c-5.6-1-9.4-3.2-11.2-6.5c-1.6-2.8-2.5-7-2.5-12.6c0-4.3,0.4-7.7,1.3-10.3
		c0.9-2.6,2.3-4.6,4.3-5.9c2.9-2.1,6.6-3.3,11.1-3.6c3.7-0.3,7.9-0.5,12.5-0.5c7.2,0,12.3,0.4,15.4,1.2c7.5,2,11.2,7.6,11.2,16.8
		C58.5,101.1,58.5,102.3,58.4,103.8"/>
	<path id="path5693" class="st0" d="M133.8,150.4V81.9h26.9h4.2h3.3c4.7,0,8.3,0.4,10.8,1.2c5.6,1.8,9.4,5.4,11.4,10.9
		c1,2.9,1.5,7.2,1.5,13c0,6.9-0.6,11.9-1.7,15c-2.2,6-6.7,9.5-13.6,10.4c-0.8,0.1-4.2,0.3-10.3,0.4l-3.1,0.1h-11v17.7H133.8z
		 M152.2,116.8h11.5c3.6-0.1,5.9-0.4,6.7-0.8c1.1-0.6,1.8-1.8,2.2-3.6c0.2-1.2,0.3-3,0.3-5.3c0-2.9-0.2-5-0.7-6.4
		c-0.7-2-2.2-3.2-4.8-3.6c-0.5-0.1-1.7-0.1-3.6-0.1h-11.6V116.8z"/>
	<path id="path5697" class="st0" d="M231.1,138.6h-24.6l-3.3,11.8h-19.1l20.6-68.5h27.8l20.8,68.5h-18.7L231.1,138.6z M227.5,125.2
		l-8.6-29.7l-8.4,29.7H227.5z"/>
	<path id="path5701" class="st1" d="M108.3,91.6c7.6,0,14.4,3.5,18.8,9l4-8.5c-6.2-5.9-14.7-9.5-24-9.5c-14.5,0-26.9,8.8-32,21.2
		h-7.7l-4.6,9.8h10c-0.1,0.9-0.1,1.8-0.1,2.7c0,1.1,0.1,2.2,0.2,3.3h-5l-4.6,9.8h12.1c5.2,12.1,17.5,20.6,31.8,20.6
		c7.2,0,13.9-2.2,19.4-5.8v-12c-4.5,5.1-11,8.3-18.2,8.3c-8.5,0-16-4.4-20.3-11h25.4l4.6-9.8H84.3c-0.2-1.2-0.3-2.4-0.3-3.6
		c0-0.8,0-1.7,0.1-2.5h36.7l4.6-9.8H87.3C91.5,96.5,99.4,91.6,108.3,91.6"/>
	<path id="path5705" class="st0" d="M108.3,91.9c7.2,0,14,3.2,18.6,8.9l0.3,0.4l0.2-0.4l4-8.5l0.1-0.2l-0.2-0.1
		c-6.5-6.2-15.1-9.6-24.2-9.6c-7.1,0-13.9,2.1-19.7,6c-5.7,3.8-10,9.1-12.6,15.4l0.3-0.2h-7.7h-0.2l-0.1,0.2l-4.6,9.8l-0.2,0.4h0.5
		h10l-0.3-0.3c-0.1,1-0.1,1.9-0.1,2.8c0,1.1,0.1,2.2,0.2,3.4l0.3-0.3h-5h-0.2l-0.1,0.2l-4.6,9.8l-0.2,0.4h0.5h12.1l-0.3-0.2
		c5.5,12.6,18.1,20.8,32.1,20.8c7,0,13.8-2,19.6-5.9l0.1-0.1v-0.2v-12v-0.8l-0.5,0.6c-4.6,5.2-11.1,8.2-18,8.2
		c-8.1,0-15.6-4.1-20.1-10.9l-0.2,0.5h25.4h0.2l0.1-0.2l4.6-9.8l0.2-0.4H118H84.3l0.3,0.3c-0.2-1.2-0.3-2.4-0.3-3.6
		c0-0.8,0-1.6,0.1-2.4l-0.3,0.3h36.7h0.2l0.1-0.2l4.6-9.8l0.2-0.4h-0.5H87.3l0.3,0.4C91.9,96.5,99.8,91.9,108.3,91.9 M87.3,104h38.1
		l-0.3-0.4l-4.6,9.8l0.3-0.2H84.1h-0.3l0,0.3c-0.1,0.8-0.1,1.7-0.1,2.5c0,1.2,0.1,2.4,0.3,3.7l0,0.3h0.3H118l-0.3-0.4l-4.6,9.8
		l0.3-0.2H88h-0.5l0.3,0.5c4.6,7,12.3,11.1,20.6,11.1c7.1,0,13.8-3.1,18.5-8.4l-0.5-0.2v12l0.1-0.2c-5.7,3.8-12.4,5.8-19.3,5.8
		c-13.8,0-26.2-8-31.5-20.4l-0.1-0.2h-0.2H63.2l0.3,0.4l4.6-9.8l-0.3,0.2h5h0.3l0-0.3c-0.1-1.1-0.2-2.2-0.2-3.3c0-0.8,0-1.7,0.1-2.7
		l0-0.3h-0.3h-10l0.3,0.4l4.6-9.8l-0.3,0.2h7.7h0.2l0.1-0.2c2.5-6.1,6.8-11.4,12.4-15.1c5.7-3.8,12.4-5.9,19.4-5.9
		c8.9,0,17.4,3.3,23.8,9.4l-0.1-0.3l-4,8.5l0.5-0.1c-4.7-5.8-11.7-9.1-19.1-9.1c-8.7,0-16.9,4.7-21.3,12.3l-0.3,0.4H87.3z"/>
	<g>
		<path class="st0" d="M27.9,161.8h4.7c3.5,0,5.8,2.3,5.8,5.9c0,3.6-2.2,6.2-5.9,6.2h-4.6V161.8z M30.2,172h2.2
			c2.5,0,3.7-1.8,3.7-4.3c0-2.1-1.1-4.1-3.6-4.1h-2.2V172z"/>
		<path class="st0" d="M48.3,161.8v12.2h-2.3v-12.2H48.3z"/>
		<path class="st0" d="M58.9,168.9v5h-2.2v-12.2h5.1c2.6,0,4,1.4,4,3.3c0,1.6-0.9,2.5-1.9,2.9c0.7,0.2,1.6,0.9,1.6,3.1v0.6
			c0,0.8,0,1.8,0.2,2.3h-2.2c-0.2-0.5-0.2-1.5-0.2-2.7V171c0-1.5-0.4-2.1-2.4-2.1H58.9z M58.9,167h2.4c1.6,0,2.2-0.6,2.2-1.7
			c0-1.1-0.7-1.7-2.1-1.7h-2.5V167z"/>
		<path class="st0" d="M81.6,168.5h-5.9v3.5h6.5l-0.3,1.9h-8.4v-12.2h8.4v1.9h-6.2v3h5.9V168.5z"/>
		<path class="st0" d="M99.7,170.3c-0.5,2.2-2.2,3.8-5.1,3.8c-3.8,0-5.6-2.7-5.6-6.2c0-3.3,1.9-6.3,5.7-6.3c3.1,0,4.7,1.8,5,3.8
			h-2.3c-0.3-1.1-1-2-2.8-2c-2.3,0-3.3,2.1-3.3,4.4c0,2.2,0.8,4.5,3.3,4.5c1.8,0,2.4-1.1,2.7-2H99.7z"/>
		<path class="st0" d="M109.8,163.6H106v-1.9h9.8v1.9h-3.8v10.3h-2.3V163.6z"/>
		<path class="st0" d="M136.6,168.4v1.9h-4.8v-1.9H136.6z"/>
		<path class="st0" d="M154,161.8h4.7c3.5,0,5.8,2.3,5.8,5.9c0,3.6-2.2,6.2-5.9,6.2H154V161.8z M156.2,172h2.2
			c2.5,0,3.7-1.8,3.7-4.3c0-2.1-1.1-4.1-3.6-4.1h-2.2V172z"/>
		<path class="st0" d="M180.2,168.5h-5.9v3.5h6.5l-0.3,1.9h-8.4v-12.2h8.4v1.9h-6.2v3h5.9V168.5z"/>
		<path class="st0" d="M188.1,161.8h5.1c2.8,0,4,1.5,4,3.1c0,1.4-0.8,2.3-1.6,2.6c0.8,0.3,2,1.2,2,2.8c0,2.2-1.7,3.6-4.2,3.6h-5.2
			V161.8z M192.8,166.6c1.4,0,2-0.6,2-1.6c0-1-0.7-1.5-1.9-1.5h-2.7v3.1H192.8z M190.3,172.1h2.6c1.5,0,2.2-0.6,2.2-1.9
			c0-1.1-0.7-1.8-2.4-1.8h-2.5V172.1z"/>
		<path class="st0" d="M207.2,161.8v12.2h-2.3v-12.2H207.2z"/>
		<path class="st0" d="M218.1,163.6h-3.8v-1.9h9.8v1.9h-3.8v10.3h-2.3V163.6z"/>
	</g>
</g>
</svg>
