<?xml version="1.0" encoding="utf-8"?>
<!-- Generator: Adobe Illustrator 25.3.1, SVG Export Plug-In . SVG Version: 6.00 Build 0)  -->
<!DOCTYPE svg PUBLIC "-//W3C//DTD SVG 1.1//EN" "http://www.w3.org/Graphics/SVG/1.1/DTD/svg11.dtd" [
	<!ENTITY ns_extend "http://ns.adobe.com/Extensibility/1.0/">
	<!ENTITY ns_ai "http://ns.adobe.com/AdobeIllustrator/10.0/">
	<!ENTITY ns_graphs "http://ns.adobe.com/Graphs/1.0/">
	<!ENTITY ns_vars "http://ns.adobe.com/Variables/1.0/">
	<!ENTITY ns_imrep "http://ns.adobe.com/ImageReplacement/1.0/">
	<!ENTITY ns_sfw "http://ns.adobe.com/SaveForWeb/1.0/">
	<!ENTITY ns_custom "http://ns.adobe.com/GenericCustomNamespace/1.0/">
	<!ENTITY ns_adobe_xpath "http://ns.adobe.com/XPath/1.0/">
]>
<svg version="1.1" id="Layer_1" xmlns:x="&ns_extend;" xmlns:i="&ns_ai;" xmlns:graph="&ns_graphs;"
	 xmlns="http://www.w3.org/2000/svg" xmlns:xlink="http://www.w3.org/1999/xlink" x="0px" y="0px" viewBox="0 0 512 512"
	 style="enable-background:new 0 0 512 512;" xml:space="preserve">
<style type="text/css">
	.st0{fill:#002D64;}
</style>
<metadata>
	<sfw  xmlns="&ns_sfw;">
		<slices></slices>
		<sliceSourceBounds  bottomLeftOrigin="true" height="475.5" width="327.3" x="92.3" y="18.2"></sliceSourceBounds>
	</sfw>
</metadata>
<g>
	<path class="st0" d="M220.3,281.5V110.2c0,0,0.8-13.9-3.5-20.6c-3.9-6.1-12.4-12.7-29.6-10.7c-33.7,3.9-70,42.1-76.9,54.8
		c-14.7,26.8-20.1,68.9,20.5,99.7C159.8,255.4,220.2,281.5,220.3,281.5"/>
	<path class="st0" d="M191.4,337.6c-20.7-14.4-50.4-25.1-76.1-39.6c-8.2-4.6-15.9-10.1-22.9-16.5v168.2c0,0-0.7,10.4,2.3,18.7
		c5.4,14.9,20,32.2,54.1,22.8c4.9-1.3,9.5-3,13.8-4.9c28.5-12.9,57.6-35.1,57.6-87.2C220.2,399,221.1,358.1,191.4,337.6z"/>
	<path class="st0" d="M275.1,429V240.1c0,0,44.9-22.8,56.2-27.1c37-14,85.6,1.2,88.3,63.1c0.9,20.3-3.8,39.7-7.7,49
		c-7.8,18.7-20.8,37.6-45.7,54.2C336,399.4,275.1,429,275.1,429"/>
	<path class="st0" d="M309.6,20.1C281.2,26.4,275,42,275,65.8v116.3c0,0,65-29.1,77.3-36.9C422.9,100.5,384.3,3.6,309.6,20.1"/>
</g>
</svg>
