<svg width="200" height="200" viewBox="0 0 200 200" fill="none" xmlns="http://www.w3.org/2000/svg">
<rect width="200" height="200" fill="white"/>
<path d="M135.245 114.454C132.334 114.454 129.757 114.502 127.181 114.407C126.846 114.407 126.512 113.977 126.226 113.691C125.94 113.404 125.797 112.975 125.463 112.498C123.697 114.454 121.502 114.979 119.116 114.931C114.726 114.884 111.719 112.88 110.192 108.776C109.047 105.674 108.809 102.477 109.477 99.2318C110.574 94.4121 113.867 91.7875 118.543 90.7854C120.452 90.4037 122.456 90.4037 124.461 90.3082C125.272 90.2605 125.558 90.0696 125.558 89.2107C125.51 87.1588 125.558 85.1068 125.51 83.0072C125.51 82.2437 125.797 81.9573 126.512 82.0051C128.517 82.0528 130.473 82.0528 132.477 82.0051C133.527 81.9573 133.861 82.3391 133.861 83.3889C133.814 91.5012 133.861 99.5658 133.861 107.678C133.861 108.298 133.861 108.919 133.861 109.539C133.814 111.257 133.957 112.88 135.245 114.454ZM125.558 102.429C125.558 100.616 125.558 98.8023 125.558 96.9412C125.558 96.3209 125.415 95.9391 124.699 95.8914C120.738 95.5097 117.923 97.657 117.589 101.522C117.255 105.292 118.591 107.964 122.218 108.68C122.981 108.823 123.745 108.823 124.556 108.871C125.272 108.919 125.606 108.632 125.606 107.869C125.51 106.056 125.558 104.242 125.558 102.429Z" fill="#009775"/>
<path d="M34.795 98.516C36.0357 98.7069 36.7992 98.3251 37.4195 97.4662C38.9943 95.3188 40.6167 93.1237 42.2392 91.024C42.4778 90.69 42.955 90.4037 43.3367 90.356C46.1522 90.3082 48.9199 90.3082 51.9739 90.3082C51.5922 90.8332 51.3059 91.2149 51.0196 91.5967C48.6813 94.5553 46.3908 97.5616 44.0048 100.52C43.4799 101.188 43.4322 101.618 43.9571 102.334C46.8202 105.96 49.588 109.682 52.4034 113.357C52.642 113.643 52.8329 113.977 53.2146 114.454C50.1129 114.454 47.202 114.502 44.2911 114.407C43.9571 114.407 43.623 113.929 43.3845 113.643C41.3325 110.875 39.3283 108.108 37.3241 105.34C37.0855 105.006 36.7992 104.672 36.4174 104.481C35.3199 103.861 34.7472 104.195 34.7472 105.435C34.7472 108.06 34.6995 110.637 34.7472 113.261C34.795 114.263 34.4132 114.502 33.5065 114.502C31.5978 114.454 29.689 114.407 27.7802 114.502C26.6349 114.55 26.3486 114.12 26.3486 113.023C26.3964 103.622 26.3486 94.269 26.3486 84.8682C26.3486 82.0528 26.3486 82.0528 29.1164 82.0528C30.5957 82.0528 32.075 82.1005 33.5543 82.0528C34.4609 82.0051 34.7472 82.3391 34.7472 83.2935C34.6995 87.8746 34.7472 92.4556 34.7472 97.0844C34.795 97.5616 34.795 97.9911 34.795 98.516Z" fill="#009775"/>
<path d="M166.357 112.736C164.306 114.979 161.442 115.075 158.579 114.979C154.38 114.884 151.517 112.116 151.183 107.964C150.801 103.479 152.471 100.95 156.766 99.709C158.579 99.1841 160.488 99.0409 162.397 98.8023C163.256 98.7069 164.21 98.8023 165.069 98.7546C165.499 98.7069 166.357 98.516 166.357 98.3728C166.31 97.7047 166.31 96.8935 165.88 96.464C165.403 95.9868 164.592 95.6051 163.924 95.6051C160.727 95.5574 157.577 95.6528 154.38 95.7005C154.141 95.7005 153.95 95.7482 153.569 95.7482C153.569 94.0781 153.569 92.4556 153.616 90.8332C153.616 90.6423 153.998 90.356 154.237 90.356C159.056 89.7833 163.924 89.3539 168.743 90.4514C172.895 91.4058 174.899 94.0304 174.899 98.3251C174.899 101.999 174.899 105.722 174.899 109.396C174.899 112.164 174.899 112.164 176.045 114.502C173.372 114.502 170.748 114.597 168.123 114.407C167.503 114.359 167.026 113.357 166.357 112.736ZM166.501 106.581C166.501 105.865 166.548 105.101 166.453 104.385C166.405 104.099 166.071 103.67 165.928 103.67C164.306 103.765 162.683 103.765 161.108 104.099C160.106 104.29 159.534 105.197 159.486 106.294C159.39 107.392 159.868 108.251 160.774 108.68C161.633 109.062 162.588 109.348 163.542 109.396C167.026 109.396 166.453 109.825 166.501 106.581Z" fill="#009775"/>
<path d="M78.6493 114.502C75.8338 114.502 73.3047 114.597 70.7279 114.454C70.1075 114.407 69.4872 113.5 69.0577 112.832C68.9622 112.832 68.8668 112.784 68.8191 112.832C66.0514 115.456 62.6633 115.409 59.2752 114.788C55.9348 114.168 53.9306 111.496 53.5966 108.108C53.024 102.477 56.2212 100.234 60.8022 99.3272C62.9496 98.8977 65.1924 98.9932 67.3875 98.8023C67.9124 98.7546 68.7236 98.6114 68.8191 98.2774C69.1054 97.4662 68.8191 96.5118 68.0079 96.2254C66.9103 95.796 65.7173 95.4619 64.5243 95.4619C61.7566 95.4142 58.9412 95.6051 55.9826 95.7005C55.9826 94.1258 55.9826 92.5033 56.0303 90.8332C56.0303 90.69 56.4598 90.4037 56.6984 90.4037C61.4703 89.8788 66.2422 89.4493 70.9665 90.4514C75.2135 91.3581 77.2654 93.9826 77.3131 98.2774C77.3131 102.19 77.3609 106.151 77.3131 110.064C77.2654 111.543 77.504 113.023 78.6493 114.502ZM68.9622 106.533C68.9622 105.817 69.01 105.149 68.9145 104.433C68.8668 104.147 68.485 103.67 68.2942 103.67C66.7671 103.717 65.1924 103.765 63.7131 104.051C62.6156 104.29 61.9952 105.197 61.9475 106.39C61.8998 107.487 62.4247 108.394 63.4268 108.823C64.238 109.157 65.1447 109.396 66.0036 109.444C69.5349 109.396 68.8668 109.778 68.9622 106.533Z" fill="#009775"/>
<path d="M80.7021 90.356C83.5176 90.356 86.0467 90.2605 88.5758 90.4037C89.2439 90.4514 89.8643 91.3581 90.6755 91.9784C90.7232 91.9307 91.0095 91.7876 91.2959 91.5967C94.2067 89.6879 97.4039 89.3539 100.697 90.2128C103.56 90.9763 105.612 93.41 105.707 96.5595C105.898 102.238 105.803 107.917 105.85 113.595C105.85 114.359 105.421 114.454 104.8 114.454C102.701 114.454 100.601 114.407 98.5015 114.454C97.6425 114.502 97.4517 114.12 97.4994 113.357C97.5471 108.919 97.4994 104.481 97.4994 100.043C97.4994 97.0367 96.4973 95.8914 93.4909 95.8437C89.6257 95.796 90.4369 95.4142 90.3892 98.85C90.3415 103.622 90.3415 108.442 90.3892 113.214C90.3892 114.216 90.1029 114.502 89.1485 114.454C87.3351 114.407 85.4741 114.454 83.6607 114.454C82.0383 114.454 82.0383 114.454 82.0383 112.88C82.0383 107.249 82.0383 101.618 82.0383 95.9391C82.0383 94.0781 82.1337 92.1693 80.7021 90.356Z" fill="#009775"/>
<path d="M0.10349 108.585C4.15964 108.68 7.88175 108.728 11.6516 108.776C12.2242 108.776 12.8446 108.728 13.3695 108.489C13.799 108.298 14.3716 107.821 14.3716 107.439C14.3716 106.962 13.9898 106.294 13.5604 106.103C12.6537 105.674 11.6516 105.435 10.6972 105.149C8.45438 104.481 6.16385 104.051 4.01648 103.145C0.819282 101.761 -0.469141 99.0409 0.151211 95.6051C0.580685 93.2668 2.15542 91.9307 4.25508 91.0718C6.97508 89.9742 9.83825 89.7833 12.7491 89.831C15.1828 89.8788 17.6642 90.0219 20.0979 90.1651C21.7204 90.2605 21.7204 90.3082 21.7204 91.883C21.7204 93.2191 21.7204 94.5076 21.7204 95.9391C20.0025 95.796 18.38 95.6528 16.7576 95.6051C14.7533 95.5574 12.7014 95.6051 10.6972 95.6528C9.93368 95.6528 9.17017 95.8437 9.07473 96.7981C8.9793 97.7525 9.64737 98.1342 10.3632 98.3251C12.2242 98.85 14.1807 99.1841 15.994 99.7567C17.5688 100.282 19.1912 100.807 20.5751 101.713C24.679 104.433 24.3927 110.541 20.1456 113.023C17.9983 114.311 15.6123 114.884 13.1309 114.931C9.36105 114.979 5.59122 114.836 1.82139 114.693C0.055772 114.645 0.0557717 114.55 0.0557717 112.784C0.103491 111.352 0.10349 109.921 0.10349 108.585Z" fill="#009775"/>
<path d="M139.349 90.356C141.878 90.356 144.36 90.356 146.841 90.356C147.748 90.356 147.557 90.9763 147.557 91.5012C147.557 95.796 147.557 100.043 147.557 104.338C147.557 107.392 147.509 110.398 147.557 113.452C147.557 114.263 147.318 114.55 146.507 114.502C144.407 114.454 142.308 114.454 140.208 114.502C139.54 114.502 139.158 114.359 139.158 113.595C139.158 105.96 139.158 98.3728 139.158 90.7377C139.206 90.6423 139.254 90.5946 139.349 90.356Z" fill="#009775"/>
<path d="M200 93.5532C199.619 96.2732 198.282 98.0865 196.087 99.2318C193.463 100.616 190.743 100.52 188.214 98.9932C183.967 96.4163 183.919 90.9286 188.07 88.1609C191.459 85.9181 196.374 86.6816 198.569 89.9742C199.189 91.024 199.523 92.3602 200 93.5532Z" fill="#009775"/>
<path d="M192.269 117.365C190.551 117.365 188.976 116.84 187.593 115.79C184.157 113.166 184.109 108.489 187.449 105.769C190.217 103.526 194.56 103.526 197.28 105.817C199.332 107.535 200.143 109.73 199.475 112.355C198.807 114.931 196.278 116.983 193.558 117.27C193.128 117.317 192.699 117.317 192.269 117.365Z" fill="#009775"/>
<path d="M139.205 87.2065C139.205 85.6317 139.158 84.2479 139.253 82.864C139.253 82.6254 139.73 82.1959 140.017 82.1482C142.259 82.1005 144.502 82.1005 146.793 82.1482C147.079 82.1482 147.556 82.6254 147.604 82.9594C147.699 84.1047 147.699 85.2977 147.604 86.443C147.604 86.7293 147.222 87.1587 146.984 87.1587C144.407 87.2065 141.878 87.2065 139.205 87.2065Z" fill="#009775"/>
</svg>
