<svg width="200" height="200" viewBox="0 0 200 200" fill="none" xmlns="http://www.w3.org/2000/svg">
<rect width="200" height="200" fill="white"/>
<path d="M200 0.198789C200 7.75345 200 15.1093 200 22.2664C184.494 22.664 169.384 23.0616 154.076 23.658C137.376 24.2544 121.671 28.0318 108.152 38.1709C91.0544 50.6957 82.108 67.9919 77.5355 88.2702C74.7522 100.596 72.1677 112.922 68.788 124.851C62.2274 148.31 45.5276 161.829 23.0624 168.389C15.9054 170.576 8.1519 171.173 0.398438 172.564C0.398438 114.513 0.398438 57.4552 0.398438 0C66.6011 0.198807 133.003 0.198789 200 0.198789Z" fill="#E82128"/>
<path d="M0.198819 199.602C0.198819 198.409 0 197.614 0 196.62C0 190.258 0 184.095 0 177.534C1.19284 177.336 1.98809 177.137 2.78331 177.137C17.2962 176.739 31.8091 176.342 46.322 175.944C66.6003 175.348 84.8905 169.582 99.801 155.268C111.729 143.737 118.688 129.423 122.465 113.519C125.447 101.193 127.833 88.6679 131.213 76.5406C138.37 50.0993 157.057 35.7852 182.703 29.6222C188.27 28.2306 194.035 28.0318 200 27.2366C200 84.8905 200 141.948 200 199.403C133.399 199.602 66.9979 199.602 0.198819 199.602Z" fill="#E82128"/>
</svg>
