<?xml version="1.0" encoding="utf-8"?>
<!-- Generator: Adobe Illustrator 25.3.1, SVG Export Plug-In . SVG Version: 6.00 Build 0)  -->
<!DOCTYPE svg PUBLIC "-//W3C//DTD SVG 1.1//EN" "http://www.w3.org/Graphics/SVG/1.1/DTD/svg11.dtd" [
	<!ENTITY ns_extend "http://ns.adobe.com/Extensibility/1.0/">
	<!ENTITY ns_ai "http://ns.adobe.com/AdobeIllustrator/10.0/">
	<!ENTITY ns_graphs "http://ns.adobe.com/Graphs/1.0/">
	<!ENTITY ns_vars "http://ns.adobe.com/Variables/1.0/">
	<!ENTITY ns_imrep "http://ns.adobe.com/ImageReplacement/1.0/">
	<!ENTITY ns_sfw "http://ns.adobe.com/SaveForWeb/1.0/">
	<!ENTITY ns_custom "http://ns.adobe.com/GenericCustomNamespace/1.0/">
	<!ENTITY ns_adobe_xpath "http://ns.adobe.com/XPath/1.0/">
]>
<svg version="1.1" id="Layer_1" xmlns:x="&ns_extend;" xmlns:i="&ns_ai;" xmlns:graph="&ns_graphs;"
	 xmlns="http://www.w3.org/2000/svg" xmlns:xlink="http://www.w3.org/1999/xlink" x="0px" y="0px" viewBox="0 0 512 512"
	 style="enable-background:new 0 0 512 512;" xml:space="preserve">
<style type="text/css">
	.st0{fill:#005AAA;}
	.st1{fill:#F06400;}
	.st2{fill:#FFFFFF;}
	.st3{fill-rule:evenodd;clip-rule:evenodd;fill:#FFFFFF;}
</style>
<metadata>
	<sfw  xmlns="&ns_sfw;">
		<slices></slices>
		<sliceSourceBounds  bottomLeftOrigin="true" height="512" width="511.9" x="0" y="0"></sliceSourceBounds>
	</sfw>
</metadata>
<polygon class="st0" points="0,0 511.9,0 511.9,442.5 0,442.5 "/>
<polygon class="st1" points="0,470.5 511.9,470.5 511.9,512 0,512 "/>
<g>
	<g>
		<path class="st2" d="M101.3,188.9h-9.4l-1.4,5.2c-6.3-5.2-13.6-7.7-23-7.7c-19.5,0-32,10.1-32,26.1c0,5.9,1.4,10.5,4.9,14.3
			c3.5,3.8,8,6.3,18.5,8.7l3.8,1l3.8,1l3.8,1c4.5,1,8,1.7,10.5,2.8c3.8,1.4,5.6,3.5,5.6,7.3c0,6.3-5.9,10.5-15,10.5
			c-8.4,0-17.1-3.5-20.9-8.7c-2.1-2.4-3.1-5.6-4.5-11.8H34.8v28.9h9.4l2.4-6.3c7.3,6.3,15.3,8.7,26.5,8.7c19.2,0,31-10.1,31-26.5
			c0-9.8-4.2-16.4-12.5-19.9c-5.2-2.1-8-2.8-23.7-6.3c-12.2-2.4-16-4.9-16-10.1c0-6.3,6.3-10.8,15-10.8c13.2,0,21.6,7.7,23.3,20.6
			H101v-28.2H101.3z"/>
		<path class="st3" d="M134.1,211.2h-26.5v9.4h4.9c3.1,0,4.2,1.4,4.2,5.2V276c0,3.8-1,5.2-4.2,5.2h-4.9v9.4h36.2v-9.4h-5.6
			c-3.1,0-4.2-1.4-4.2-5.2v-13.9c4.5,4.9,9.4,7,16.4,7c16,0,24.7-11.1,24.7-31.7c0-17.4-8.7-28.2-23.3-28.2
			c-7.7,0-13.2,2.4-17.8,8.7L134.1,211.2L134.1,211.2z M145.6,220.6c7,0,10.8,6.6,10.8,18.1c0,12.9-3.8,19.9-11.1,19.9
			c-7.7,0-11.1-6.3-11.1-18.5C134.1,227.6,138.3,220.6,145.6,220.6L145.6,220.6z"/>
		<path class="st3" d="M236.5,246.7v6.6c0,3.8-0.7,5.2-2.8,5.2c-1.7,0-2.4-1-2.4-3.8v-26.1c0-13.6-7.7-19.2-26.1-19.2
			c-15.3,0-23.7,5.2-23.7,15c0,5.6,4.2,9.8,9.4,9.8s8.7-3.5,8.7-8.4c0-3.1-1.7-5.2-5.6-6.6c2.4-1,3.5-1.4,7-1.4
			c8.4,0,13.2,3.1,13.2,9.1c0,4.9-2.4,7-10.8,8.7l-2.4,0.3l-2.1,0.7l-2.1,0.7c-3.1,0.7-5.6,1.4-7.7,2.1c-6.3,2.1-9.8,7.3-9.8,14.6
			c0,9.8,6.6,15.7,17.1,15.7c7.3,0,13.6-2.8,18.1-8.7c2.4,5.9,7,8.7,15,8.7c10.1,0,15-5.2,15-16v-6.6h-8V246.7z M214.2,249.9
			c0,4.5-5.2,8.7-10.5,8.7c-4.2,0-6.6-2.4-6.6-6.6c0-3.8,1.4-5.6,7.7-7.3c1.7-0.3,2.8-1,9.8-3.1v8.4H214.2z"/>
		<path class="st2" d="M274.5,211.2h-26.8v9.4h5.2c3.1,0,4.2,1.4,4.2,5.2v26.5c0,3.8-1,5.2-4.2,5.2h-5.2v9.4h38v-9.4h-7
			c-3.1,0-4.2-1.4-4.2-5.2v-13.9c0-12.2,4.5-20.6,10.8-20.6c-2.4,3.1-3.1,4.9-3.1,7c0,4.9,3.5,8.4,8.4,8.4c5.9,0,9.8-4.2,9.8-10.8
			c0-7.3-4.9-12.5-11.5-12.5c-5.9,0-9.4,2.1-15,9.8L274.5,211.2L274.5,211.2z"/>
		<path class="st3" d="M360.2,188.9H333v9.4h5.2c3.1,0,4.2,1.4,4.2,5.2v13.9c-5.6-5.9-9.8-8-16.4-8c-14.6,0-24.7,12.9-24.7,31.4
			c0,17.1,9.8,28.6,24.4,28.6c7.3,0,13.2-2.8,17.8-8.4v6.6h25.4v-9.4H364c-3.1,0-4.2-1.4-4.2-5.2v-64.1H360.2z M331.9,221
			c7.3,0,11.5,7,11.5,18.8c0,11.8-4.9,19.9-12.2,19.9c-7.3,0-11.1-6.6-11.1-18.8C320.1,228.3,324.6,221,331.9,221L331.9,221z"/>
		<path class="st3" d="M430.2,246.7v6.6c0,3.8-0.7,5.2-2.8,5.2c-1.7,0-2.4-1-2.4-3.8v-26.1c0-13.6-7.7-19.2-26.1-19.2
			c-15.3,0-23.7,5.2-23.7,15c0,5.6,4.2,9.8,9.4,9.8c5.2,0,8.7-3.5,8.7-8.4c0-3.1-1.7-5.2-5.6-6.6c2.4-1,3.5-1.4,7-1.4
			c8.4,0,13.2,3.1,13.2,9.1c0,4.9-2.4,7-10.8,8.7l-2.4,0.3l-2.1,0.3l-2.1,0.7c-3.1,0.7-5.6,1.4-7.7,2.1c-6.3,2.1-9.8,7.3-9.8,14.6
			c0,9.8,6.6,15.7,17.1,15.7c7.3,0,13.6-2.8,18.1-8.7c2.4,5.9,7,8.7,15,8.7c10.1,0,15-5.2,15-16v-6.6H430.2L430.2,246.7z
			 M407.5,249.9c0,4.5-5.2,8.7-10.5,8.7c-4.2,0-6.6-2.4-6.6-6.6c0-3.8,1.4-5.6,7.7-7.3c1.7-0.3,2.8-1,9.8-3.1v8.4H407.5z"/>
		<polygon class="st2" points="443.1,231.4 443.1,246 477.2,246 477.2,231.4 		"/>
	</g>
	<g>
		<path class="st3" d="M41.1,303.2v9.8h6.3c4.9,0,6.3,1.4,6.3,5.6v48.1c0,3.8-1.7,5.6-6.3,5.6h-6.3v9.8h53.6
			c17.8,0,28.9-8.4,28.9-21.6c0-10.5-5.9-17.1-18.1-19.5c11.1-3.8,16-9.1,16-17.4c0-12.9-9.4-19.9-27.2-19.9H41.1V303.2z
			 M73.1,336.3v-23h13.2c10.8,0,15,3.1,15,11.5c0,8-4.5,11.5-15,11.5H73.1L73.1,336.3z M73.1,372.2v-25.4h15.3
			c9.4,0,14.3,4.5,14.3,12.5c0,9.1-4.5,12.9-15,12.9H73.1L73.1,372.2z"/>
		<path class="st3" d="M183.9,361v6.6c0,3.8-0.7,5.2-2.8,5.2c-1.7,0-2.4-1-2.4-3.8v-26.1c0-13.6-7.7-19.2-26.1-19.2
			c-15.3,0-23.7,5.2-23.7,15c0,5.6,4.2,9.8,9.4,9.8s8.7-3.5,8.7-8.4c0-3.1-1.7-5.2-5.6-6.6c2.4-1,3.5-1.4,7-1.4
			c8.4,0,13.2,3.1,13.2,9.1c0,4.9-2.4,7-10.8,8.7l-2.4,0.3l-2.1,0.3l-2.1,0.7c-3.1,0.7-5.6,1.4-7.7,2.1c-6.3,2.1-9.8,7.3-9.8,14.6
			c0,9.8,6.6,15.7,17.1,15.7c7.3,0,13.6-2.8,18.1-8.7c2.4,5.9,7,8.7,15,8.7c10.1,0,15-5.2,15-16V361H183.9L183.9,361z M161.2,364.2
			c0,4.5-5.2,8.7-10.5,8.7c-4.2,0-6.6-2.4-6.6-6.6c0-3.8,1.4-5.6,7.7-7.3c1.7-0.3,2.8-1,9.8-3.1v8.4H161.2z"/>
		<path class="st2" d="M220.1,325.5h-25.4v9.4h4.9c3.1,0,4.2,1.4,4.2,5.2v26.5c0,3.8-1,5.2-4.2,5.2h-4.9v9.4h33.4v-9.4h-2.8
			c-3.1,0-4.2-1.4-4.2-5.2v-17.8c0-9.8,3.5-14.3,11.1-14.3c6.3,0,8.4,3.1,8.4,11.1v20.6c0,3.8-1,5.2-4.2,5.2h-3.1v9.4h34.1v-9.4
			h-5.2c-3.1,0-4.5-1.4-4.5-5.2v-25.8c0-10.5-7-16.7-18.5-16.7c-8,0-12.9,2.4-19.5,10.1L220.1,325.5L220.1,325.5z"/>
		<path class="st2" d="M297.8,303.2H271v9.4h5.2c3.1,0,4.2,1.4,4.2,5.2v48.8c0,3.8-1,5.2-4.2,5.2H271v9.4h33.1v-9.4h-1.7
			c-3.1,0-4.5-1.4-4.5-5.2v-5.2l7.3-5.6l9.1,12.9c0.3,0.3,0.7,1.4,0.7,1.7c0,1-1,1.4-3.1,1.4h-2.8v9.4h33.8v-9.4h-2.4
			c-2.1,0-2.8-0.7-6.3-5.2L318.7,345l9.1-7c3.8-2.8,5.9-3.5,10.1-3.5h4.5v-9.4h-36.2v9.4h5.6c2.1,0,2.8,0.3,2.8,1.4
			c0,0.7-0.7,1.4-1.4,2.1l-15.7,11.5v-46.3H297.8z"/>
		<path class="st3" d="M402.7,355.8c0-1,0-2.8,0-3.1c0-17.4-11.1-28.6-29.3-28.6c-17.8,0-29.3,11.8-29.3,30c0,18.5,11.5,30,30.7,30
			c15,0,25.4-8.4,27.2-21.6h-11.1c-2.1,7.3-7,11.1-14.3,11.1c-8.7,0-13.6-5.9-14.3-17.8H402.7L402.7,355.8z M362.2,346.8
			c0.3-8.7,4.5-13.6,11.1-13.6c7,0,11.5,5.2,11.1,13.6H362.2L362.2,346.8z"/>
		<path class="st2" d="M429.8,325.5h-25.4v9.4h4.9c3.1,0,4.2,1.4,4.2,5.2v26.5c0,3.8-1,5.2-4.2,5.2h-4.9v9.4h33.4v-9.4h-2.8
			c-3.1,0-4.2-1.4-4.2-5.2v-17.8c0-9.8,3.5-14.3,11.1-14.3c6.3,0,8.4,3.1,8.4,11.1v20.6c0,3.8-1,5.2-4.2,5.2h-3.1v9.4h34.1v-9.4
			h-4.9c-3.1,0-4.5-1.4-4.5-5.2v-25.8c0-10.5-7-16.7-18.5-16.7c-8,0-12.9,2.4-19.5,10.1L429.8,325.5L429.8,325.5z"/>
	</g>
</g>
</svg>
