<svg width="200" height="200" viewBox="0 0 200 200" fill="none" xmlns="http://www.w3.org/2000/svg">
<rect width="200" height="200" fill="white"/>
<path d="M116.372 149.865C116.372 134.121 116.372 118.376 116.372 102.631C116.372 100.007 116.372 99.8998 119.05 100.114C134.795 101.239 147.433 108.201 156.752 120.946C163.981 130.8 166.82 142.047 165.963 154.203C164.463 175.411 148.451 193.887 127.565 198.599C124.619 199.242 121.567 199.456 118.568 199.938C116.908 200.206 116.372 199.617 116.372 197.903C116.372 181.891 116.372 165.878 116.372 149.865Z" fill="#3EA43C"/>
<path d="M97.5753 109.914C97.5753 112.485 97.5217 115.056 97.6288 117.626C97.6824 119.233 97.2004 119.875 95.4867 119.929C81.6698 120.197 69.1918 116.341 58.1597 108.04C44.6106 97.8648 36.6311 84.3157 34.489 67.5534C30.4189 35.4747 52.2152 6.7699 82.848 1.14676C86.811 0.397005 90.8811 0.343452 94.9511 0.0221296C96.8791 -0.138532 97.7359 0.557667 97.6288 2.69982C97.4682 7.41255 97.5217 12.1788 97.6288 16.8916C97.6824 18.7124 97.2539 19.3015 95.2725 19.2479C75.2434 19.0337 58.7488 32.4221 54.6787 52.0764C50.1266 74.2476 65.8179 96.6331 88.0963 99.7928C90.6668 100.168 93.3445 100.221 95.9687 100.221C97.2539 100.221 97.6288 100.703 97.5753 101.881C97.5217 104.505 97.5753 107.237 97.5753 109.914Z" fill="#3EA43C"/>
<path d="M98.1102 76.0684C89.3809 75.9613 82.2583 68.7851 82.3118 60.1094C82.3654 51.2195 89.7022 43.9897 98.5386 44.1504C107.375 44.2575 114.337 51.4873 114.283 60.3772C114.283 69.16 107 76.1755 98.1102 76.0684Z" fill="#C41730"/>
</svg>
