<?xml version="1.0" encoding="utf-8"?>
<!-- Generator: Adobe Illustrator 25.3.1, SVG Export Plug-In . SVG Version: 6.00 Build 0)  -->
<!DOCTYPE svg PUBLIC "-//W3C//DTD SVG 1.1//EN" "http://www.w3.org/Graphics/SVG/1.1/DTD/svg11.dtd" [
	<!ENTITY ns_extend "http://ns.adobe.com/Extensibility/1.0/">
	<!ENTITY ns_ai "http://ns.adobe.com/AdobeIllustrator/10.0/">
	<!ENTITY ns_graphs "http://ns.adobe.com/Graphs/1.0/">
	<!ENTITY ns_vars "http://ns.adobe.com/Variables/1.0/">
	<!ENTITY ns_imrep "http://ns.adobe.com/ImageReplacement/1.0/">
	<!ENTITY ns_sfw "http://ns.adobe.com/SaveForWeb/1.0/">
	<!ENTITY ns_custom "http://ns.adobe.com/GenericCustomNamespace/1.0/">
	<!ENTITY ns_adobe_xpath "http://ns.adobe.com/XPath/1.0/">
]>
<svg version="1.1" id="Layer_1" xmlns:x="&ns_extend;" xmlns:i="&ns_ai;" xmlns:graph="&ns_graphs;"
	 xmlns="http://www.w3.org/2000/svg" xmlns:xlink="http://www.w3.org/1999/xlink" x="0px" y="0px" viewBox="0 0 512 512"
	 style="enable-background:new 0 0 512 512;" xml:space="preserve">
<style type="text/css">
	.st0{fill:#FFDF00;}
</style>
<metadata>
	<sfw  xmlns="&ns_sfw;">
		<slices></slices>
		<sliceSourceBounds  bottomLeftOrigin="true" height="512" width="512" x="0" y="0"></sliceSourceBounds>
	</sfw>
</metadata>
<rect class="st0" width="512" height="512"/>
<path d="M249.2,442.2c-30.2,0-61.4-4.5-88.6-19.1l-4.5-2.5c-1-0.5-1.5-1-2-1c-2,0-9.1,10.1-14.6,17.6H133L131.5,335h7
	c12.1,36.2,38.7,72,61.4,83.5c11.6,6,31.7,13.1,48.8,13.1c48.3,0,81.5-28.7,81.5-73.5c0-36.7-24.7-52.8-56.4-64.9
	c-32.2-12.1-43.8-14.6-73.5-26.2c-34.7-13.6-66.4-47.8-66.4-91.6c0-72.5,57.4-105.7,120.8-105.7c27.7,0,56.9,5.5,80.5,20.6
	c1.5,1,3,2,4,2.5c0.5,0.5,1,1,1,1c2,0,9.6-10.1,14.6-18.1h7V171h-7.5c-16.6-45.3-49.3-90.6-100.1-90.6c-41.3,0-73.5,24.2-73.5,68.9
	c0,34.2,23.1,54.3,56.4,66.9c27.2,10.1,45.8,15.6,71.4,25.2c45.3,16.6,72,48.8,72,96.6C380.5,402.9,325.2,442.2,249.2,442.2"/>
</svg>
