<?xml version="1.0" encoding="utf-8"?>
<!-- Generator: Adobe Illustrator 25.3.1, SVG Export Plug-In . SVG Version: 6.00 Build 0)  -->
<!DOCTYPE svg PUBLIC "-//W3C//DTD SVG 1.1//EN" "http://www.w3.org/Graphics/SVG/1.1/DTD/svg11.dtd" [
	<!ENTITY ns_extend "http://ns.adobe.com/Extensibility/1.0/">
	<!ENTITY ns_ai "http://ns.adobe.com/AdobeIllustrator/10.0/">
	<!ENTITY ns_graphs "http://ns.adobe.com/Graphs/1.0/">
	<!ENTITY ns_vars "http://ns.adobe.com/Variables/1.0/">
	<!ENTITY ns_imrep "http://ns.adobe.com/ImageReplacement/1.0/">
	<!ENTITY ns_sfw "http://ns.adobe.com/SaveForWeb/1.0/">
	<!ENTITY ns_custom "http://ns.adobe.com/GenericCustomNamespace/1.0/">
	<!ENTITY ns_adobe_xpath "http://ns.adobe.com/XPath/1.0/">
]>
<svg version="1.1" id="Layer_1" xmlns:x="&ns_extend;" xmlns:i="&ns_ai;" xmlns:graph="&ns_graphs;"
	 xmlns="http://www.w3.org/2000/svg" xmlns:xlink="http://www.w3.org/1999/xlink" x="0px" y="0px" viewBox="0 0 512 512"
	 style="enable-background:new 0 0 512 512;" xml:space="preserve">
<style type="text/css">
	.st0{fill:#E60000;}
	.st1{fill:#AF0000;}
	.st2{fill:#FFFFFF;}
	.st3{fill:none;}
</style>
<metadata>
	<sfw  xmlns="&ns_sfw;">
		<slices></slices>
		<sliceSourceBounds  bottomLeftOrigin="true" height="507.3" width="507.3" x="2.4" y="2.4"></sliceSourceBounds>
	</sfw>
</metadata>
<g>
	<path class="st0" d="M256,2.4c-26.8,0-52.6,4.2-76.8,11.9c102-22.1,203.2,19.9,239.6,106c42.1,99.5-18.2,220.2-134.6,269.4
		c-104.5,44.2-218.6,16-271.5-62.1C43.6,432.8,140.8,509.6,256,509.6c140.1,0,253.6-113.6,253.6-253.6S396.1,2.4,256,2.4z"/>
	<path class="st1" d="M284.1,389.7c116.5-49.3,176.8-169.9,134.6-269.4C382.3,34.1,281.2-7.9,179.2,14.3
		C76.6,46.8,2.4,142.7,2.4,256c0,24.9,3.6,48.9,10.3,71.5C65.5,405.7,179.6,433.9,284.1,389.7z"/>
	<g>
		<path class="st2" d="M321,370.6V110.2c0-5.2-4.2-9.4-9.4-9.4h-59c-4.2,0-6.6,0.9-10.3,2.3l-76.1,39.2c-4.7,1.9-6.6,4.7-6.6,9.4
			v42.7c0,5,4.1,9.1,9.1,9.1h48.7v204.7c22.2-3.1,44.7-9.2,66.7-18.5C297.2,384.2,309.5,377.8,321,370.6z"/>
		<path class="st3" d="M226.8,449.8h84.8c5.2,0,9.4-4.2,9.4-9.4v-69.8c-11.5,7.2-23.9,13.6-36.9,19.1c-22,9.3-44.5,15.4-66.7,18.5
			v32.2C217.4,445.5,221.7,449.8,226.8,449.8z"/>
	</g>
</g>
</svg>
