<svg width="200" height="200" viewBox="0 0 200 200" fill="none" xmlns="http://www.w3.org/2000/svg">
<rect width="200" height="200" fill="white"/>
<path d="M55.9428 103.575C55.9428 107.245 55.9428 109.808 55.9428 113.071C98.8176 113.071 141.401 113.071 184.451 113.071C184.684 115.401 185.033 117.032 185.033 118.721C185.092 137.013 185.15 155.305 185.033 173.596C184.917 188.218 173.616 199.752 158.936 199.869C119.498 200.044 80.0599 200.044 40.6803 199.869C27.8644 199.811 17.67 191.422 15.3398 178.665C14.1165 171.965 14.4078 164.917 14 157.227C57.7486 157.227 100.507 157.227 143.149 157.227C144.78 147.965 144.605 147.673 136.624 147.673C98.7011 147.673 60.8361 147.673 22.9128 147.673C20.3497 147.673 17.7865 147.673 14.3495 147.673C14.3495 140.159 14.3495 133.227 14.3495 126.353C14.3495 114.585 14.3495 102.818 14.3495 91.0507C14.4078 72.06 25.1847 60.7005 44.1172 60.584C81.3414 60.351 118.624 60.2927 155.848 60.584C174.606 60.7588 185.092 71.9435 185.092 90.7012C185.092 94.779 185.092 98.8568 185.092 103.634C141.867 103.575 99.2836 103.575 55.9428 103.575Z" fill="#ED1C25"/>
<path d="M99.4585 51.9042C85.1863 51.7877 74.2928 40.4282 74.3511 25.8065C74.4093 11.3595 85.6523 0 99.8662 0C114.313 0 125.498 11.709 125.265 26.5637C125.032 41.1855 114.022 51.9624 99.4585 51.9042Z" fill="#ED1C25"/>
</svg>
