<?xml version="1.0" encoding="utf-8"?>
<!-- Generator: Adobe Illustrator 25.3.1, SVG Export Plug-In . SVG Version: 6.00 Build 0)  -->
<!DOCTYPE svg PUBLIC "-//W3C//DTD SVG 1.1//EN" "http://www.w3.org/Graphics/SVG/1.1/DTD/svg11.dtd" [
	<!ENTITY ns_extend "http://ns.adobe.com/Extensibility/1.0/">
	<!ENTITY ns_ai "http://ns.adobe.com/AdobeIllustrator/10.0/">
	<!ENTITY ns_graphs "http://ns.adobe.com/Graphs/1.0/">
	<!ENTITY ns_vars "http://ns.adobe.com/Variables/1.0/">
	<!ENTITY ns_imrep "http://ns.adobe.com/ImageReplacement/1.0/">
	<!ENTITY ns_sfw "http://ns.adobe.com/SaveForWeb/1.0/">
	<!ENTITY ns_custom "http://ns.adobe.com/GenericCustomNamespace/1.0/">
	<!ENTITY ns_adobe_xpath "http://ns.adobe.com/XPath/1.0/">
]>
<svg version="1.1" id="Layer_1" xmlns:x="&ns_extend;" xmlns:i="&ns_ai;" xmlns:graph="&ns_graphs;"
	 xmlns="http://www.w3.org/2000/svg" xmlns:xlink="http://www.w3.org/1999/xlink" x="0px" y="0px" viewBox="0 0 512 512"
	 style="enable-background:new 0 0 512 512;" xml:space="preserve">
<style type="text/css">
	.st0{fill:#14191A;}
</style>
<metadata>
	<sfw  xmlns="&ns_sfw;">
		<slices></slices>
		<sliceSourceBounds  bottomLeftOrigin="true" height="101.8" width="446.2" x="32.9" y="205.1"></sliceSourceBounds>
	</sfw>
</metadata>
<g>
	<path class="st0" d="M442.3,205.1c22.1,0,36.8,16.4,36.8,38.9v60.5h-17.8v-59.6c0-13.1-10-22.3-22.4-22.3
		c-13.6,0-23.9,10.4-23.9,24.4v57.5h-18.4v-96.7H415v9.4C420.8,209.9,430.6,205.1,442.3,205.1z M339.2,304.2h-15.8
		c-26.7,0-45.6-23.2-45.6-49.5c0-26.3,20.3-49.5,48.1-49.5c29.4,0,49.6,17.7,49.6,45.3v54.1h-17.2v-54.1c0-17.5-12-28.1-32.4-28.1
		c-17.7,0-30.8,15-30.8,32.3c0,17.5,12.1,32.3,28.4,32.3h15.8V304.2z M194.6,232.9l-22.6,71.7h-21.2l-30-96.7h19.7l21.3,72.9
		l23.3-72.9h19l23.1,72.9l21.4-72.9h19.7l-30.2,96.7h-21.2L194.6,232.9z M71.2,306.9c-22.2,0-36.4-12-38.1-31.2l-0.2-2.4h18l0.3,1.9
		c1.4,10,8.4,15.1,20.8,15.1c12.3,0,19.4-5.6,19.4-14.1c0-8.3-5.1-11.2-21.6-14.5c-4-0.8-3.2-0.6-4.3-0.9
		C45,256.5,35.9,250,35.9,233.2c0-16.8,14.8-28.1,35.7-28.1c18.9,0,33.5,11.4,34.9,28.8l0.2,2.4H89l-0.3-1.9
		c-1.1-8.1-7.3-12.8-18-12.8c-10.3,0-16.9,4.8-16.9,11.6c0,6.9,4.7,9.4,20,12.3c5.2,1,4.5,0.8,6.1,1.2c20,4.1,29.5,11.2,29.5,28.8
		C109.4,294.3,93.9,306.9,71.2,306.9z"/>
</g>
</svg>
