<?xml version="1.0" encoding="utf-8"?>
<!-- Generator: Adobe Illustrator 25.3.1, SVG Export Plug-In . SVG Version: 6.00 Build 0)  -->
<!DOCTYPE svg PUBLIC "-//W3C//DTD SVG 1.1//EN" "http://www.w3.org/Graphics/SVG/1.1/DTD/svg11.dtd" [
	<!ENTITY ns_extend "http://ns.adobe.com/Extensibility/1.0/">
	<!ENTITY ns_ai "http://ns.adobe.com/AdobeIllustrator/10.0/">
	<!ENTITY ns_graphs "http://ns.adobe.com/Graphs/1.0/">
	<!ENTITY ns_vars "http://ns.adobe.com/Variables/1.0/">
	<!ENTITY ns_imrep "http://ns.adobe.com/ImageReplacement/1.0/">
	<!ENTITY ns_sfw "http://ns.adobe.com/SaveForWeb/1.0/">
	<!ENTITY ns_custom "http://ns.adobe.com/GenericCustomNamespace/1.0/">
	<!ENTITY ns_adobe_xpath "http://ns.adobe.com/XPath/1.0/">
]>
<svg version="1.1" id="Слой_1" xmlns:x="&ns_extend;" xmlns:i="&ns_ai;" xmlns:graph="&ns_graphs;"
	 xmlns="http://www.w3.org/2000/svg" xmlns:xlink="http://www.w3.org/1999/xlink" x="0px" y="0px" viewBox="0 0 256 256"
	 style="enable-background:new 0 0 256 256;" xml:space="preserve">
<style type="text/css">
	.st0{fill:#002C5B;}
	.st1{fill:#FFFFFF;}
</style>
<metadata>
	<sfw  xmlns="&ns_sfw;">
		<slices></slices>
		<sliceSourceBounds  bottomLeftOrigin="true" height="255.8" width="256.1" x="0" y="0.2"></sliceSourceBounds>
	</sfw>
</metadata>
<rect class="st0" width="256.1" height="255.8"/>
<g>
	<g>
		<path class="st1" d="M51.3,122.4c-5.4-3.4-14.8-2.5-14.8-8.2c0-4.1,2.6-4.9,6.6-4.9c3.3,0,5.9,0.8,5.9,0.8l0.9,3.4h2.7v-5.4
			c0,0-4-2-10.5-2S31,109,31,114.7c0,5.5,2.8,7.8,10.6,9.9c6.1,1.6,7.8,2.8,8,6c0.4,5.7-3.1,6.5-7.6,6.5c-3.8,0-7.1-1.5-7.1-1.5
			l-0.8-3.9h-2.7v6.1c0,0,5.7,2.4,11,2.4c7.4,0,13.1-1.4,13.1-9.4C55.4,126.5,54.3,124.3,51.3,122.4"/>
		<path class="st1" d="M182.1,139.4v-1.7l3-0.6v-11.7c0-2.8,0.4-5.4-3.7-5.4c-3.1,0-6.2,1.3-6.2,1.3v15.8l3,0.6v1.7h-11.6v-1.7
			l3.2-0.6v-17.5l-3.3-0.6v-1.9l8.5,0l0.2,1.4c3.6-1.5,6.5-2.3,8.7-2.3c2.5,0,4.4,0.8,5.5,2.2c1.1,1.3,1.2,2.4,1.2,5.9v12.7l3.4,0.6
			v1.7L182.1,139.4L182.1,139.4z M155.2,128.2c-5.8,0-8.6,1.4-8.6,4.7c0,3.2,2.2,4,3.7,4c2.3,0,4.8-1.5,4.8-1.5V128.2z M155.4,139.5
			l-0.2-1.6c-3.2,1.6-5.2,2.3-7.4,2.3c-3.7,0-6.7-2.5-6.7-7.4c0-7.4,8.9-7.1,14.1-7.1v-1c0-4-0.5-5.2-4.4-5.2
			c-2.2,0-5.3,0.7-5.3,0.7l-0.5,2.4l-2.2,0v-4.4c0,0,4.6-1.7,9.9-1.7c3.1,0,4.9,0.7,6,1.7c1.7,1.5,1.7,4,1.7,6.9v12.2l3.2,0.5v1.7
			L155.4,139.5z M126.9,119.9c-2.7,0-6.2,0.9-6.2,0.9v14.6c0,0,2.6,1.4,5.6,1.4c3.5,0,5.4-3,5.4-8.3
			C131.8,122.6,130.1,119.9,126.9,119.9 M128.3,140.1c-4.6,0-7.7-2.5-7.7-2.5l-0.4,1.8h-5v-30.1l-3.3-0.6v-1.9l8.8,0v11.4
			c0,0,3.7-1.6,8.4-1.6c5.3,0,8.4,3.9,8.4,11.7C137.5,135.6,133.9,140.1,128.3,140.1 M100.6,120.4c0,0-2.6-0.6-5.6-0.6
			c-3.5,0-5.4,3-5.4,8.3c0,5.9,1.8,8.6,5.1,8.6c2.7,0,6-1.5,6-1.5V120.4z M100.9,139.5l-0.2-1.7c0,0-4.6,2.4-8.3,2.4
			c-5.3,0-8.6-3.9-8.6-11.7c0-7.4,3.6-12,9.2-12c4,0,6.8,1.1,7.6,1.5v-8.7l-3.3-0.6v-1.9l8.8,0v30.5l3.3,0.6v1.7L100.9,139.5z
			 M80,119.7l-9.8,23.7c-2.1,5.1-4.2,6.4-8.8,6.4c-2.4,0-4.3-0.6-4.3-0.6V144h2.5l0.5,3.1c0,0,0.5,0.1,1.3,0.1
			c1.6,0,3.8-0.2,5.6-4.8l1.2-3l-1.6,0l-8.5-19.8l-3.3-0.6v-1.9h11.4v1.9l-2.5,0.6l6.5,15.6l6.3-15.6l-3.3-0.6v-1.9h10.2v1.9
			L80,119.7z"/>
	</g>
	<polygon class="st1" points="221.7,137 211.1,126.4 218.9,119.7 222.2,119.1 222.2,117.2 211.1,117.2 211.1,119.1 214.2,119.7 
		207,126.1 205.2,126.1 205.2,106.6 196.4,106.7 196.4,108.5 199.7,109.1 199.7,137 196.5,137.6 196.5,139.5 208.1,139.5 
		208.1,137.6 205.2,137 205.2,128.8 207.2,128.8 215.6,137.1 212.8,137.6 212.8,139.5 225,139.5 225,137.6 	"/>
</g>
</svg>
