<?xml version="1.0" encoding="utf-8"?>
<!-- Generator: Adobe Illustrator 25.3.1, SVG Export Plug-In . SVG Version: 6.00 Build 0)  -->
<!DOCTYPE svg PUBLIC "-//W3C//DTD SVG 1.1//EN" "http://www.w3.org/Graphics/SVG/1.1/DTD/svg11.dtd" [
	<!ENTITY ns_extend "http://ns.adobe.com/Extensibility/1.0/">
	<!ENTITY ns_ai "http://ns.adobe.com/AdobeIllustrator/10.0/">
	<!ENTITY ns_graphs "http://ns.adobe.com/Graphs/1.0/">
	<!ENTITY ns_vars "http://ns.adobe.com/Variables/1.0/">
	<!ENTITY ns_imrep "http://ns.adobe.com/ImageReplacement/1.0/">
	<!ENTITY ns_sfw "http://ns.adobe.com/SaveForWeb/1.0/">
	<!ENTITY ns_custom "http://ns.adobe.com/GenericCustomNamespace/1.0/">
	<!ENTITY ns_adobe_xpath "http://ns.adobe.com/XPath/1.0/">
]>
<svg version="1.1" id="Layer_1" xmlns:x="&ns_extend;" xmlns:i="&ns_ai;" xmlns:graph="&ns_graphs;"
	 xmlns="http://www.w3.org/2000/svg" xmlns:xlink="http://www.w3.org/1999/xlink" x="0px" y="0px" viewBox="0 0 512 512"
	 style="enable-background:new 0 0 512 512;" xml:space="preserve">
<style type="text/css">
	.st0{fill:#0054A4;stroke:#FFFFFF;stroke-width:0.5034;stroke-miterlimit:52.9364;}
	.st1{fill:#F02E25;stroke:#FFFFFF;stroke-width:0.1919;stroke-miterlimit:17.8269;}
</style>
<metadata>
	<sfw  xmlns="&ns_sfw;">
		<slices></slices>
		<sliceSourceBounds  bottomLeftOrigin="true" height="335" width="268.1" x="121.9" y="88.4"></sliceSourceBounds>
	</sfw>
</metadata>
<g>
	<path class="st0" d="M219.8,364.6c-25.6,0-46.3,14.6-56.3,25c0,0-24.3,24.1-40.8,32.5c-0.7,0.4-0.7,1.2,0.3,1.2h149
		c29.5,0,43.3-10,60.8-25.6c0,0,25.5-23.7,42.9-31.3c1.8-0.7,1.3-1.8,0-1.8H219.8z"/>
	<path class="st1" d="M131,88.7v52.7c18.4-14.3,56.9-19.6,98.9-20v143.9c0,20.9-1.8,26.9-10.7,37.8h83.1
		c-9.3-11-10.7-16.9-10.7-37.8V120.3c36.4,0.3,79.9,6.9,98.3,21.2V88.7L131,88.7L131,88.7z"/>
</g>
</svg>
