<svg width="200" height="200" viewBox="0 0 200 200" fill="none" xmlns="http://www.w3.org/2000/svg">
<rect width="200" height="200" fill="white"/>
<path d="M100 0C44.7665 0 0 44.7665 0 100C0 155.234 44.7665 200 100 200C155.234 200 200 155.234 200 100C200 44.7665 155.234 0 100 0ZM128.341 177.295C115.996 181.535 106.549 178.529 93.4514 166.184C80.0322 153.57 66.8814 147.289 50.671 146.001C35.6414 144.767 34.5679 144.391 29.7907 137.896C24.4767 130.703 19.6994 119.485 18.6796 111.702C17.9281 106.065 17.8207 93.1294 18.5185 89.372C20.6119 78.3682 22.598 72.0344 26.3017 64.3049C36.2319 43.9614 53.4085 28.9318 74.9866 21.9002C80.2469 20.1825 81.8572 19.8068 89.9624 18.5185C94.1492 17.9281 106.441 17.9818 112.292 18.8406C133.709 21.6855 155.985 35.8562 168.17 54.2673C173.967 62.963 179.281 75.5234 180.515 83.2528C180.73 84.7021 181.213 87.708 181.589 89.9624C182.287 94.5786 182.126 107.085 181.267 112.829C177.026 141.439 155.233 167.955 128.341 177.295Z" fill="#4050FB"/>
</svg>
