<svg width="200" height="200" viewBox="0 0 200 200" fill="none" xmlns="http://www.w3.org/2000/svg">
<rect width="200" height="200" fill="white"/>
<path d="M126.489 61.8405C127.163 58.3441 126.918 55.0317 126.55 51.7806C125.875 45.7078 124.587 39.819 122.072 34.1756C119.803 29.0843 116.551 24.729 112.135 21.2939C103.976 14.9757 93.7938 15.5891 86.3101 22.7661C80.6054 28.2868 77.0476 35.0344 74.7166 42.518C73.6738 45.8304 72.999 49.2656 72.3243 52.6393C72.1403 53.6208 71.7722 53.9889 70.7907 54.1729C64.1659 55.461 57.7864 57.6693 51.5909 60.4297C50.6094 60.8591 49.628 61.3498 48.4011 61.9632C50.3641 45.4011 56.9889 31.4152 68.8278 19.883C68.4598 20.0057 68.0304 20.1284 67.6623 20.3124C57.9704 24.6677 49.1986 30.4951 41.1015 37.3653C29.324 47.3026 20.0614 59.2642 13.0072 72.9433C8.46789 81.7152 5.76887 91.0391 4.4807 100.792C3.98997 104.534 3.68326 108.337 3.25387 112.263C2.64045 112.263 1.84302 112.263 0.861558 112.263C0.616192 109.81 0.248141 107.356 0.125458 104.841C-0.549297 90.671 1.47497 76.9305 6.75033 63.7421C11.719 51.3512 18.9573 40.4937 28.1585 30.8631C36.2555 22.398 45.3954 15.3438 55.7621 9.8844C64.5953 5.28379 73.9192 2.09404 83.7951 0.744533C91.4628 -0.29827 99.0691 -0.359615 106.675 1.2966C116.551 3.50489 124.894 8.35086 131.825 15.6505C139.37 23.5635 144.462 32.8874 147.652 43.3155C151.209 55.0317 152.252 67.0546 150.903 79.2002C149.676 90.1189 146.609 100.486 142.315 110.607C137.162 122.814 129.74 133.61 120.539 143.118C120.293 143.363 120.109 143.609 119.741 144.099C121.643 145.204 123.422 146.369 125.323 147.35C131.887 150.663 138.757 153.055 146.057 153.853C152.988 154.589 159.613 153.423 165.625 149.743C171.881 145.94 176.175 137.965 173.783 128.519C171.82 120.728 167.649 114.226 162.128 108.583C159.613 106.006 156.791 103.614 154.154 101.099C153.847 100.854 153.663 100.179 153.786 99.8109C155.871 93.37 157.037 86.7452 157.896 80.059C158.08 78.7708 158.141 77.4826 158.448 76.0718C170.839 86.1317 180.715 97.9093 184.702 113.981C185.622 111.036 185.806 92.6339 184.395 84.3528C182.677 74.5382 179.917 65.0916 175.869 56.0745C171.82 46.9959 166.79 38.5308 160.165 31.0472C153.602 23.6249 146.179 17.0613 137.592 11.9087C137.837 11.4179 137.96 11.0499 138.144 10.6818C138.328 10.3138 138.573 9.94574 138.757 9.51635C144.339 11.97 149.676 14.669 154.706 17.9815C171.697 29.0229 183.966 43.9902 191.572 62.7607C195.191 71.6552 197.767 80.795 198.994 90.303C201.264 107.724 199.424 124.593 192.247 140.664C187.769 150.724 181.389 159.189 172.004 165.201C165.686 169.249 158.816 171.703 151.393 172.623C133.604 174.831 117.165 170.722 101.829 161.95C81.7095 150.54 67.1716 133.917 57.8477 112.815C55.7621 108.092 54.3513 103.062 52.5724 98.1547C52.327 97.5412 52.2043 96.9278 51.8976 95.9464C49.5053 97.4186 47.1743 98.7067 45.0274 100.179C37.9118 105.086 31.9003 111.159 27.7291 118.765C25.0301 123.734 23.4352 129.009 24.2326 134.714C25.3981 143.118 30.4281 148.332 38.4025 150.724C45.8248 152.994 53.3084 152.564 60.7307 150.908C64.4112 150.049 68.0304 148.761 71.7109 147.718C72.0789 147.596 72.7537 147.657 72.999 147.964C78.5198 153.914 84.7152 159.005 91.6468 163.545C84.4085 167.348 76.6795 168.697 68.8278 169.679C60.8534 170.66 53.0631 169.863 45.3954 167.409C45.3341 167.532 45.3341 167.654 45.2727 167.716C46.4382 168.575 47.6037 169.433 48.7692 170.231C59.8106 177.714 71.8335 182.928 84.7766 185.996C94.4072 188.265 104.16 189.369 114.036 189.185C129.004 188.94 143.112 185.382 156.301 178.267C156.546 178.144 156.791 177.96 157.159 177.776C157.589 178.451 157.957 179.064 158.448 179.861C156.853 180.966 155.319 182.131 153.724 183.174C144.155 189.492 133.911 194.338 122.747 197.221C112.564 199.859 102.198 200.472 91.7082 199.675C79.0105 198.693 66.8649 195.687 55.2714 190.412C38.7705 182.867 25.1527 171.887 15.5221 156.306C11.535 149.927 8.89728 143.057 7.79313 135.634C6.5663 127.353 7.48643 119.256 10.4308 111.404C15.4608 97.7866 24.1099 86.9292 35.5194 78.1574C46.7449 69.5696 59.3812 64.0488 73.0604 60.6751C83.1817 58.1601 93.4257 57.0559 103.792 57.6693C110.847 58.0987 117.84 59.3869 124.648 61.2271C125.323 61.5338 125.814 61.6565 126.489 61.8405ZM123.606 87.7266C107.964 83.6168 92.5056 82.5739 76.8635 86.0704C77.9677 96.8051 91.4015 122.385 98.6397 127.476C109.988 116.128 118.453 103.123 123.606 87.7266Z" fill="#02947A"/>
</svg>
