<svg width="200" height="200" viewBox="0 0 200 200" fill="none" xmlns="http://www.w3.org/2000/svg">
<rect width="200" height="200" fill="white"/>
<path d="M163.295 63.0432C149.806 63.0432 138.046 70.3065 131.647 81.1582C134.847 86.6057 136.706 92.9611 136.706 99.792C136.706 106.58 134.847 112.935 131.647 118.383C138.046 129.191 149.806 136.498 163.295 136.498C183.571 136.498 200 120.069 200 99.792C200 79.4721 183.571 63.0432 163.295 63.0432Z" fill="#26358C"/>
<path d="M131.647 81.115C125.249 70.3065 113.489 63 100 63C86.5113 63 74.7516 70.2633 68.353 81.115C71.5523 86.5625 73.4114 92.9179 73.4114 99.7488C73.4114 106.537 71.5523 112.892 68.353 118.339C74.7516 129.148 86.5113 136.454 100 136.454C113.489 136.454 125.249 129.191 131.647 118.339C128.405 112.892 126.589 106.537 126.589 99.7488C126.589 92.9611 128.448 86.6057 131.647 81.115Z" fill="#0068B3"/>
<path d="M68.3528 81.115C61.9542 70.3065 50.1946 63 36.7056 63C16.4289 63 0 79.4289 0 99.7056C0 119.982 16.4289 136.411 36.7056 136.411C50.1946 136.411 61.9542 129.148 68.3528 118.296C65.1535 112.849 63.2944 106.493 63.2944 99.7056C63.2944 92.9611 65.1535 86.6057 68.3528 81.115Z" fill="#36BCEE"/>
<path d="M68.3528 118.339C71.5521 112.892 73.4112 106.537 73.4112 99.7488C73.4112 92.9611 71.5521 86.6057 68.3528 81.115C65.1535 86.5625 63.2944 92.9179 63.2944 99.7488C63.2944 106.537 65.1535 112.892 68.3528 118.339Z" fill="#005C9E"/>
<path d="M68.3528 118.339C65.0238 112.719 63.2944 106.277 63.2944 99.7056C63.2944 93.134 65.067 86.7354 68.3528 81.0718C71.6818 86.6922 73.4112 93.134 73.4112 99.7056C73.4544 106.277 71.6818 112.719 68.3528 118.339ZM68.3528 81.1582C65.0238 86.7786 63.2944 93.2205 63.2944 99.7488C63.2944 106.277 65.067 112.719 68.3528 118.339C71.6818 112.719 73.4112 106.277 73.4112 99.7488C73.4544 93.1773 71.6818 86.7786 68.3528 81.1582Z" fill="#005C9E"/>
<path d="M131.647 118.339C134.847 112.892 136.706 106.537 136.706 99.7488C136.706 92.9611 134.847 86.6057 131.647 81.115C128.405 86.5625 126.589 92.9179 126.589 99.7488C126.589 106.537 128.448 112.892 131.647 118.339Z" fill="#002F60"/>
<path d="M50.5405 86.9083H39.8617V119.593H32.5119V86.9083H22.0493V80.2071H50.5405V86.9083Z" fill="white"/>
<path d="M150.541 80.2071H164.332C169.563 80.2503 170.99 80.3368 172.892 80.8556C176.87 82.0229 179.637 85.5249 179.637 89.8483C179.637 91.5776 179.248 93.6961 178.167 95.2093C176.956 96.8521 175.357 97.6736 173.238 98.0627C177.605 98.8409 181.366 102.343 181.366 108.439C181.366 112.978 179.378 116.956 174.622 118.642C172.114 119.55 170.169 119.593 165.716 119.593H150.584V80.2071H150.541ZM157.804 86.2598V96.0739H160.095C162.17 96.0739 163.64 96.0739 164.548 96.0307C166.407 96.0307 168.223 95.9875 169.563 95.2525C171.12 94.4743 172.201 92.9611 172.201 91.1885C172.201 89.6753 171.422 88.1621 169.909 87.2974C168.353 86.3895 167.575 86.3463 162.214 86.3031H157.804V86.2598ZM157.804 101.608V113.281H164.808C169.174 113.281 170.342 113.281 172.244 111.941C173.238 111.206 174.017 109.693 174.017 107.834C174.017 106.926 173.844 105.888 173.282 104.894C171.509 101.694 167.359 101.651 164.851 101.651H157.804V101.608Z" fill="white"/>
<path d="M103.804 96.2469L99.7837 95.3822C96.2385 94.7337 92.6069 94.0419 92.6069 90.7129C92.6069 87.7298 96.0224 85.9572 99.9567 85.9572C105.88 85.9572 108.474 89.4591 109.857 91.4479L115.651 86.8219C112.84 83.147 108.517 79.3857 100.303 79.3857C91.0937 79.3857 84.868 84.1414 84.868 91.5776C84.868 98.0627 89.667 100.441 91.4396 101.176C92.6501 101.694 93.8607 101.954 96.3682 102.559L101.081 103.553C104.626 104.375 104.756 104.461 105.62 104.764C106.831 105.283 108.56 106.147 108.56 108.655C108.56 109.995 108.041 111.984 105.231 113.151C103.848 113.713 102.421 113.8 101.038 113.8C93.2122 113.8 90.1426 109.779 89.0617 108.136L83.1387 112.633C86.0786 117.172 90.3587 118.815 92.9095 119.593C95.2874 120.242 97.7085 120.501 99.8702 120.501C108.171 120.501 116.472 116.913 116.472 107.92C116.472 99.5326 109.079 97.371 103.804 96.2469Z" fill="white"/>
</svg>
