<?xml version="1.0" encoding="utf-8"?>
<!-- Generator: Adobe Illustrator 25.3.1, SVG Export Plug-In . SVG Version: 6.00 Build 0)  -->
<!DOCTYPE svg PUBLIC "-//W3C//DTD SVG 1.1//EN" "http://www.w3.org/Graphics/SVG/1.1/DTD/svg11.dtd" [
	<!ENTITY ns_extend "http://ns.adobe.com/Extensibility/1.0/">
	<!ENTITY ns_ai "http://ns.adobe.com/AdobeIllustrator/10.0/">
	<!ENTITY ns_graphs "http://ns.adobe.com/Graphs/1.0/">
	<!ENTITY ns_vars "http://ns.adobe.com/Variables/1.0/">
	<!ENTITY ns_imrep "http://ns.adobe.com/ImageReplacement/1.0/">
	<!ENTITY ns_sfw "http://ns.adobe.com/SaveForWeb/1.0/">
	<!ENTITY ns_custom "http://ns.adobe.com/GenericCustomNamespace/1.0/">
	<!ENTITY ns_adobe_xpath "http://ns.adobe.com/XPath/1.0/">
]>
<svg version="1.1" id="Layer_1" xmlns:x="&ns_extend;" xmlns:i="&ns_ai;" xmlns:graph="&ns_graphs;"
	 xmlns="http://www.w3.org/2000/svg" xmlns:xlink="http://www.w3.org/1999/xlink" x="0px" y="0px" viewBox="0 0 512 512"
	 style="enable-background:new 0 0 512 512;" xml:space="preserve">
<style type="text/css">
	.st0{fill-rule:evenodd;clip-rule:evenodd;fill:#E1251B;}
	.st1{fill-rule:evenodd;clip-rule:evenodd;fill:#278600;}
</style>
<metadata>
	<sfw  xmlns="&ns_sfw;">
		<slices></slices>
		<sliceSourceBounds  bottomLeftOrigin="true" height="392.7" width="511.6" x="0.2" y="59.7"></sliceSourceBounds>
	</sfw>
</metadata>
<g>
	<path class="st0" d="M0.8,452.3h511v-13.1H0.8V452.3z"/>
	<path class="st1" d="M511.8,235.3l-12.9-19.4l-95.2,35.4C403.7,251.3,511.8,235.3,511.8,235.3z M494.9,207.5l-13.7-20l-114.9,67.1
		L494.9,207.5z M474.6,179.5l-22.7-25.8L323.6,269.8L474.6,179.5z M446.2,145.4c0,0-7.7-8.1-14.7-14.7c-7-6.6-17.7-14.9-17.7-14.9
		L299.1,278.5L446.2,145.4L446.2,145.4z M405.5,112.6c0,0-1.1-3.7-19.4-15s-26.4-12.8-26.4-12.8l-79.1,205.3L405.5,112.6
		L405.5,112.6z M348.8,80.7c0,0-11.9-5.1-28.8-10.6c-11-3.4-22.4-5.8-33.9-7l-23,249.8L348.8,80.7z M275.1,62.3c0,0-13.7-4-39.9-2.1
		c-26.2,1.9-41.6,7.2-41.6,7.2l56.1,285.8L275.1,62.3L275.1,62.3z M181.8,68.9c0,0-18.4,4.3-47.7,17.5
		c-29.3,13.2-44.4,26.2-44.4,26.2L245.8,378C245.8,378,181.8,68.9,181.8,68.9z M263.6,429.5L0.2,205.2c0,0,13.5-25.2,33.4-46.6
		s43.6-38.6,43.6-38.6L263.6,429.5L263.6,429.5z"/>
</g>
</svg>
