<?xml version="1.0" encoding="utf-8"?>
<!-- Generator: Adobe Illustrator 25.3.1, SVG Export Plug-In . SVG Version: 6.00 Build 0)  -->
<!DOCTYPE svg PUBLIC "-//W3C//DTD SVG 1.1//EN" "http://www.w3.org/Graphics/SVG/1.1/DTD/svg11.dtd" [
	<!ENTITY ns_extend "http://ns.adobe.com/Extensibility/1.0/">
	<!ENTITY ns_ai "http://ns.adobe.com/AdobeIllustrator/10.0/">
	<!ENTITY ns_graphs "http://ns.adobe.com/Graphs/1.0/">
	<!ENTITY ns_vars "http://ns.adobe.com/Variables/1.0/">
	<!ENTITY ns_imrep "http://ns.adobe.com/ImageReplacement/1.0/">
	<!ENTITY ns_sfw "http://ns.adobe.com/SaveForWeb/1.0/">
	<!ENTITY ns_custom "http://ns.adobe.com/GenericCustomNamespace/1.0/">
	<!ENTITY ns_adobe_xpath "http://ns.adobe.com/XPath/1.0/">
]>
<svg version="1.1" id="Layer_1" xmlns:x="&ns_extend;" xmlns:i="&ns_ai;" xmlns:graph="&ns_graphs;"
	 xmlns="http://www.w3.org/2000/svg" xmlns:xlink="http://www.w3.org/1999/xlink" x="0px" y="0px" viewBox="0 0 512 512"
	 style="enable-background:new 0 0 512 512;" xml:space="preserve">
<style type="text/css">
	.st0{fill:#64A70B;}
	.st1{fill:#A7A8AA;}
</style>
<metadata>
	<sfw  xmlns="&ns_sfw;">
		<slices></slices>
		<sliceSourceBounds  bottomLeftOrigin="true" height="361.7" width="447" x="32.5" y="75.1"></sliceSourceBounds>
	</sfw>
</metadata>
<g>
	<path class="st0" d="M372.5,240.8c11.8-20.3,4.9-46.4-15.4-58.2c-20-11.7-45.6-5.1-57.7,14.5l-74.1,127.5l0,0
		c-16.7,26.3-51.3,34.9-78.5,19.1c-27.2-15.8-36.8-50.1-22.2-77.7l-0.1,0c0,0,73.4-126.2,73.6-126.6c11.8-20.3,4.9-46.4-15.4-58.3
		c-20.3-11.8-46.4-4.9-58.2,15.4c-0.1,0.2-73.7,126.8-73.7,126.8l0,0c-38,68.2-14.6,154.5,53.2,193.9
		c68.5,39.8,156.4,16.6,196.2-51.9C301.1,363.7,372.2,241.3,372.5,240.8"/>
	<path class="st1" d="M139.5,271.2c-11.8,20.3-4.9,46.4,15.4,58.2c20,11.7,45.6,5.1,57.7-14.6l74.1-127.5l0.1,0
		c16.7-26.3,51.3-34.9,78.5-19.1c27.1,15.8,36.8,50.1,22.2,77.7l0.1,0c0,0-73.4,126.2-73.6,126.6c-11.8,20.3-4.9,46.4,15.4,58.2
		c20.3,11.8,46.4,4.9,58.2-15.4c0.1-0.1,73.8-126.8,73.8-126.8l0,0c38-68.2,14.6-154.5-53.2-193.9C339.6,54.8,251.8,78,211.9,146.5
		C210.9,148.3,139.8,270.7,139.5,271.2"/>
</g>
</svg>
