<?xml version="1.0" encoding="utf-8"?>
<!-- Generator: Adobe Illustrator 25.3.1, SVG Export Plug-In . SVG Version: 6.00 Build 0)  -->
<!DOCTYPE svg PUBLIC "-//W3C//DTD SVG 1.1//EN" "http://www.w3.org/Graphics/SVG/1.1/DTD/svg11.dtd" [
	<!ENTITY ns_extend "http://ns.adobe.com/Extensibility/1.0/">
	<!ENTITY ns_ai "http://ns.adobe.com/AdobeIllustrator/10.0/">
	<!ENTITY ns_graphs "http://ns.adobe.com/Graphs/1.0/">
	<!ENTITY ns_vars "http://ns.adobe.com/Variables/1.0/">
	<!ENTITY ns_imrep "http://ns.adobe.com/ImageReplacement/1.0/">
	<!ENTITY ns_sfw "http://ns.adobe.com/SaveForWeb/1.0/">
	<!ENTITY ns_custom "http://ns.adobe.com/GenericCustomNamespace/1.0/">
	<!ENTITY ns_adobe_xpath "http://ns.adobe.com/XPath/1.0/">
]>
<svg version="1.1" id="Слой_1" xmlns:x="&ns_extend;" xmlns:i="&ns_ai;" xmlns:graph="&ns_graphs;"
	 xmlns="http://www.w3.org/2000/svg" xmlns:xlink="http://www.w3.org/1999/xlink" x="0px" y="0px" viewBox="0 0 256 256"
	 style="enable-background:new 0 0 256 256;" xml:space="preserve">
<metadata>
	<sfw  xmlns="&ns_sfw;">
		<slices></slices>
		<sliceSourceBounds  bottomLeftOrigin="true" height="193" width="248.1" x="3.9" y="31.5"></sliceSourceBounds>
	</sfw>
</metadata>
<g>
	<g>
		<path d="M62.6,35.7L8.2,90.2c-5.6,5.6-5.6,14.7,0,20.3l109.8,109.8c5.6,5.6,14.7,5.6,20.4,0l54.5-54.5c5.6-5.6,5.6-14.7,0-20.3
			L83,35.7C77.4,30.1,68.3,30.1,62.6,35.7z M176.5,141.8c2.1,2.1,2.1,5.6,0,7.8L122,204c-2.1,2.1-5.6,2.1-7.8,0l-89.8-89.8
			c-2.1-2.1-2.1-5.6,0-7.8L78.9,52c2.1-2.1,5.6-2.1,7.8,0L176.5,141.8z"/>
		<path d="M247.8,90.2l-54.5-54.5c-5.6-5.6-14.7-5.6-20.4,0l-15.8,15.8c0,0,0,0,0,0l-23.6,23.6c-1.7,1.7-1.7,4.6,0,6.3
			c1.7,1.7,4.6,1.7,6.3,0L169.3,52c2.1-2.1,5.6-2.1,7.8,0l54.5,54.5c2.1,2.1,2.1,5.6,0,7.8l-29.4,29.4c-1.7,1.7-1.7,4.6,0,6.3
			c1.7,1.7,4.6,1.7,6.3,0l3.5-3.5l20.1-20.1l15.8-15.8C253.5,104.9,253.5,95.8,247.8,90.2z"/>
	</g>
</g>
</svg>
