<?xml version="1.0" encoding="utf-8"?>
<!-- Generator: Adobe Illustrator 25.3.1, SVG Export Plug-In . SVG Version: 6.00 Build 0)  -->
<!DOCTYPE svg PUBLIC "-//W3C//DTD SVG 1.1//EN" "http://www.w3.org/Graphics/SVG/1.1/DTD/svg11.dtd" [
	<!ENTITY ns_extend "http://ns.adobe.com/Extensibility/1.0/">
	<!ENTITY ns_ai "http://ns.adobe.com/AdobeIllustrator/10.0/">
	<!ENTITY ns_graphs "http://ns.adobe.com/Graphs/1.0/">
	<!ENTITY ns_vars "http://ns.adobe.com/Variables/1.0/">
	<!ENTITY ns_imrep "http://ns.adobe.com/ImageReplacement/1.0/">
	<!ENTITY ns_sfw "http://ns.adobe.com/SaveForWeb/1.0/">
	<!ENTITY ns_custom "http://ns.adobe.com/GenericCustomNamespace/1.0/">
	<!ENTITY ns_adobe_xpath "http://ns.adobe.com/XPath/1.0/">
]>
<svg version="1.1" id="Layer_1" xmlns:x="&ns_extend;" xmlns:i="&ns_ai;" xmlns:graph="&ns_graphs;"
	 xmlns="http://www.w3.org/2000/svg" xmlns:xlink="http://www.w3.org/1999/xlink" x="0px" y="0px" viewBox="0 0 512 512"
	 style="enable-background:new 0 0 512 512;" xml:space="preserve">
<style type="text/css">
	.st0{fill:#E10A0A;}
</style>
<metadata>
	<sfw  xmlns="&ns_sfw;">
		<slices></slices>
		<sliceSourceBounds  bottomLeftOrigin="true" height="378.1" width="423.4" x="44.3" y="67"></sliceSourceBounds>
	</sfw>
</metadata>
<g id="layer1" transform="translate(-71.974988,-151.64744)">
	<g id="g4051">
		<path id="path3527" class="st0" d="M403.5,308.1l-0.4-0.7l0.1-0.9l0.1-0.5l0.2-0.5l0.1-0.7l0.1-0.5l0.2-0.1l0.1-0.3l0.1-0.5
			l0.3-0.9l0.2-0.5l0.5-0.9l0.2-0.3l0.2-0.4l0.3-0.3l0.2-0.4l0.5-0.6l0.1-0.1V299l0.4-0.2l0.2-0.3l0.2-0.3l0.4-0.2l0.2-0.3l0.6-0.5
			l0.2-0.3l0.4-0.1l0.1-0.2l0.2,0l0.1-0.1l0.3-0.2l0.3-0.2l0.2-0.1l0.1-0.2l0.3-0.1l0.3-0.3l0.3-0.2l0.7-0.3l0.3-0.2l0.8-0.2
			l0.3-0.2l0.4-0.1l0.8-0.3l0.9-0.2l0.4-0.1l0.2,0l0.2,0l0.9,0l0.5,0l0.7,0l0.7,0l0.4,0.1l0.3,0.2l0.4,0.1l0.4,0.2l0.8-0.1l0.3,0
			l0.3,0.3l0.2,0.4l0.3,0.5l0.2,0.3l0.2,0.4l0.3,0.3l0.3,0.4v0.5l0.2,0.9l-0.1,0.2l0.1,0.3l0.2,0.4l0.1,0.3l0.1,0.2l-0.1,0.2
			l-0.4,0.6l-0.3,0.8l-0.1,0.7l0,0.3l-0.2,0.3l-0.1,0.4l-0.3,0.3l-0.2,0.4l-0.3,0.3l-0.2,0.4l-0.1,0.4l-0.7,0.5l-0.7,1l-0.9,0.9
			l-0.5,0.7l-0.5,0.7l-0.5,0.8l-1.5,1.2l-0.9,0.5l-0.4,0.3l-0.2,0.4l-0.8,0.2l-0.6,0.5l-1.3,0.6l-0.3,0.3l-0.8,0l-0.3-0.1l-0.4,0
			l-0.9,0.2l-1.3-0.2l-1.7-0.4l-0.8-0.3l-0.7-0.4l-1.2-1.2l-0.2-0.3l-0.1-0.5l-0.2-0.9L403.5,308.1 M391.4,404.4l-0.3-1.3l0.1-0.7
			v-1.6l0.2-2.3l0-0.6l0.2-0.7l0.1-1.5l0.1-1.4l0.1-1.5l0.2-1.4l0.3-2.3l0-0.7l0.1-0.5l-0.1-0.1l0.1,0l-0.1-0.3l0.1-0.4l0.1-0.5
			l-0.1-0.1l0.1-0.3l0-0.5l0.1-1.4l0-0.4l-0.1-0.3l0.1-0.5l0.2-1.3l0.1-0.8l0-0.7l0.1-1.5l0.2-1l0.1-0.4l-0.1-0.3l0.1-0.3l0.1-1.2
			l0-0.7l0.1,0l0.1-0.1l0-0.2l-0.1-0.1v-0.2l0.1-0.2l-0.1-0.3l0.1-0.3l0.1-0.7l0.1-1.3l0-0.1l0.3-0.1l-0.1-0.3l-0.1-0.1v-0.2
			l0.1-0.2l-0.2-0.2l0.2-0.1l-0.1-0.3l0-0.9l0.2-0.6l0-0.6l0.1-0.3l0.1,0l0.1-0.2l-0.2-0.4l0.1-0.1l0.1-0.5l0-0.9l0.1-0.2l0-0.1
			l0-0.8l0.2-0.5l0.1-0.8l-0.1-0.3l-0.1-0.3l0.1-0.1l0.3,0l-0.1-0.4l0.1-0.3l0-0.2l-0.1-0.2l-0.1-0.1h0.1l0.2,0.1l0-0.1l-0.2-0.1
			l0-0.3l0.1,0l0.1-0.1l-0.1,0l0.1-0.2l0-0.4v-0.5l0.1-0.6l0.1-0.8l0-0.4l0-0.2h0.2l0-0.4l-0.1-0.2l0.1-0.4l0.1-0.7l0.1-1.1l0-0.2
			v-0.2l0.1-0.1l0.1-0.2l-0.1-0.1v-0.4l0.1-0.3l0.1-0.5l0.1-0.1l0-0.1l-0.2,0l0-0.3l0-0.4l0.1,0l-0.1-0.1l-0.1-0.1l0.1,0.1l0-0.7
			l0.1-0.6l0.1-0.5l0.1-0.1l0-0.6l-0.2-0.3l0.3-0.6l0.1-0.9l0-0.4l0.1,0l-0.1-0.2l0.2-0.1l-0.1-0.3l-0.1-0.1l0.1-0.1l0.1-0.8
			l0.1-0.4l-0.1,0l0.3-1.1l0.2-0.6l0.1-0.1l0-0.4l0.2-0.4l0.1-0.2l0.1-0.4l0.1-0.2l-0.1-0.1l0.2-0.1l0-0.2l0-0.1l0.1-0.1l0.2-0.2
			l-0.1-0.1l0.3-0.6l-0.1-0.3l0.6-0.8l0.1-0.5l0.2-0.1l0.3-0.5l0.1-0.1l0.2-0.5l0.6-0.7l0.6-0.7l0.2-0.2l0.1-0.1l0.4-0.3l0.2-0.3
			l0.3-0.2l0.9-0.8l0.2-0.2l0.7-0.6l0.6-0.3l0.3-0.1l0.2-0.2l0.2,0l0.1-0.1l0.4-0.2l0.3-0.1l0.3-0.1l0.4-0.1l0.4,0l0.3-0.1l0.3-0.1
			l0.2,0l0.1,0l0.2,0.3l0.2-0.1l1-0.1l0.4,0h0.3l0.2-0.1l0.2,0.1l0.7,0.1l0.5,0.1l0.2,0.2l0.4,0l0.3,0.1l0.2,0.2l0.2,0.3l0.2,0.1
			l0.2,0.1l0,0.1l0.1,0.1l0,0.1l0.1,0.3l0,0.4l0.1,0l0.1,0.2l0,0.2l-0.1,0.4l-0.1,0.1l0.1,0l0.1,0.1v0.2l-0.1,0.1v0.1l-0.1,0.1
			l-0.1,0.3l0.1,0l0,0.1l0.1,0.2l0,0.1l0.1-0.1l0.1-0.1l0.2,0l0.2,0l-0.1,0.1l0.1,0.1l-0.2,0.2l0.1-0.1l0,0.1l-0.1,0.5l0,0.1
			l0.2,0.3l-0.1,0.1l0.1,0l0.1-0.2l0.1,0.1l0.1,0.3l-0.1,0.1l0.1,0.1l0.1,0.1l0.1,0.3l0,0.3l-0.1,0.3l0,0.3l0.1,0.4l0.1,0.1l0.1,0.3
			l-0.1,0.3l-0.2,0.1l0,0.4l-0.2,0.2l-0.3,0.1l0.2,0.2v0.1l0.1,0l0,0.2l-0.1,0l0.1,0.1l-0.2,0.1l-0.1,0l-0.1,0.3l0,0.1l0.1,0.1
			l0.2,0.2l0,0.3l-0.5,0.4l-0.2,0.2l0.1,0.1l0.1,0.1l0.1,0.2v0.1l0.1-0.1l0.1,0.1h0.3l-0.1,0.1l-0.2,0l-0.2,0.4l0.1,0.1l0.1,0l0,0.1
			l0.1,0.1l0,0.3l-0.1,0l0,0.1l-0.1,0.3l0.2,0.2l-0.3,0.2l-0.3,0.1l0,0.1l-0.1,0.2l0.1,0l0,0.2l0.3,0l-0.1,0.3l-0.2,0l-0.1,0.1
			l-0.1,0.1l0.1,0.1l0,0.4l0.2,0l-0.2,0.2l-0.1,0.1l-0.2,0.2l-0.2,0.3l-0.1,0.1l-0.2,0l-0.1,0.3l0,0.1l-0.1,0l0.5,0.1l0.2,0l0.1,0.1
			l0.2-0.1l-0.3,0.2v0.3l-0.2,0.1l0.1,0.2l0.1,0.1l-0.1,0l0-0.1h-0.2l-0.2,0.1l-0.2-0.1l0,0.1l0.1,0.3l0.2,0.1l0.1,0.3l0,0.4
			l-0.2,0.2l0-0.1l-0.2,0l-0.1,0.3l0.2,0.3l0.2,0.2l0,0.1l0.1,0.1l-0.1,0.1l-0.1,0.1l-0.2,0l-0.1-0.1l0,0l-0.1,0.1l0,0.7l-0.1,0.4
			l0,0.2l-0.1,0.1l-0.1,0.1l0.1,0.1l0.1,0.3l0,0.1l0,0.4v1v0.7l0.1,0.1l0.2,0l0.1-0.1l0.1,0.1l-0.1,0.1l-0.2,0.3l-0.1,0.1l0.2,0
			l-0.1,0.1l0,0.1l0.1-0.1l0.1,0l0.1,0.1l-0.1,0.1l0,0.1l-0.1,0.1l0.1,0.1l-0.1,0.1l0.2,0.2l0.2,0.3l0,0.1l-0.1,0l0,0.1l-0.1,0.7
			l-0.2,0.5l-0.1,0.7l0.1,0.3l0.3,0.3l0.1,0h0.1l-0.1,0.2l0.1,0.1l-0.3,0.2l-0.2,0.4l0.3,0.2l-0.1,0.1l-0.1,0.3l-0.2,0.2l0,0.4
			l0,0.6l0.2,0.1l0.1,0.1l0.1,0l0.1,0.2l-0.3,0.2l-0.2,0.3l-0.1,0.4l0.1,0.3l-0.1,0.3l0.3-0.1l0.2-0.2l0.1,0.3l-0.3,0.3l-0.1,0.2
			l0.1,0.2l-0.2,0.2l0.1,0.9l0.2,0.1l0,0.3l0.4,0.4l-0.3,0.1l-0.2,0.3l0.1,0.4l0.2,0.3l0,0.4l-0.2,0.3l-0.1,0.7l0.4,0.4l0,0.3
			l-0.3,0l-0.4,0.3l0.1,0.3l-0.1,0.3v0.3l-0.3-0.1l-0.4,0.3l0.2,0.9l0.1,0.3l-0.3,0.1l-0.2,0.3l0.1,0.7l0,0.4l0,0.3l0,0.4l0.2,0.3
			l0.6,0.3l0.2,0.2l0.2,0.3l0.2,0.2l-0.2,0.3l-0.1,0.4l0,0.1l-0.2,0l-0.1-0.1l0.1-0.1l-0.3-0.2l-0.2-0.1l-0.2,0l0.1-0.3l-0.2-0.2
			l-0.3,0.2l0.1,0.4l0,0.3l0.3,0l0.2,0.1l-0.1,0.1l0.1,0.1l-0.1,0.4l0,0.3l0.4,0.2l0.2-0.1l0.1,0.2l0,0.4l0,0.4l-0.3-0.1l-0.8-0.5
			l-0.1,0l-0.1-0.1l-0.1,0.3l0.1,0.3l-0.2,0.6l0,0.3l-0.2,0.1l0.2,0.3l-0.1,0.4l-0.1,1.5l-0.1,2.3l0,0.8l-0.1,1.3l0,0.4l-0.1,0.2
			l0.1,0.3l0.1,0.2l-0.2,0.1l0,0.6v1.5l-0.1,1.5l0.2,0.7l0.4,0.4v0.7l-0.1,0.5l0.2,0.1l-0.1,0.3l-0.4,0.5l0.1,0.4l0.1,0.5l-0.2,0
			l0.2,0.2l-0.2,1.1l-0.3,0.9l-0.6,0.3l-0.2,0.8l-0.6,1l-1.2,1.4l-1.1,1l-0.8,0.9l-0.4,0.2l-0.2,0.3l-0.6,0.2l-1,0.8l-0.6,0.2
			l-0.1,0.3l-0.3,0.1l-1.3,0.7l-2.1,1.2l-2.1,0.7l-1.5,0.1l-1.4-0.1l-1.2-0.3l-0.6-0.5l-1-0.8l-0.5-0.9L391.4,404.4 M539.4,361.5
			l-0.3,0.4l0,0.3l-0.5,0.5l0.6-0.1l0,0.7l0.5,0.3l-0.5,0.4l-0.6,0.1l-0.1,0.7l-0.3,0.5l0,0.6l-0.2,0.3l-0.1-0.3l-0.5,0.7l0.1,0
			l-0.4,0.4l0,0.4l-0.2,0.3l0.2,0.7l-0.4-0.3l-0.2,0l-0.1,0.3l-0.2,0.5l-0.3,0.6l-0.6,0.8l-0.8,1.2l-0.6,0.4l-0.5,0.4l-0.5,0.6
			l-0.5,0.6l-0.4,0.2l-2.1,1.5l-1.1,0.7l-2.1,1.2l-0.9,0.5l-2.2,0.8l-1.9,0.8l-1.4,0.4l-2.7,0.9l-1.5,0.4l-1.4,0.5l-2.8,0.9l-3,1
			l-1.3,0.5l-2.8,1l-0.9,0.3l-1,0.5l-0.9,0.2l-0.9,0.4l-0.9,0.3l-0.8,0.4l-0.6,0.2L498,387l-1.2,0.5l-1.1,0.5l-0.5,0.3l-0.4,0.3
			l-0.6,0l-0.5,0.3l-1.1,0.5l-1,0.4l-1.1,0.5l-1.2,0.6l-1.3,0.4l-0.5,0.3l-0.5,0.3l-1.1,0.5l-0.1,0.1h-0.2l-0.3,0.1l-0.7,0.4
			l-1.2,0.5l-1.5,0.8l-1.1,0.5l-0.6,0.2l-0.6,0.5l-1,0.4l-0.5,0.3l-1,0.6l-0.6,0.2l-0.4,0.3l0-0.1l-0.9,0.5l-0.4,0.3l-0.5,0.1
			l-0.9,0.6l-0.2,0.1l-0.1,0.2l-0.5,0.1l-0.4,0.3l-0.4,0.3l-1.4,0.6l-0.4,0.2l-0.6,0.3l-0.1,0.2l-0.4,0.1l-0.8,0.5l-1.5,0.7
			l-1.1,0.6l-1.1,0.5l-1.2,0.7l-1.4,0.7l-0.2,0.2l-0.4,0.1l-0.4,0.3l-1.1,0.5l-1.2,0.6l-0.3,0.1l-0.2,0.2l-0.7,0.1l-0.3,0.4
			l-0.5,0.3l-1,0.5l-0.5,0.3l-0.4,0.3l-0.9,0.6l-1,0.2l-0.4,0.4l-0.6,0.3l-1.4,0.6l-0.4,0.3l-1.1,0.5l-0.5,0.5l-1.1,0.6l-0.6,0.3
			l-0.4,0.4l-0.4,0.1l-0.3,0.3l-0.5,0.4l-0.5,0.1l-0.7,0.4l-0.3,0.2l-0.4,0.1l-0.9,0.5l-0.4,0.3l-0.5,0.1l-1.1,0.7l-1,0.6l-0.4,0.3
			l-1,0.5l-0.4,0.4l-2.2,1.1l-1.2,0.7l-0.6,0.3l-0.4,0.4l-1.2,0.6l-0.9,0.6l-0.5,0.3l-0.6,0.1l-0.1,0.3l-0.3,0l-0.5,0.3l-0.7,0.3
			l-0.5,0.4l-1,0.7L426,425l-0.4,0.3l-0.7,0.3l-0.5,0.4l-0.5,0.2l-0.4,0.4l-1.1,0.5l-0.9,0.6l-1.1,0.7l-1.2,0.7l-1.1,0.6l-1.2,0.7
			l-2.3,1.4l-1.2,0.7l-0.9,0.6l-2.2,1.3l-1.2,0.7l-0.5,0.4l-0.3,0.2l-0.4,0.1l-0.2,0.3l-0.2,0.1l-0.5,0.3l-0.4,0.4l-1,0.4l-1.1,0.7
			l-1,0.6l-0.4,0.3l-0.5,0.3l-1,0.6l-0.9,0.6l-0.9,0.5l-0.6,0.4l-0.2,0.3l-0.3,0.2l-1.2,0.7l-0.1,0.1l-1.2,0.5l-0.4,0.4l-0.6,0.2
			l-0.3,0.3l-0.2,0.1l-0.5,0.3l-0.4,0.3l-0.4,0.4l0.2,0.2l-0.6,0.2l-0.6,0.1l-0.5,0.3L392,446l0.1,0.3l-0.6,0.2l-0.6,0.2l-1.1,0.7
			l-0.9,0.7l-0.5,0.3l-0.4,0.3l-1,0.6l-0.5,0.3l-0.4,0.2l-0.9,0.7l-1.1,0.8l-0.3,0.1l-0.3,0.2l-0.3,0.2l-0.2,0.2l-0.2,0.2l-0.2,0.2
			l-0.2,0l-0.5,0.4l0,0.2l-0.3,0l-0.6,0.4l-0.3,0.3l-0.3,0.3l0-0.1l-0.4,0.3l-0.1,0.1l-0.1,0.1l-0.2,0l-0.1,0.1l-0.2,0.1l0,0.1
			l-0.1,0.1l-0.1,0.3l-0.3,0.1l-0.3,0.3l-0.3,0l-0.3,0.1l-0.3,0.2l-0.2,0.2l-0.2,0.2l-0.1,0.1l0.1,0.1l-0.2,0.5l-0.3,0.5l-0.2,0.2
			l-0.2,0.2l-0.8,0.1l-0.1,0.4l-0.5,0.1l-0.2,0.3l-0.4-0.2l-0.3,0.4l0.1,0l-0.5,0.6l-0.4,0.4l0.1,0.3l0.1,0.1l0,0.1l0.2,0.2
			l-0.1,0.4l-0.2,0.4l0,0.4l-0.3,0.5l0.5,0.3l0,0.3l-0.1,0.3l-0.3,0.1l-0.2,0l-0.1,0.2l0.2,0.1l0.1,0.5l-0.2,0.6l0,0.4l0.2,0.3
			l-0.1,0.3l0,0.2l0,0.3l-0.2,0.3l0,0.3l0.2,0.5l0.3-0.1l0.1,0.3l-0.1,0.3l-0.2,0.2l-0.1,0.3l-0.3,0.2l-0.2,0.2l-0.2,0.2l0,0.4
			l0,0.2l-0.1,0.1l0.5,0.3l0.2-0.2l0.1,0.3l-0.2,0.5l-0.1,0.7l-0.1,0.3l-0.2,0.3l-0.2,0.6l-0.2,0.2l0.2,0.2l0.3,0l0.2,0.1l0.1,0.3
			l0.3,0.1l0,0.7v0.6l-0.2,0.4l-0.1,0.3l-0.1,0.4l-0.2,0.3l0.2,0.3l-0.1,0.3l0,0.4L372,477l0,0.3l0.2,0.3l-0.1,0.6l0.5,0.2l0.1,0.1
			l0.1,0l0,0.2l-0.2,0.3l0.2,0.4l-0.4,0.2l-0.1-0.4l-0.3,0l-0.2,0.6l0.2,0.3l0,0.3l0.2,0.6l0.2,0.3l0.2,0.2l-0.1,0.6l-0.1,0.1v0.2
			l-0.1,0.3l-0.2,0.3l-0.1,0.3l0.1,0.8l0.5,0.3l-0.2,0.3l0,0.4l0.2,0.3l-0.1,0.4l-0.2,0.3l-0.1,0.4l-0.2,0.1l0,0.2v0.3l0.2,0.1
			l0.1,0.4l-0.3,0.3l0.1,0.3l0.1,0.2l0.2,0.1l-0.1,0.3l-0.1,0.1l-0.1,0.2l0.1,0.4l-0.1,0.5l0,0.6l0.1,0.2l-0.1,0.2v0.6l0,0.7
			l-0.1,0.2l0,0.2l0.2,0.4l0.2,0.1l0,0.3l-0.1,0.4l-0.2,0.4l0,0.3l-0.2,0.1l0.3,0.2l0.1-0.1l0.1,0.1l0.2,0.3l0.2,0v0.1l-0.1,0.2
			l-0.1,0.1l-0.1,0.4v0.2l0.2,0l0.2,0.1l-0.1,0.2l-0.5,0l-0.4,0.2l0.2,0.2l-0.1,0.2l-0.2,0.1l-0.1,0.2l0,0.3l-0.2,0.1v0l0.1,0.2
			l0.2-0.1l0.2-0.1l0.3,0v0.4l-0.1,0.5l0.2,0v0.5l0.1,0.2l-0.1,0.3l-0.1,0.2l-0.1,0.1l0.2,0.1l0.1,0.2l0.2,0.1l-0.3,0.1l-0.1,0.2
			v0.4l0.1,0.2l0.1,0.1v0.1l-0.1,0.2l-0.1,0.2l-0.1,0.6l0.1,0.5l0.1,0.2l0,0.1l0.1,0l0,0.1l-0.1,0.1l-0.2,0.2l-0.2,0.1l0.2,0.1
			l0.2,0.2l0,0.1l0.1,0l0,0.2l-0.2,0.1v0.2l0,0.5l0.1,0.3l0,0.2l-0.1,0.2l0,0.2l0,0.5l0.1,0.3l0,0.3l0,0.5l-0.1,0.2l-0.2,0.1
			l-0.1,0.2l0.3,0.1l0,0.5l0,0.6l-0.2,0.7l-0.1,0.1v0.2v0.3l-0.3,0.1l0,0.2l0.2,0l0.2-0.1l0.2,0.1l0.1,0.4l-0.1,0.2l-0.2,0.1v0.2
			l0,0.2l0.3,0.4l0.2,0.2l0.2,0.1l0,0.5l-0.1,0.2l-0.1,0.2l0,0.2l-0.1,0.2l-0.1,0.2l0,0.2l-0.1,0.4l-0.2,0.3l0.1,0.1l0.2,0l0.1,0.1
			l-0.1,0.2l0.2,0.1l0,0.5l-0.3,0.6l-0.1,0.6l0.4-0.4l0.2-0.2l0,0.3l-0.3,0.5l-0.1,0.4l-0.2,0.2l0.2,0.1l0.2-0.2l-0.3,0.4l-0.1,0.2
			l0.2,0.1l0.3,0.1l0.1,0.1l-0.4,0.4l0.1,0.3l0.2,0.2l0.3,0l0,0.3l-0.6,0.2l-0.6,0.2l-0.2,0.3l0,0.4l-0.1,0.2l0,0.2l-0.2,0.2
			l-0.2,0.2l0.2,0.2l0.1,0.6l0.3,0l-0.1,0.3l-0.4,0.3l-0.2,0.2l0.2,0.2l0.1,0.3l0.1-0.3l0.5,0.1l-0.3,0.4l0.7-0.3l0.2,0.3l0.1,0.4
			l0.1,0.3l-0.1,0.3l-0.1,0.3l-0.2-0.1l-0.6-0.2l-0.2,0.2l-0.2,0.3l0.3,0.4l0.1,0.3l0.2,0.2l0.5,0.3l-0.1,0.4l-0.6,0.1l0.4,0.5
			l0.3,0.1l0,0.2l0.1,0.1l-0.2,0.6l0.3,0.2l0,0.3l-0.5,0.3l-0.2,0.1l-0.4,0l-0.6-0.1l0.5,0.1l0.7,0l0,0.3l-0.3,0l-0.2,0.2l0.2,0.1
			l0.2,0.5l-0.3,0.5l-0.2,0.2l-0.3,0.3l-0.1,0.5l0.2,0.2l0.1,0.3l0.3,0.3l-0.1,0.2l0,0.3l0,0.4l0.3,0l0.3-0.1l0.1-0.3l0.1,0.1
			l-0.2,0.3l0.1,0.6l-0.4,0.3l0.4,0.3l0,0.4l0.4-0.2l0.3-0.3l-0.1,0.2l-0.1,0.6l-0.3,0.5l0.4,0l0.3-0.5l-0.5,0.8l-0.7,0l-0.2,0.6
			l-0.2,0.2l-0.1,0.3l-0.2,0.4l0.3,0.1l0.1,0.3l-0.1,0.6l0.6,0.2l0,0.6l0.5,0.4l0.2,0.5l-1.3,0.2l-0.2,0.7l0.4,0.6l-0.4,0.5l0.2,0.3
			l0.1,0.4l0.5,0.1l0.3-0.4l-0.1-0.4l0.4,0.3l-0.2,0.1l0,0.3l0.1,0.6l0,0.3l0.3,0.1l0.5,0.2l-0.5,0.4l-0.8,0.4l0.2,0.3l0,0.3
			l0.3,0.4l-0.1,1.1l-0.5,0.6l0.7,0.6l-0.1,0.6l0.6,0l0,0.6l0.2,0l0.8,0l-0.1,0.3l-0.2,0.2l-0.2,0l0,0.1l-0.2,0.1l-0.2,1.2l-0.2,0.5
			l0.5,0l0.8,0.4l-0.2-0.1l-0.2,0.1l-0.2,0.2l0,0.5l0.1,0.5l0.5,0.2l0.3,0l0,0.3l-0.4,0.4l0.6,0.7l-0.4,0.8l0.6,0.1l-0.2,0.4
			l-0.1,0.4l0.1,0.5l0.1,0.4l-0.1,0.1l0,0.2l-0.1-0.1l-1,0l0.4,0.6l0.1,0.7l-0.3,0.4l0,0.2l-0.1,0.2l-0.1,0.1l-0.1,0.2l-0.2,0.3
			l0.4,0.2l0,0.1l0.1,0.1l0,0.2l-0.1,0.2l0.2,0l0.3,0.4l0.1,0.2l0.3,0l0-0.4l0.2-0.2l0.2-0.2l0.1,0.4l-0.1,0.2l-0.1,0.2h0.3l0.1,0.2
			l0.2,0.1l-0.1,0.2l0,0.3l-0.1,0.1l0,0.4l0.2,0.1l-0.1,0.1l-0.1-0.2l-0.1,0.1l0.1,0.2l0,0.1l0.2,0l0.1,0.5l0.1,0.5l0.1,0.4l0.2,0.1
			l0,0.2l0.2,0.4l-0.2,0.4l0.3-0.1l0,0.4l0.5,0l-0.1,0.3l0.3-0.2l-0.2,0.4l0.4,0.4l-0.4,0.4l0,0.3L376,568l-0.5,0.5l0.4,0.5
			l-0.7,0.1l-0.8,0l-0.2,0.5l0.2,0.2l0.4-0.5l0.6,0.4l0.2-0.1l0,0l-0.6,0.5h-0.9l0.1,0.3l0.1,0.1l-0.2,0.1l0.3,0.1l-0.1,0.3
			l-0.3,0.2l0.1,0.3l0,0.4l0.2,0.3l-0.1,0.5l0.2,0.6l1.1,0.5l0.3-1l0.3,0.2l-0.1,0.3l0.1,0.9l0.2-0.4l0.4,0.3l0.3,0.3l0.3,0.4
			l-0.4,0.4l-0.3-0.4l-0.8,0.5l0.9,0l0.5,0.6l0.4,0.2l0.5,0.2l-0.4,0.7l0-0.6l-0.2,0.4l-0.3,0.3l-0.4-0.1l0.3,0.1l0.3,0.4l-0.5,0.3
			l-0.1,0.5l-0.6,0l-0.3-0.3l-0.2-0.3l0.1,0.3l-0.1,0.1l0.2,0.2l0,0.4l0.6,0l0.2-0.1l0.2,0.2l0.2,0.5l-0.4,0.1l-0.2,0.2l-0.2,0
			l-0.1,0.4l0.2,0.4l-0.1,0.2l0.6,0.1l0.3,0.3l0.1,0l-0.2,0.3l0.4-0.3l-0.2,0.6l0.3,0.4l-0.2,0.3l0.3,0.3l0.1-0.3l0.4,0.3l0.5,0
			l0.1,0.4l0.2-0.4l-0.1,0.7l-0.7,0.5l-0.2,0.7l-0.1,0.4l-0.4,0l0.3,0.2l0.3,0.2l-0.8,0.3l-0.2,0.5l-0.2,0.5l0.1,0.6l0.3,0.1
			l0.2,0.1l1.1,0.4l-0.5,0.2l-0.3,0.3l-0.2,0l-0.1,0.2l-0.5,0.1l-0.1,0.3l-0.1,0.2l-0.2,0.4l-0.4,0.9l-0.1,0.6l-0.2,0.4l-0.8,1
			l-0.4,0.4l-0.4,0.4l-3,2.1l-0.6,0.3l-0.4,0.4l-0.6,0.1l-0.7,0.3l-2.4,0.2l-2.2,0l-1.5-0.3l-2.6-0.8l-1.1-0.5l-1-0.6l-1.1-0.9
			l-0.4-0.5l-0.6-0.5l-0.5-0.7l-0.5-1.1l-0.2-0.3l-0.1-0.3l-0.2-0.7l-0.5-1.3l-0.2-0.5l-0.1-0.7l-0.2,0l-0.2-1.2l-0.2-0.6l0-0.3
			l-0.2-0.1l-0.1-0.7l-0.1-0.7l0-0.7l-0.2-0.3l0-0.3l0.1-0.1l-0.1-0.1l-0.1-0.3l0-0.7l-0.1-1.3l0.1-1l0-0.9l-0.2-0.5l0.2-0.3
			l-0.2-0.7l0.1-1.9l0.2-0.7l-0.1-0.7l0.1-0.6l-0.1-1.4l0.2-1.8l-0.1-0.3l0.1-0.3l-0.1-0.6l0.2-0.6l-0.1-0.7l0.1-1.4l-0.1-1.4
			l0.1-0.5l0.1-0.7v-1.2l0.1-1.2v-1.2l0.1-1.4l-0.1-0.7v-0.7l0.2-0.5l0-0.7l0.1-1.1l-0.2-0.5l0-0.6l0.1-1.3l0-1.4l0-1.4l0.2-1.4
			l-0.1-0.6l0.1-0.9l0.3-1.3l0-0.7l-0.2-0.6l0.2-0.5l0-0.7l-0.1-1.4l-0.1-1.4l-0.1-1.4l0.1-0.7l0.2-0.9l0-1.1l-0.2-2.2l-0.1-0.6
			l0.1-0.7l0.1-1.4l0.2-1.2l0-1l0.1-1l-0.2-1.3l0.2-0.5l0-0.7l-0.1-0.6l-0.3-0.5V523l0.5-0.1l0.1-1.5l0.1-0.4l-0.2-0.2l0.1-0.4
			l0-0.4l-0.1-0.7l0.1-0.3l0-0.1l-0.1,0l0.1-1.1l0-1.1v-1.1l0.1-1.4l0.1-1l0.1-0.6l-0.2-0.6l0.1-0.6v-0.7l0-0.7l-0.1-0.5l0.1-1.5
			l-0.1-0.3l0.1-0.2l-0.1-0.6l0-0.7l-0.1-0.6l0.2-0.6l0-0.7l0-2.2l0.1,0l-0.1-1.3l-0.1-1.4l0-1.5l-0.1-0.7l0.1-0.7l0-1.3V494v-1.2
			l0-1.5l-0.1-0.3l0.1-0.3V490l-0.1-1.4v-1.3l0.1-0.6l-0.1-1.2l0.1-0.5l-0.1-1.1l0.1-0.1l-0.1-1.4V481l0.1-2.7l-0.1-0.5l0.2-0.6
			l-0.1-1.2l0-0.6l0.1-0.4l0.1-0.7l0-0.6l0-0.6l-0.1-0.1l-0.9,0.4l-0.2,0.2l-0.2,0.1l-0.5,0.2l-0.8,0.4l-0.8,0.6l-0.5,0.3l-0.5,0.4
			l-1,0.7l-1.1,0.7l-0.8,0.5l-0.6,0.5l-1,0.6l-0.9,0.7l-0.9,0.7l-0.4,0.4l-0.4,0.5l-0.5,0.3l-0.4,0.5l-1.1,0.8l-1,0.8l-0.9,0.6
			l-0.4,0.5l-0.7,0.5l-0.8,0.7l-0.6,0.5l-0.6,0.4l-0.6,0.3l-0.3,0.4l-0.5,0.3l-0.5,0.3l-0.3,0.4l-0.4,0.3l-0.4,0.4l-0.3,0l-0.1,0.3
			l-0.4,0.4l-0.2,0.2l-0.3,0.1l-0.4,0.5l-0.9,0.8l-0.9,0.6l-0.5,0.3l-0.4,0.4l-0.3,0.1l-0.2,0.3l-1.1,0.9l-0.5,0.5l0,0l-0.2,0.2
			l-0.5,0.2l-0.5,0.4l0,0l-0.9,0.7l-0.9,0.8l-0.9,0.6l-0.4,0.4l-0.5,0.3l-2,1.6l-1,0.9l-0.4,0.4l-0.2,0.2l-0.3,0.1l-0.2,0.5
			l-0.4,0.1l-0.3,0.2l-0.4,0.4l-0.4,0.5l-0.5,0.3l-0.4,0.4l-1,0.8l-1,0.8l-0.6,0.5l-0.4,0.5l-0.3,0l-0.2,0.2l-0.5,0.4l-1,0.9
			l-0.4,0.4l-0.3,0.1l-0.2,0.2l-0.5,0.4l-0.7,0.7l-0.8,0.5l-1,0.9L305,511l-1,0.8l-0.6,0.4l-0.2,0.3l-0.3,0.1l-1,0.9l-1.8,1.5
			l-1.2,1.2l-1.2,0.8l-0.5,0.6l-1.9,1.6l-1,0.9l-1,0.9l-0.5,0.3l-0.4,0.4l-1,0.9l-0.9,0.8l-1.6,1.3l-0.8,0.6l0-0.1l-0.5,0.6
			l-0.6,0.5l-0.4,0.3l-0.4,0.4l-1,0.6l-0.3,0.5l-0.6,0.4l-0.4,0.4l-0.3,0.5l-0.6,0.2l-0.5,0.4l-0.9,0.7l-0.2,0.5l-0.5,0.4l-0.8,0.9
			l-0.5,0.3l-0.4,0.4l-0.8,0.8l-0.7,0.9l-0.2,0.5l-0.5,0.5l-0.8,0.8l-0.4,0.4l-0.5,0.3l-0.7,0.8l-0.4,0.4l-0.4,0.3l-0.8,0.6
			l-0.8,0.5l-0.9,0.6l-1.5,1.3l-1,1.1l-0.6,0.5l-0.4,0.6l-0.5,0.5l-0.5,0.3l-0.2,0.2l-0.1,0.3l-0.6,0.4l-0.6,0.9l-0.6,0.4l-0.5,0.6
			l-0.8,0.8l-0.4,0.3l-1.6,1.6l-1.4,2l-1.1,0.7l-0.7,0.8L258,554l-0.4,0.3l-0.7,0.9l-0.8,0.9l-0.4,0.3l-0.4,0.4l-0.2-0.1l-0.6,0.9
			l-0.4,0.3l-0.3,0.4l-0.6,0.6l-0.7,0.9l-0.9,0.6l-0.3,0.5l-0.4,0.4l-0.8,0.8l-0.7,0.6l-0.9,0.8l-0.4,0.4l-0.4,0.3l-0.3,0.5L247,565
			l-0.2,0.2l-0.1,0.1l-0.1,0l-0.2,0.1l-0.4,0.3l-0.4,0.8l-0.5,0.7l-0.8,1l-0.5,0.5l-0.4,0.4l-0.1,0.5l-0.6,0.4l-0.4,0.5l-0.5,0.2
			l-0.3,0.5l-0.4,0.4l-0.4,0.4l-0.3,0.5l-0.4,0.5l-0.4,0.3l-1,0.9l-0.8,0.7l-0.7,0.8l-0.7,0.9l-0.1,0.2l-0.2,0.1l-1.5,1.4l-1,0.9
			l-0.4,0.4l-0.3,0.4l-0.5,0.3l-0.3,0.4l-0.7,0.9l-0.3,0.5l-0.6,0.4l-0.5,0.5l-0.6,0.5l-0.4,0.4l-0.5,0.3l-0.4,0.3l-0.6,0.1
			l-0.2,0.2l-0.2,0.1l-0.4,0.4l-1.4,0l-0.7,0.2l-0.7-0.2l-0.6,0.2l-0.7-0.1l-0.7,0.1l-0.3-0.1l-0.3,0.1l-1.4-0.2l-0.6-0.3l-0.7-0.1
			l-0.5-0.3l-0.6-0.2l-2.2-1.2l-0.9-0.9l-0.8-0.5l-0.4-0.9l-0.4-0.5l-0.6-1.3l-0.3-0.6l-0.3-1.1l-0.2-0.8l0.1-0.9l-0.4-1.7l0.3-1.5
			l0.1-0.6l0.6-1.3l0.8-1.2l1-1.2l1.5-2l2-2.4l1-1.1l1.1-1.2l2.4-2.5l2-2l2.1-1.9l1-0.9l0.9-1l1.1-0.9l0.4-0.7l0.5-0.5l2.3-2.1
			l2.2-1.9l1.2-1.2l1.1-1l2.2-2.2l1-0.9l0.3-0.3l0.3-0.2l0.4-0.5l0.6-0.4l0.6-0.6l0.6-0.4l0.6-0.6l1.1-1l0.4-0.1l0.1-0.4l0.8-0.7
			l0.9-0.7l1-0.9l2.4-2l1.2-1.1l1.2-1l0.4-0.6l0.7-0.5l1.3-1.1l1.1-0.9l1.2-1l0.3-0.4l1.3-1l0.5-0.4l0.6-0.4l0.5-0.6l0.7-0.4
			l2.8-2.4l2.3-2l1.1-0.9l0.7-0.4l0.5-0.3l0.5-0.9l0.8-0.5l2.5-2.1l1.1-1l0.5-0.6l0.4-0.6l1.1-0.5l0.8-0.8l1.5-1.5l0.4,0.2l1.1-1.2
			l1.5-1l1.9-1.5l2-1.7l0.6-0.4l0.5-0.5l1.3-1.1l2.4-2l2.5-1.9l1.2-0.9l0.9-1l1.1-0.8l1.1-0.8l1-0.9l1.2-0.8l0.6-0.6l0.7-0.4
			l0.5-0.5l0.6-0.5l0.5-0.6l0.6-0.4l1.2-0.9v-0.2l0.5-0.4l0.7-0.3l1-0.7l1-0.7l0.6-0.3l0.3-0.5l0.1,0.2l0.4-0.4l0.5-0.3l0.4-0.3
			l1.1-0.7l0.4-0.4l0.4-0.4l0.9-0.7l0.3,0l0.1-0.3l0.6-0.3l0.4-0.5l0.4-0.4l0.9-0.6l0.9-0.5l0.3-0.4l0.4-0.3l0.3-0.4l0.4-0.2l0-0.1
			l1.6-1l1.6-1.2l1.1-0.9l0.7-0.4l0.6-0.4l0.5-0.4l0.6-0.3l0.5-0.5l0.6-0.5l0.7-0.5l0.9-0.5l0.7-0.6l0.6-0.6l0.6-0.1l0.5-0.4
			l0.5-0.5l0.6-0.3l0.4-0.5l0.6-0.4l1.1-0.6l0.5-0.4l0.4-0.5l3-2.1l2.5-2l2.3-1.7l0.6-0.5l0.3-0.2l0.2-0.3l0.6-0.4l0.6-0.5l1.1-0.9
			l3.1-2l-0.1,0l0.2-0.1l1-0.8l0.9-0.7l1.2-0.8l1-1l0.7-0.4l0.6-0.4l0.6-0.4l0.9-0.4v-0.1l-0.1,0v-0.3l0-0.4l0-0.6l0.1-0.7l0-0.3
			l0.2-0.1l0-0.4l0.1-0.4l0-0.4l-0.2-0.3l0-0.6l0.3-0.3l-0.3-0.5l0-0.8l0.1-0.4l-0.2-0.3l0.1-0.8l0.1-0.3l0.1-0.4l-0.2-1.6l-0.5-1.4
			l-0.3,0l-0.6,0.2l-0.4,0.6l-0.8,0.3l-0.6,0.4l-0.7,0.4l-0.3,0.6l-0.9,0.2l-0.5,0.5l-0.3,0.2l-0.2,0.3l-0.8,0.2l-0.2,0.3l-0.4,0.1
			l-0.8,0.5l-1,0.3h-1.2l-0.3,0.4l-0.5,0.1l0.2,0.4l-0.7,0l-0.9,0.4l-0.8,0.3l0.7,0.3l-0.9,0.1l-0.5,0.1l-0.5-0.1l-0.3,0l-0.2-0.2
			l-0.4-0.1l-0.1,0.3l-0.2,0.1l-0.6,0.1l-1.6,0.4l-1.7,0.2l-0.8,0.2l-0.9,0l0,0.1l-1.4,0l0,0.1l-0.3,0l0-0.1l-0.8,0l-0.6-0.1l-0.8,0
			l-0.7-0.1l-0.7-0.3l-0.9-0.1l-0.6-0.2l-0.7-0.2l0,0.3l-0.4-0.4l-0.4-0.3l-1.2-0.5l-1.8-1.2l-0.1,0.2l-0.2-0.4l-1.1-1l-1.2-1.3
			l-0.5-0.5l-0.2-0.8l-0.4-0.6l-0.3-0.7l-0.3-1l-0.3-1.1l-0.2-0.5l0-0.6l-0.5-2.2l-0.1-1l-0.1-1.1l-0.2-1l0.2,0l-0.1-1.2
			c0.1-1.2-0.1-2.3,0-3.4l0-1.8l0.1-0.8l0-2.9c-0.1-1.2,0-2.4,0-3.6l-0.1-0.9l-0.4-0.7l0.1-1.7l0.1-0.8l0-0.9l0.2-0.8l0.3-0.8
			l0.3-0.7l0-0.9l0.1-2.8l0.2-2.7l0.1-1.4l0-0.3l0.2-0.2l0-0.6l0.1-0.3l0-0.4l0-0.7l0.4-0.8l-0.1-1l0.1-0.7l0.3-1.2l-0.1-0.4
			l0.1-0.5l0.2-1.1l0.4-2.3l0.3-1.2l0.3-1.2l0.4-1.2l0.3-1.1l0.2-0.9l0.2-0.8l0.1-0.4l0.3-0.5l0.1-0.6l0.3-0.5l0.2-0.5l0.5-1.2
			l0.3-0.5l0.2-0.6l0.2-0.5l0.2-0.5l0.3-0.5l0.2-0.2l0.1-0.2l0.2-0.2l0-0.3l0.3-0.5l0.4-0.5l0.2-0.5l0.1,0l0.3-0.8l0.6-0.7l0.4-0.7
			l0.2-0.3l0.1-0.3l0.3-0.5l0.7-0.8l0.8-1.2l0.3-0.7l0.3-0.2l0.2-0.4l0.7-0.8l0.3-0.4l0.2-0.3l0.2-0.1l0.2-0.5l0.3-0.5l0.8-0.7
			l1.8-1.5l1.9-1.4l0.6-0.6l0.4-0.1l0.2-0.2l0.3-0.2l0.3-0.1l0.3-0.2l0.5-0.4l0.5-0.4l0.4-0.3l1-0.4l0.6-0.3l0.6-0.1l0.5-0.3
			l0.6-0.2l1.1-0.3l1.2-0.3l0.4-0.2l0.7-0.1l0.7,0l0.6-0.1l0.7,0.1l0.6,0.1l0.5,0.1l0.5,0.2l0.6,0.1l0.6,0.2l0.3,0.5l0.4,0.4
			l0.3,0.5l-0.1,0.5l0.1-0.1l0.1,0.6l0.1,0.5l-0.1,1.3l-0.3,0.9l-0.2,0.3l0.3,0.6l-0.5,1.3l0,0.5l-0.3,0.4l-0.1,1l-0.6,0.6l-0.3,0.3
			l-0.1,0.4l0,0.5l-0.5,0.2l-0.2,0.5l-0.2,0.4l-0.5,0.8l-0.5,0.4l-0.5,0.5l-0.6,0.3l0,0.2H346l-0.1,0.2l-0.9,1l-0.4,1.4l-0.3,0
			l-0.8,0.9l-0.1-0.1l-0.5,0.7l-0.2,0.6l-0.2,0.8l0.1,0l-0.4,0.7l-0.6,0.3l-0.4,0.9l-0.1,0.6l-0.4,0.6l-0.6,1.5l-0.3,1.6l-1,1.3
			l-0.5,1.3l-0.4,1.6l-0.3,1.4l-0.3,0.6l-0.1,0.7l-0.2,0.6l-0.1,0.7l-0.5,1.1l-0.2,0.7l-0.1,2l-0.1,0.8l0.1,0.8L336,400l0.2,0.2
			l0.3,0.6l0.3,1.5l-0.5,1.2l-0.1,0.5l-0.2,0.4l0,1l-0.1,0.6l0.1,0.8l-0.2,1.4l-0.3,2.8l0.1,1.4l-0.3,1.2l-0.3,0.5v0.7l0.1,0.7
			l0.2,1.1L335,417l0.4,0.4l-0.1,0.5v2.6l0.6,2.7l0.4,0.4l0.2,0.8l0.6,1.2l1,1l0.6,0.4l0.8,0.3l0.6,0.2l0.6,0l1.3-0.1l2.2-0.5
			l0.6-0.4l0.7-0.2l0.6-0.3l0.5-0.2l0.4-0.4l0.5-0.4l0.3-0.1l0.2-0.2l0.4-0.4l0.2,0.1l0.6-0.6l1.3-1.5l0.7-0.8c1.1-1.4,1.6-3,2-4.7
			l0.3-1.4l0.2-0.6l0.1-0.7l0.4-2.8l0.2-1.4l0.2-1.6l0.3-0.5v-0.7l0.2-2.1l0.1-1.2l0.1-1.2l0.2,0v-1.3l0.1-1.1l0.2-1.3l0.1-1.4
			l0-0.4l0.1-0.2v-0.8l0.2-1.6l0.2-1.5l0-1.6l-0.1-0.6l0.2-0.2l0-0.3l0-1.4l-0.4-0.1l0.1-0.6l0.6-0.3l0-1l0.2-1l0.1-1.2l0.1-1.3
			l0.1-0.7l0.1-0.8l0.1-0.7l0.1-0.7l0.1-1.7l0.1-0.6l0-0.7l0.2-1.3l0.1-1.4l0.1-1.6l0.1-0.7l0.1-0.3l-0.1-0.3l0.2-0.6l0.1-0.7l0-1.5
			l0.1-0.5l-0.1-0.3l0.1-0.3l0.2-1.3l0-0.9l0-1l0.1-1.7l0.1-1.4l0.2-0.6l0-0.9l0.3-1.4l0.1-1.4l0.2-0.6l0.2-0.7l0.6-1.3l0.2-0.2
			l0-0.3l0.4-0.5l-0.1-0.2l0.2,0l0.7-0.9l0.7-0.7l0.8-0.6l0.8-0.6l0.2-0.2l0.7-0.1l0.1-0.3l0.7-0.1l0.5-0.2l1-0.5l3-0.3h1.7l1.6,0.4
			l2.4,1.3l0.8,0.9l0.4,0.5l0.4,0.4l0.4,1l0.1,0.4l0.6,0.1l-0.1,0.1l-0.6,0.2l0.4,0.5l-0.2,0.5l0,0.6l0,0.7l-0.1,0.7l0.1,0.5
			l0.2,0.5l-0.3,0.3v0.6l0.1,1l0.5,0.4l-0.2,0.4l-0.5,0.1l0,0.7l0.2,0.5l0.1,0.6l-0.3,0.6l-0.2,1.3l0,0.7l0.2,0.5l-0.2,0.5l0.4,0.6
			l-0.5,1l0.2,0.5l0.1,0.6v0.6l0.2,0.6l-0.1,0.6l0,0.3l-0.3,0.1l0.1,0.4l0,0.6l-0.3-0.2l-0.2,0.4l0.3,0.8l-0.3-0.1l-0.1,0.8
			l-0.1,0.7l0.5-0.2l-0.6,0.7l-0.1,1.7l-0.1,0.9l-0.2,0.9l0.2,0.7l-0.3,0.6l0.3,0.3l-0.1,0.4l-0.1,0.9l-0.1,1.9l0,1l-0.2,1
			c-0.1,1.3-0.1,2.5-0.2,3.8c-0.1,1.4-0.4,2.8-0.4,4.2l-0.1,1.1l0,1.4l-0.1,1.3l0,0.9v0l-0.2,0.3l0,0.5l-0.1,0.9l-0.2,1.9l-0.2,2
			l0,0.9l0.1,0.5l-0.3,1.2l-0.1,1.3l0,1.4l-0.1,0.7l0.5,0.1l-0.3,0.3l-0.2,0.5v0.7l-0.1,1.8l-0.2,0.8L374,415l0.3,0.2l-0.2,0.3
			l0,0.5l0,0.9l0,1l0.4,0.6l0,0.5l0.1,0.2l-0.1,0.3l-0.1,0.5l0.2,0.5l-0.4,1l-0.2,0.5l0.4,0.4l-0.4,0l0.2,1.2v0.6l-0.3,1l0.3,0.8
			l-0.1,0.3l0.1,0.1l-0.1,0.4l0,0.5l-0.3,0.3l0.1,0.3l0,0.3l-0.2,0.6l-0.1,1.3l-0.2,1.3l0.1,1.2l0.1,1.2l-0.1,1.2l0.1,0.5l-0.1,0.6
			l0,0.6l-0.2,0.5l0.2,1h0l1.2-0.4l0.4-0.3l0.2-0.3l0.2-0.1l0.3-0.4l0.3-0.1l0.2-0.3l0.5-0.4l0.5-0.3l0.3-0.3l0.5-0.3l1.1-0.7
			l0.5-0.3l0.6-0.4l1.2-0.7l1.1-0.6l0.7-0.4l0.5-0.4l0.6-0.1l0.6-0.5l3.3-2.2c1.8-1.2,3.7-2.2,5.5-3.4l2.9-1.9l3-1.7l-0.1-0.1
			l0.8-0.6l0.6-0.5l0.6-0.2l0.7-0.4l1.1-0.7l1.1-0.6l1.1-0.8v0l0.9-0.5l0.9-0.4l1.1-0.7l1-0.6l0.3-0.3l0.6-0.5l1-0.6l1.2-0.7
			l1.2-0.4l1.2-0.5l1-0.6l0.3-0.4l0.5-0.1l0.9-0.7l0.3-0.2v-0.3l0.7-0.4l0.5,0.3l0.5-0.3l0.6-0.3l0.5-0.3l0.9-0.7l0.3-0.1l0.1-0.2
			l0.3-0.1l0.2-0.2l0.3-0.2l0.3,0l0.3-0.5l0.5-0.2l0.5-0.3l0.5-0.3l0.5-0.4l0.5-0.3l0.5-0.4l0.8-0.3l0.8-0.5l2.4-1.5l1.1-0.8
			l0.5-0.1l0.5-0.3l0.9-0.7l1.1-0.5l2.1-1.1l1.1-0.7l1.2-0.8l2.5-1.3l2.4-1.4l0.5-0.3l0.6-0.3l0.2-0.2l0.3,0.1l0.5-0.4l2.2-1.2
			l2.3-1.4l0.6-0.3l0.6-0.5l0.8-0.5l0.3-0.1l1.6-0.9l0.6-0.3l0.6-0.1l-0.1-0.1l0.9-0.6l2.4-1.3l0.5-0.3l0.7-0.4l1.2-0.6
			c1.7-0.9,3.3-2,5-2.9l2.3-1.1l1.5-0.8l0.5-0.4l0.5-0.3l0.5-0.4l0.6-0.3l1-0.6l0.9-0.6l1.4-0.9l0.4-0.1l0.8-0.5l0.5-0.3l0.3-0.6
			l-0.5-0.6l-1.2-0.6l-0.5-0.4l-0.6-0.4l-0.8-0.9l-0.5-0.6l-0.3-0.7l-0.2-0.6l-0.3-0.4l-0.3-0.6l-0.1-0.7l-0.2-1.3l-0.1-1.4l0-2.9
			l0.1-1.4l-0.2-0.7l0.1-0.7l0.1-0.7l-0.3-0.6l0.2-0.9l0.1-0.9l0.2-0.3l0-0.3l0.1-0.7l0-1.6l0-1.4l0.3-1.6l-0.3-1.4l-0.3-1.1
			l0.3-1.7l-0.1-0.7l0.2-0.6l0.3-1.2l0-0.4l-0.2-0.2l-0.1-0.8l-0.1-0.4l-0.2-0.2l0.2-0.7l0.4-0.4l-0.1-0.7l-0.3,0l0.1-0.7l0.1-0.3
			l0.3-0.1l0.1-0.7l0.1-1.2l0-0.5l0.2-3.1v-1.4l0.1-1.3l-0.1-0.1l-0.2-0.2l0.2-0.1l0.1-0.6l0-1.4v-3.3l-0.1-3l0-0.7l0-0.2l-0.3-0.2
			l-0.2-0.5l-0.3-0.6l-2.1-1.4l-1.4,0l-0.2-0.2l-0.3,0.1l-0.2-0.2l-0.4-0.1l-0.6,0.3l-1.1,0.1l-1.1,0.6l-0.7,0.3l-0.5,0.5l-0.7,0.2
			l-0.4,0.3l-1,0.9l-0.6,0.2l-0.5,0.4l-0.3,0.4l-0.2,0.4l-0.1,0.4l-0.9,0.5l-0.3,1.3l-0.5,0.3l-0.5,0.4l-1.1,0.9l-0.6,0.7l-0.4,0.1
			l-0.1-0.3l-0.3,0.1l0.4,0.5L456,331l-1,0.7l-0.6,0.3l-0.1,0.5l-0.1,1.3l-0.2,0.6l-0.1,0.6l-0.2,0.1l0,0.2l-0.1,0.3l-0.4-0.1
			l-0.1,0.3l0.1,0.5l0,0.7v0.7l-0.1,0.4l-0.2,0.2l0.2,0.6l-0.4,0.4l-0.3,0.7l0.7,0.3l-0.4,0.6l-0.3,0.3l-0.4,0l-0.5-0.4l0.2,0.5
			l-0.2,0.1l-0.2,0.2l0.6,0.6l0.5,0.1l-0.4,0.3l-0.2,0.5l0.3,0.4l-0.9,0.4l0.7,0.1l0.4,0.4l-1.1,0.1l-0.6,0.7l0.2,0.5l0,0.6l0.3,0.5
			l-0.2,0.5l0.5,0.5l0.2,0.4l0.1,0.8l-0.6,0.8h-0.5l0.2,0.1l-0.8,0.6l0.4,0.7l-0.2,0.2l-0.6-0.2v0.6l0.1,0l-0.2,0.5l0.3,0.3l0.8,0.8
			l0.3,0.1l-0.1,0.2l0.2,0.5l-0.4,0.3l0.2,0.4l0.1,0.6l-0.2,0.5l0.4,0.2l0,0.4l-0.6,0.3l-0.6,0.1l-0.1-0.9l-0.1,0.5l-0.1,0.4
			l0.2,0.3l-0.4,0.6l-0.2,0.7l0.3,0.2l0.3,0.3l0.2,0.6l-0.5,0l-0.3,0.3l0,0.5l-0.1,0.3l0,1.1l0,1.2l-0.1,1.4l0,0.7l-0.2,0.7l0.4,0.3
			l-0.4,0.5l0.4,0.2l0.4-0.4l0.1,0.1l0-0.1l0.3,0l-0.3,0.9l-0.6,0.4l0.3,0.5l-0.3,0.2l0,0.6l0.4,0.6l0.3,0.1l0,0.4l-0.9,0.2l0.8,0.4
			l0.3,0.3l0.2,0.6l-0.6,0.9l-0.1,0.3l0.1,0.3l-0.2,0.6l-0.4,0.6l0.2,0.2l0.1,0.3l0.2,0.7l-0.1,0.4l-0.7-0.9l0.3,1l0.2,0.9l0.5,0.6
			l-0.1,1l-0.6,0.3l0.1,0.4l-0.4,0.3l-0.4,0.4l-0.4,0.5l0,0.4l-0.2,0.2l-0.1,0.4l-0.1,0.3l0.1,0.4l-0.4,0.1l-0.1,0.3l-0.2,0.1l0,0.4
			l0.1,0.4l0,0.8l-0.9,0.7l0.1,0l-0.6,0.1l-0.1,0l-0.4,0.7l-0.3,0.3l-0.2,0.3l-0.4,0.1l-0.3,0.2l-0.6,0.4l-0.4,0.4l-1.1,0.5
			l-0.4,0.3l-0.4,0.1l-0.6,0.5l-0.7,0.3l-0.6,0.4l-1.7,0.7l-1.9,0.3l-1.7-0.1l-0.4,0.1l-0.5-0.1l-0.8-0.2l-1.6-0.8l-1.1-1.2
			l-0.3-0.8l-0.2-0.4v-0.2l-0.2-0.1l-0.3-1.7l0-0.8l-0.1-0.7l0.1-1l0.1-0.4l-0.1-0.6l0.1-0.7l0.1-1.1l0.1-0.9l-0.1-0.5l-0.1-0.4
			l0.2-0.8l0.1-0.9l0.1-2l0.1-0.9l0-0.7l0.1-0.6v-1l-0.2-0.1l0.2-1l0-1.1l0.1-0.1l-0.1-0.1l0.1-0.7l0-0.7l0.1-1.3l0.1-1.3l0.1-0.5
			l0.1-0.5l0-2l0.1-1.9l0.1-0.9l0-1.2l0.2-0.4l-0.2-0.3l0.2-0.7l0.1-0.6l0.2-1.1l-0.1-0.6l-0.1-1l0.1-1l-0.1-0.9l0.2-0.9v-0.1l0-0.4
			l0.1-1.9l0.1-1.8l0.1-1.8l0-0.4l0.1-0.4l-0.1-0.4l0.1-0.4l0.1-1.8l0.1-1.8l0.1-1.9l0.1-2.5l0.3-3l0.1-1.5l0.2-1.6l0.8-2.6l0.4-1.2
			l0.6-1.2l0.6-1.1l0.7-1l0.7-1l1-1.1l0.6-0.6l0.4-0.1l0.2-0.2l0.3-0.1l0.1-0.2l0.7-0.5l1.2-0.7l1.2-0.7l0.4-0.1l0.6-0.2l1.3-0.5
			l3-0.4l1.4,0.1l1.4,0l0.4-0.4l0.5-0.3l1.4-0.1l0.6,0l0.5,0.4l0.4,0.4l1-0.1l0.6,0.2l0.6,0.1l1.2-0.1h0.7l0.6-0.2l0.6-0.4l0.6-0.2
			l1.1-0.5l1-0.7l0.4-0.4l0.5-0.3l0.9-0.7l0.5-0.9l0.5-0.2l0.3-0.4l-0.1-0.1l1.6-1.8l0.6-0.4l0.4-0.4l0.7-0.9l1-1l0.6-0.5l0.3-0.6
			l1-0.7l1.1-0.7l2.3-1.4l1.2-0.6l0.9-0.4l0.5-0.4l1.2-0.4l0.7-0.3l0.8-0.1l0.4-0.1h0.3l0.5-0.2l1.5-0.3l1.5,0l1.6,0.1l1.3,0.3
			l2.5,1l0.5,0.5l0.5,0.5l0.7,0.9l0.5-0.3l-0.1,0.5l0.2,0.4l0.4,0.5l0.2,0.5l0.2,1l0.5-0.2l-0.2,0.6l0.2,1.2l0,0.6l0.7,0.2l0.5,0.9
			l-0.8,0.1l0,1.5l0.4,0.5l0.4,0.8h0.7l-0.1,0.3l-0.3,0.5l0,0.9l0.2,0.5l0.3,0.2l0.2,0l-0.1,0.3l-0.4,0l-0.2,0.1l-0.3,0l-0.3-0.1
			l-0.3,0.5l-0.2,1.4v0.8l0.3,0.5l0,0.5l-0.2,0.3l0,0.6l0.5-0.2l0.8-0.6l0,0.3l-0.1,0.2l-0.1,0.6l-0.1,1.3l0.6,0.3l-0.2,0.4
			l-0.5-0.2L493,321l0.2,0.4l0,0.5l-0.4,0.2l0.5,0.2l-0.3,0.3l0.1,0.4l-0.2,0.3l0.2,0.6l0.2,0.7l0.4,0.6l-0.1,0.1l0,0.3l-0.4,0
			l-0.4,0.1l-0.5-0.1l-0.1,1.5l0.6,0.5l0.3,0.4l-0.6,0.3l-0.4,0.4l0,0.7l0.3,0l0,0.3l0.5,0.4l-0.3,0.2l-0.7,0l-0.1,1l0.2,0.3
			l-0.2,0.6l0,1.7l0,1.6l-0.1,1.5l0.1,1.6l0,0.9l0.4,0.3l0.3,0.5l-0.1,0.5h-0.7l0.1,0.3l0.1,0.2l-0.1,0.3v0.3l0.2,0.5l0.3,0.4
			l-0.6,0.2l0.1,0.4l-0.2,0.4l0,0.4l0.1,0.4l0.8,0.3l0.1,0.5l-0.4,0.4l0.1,0.4l0.1,0.3l0.2,0.4l0.2,0.3l0,0.3l-0.2,0.3l0-0.5
			l-0.3,0.3l-0.2,0.4l-0.1,0.4l0.2,0.4l0,0.5l-0.1,1.1l-0.4-0.2l-0.2,0.3l0,0.6l0.1,0.3l-0.2,0.2l0.5,0.1l0.2-0.5l0.3,0.4l0,0.3v0.3
			l-0.6,0l-0.1,0.4l0.4,0.2l-0.6,0.1l0.4,0.9l0.5,0.2l-0.2,0.5l-0.5-0.1l-0.1,0.5l0.2,0.5l-0.2,0.5l0,0.4l0.1,0.3l-0.2,0.2l0.5,0.2
			l0.6,0.1l-0.3,0.9l0,0.7l0.5,0l0.2,0.2l0.3,0.1l0.1,0.5l-0.8,0.8l0,0.4l0.2,0.2l-0.3,0.1l0.3,0.4l0.5-0.2l0.4,0.4l0,0.4l0,0.1
			l-0.1,0.1l0.1,0.6l0.4,0.1l-0.1,0.3l-0.1,0.2l0.4,0.3l0.8,0.1l0.4,0.9l0.8,0.5l0,0.2l0.8,0.2l0.9,0.1l2.4-0.7l1.2-0.4l1-0.5
			l0.5-0.1l1.1-0.5l1.1-0.5l0.5-0.3l0.7-0.3l0.2,0l0-0.1l0.3,0l0.4-0.3l0.5-0.2l0.2,0.1l0-0.2l0.8-0.4l0.4-0.1l0.3-0.3l0.8-0.4
			l0.3,0l0.5-0.5l0.5-0.1l0.3-0.3l0.4-0.1l1.3-0.7l0.9-0.5l1-0.5l0.9-0.6l0.1,0.1l0.7-0.5l0.3,0.1l0.2-0.1l0.4-0.4l1.1-0.6l2.2-0.9
			l0.4-0.2l1.2-0.4l1.2-0.3l0.6-0.1l0.3-0.1l0.3,0.1l0.5,0l0.4,0.1l2-0.1l0.9,0.1l0.7,0.2l0.8,0.1l0.8,0.2l0.8,0l0.8,0.1l-0.3-0.4
			h0.5l0.3,0.6l0.7,0.3l-0.2-0.3l0.6,0.3l0.4,0.4l0.1,0.3l0.3,0.1l0.3,0.3l0.4,0.5l0.3,0.5l0.2,0.5l0.3,0.5l0.4,0.4l0.3,0.5l0.1,0.6
			l0.2,0.2l0,0.3l0.4,0.4l-0.3,0.5l0.4,0.3l0.2,0.2l-0.1,0.3l0,0.3 M283.1,388.5l0.2-0.2l0.9-0.2l1-0.2l2.1-0.1l0.9-0.3l0.6-0.1
			l0.5-0.1l1.3-0.5l1.3-0.4l0.6-0.5l1-0.3l1-0.1l-0.1-0.2l-0.5,0.1l0.7-0.4l0-0.1l0.3-0.1l0.9,0l0.5-0.6l0.4-0.3l0.5-0.2l0.3-0.1
			l0.2-0.1l0.2,0.1l0.6-0.3l-0.3-0.2l0.4-0.2l0.1-0.2h0.1l0.2,0.4l0.4-0.1l0-0.2l0-0.3l0.5,0.1l0.6-0.2l0.1-0.2l0.1,0l0.3-0.1
			l0.5-0.1l0.6-0.1l0.7-0.1l0.6,0l0.4,0l0.2,0l1.3,0.3l0.7,0.2l0.5,0.3l0.8,0.7l0.4,0.5l0.1,0.3l0.2,0.3l0.3,0.5l0.4,0.4l0.1,0.6
			l0.2,0.2l0,0.3l0.3,0.5l0.2,0.2l-0.1,0.1l0.1,0.1l0.1,0.1l0,0.1l0.2,0.2l0.3,0.5h0.1l-0.2,0.5l0.3,0.5l-0.2,0.7l-0.1,0.7l0.1,1.4
			l-0.3,1.1l-0.3,0.4l-0.2,0.5l-0.4,0.3l-0.3,0.5l-0.4,1l-1.3,1.4l-0.4,0.2l-0.2,0.2l-0.2,0.1l-0.7,0.7l-1,0.6l-0.5,0.3l-0.4,0.4
			l-0.3,0.1l-0.2,0.2l-0.4,0.4l-0.8,0.8l-0.8,0.4l-0.6,0.6l-0.6,0.5l0.1,0.1l-0.4,0.2l-0.2,0.3l-0.2,0.2h-0.3l-0.3,0.3l-0.2,0.2
			l-0.4,0.4l-0.5,0.3l0.1,0.1l0,0l-0.4,0.1l-0.2,0.2l-0.4,0.6l-0.7,1.1l-0.7,1l-0.7,0.9l-0.8,1l-0.4,0.5l-0.2,0.6l-0.5,0.6l-0.4,0.7
			l-0.2,0.8l0.3,0.7l-0.8,0.7l-0.1,0.6l0.4,0.3l-0.5,0.2l-0.1,0.7l0.1,0.7l0,0.6l-0.6,0.6l0,0.6l-0.3,0.5l0.1,0.6l0.1,0.6l0.2,0.5
			l-0.1,0.3l-0.3,0l-0.4,0.3l-0.4,0.3l0.2,0.7l-0.2,0.3l-0.1,0.4l0.1,0.6l-0.1,0.7l-0.1,0.7l-0.1-0.1l0.1,0.3l-0.2,0.3l0.2,0.1
			l-0.2,1.1l-0.1,1.3l0.1,0.6l0.2,0.4l-0.4,1l-0.1,1.3l-0.1,1l0.2,0.7l-0.2,0.7l0,1.4l-0.1,1.4l0,0.6l0,0.7l-0.1,0.7l0,0.6l0,0.5
			l-0.1,0.6l0,0.8l0,1.7l-0.1,1.3v1.2l0.2,0.2l-0.3,0.3l0.2,0.9l0.1,0.9l-0.4,0.7l-0.1,1.3l-0.1,0.5l0.1,0.6l0,1.3l-0.1,1.5
			l-0.2,1.5l-0.2,0.8l-0.1,0.4l0,0.4l-0.5,1l-0.4,1l-0.6,1l-0.6,1.1l-0.4,0.4l-0.3,0.4l-1.2,1.2l-0.3,0.4l-0.1,0.5l-0.6-0.1
			l-0.4,0.4l-0.4,0.3l-0.4,0.4l-0.5,0.2l-0.5,0.2l-0.2,0.2l-0.3,0.1l-0.2,0.2l-0.3,0.1l-0.5,0.3l-1,0.6l-1.2,0.4l-0.5,0.1l-0.8,0.3
			l-1.1,0.4h-0.6l-0.2,0.1l-0.2,0.1l-1.3,0.1l-1-0.1l-0.7-0.3l-0.6-0.3v-0.4l-0.2,0l-0.3-0.2l-0.1-0.1l0-0.2l-0.3-0.3l-0.3-0.3
			l-0.5-0.5l-0.2-0.4l-0.1-0.4l-0.3-0.2l-0.1-0.4l-0.2-0.5l-0.1-0.6l-0.2-0.5l-0.1-1.4l-0.1-1.4l0.1-1.4l0-1.4l-0.1-1.4l0.1-0.7
			l-0.3-0.8l0.1-0.5l0.1-0.7l0.4-1.1l0.1-1.4l0.2-1.3l-0.2-0.8l0-0.5l0.1-1.1l0,0v-0.1l-0.1-1.4l-0.2-0.5l-0.2-0.5l0.2-0.6l0-0.7
			l0.1-0.7l0-0.7l0.2-0.6l0.2-0.6l0.1-0.3l0-0.4l-0.2-0.5l-0.1-1.2l-0.3-0.7l0.4-0.5l0.1-0.7l0-1.7l-0.1-0.7l0-0.6l0.1-1.2l0.4-1.3
			l0.3-0.6l0.1-0.4l0.1-0.3l-0.1-0.3l0-0.8l0.2-1l0-0.5l0-0.7l0.2-1.5l0.2-1.3l0.1-1.4l0-1.4l0.1-1.4l0.1-1.3l0.1-0.6l-0.1-0.7
			l0.2-2.5l0.1-2.2l0-0.9l-0.2-0.7l0.2-0.5l0.1-0.6l0.1-1.2l0.1-2.4l0.4-2.6l0.4-1.6l0.4-1.2l0-0.7l0.5-1.2l0.4-1.3l0.5-1l0.3-0.5
			l0.2-0.1l0.1-0.2l0.6-0.9l0.8-0.8l1.8-1.5l0.2-0.2l0.3-0.1l0.5-0.3l0.5-0.4l0.6-0.3l0.5-0.3l0.6-0.2l0.5-0.3l1.5-0.6l1.6-0.5v0
			l0.3,0.1 M253.4,413.2l-1.3,0.5l-0.2,1.7l0.6,1.6l0.5,1l0.3,0.2l-0.4,0.6l-0.2,1l0.4,0.9l-0.3,0.9l-0.7,1.5l-0.2,0.9l0.2,0.4
			l-0.1,0.5l-0.1,1.4l-0.2,1l0.1,0.6l-0.3,0.5l0.1,1.2l-0.3,1.2L251,432l-0.5,0.9l0,1.2l0.2,2.5l-0.2,1.2l-0.1,1.3v1.2v1.1l-0.4,0.4
			l-0.1,0.6l-0.3,1.8l-0.3,0.3l-0.1,1.3l0,1.4l0,1.3l-0.3,1.2l-0.2,0.5l0,0.8l-0.2,0l0,1.4l-0.4,1.1l0,1.4l-0.3,1.2l-0.1,1.4
			l-0.1,0.7l-0.1,0.6l-0.1,1.4l-0.1,0.6l-0.2,0.5l0.1,1.4l0.1,0l0,0.4l0,0.4l-0.1,0.3l-0.3,0.8l0.1,0.3l0.2,0.8l-0.3,1.4l0.3,2v0.7
			l-0.1,0.8l-0.3,0.9l-0.3,0.6l0,0.1l0.1,0.5l-0.1,0.6l-0.2,1.4l-0.1,0.7l-0.2,0.6l-0.1,1.4l-0.7,1.3l0,0.9l0.3,0.3l1.2,0.4
			l-0.3,0.9l-0.2,0.4l-0.4,0.1l-0.7-0.6l-0.4,1.3l-1,0.1l-0.7,0.6l-1.5,1.4l-1,0.6l-0.9,0.8l-1,0.7l-1.7,1l-1,0.5l-0.5,0.2l-0.4,0.4
			l-1.3,0.1l-0.6,0.2l-0.6,0l-2.4-0.5l-1.1-0.5l-0.5-0.2l-0.3-0.5l-0.5-0.9l-0.3-1.1l-0.4-1.1l-0.1-1.2l0-1.7v-1.9v-3.6l0.2-2.5
			l0.1-1.2l0.1-1.1l-0.1-1.3l0.2-1.3c-0.1-1.6,0.2-3,0.2-4.5l0.1-2.1l-0.2-0.1l0.1-0.6l0.4-2.5l0.4-2.4l-0.2-1.3l0.2-1.2l0.2-1.7
			l0.2-1.9l0,0l-0.1-1.7l0-1.6c0.6-1.4,0.4-3.3,0.5-4.8l0-0.9l0.1-1l0.2-2.2l-0.2-1.1l0.3-0.8l0-3.1l0.3-2.5l0.2-3l0.3-2.9l0.2-2.4
			l0.1-0.2l0.5-1.8l0.6-1.6c0.6-1.5,1.1-2.9,1.8-4.3l1.3-2l1.4-1.5l0.9-1l0.5-0.5l0.7-0.2l-0.2-0.2l1.1-0.8l1.2-0.9
			c1.2-0.9,2.8-1.5,4.2-2l2.5-0.5l1.5,0.2l1,0.3l0.9,0.8l0.8,0.9l0.6,1.7l0.3,1l0.3,0.5l0,0.1l-0.2,1.3L253.4,413.2 M261.7,366.2
			l-0.2,0.3v0.5l0.2,0.2l-0.2,0.4l0.3,0.4l-0.2,0l-0.1,0.3l-0.2,0.4l-0.2,0.8l-0.6,0.7l-0.2,0.3l-0.2,0.1v0.4l-0.2,0.3l-0.3,0.6
			l-0.4,0.5l-0.5,0.4l-0.5,0.3l0.1,0.6l-0.2,0.1l-0.2,0.3l-0.8,0.7l-0.5,0.3l-0.3,0.5l-0.2,0.3l-0.6,0.4l-0.8,0.6l-0.3,0.4l-0.5,0.1
			l-0.1,0.1l-0.4,0.3l-0.6,0.1l-0.1,0.2l-0.2,0.1l-0.4,0.3l-0.4,0.4l-0.2,0.1l-0.2,0.1l-0.5,0.2l-0.3,0.4l-0.8,0.5l-0.6,0.3
			l-0.3,0.4l-0.5,0l0.1-0.1l-0.6,0.3l-0.1,0.3l-0.4,0l-0.6,0.1l-0.7-0.3l0-0.1l-0.3,0.1l-0.4,0l-0.4-0.1l-0.1-0.1l-0.6,0.2l-0.2-0.2
			l0.2-0.2l-0.7-0.2h-0.4l-0.3-0.2l-0.5-0.4l-0.2-0.8l-0.4-0.2l-0.2-0.5l-0.1,0.2l-0.2-0.1l0-0.3l-0.3-0.9v-0.6l-0.3-0.3l0.1-0.4
			l-0.1-0.5l0.1-0.2l-0.1-0.1l0.1-0.4l0.1-0.8l0.1-0.9l0.2-0.3l0.1-0.4l0.3-0.7l0.1-0.7l0.2-0.2l0.1-0.3l0.3-0.4l0.3-0.5l0.2-0.6
			v-0.6l0.5-0.4l0.4-0.4l1-1.5l0.8-0.6l0.7-0.8l0.9-0.6l0.9-0.8l1.7-1.5l0.6-0.5l0.7-0.4l1-0.6l0.6-0.2l0.6-0.3l1.1-0.4l0.6,0
			l0.1-0.3l0.4,0l0.6-0.1l0.6,0l1.1-0.1l0.1,0.2l0.2-0.2l0.5,0.1l0.3,0.1l0.2,0.1l0.5,0.2l0.1,0.2l0.5,0.5l0.2,0.4l0.1,0.5l0.3,0.3
			v0.3l0.1,0.2l0.2,0.4l0.1,0.5l0.5,0.8l0.4,0.6v0.6l0.1,1.5 M210.9,429.3l0.1-0.3l0.3-0.1l0.2-0.6l0.1-0.3l0.1-0.3l0-0.9l0.2-0.8
			l-0.1-0.7l-0.1-0.3l0.1-0.3l-0.1-0.3l0-0.3l-0.3-0.3l-0.1-0.5l0.6-3l0.1-0.7l0.2-0.3l0.4,0l0.5-0.5l0.3-0.7l0-0.6l-0.3-0.1l-0.1,0
			l0-0.3l0.4-0.5l0.3-0.6l-0.2-0.3l-0.1-0.3l0.1-0.6l0.3-0.6l0.1-0.3l0-0.4l-0.3-0.4l0.2-0.7l0.2-0.7l0.1-0.6l0.3-0.9l0.2-0.4
			l0.1-0.4l0.1-0.4l0.1-1l0.1-0.4l0.1-0.1l-0.1-0.1l0.2-0.3l0.1-0.5l0.1-0.7l0.3-0.6l0.1-0.7l0.1-0.7l0.1-0.7l0.3-0.5l0.2-0.6l0-0.7
			l0.1-0.3l0.2-0.2l0-0.5l0.1-0.3l0-0.4l0.2-0.6l0.4-1.5l0.3-0.7l0.3-0.5l-0.3-0.3l0.3-0.3l-0.2-0.1l0.1-0.1l0.1-1l0.1-0.3l0-0.4
			l0.2-0.2l0-0.4l0.1-0.8l0.2-0.3l0.1-0.4l0.1-0.4l0.2,0l0-0.2l0.1-0.8l0-0.4l0.3-0.1l-0.1-0.5l0.1-0.2l0-0.4l0.2-0.3l0.1-0.4
			l0.1-0.3l0.1-0.3l0-0.3l0.2-0.7l0.2-0.6l0.2-0.6l0.2-0.2l0-0.4l0.1-0.4l0-0.4l0.1-0.3l0.1-0.4l0.1-0.4l0.2-0.3l-0.1-0.2l0.2-0.5
			l0.2-0.2l0.2-0.2l0.2-0.1l0-0.2l0-0.4l0.4-0.4l0.2-0.4l0.1-0.3l0.1-0.3l0.2-1.1l0.4-0.4l0.1-0.7l0.1-0.7l0.9-0.8l0.1-0.3l0.1-0.3
			l0-0.3l0-0.3l0.1-0.7l0.4-0.6l0.1-0.4l0.1-0.2l0.1-0.1l0.2-0.8l0.2-0.7l0.2-0.8l0.4-0.6l0.5-0.5l0.4-0.1l0.2-0.2l0.4-0.5l0.1-0.3
			l0.1-0.4l0.2-0.3l0.2-0.3l0.2-0.5l0.2-0.4l0-0.3l0.1-0.6l-0.1-0.8l0.3-0.6l-0.2-0.3l-0.1-0.4l0.1-0.7l0.1-0.8l0.1-0.3l0-0.4
			l0.1-0.8l0.1-0.8v-0.4l0.1-0.3l0-0.4l-0.1-0.3l0.2-0.3l0.1-0.3l0.1-0.7l0-0.7l0.4-0.3l-0.2-0.5v-0.7l0.7-1.5l0.7-1.5l0.8-1.6
			l0.1-0.4l-0.1-0.3l0.4-1l0.4-1.4l0.2-0.8l0.1-0.8l0.3-0.8l0.1-0.4l0.4-0.3l0.4-0.6l0.5-1.3l0.4-0.2l0.2-0.5l0.1-0.5l-0.6-0.8
			l-0.1-1l0.2-0.3l0.2-0.3l0.4-0.8l0.1-0.9l0.1-0.5l0.2-0.4l0.4-0.4l0.2-0.5l0.1-0.4l-0.2-0.3l0.1-0.8l0.5-0.7l0-0.8l0.2-0.6
			l0.2-0.4l0.3-0.2L237,331l-0.2-0.4l0.2-0.9l0.4-1l0.1-0.2l0.1-0.2l0.1-0.4l0.1-0.8l0.3-0.8l0.4-0.7l0.3-0.7l0.1-0.4l0.2-0.3
			l-0.1-0.4l0.1-0.4l0.3-0.3l0.1-0.4l-0.2-0.3l0.2-0.4l0.1-0.4l0.3-0.2v-0.4l0.1-0.3l0.2-0.3l0.1-0.4l0.1-0.9l0.1-0.6l0.2-0.4l0-0.4
			l0.2-0.3l0.1-0.6l0.2-0.5l0.1-0.4l0.3-0.7l0.1-0.3l0.3-0.1l0.1-0.2l0.1-0.1l0-0.1l0.1-0.3v-0.2l0.1-0.1l0.1-0.1l-0.1-0.1l0.1-0.4
			l0.1-0.1l0.1-0.1l0.3-0.2l0.1-0.4l0-0.8l0.1-0.3l0.2-0.2l0.1-0.6l0.1-0.4l0.3-0.6l0.1-0.1v-0.1l0-0.4l0.1-0.4l0.3-0.6l0.2-0.3
			l0.3-0.5l0-0.4l0.3-0.8l0.3-0.7l1-1.5l0.4-0.9l0.2-0.5l-0.1-0.4l0.6-0.8l0.3-1l0.3-0.4l0.2-0.2l0.2-0.2l0.1-0.3l0.2-0.2l0.1-0.7
			l0.1-0.5l-0.2-0.5l0.1-0.7l0-0.4l0.4-1l0.4-0.9l0.5-1.2l0.3-0.4l0.1-0.7l0.5-1.1l0.1-0.3l0.2-0.2l0.1-0.6l0.4-0.6l0-0.3l0.2-0.2
			l0.5-1l0.2-0.3l-0.1-0.3l0.2-0.1l0.1-0.3l0.3-0.7l0-0.3l0.7-1.5l1.3-3l0.9-1.7l-0.1-0.1l0.2-0.5l0.2-0.5l0.4-1l0.1-0.2l0.2-0.1
			l0.1-0.5l0.4-1l0.6-1.2l0.2-0.3l0-0.3l0.3-0.6l0.1-0.4l0.2-0.2l0.3-0.5l0.2-0.6l0.5-0.8l0.1-0.4l0.4-0.8l0.5-0.9l0.4-0.4l0.4-0.3
			l0.5-1.2l0.2-0.6l0.5-0.3l0.4-0.8l-0.1-0.1l0.3-0.2l0.1-0.4l0.5-0.7l0.5-0.8l0.2-0.4l0.5-0.9l1.3-1.6l0.2-0.3l0.3-0.1l0.3-0.5
			l0.3-0.5l0.4-0.5l0.4-0.4l0.4-0.6l0.4-0.4l0.4-0.3l0.2-0.3l0-0.3l0.2-0.3l0.3-0.3l0.2-0.3l0.3-0.2l0.1-0.3l0.3-0.2l0.2-0.3
			l0.3-0.1v-0.2l0.1-0.1l0.5-0.7l0.8,0l0.2-0.5l0.3-0.2l0.2-0.3l0-0.3l0-0.3l0.3-0.2l0.2,0.3l-0.1,0.3l-0.1,0.1l0.1,0.1l0.5-0.1
			l0.1-0.3l0.2-0.2l0-0.6l0-0.4l0.4-0.2l0-0.4l0.2,0.2l-0.1,0.3l0.4,0l0.1-0.1l0-0.2l0-0.2l0.1,0l0.1-0.3l0.3-0.1l0.2,0l0.1-0.1
			l0.3,0.1l0,0.1l0.2,0l0.1-0.1l0.1-0.1l0.2-0.2l0.2-0.3l0-0.4l0.2-0.3l0.3,0l0.2-0.3l0.1-0.3l0.1-0.7l0-0.7l0.4-0.4h0.2l0.1-0.1
			l0.3,0.1l-0.2-0.5l0.2-0.3l0.3-0.2l0.1-0.4l0.1-0.1l0.2,0l0.2-0.3l0.2-0.2l0-0.1l0.1-0.2l0.2-0.3l0.4-0.5l0.3-0.7l0.1-0.3l0.3-0.4
			l0.1-0.1l0.1-0.3l0.3-0.6l0.2-0.7l0.2-0.3l0.1-0.3l0-0.4l0.1-0.3l0.1-0.7l0.1-0.8l0.1-0.3l0.1-0.3l-0.1-0.1l-0.1-0.3l0.2-0.2
			l0-0.8l0-1.4l-0.1-0.6l-0.2-0.5l0.1-0.4l-0.1-0.4l-0.1-0.8l-0.3-0.7l-0.1-0.3l-0.2-0.4v-0.4l-0.2-0.6l-0.2-0.3l-0.1-0.4l-0.3-0.6
			l-0.1-0.4l-0.3-0.3l-0.1-0.3l-0.5-0.9l-0.1-0.3l-0.2-0.3l-1-1.1l-0.5-0.4l-0.1-0.2l-0.2-0.1l-0.2-0.3l-0.2-0.1l-0.1-0.1l-0.2-0.1
			l-0.1-0.1l-0.3-0.2l-0.1-0.3l-0.4,0l-0.2-0.2l-0.5-0.4l-0.3-0.1l-0.2-0.2l-0.7-0.3l-0.9-0.4l-0.7-0.3l-0.7-0.2l-0.4-0.1h-0.2
			l-0.2-0.1l-0.6-0.4l-0.9-0.1l-0.9-0.2l-0.9-0.1l-0.9-0.1l-0.4,0.1l-0.4-0.1l-0.4,0.1l-0.3-0.1l-1.1,0.2l-1.1,0.1l-0.9,0.4l-1,0.3
			L262,220c-1.5,0.7-2.6,1.8-3.9,2.7l-1,0.9l-0.2,0.3l-0.4,0l-0.2,0.6l-0.6,0.6l-0.2,0.1l-0.4,0.4l-0.3,0.6l-0.9,1l-0.8,1l-1.2,1.9
			l-0.4,1.2l-1.2,1.8l-1,1.9c-0.6,1.2-1.1,2.5-1.6,3.9l-0.9,2.2l-0.9,2.1l-0.9,2.6l-0.9,2.4c-0.6,1.5-1.3,2.8-1.8,4.3l-0.9,2.3
			l-0.8,2.3c-0.6,1.4-1,3-1.6,4.4l-0.7,1.4l-0.5,1.8l-1.3,3.4c-0.5,1.2-1,2.5-1.4,3.8c-0.5,1.6-1.2,3.2-1.7,4.8l-0.8,2l-0.8,2.2
			l-1,2.5l-1,3.2c-0.4,1.2-1,2.3-1.4,3.5c-0.5,1.5-1,3-1.6,4.5c-1.5,3.5-2.6,7.3-3.8,10.9l-0.4,1l-0.3,0.9l-0.6,0.9l-0.5,1.1
			l-0.5,2.4c-0.1,1.2-0.6,2-1,3.1l-0.5,1.6l-1.4,3.1l-0.8,2.1l-0.5,2.3l-0.4,1.8l-0.7,2l-0.5,2.3l-1,2.2l0,2.4l-0.7,1.1l-0.4,1.5
			l-0.2,1.4l-0.5,1.5c-0.6,2-1.1,3.9-1.7,5.9l-0.8,3l-1,2.9c-0.6,2-1,4-1.4,6.1l-0.5,2.1l0.1,1l-0.6,1.2l-0.3,1.6l-1,2.8
			c-0.4,2.1-1.2,4.1-1.7,6.1c-0.3,1.6-1,3.1-1.3,4.8l-0.3,2.2l-0.7,2.5l-0.4,1.7l-0.1,0.8l-0.4,0.6l-0.2,1.4l-0.3,1.3l-0.7,3
			c-0.4,1.5-0.8,3-1.2,4.5l-0.5,2.4c-0.3,1.5-0.6,3-0.8,4.5l-0.6,2.4l-0.5,2.3l-0.3,2.2l-0.5,2.1l-0.3,2.1l-0.8,3.3l-0.6,2.8
			l-0.4,2.1c-0.2,1.1-0.4,2.2-0.5,3.4c-0.2,2.3-0.8,4.6-1.2,6.8l-0.5,3c-0.1,1.5-0.7,3.1-0.8,4.6l-0.4,1.7l-0.4,3.5
			c-0.3,2.2-0.6,4.5-1.2,6.5l-0.3,2.4c-0.3,2.9-0.8,5.8-1.3,8.6c-0.2,1.4-0.4,2.8-0.5,4.2l-0.2,2.2l-0.1,1.5l-0.3,0.5l0,0.7
			l-0.4,2.7l-0.3,0.1L184,475l-0.4,0.8l-0.3-0.7l-1-0.3l-0.3-0.7l0-0.7l0.1-1.8l-0.2-0.7l0.2-0.7l-1.2-1l0.3-0.5l-0.1-0.8v-1.6v-1.5
			l-0.4-1.4l-0.3-1.5l0.3-0.6l-0.1-0.9l0.3-1.3c-0.4-1.5,0-1.1,0-1.6l-0.4-1.3l-0.5-0.3l-0.3-0.6l-0.1-0.4l0.4-0.2l-0.3-0.1
			l-0.1,0.2l-0.4-0.5l0.2-0.5l-0.1-0.4l0.7-0.6l-0.2-0.1l-0.2,0.1l-0.5,0.1l-0.5-0.1l0.1-0.4l-0.1-0.4l0-0.8l0.1-0.7l0.3-0.5
			l-0.2-0.5v-0.4l0.2-0.6l0.2-0.5l0.1-0.6l0.2-0.1l0.1-0.3l0.2-0.5l-0.1-1l-0.4-0.7l-0.1-0.8l-0.4-0.4l-0.1-0.6l-0.2-0.4l-0.2-0.5
			l-0.2-0.6l-0.3-0.4l-0.1-0.7l-0.3-1.3l0-1.5l-0.1-1.2l-0.2-0.4l-0.1-0.6l-0.2-0.5l-0.3-0.7l-0.3-1.1l0.1-0.5l-0.1-0.6l-0.1-0.6
			l-0.1-0.4l0.6-0.1l0.2-0.5l-0.7-0.9l-0.5-1.1l0.1-0.8l-0.1-0.9v-0.8l-0.3-0.7l-0.1-0.7l-0.4-0.5l-0.5-1.4l0.1-0.4l-0.4-0.3
			l-0.1-0.4l-0.3-0.1l0-0.5l0.1-0.6l0.2-0.6l-0.6-0.4l-0.4-0.4l-0.1-0.8l0-0.8l-0.2-0.6l0.2-1l0-0.5l-0.4-0.1l-0.5-2.6l0.2-0.5
			l-0.2-0.6l-0.3-1.3l-0.1-0.9l-0.2-0.9l0.2-0.3l0.3-0.4l-0.4-0.1l-0.2-0.3l0.1-0.4l-0.2-0.3l-0.1-0.8l0.1-0.4l-0.1-0.2l-0.2-0.2
			l-0.1-0.4l-0.1-0.4l0-0.2l-0.1-0.2v-0.3l0.2-0.3l-0.2-0.3l-0.1-0.4l0.4-0.6l0.2-0.3l-0.2-0.3l0-0.5l-0.1-0.5l-0.1-0.4l-0.3-0.4
			l0.4-0.3l-0.2-0.3l0.3-0.3l-0.3-0.3l-0.7-0.3l0-0.8l0.3-0.7l-0.2-0.3l-0.2-0.4l0-0.9l0.4-0.1l-0.3-0.2l-0.5,0.1h0l-0.2-0.4
			l0.3-0.2l0.1-0.4l-0.3-0.2l-0.1-0.8l0.3-0.1l-0.1-0.3l-0.2-0.3l-0.3-0.3l-0.2-1l0.1-0.4l0.2-0.4l-0.5-0.8l-0.2-0.8l0-0.4l-0.1-0.4
			l-0.1-0.5l-0.1-0.4l0-0.4l-0.2-1.3l-0.2-0.8l-0.2-0.9l-0.2-0.9l0-0.5l-0.1-0.5l0-1l0-0.4l-0.2-0.4l0-0.9l-0.1-0.2l-0.1-0.1
			l0.1-0.3l-0.2-0.9l-0.2-1l0-0.5l-0.1-0.5l-0.1-0.6l-0.1-0.3l-0.2-0.2l0-0.2l-0.1-0.2l-0.1-0.7l-0.2-0.8v-0.5l-0.1-0.4l-0.1-1
			l-0.2-0.9l-0.1-0.6l-0.2-0.5l-0.1-1l0-0.4l-0.1-0.5l-0.4-2l-0.1-0.9l-0.3-0.9l-0.6-1.8l-0.3-0.6l-0.1-0.4l-0.2-0.3l-0.1-0.4
			l-0.4-0.8l-0.2-0.3l-0.2-0.4l-0.4-0.4l-0.4-0.5l-0.6-0.5l-0.5-0.5l-0.5-0.4l-1.1-0.6l-0.4-0.2l-1-0.3l-0.5-0.1l-1.1-0.2l-1-0.1
			l-0.3-0.1l-0.4,0l-0.9,0l-0.9,0.1l-0.9,0.3l-0.4,0.1l-0.3,0.3l-0.5,0.1l0,0l-0.9,0.4l-0.6,0.4l-1.3,1l-1,1l-1.1,1.6l-1.1,2.2
			l-0.8,2.5l-0.2,0.6l-0.3,0.6l-0.3,1.3l-0.2,0.4l-0.2,0.5l-0.3,0.8l-0.1,0.5l0,0.4l-0.2,0.1l-0.1,0.2l-0.9,2.9l-0.3,0.6l-0.2,0.6
			l-0.4,1.2l-0.4,1.1c-0.5,1.5-0.7,3-1.3,4.4l-0.7,1.3l-0.4,1.4l-0.3,1.7l-0.6,1.3l-0.7,1.9l-0.6,1.5l-0.1,1.3l-0.5,1.6l-1,2.9
			l-0.9,2.6l-0.6,1.4l-0.5,1.3l-0.4,1.3l-0.2,1.6c-0.4,1.1-0.8,1.9-1,3l-1.4,2.3l-0.4,1.6l-0.2,1.6l-0.8,2l-0.6,1.1l-0.3,1.3
			l-0.5,0.9l-0.2,1.5c-0.4,1.2-1,2.3-1.4,3.5c-0.5,1.4-1.3,2.8-1.7,4.2l0.3,0l-0.3,1.2l-0.5,1.2l-0.1,0.8l-0.4,0.6l-0.5,1.2
			l-0.3,1.1l-0.3,1.3l-0.9,2.3l-0.8,2.4c-0.5,1.6-1.2,3.4-0.9,5.1l0.8,2.5c0.8,1.2,1.9,2.6,3.1,3.3l1.9,0.7l0.9,0.3l0.8-0.1l1,0
			l0.8-0.2l1-0.1l0.5,0l0.4-0.3l0.5,0l0.3-0.3l0.8-0.3l1.6-1l0.7-0.8l0.3-0.3l0.2-0.5l0.9,0l-0.2-0.4l0.2-1.2l0.5-0.6l0.2-0.7l0-0.4
			l0.2-0.3l0.3-0.4l0.1-0.7l0.3-0.4l0.1-0.7l0.6-1l0.2-0.5l-0.1-0.4l0.8-0.8l0.2-0.6l0.4-0.5l0-0.7l0.2-0.6l0.5-1.2l0.6-0.6l0.6-0.3
			l-0.7-0.2l0-0.7l0.2-0.2l0.1-0.4l0.1-0.4l0.3-0.1l0-0.3l0-0.2l0.2-0.1l-0.1-0.2v-0.4l0.2-0.2l0-0.1l0.1-0.1l0.2-0.2l0.1-0.5
			l0.4-0.4v-0.4l-0.2-0.3l0.1-0.2l0-0.2l-0.1-0.3l0.3-0.3l0.1-0.3l0.2-0.1l0-0.2l-0.3,0.1l-0.3,0l0.1-0.5l0.3-0.2l0.1,0.1l0.2,0.1
			l0.3,0.1l0.1-0.3l-0.2-0.2l0.2-0.2l0.1-0.3l-0.1-0.3l0.1-0.3l0.1-0.3l0.3-0.2l0.1-0.2l-0.2-0.2l-0.1-0.4l0.2-0.7l0.3,0l-0.1-0.3
			l0.3-0.6l0.1-0.3l0.4-0.1l0.2-0.4l-0.2-0.2l0-0.3l0.2-0.7l0.2-0.1l0-0.3l0.1-0.5l0.2-0.2l0.1-0.1l0.2-0.1l0.1-0.1l0.2,0l0.1-0.4
			l-0.3-0.1l0-0.1l0.1-0.3l0.2-0.2l0.2-0.1l-0.1-0.3l0.6-0.2l0.2-0.6l-0.2-0.2l-0.1-0.4l0.3,0l0-0.4l0.2-0.1l-0.1-0.3l0.1-0.7
			l-0.2,0.2l-0.1-0.3l-0.2-0.4l0-0.4l0.5,0.2l0.2-0.2l0.2-0.1h0.5l0.1,0.2l0.2-0.1l-0.4-0.3l0-0.1l-0.3-0.1l-0.1,0.2l0.1-0.4l0-0.3
			l0.2-0.1l-0.1-0.5l0.8,0.3l0.1-0.2l0.2-0.1l0-0.5l0.2,0l0.1-0.1v-0.3l0-0.3l0.1-0.1l0.1-0.2l0.3-0.2l0.1-0.3l0-0.3l0.1-0.1l0-0.2
			l0-0.3l0.3-0.5v-0.3l0-0.1l0-0.1l0.5-0.3l0.7,0l0.2,0.3l0.3,0l0.3,0.1l0.3,0.1l0.2,0.2l0.1,0.3l0.3,0.5l0.3,0.1l0.2,0l-0.2,0.2
			l0,0.4v0.2l-0.1,0.1l-0.1,0.3l-0.2,0.6l0.2,0.2l0.2,0.3l0.3-0.4l0.6-0.3l0.5,0.3l-0.3,0.4l-0.3,0.1l0.1,0.3l0,0.4l0,0.4l-0.2,0.3
			l0.6,0.4l-0.2,0.2l0,0.2l-0.2,0.1l-0.2,0.1l0.1,0.3l0.1,0.2l-0.1,0.4l-0.1,0.7l0.5,0.4l-0.1,0.5l0.1,1.4l0.5,0.5l0.3,0l0.1,0.3
			l0.2,0.2l0,0.4l0.3,0l0.1,0.3l0.1,1.2l-0.4,1l0.5-0.3l0.1,1.4l0.2,0.5l0.1,0.6l0.1,1.4l0.2,1.1l0,1l0.2,0.6l0.3,1.3l0.1,1.4
			l0.1,0.7l0.1,0.5l-0.1,0.2l0.1,0.2l0.1,0.5l0.2,1l0.2,1.1l0.1,0.9l0.2,0.9l0.2,0.6l0.1,1.3l0.1,0.3l-0.1,0.3l0,0.7v1.4l0.1,0.4
			l-0.1,0.4l0.5,0.9l0.1,0.5l0.3,0.4l0,0.8l0.2,1.6l0.2,1.2l0.2,0.6l-0.1,0.5l0.1,0.6l0.2,0.6l0.2,1.3l0.4,2.7l0,0.6l0.2,0.6l0,0.7
			l0.2,0.6l0.2,1.2l0.1,0.5l0.2,1.3l0.1,0.7v0.4l0.1,0.2l0.1,0.6l0.1,1.4l0.2,0.6l0.1,0.6l0.1,1.3l0.2,0.5l-0.1,0.5l0.1,0.2l0,0.3
			l0.1,0.6l0.3,1.3l0.1,1.3l0.1,1l0.1,0.6l0.2,0.8l0.1,0.8l0.1,1l0.3,1.1l0.1,0.5l-0.1,0.6l0.3,0.6l0,0.6l0.2,0.7l0.1,0.4l-0.1,0.3
			l0.1,0.5l-0.2,0.3l0.2,0.3l0.1,0.9l0,0.4l0.2,0.3l0,0.9l0.2,0.8l0,0.4v0.2l0.2,0.1l0,0.4l0.1,0.4l0,0.9h0.2v0.1l-0.1,0.3l0,0.4
			l0.1,0.5l0.1,0.5l0.1,0.7l0.1,0.1v0.3l0.1,0.9l0.1,0.9l0.2,0.2l-0.1,0.4l0,0.5l0.1,0.4l0.1,0.8l0.1,0.1l-0.1,0.1l0.2,0.3l0,0.4
			l0.1,0.5v0.5l0.2,0.3l0,0.6l0.2,0.5l0.1,0.3l-0.1,0.2l0.1,0.5l-0.1,0.4l0.1,0.3l0.1,0.3l0.3,1.1l0,0.6l0.1,0.1l0,0.4l0.1,0.4
			l0.2,0.7l0.1,0.5l0.2,0.3l-0.1,0.3l0,0.4l0.2,0.6l-0.2,0.6l-0.2,0.6l0,0.6l-0.1,0.4l-0.1,0.5l0,0.6l0.4,0.1l0.3,0.2l0.5,0.6
			l0.1,0.4l0.1,0.4l0.1,0.3l-0.2,0.3l-0.4,0.6l-0.3,0.2l-0.3,0.2l0.1,0.2l-0.2,0.3l0.2-0.2l0.3,0.1l0.2-0.1l0.4,0.1l0.2,0.1l0.1,0.3
			l0.2,0.7l0,0.8l0.2,0.8l0.2,0.8l0.1,0.4l0.1,0.4l-0.1,0.2l0.1,0.1l0.1,0.3l0,0.4l0,0.3l-0.1,0.3l-0.3,0.1l0.3,0.4l0.2,0.4l0.2,0.4
			l0,0.4l0.2,0.4l0,0.3l0.1,0.3l0,0.5l0.1,1l0,0.4l-0.2,0.3l0.1,0.8l0.3,0.2l0.2,0.4l0.3,0.7l0,0.8l0.1,0.3v0.5l0.2,0.2l0.1,1
			l0.2,0.9l0.1,0.8l0.1,0.4l0,0.4l0.1,0.2l0.2,0l-0.1,0.4l0.1,0.2l0,0.2l-0.1,0.3l-0.1,0.2l0.2,0.3l0.1,0.4l0.2,0.3l0.2,1.2l0.2,1.2
			l0.1,0.6l0.1,0.6l0.1,0.6l0,0.4l0.1,0.4l0,0.5l0.1,0.4l0.2,0.8l0.2,0.8l0.1,0.3l0,0.6l0.2,0.5l-0.1,0.4l0.2,0.2l-0.1,0.1l0.1,0.1
			l0.1,0.2l0,0.2l-0.1,0.4l0.3,0.5l0.1,0.3l0.1,0l0,0.2v0.4l0.1,0.7l0.1,0.3l-0.1,0.3l0.2,0.5l0.2,0.6l0,0.2l-0.1,0.1l0.2,0.3
			l0.1,0.8l0.1,0.4l0.2,0.4l0.1,0.5l0.1,0.5l0.1,0.2l-0.1,0.1l0.1,0.3l0.2,0.8l0,0.4l0.1,0.4l0.1,0.4l0.3,0.7l0,0.3l0.1,0.3l0.1,0.2
			l0.3,0.8l-0.1,0.4l0.2,0.5l0.2,0.3l0.2,0.4l0.3,0.7l0.2,0.2l0.4,0.6l0.3,0.3l0.1,0.2l0.2,0.1l0.2,0.3l0.3,0.2l0.5,0.3l0.4,0.1
			l0.1,0.2l0.3,0.3l0.6,0.2l0.8,0.4l0.4,0.1l0.6,0.1l0.8,0.2l0.4-0.1l0.4,0h0.9l0.4-0.1h0.5l0.9-0.2l1.5-0.4v-0.1l0-0.2l0.4,0
			l0.2-0.3l0.4-0.2l0.4-0.2l0.3-0.2l0.6-0.5l0.5-0.5l0.3-0.3l0.3-0.3l0.2-0.5l0.2-0.1l0.1-0.2l0.3-0.4l0.2-0.4l0.1-0.3l0.2-0.3
			l0.2-0.5l0.3-0.7l0.2-0.8l0.2-0.3l0.1-0.4l0.1-0.8l0.2-0.3l0.1-0.4l0.2-0.8l0.1-0.4v-0.4l0.3-1.3l0.3-0.3l-0.3-0.2l0.1-0.3
			l0.2-0.8l0.1-0.8l0-0.5l0-0.4l0.3-0.2l0-0.3l0.1-0.8l0.2-0.8l0.1-0.9l0.1-0.8l0.1-0.6l0.1-0.9l0-0.4l0-0.4l0.1-0.4l0-0.4l0.2-0.8
			l0.1-0.9l0.1-0.4l-0.1-0.2l0.1-0.1l-0.1-0.4l0.2-0.3l0-0.4l0.1-0.8l0.1-0.3l0-0.4l0.1-0.4l0-0.4l0.1-0.2v-0.4l0.2-0.2l-0.1-0.2
			l0.1-0.3l0-0.6l0-0.4l0.1-0.4l0.1-0.4l0.2-0.3l0.1-0.9l0.1-0.9l0-0.7l0.2-0.8l0-0.2l0.1-0.1l-0.1-0.4l0-0.4l0.1-0.7l0.1-0.4
			l0.1-0.8l0.1-0.9l-0.1-0.3l0.2-0.3l0.1-0.4l0-0.3l0.1-0.3v-0.4l0-0.4l0.1-0.8l0.1-0.3l-0.1-0.1l0.1-0.1l0-0.5l0-0.4l0.1-0.8l0-0.4
			l0.2-0.3l0.1-0.8l0.1-0.8l0.1-0.8v0v-0.6l0.1-0.4l0.1-0.9l0.1-0.4l0.1-0.4l0.1-0.1l0-0.2l0-0.4l0-0.8l0.1-0.4l0-0.2l0.2-0.7
			l0.1-0.8l0-0.8l0.1-0.5l0.1-0.2l0.2-0.1l-0.1-0.3l0.2-0.3l0-0.8l0.1-0.8l0.1-0.7l0.2-0.9l0-0.4l0.1-0.4l0.1-0.9l0.1-0.3v-0.4
			l0.2-0.8l0.1-0.8l0-0.2l0.1-0.1l-0.1-0.1l0-0.2l0.2-0.7l0-0.4l0.1-0.4l0.1-0.8l0.1-0.4l0-0.4l0.1-0.4l0.1-0.4l-0.1-0.4l0.2-0.1
			l0-0.7l0-0.4l0.1-0.4v-0.9l0.2-0.7l0.1-0.9l0-0.4l0.1-0.4l0.2-0.4l0.1-0.4l0.3-0.2l0-0.3l0.1-0.1l0.1-0.2l0.1-0.1l0.1-0.3l0.1-0.3
			l0.1-0.3l0.2-0.2v-0.3V482l-0.1-0.6l-0.1-0.1l0.2-0.1l0-0.2l0.1-0.1l0.3-0.3l-0.1,0.1l0.2,0l0.4,0l0.3-0.2l0.1-0.2l0-0.2l0.4-0.5
			l-0.1-0.3l-0.2-0.3l0-0.3l-0.2-0.2l-0.2-0.2l-0.4-0.1l-0.3-0.7l0-0.4l0.1-0.3l-0.1-0.3l-0.1-0.4l0.1-0.4l-0.1-0.3l0.3-0.6l0.1-0.8
			l0-0.9l0.1-0.8l0.2-0.8l0.1-0.7l0.1-0.8l0.1-0.3l0-0.3l-0.1-0.6l0.1-0.1l0-0.1l0-0.1l0-0.1l0.2-0.3l0-0.4l0.4-0.6l0.1,0l0.1-0.2
			l0.2-0.2l0.1-0.5l0.2,0l0-0.1l0.2-0.2l0.5-0.3l0.1-0.7l0.3-0.5l-0.1-0.6l0-0.5l0-0.2l0.2,0l0-0.1l0.1,0l0.3-0.1l0.1-0.7l0-0.7
			l0.1-0.6l0.2-0.4l0-0.4l-0.1-0.3l-0.3-0.2l0.1-0.4l0-0.4l0.1-0.1l0-0.1l0-0.2l0.1-0.1l-0.1-0.1l-0.1-0.2l0-0.3l-0.4,0.2l-0.5-0.3
			l-0.1-0.6l0-0.3l-0.1-0.3l0-0.3l0.2,0l0-0.1l0.1-0.6l-0.1-0.3l0-0.4l0-0.4l0-0.3v-0.3l0.2-0.3l0-0.3l0.1-0.4l0-0.3l0.1-0.1l0-0.1
			l0.1-0.2l0.1-0.3l0.1-0.4l-0.1-0.3l0-0.4l0.1-0.3l0-0.6l0.1-0.6l0.3-0.1l0.1-0.3l0-0.7l0.1-0.8l0-0.3l0-0.2l0-0.1l0.1-0.4l0.1-0.3
			l0.2-0.2h0.3l-0.4-0.4l0-0.4l0.1-0.1l0-0.1l0.1-0.3l-0.1-0.3l-0.2-0.3l0.1-0.3l0.1-0.3l0.1-0.1v-0.2l0.4-0.4l0.2-0.3l0.2,0
			l0.1-0.1l0.2-1.4l0-0.7l-0.2-0.2l0.2-0.6l0.1-0.3l0.1-0.6l0.3-0.5l-0.3-0.4l0.1-0.6l-0.1-0.6l0.4-1.2l0.3-0.6l0.1-0.2l0.1-0.1
			l0.1-0.4l0.1-0.6l0.1-0.3l0.2-0.5l0.1-0.2l0.1-0.4l0.1-0.3l0-0.4l0-0.2l-0.1,0l-0.1-0.1l0-0.1l0-0.3l-0.1-0.3l0.1-0.3l0-0.3
			l0.1-0.3l0.1-0.1l0.1-0.1l0.2,0l-0.1-0.1l0.2-0.1l0.1-0.1l0-0.1l0.2-0.2"/>
	</g>
</g>
</svg>
