<svg width="200" height="200" viewBox="0 0 200 200" fill="none" xmlns="http://www.w3.org/2000/svg">
<rect width="200" height="200" fill="white"/>
<path d="M103.448 88.6897C103.336 97.6897 111.466 102.716 117.595 105.707C123.888 108.776 126.009 110.741 125.983 113.466C125.931 117.664 120.957 119.5 116.31 119.586C108.19 119.707 103.466 117.388 99.7155 115.638L96.7845 129.336C100.552 131.06 107.526 132.595 114.759 132.655C131.733 132.655 142.836 124.267 142.897 111.259C142.957 94.7586 120.086 93.8448 120.25 86.4655C120.302 84.2328 122.431 81.8448 127.103 81.2328C132.569 80.7089 138.075 81.6772 143.034 84.0345L145.879 70.7759C141.036 68.9559 135.907 68.0159 130.733 68C114.759 68 103.526 76.5 103.448 88.6897ZM173.172 69.1552C171.694 69.1379 170.245 69.5673 169.014 70.3871C167.784 71.2069 166.829 72.3789 166.276 73.75L142.026 131.698H158.983L162.371 122.31H183.06L185.017 131.647H200L186.957 69.1379L173.172 69.1552ZM175.543 86.0517L180.44 109.534H167.017L175.543 86.0517ZM82.8707 69.1379L69.5 131.681H85.6638L99.0259 69.1379H82.8707ZM58.9655 69.1379L42.1379 111.707L35.3448 75.5172C35.0672 73.7392 34.163 72.119 32.7956 70.9492C31.4281 69.7794 29.6875 69.1369 27.8879 69.1379H0.387931L0 70.9569C5.64655 72.1897 12.069 74.1638 15.9397 76.2759C18.319 77.5776 18.9655 78.7069 19.8276 81.7931L32.6724 131.681H49.75L75.931 69.1379H58.9655Z" fill="#1A1F71"/>
</svg>
