<?xml version="1.0" encoding="utf-8"?>
<!-- Generator: Adobe Illustrator 25.3.1, SVG Export Plug-In . SVG Version: 6.00 Build 0)  -->
<!DOCTYPE svg PUBLIC "-//W3C//DTD SVG 1.1//EN" "http://www.w3.org/Graphics/SVG/1.1/DTD/svg11.dtd" [
	<!ENTITY ns_extend "http://ns.adobe.com/Extensibility/1.0/">
	<!ENTITY ns_ai "http://ns.adobe.com/AdobeIllustrator/10.0/">
	<!ENTITY ns_graphs "http://ns.adobe.com/Graphs/1.0/">
	<!ENTITY ns_vars "http://ns.adobe.com/Variables/1.0/">
	<!ENTITY ns_imrep "http://ns.adobe.com/ImageReplacement/1.0/">
	<!ENTITY ns_sfw "http://ns.adobe.com/SaveForWeb/1.0/">
	<!ENTITY ns_custom "http://ns.adobe.com/GenericCustomNamespace/1.0/">
	<!ENTITY ns_adobe_xpath "http://ns.adobe.com/XPath/1.0/">
]>
<svg version="1.1" id="Layer_1" xmlns:x="&ns_extend;" xmlns:i="&ns_ai;" xmlns:graph="&ns_graphs;"
	 xmlns="http://www.w3.org/2000/svg" xmlns:xlink="http://www.w3.org/1999/xlink" x="0px" y="0px" viewBox="0 0 512 512"
	 style="enable-background:new 0 0 512 512;" xml:space="preserve">
<style type="text/css">
	.st0{fill:#662046;}
	.st1{fill:#FFFFFF;}
</style>
<metadata>
	<sfw  xmlns="&ns_sfw;">
		<slices></slices>
		<sliceSourceBounds  bottomLeftOrigin="true" height="511.3" width="512.4" x="0" y="0.7"></sliceSourceBounds>
	</sfw>
</metadata>
<rect class="st0" width="512.4" height="511.3"/>
<path id="path4553" class="st1" d="M180.6,425.5h-17.8c-2-4-2-7.9-2-9.9c-2-7.9-2-11.9-4-15.9l-4-17.8l-2-7.9l-65.4-228
	c-7.9-31.7-17.8-39.7-41.6-41.6V86.5c27.8,2,37.7,4,67.4,4c25.8,0,37.7-2,65.4-4v17.8c-25.8,4-31.7,5.9-31.7,17.8c0,4,2,9.9,4,21.8
	l41.6,148.7l73.4-206.2h19.8l73.4,214.2l43.6-154.7c4-11.9,5.9-19.8,5.9-23.8c0-13.9-5.9-17.8-29.7-17.8V86.5c19.8,0,27.8,2,43.6,2
	c15.9,0,27.8-2,47.6-2v17.8h-4c-21.8,4-25.8,9.9-33.7,37.7l-65.4,224.1c-5.9,15.9-5.9,17.8-7.9,29.7c-2,4-7.9,29.7-7.9,29.7h-19.8
	c-4-21.8-5.9-31.7-11.9-49.6L258,181.6l-61.5,184.4c-5.9,21.8-7.9,29.7-11.9,47.6L180.6,425.5"/>
</svg>
