<?xml version="1.0" encoding="utf-8"?>
<!-- Generator: Adobe Illustrator 25.3.1, SVG Export Plug-In . SVG Version: 6.00 Build 0)  -->
<!DOCTYPE svg PUBLIC "-//W3C//DTD SVG 1.1//EN" "http://www.w3.org/Graphics/SVG/1.1/DTD/svg11.dtd" [
	<!ENTITY ns_extend "http://ns.adobe.com/Extensibility/1.0/">
	<!ENTITY ns_ai "http://ns.adobe.com/AdobeIllustrator/10.0/">
	<!ENTITY ns_graphs "http://ns.adobe.com/Graphs/1.0/">
	<!ENTITY ns_vars "http://ns.adobe.com/Variables/1.0/">
	<!ENTITY ns_imrep "http://ns.adobe.com/ImageReplacement/1.0/">
	<!ENTITY ns_sfw "http://ns.adobe.com/SaveForWeb/1.0/">
	<!ENTITY ns_custom "http://ns.adobe.com/GenericCustomNamespace/1.0/">
	<!ENTITY ns_adobe_xpath "http://ns.adobe.com/XPath/1.0/">
]>
<svg version="1.1" id="Слой_1" xmlns:x="&ns_extend;" xmlns:i="&ns_ai;" xmlns:graph="&ns_graphs;"
	 xmlns="http://www.w3.org/2000/svg" xmlns:xlink="http://www.w3.org/1999/xlink" x="0px" y="0px" viewBox="0 0 256 256"
	 style="enable-background:new 0 0 256 256;" xml:space="preserve">
<style type="text/css">
	.st0{clip-path:url(#SVGID_2_);fill:#3AAA35;}
</style>
<metadata>
	<sfw  xmlns="&ns_sfw;">
		<slices></slices>
		<sliceSourceBounds  bottomLeftOrigin="true" height="217.9" width="247" x="5" y="18.6"></sliceSourceBounds>
	</sfw>
</metadata>
<g>
	<defs>
		<rect id="SVGID_1_" x="5" y="19.4" width="247" height="217.9"/>
	</defs>
	<clipPath id="SVGID_2_">
		<use xlink:href="#SVGID_1_"  style="overflow:visible;"/>
	</clipPath>
	<path class="st0" d="M94.8,157.3c-1.1,0.6-2.4,0.9-3.7,0.9c-3.1,0-5.8-1.7-7.2-4.2l-0.5-1.2l-22.5-49.3c-0.2-0.5-0.4-1.1-0.4-1.7
		c0-2.3,1.9-4.1,4.1-4.1c0.9,0,1.8,0.3,2.5,0.8l26.5,18.9c1.9,1.3,4.3,2,6.8,2c1.5,0,2.9-0.3,4.2-0.8L229.4,63
		C207,36.7,170.2,19.4,128.5,19.4C60.3,19.4,5,65.5,5,122.3c0,31,16.6,58.9,42.7,77.8c2.1,1.5,3.5,3.9,3.5,6.7
		c0,0.9-0.2,1.8-0.4,2.6c-2.1,7.8-5.4,20.2-5.6,20.8c-0.2,1-0.7,2-0.7,3c0,2.3,1.9,4.1,4.1,4.1c0.9,0,1.6-0.3,2.4-0.8L78,221
		c2-1.2,4.2-1.9,6.6-1.9c1.3,0,2.5,0.2,3.6,0.5c12.6,3.6,26.2,5.6,40.3,5.6c68.2,0,123.5-46.1,123.5-102.9
		c0-17.2-5.1-33.4-14.1-47.7L95.7,156.8L94.8,157.3z"/>
</g>
</svg>
