<?xml version="1.0" encoding="utf-8"?>
<!-- Generator: Adobe Illustrator 25.3.1, SVG Export Plug-In . SVG Version: 6.00 Build 0)  -->
<!DOCTYPE svg PUBLIC "-//W3C//DTD SVG 1.1//EN" "http://www.w3.org/Graphics/SVG/1.1/DTD/svg11.dtd" [
	<!ENTITY ns_extend "http://ns.adobe.com/Extensibility/1.0/">
	<!ENTITY ns_ai "http://ns.adobe.com/AdobeIllustrator/10.0/">
	<!ENTITY ns_graphs "http://ns.adobe.com/Graphs/1.0/">
	<!ENTITY ns_vars "http://ns.adobe.com/Variables/1.0/">
	<!ENTITY ns_imrep "http://ns.adobe.com/ImageReplacement/1.0/">
	<!ENTITY ns_sfw "http://ns.adobe.com/SaveForWeb/1.0/">
	<!ENTITY ns_custom "http://ns.adobe.com/GenericCustomNamespace/1.0/">
	<!ENTITY ns_adobe_xpath "http://ns.adobe.com/XPath/1.0/">
]>
<svg version="1.1" id="Layer_1" xmlns:x="&ns_extend;" xmlns:i="&ns_ai;" xmlns:graph="&ns_graphs;"
	 xmlns="http://www.w3.org/2000/svg" xmlns:xlink="http://www.w3.org/1999/xlink" x="0px" y="0px" viewBox="0 0 512 512"
	 style="enable-background:new 0 0 512 512;" xml:space="preserve">
<style type="text/css">
	.st0{fill:#D13E66;}
	.st1{fill:#FFFFFF;}
</style>
<metadata>
	<sfw  xmlns="&ns_sfw;">
		<slices></slices>
		<sliceSourceBounds  bottomLeftOrigin="true" height="510.7" width="512.4" x="0.7" y="0.5"></sliceSourceBounds>
	</sfw>
</metadata>
<rect x="0.7" y="0.8" class="st0" width="512.4" height="510.7"/>
<g>
	<path class="st1" d="M277,350.9c-13.8,0-26.4-7.7-33.5-20.1c-17-29.9,9.4-74.5,62.4-105.7c6.1-3.6,12.3-6.9,18.6-9.8
		c-2.5-10.1-6.3-19-11.5-26.8c-8.8-13-22.6-14.9-29.9-14.9c-24.1,0-54.2,15.1-82,40.2c8.8,16.1,13.4,32.9,14.4,51.7
		c1.3,29.9-6.7,57.8-21.1,72.8c-7.3,7.5-15.7,11.5-24.7,11.5c-20.3,0-35.6-18-35.6-41.9c0-27.8,18.6-63.8,48.3-93.8
		c0.8-0.8,1.5-1.5,2.5-2.5c-7.7-9.8-18.2-13.6-25.5-13.6c-27.4,0-60.1,33.9-79.7,82c-1.3,3.3-5,4.8-8.2,3.4c-3.3-1.3-4.8-5-3.4-8.2
		c21.6-53.6,58.4-89.4,91.3-89.4c10,0,24.3,4.6,34.7,17.2c29.7-26.2,62.2-41.7,89-41.7c16.9,0,31.6,7.5,40.4,20.3
		c5.7,8.4,10,17.8,12.8,28.7c33.9-13,67-14.7,86.9-3.3c7.5,4,13.2,11.7,14.9,15.1c7.1,13.4,8.2,32.9,3.1,54
		c-9.2,37-31.4,61.9-55.3,61.9c-10.3,0-21.1-7.1-26-17.2c-3.3-6.5-6.7-19.9,5.7-35.8c10.9-14,32-24.1,57.6-28.1c0,0,8.2-1.1,8.4-1.1
		c0.4-6.1,0-12.1-1-17.2c-0.8-4-2.1-7.7-3.6-10.7l-0.4-0.6c-0.6-1.3-4.8-6.9-9.6-9.6c-17-10-47.3-7.1-78.1,5.2
		c1.5,9.8,1.9,20.3,1.3,32c-2.3,51.9-30.3,95-62,95.9C277.7,350.9,277.3,350.9,277,350.9z M326.7,228.3c-4.8,2.3-9.8,5-14.4,7.7
		c-45.6,26.8-70.9,65.9-58,89c5.9,10.5,15.9,14,23.4,13.6c24.9-0.8,47.9-39.6,49.8-84.3C327.9,245,327.7,236.2,326.7,228.3z
		 M191.5,223C191.4,223,191.4,223,191.5,223c-27.8,28-44.8,60.5-44.8,85.4c0,14.6,7.9,29.5,23,29.5c5.6,0,10.7-2.5,15.5-7.7
		c11.9-12.4,18.8-37.5,17.4-64C202.1,250.4,198.4,236.4,191.5,223z M429.8,268.7l-4.8,0.8c-22.2,3.4-41,12.3-49.8,23.6
		c-6.1,7.9-7.7,15.7-4.4,22.6c3.3,6.7,10,10.1,14.7,10.1c17.8,0,35.6-21.6,43.3-52.5C429.2,271.8,429.6,270.3,429.8,268.7z"/>
</g>
</svg>
