<?xml version="1.0" encoding="utf-8"?>
<!-- Generator: Adobe Illustrator 25.3.1, SVG Export Plug-In . SVG Version: 6.00 Build 0)  -->
<!DOCTYPE svg PUBLIC "-//W3C//DTD SVG 1.1//EN" "http://www.w3.org/Graphics/SVG/1.1/DTD/svg11.dtd" [
	<!ENTITY ns_extend "http://ns.adobe.com/Extensibility/1.0/">
	<!ENTITY ns_ai "http://ns.adobe.com/AdobeIllustrator/10.0/">
	<!ENTITY ns_graphs "http://ns.adobe.com/Graphs/1.0/">
	<!ENTITY ns_vars "http://ns.adobe.com/Variables/1.0/">
	<!ENTITY ns_imrep "http://ns.adobe.com/ImageReplacement/1.0/">
	<!ENTITY ns_sfw "http://ns.adobe.com/SaveForWeb/1.0/">
	<!ENTITY ns_custom "http://ns.adobe.com/GenericCustomNamespace/1.0/">
	<!ENTITY ns_adobe_xpath "http://ns.adobe.com/XPath/1.0/">
]>
<svg version="1.1" id="Layer_1" xmlns:x="&ns_extend;" xmlns:i="&ns_ai;" xmlns:graph="&ns_graphs;"
	 xmlns="http://www.w3.org/2000/svg" xmlns:xlink="http://www.w3.org/1999/xlink" x="0px" y="0px" viewBox="0 0 512 512"
	 style="enable-background:new 0 0 512 512;" xml:space="preserve">
<style type="text/css">
	.st0{fill:#089C49;}
	.st1{fill:url(#SVGID_1_);}
	.st2{fill:#68BD45;}
	.st3{fill:url(#SVGID_2_);}
	.st4{fill:#969696;}
	.st5{fill:url(#SVGID_3_);}
	.st6{fill:url(#SVGID_4_);}
</style>
<metadata>
	<sfw  xmlns="&ns_sfw;">
		<slices></slices>
		<sliceSourceBounds  bottomLeftOrigin="true" height="398.6" width="400.3" x="55.8" y="56.7"></sliceSourceBounds>
	</sfw>
</metadata>
<g>
	<path class="st0" d="M320.4,63.5c20.8-4.7,42.4-6.8,64-6.8c21.6-0.4,42.8,2.1,64,6.8c4.7,20.8,6.8,42.4,6.8,64s-2.1,42.8-6.8,64
		l0,0c-20.8,4.7-42.4,6.8-64,6.4c-21.6,0-42.8-2.1-64-6.4c-4.7-21.2-6.8-42.4-6.4-64C313.7,105.9,315.8,84.3,320.4,63.5"/>
	
		<linearGradient id="SVGID_1_" gradientUnits="userSpaceOnUse" x1="388.945" y1="1922.3766" x2="388.945" y2="1787.1227" gradientTransform="matrix(1 0 0 1 0 -1723.8898)">
		<stop  offset="0" style="stop-color:#075F31"/>
		<stop  offset="0.85" style="stop-color:#089C49"/>
	</linearGradient>
	<path class="st1" d="M449.3,63.5c4.7,20.8,6.8,42.4,6.8,64c0.4,21.6-2.1,42.8-6.8,64l0,0c-20.8,4.2-42.4,6.8-63.6,6.4
		c-21.6,0-42.8-2.1-64-6.4L449.3,63.5z"/>
	<path class="st2" d="M191.6,191.2c21.2-4.2,42.4-6.8,64-6.4c21.2-0.4,42.8,1.7,63.6,6.4c4.7,20.8,6.8,42.4,6.8,63.6
		c0.4,21.6-2.1,42.8-6.8,64l0,0c-20.8,4.2-42.4,6.8-63.6,6.4c-21.2,0-42.8-2.1-63.6-6.8C183.1,276.8,183.1,233.1,191.6,191.2"/>
	
		<linearGradient id="SVGID_2_" gradientUnits="userSpaceOnUse" x1="260.0508" y1="2051.0588" x2="260.0508" y2="1915.7623" gradientTransform="matrix(1 0 0 1 0 -1723.8898)">
		<stop  offset="0" style="stop-color:#4A863E"/>
		<stop  offset="0.85" style="stop-color:#68BD45"/>
	</linearGradient>
	<path class="st3" d="M320.4,191.2c4.7,20.8,6.8,42.4,6.8,63.6c0.4,21.6-2.1,42.8-6.8,64l0,0c-20.8,4.2-42.4,6.8-63.6,6.8
		c-21.6,0-42.8-2.1-64-6.8L320.4,191.2z"/>
	<path class="st4" d="M63.1,320.9c20.8-4.7,42.4-6.8,64-6.8s42.8,2.1,64,6.8c4.7,21.2,6.8,42.4,6.4,64c0,21.2-2.1,42.8-6.4,63.6l0,0
		c-20.8,4.7-41.6,6.8-62.8,6.8s-42.8-2.1-63.6-6.8c-5.5-20.8-8.1-42-7.6-63.6C56.3,363.3,58.4,342.1,63.1,320.9"/>
	
		<linearGradient id="SVGID_3_" gradientUnits="userSpaceOnUse" x1="130.9483" y1="2179.656" x2="130.9483" y2="2044.4022" gradientTransform="matrix(1 0 0 1 0 -1723.8898)">
		<stop  offset="0" style="stop-color:#4E4E4E"/>
		<stop  offset="0.85" style="stop-color:#969696"/>
	</linearGradient>
	<path class="st5" d="M191.6,320.9c4.7,21.2,6.8,42.4,6.4,64c0,21.2-2.1,42.8-6.4,63.6l0,0c-20.8,4.7-42.4,6.8-64,6.8
		c-21.2,0-42.8-2.1-63.6-6.8L191.6,320.9z"/>
	<path class="st0" d="M191.6,63.5c4.7,20.8,6.8,42.4,6.4,64c0,21.6-2.1,42.8-6.4,64c-21.2,4.7-42.4,6.8-64,6.4
		c-21.2,0-42.8-2.1-63.6-6.4l0,0c-5.5-20.8-8.5-42.4-8.1-64c-0.4-21.6,2.1-42.8,6.8-64c21.2-4.7,43.2-6.8,64.9-6.8
		S170.8,58.9,191.6,63.5"/>
	
		<linearGradient id="SVGID_4_" gradientUnits="userSpaceOnUse" x1="123.691" y1="1922.3766" x2="123.691" y2="1787.1227" gradientTransform="matrix(1 0 0 1 0 -1723.8898)">
		<stop  offset="0" style="stop-color:#075F31"/>
		<stop  offset="0.85" style="stop-color:#089C49"/>
	</linearGradient>
	<path class="st6" d="M191.6,191.2c-21.2,4.7-42.4,6.8-64,6.4c-21.2,0-42.8-2.1-63.6-6.4l0,0c-5.5-20.8-8.5-42.4-8.1-64
		c-0.4-21.6,2.1-42.8,6.8-64L191.6,191.2z"/>
</g>
</svg>
