<?xml version="1.0" encoding="utf-8"?>
<!-- Generator: Adobe Illustrator 25.3.1, SVG Export Plug-In . SVG Version: 6.00 Build 0)  -->
<!DOCTYPE svg PUBLIC "-//W3C//DTD SVG 1.1//EN" "http://www.w3.org/Graphics/SVG/1.1/DTD/svg11.dtd" [
	<!ENTITY ns_extend "http://ns.adobe.com/Extensibility/1.0/">
	<!ENTITY ns_ai "http://ns.adobe.com/AdobeIllustrator/10.0/">
	<!ENTITY ns_graphs "http://ns.adobe.com/Graphs/1.0/">
	<!ENTITY ns_vars "http://ns.adobe.com/Variables/1.0/">
	<!ENTITY ns_imrep "http://ns.adobe.com/ImageReplacement/1.0/">
	<!ENTITY ns_sfw "http://ns.adobe.com/SaveForWeb/1.0/">
	<!ENTITY ns_custom "http://ns.adobe.com/GenericCustomNamespace/1.0/">
	<!ENTITY ns_adobe_xpath "http://ns.adobe.com/XPath/1.0/">
]>
<svg version="1.1" id="Layer_1" xmlns:x="&ns_extend;" xmlns:i="&ns_ai;" xmlns:graph="&ns_graphs;"
	 xmlns="http://www.w3.org/2000/svg" xmlns:xlink="http://www.w3.org/1999/xlink" x="0px" y="0px" viewBox="0 0 512 512"
	 style="enable-background:new 0 0 512 512;" xml:space="preserve">
<style type="text/css">
	.st0{fill:url(#SVGID_1_);}
	.st1{fill:#FFFFFF;}
</style>
<metadata>
	<sfw  xmlns="&ns_sfw;">
		<slices></slices>
		<sliceSourceBounds  bottomLeftOrigin="true" height="511.8" width="511.9" x="0" y="0.2"></sliceSourceBounds>
	</sfw>
</metadata>
<linearGradient id="SVGID_1_" gradientUnits="userSpaceOnUse" x1="255.9333" y1="511.7565" x2="255.9333" y2="-9.094947e-13">
	<stop  offset="0" style="stop-color:#2B56A8"/>
	<stop  offset="0.45" style="stop-color:#0DB1E7"/>
	<stop  offset="1" style="stop-color:#0DB1E7"/>
</linearGradient>
<rect class="st0" width="511.9" height="511.8"/>
<g>
	<path class="st1" d="M322.8,228.9c-4.2,7.6-12.8,16.5-17.6,16.5c-0.4,0-0.8,0-0.9-0.1c-1.7-1-2.5-2.5-4.2-5.5
		c-1.5-2.8-3.7-6.6-7.6-11c-4.8-7.3-9.8-11.1-13.5-13.8c-0.9-0.7-1.8-1.3-2.5-1.9l0.6-2c3.2-4.3,5.1-9.7,5.1-15.6v-0.3l0.7-2
		c8.4-0.7,17.2-2.6,23.8-5.3c3.6-1.4,4.4-2.1,5.7-3.1c0.8-0.8,2.3-2,8.1-5c1.4-0.6,2.5-0.9,3.4-0.9c3.1,0,4.1,4.9,4.9,10.9
		c0.2,1.2,0.4,2.3,0.6,3.3C329.4,199.3,328.2,217.3,322.8,228.9 M275,265.1c-2,0.5-4.1,1.1-6.3,1.8c-5.1,0.5-9,0.8-12.8,0.8
		c-5.7,0-11.5-0.7-21.7-2.7c-5.3-1-13.8-4.3-12.8-9.9c0.5-3.5,3.9-6.8,7.5-10.2c2.1-2,4.3-4,5.9-6.2c4.2-5,8.2-10.2,10.8-18.3h2.7
		c2.3,0.8,4.8,1.3,7.4,1.3c2.8,0,5.4-0.5,8-1.3h1.7c1.5,6.2,6,14.6,10.4,20.9c1.8,2.6,3.8,4.8,5.5,6.7c3.5,4,5.2,6,4.8,8.9
		C285.3,262.2,281.9,263.3,275,265.1 M212.4,234.6c-3.6,4.8-5.6,7.3-7.9,7.4c-6-0.9-12.3-5.9-16.2-12.9c-5.5-12-6.7-30.3-6.8-36.2
		c0.6-9.4,2.3-12.9,6.3-12.9h0.3c4.3,0.6,6.8,2,9.7,3.7c2.2,1.3,4.6,2.7,8.2,3.8l0.6,0.2c6.7,2.2,15.7,4.9,23.6,5.8
		c-0.1,0.7-0.2,1.3-0.2,2c0,6.1,2,11.5,5.1,15.8l0.4,1.6c-1,0.7-2.1,1.4-3.4,2.2c-3.8,2.3-9.1,5.6-13.9,12
		C216,229.8,214,232.4,212.4,234.6 M200.5,147l1.6-2.2c8.6-10,14-13.2,30-17.9c2.4-0.6,5.1-1,7.5-1c3.3,0,5.8,0.7,6.9,1.9
		c0.2,0.3,1,1.1,0.7,3.2c-0.2,4.3-0.6,6.6-0.8,8.8c-0.3,2.5-0.6,4.6-0.6,8.6c-0.4,6.8,0.9,12.9,2.6,19.9l0.4,1.6l-1.7,1.3
		c-5.1,1.8-9.5,5.1-12.6,9.5l-0.2,0.2c-1.2-0.6-2.4-1.6-3.7-2.7c-3.2-2.5-7.3-5.8-14.2-7.9c-4.5-1.8-8.2-2.8-11.2-3.6
		c-4.2-1.1-7-1.8-9.1-3.9C192.2,159.4,194.6,155.2,200.5,147 M271.8,195.8c0,9-7.4,16.3-16.4,16.3c-8.7,0-15.9-7.3-15.9-16.3
		c0-8.9,7-15.9,15.9-15.9C264.6,179.9,271.8,186.9,271.8,195.8 M264.8,149.4c0-4.2-0.2-6.3-0.6-8.8c-0.3-2.1-0.6-4.5-0.9-8.9
		c-0.2-1.7,0.3-2.5,0.8-3c1.1-1.3,3.8-2,7.4-2c2.4,0,5.4,0.4,7.8,1c16.2,4.7,21.4,7.9,30,17.7c1,1.4,2.1,2.8,3.2,4.2
		c6.2,7.8,7.1,10.4,3,13.9c-1.5,1.2-3,1.5-5.9,1.9c-3.4,0.5-8.1,1.2-14.6,4.3c-7,2.9-11.3,6.8-14.7,10c-0.8,0.7-1.4,1.3-2.1,1.9
		c-3.6-5.7-9.5-9.8-16.3-11.4l0.3-1.2C263.9,162.1,265.2,156.1,264.8,149.4 M332.1,171.3l5.1-8l-9.3-1.7c0.8-6-1.3-12.6-6.1-19.3
		c-11.2-15.6-34.9-28.6-51.8-28.6c-3.8,0-7.2,0.7-10.1,2l-3.6-7.6l-6.2,8.1c-3.6-1.3-7.6-2.1-11.7-2.1c-19.5,0-41.4,15.6-51.2,30.7
		c-4.4,6.8-6,12.8-4.8,17.7c-1.1,0.4-2.8,0.8-3.4,1h-5.5l5.5,8c-8.2,6-9.8,23.1-7.4,38.8c3.3,21.3,13.9,42.6,30.4,42.2v9.4l8-2.2
		c0.2,2.1,1,4.2,2.4,6c7.2,9.7,27.8,13.3,43.2,13.3c17.2,0,30.8-3.9,36.4-10.4c1.5-1.7,2.5-3.7,2.9-5.6l10.9,3.4l-1-10.4
		c16.8-0.5,27.9-18.8,32.7-36C342.7,202.6,342.8,180.6,332.1,171.3 M222,403.8c58.3,1.9,125.5-16.4,174.3-45.6
		c61.1-37.2,87-96.4,87-162.7v-81.8H360.1v79.4c0,32-13.6,57.8-48,78.5c-17.4,9.9-38,17.9-59.2,17.9c-24,0-45.7-6.6-63.5-19.7
		c-25.4-17.8-40-50.3-40-78.5v-77.6H28.7v79.4c0,69.1,46.3,101.4,164.5,114.7c36.8,4.1,74.8,3.9,112.8-8.7
		c22.6-7.5,25.1-11.9,32-15.3c0,0,2.8,1.9,2.8,2.8l-1.9,5.1c-13.7,36.3-43.8,64-76.2,80.4c-41.8,21.2-92.1,19.3-138.2,12.7h-0.9
		C142.2,397.4,202.7,403.3,222,403.8"/>
</g>
</svg>
