<svg width="200" height="200" viewBox="0 0 200 200" fill="none" xmlns="http://www.w3.org/2000/svg">
<g clip-path="url(#clip0_1900_115788)">
<rect width="200" height="200" fill="white"/>
<path fill-rule="evenodd" clip-rule="evenodd" d="M93.7451 97.3622L87.5 100.77L93.7451 103.602L100 100.77L93.7451 97.3622Z" fill="#020203"/>
<path fill-rule="evenodd" clip-rule="evenodd" d="M112.499 103.602H124.999V97.3622H112.499V103.602Z" fill="#020203"/>
<path fill-rule="evenodd" clip-rule="evenodd" d="M87.5 16.2402V28.7205L93.7499 22.4823L87.5 16.2402Z" fill="#020203"/>
<path fill-rule="evenodd" clip-rule="evenodd" d="M62.498 109.843H137.498V103.602H62.498V109.843Z" fill="#020203"/>
<path fill-rule="evenodd" clip-rule="evenodd" d="M68.7471 103.602H81.247V97.3622H68.7471V103.602Z" fill="#020203"/>
<path fill-rule="evenodd" clip-rule="evenodd" d="M59.9236 52.459C61.4776 50.3049 63.6158 48.8717 66.1732 48.1424C68.176 47.5691 70.8351 47.5269 70.8351 47.5269C74.2055 47.5269 78.8674 48.6693 83.3683 50.149C85.7861 50.9457 90.7951 52.3452 96.8627 52.3452H96.9051C102.96 52.3452 107.977 51.0173 110.387 50.149C114.913 48.5176 119.55 47.5269 122.903 47.5269C122.903 47.5269 125.38 47.4848 127.586 48.1045C130.135 48.8127 132.261 50.3049 133.836 52.459C135.39 54.6173 136.41 57.7157 136.423 61.4085C136.44 65.6787 135.301 68.7729 135.301 68.7813L134.932 69.7635C126.688 63.4698 116.666 60.5949 105.246 59.3977C98.874 58.7822 92.8995 58.9593 88.4959 59.3977C77.0932 60.5949 67.0709 63.4698 58.8058 69.7635L58.4416 68.7813C58.4416 68.7729 57.3195 65.6787 57.328 61.4085C57.328 57.7157 58.3654 54.6173 59.9236 52.459ZM108.685 92.683L100.043 84.075L108.685 75.4628V92.683ZM96.8839 80.9261L88.2461 72.3307H105.539L96.8839 80.9261ZM85.0663 92.6788V75.4671L93.7083 84.075L85.0663 92.6788ZM52.6323 75.5429L59.1488 97.3622C65.9362 95.9584 67.6595 91.6966 68.2692 89.4961C65.5551 85.4366 60.1353 85.5504 60.1353 85.5504C60.6392 83.7378 62.5107 81.8155 64.9073 81.609C66.7322 81.4404 67.4224 82.0052 67.4224 82.0052C67.4224 82.0052 67.0116 80.1715 67.0116 77.7518C67.0116 75.3406 68.5148 72.4994 70.5006 71.0408C72.6812 72.9293 74.2521 75.3406 74.2521 77.7518C74.2521 80.1715 73.5958 82.0052 73.5958 82.0052C73.5958 82.0052 74.4215 81.4066 76.2803 81.609C78.1984 81.8113 80.0445 83.1265 80.8702 85.5504C80.8702 85.5504 75.3996 85.3355 72.732 89.5003C74.3961 93.5135 79.041 95.6802 83.4445 95.6802C92.0315 95.6802 96.8796 87.224 96.8796 87.224C96.8796 87.224 101.647 95.6802 110.37 95.6802C114.854 95.6802 119.317 93.5135 120.993 89.5003C118.008 85.3355 112.855 85.5504 112.855 85.5504C113.677 83.1265 115.51 81.8113 117.428 81.609C119.291 81.4066 120.125 82.0052 120.125 82.0052C120.125 82.0052 119.715 80.1715 119.715 77.7518C119.715 75.3406 121.163 72.7439 123.216 71.0408C125.202 72.6891 126.697 75.3406 126.697 77.7518C126.697 80.1715 126.303 82.0052 126.303 82.0052C126.303 82.0052 126.574 81.5415 128.454 81.609C130.66 81.6764 132.993 83.4806 133.577 85.5504C133.577 85.5504 128.039 85.3439 125.46 89.4961C126.21 91.8146 127.76 95.9584 134.556 97.3622L141.305 75.5429C141.898 73.7977 142.507 71.5467 142.905 69.6455C143.511 66.741 143.845 63.6047 143.727 61.6614C143.727 56.7588 141.961 51.9152 139.505 48.5386C137.05 45.1368 133.544 42.7466 129.546 41.6421C127.442 41.0478 125.253 40.778 123.055 40.778C118.178 40.778 114.045 41.5958 107.914 43.9438C106.97 44.3738 105.217 44.8965 103.083 45.2969C103.616 44.3021 103.908 43.1892 103.908 41.9878C103.908 38.1011 100.767 34.9606 96.8796 34.9606C92.963 34.9606 89.7747 38.1011 89.7747 41.9878C89.7747 43.1724 90.0838 44.2768 90.6046 45.2632C88.5806 44.8585 86.9505 44.3653 86.0359 43.9438C79.926 41.5958 75.7595 40.778 70.9156 40.778C68.7138 40.778 66.5205 41.0478 64.4034 41.6421C60.4275 42.7466 56.9004 45.1368 54.4488 48.5386C51.993 51.9152 50.024 56.7588 50.024 61.6614C49.9055 63.6047 50.2527 66.741 50.8624 69.6455C51.2435 71.5467 52.0691 73.7977 52.6323 75.5429Z" fill="#020203"/>
<path fill-rule="evenodd" clip-rule="evenodd" d="M100 10H87.5L93.76 16.2402L100 10Z" fill="#020203"/>
<path fill-rule="evenodd" clip-rule="evenodd" d="M87.5 28.7205H100L93.7559 22.4803L87.5 28.7205Z" fill="#020203"/>
<path fill-rule="evenodd" clip-rule="evenodd" d="M106.252 16.2402L100.002 22.4823L106.252 28.7205V16.2402Z" fill="#020203"/>
<path fill-rule="evenodd" clip-rule="evenodd" d="M149.998 109.843H162.498L156.252 103.602L149.998 109.843Z" fill="#020203"/>
<path fill-rule="evenodd" clip-rule="evenodd" d="M191.549 149.903L191.181 150.886C182.937 144.588 172.919 141.721 161.495 140.516C155.122 139.908 149.147 140.081 144.744 140.516C133.341 141.721 123.323 144.588 115.057 150.886L114.693 149.903C114.693 149.895 113.567 146.801 113.58 142.531C113.58 138.838 114.613 135.744 116.171 133.581C117.729 131.427 119.863 129.994 122.425 129.264C124.428 128.691 127.087 128.645 127.087 128.645C130.457 128.645 135.119 129.791 139.62 131.271C142.038 132.068 147.043 133.467 153.111 133.471H153.157C159.208 133.467 164.226 132.139 166.635 131.271C171.166 129.635 175.798 128.645 179.151 128.645C179.151 128.645 181.629 128.607 183.839 129.226C186.384 129.939 188.509 131.427 190.084 133.581C191.638 135.744 192.663 138.838 192.676 142.531C192.693 146.801 191.549 149.895 191.549 149.903ZM164.933 173.805L156.295 165.197L164.933 156.585V173.805ZM153.132 162.048L144.503 153.457H161.791L153.132 162.048ZM141.318 173.801V156.589L149.96 165.197L141.318 173.801ZM199.976 142.788C199.976 137.881 198.21 133.037 195.754 129.661C193.298 126.259 189.792 123.864 185.799 122.768C183.695 122.174 181.501 121.896 179.304 121.896C174.426 121.896 170.293 122.718 164.162 125.066C163.222 125.496 161.469 126.019 159.335 126.419C159.869 125.424 160.157 124.315 160.157 123.11C160.157 119.223 157.015 116.083 153.128 116.083C149.211 116.083 146.023 119.223 146.023 123.11C146.023 124.294 146.336 125.403 146.852 126.385C144.828 125.981 143.198 125.487 142.288 125.066C136.174 122.718 132.007 121.896 127.163 121.896C124.966 121.896 122.768 122.174 120.651 122.768C116.675 123.864 113.148 126.259 110.696 129.661C108.24 133.037 106.276 137.881 106.276 142.788C106.153 144.727 106.5 147.863 107.114 150.768C107.491 152.669 108.321 154.92 108.884 156.665L115.4 178.484C122.184 177.08 123.907 172.819 124.517 170.618C121.807 166.559 116.383 166.672 116.383 166.672C116.887 164.86 118.762 162.938 121.155 162.727C122.988 162.562 123.674 163.132 123.674 163.132C123.674 163.132 123.259 161.294 123.259 158.878C123.259 156.463 124.771 153.621 126.748 152.163C128.929 154.051 130.5 156.463 130.5 158.878C130.5 161.294 129.848 163.132 129.848 163.132C129.848 163.132 130.669 162.529 132.532 162.727C134.45 162.933 136.292 164.249 137.122 166.672C137.122 166.672 131.651 166.462 128.988 170.618C130.644 174.636 135.289 176.802 139.692 176.802C148.279 176.802 153.128 168.346 153.128 168.346C153.128 168.346 157.9 176.802 166.618 176.802C171.102 176.802 175.569 174.636 177.246 170.618C174.257 166.462 169.104 166.672 169.104 166.672C169.929 164.249 171.758 162.933 173.677 162.727C175.54 162.529 176.378 163.132 176.378 163.132C176.378 163.132 175.963 161.294 175.963 158.878C175.963 156.463 177.411 153.862 179.469 152.163C181.451 153.811 182.95 156.463 182.95 158.878C182.95 161.294 182.552 163.132 182.552 163.132C182.552 163.132 182.823 162.664 184.703 162.727C186.909 162.798 189.242 164.603 189.826 166.672C189.826 166.672 184.288 166.47 181.713 170.618C182.463 172.937 184.008 177.08 190.804 178.484L197.554 156.665C198.151 154.92 198.756 152.669 199.154 150.768C199.76 147.863 200.098 144.727 199.976 142.788Z" fill="#020203"/>
<path fill-rule="evenodd" clip-rule="evenodd" d="M162.498 91.122H149.998L156.256 97.3622L162.498 91.122Z" fill="#020203"/>
<path fill-rule="evenodd" clip-rule="evenodd" d="M162.502 97.3622L156.252 103.604L162.502 109.843V97.3622Z" fill="#020203"/>
<path fill-rule="evenodd" clip-rule="evenodd" d="M143.749 97.3622V109.843L149.999 103.604L143.749 97.3622Z" fill="#020203"/>
<path fill-rule="evenodd" clip-rule="evenodd" d="M118.748 190.965H193.748V184.724H118.748V190.965Z" fill="#020203"/>
<path fill-rule="evenodd" clip-rule="evenodd" d="M156.242 178.484L149.998 181.891L156.242 184.724L162.498 181.891L156.242 178.484Z" fill="#020203"/>
<path fill-rule="evenodd" clip-rule="evenodd" d="M124.996 184.724H137.496V178.484H124.996V184.724Z" fill="#020203"/>
<path fill-rule="evenodd" clip-rule="evenodd" d="M168.749 184.724H181.249V178.484H168.749V184.724Z" fill="#020203"/>
<path fill-rule="evenodd" clip-rule="evenodd" d="M62.498 184.724H74.998V178.484H62.498V184.724Z" fill="#020203"/>
<path fill-rule="evenodd" clip-rule="evenodd" d="M6.24902 190.965H81.2487V184.724H6.24902V190.965Z" fill="#020203"/>
<path fill-rule="evenodd" clip-rule="evenodd" d="M43.7409 178.484L37.499 181.891L43.7409 184.724L49.999 181.891L43.7409 178.484Z" fill="#020203"/>
<path fill-rule="evenodd" clip-rule="evenodd" d="M12.4971 184.724H24.997V178.484H12.4971V184.724Z" fill="#020203"/>
<path fill-rule="evenodd" clip-rule="evenodd" d="M37.499 109.843H49.999L43.757 103.602L37.499 109.843Z" fill="#020203"/>
<path fill-rule="evenodd" clip-rule="evenodd" d="M85.2969 149.903L84.9327 150.886C76.6845 144.588 66.6664 141.721 55.2425 140.516C48.8701 139.908 42.8956 140.081 38.492 140.516C27.0893 141.721 17.0712 144.588 8.81028 150.886L8.44193 149.903C8.44193 149.895 7.31563 146.801 7.32833 142.531C7.32833 138.838 8.36569 135.744 9.91964 133.581C11.4778 131.427 13.6119 129.994 16.1736 129.264C18.1763 128.691 20.8354 128.645 20.8354 128.645C24.2058 128.645 28.8677 129.791 33.3687 131.271C35.7906 132.068 40.7912 133.467 46.8588 133.471H46.9096C52.9603 133.467 57.9736 132.139 60.3829 131.271C64.9135 129.635 69.5457 128.645 72.8991 128.645C72.8991 128.645 75.3804 128.607 77.5864 129.226C80.1354 129.939 82.2567 131.427 83.8319 133.581C85.3858 135.744 86.4105 138.838 86.4232 142.531C86.4401 146.801 85.2969 149.895 85.2969 149.903ZM58.685 173.805L50.043 165.197L58.685 156.585V173.805ZM46.88 162.048L38.2507 153.457H55.5389L46.88 162.048ZM35.0666 173.801V156.589L43.7086 165.197L35.0666 173.801ZM89.5015 129.661C87.0499 126.259 83.5397 123.864 79.5468 122.768C77.4467 122.174 75.2491 121.896 73.0516 121.896C68.1738 121.896 64.0412 122.718 57.9101 125.066C56.9701 125.496 55.2171 126.019 53.0831 126.419C53.6166 125.424 53.9045 124.315 53.9045 123.11C53.9045 119.223 50.7628 116.083 46.8758 116.083C42.9591 116.083 39.7708 119.223 39.7708 123.11C39.7708 124.294 40.0841 125.403 40.6007 126.385C38.5767 125.981 36.9465 125.487 36.0362 125.066C29.922 122.718 25.7555 121.896 20.9116 121.896C18.7141 121.896 16.5208 122.174 14.3994 122.768C10.4235 123.864 6.90065 126.259 4.44482 129.661C1.98898 133.037 0.0243262 137.881 0.0243262 142.788C-0.0984668 144.727 0.252981 147.863 0.86694 150.768C1.23955 152.669 2.06946 154.92 2.63261 156.665L9.14903 178.484C15.9322 177.08 17.6555 172.819 18.2695 170.618C15.5554 166.559 10.1314 166.672 10.1314 166.672C10.6352 164.86 12.511 162.938 14.9076 162.727C16.7367 162.562 17.4227 163.132 17.4227 163.132C17.4227 163.132 17.0119 161.294 17.0119 158.878C17.0119 156.463 18.5193 153.621 20.4967 152.163C22.6815 154.051 24.2524 156.463 24.2524 158.878C24.2524 161.294 23.5961 163.132 23.5961 163.132C23.5961 163.132 24.4175 162.529 26.2806 162.727C28.2029 162.933 30.0448 164.249 30.8705 166.672C30.8705 166.672 25.3999 166.462 22.7366 170.618C24.3921 174.636 29.0371 176.802 33.4406 176.802C42.0276 176.802 46.8758 168.346 46.8758 168.346C46.8758 168.346 51.6477 176.802 60.3659 176.802C64.85 176.802 69.317 174.636 70.9938 170.618C68.0044 166.462 62.8514 166.672 62.8514 166.672C63.6771 164.249 65.5062 162.933 67.4243 162.727C69.2916 162.529 70.1257 163.132 70.1257 163.132C70.1257 163.132 69.7108 161.294 69.7108 158.878C69.7108 156.463 71.1589 153.862 73.2167 152.163C75.2026 153.811 76.6972 156.463 76.6972 158.878C76.6972 161.294 76.2992 163.132 76.2992 163.132C76.2992 163.132 76.5702 162.664 78.4544 162.727C80.6604 162.798 82.9935 164.603 83.5736 166.672C83.5736 166.672 78.0352 166.47 75.4608 170.618C76.2103 172.937 77.7558 177.08 84.5559 178.484L91.301 156.665C91.898 154.92 92.5077 152.669 92.9015 150.768C93.5112 147.863 93.85 144.727 93.7229 142.788C93.7229 137.881 91.9573 133.037 89.5015 129.661Z" fill="#020203"/>
<path fill-rule="evenodd" clip-rule="evenodd" d="M31.25 97.3622V109.843L37.4999 103.608L31.25 97.3622Z" fill="#020203"/>
<path fill-rule="evenodd" clip-rule="evenodd" d="M50.0028 97.3622L43.7529 103.608L50.0028 109.843V97.3622Z" fill="#020203"/>
<path fill-rule="evenodd" clip-rule="evenodd" d="M49.999 91.122H37.499L43.7609 97.3622L49.999 91.122Z" fill="#020203"/>
</g>
<defs>
<clipPath id="clip0_1900_115788">
<rect width="200" height="200" fill="white"/>
</clipPath>
</defs>
</svg>
