<?xml version="1.0" encoding="utf-8"?>
<!-- Generator: Adobe Illustrator 25.3.1, SVG Export Plug-In . SVG Version: 6.00 Build 0)  -->
<!DOCTYPE svg PUBLIC "-//W3C//DTD SVG 1.1//EN" "http://www.w3.org/Graphics/SVG/1.1/DTD/svg11.dtd" [
	<!ENTITY ns_extend "http://ns.adobe.com/Extensibility/1.0/">
	<!ENTITY ns_ai "http://ns.adobe.com/AdobeIllustrator/10.0/">
	<!ENTITY ns_graphs "http://ns.adobe.com/Graphs/1.0/">
	<!ENTITY ns_vars "http://ns.adobe.com/Variables/1.0/">
	<!ENTITY ns_imrep "http://ns.adobe.com/ImageReplacement/1.0/">
	<!ENTITY ns_sfw "http://ns.adobe.com/SaveForWeb/1.0/">
	<!ENTITY ns_custom "http://ns.adobe.com/GenericCustomNamespace/1.0/">
	<!ENTITY ns_adobe_xpath "http://ns.adobe.com/XPath/1.0/">
]>
<svg version="1.1" id="Layer_1" xmlns:x="&ns_extend;" xmlns:i="&ns_ai;" xmlns:graph="&ns_graphs;"
	 xmlns="http://www.w3.org/2000/svg" xmlns:xlink="http://www.w3.org/1999/xlink" x="0px" y="0px" viewBox="0 0 512 512"
	 style="enable-background:new 0 0 512 512;" xml:space="preserve">
<metadata>
	<sfw  xmlns="&ns_sfw;">
		<slices></slices>
		<sliceSourceBounds  bottomLeftOrigin="true" height="441.2" width="287.3" x="112.3" y="35.4"></sliceSourceBounds>
	</sfw>
</metadata>
<g>
	<path d="M151.4,476.6c-0.3-2.1,0.4-3.2,2.7-3.3c4.6-0.3,6.1-3.2,6.1-7.3c0-16,0-32,0-48c0-4.3-1.8-6.8-6.2-7.3
		c-1-0.1-1.9-1.1-2.8-1.7c0.1-0.5,0.3-1,0.4-1.4c2.7,0,5.3,0,8,0c7.8,0,15.6,0,23.3,0.1c1,0,1.9,0.7,2.9,1.1c-0.9,0.7-1.7,1.9-2.6,2
		c-4.2,0.6-6,2.9-6,7c0,7.3,0,14.6,0,21.9c0.4,0.3,0.8,0.6,1.2,0.9c3.3-3.7,6.6-7.4,10-11c3.8-4,7.8-7.7,11.4-11.8
		c1.1-1.3,2.4-3.5,2-4.7c-0.4-1.1-2.9-1.6-4.6-2.3c-1.2-0.5-2.5-0.9-3.8-1.4c0.1-0.5,0.3-1,0.4-1.5c9.7,0,19.3,0,30.4,0
		c-6.7,3.8-12.9,6.4-18,10.5c-5.4,4.4-9.8,10.1-15,15.6c1,1.3,2.5,3.2,4,5.1c7.9,9.8,15.7,19.6,23.7,29.2c1.7,2,4.1,3.3,6.1,5.2
		c0.8,0.8,1.1,2.1,1.6,3.1c-11.5,0-23.1,0-34.6,0c0.3-5.6,5.6-1.6,7.5-4.2c0-3.1-14.3-22.5-20.9-27.9c-0.6,1.5-1.6,2.9-1.7,4.3
		c-0.2,6-0.1,12.1,0,18.1c0.1,3.6,1.8,6,5.6,6.3c2.2,0.2,3.5,1,3.3,3.4C174.5,476.6,162.9,476.6,151.4,476.6z"/>
	<path d="M296.7,476.6c1-1.1,1.8-3,2.9-3.1c4.4-0.7,6.1-3.2,6.1-7.4c0-16,0-31.9,0-47.9c0-4.5-1.8-7.1-6.5-7.4
		c-0.8-0.1-1.6-1.2-2.4-1.8c0.9-0.4,1.8-1.3,2.7-1.3c12.2,0.1,24.4,0.2,36.7,0.7c2.9,0.1,6,1,8.7,2.1c5.6,2.2,9.2,6.2,9.7,12.5
		c0.5,6.5-2.7,10.7-8,13.6c-1.7,1-3.7,1.6-6.1,2.7c1.9,0.7,3.4,1.3,4.8,1.8c7,2.7,12.3,7,12.7,15.2c0.4,7.9-3.2,13.3-11.5,16.9
		c-3.5,1.5-7.3,2.3-11,3.4C322.7,476.6,309.7,476.6,296.7,476.6z M322.4,442.4c0,8.7-0.1,17.4,0.1,26.1c0.1,3.7,2.9,4.6,6.1,4.5
		c7.5-0.2,11-4.2,11.9-13.5C341.7,447.2,334.5,440.4,322.4,442.4z M322.2,437.9c7.4,0.9,12.3-1.1,14.3-5.4
		c2.5-5.6,1.7-16.5-2.3-19.1c-2.4-1.6-6.2-2.1-9.2-1.8c-3.4,0.3-2.8,3.8-2.8,6.3C322.2,424.5,322.2,431.1,322.2,437.9z"/>
	<path d="M229.3,476.6c-0.2-2.4,1.1-3.2,3.4-3.4c4.1-0.2,5.9-2.9,5.9-6.6c0.1-16.4,0.1-32.8,0-49.2c0-3.8-2.1-6.1-6-6.6
		c-1.1-0.1-2-1.1-3-1.7c1.1-0.5,2.3-1.4,3.4-1.4c9.6-0.1,19.3-0.1,28.9,0c1.1,0,2.1,0.8,3.2,1.3c-0.9,0.6-1.8,1.6-2.8,1.8
		c-6.2,1.1-7.1,2.1-7.1,8.5c0,15.7,0,31.4,0,47.1c0,5.1,1.1,6.3,6.2,6.7c12.6,1,21-4.2,26.7-16.3c0.7-1.5,2-2.6,3.1-3.9
		c0.5,0.3,1.1,0.5,1.6,0.8c-1.5,7.7-3,15.3-4.6,23C268.5,476.6,248.9,476.6,229.3,476.6z"/>
	<path d="M214,91c0,7,0,13.7,0,20.3c0.1,9.9-0.6,19.9,0.5,29.7c2,16.9,11.1,22.8,28.6,19.4c-0.4-5.6-0.8-11.2-1.1-16.9
		c-0.9-19.4-2-38.8-2.5-58.2c-0.4-13.8,0-27.6,0.1-41.5c0-5.5,3-8.2,9.6-8.4c0.7,11.3,1.8,22.6,2,33.9c0.8,51.3,1.8,102.5,2,153.8
		c0.2,53.3-0.3,106.6-0.5,159.9c0,1.4,0,2.8,0,4.6c-8-1.9-14-6-18.1-12.3c-2.1-3.1-1.4-6.7,0.8-9.7c0.8-1,1.7-1.9,2.5-3
		c2.9-4,2.6-7.3-1.7-9.7c-6.3-3.5-12.9-6.4-19.3-9.6c-12-6-24.1-11.6-35.7-18.2c-5-2.8-9.6-7-13.3-11.5c-6.5-7.9-5.2-17.5,2.5-24.2
		c4-3.5,8.5-6.6,12.1-10.4c5.7-6.1,5.4-11.1-1.4-16c-5.2-3.8-11.1-6.6-16.9-9.5c-11-5.6-22.4-10.5-33.2-16.5
		c-9.5-5.3-16.2-13-18.1-24.4c-2.1-12.7,2.6-20.3,15.3-22.3c8.8-1.3,17.8-1.6,26.6-2.6c3.1-0.3,6.3-1,9.3-2
		c9.1-3.1,12.4-10.9,7.7-19.2c-3-5.3-7.1-10.1-11-14.9c-5.5-6.7-11.4-13-16.7-19.8c-4.5-5.8-7.9-12.4-8.2-20.1
		c-0.8-18.2,10-28,27.9-24.9c10.6,1.9,21,4.7,31.6,6.9C202.9,95.5,207.5,94.7,214,91z M214.9,206c-0.2,3.2-0.4,5.2-0.5,7.2
		c-0.8,16.6,8.6,25.4,25.1,23.3c1.2-0.2,3-1,3.3-1.9c4.2-11.2,0.9-23.7-11.7-27.1C226.1,206,220.6,206.4,214.9,206z M245.7,262.1
		c0.1-14.5-14.1-24.3-27.7-19c-1.1,0.4-2.3,1.7-2.6,2.8c-2.7,13.8,4.2,23.8,18.1,26.4C243.3,274.2,245.6,272.2,245.7,262.1z
		 M224.2,169.2c-2.4,0.2-4.6,0.1-6.7,0.6c-0.9,0.2-2.4,1.6-2.3,2.3c0.6,6.4,1.3,12.8,2.3,19.1c0.2,1.3,1.7,2.8,2.9,3.4
		c6.7,3.6,14,5.1,21.6,4.7c1,0,2.6-1.1,2.7-1.9C246.8,182.4,244,169.3,224.2,169.2z M215.5,286.3c-0.3,17.9,10.7,23.1,24.7,22.3
		c2.3-0.1,3.9-0.8,3.9-3.5c0.1-4,0.8-8,0.5-12c-0.5-7.1-4.4-11.8-11.6-13c-4.5-0.8-9.1-0.9-13.7-1.4c-2.8-0.3-4,1-3.9,3.7
		C215.5,283.7,215.5,285,215.5,286.3z M245.5,332.7c-0.8-14.6-2.8-16.6-16.3-19.1c-7.7-1.4-13.2,3.8-12.8,11.6
		c0.5,8.1,6.5,15.8,14.2,18.3C241.1,346.8,245.5,343.6,245.5,332.7z"/>
	<path d="M259.7,387.6c0-8.5,0-16.6,0-24.6c-0.2-44.4-0.1-88.8-0.6-133.1c-0.7-62.2-0.8-124.4,3.3-186.6c0.2-2.6,0.5-5.1,0.8-7.7
		c5.9-0.4,9.4,2.6,9.4,7.9c0.6,35.2,0,70.3-2.7,105.3c-0.3,3.7-0.6,7.4-0.9,11.1c12.5,4.9,24.3-0.7,27.7-13.2
		c3.1-11.5,1.8-23.2,1.6-34.8c-0.1-6.8,0-13.7,0-21.1c7.6,5.5,15.4,3.8,23.2,2.2c8.9-1.9,17.6-4.2,26.5-5.9
		c3.8-0.7,7.8-0.8,11.6-0.3c9.8,1.4,16,9.1,17,20c0.7,8.5-1.8,16.1-6.7,22.7c-5.8,7.7-12.3,14.8-18.4,22.3
		c-3.8,4.7-7.8,9.3-10.8,14.5c-4.8,8.5-1.6,16.7,7.8,19.3c6,1.7,12.5,2,18.7,2.8c6.8,0.9,13.8,1.1,20.5,2.7
		c8.8,2.1,12.3,7.4,12.1,16.4c-0.2,9.9-3.5,18.6-11.8,24.4c-7.7,5.4-16.1,10-24.5,14.4c-7.8,4.1-16,7.1-23.8,11.1
		c-4,2.1-7.8,4.9-11.2,7.9c-3.3,2.9-3.9,7.1-0.9,10.5c4,4.5,8.5,8.5,13.1,12.4c9.2,7.7,10.3,17.7,2.5,26.9c-1.7,2-3.5,4-5.6,5.3
		c-10.3,6.1-20.5,12.1-31.1,17.7c-9,4.7-18.6,8.4-27.7,13.1c-8.1,4.1-8.4,6.5-2.7,13.5c3.6,4.4,3.6,8.6-0.1,12.9
		C271.7,382.6,266.5,385.9,259.7,387.6z M298,249c-1.3-2-2.2-5.1-4.1-5.9c-14.9-5.8-29.7,6.4-27.3,22.2c1.2,7.9,1.6,8.2,9.5,7.3
		c1.6-0.2,3.1-0.5,4.7-0.9C292,268.9,297.8,261.1,298,249z M297.5,207c-2.1-0.4-3.7-0.7-5.2-0.9c-17.7-1.8-28.8,11.1-23.4,27.3
		c0.4,1.1,1.2,2.4,2.1,2.8c11.2,3.9,24.7-3.9,26.4-15.4C298,216.4,297.5,211.9,297.5,207z M289.8,169.3
		c-14.8-1.1-22.9,6.2-22.9,20.5c0,10.1,0.1,10.7,10.3,9.1c17.6-2.9,19-4.7,19.9-21.4C297.5,168.3,297.7,170,289.8,169.3z
		 M296.7,286.7c0-0.9-0.1-1.7,0-2.6c0.4-4.3-1.3-6.1-5.7-5.5c-3.3,0.5-6.6,0.3-9.9,0.9c-8.5,1.4-12.8,5.3-13.6,13.2
		c-0.4,4.2,0.1,8.6,0.7,12.8c0.2,1.1,2,2.8,3.3,2.9C285.8,309.6,296.8,304.1,296.7,286.7z M266.5,332.1c0.1,1.7,0.1,3.1,0.3,4.6
		c1,6.8,2.2,7.9,9.2,7.8c10.5-0.2,19.8-9.6,19.7-20.1c-0.1-6.1-3.4-10.7-9.5-10.6c-11.2,0.2-18.6,2.5-19.3,14
		C266.9,329.2,266.6,330.8,266.5,332.1z"/>
	<path d="M231.5,44.5c3,9.3,4.1,67.3,1.8,88c-4.6-0.5-9.3-1-14.4-1.5c0-7.1-0.1-14.3,0-21.4c0.2-14.5,0-29,0.9-43.5
		C220.4,57.7,223.8,49.9,231.5,44.5z"/>
	<path d="M280.1,44.3c5.1,3.1,8.2,7.1,9.5,12c1.8,7.1,3.5,14.3,3.7,21.5c0.5,17.7,0.2,35.3,0.2,53.1c-5.3,0.6-9.9,1.1-15.1,1.6
		C279.6,103.4,275.7,74.1,280.1,44.3z"/>
</g>
</svg>
