<svg width="200" height="200" viewBox="0 0 200 200" fill="none" xmlns="http://www.w3.org/2000/svg">
<rect width="200" height="200" fill="white"/>
<g clip-path="url(#clip0_1913_115937)">
<path d="M82.7824 171.078V176.64H76.0135V191.129C76.0135 193.711 77.2356 194.216 79.4972 194.216C80.4397 194.219 81.3777 194.085 82.281 193.816L82.7824 193.656V199.232L82.503 199.305C80.6019 199.783 79.0193 199.945 76.6768 199.945C75.0551 199.945 69.7616 199.422 69.7616 192.464V176.64H65.7895V171.078H69.7616V163.942L76.0135 161.751V171.07H82.7824V171.078ZM124.778 161.981L117.291 199.344H110.942L104.325 173.325L97.6027 199.344H91.3508L83.5163 161.981H90.045L95.1217 187.336L101.428 161.981H107.511C108.119 164.349 113.825 187.014 113.898 187.304C113.945 186.999 118.39 162.815 118.549 161.981H124.778ZM131.262 182.288C131.421 179.622 133.299 176.143 137.269 176.143C141.585 176.143 142.896 179.959 143.04 182.288H131.262ZM137.558 170.57C132.795 170.57 124.746 173.681 124.746 185.347C124.746 199.234 135.793 199.948 138 199.948C142.7 199.948 144.79 198.97 146.84 198.003L147.064 197.898V192.004L146.471 192.365C144.978 193.301 142.084 194.349 138.838 194.349C132.275 194.349 131.348 189.644 131.265 187.676H149.305L149.336 187.357C149.903 183.459 149.336 177.996 146.148 174.287C144.038 171.83 141.134 170.584 137.561 170.584L137.558 170.57ZM172.451 191.494C172.451 195.734 168.766 200.016 161.743 200.016C158.667 200.016 155.27 199.255 152.83 198.071L152.608 197.959V191.894L153.183 192.208C155.215 193.303 158.466 194.464 161.576 194.464C164.412 194.464 166.037 193.447 166.037 191.672C166.037 189.999 165.037 189.487 162.577 188.4L161.608 187.984C160.417 187.461 159.37 187.006 157.659 186.214C156.014 185.472 152.175 183.742 152.175 178.574C152.175 175.798 154.303 170.584 162.287 170.584C165.58 170.584 168.842 171.47 170.121 172.094L170.346 172.207V178.151L169.782 177.889C167.233 176.627 164.995 176.041 162.516 176.041C161.605 176.041 158.584 176.224 158.584 178.336C158.584 179.946 160.485 180.778 162.02 181.473L162.315 181.601C163.428 182.09 164.298 182.498 165.042 182.793L165.849 183.138C170.654 185.25 172.451 187.498 172.451 191.502V191.494ZM31.2133 161.981H37.319V199.344H31.3726L15.0978 173.325V199.344H9V161.981H15.09L31.2212 188.198V161.981H31.2133ZM183.296 176.64V191.129C183.296 193.719 184.518 194.216 186.78 194.216C187.718 194.212 188.651 194.081 189.553 193.823L190.076 193.656V199.232L189.757 199.305C187.887 199.783 186.305 199.945 183.954 199.945C182.33 199.945 177.073 199.422 177.073 192.464V176.64H173.064V176.263C173.049 176.002 173.049 174.078 173.064 172.303V171.078H177.062V163.942L183.296 161.751V171.07H190.065V176.632H183.296V176.64ZM57.7722 191.087C57.054 191.975 54.8082 194.312 51.314 194.312C48.6294 194.312 46.911 192.767 46.911 190.376C46.911 187.927 48.8696 186.512 52.2828 186.512H57.767L57.7722 191.087ZM52.954 170.479C49.781 170.479 46.6864 171.031 44.5293 171.974L44.2812 172.063V177.814L44.8479 177.531C46.3104 176.82 49.828 176.172 52.0269 176.172C57.5111 176.172 57.7487 178.263 57.7722 180.982H51.9068C44.1376 180.982 40.6043 185.854 40.6043 190.365C40.6043 196.662 45.6079 199.932 50.5723 199.932C53.9516 199.932 56.0852 198.662 57.8062 197.14V199.333H63.9928V180.242C63.9928 171.441 56.2706 170.489 52.954 170.489" fill="#3C1053"/>
<path d="M133.195 58.3859L121.997 77.82H99.5458L88.332 97.2829H133.229L155.672 58.3859H133.195Z" fill="url(#paint0_linear_1913_115937)"/>
<path d="M54.6562 38.8891L65.917 58.3859H88.2975L99.5452 77.82H121.996L99.5452 38.8891H54.6562Z" fill="url(#paint1_linear_1913_115937)"/>
<path d="M65.8623 97.2829L88.308 136.222L99.5296 116.709L88.3315 97.2829L99.5453 77.82L88.2976 58.3859L65.8623 97.2829Z" fill="url(#paint2_linear_1913_115937)"/>
<path d="M155.68 136.222H110.775L88.3293 97.275H133.221L155.656 58.3781L178.115 97.2933L155.68 136.222ZM65.8626 97.275L88.3031 58.3859H43.4012L20.9659 97.2829L20.9502 97.3012L43.409 136.222H88.3031L65.8626 97.275ZM121.991 0L144.45 38.9126L121.991 77.82L99.5534 38.8891H54.6567L77.0737 0H121.991Z" fill="#E40521"/>
<path d="M155.664 58.3859L178.123 97.3012L155.68 136.222L133.221 97.275L155.664 58.3859ZM65.8626 97.2829H20.9659L20.9502 97.3012L43.3855 136.222H88.3031L65.8626 97.2829ZM99.5508 38.8891L122.01 77.82L144.448 38.9126L121.991 0L99.5508 38.8891Z" fill="#D20A18"/>
</g>
<defs>
<linearGradient id="paint0_linear_1913_115937" x1="156.761" y1="81.0168" x2="89.6994" y2="74.8879" gradientUnits="userSpaceOnUse">
<stop offset="0.18" stop-color="#F69799"/>
<stop offset="0.74" stop-color="#FDE7E8"/>
</linearGradient>
<linearGradient id="paint1_linear_1913_115937" x1="15895" y1="12123.4" x2="20705.7" y2="1539.95" gradientUnits="userSpaceOnUse">
<stop offset="0.18" stop-color="#F69799"/>
<stop offset="0.74" stop-color="#FDE7E8"/>
</linearGradient>
<linearGradient id="paint2_linear_1913_115937" x1="83" y1="133" x2="54.7672" y2="95.616" gradientUnits="userSpaceOnUse">
<stop stop-color="#F69799"/>
<stop offset="0.74" stop-color="#FDE7E8"/>
</linearGradient>
<clipPath id="clip0_1913_115937">
<rect width="181.065" height="200" fill="white" transform="translate(9)"/>
</clipPath>
</defs>
</svg>
