<svg width="200" height="200" viewBox="0 0 200 200" fill="none" xmlns="http://www.w3.org/2000/svg">
<rect width="200" height="200" fill="white"/>
<g clip-path="url(#clip0_1913_116013)">
<path fill-rule="evenodd" clip-rule="evenodd" d="M50.8555 79.0851C59.0286 74.2417 67.2018 73.3336 69.9262 77.2688C72.6505 81.204 68.1099 88.469 59.9368 93.3124C51.7636 98.1557 43.5905 99.0639 41.1688 95.1287C38.7471 91.1934 43.2877 83.9284 50.8555 79.0851Z" fill="#002957"/>
<path d="M142.879 151.13V131.756C164.069 126.005 180.718 109.961 192.523 91.7988C196.156 86.3501 202.21 90.588 199.183 96.0368C186.166 121.464 166.49 142.351 142.879 151.13Z" fill="#EE2E24"/>
<path d="M142.879 114.199C146.092 113.52 149.165 112.291 151.96 110.567C161.647 103.907 165.885 92.707 161.041 85.1392C157.409 79.6905 150.447 77.8742 142.879 79.3878V114.199Z" fill="#EE2E24"/>
<path d="M142.879 79.0851V114.199C139.628 115.227 136.139 115.227 132.888 114.197C129.637 113.168 126.783 111.16 124.717 108.448C119.571 101.183 123.809 89.3772 133.798 83.0203C136.515 81.0849 139.609 79.744 142.879 79.0851V79.0851Z" fill="#EE2E24"/>
<path d="M142.879 131.756C140.29 132.505 137.663 133.111 135.008 133.573C93.2344 139.324 85.6667 97.5503 105.343 67.5821C125.019 37.0085 103.224 41.5491 74.1638 57.29C72.9529 57.8954 70.834 59.409 72.6502 59.1062C80.218 58.5008 86.5748 60.3171 89.2992 64.8577C92.9317 70.9119 89.9046 80.2959 82.3369 89.3772C79.1019 93.2269 75.3298 96.5911 71.1367 99.3666C69.4411 100.749 67.6164 101.966 65.6879 102.999C47.2226 114.805 27.2438 116.621 21.4924 107.237C19.3734 103.605 19.6761 99.0639 21.7951 93.9178C21.7951 93.3124 21.4924 93.6151 21.1896 93.6151C9.6867 103.302 1.21084 112.686 0 118.437V121.162C1.21084 124.794 6.05418 126.005 16.649 124.491C42.3793 121.464 63.8717 135.086 79.3098 143.865C102.618 156.579 124.111 157.789 142.879 151.13V131.756Z" fill="#EE2E24"/>
</g>
<defs>
<clipPath id="clip0_1913_116013">
<rect width="200" height="110.126" fill="white" transform="translate(0 45)"/>
</clipPath>
</defs>
</svg>
