<svg width="200" height="200" viewBox="0 0 200 200" fill="none" xmlns="http://www.w3.org/2000/svg">
<rect width="200" height="200" fill="white"/>
<path d="M0 0V200H200V0H0ZM65.625 76.25V161.875H38.125V74.375C38.166 64.9876 41.8285 55.9782 48.349 49.2249C54.8695 42.4715 63.7448 38.4953 73.125 38.125H115L101.875 66.25H75.625C72.9928 66.3135 70.486 67.3874 68.6242 69.2492C66.7624 71.111 65.6885 73.6178 65.625 76.25V76.25ZM151.875 112.5C153.485 112.502 155.07 112.902 156.488 113.665C157.906 114.429 159.112 115.532 160 116.875C160 117.041 160.066 117.2 160.183 117.317C160.3 117.434 160.459 117.5 160.625 117.5C161.694 119.168 162.137 121.161 161.875 123.125V162.5H133.75V136.875H98.125C95.8672 136.319 93.8524 135.042 92.3861 133.237C90.9198 131.432 90.0821 129.199 90 126.875C90.0378 125.334 90.4681 123.828 91.25 122.5L91.875 121.875L96.875 111.25L131.25 38.125H161.875L126.875 112.5H151.875Z" fill="#3B3B3B"/>
</svg>
