<svg width="200" height="200" viewBox="0 0 200 200" fill="none" xmlns="http://www.w3.org/2000/svg">
<rect width="200" height="200" fill="white"/>
<path d="M97.4489 32.4758C110.734 18.9308 127.842 13.0225 146.054 13.0225H159.496V0H145.975C124.373 0 104.072 7.2749 88.4221 23.2717C72.6541 39.3489 65.598 59.8874 65.598 82.3553V116.037C65.598 117.283 65.5192 118.851 65.3221 119.895C64.849 122.428 63.8635 124.477 62.2078 126.125C60.7099 127.613 58.936 128.497 57.5563 128.979C56.3737 129.421 54.8758 129.743 53.2596 129.984C49.6724 130.547 41 130.707 41 130.707V171.101H52.7471C67.7266 171.101 81.4447 166.479 91.7333 155.989C102.022 145.538 106.516 132.114 106.516 117.685V82.3153C106.516 71.4226 109.906 61.2137 117.751 53.2153C125.634 45.1768 135.647 41.72 146.172 41.72H148.025V57.2347C144.438 57.4758 141.915 57.8374 138.643 58.8826C135.213 60.0079 131.942 61.8168 129.064 64.7511C124.255 69.6142 122.284 75.8442 122.284 82.3153V117.685C122.284 136.576 116.371 153.939 103.047 167.524C89.7623 181.069 72.6541 186.977 54.4422 186.977H41V200H54.521C76.1231 200 96.4242 192.725 112.074 176.728C127.842 160.651 134.898 140.113 134.898 117.645V83.9632C134.898 82.7168 134.977 81.1495 135.174 80.1047C135.647 77.5721 136.633 75.5226 138.288 73.8747C139.786 72.3874 141.56 71.5032 142.939 71.021C144.122 70.5789 145.62 70.2574 147.236 70.0163C150.824 69.4532 159.496 69.2926 159.496 69.2926V28.8987H147.749C132.769 28.8987 119.051 33.5211 108.763 44.0111C98.4742 54.4616 93.98 67.8858 93.98 82.3153V117.685C93.98 128.577 90.5902 138.786 82.7456 146.785C74.8616 154.823 64.849 158.28 54.3239 158.28H52.4712V142.444C56.0584 142.203 58.7784 141.72 61.8531 140.796C65.3221 139.711 68.5545 138.183 71.4321 135.289C76.2413 130.426 78.2123 124.196 78.2123 117.725V82.3553C78.2123 63.4647 84.1253 46.061 97.4489 32.4758Z" fill="#00AA46"/>
</svg>
