<svg width="200" height="200" viewBox="0 0 200 200" fill="none" xmlns="http://www.w3.org/2000/svg">
<rect width="200" height="200" fill="white"/>
<g clip-path="url(#clip0_1862_112153)">
<path fill-rule="evenodd" clip-rule="evenodd" d="M170.716 74.2557C161.821 74.5554 153.394 78.3103 147.224 84.7231C144.664 81.3465 141.334 78.6309 137.512 76.8031C133.689 74.9752 129.485 74.0881 125.25 74.2157C116.699 74.3776 108.557 77.9099 102.597 84.044L99.8805 86.9205C96.5732 82.2348 92.1929 78.4082 87.1055 75.7603C82.018 73.1123 76.3709 71.7197 70.6356 71.6988C69.7879 71.6988 68.975 72.0355 68.3756 72.6349C67.7762 73.2343 67.4395 74.0472 67.4395 74.8949V86.8805C67.4673 87.7466 67.7601 88.5833 68.2784 89.2777C68.5615 89.6141 68.9291 89.8692 69.3433 90.0166C69.7576 90.1641 70.2036 90.1986 70.6356 90.1167C75.2945 90.4724 79.642 92.593 82.7902 96.0457C85.9384 99.4983 87.6499 104.022 87.5753 108.694V140.656C87.6314 141.485 87.9861 142.266 88.5738 142.854C89.1615 143.441 89.9422 143.796 90.7715 143.852H104.635C105.464 143.796 106.245 143.441 106.832 142.854C107.42 142.266 107.775 141.485 107.831 140.656V103.461C108.635 100.324 110.48 97.5525 113.063 95.6002C115.647 93.648 118.817 92.6302 122.054 92.7135C130.684 92.7135 134.559 98.4666 134.559 107.256V140.656C134.559 141.076 134.642 141.491 134.802 141.879C134.963 142.267 135.198 142.619 135.495 142.916C135.792 143.213 136.144 143.448 136.532 143.609C136.92 143.77 137.335 143.852 137.755 143.852H150.26C151.096 143.805 151.887 143.455 152.483 142.866C153.079 142.278 153.439 141.492 153.496 140.656V106.337C153.496 103.461 153.137 99.7451 153.137 99.7451C154.677 97.437 156.771 95.5514 159.228 94.2604C161.684 92.9694 164.425 92.314 167.2 92.354C175.789 92.354 179.705 98.1071 179.705 106.897V140.656C179.682 141.456 179.968 142.235 180.503 142.83C181.039 143.425 181.783 143.791 182.581 143.852H196.445C197.331 143.842 198.179 143.485 198.806 142.858C199.433 142.231 199.79 141.383 199.801 140.496V108.175C200.32 90.4762 192.37 74.2557 170.716 74.2557Z" fill="#222222"/>
<path fill-rule="evenodd" clip-rule="evenodd" d="M56.1326 124.995C53.3531 125.869 50.4565 126.313 47.5429 126.313C39.912 126.313 35.5573 120.6 35.5573 110.772V93.5526H52.7766C53.1997 93.5526 53.6186 93.4686 54.009 93.3055C54.3994 93.1424 54.7536 92.9034 55.0509 92.6023C55.3482 92.3013 55.5828 91.9442 55.741 91.5518C55.8993 91.1594 55.9781 90.7395 55.9728 90.3164V78.8502C55.9613 77.9811 55.6667 77.1395 55.1338 76.453C54.8411 76.1289 54.4725 75.8826 54.061 75.7362C53.6496 75.5897 53.2083 75.5478 52.7766 75.6141H35.3575V57.1962C35.3707 56.3985 35.0814 55.6254 34.5477 55.0324C34.014 54.4395 33.2756 54.0706 32.481 54H18.6176C17.7884 54.0561 17.0076 54.4108 16.4199 54.9985C15.8323 55.5862 15.4775 56.367 15.4214 57.1962V75.9736H3.39586C2.95393 75.9584 2.51401 76.0399 2.10686 76.2125C1.69971 76.385 1.33516 76.6443 1.03869 76.9724C0.701388 77.2897 0.448155 77.6858 0.301718 78.1251C0.155281 78.5644 0.120224 79.0332 0.199693 79.4894V90.9956C0.194404 91.4187 0.27317 91.8386 0.431423 92.231C0.589675 92.6234 0.824265 92.9805 1.12158 93.2815C1.4189 93.5826 1.77304 93.8215 2.16344 93.9847C2.55384 94.1478 2.97275 94.2318 3.39586 94.2317H15.3815V110.932C15.3815 133.265 28.8853 145.25 46.6639 145.25C50.1058 145.292 53.5279 144.724 56.7718 143.572C57.437 143.328 58.0172 142.896 58.4425 142.329C58.8679 141.761 59.1201 141.083 59.1689 140.376V127.352C59.3287 125.314 58.5297 124.675 56.1326 124.995Z" fill="#222222"/>
</g>
<defs>
<clipPath id="clip0_1862_112153">
<rect width="200" height="91.2905" fill="white" transform="translate(0 54)"/>
</clipPath>
</defs>
</svg>
