<svg width="200" height="200" viewBox="0 0 200 200" fill="none" xmlns="http://www.w3.org/2000/svg">
<rect width="200" height="200" fill="white"/>
<path d="M123.735 142.514C121.664 153.414 119.906 162.674 119.203 166.268H199.922V142.514H123.735ZM0 142.709V166.464H80.1719L74.8193 142.709H0Z" fill="#E05F0C"/>
<path d="M39.3827 88.2842L33.5612 63.7091H83.3366L99.4725 134.192H100.176L110.334 89.0265C115.452 68.5147 117.367 63.7091 146.239 63.7091H166.986C166.986 63.7091 162.805 82.6191 157.57 103.131C155.577 110.945 138.269 110.046 139.129 102.74C139.207 101.959 140.027 96.489 140.692 92.5819C141.629 86.9558 135.065 86.2526 133.893 91.8005C133.034 95.7857 129.244 115.594 125.689 134.231H200V33H0V134.231H72.5532L62.1996 88.3233L39.3827 88.2842Z" fill="#0A438A"/>
</svg>
