<svg width="147" height="40" viewBox="0 0 147 40" fill="none" xmlns="http://www.w3.org/2000/svg"><path d="M119.823 27.6992C118.547 27.7734 117.285 27.4041 116.25 26.6538C115.817 26.3224 115.47 25.8911 115.239 25.3967C115.008 24.9022 114.9 24.3593 114.924 23.8141C114.904 23.2695 115.014 22.7279 115.244 22.2341C115.475 21.7403 115.82 21.3085 116.25 20.9745C117.317 20.2921 118.557 19.9295 119.823 19.9295C121.09 19.9295 122.33 20.2921 123.396 20.9745C123.822 21.3118 124.163 21.7446 124.391 22.2379C124.618 22.7312 124.727 23.2712 124.707 23.8141C124.73 24.3576 124.624 24.8988 124.396 25.3927C124.168 25.8866 123.825 26.319 123.396 26.6538C122.362 27.4041 121.099 27.7734 119.823 27.6992ZM119.823 25.7957C120.076 25.8177 120.33 25.786 120.57 25.7026C120.809 25.6192 121.028 25.4861 121.212 25.312C121.387 25.0948 121.517 24.8451 121.595 24.5772C121.673 24.3094 121.696 24.0288 121.665 23.7517C121.712 23.2176 121.55 22.6858 121.212 22.2695C121.028 22.0953 120.809 21.9622 120.57 21.8788C120.33 21.7954 120.076 21.7637 119.823 21.7858C119.569 21.7654 119.312 21.7979 119.071 21.8811C118.829 21.9643 118.607 22.0965 118.419 22.2695C118.088 22.6895 117.927 23.2184 117.967 23.7517C117.91 24.3108 118.072 24.8702 118.419 25.312C118.612 25.4739 118.837 25.5947 119.078 25.6671C119.319 25.7395 119.573 25.762 119.823 25.7333V25.7957ZM134.693 22.7999L131.838 23.2056C131.787 22.7995 131.578 22.4295 131.257 22.1756C130.936 21.9217 130.528 21.8041 130.121 21.8482C129.87 21.8324 129.619 21.8686 129.383 21.9545C129.146 22.0404 128.93 22.1742 128.748 22.3475C128.4 22.7534 128.226 23.2806 128.264 23.8141C128.245 24.0784 128.277 24.344 128.36 24.5957C128.443 24.8474 128.575 25.0802 128.748 25.2808C128.927 25.4593 129.142 25.5975 129.379 25.6863C129.616 25.7751 129.869 25.8124 130.121 25.7957C130.549 25.8222 130.973 25.701 131.323 25.4524C131.636 25.1683 131.835 24.7802 131.884 24.3602L134.693 24.7503C134.593 25.2005 134.403 25.626 134.135 26.0013C133.867 26.3766 133.526 26.6941 133.133 26.9347C132.102 27.4808 130.944 27.7427 129.779 27.6934C128.614 27.644 127.482 27.2852 126.501 26.6538C126.068 26.3224 125.721 25.8911 125.49 25.3967C125.259 24.9022 125.151 24.3593 125.175 23.8141C125.155 23.2695 125.265 22.7279 125.495 22.2341C125.726 21.7403 126.071 21.3085 126.501 20.9745C127.537 20.2265 128.799 19.8574 130.074 19.929C131.163 19.8723 132.246 20.1266 133.195 20.6624C133.573 20.9025 133.9 21.215 134.157 21.5818C134.414 21.9486 134.596 22.3626 134.693 22.7999ZM139.03 21.5985C138.695 21.5809 138.36 21.6341 138.047 21.7546C137.813 21.8638 137.689 22.0042 137.689 22.1758C137.69 22.2596 137.714 22.3415 137.758 22.4128C137.802 22.4842 137.864 22.5424 137.938 22.5815C138.185 22.6873 138.45 22.7455 138.718 22.7531L140.091 22.8936C140.989 22.9276 141.866 23.1736 142.65 23.6113C142.918 23.7713 143.138 24.0008 143.286 24.2754C143.435 24.5501 143.506 24.8597 143.493 25.1716C143.493 25.5542 143.389 25.9297 143.191 26.2571C142.993 26.5845 142.709 26.8512 142.369 27.0283C141.411 27.5361 140.332 27.7734 139.249 27.7148C138.179 27.7691 137.112 27.5769 136.128 27.1531C135.785 26.9569 135.488 26.6897 135.257 26.3696C135.026 26.0494 134.865 25.6835 134.786 25.2964L137.486 25.0156C137.626 25.7177 138.219 26.0609 139.233 26.0609C139.61 26.0766 139.987 26.0184 140.341 25.8893C140.439 25.8584 140.526 25.7988 140.59 25.7181C140.654 25.6375 140.692 25.5395 140.7 25.4368C140.701 25.3504 140.679 25.2653 140.635 25.1909C140.59 25.1166 140.527 25.0559 140.45 25.0156C140.173 24.8988 139.877 24.8302 139.576 24.8127L138.157 24.6879C137.325 24.6434 136.516 24.397 135.801 23.9701C135.548 23.7976 135.342 23.5643 135.203 23.2917C135.064 23.019 134.996 22.7158 135.005 22.4099C135.007 22.038 135.112 21.6739 135.307 21.3575C135.503 21.041 135.781 20.7844 136.113 20.6156C137.019 20.1191 138.045 19.8816 139.077 19.929C141.605 19.929 143.04 20.6936 143.368 22.2226L140.684 22.4879C140.45 21.895 139.935 21.5985 139.03 21.5985ZM110.945 17.339V21.0524C110.606 20.683 110.191 20.3905 109.729 20.1943C109.236 19.982 108.704 19.8757 108.168 19.8822C107.566 19.8718 106.967 19.9778 106.405 20.1943L104.158 24.8751C104.307 25.5405 104.656 26.1446 105.157 26.607C105.981 27.345 107.064 27.7265 108.168 27.668C108.735 27.6771 109.296 27.5543 109.807 27.3092C110.301 27.0812 110.734 26.7389 111.07 26.3106L111.289 27.5432H113.894V17.3078L110.945 17.339ZM110.431 25.2496C110.035 25.581 109.535 25.7625 109.019 25.7625C108.502 25.7625 108.002 25.581 107.606 25.2496C107.429 25.0567 107.293 24.8303 107.204 24.5838C107.116 24.3373 107.078 24.0756 107.092 23.8141C107.078 23.555 107.116 23.2958 107.205 23.0519C107.293 22.808 107.43 22.5843 107.606 22.3943C107.878 22.107 108.231 21.9098 108.617 21.829C109.004 21.7482 109.406 21.7879 109.77 21.9425C110.134 22.0971 110.441 22.3593 110.651 22.6939C110.861 23.0285 110.964 23.4194 110.945 23.8141C110.965 24.0735 110.932 24.3342 110.849 24.5807C110.766 24.8272 110.634 25.0547 110.462 25.2496H110.431Z" fill="#EFDC71"/><path d="M11.8056 16.3716H8.76311L9.79289 12.4553H12.9134C14.1149 8.41415 16.8297 6.66666 21.7446 6.66666C23.0686 6.6664 24.3898 6.78653 25.6921 7.02554L24.4906 10.8638C23.562 10.6699 22.6152 10.5758 21.6665 10.583C19.5758 10.583 18.6708 11.051 18.2027 12.4553H24.163L23.0864 16.3716H17.1574L14.3957 26.7474C13.0226 31.8026 10.4638 33.3317 6.45389 33.3317C5.40819 33.3462 4.36343 33.2627 3.33334 33.0821V28.8537C3.92625 28.9474 5.37732 29.2906 5.93902 29.2906C6.28784 29.3458 6.64417 29.3307 6.98709 29.2463C7.33001 29.1619 7.65263 29.0099 7.93602 28.7992C8.21942 28.5885 8.45787 28.3233 8.6374 28.0192C8.81694 27.7151 8.93392 27.3781 8.98152 27.0282L11.8056 16.3716ZM37.1289 20.0382C37.1289 22.6595 35.6778 23.8921 32.448 23.8921C29.2183 23.8921 27.7672 22.6595 27.7672 20.0382C27.7672 17.4169 29.2495 16.1999 32.448 16.1999C35.6466 16.1999 37.1289 17.4325 37.1289 20.0382ZM22.2906 20.0382C22.2906 24.9843 26.0197 27.8396 32.4168 27.8396C38.814 27.8396 42.543 24.9375 42.543 20.0382C42.543 15.1389 38.814 12.2368 32.4168 12.2368C26.0197 12.2368 22.2906 15.1546 22.2906 20.0382ZM44.1345 27.5899H49.4082V20.7871C49.4082 18.1034 51.2181 16.512 54.245 16.512C56.4294 16.512 57.584 17.6042 57.584 19.6325V27.6367H62.8577V18.4935C62.8577 14.4992 60.4393 12.2524 56.1018 12.2524C54.7725 12.2147 53.4536 12.4969 52.2562 13.0753C51.0587 13.6536 50.0178 14.5112 49.221 15.5758L48.8309 12.5645H44.1501L44.1345 27.5899ZM79.2562 20.0382C79.2562 22.4566 77.5243 23.8297 74.3414 23.8297C71.1584 23.8297 69.6605 22.4878 69.6605 20.0382C69.6605 17.5886 71.2208 16.2623 74.3414 16.2623C77.4619 16.2623 79.2562 17.6354 79.2562 20.0382ZM64.2464 20.0382C64.2464 24.875 67.367 27.8396 72.6407 27.8396C73.9269 27.8945 75.2089 27.6594 76.3919 27.1517C77.5749 26.6439 78.6285 25.8765 79.4747 24.9062L79.8023 27.5431H84.4831V7.00992H79.2562V14.8893C78.4048 14.0002 77.3757 13.3003 76.2358 12.8353C75.096 12.3702 73.8711 12.1504 72.6407 12.19C67.4606 12.19 64.2464 15.217 64.2464 19.9914M99.1653 12.4553L95.2178 21.7233L90.8803 12.4553H85.0604L92.5185 26.8566C92.2343 27.6517 91.6809 28.3224 90.9544 28.7526C90.2278 29.1829 89.3737 29.3456 88.5399 29.2126C87.8555 29.2138 87.1721 29.1616 86.4959 29.0566L86.6831 32.9573C87.6399 33.2117 88.6264 33.3376 89.6164 33.3317C93.4859 33.3317 95.3738 31.7714 97.5738 27.2935L104.689 12.4553H99.1653Z" fill="white"/></svg>